<?xml version="1.0" encoding="utf-8"?>
<!-- Generator: Adobe Illustrator 25.2.1, SVG Export Plug-In . SVG Version: 6.00 Build 0)  -->
<svg version="1.1" id="Layer_1" xmlns="http://www.w3.org/2000/svg" xmlns:xlink="http://www.w3.org/1999/xlink" x="0px" y="0px"
	 viewBox="0 0 112 112" style="enable-background:new 0 0 112 112;" xml:space="preserve">
<style type="text/css">
	.st0{fill:#FFFFFF;}
	.st1{fill:#BDA58D;}
	.st2{fill:#231F20;}
	.st3{fill:url(#SVGID_1_);}
	.st4{fill:url(#SVGID_2_);}
	.st5{fill:url(#SVGID_3_);}
	.st6{fill:url(#SVGID_4_);}
	.st7{fill:url(#SVGID_5_);}
	.st8{fill:url(#SVGID_6_);}
	.st9{fill:url(#SVGID_7_);}
	.st10{fill:url(#SVGID_8_);}
	.st11{fill:url(#SVGID_9_);}
	.st12{fill:url(#SVGID_10_);}
	.st13{fill:url(#SVGID_11_);}
	.st14{fill:url(#SVGID_12_);}
	.st15{fill:url(#SVGID_13_);}
	.st16{fill:url(#SVGID_14_);}
	.st17{fill:url(#SVGID_15_);}
	.st18{fill:url(#SVGID_16_);}
	.st19{fill:url(#SVGID_17_);}
	.st20{fill:url(#SVGID_18_);}
	.st21{fill:url(#SVGID_19_);}
	.st22{fill:url(#SVGID_20_);}
	.st23{fill:url(#SVGID_21_);}
	.st24{fill:url(#SVGID_22_);}
	.st25{fill:url(#SVGID_23_);}
	.st26{fill:url(#SVGID_24_);}
	.st27{fill:url(#SVGID_25_);}
	.st28{fill:url(#SVGID_26_);}
	.st29{fill:url(#SVGID_27_);}
	.st30{fill:url(#SVGID_28_);}
	.st31{fill:url(#SVGID_29_);}
	.st32{fill:url(#SVGID_30_);}
	.st33{fill:url(#SVGID_31_);}
	.st34{fill:url(#SVGID_32_);}
	.st35{fill:url(#SVGID_33_);}
	.st36{fill:url(#SVGID_34_);}
	.st37{fill:url(#SVGID_35_);}
	.st38{fill:url(#SVGID_36_);}
	.st39{fill:url(#SVGID_37_);}
	.st40{fill:url(#SVGID_38_);}
	.st41{fill:url(#SVGID_39_);}
	.st42{fill:#CADB40;}
	.st43{fill:#819937;}
	.st44{fill:#8AB527;}
	.st45{fill:#A1D034;}
</style>
<g>
	<g>
		<path class="st0" d="M106.3,57.7c2.5-4.9,3.7-13.8-5-22.6c-0.9-4.3-4.1-15.4-11.5-17c-1.8-1.2-6.4-4.4-9-6.1
			c-3.9-2.5-8.8-3.2-9.4-3.3c-0.3,0-0.5-0.1-0.7-0.1c-0.2,0-0.4,0-0.7,0.1c-1.7-1.7-4.9-2.7-9.6-3.9c-0.4-0.1-0.8-0.2-1-0.3
			C58.5,4.5,56.9,4,54.6,4C50.1,4,45,5.6,39.4,8.7c-4.4,2.5-7.3,4.1-9.3,5.3c-2.4,1.4-3.5,2-4.6,2.5c-2.2,0.9-3.5,2.1-4.9,3.4
			c-0.7,0.6-1.4,1.3-2.4,2.1C14.3,25.3,9.6,30,7.4,37.5C5.8,42.7,6.3,46,7,47.9c-0.6,2.8-1.7,7.9-2.6,10.3c-2,5.3,1.9,17.9,6.4,23.8
			c0.8,2.4,3.7,8.6,12.8,15.5c0.8,0.6,1.6,1.2,2.3,1.7c8,6,8.6,6.3,17.1,7.1l1.3,0.1c2.7,0.3,4.6,0.6,6.2,0.9c2.2,0.4,4,0.7,6.7,0.7
			c2.8,0,6.3-0.4,11.4-1.2c1.3-0.2,11.9-1.9,21.7-11.7c2.1-1.2,8.8-5.3,10.5-12.2C105.6,79.1,111.2,70.5,106.3,57.7z"/>
		<path class="st0" d="M57.2,111.3c-2.9,0-5-0.4-7.2-0.8c-1.6-0.3-3.4-0.6-6-0.8l-1.3-0.1c-9.1-0.9-10.4-1.4-18.8-7.7l-2.3-1.7
			C12.3,93.1,9,86.5,7.8,83.5C3.4,77.4-1.4,64,1.3,57c0.7-1.8,1.6-5.6,2.3-8.9c-0.9-3.2-0.7-7.1,0.6-11.6c2.5-8.3,7.6-13.5,11.9-17
			c1-0.8,1.7-1.4,2.3-2c1.5-1.4,3.1-2.9,5.9-4c0.9-0.4,1.9-1,4.2-2.3c2.1-1.2,4.9-2.8,9.4-5.4c6-3.4,11.7-5.1,16.8-5.1
			c2.8,0,4.8,0.5,5.6,0.8c0.2,0.1,0.5,0.1,0.9,0.2c4.5,1.1,7.7,2.1,10,3.7c0.2,0,0.4,0,0.7,0.1l0.1,0c1,0.1,6.4,0.9,10.8,3.8
			c2.2,1.5,5.8,3.9,8.5,5.8c8.2,2.3,11.8,13,13.1,18.4c8,8.6,8.2,17.9,5.5,24.4c4.2,12.3-0.2,21.7-6.1,26.8c-2.2,7-8.3,11.2-11.4,13
			C82,107.9,70.7,109.8,69.1,110C63.9,110.9,60.2,111.3,57.2,111.3z M54.6,7.3c-3.9,0-8.5,1.4-13.5,4.3c-4.4,2.5-7.2,4.1-9.2,5.3
			c-2.5,1.4-3.7,2.2-5,2.7c-1.7,0.7-2.6,1.5-3.9,2.8c-0.6,0.6-1.4,1.3-2.5,2.2c-3.5,2.9-7.8,7.2-9.8,13.8c-1.4,4.7-0.9,7.2-0.4,8.3
			c0.2,0.6,0.3,1.2,0.2,1.8c-0.5,2.3-1.7,7.9-2.8,10.8C6,63.2,9.3,74.6,13.4,80c0.2,0.3,0.4,0.6,0.5,0.9c0.7,2.1,3.2,7.6,11.7,13.9
			l2.3,1.7c7.5,5.7,7.7,5.7,15.5,6.4l1.3,0.1c2.8,0.3,4.7,0.6,6.4,0.9c2.1,0.4,3.8,0.7,6.1,0.7c2.6,0,6-0.4,10.8-1.2
			c0,0,0.1,0,0.1,0c1.1-0.1,10.8-1.7,19.8-10.8c0.2-0.2,0.5-0.4,0.8-0.6c1.7-0.9,7.5-4.5,8.9-10.1c0.2-0.7,0.6-1.4,1.2-1.8
			c1.6-1.3,9.4-8.2,4.4-21.3c-0.3-0.9-0.3-1.8,0.1-2.7c1.1-2.2,4.2-10.1-4.4-18.8c-0.4-0.4-0.7-1-0.9-1.6c-1.4-6.4-4.5-13.5-9-14.5
			c-0.4-0.1-0.8-0.3-1.2-0.5c-2.8-1.9-6.6-4.6-8.9-6.1c-3.3-2.2-7.8-2.7-8-2.7l-0.1,0c0,0,0,0,0,0c-1.1,0.3-2.3,0-3.2-0.8
			c-1.2-1.2-4.6-2.2-8.1-3c-0.5-0.1-0.8-0.2-1.1-0.3C57.8,7.7,56.5,7.3,54.6,7.3z"/>
	</g>
	<g>
		<path class="st1" d="M57.2,106.1c-2.5,0-4.3-0.3-6.4-0.7c-1.7-0.3-3.6-0.6-6.3-0.9l-1.3-0.1c-8.2-0.8-8.5-0.9-16.2-6.7l-2.3-1.7
			C15.5,89,13,82.9,12.5,81.1c-4.1-5.2-8.1-17.5-6.3-22.2c1.1-2.9,2.4-9.1,2.8-11.2c-0.7-1.4-1.4-4.3,0.2-9.7
			c2-6.9,6.3-11.2,10.2-14.5c1-0.9,1.8-1.6,2.5-2.2c1.4-1.3,2.5-2.3,4.4-3.1c1.2-0.5,2.4-1.2,4.8-2.6c2-1.2,4.8-2.8,9.3-5.3
			c5.3-2.9,10.1-4.4,14.2-4.4c2.1,0,3.5,0.4,4.3,0.6c0.3,0.1,0.6,0.2,1.1,0.3c3.7,0.9,7.4,1.9,8.9,3.5c0.2,0.2,0.5,0.5,1.1,0.5
			c0.3,0,0.5-0.1,0.5-0.1c0.2,0,0.4-0.1,0.6-0.1c0.1,0,0.1,0,0.2,0c0.2,0,5,0.6,8.6,3c2.8,1.8,7.8,5.3,9.3,6.3
			c6.9,1.1,9.9,13,10.5,16.1c9.9,9.6,6.3,18.6,4.6,21.5c6,14.4-2.3,22.1-5.1,24.1c-1.3,6.9-8.3,11-9.9,11.8
			c-9.5,9.7-19.9,11.3-20.8,11.4C63.4,105.7,59.9,106.1,57.2,106.1C57.2,106.1,57.2,106.1,57.2,106.1z"/>
		<path class="st2" d="M54.6,7.8c1.9,0,3.1,0.3,3.8,0.5c1.7,0.5,7.6,1.7,9.1,3.3c0.8,0.9,1.8,1.1,2.5,1.1c0.6,0,1-0.1,1-0.1
			s4.6,0.5,7.8,2.7c3.2,2.1,9.6,6.6,9.6,6.6c6.7,0.5,9.5,15.3,9.5,15.3c11.5,10.9,4.2,20.4,4.2,20.4c7.3,16.2-4.7,23.2-4.7,23.2
			C96.6,87.9,88.1,92,88.1,92c-9.5,9.8-20,11-20,11c-5.2,0.9-8.4,1.2-10.8,1.2c-4.2,0-6.2-0.9-12.5-1.6c-10-1-8.6-0.5-18.9-8.2
			c-10.3-7.7-11.7-14.2-11.7-14.2c-4.2-5-7.7-16.9-6.3-20.7c1.4-3.8,3.1-12.2,3.1-12.2s-2-2,0-8.8s6.4-10.9,9.6-13.6
			c3.2-2.7,4-4,6.4-5c2.4-1,4.3-2.4,14.3-8C47.3,8.6,51.7,7.8,54.6,7.8 M54.6,4L54.6,4C50.1,4,45,5.6,39.4,8.7
			c-4.4,2.5-7.3,4.1-9.3,5.3c-2.4,1.4-3.5,2-4.6,2.5c-2.2,0.9-3.5,2.1-4.9,3.4c-0.7,0.6-1.4,1.3-2.4,2.1C14.3,25.3,9.6,30,7.4,37.5
			C5.8,42.7,6.3,46,7,47.9c-0.6,2.8-1.7,7.9-2.6,10.3c-2,5.3,1.9,17.9,6.4,23.8c0.8,2.4,3.7,8.6,12.8,15.5c0.8,0.6,1.6,1.2,2.3,1.7
			c8,6,8.6,6.3,17.1,7.1l1.3,0.1c2.7,0.3,4.6,0.6,6.2,0.9c2.2,0.4,4,0.7,6.7,0.7c2.8,0,6.3-0.4,11.4-1.2c1.3-0.2,11.9-1.9,21.7-11.7
			c2.1-1.2,8.8-5.3,10.5-12.2c4.8-3.7,10.4-12.3,5.5-25.1c2.5-4.9,3.7-13.8-5-22.6c-0.9-4.3-4.1-15.4-11.5-17
			c-1.8-1.2-6.4-4.4-9-6.1c-3.9-2.5-8.8-3.2-9.4-3.3c-0.3,0-0.5-0.1-0.7-0.1c-0.2,0-0.4,0-0.7,0.1c-1.7-1.7-4.9-2.7-9.6-3.9
			c-0.4-0.1-0.8-0.2-1-0.3C58.5,4.5,56.9,4,54.6,4L54.6,4z"/>
	</g>
	<g>
		
			<linearGradient id="SVGID_1_" gradientUnits="userSpaceOnUse" x1="-5303.6338" y1="296.6758" x2="-5306.1167" y2="307.2551" gradientTransform="matrix(0.3659 0.9307 -0.9307 0.3659 2312.1384 4859.1846)">
			<stop  offset="0" style="stop-color:#FFE8D6"/>
			<stop  offset="0.4888" style="stop-color:#FCF3EA"/>
			<stop  offset="1" style="stop-color:#FFD184"/>
		</linearGradient>
		<path class="st3" d="M92.1,42.3c-2.2,0.3-4.7-3.8-5.5-9.2c-0.8-5.4,0.3-10.1,2.6-10.4c2.2-0.3,4.7,3.8,5.5,9.2
			C95.5,37.3,94.3,42,92.1,42.3z"/>
		
			<linearGradient id="SVGID_2_" gradientUnits="userSpaceOnUse" x1="-5288.0391" y1="295.8941" x2="-5289.0103" y2="303.019" gradientTransform="matrix(0.3659 0.9307 -0.9307 0.3659 2312.1384 4859.1846)">
			<stop  offset="0" style="stop-color:#FFE8D6"/>
			<stop  offset="0.4888" style="stop-color:#FCF3EA"/>
			<stop  offset="1" style="stop-color:#FFD184"/>
		</linearGradient>
		<path class="st4" d="M101.5,56.4c-2.2,0.5-5-3.4-6.2-8.8C94,42.3,94.8,37.5,97,37s5,3.4,6.2,8.8C104.5,51.1,103.7,55.9,101.5,56.4
			z"/>
		
			<linearGradient id="SVGID_3_" gradientUnits="userSpaceOnUse" x1="-5288.6079" y1="312.4677" x2="-5288.2837" y2="304.3713" gradientTransform="matrix(0.3659 0.9307 -0.9307 0.3659 2312.1384 4859.1846)">
			<stop  offset="0" style="stop-color:#FFE8D6"/>
			<stop  offset="0.4888" style="stop-color:#FCF3EA"/>
			<stop  offset="1" style="stop-color:#FFD184"/>
		</linearGradient>
		<path class="st5" d="M93.7,59.6c-2.2,0.7-5.3-3-7-8.2c-1.7-5.2-1.3-10,0.9-10.7c2.2-0.7,5.3,3,7,8.2
			C96.2,54.1,95.8,58.9,93.7,59.6z"/>
		
			<linearGradient id="SVGID_4_" gradientUnits="userSpaceOnUse" x1="-5297.3389" y1="324.7075" x2="-5300.7935" y2="313.1566" gradientTransform="matrix(0.3659 0.9307 -0.9307 0.3659 2312.1384 4859.1846)">
			<stop  offset="0" style="stop-color:#FFE8D6"/>
			<stop  offset="0.4888" style="stop-color:#FCF3EA"/>
			<stop  offset="1" style="stop-color:#FFD184"/>
		</linearGradient>
		<path class="st6" d="M82.9,51.9c-1.8,1.4-6-1-9.3-5.3c-3.4-4.3-4.6-9-2.8-10.4c1.8-1.4,6,1,9.3,5.3C83.4,45.8,84.7,50.5,82.9,51.9
			z"/>
		
			<linearGradient id="SVGID_5_" gradientUnits="userSpaceOnUse" x1="-5309.0439" y1="329.7756" x2="-5319.9473" y2="326.429" gradientTransform="matrix(0.3659 0.9307 -0.9307 0.3659 2312.1384 4859.1846)">
			<stop  offset="0" style="stop-color:#FFE8D6"/>
			<stop  offset="0.4888" style="stop-color:#FCF3EA"/>
			<stop  offset="1" style="stop-color:#FFD184"/>
		</linearGradient>
		<path class="st7" d="M72.3,32.5c0.1,2.3-4.2,4.3-9.7,4.6c-5.5,0.3-10-1.3-10.1-3.6c-0.1-2.3,4.2-4.3,9.7-4.6
			C67.7,28.7,72.2,30.3,72.3,32.5z"/>
		
			<linearGradient id="SVGID_6_" gradientUnits="userSpaceOnUse" x1="-5094.9521" y1="189.0822" x2="-5094.0884" y2="197.8264" gradientTransform="matrix(0.4214 0.9069 -0.9069 0.4214 2349.9475 4570.4814)">
			<stop  offset="0" style="stop-color:#FFE8D6"/>
			<stop  offset="0.4888" style="stop-color:#FCF3EA"/>
			<stop  offset="1" style="stop-color:#FFD184"/>
		</linearGradient>
		<path class="st8" d="M32.7,40.4c-1.9,1.2-5.8-1.7-8.6-6.4s-3.6-9.5-1.6-10.6s5.8,1.7,8.6,6.4S34.7,39.3,32.7,40.4z"/>
		
			<linearGradient id="SVGID_7_" gradientUnits="userSpaceOnUse" x1="-5858.6733" y1="850.1602" x2="-5860.9399" y2="857.6089" gradientTransform="matrix(0.2193 0.9757 -0.9757 0.2193 2141.3281 5576.7002)">
			<stop  offset="0" style="stop-color:#FFE8D6"/>
			<stop  offset="0.4888" style="stop-color:#FCF3EA"/>
			<stop  offset="1" style="stop-color:#FFD184"/>
		</linearGradient>
		<path class="st9" d="M22.9,56.7c-2.3-0.1-3.8-4.7-3.5-10.2s2.5-9.8,4.7-9.6c2.3,0.1,3.8,4.7,3.5,10.2
			C27.3,52.6,25.2,56.9,22.9,56.7z"/>
		
			<linearGradient id="SVGID_8_" gradientUnits="userSpaceOnUse" x1="-5020.8789" y1="156.2579" x2="-5027.5718" y2="163.5987" gradientTransform="matrix(0.4372 0.8994 -0.8994 0.4372 2357.0857 4486.7314)">
			<stop  offset="0" style="stop-color:#FFE8D6"/>
			<stop  offset="0.4888" style="stop-color:#FCF3EA"/>
			<stop  offset="1" style="stop-color:#FFD184"/>
		</linearGradient>
		<path class="st10" d="M14.1,47.4c-2.2-0.7-2.6-5.4-1-10.7s4.6-9,6.8-8.3s2.6,5.4,1,10.7S16.3,48.1,14.1,47.4z"/>
		
			<linearGradient id="SVGID_9_" gradientUnits="userSpaceOnUse" x1="-5747.9692" y1="750.4628" x2="-5744.0825" y2="757.3717" gradientTransform="matrix(0.2515 0.9679 -0.9679 0.2515 2189.2561 5425.5605)">
			<stop  offset="0" style="stop-color:#FFE8D6"/>
			<stop  offset="0.4888" style="stop-color:#FCF3EA"/>
			<stop  offset="1" style="stop-color:#FFD184"/>
		</linearGradient>
		<path class="st11" d="M20.8,61.6c-1.7,1.5-6-0.8-9.5-5s-5-8.8-3.2-10.3c1.7-1.5,6,0.8,9.5,5S22.6,60.1,20.8,61.6z"/>
		
			<linearGradient id="SVGID_10_" gradientUnits="userSpaceOnUse" x1="-5300.5767" y1="381.5013" x2="-5301.2241" y2="391.5409" gradientTransform="matrix(0.3659 0.9307 -0.9307 0.3659 2312.1384 4859.1846)">
			<stop  offset="0" style="stop-color:#FFE8D6"/>
			<stop  offset="0.4888" style="stop-color:#FCF3EA"/>
			<stop  offset="1" style="stop-color:#FFD184"/>
		</linearGradient>
		<path class="st12" d="M16.9,76.4c-2.1,0.8-5.4-2.7-7.4-7.8s-1.9-9.9,0.2-10.7s5.4,2.7,7.4,7.8S19,75.6,16.9,76.4z"/>
		
			<linearGradient id="SVGID_11_" gradientUnits="userSpaceOnUse" x1="-5283.1978" y1="381.3525" x2="-5279.3115" y2="387.9376" gradientTransform="matrix(0.3659 0.9307 -0.9307 0.3659 2312.1384 4859.1846)">
			<stop  offset="0" style="stop-color:#FFE8D6"/>
			<stop  offset="0.4888" style="stop-color:#FCF3EA"/>
			<stop  offset="1" style="stop-color:#FFD184"/>
		</linearGradient>
		<path class="st13" d="M29.1,91.7c-1.6,1.6-6-0.2-10-4s-5.8-8.3-4.2-9.9s6,0.2,10,4C28.8,85.6,30.7,90,29.1,91.7z"/>
		
			<linearGradient id="SVGID_12_" gradientUnits="userSpaceOnUse" x1="-5290.8906" y1="373.2441" x2="-5292.186" y2="383.3916" gradientTransform="matrix(0.3659 0.9307 -0.9307 0.3659 2312.1384 4859.1846)">
			<stop  offset="0" style="stop-color:#FFE8D6"/>
			<stop  offset="0.4888" style="stop-color:#FCF3EA"/>
			<stop  offset="1" style="stop-color:#FFD184"/>
		</linearGradient>
		<path class="st14" d="M27.3,82.3c-2.2,0.6-5.2-3.1-6.7-8.4c-1.5-5.3-1-10.1,1.2-10.7c2.2-0.6,5.2,3.1,6.7,8.4
			C30,76.9,29.5,81.7,27.3,82.3z"/>
		
			<linearGradient id="SVGID_13_" gradientUnits="userSpaceOnUse" x1="-5259.8926" y1="378.643" x2="-5267.7734" y2="371.4102" gradientTransform="matrix(0.3659 0.9307 -0.9307 0.3659 2312.1384 4859.1846)">
			<stop  offset="0" style="stop-color:#FFE8D6"/>
			<stop  offset="0.4888" style="stop-color:#FCF3EA"/>
			<stop  offset="1" style="stop-color:#FFD184"/>
		</linearGradient>
		<path class="st15" d="M46.6,101c-0.8,2.1-5.6,2.3-10.7,0.4c-5.2-1.9-8.7-5.1-7.9-7.3c0.8-2.1,5.6-2.3,10.7-0.4
			C43.8,95.6,47.4,98.8,46.6,101z"/>
		
			<linearGradient id="SVGID_14_" gradientUnits="userSpaceOnUse" x1="-5277.1577" y1="367.9462" x2="-5271.6523" y2="373.3438" gradientTransform="matrix(0.3659 0.9307 -0.9307 0.3659 2312.1384 4859.1846)">
			<stop  offset="0" style="stop-color:#FFE8D6"/>
			<stop  offset="0.4888" style="stop-color:#FCF3EA"/>
			<stop  offset="1" style="stop-color:#FFD184"/>
		</linearGradient>
		<path class="st16" d="M46.6,89.9c-0.8,2.1-5.6,2.3-10.7,0.4c-5.2-1.9-8.7-5.1-7.9-7.3c0.8-2.1,5.6-2.3,10.7-0.4
			C43.9,84.6,47.4,87.8,46.6,89.9z"/>
		
			<linearGradient id="SVGID_15_" gradientUnits="userSpaceOnUse" x1="-5280.5229" y1="370.7707" x2="-5287.4316" y2="361.8106" gradientTransform="matrix(0.3659 0.9307 -0.9307 0.3659 2312.1384 4859.1846)">
			<stop  offset="0" style="stop-color:#FFE8D6"/>
			<stop  offset="0.4888" style="stop-color:#FCF3EA"/>
			<stop  offset="1" style="stop-color:#FFD184"/>
		</linearGradient>
		<path class="st17" d="M46.1,81.4c-1.3,1.9-6,0.9-10.5-2.2c-4.5-3.1-7.1-7.1-5.9-9c1.3-1.9,6-0.9,10.5,2.2
			C44.8,75.5,47.4,79.5,46.1,81.4z"/>
		
			<linearGradient id="SVGID_16_" gradientUnits="userSpaceOnUse" x1="-5299.9131" y1="365.1409" x2="-5294.8389" y2="372.2658" gradientTransform="matrix(0.3659 0.9307 -0.9307 0.3659 2312.1384 4859.1846)">
			<stop  offset="0" style="stop-color:#FFE8D6"/>
			<stop  offset="0.4888" style="stop-color:#FCF3EA"/>
			<stop  offset="1" style="stop-color:#FFD184"/>
		</linearGradient>
		<path class="st18" d="M39.2,69.5c-1.3,1.8-6,0.8-10.5-2.4c-4.5-3.2-7-7.3-5.7-9.1c1.3-1.8,6-0.8,10.5,2.4
			C37.9,63.5,40.5,67.6,39.2,69.5z"/>
		
			<linearGradient id="SVGID_17_" gradientUnits="userSpaceOnUse" x1="-5307.9429" y1="354.7346" x2="-5307.4033" y2="366.8252" gradientTransform="matrix(0.3659 0.9307 -0.9307 0.3659 2312.1384 4859.1846)">
			<stop  offset="0" style="stop-color:#FFE8D6"/>
			<stop  offset="0.4888" style="stop-color:#FCF3EA"/>
			<stop  offset="1" style="stop-color:#FFD184"/>
		</linearGradient>
		<path class="st19" d="M38.6,60.5c-2.1,0.9-5.5-2.5-7.6-7.6s-2.2-9.9-0.1-10.7c2.1-0.9,5.5,2.5,7.6,7.6S40.7,59.7,38.6,60.5z"/>
		
			<linearGradient id="SVGID_18_" gradientUnits="userSpaceOnUse" x1="-5305.9624" y1="349.6964" x2="-5324.4224" y2="343.3272" gradientTransform="matrix(0.3659 0.9307 -0.9307 0.3659 2312.1384 4859.1846)">
			<stop  offset="0" style="stop-color:#FFE8D6"/>
			<stop  offset="0.4888" style="stop-color:#FCF3EA"/>
			<stop  offset="1" style="stop-color:#FFD184"/>
		</linearGradient>
		<path class="st20" d="M54.9,38.5c0,2.3-4.5,4-10,3.9s-9.9-2-9.9-4.3c0-2.3,4.5-4,10-3.9S55,36.2,54.9,38.5z"/>
		
			<linearGradient id="SVGID_19_" gradientUnits="userSpaceOnUse" x1="-5270.3638" y1="310.4336" x2="-5266.1538" y2="301.9053" gradientTransform="matrix(0.3659 0.9307 -0.9307 0.3659 2312.1384 4859.1846)">
			<stop  offset="0" style="stop-color:#FFE8D6"/>
			<stop  offset="0.4888" style="stop-color:#FCF3EA"/>
			<stop  offset="1" style="stop-color:#FFD184"/>
		</linearGradient>
		<path class="st21" d="M98,78c-2.2-0.3-3.4-5-2.5-10.4s3.3-9.5,5.6-9.2c2.2,0.3,3.4,5,2.5,10.4S100.3,78.3,98,78z"/>
		
			<linearGradient id="SVGID_20_" gradientUnits="userSpaceOnUse" x1="-5262.7529" y1="322.2841" x2="-5260.4858" y2="313.6479" gradientTransform="matrix(0.3659 0.9307 -0.9307 0.3659 2312.1384 4859.1846)">
			<stop  offset="0" style="stop-color:#FFE8D6"/>
			<stop  offset="0.4888" style="stop-color:#FCF3EA"/>
			<stop  offset="1" style="stop-color:#FFD184"/>
		</linearGradient>
		<path class="st22" d="M92.4,88.5c-2.3,0.2-4.5-4-5.1-9.5c-0.6-5.5,0.8-10.1,3.1-10.3c2.3-0.2,4.5,4,5.1,9.5S94.7,88.3,92.4,88.5z"
			/>
		
			<linearGradient id="SVGID_21_" gradientUnits="userSpaceOnUse" x1="-5278.9414" y1="319.9094" x2="-5270.0894" y2="317.9662" gradientTransform="matrix(0.3659 0.9307 -0.9307 0.3659 2312.1384 4859.1846)">
			<stop  offset="0" style="stop-color:#FFE8D6"/>
			<stop  offset="0.4888" style="stop-color:#FCF3EA"/>
			<stop  offset="1" style="stop-color:#FFD184"/>
		</linearGradient>
		<path class="st23" d="M77,72.1c-1.3-1.9,1.4-5.9,5.9-9c4.6-3.1,9.3-4,10.5-2.1c1.3,1.9-1.4,5.9-5.9,9S78.3,74,77,72.1z"/>
		
			<linearGradient id="SVGID_22_" gradientUnits="userSpaceOnUse" x1="-5258.1387" y1="356.4711" x2="-5266.3428" y2="357.7665" gradientTransform="matrix(0.3659 0.9307 -0.9307 0.3659 2312.1384 4859.1846)">
			<stop  offset="0" style="stop-color:#FFE8D6"/>
			<stop  offset="0.4888" style="stop-color:#FCF3EA"/>
			<stop  offset="1" style="stop-color:#FFD184"/>
		</linearGradient>
		<path class="st24" d="M45.6,96.7c-1.1-2,1.8-5.8,6.6-8.5c4.8-2.7,9.5-3.3,10.7-1.3c1.1,2-1.8,5.8-6.6,8.5
			C51.4,98.1,46.7,98.7,45.6,96.7z"/>
		
			<linearGradient id="SVGID_23_" gradientUnits="userSpaceOnUse" x1="-5245.8052" y1="361.1419" x2="-5258.8672" y2="358.1193" gradientTransform="matrix(0.3659 0.9307 -0.9307 0.3659 2312.1384 4859.1846)">
			<stop  offset="0" style="stop-color:#FFE8D6"/>
			<stop  offset="0.4888" style="stop-color:#FCF3EA"/>
			<stop  offset="1" style="stop-color:#FFD184"/>
		</linearGradient>
		<path class="st25" d="M45.9,103.2c-0.2-2.3,4.1-4.5,9.5-5c5.5-0.5,10.1,1,10.3,3.2s-4.1,4.5-9.5,5S46.1,105.5,45.9,103.2z"/>
		
			<linearGradient id="SVGID_24_" gradientUnits="userSpaceOnUse" x1="-5270.498" y1="351.48" x2="-5278.8105" y2="354.5027" gradientTransform="matrix(0.3659 0.9307 -0.9307 0.3659 2312.1384 4859.1846)">
			<stop  offset="0" style="stop-color:#FFE8D6"/>
			<stop  offset="0.4888" style="stop-color:#FCF3EA"/>
			<stop  offset="1" style="stop-color:#FFD184"/>
		</linearGradient>
		<path class="st26" d="M46.7,86.2c-1.5-1.7,0.8-6,5-9.5s8.8-5,10.3-3.2c1.5,1.7-0.8,6-5,9.5S48.1,88,46.7,86.2z"/>
		
			<linearGradient id="SVGID_25_" gradientUnits="userSpaceOnUse" x1="-5245.1929" y1="330.4232" x2="-5257.6074" y2="334.2016" gradientTransform="matrix(0.3659 0.9307 -0.9307 0.3659 2312.1384 4859.1846)">
			<stop  offset="0" style="stop-color:#FFE8D6"/>
			<stop  offset="0.4888" style="stop-color:#FCF3EA"/>
			<stop  offset="1" style="stop-color:#FFD184"/>
		</linearGradient>
		<path class="st27" d="M74.1,99.9c-1.7-1.8,0.1-6.4,4.2-10.1c4-3.7,8.6-5.3,10.4-3.5c1.7,1.8-0.1,6.4-4.2,10.1
			C80.4,100.2,75.8,101.8,74.1,99.9z"/>
		
			<linearGradient id="SVGID_26_" gradientUnits="userSpaceOnUse" x1="-5256.3706" y1="340.4883" x2="-5256.2627" y2="350.7438" gradientTransform="matrix(0.3659 0.9307 -0.9307 0.3659 2312.1384 4859.1846)">
			<stop  offset="0" style="stop-color:#FFE8D6"/>
			<stop  offset="0.4888" style="stop-color:#FCF3EA"/>
			<stop  offset="1" style="stop-color:#FFD184"/>
		</linearGradient>
		<path class="st28" d="M71.1,102.9c-2.2,0.7-5.2-3-6.9-8.3c-1.6-5.2-1.2-10,1-10.7c2.2-0.7,5.2,3,6.9,8.3S73.2,102.3,71.1,102.9z"
			/>
		
			<linearGradient id="SVGID_27_" gradientUnits="userSpaceOnUse" x1="-7111.1187" y1="4877.1328" x2="-7111.0107" y2="4887.3882" gradientTransform="matrix(-0.6486 0.7611 -0.7611 -0.6486 -840.3939 8624.7236)">
			<stop  offset="0" style="stop-color:#FFE8D6"/>
			<stop  offset="0.4888" style="stop-color:#FCF3EA"/>
			<stop  offset="1" style="stop-color:#FFD184"/>
		</linearGradient>
		<path class="st29" d="M49.8,53.2c-1.6-1.6,0.2-6,4.1-9.9s8.3-5.8,9.9-4.2c1.6,1.6-0.2,6-4.1,9.9S51.4,54.8,49.8,53.2z"/>
		
			<linearGradient id="SVGID_28_" gradientUnits="userSpaceOnUse" x1="-5991.5254" y1="990.652" x2="-5991.4175" y2="1000.9075" gradientTransform="matrix(0.1752 0.9845 -0.9845 0.1752 2073.8064 5777.3027)">
			<stop  offset="0" style="stop-color:#FFE8D6"/>
			<stop  offset="0.4888" style="stop-color:#FCF3EA"/>
			<stop  offset="1" style="stop-color:#FFD184"/>
		</linearGradient>
		<path class="st30" d="M45.7,62.6c-2.3,0.2-4.5-4-5.1-9.5c-0.6-5.5,0.8-10.1,3.1-10.3c2.3-0.2,4.5,4,5.1,9.5
			C49.4,57.8,48,62.4,45.7,62.6z"/>
		
			<linearGradient id="SVGID_29_" gradientUnits="userSpaceOnUse" x1="-5258.9292" y1="328.4824" x2="-5267.2412" y2="332.5845" gradientTransform="matrix(0.3659 0.9307 -0.9307 0.3659 2312.1384 4859.1846)">
			<stop  offset="0" style="stop-color:#FFE8D6"/>
			<stop  offset="0.4888" style="stop-color:#FCF3EA"/>
			<stop  offset="1" style="stop-color:#FFD184"/>
		</linearGradient>
		<path class="st31" d="M71.9,88.9c-1.6-1.6,0.3-6,4.2-9.9s8.4-5.6,10-4s-0.3,6-4.2,9.9C78,88.7,73.5,90.5,71.9,88.9z"/>
		
			<linearGradient id="SVGID_30_" gradientUnits="userSpaceOnUse" x1="-5274.0415" y1="338.9807" x2="-5265.5835" y2="338.9807" gradientTransform="matrix(0.3659 0.9307 -0.9307 0.3659 2312.1384 4859.1846)">
			<stop  offset="0" style="stop-color:#FFE8D6"/>
			<stop  offset="0.4888" style="stop-color:#FCF3EA"/>
			<stop  offset="1" style="stop-color:#FFD184"/>
		</linearGradient>
		<path class="st32" d="M59.9,83.4c-1.1-2,2-5.7,6.9-8.3c4.8-2.6,9.6-3,10.7-1c1.1,2-2,5.7-6.9,8.3S60.9,85.4,59.9,83.4z"/>
		
			<linearGradient id="SVGID_31_" gradientUnits="userSpaceOnUse" x1="-5283.8418" y1="333.8653" x2="-5275.3838" y2="333.8653" gradientTransform="matrix(0.3659 0.9307 -0.9307 0.3659 2312.1384 4859.1846)">
			<stop  offset="0" style="stop-color:#FFE8D6"/>
			<stop  offset="0.4888" style="stop-color:#FCF3EA"/>
			<stop  offset="1" style="stop-color:#FFD184"/>
		</linearGradient>
		<path class="st33" d="M61,72.4c-1.1-2,2-5.7,6.9-8.3c4.8-2.6,9.6-3,10.7-1s-2,5.7-6.9,8.3S62.1,74.4,61,72.4z"/>
		
			<linearGradient id="SVGID_32_" gradientUnits="userSpaceOnUse" x1="-5283.2056" y1="324.1042" x2="-5291.3022" y2="319.4622" gradientTransform="matrix(0.3659 0.9307 -0.9307 0.3659 2312.1384 4859.1846)">
			<stop  offset="0" style="stop-color:#FFE8D6"/>
			<stop  offset="0.4888" style="stop-color:#FCF3EA"/>
			<stop  offset="1" style="stop-color:#FFD184"/>
		</linearGradient>
		<path class="st34" d="M68.4,54.8c0.4-2.2,5-3.4,10.4-2.5s9.5,3.4,9.2,5.6s-5,3.4-10.4,2.5C72.2,59.5,68.1,57,68.4,54.8z"/>
		
			<linearGradient id="SVGID_33_" gradientUnits="userSpaceOnUse" x1="-5331.3599" y1="328.5305" x2="-5320.1328" y2="335.0076" gradientTransform="matrix(0.3659 0.9307 -0.9307 0.3659 2312.1384 4859.1846)">
			<stop  offset="0" style="stop-color:#FFE8D6"/>
			<stop  offset="0.4888" style="stop-color:#FCF3EA"/>
			<stop  offset="1" style="stop-color:#FFD184"/>
		</linearGradient>
		<path class="st35" d="M45.1,22.2c0.4-2.2,5-3.4,10.4-2.5c5.4,0.8,9.5,3.4,9.2,5.6s-5,3.4-10.4,2.5C48.9,26.9,44.8,24.4,45.1,22.2z
			"/>
		
			<linearGradient id="SVGID_34_" gradientUnits="userSpaceOnUse" x1="-5345.1475" y1="330.0026" x2="-5330.6821" y2="334.3206" gradientTransform="matrix(0.3659 0.9307 -0.9307 0.3659 2312.1384 4859.1846)">
			<stop  offset="0" style="stop-color:#FFE8D6"/>
			<stop  offset="0.4888" style="stop-color:#FCF3EA"/>
			<stop  offset="1" style="stop-color:#FFD184"/>
		</linearGradient>
		<path class="st36" d="M40.2,14c-0.1-2.3,4.2-4.4,9.7-4.7s10,1.2,10.2,3.5c0.1,2.3-4.2,4.4-9.7,4.7S40.4,16.3,40.2,14z"/>
		
			<linearGradient id="SVGID_35_" gradientUnits="userSpaceOnUse" x1="-5331.3804" y1="348.9941" x2="-5340.2324" y2="347.8066" gradientTransform="matrix(0.3659 0.9307 -0.9307 0.3659 2312.1384 4859.1846)">
			<stop  offset="0" style="stop-color:#FFE8D6"/>
			<stop  offset="0.4888" style="stop-color:#FCF3EA"/>
			<stop  offset="1" style="stop-color:#FFD184"/>
		</linearGradient>
		<path class="st37" d="M25.9,22.3c-0.4-2.2,3.7-4.8,9.1-5.7c5.4-0.9,10.1,0.2,10.5,2.4c0.4,2.2-3.7,4.8-9.1,5.7
			C31,25.6,26.3,24.5,25.9,22.3z"/>
		
			<linearGradient id="SVGID_36_" gradientUnits="userSpaceOnUse" x1="-5328.7026" y1="344.5694" x2="-5319.9585" y2="348.1318" gradientTransform="matrix(0.3659 0.9307 -0.9307 0.3659 2312.1384 4859.1846)">
			<stop  offset="0" style="stop-color:#FFE8D6"/>
			<stop  offset="0.4888" style="stop-color:#FCF3EA"/>
			<stop  offset="1" style="stop-color:#FFD184"/>
		</linearGradient>
		<path class="st38" d="M31.9,29.2c0.1-2.3,4.6-3.9,10.1-3.6s9.8,2.3,9.7,4.6s-4.6,3.9-10.1,3.6S31.8,31.4,31.9,29.2z"/>
		
			<linearGradient id="SVGID_37_" gradientUnits="userSpaceOnUse" x1="-5319.2163" y1="311.884" x2="-5321.1592" y2="303.0319" gradientTransform="matrix(0.3659 0.9307 -0.9307 0.3659 2312.1384 4859.1846)">
			<stop  offset="0" style="stop-color:#FFE8D6"/>
			<stop  offset="0.4888" style="stop-color:#FCF3EA"/>
			<stop  offset="1" style="stop-color:#FFD184"/>
		</linearGradient>
		<path class="st39" d="M85.5,29.1c-1.8,1.3-6.1-1.5-9.5-6.2s-4.6-9.7-2.8-11c1.8-1.3,6.1,1.5,9.5,6.2S87.4,27.7,85.5,29.1z"/>
		
			<linearGradient id="SVGID_38_" gradientUnits="userSpaceOnUse" x1="-5328.584" y1="314.0351" x2="-5327.1807" y2="322.7792" gradientTransform="matrix(0.3659 0.9307 -0.9307 0.3659 2312.1384 4859.1846)">
			<stop  offset="0" style="stop-color:#FFE8D6"/>
			<stop  offset="0.4888" style="stop-color:#FCF3EA"/>
			<stop  offset="1" style="stop-color:#FFD184"/>
		</linearGradient>
		<path class="st40" d="M71.5,26.5c-2,1.1-5.9-2.1-8.8-7.2S59.2,9.2,61.2,8.1c2-1.1,5.9,2.1,8.8,7.2C72.8,20.4,73.5,25.4,71.5,26.5z
			"/>
		
			<linearGradient id="SVGID_39_" gradientUnits="userSpaceOnUse" x1="-5306.4966" y1="316.3299" x2="-5309.0879" y2="308.0176" gradientTransform="matrix(0.3659 0.9307 -0.9307 0.3659 2312.1384 4859.1846)">
			<stop  offset="0" style="stop-color:#FFE8D6"/>
			<stop  offset="0.4888" style="stop-color:#FCF3EA"/>
			<stop  offset="1" style="stop-color:#FFD184"/>
		</linearGradient>
		<path class="st41" d="M86.4,41.8c-1.7,1.4-6.2-1-9.9-5.5s-5.3-9.3-3.5-10.8c1.7-1.4,6.2,1,9.9,5.5S88.2,40.3,86.4,41.8z"/>
	</g>
	<g>
		<path class="st42" d="M87.3,25.1c3.9,10.4-40.1,52.1-40.1,52.1s-17.5-11-17.5-22.1c0-7.9,9.9-4.6,15.6-3.1c2.6,0.7,5.4,0,7.4-1.8
			C61.9,41.7,84,16.1,87.3,25.1z"/>
		<g>
			<g>
				<path class="st43" d="M47.5,87.9c-0.7,0-1.3-0.3-1.8-0.8L25.3,63.2c-0.8-1-0.7-2.5,0.3-3.3c1-0.8,2.5-0.7,3.3,0.3l18.5,21.6
					l41.7-54.5c0.8-1,2.3-1.2,3.3-0.4c1,0.8,1.2,2.3,0.4,3.3L49.4,86.9C48.9,87.5,48.3,87.8,47.5,87.9
					C47.5,87.9,47.5,87.9,47.5,87.9z"/>
			</g>
			<g>
				<path class="st44" d="M47.5,82.4c-0.8,0-1.6-0.3-2.1-0.9L26.6,60.5c-1-1.2-0.9-2.9,0.2-4c1.2-1,2.9-0.9,4,0.2l16.5,18.4L86,24.5
					c0.9-1.2,2.7-1.5,4-0.5c1.2,0.9,1.5,2.7,0.5,4L49.7,81.3c-0.5,0.7-1.3,1.1-2.1,1.1C47.6,82.4,47.5,82.4,47.5,82.4z"/>
			</g>
			<g>
				<path class="st45" d="M47.5,78.4c-0.5,0-1-0.2-1.4-0.6L27.3,56.8c-0.7-0.8-0.6-2,0.1-2.7c0.8-0.7,2-0.6,2.7,0.1l17.3,19.2
					L86.7,22c0.6-0.8,1.8-1,2.6-0.4c0.8,0.6,1,1.8,0.4,2.6L49,77.6C48.6,78.1,48.1,78.4,47.5,78.4C47.5,78.4,47.5,78.4,47.5,78.4z"
					/>
			</g>
		</g>
	</g>
</g>
</svg>
