<?xml version="1.0" encoding="utf-8"?>
<!-- Generator: Adobe Illustrator 25.2.1, SVG Export Plug-In . SVG Version: 6.00 Build 0)  -->
<svg version="1.1" id="Layer_1" xmlns="http://www.w3.org/2000/svg" xmlns:xlink="http://www.w3.org/1999/xlink" x="0px" y="0px"
	 viewBox="0 0 115.9 110.7" style="enable-background:new 0 0 115.9 110.7;" xml:space="preserve">
<style type="text/css">
	.st0{fill:#FFFFFF;}
	.st1{fill:#F4ECD8;}
	.st2{clip-path:url(#SVGID_2_);}
	.st3{fill:#EA4C09;}
	.st4{fill:#F49772;}
	.st5{fill:#C53A10;}
	.st6{fill:#292D14;}
</style>
<path class="st0" d="M107.4,56.4c-3-5.5-6.6-11.2-10.8-16.8l-0.3-0.3c-8.5-13.6-16-23.8-22.3-30.3C68.3,3,62.1,0,55.7,0
	C44.3,0,36.9,9.4,36.6,9.8c-0.1,0.1-0.2,0.2-0.3,0.4c-6.8,8.5-12.4,18.1-16,24.6l-0.4,0.6l-0.1,0.1l0,0.1c-0.1,0.1-0.2,0.3-0.4,0.6
	C15,42.8,11.2,49.4,8.3,55.6C0.7,71.4-1.7,83.8,1.2,92.4c1.9,5.9,6.1,10.2,12.3,12.4l0.3,0.1h0.3c13,3.8,26.9,5.8,41.2,5.8
	c1.7,0,3.4,0,5.2-0.1c13.7-0.2,27.5-2.3,40.8-6.1h0.7l0.4-0.4c6.7-2.9,11-7.6,12.7-14.1C117.3,81.4,114.8,70.1,107.4,56.4z"/>
<path class="st1" d="M95.7,99.7C110.9,89,106.2,67,106.2,67S86.7,29.3,70.4,12.5S40.7,13,40.7,13S24.4,32.1,11.5,66.8
	c0,0-12.7,18.5,3.3,28.9c0,0,9.2,8.3,42.1,8.3S95.7,99.7,95.7,99.7z"/>
<g>
	<g>
		<defs>
			<path id="SVGID_1_" d="M58.4,47.6c-0.6-0.8-1.1-1.6-1.7-2.3c-2.8-3.4-7.1-4.5-11-2.8s-6.2,5.7-5.7,9.9c0.3,3.1,1.7,5.9,3.5,8.4
				c3.5,4.8,8,8.4,12.9,11.8c2,1.4,2,1.4,3.9,0c4.6-3.2,9-6.7,12.5-11.2c1.8-2.3,3.2-4.9,3.7-7.8c0.9-4.7-1.3-9.2-5.4-11
				c-4.2-1.9-8.7-0.5-11.6,3.4C59.2,46.5,58.8,47,58.4,47.6z"/>
		</defs>
		<clipPath id="SVGID_2_">
			<use xlink:href="#SVGID_1_"  style="overflow:visible;"/>
		</clipPath>
		<g class="st2">
			<path class="st3" d="M33.4,75.6c-1.2-0.6-2.6-1.2-3.8-1.8c0-1.8,0.4-3.6,1-5.2c0.6-0.2,1.1-0.7,1.6-1c2.8-1.7,5.6-3.3,8.8-4.3
				c2.5-0.8,5.2-1.3,7.9-1.4c2.9-0.1,5.9,0.1,8.8,0.3c2.8,0.2,5.6,0.5,8.4,0.7c1,0.1,2,0.1,3,0.3c-0.1,0.3-0.4,0.7-0.6,0.9
				c-0.7,0.7-1.2,1.5-1.9,2.2c-0.9,1-1.9,2.1-2.9,3c-1,0.9-2,1.8-2.9,2.8c-0.2,0-0.3,0-0.6,0c-2.3-0.2-4.6-0.6-6.9-0.8
				c-2.9-0.4-5.8-1-8.8-1.2c-1.6-0.1-3.2,0.1-4.7,0.6c-1.6,0.6-3.2,1.5-4.5,2.7C34.7,74.1,33.9,74.8,33.4,75.6z"/>
			<path class="st3" d="M39.6,78.6c-1.7-0.8-3.4-1.6-5.1-2.4c0.8-1.1,1.7-1.9,2.8-2.7c1.9-1.4,4-2.2,6.3-2.2c2.5,0,4.9,0.5,7.3,0.9
				c2.1,0.3,4.1,0.6,6.2,0.9c0.9,0.1,1.7,0.2,2.5,0.4c0,0.2-0.2,0.3-0.3,0.4c-1.1,1.4-2,3-2.9,4.5c-1.2-0.3-2.3-0.8-3.5-1.4
				c-1.3-0.5-2.6-1.1-3.9-1.4c-2.6-0.7-5.1-0.6-7.4,0.9C41,77.1,40.1,77.7,39.6,78.6z"/>
			<path class="st3" d="M53.7,85.4c-4.3-2.1-8.7-4.1-13-6.2c0.1-0.1,0.1-0.2,0.2-0.3c1.7-1.8,3.8-2.7,6.3-2.4c1.4,0.1,2.7,0.5,4,1
				c1.6,0.7,3.3,1.3,4.9,2c-0.1,0.8-0.6,1.4-0.8,2.2c-0.2,0.9-0.5,1.8-0.7,2.7C54.4,84.8,54.4,85.3,53.7,85.4z"/>
			<path class="st4" d="M59.7,73.4c-0.8-0.2-1.7-0.2-2.5-0.4c-2.1-0.3-4.1-0.6-6.2-0.9c-2.5-0.3-4.9-0.8-7.3-0.9
				c-2.3,0-4.5,0.8-6.3,2.2c-1,0.8-2,1.7-2.8,2.7c-0.4-0.2-0.7-0.4-1.1-0.6c0.5-0.9,1.3-1.5,2.1-2.2c1.3-1.2,2.8-2.1,4.5-2.7
				c1.5-0.5,3-0.7,4.7-0.6c3,0.2,5.8,0.8,8.8,1.2c2.3,0.3,4.5,0.6,6.9,0.8c0.2,0,0.4,0,0.6,0c0.5,0.1,0.9,0.1,1.4,0.2
				c1.3,0.1,2.5,0.1,3.8,0.2c-0.2,0.4-0.5,0.8-0.7,1.3c-0.1-0.1-0.3-0.1-0.6-0.1c-0.7,0-1.5-0.1-2.2-0.1
				C61.6,73.5,60.7,73.3,59.7,73.4z"/>
			<path class="st4" d="M82.6,29.1c0,0.1,0,0.1-0.1,0.1c-0.3-0.2-0.4,0-0.7,0.2c-0.7,0.6-1.5,1.1-2.4,1.6c-1.9,1-3.8,1.7-5.8,2.1
				c-2.1,0.5-4.1,0.8-6.2,0.8c-3-0.1-5.8-0.8-8.8-1.1c-1.7-0.2-3.5-0.4-5.2-0.3c-1,0.1-2,0.4-3.1,0.6c0.4-0.6,0.8-1.1,1.1-1.8
				c0.1,0.3,0.3,0.2,0.5,0.1c0.5-0.1,0.9-0.1,1.4-0.2c2.8-0.1,5.4,0.3,8.1,0.8c1.9,0.3,3.8,0.6,5.7,0.7c2.1,0.1,4.2-0.3,6.3-0.8
				c2.5-0.6,4.9-1.5,7-3c0.1-0.1,0.3-0.1,0.2-0.3s-0.2-0.2-0.4-0.2c-0.5-0.3-1.2-0.4-1.7-0.8c0-0.1,0.1-0.1,0.1-0.1
				C80.1,27.9,81.3,28.4,82.6,29.1z"/>
			<path class="st5" d="M53.7,85.4c0.7-0.1,0.6-0.6,0.8-1.1c0.2-0.9,0.5-1.8,0.7-2.7c0.2-0.7,0.7-1.4,0.8-2.2c1.5,0.4,3,0.8,4.6,0.7
				c0.6,0,1.3-0.2,1.9-0.3c-0.8,1.9-1.8,3.7-3.6,4.8c-1.3,0.9-2.8,1.2-4.5,0.8c-0.1,0-0.3-0.2-0.4,0C54,85.5,53.9,85.5,53.7,85.4z"
				/>
			<path class="st4" d="M62.5,79.9c-0.6,0-1.3,0.2-1.9,0.3c-1.6,0.1-3.1-0.3-4.6-0.7c-1.6-0.7-3.3-1.3-4.9-2c-1.3-0.5-2.6-0.9-4-1
				c-2.5-0.2-4.6,0.6-6.3,2.4c-0.1,0.1-0.1,0.2-0.2,0.3c-0.4-0.2-0.7-0.4-1.1-0.6c0.5-1,1.4-1.5,2.3-2.1c2.3-1.5,4.8-1.6,7.4-0.9
				c1.3,0.3,2.6,0.8,3.9,1.4c1.1,0.5,2.2,1,3.5,1.4c1.6,0.5,3.1,0.9,4.8,0.6c0.8-0.1,1.6-0.3,2.1-1.1C63.1,78.5,62.8,79.2,62.5,79.9
				z"/>
			<path class="st4" d="M72.3,62.2c-0.3,0.4-0.6,0.8-0.8,1.2c-0.8-0.1-1.7-0.2-2.4-0.2c-1-0.2-2.1-0.2-3-0.3
				c-2.8-0.2-5.6-0.5-8.4-0.7c-2.9-0.3-5.9-0.5-8.9-0.3c-2.7,0.1-5.3,0.5-7.8,1.3c-3.2,1-6,2.6-8.8,4.3c-0.5,0.3-1,0.8-1.6,1
				c0.1-0.7,0.3-1.2,0.5-1.8c0.2,0.1,0.3-0.1,0.4-0.1c2.2-1.3,4.3-2.6,6.7-3.6c3.4-1.5,7-2.2,10.7-2.3c2.2-0.1,4.4,0,6.5,0.2
				c3.1,0.3,6.1,0.5,9.2,0.7c1.8,0.1,3.6,0.3,5.5,0.4C70.8,62.2,71.6,62.3,72.3,62.2z"/>
			<path class="st5" d="M69.1,63.2c0.8-0.1,1.6,0.1,2.4,0.2c-0.7,1.1-1.4,2.3-2.1,3.4c-1.1,1.8-2.2,3.6-3.2,5.4
				c-0.1,0.1-0.2,0.3-0.3,0.3c-1.3-0.1-2.5-0.1-3.8-0.2c-0.5,0-0.9-0.1-1.4-0.2c1-0.9,2-1.8,2.9-2.8c1-1,2-2,2.9-3
				c0.7-0.7,1.2-1.5,1.9-2.2C68.8,63.9,68.9,63.5,69.1,63.2z"/>
			<path class="st3" d="M70.1,62.1c-1.8-0.1-3.6-0.3-5.5-0.4c-3.1-0.3-6.2-0.5-9.2-0.7c-2.1-0.2-4.3-0.3-6.5-0.2
				c-3.7,0.1-7.3,0.8-10.7,2.3c-2.4,1-4.6,2.3-6.7,3.6c-0.1,0.1-0.2,0.3-0.4,0.1c0.6-2.2,1.3-4.3,2.2-6.3c0.1-0.1,0.2-0.2,0.2-0.4
				c0.2-0.6,0.5-1.2,0.9-1.9c0.1,0,0.2,0,0.2-0.1c0.7-0.7,1.5-1.4,2.4-1.9c3-1.8,6.4-2.4,10-2.6c2.8-0.2,5.6,0.1,8.4,0.5
				c2.1,0.3,4.2,0.6,6.4,1.1c2.6,0.6,5.1,1.3,7.7,1.9c1,0.3,2,0.5,3.1,0.8c0.2,0.1,0.1,0.2,0,0.4c-0.3,0.5-0.6,0.9-0.8,1.3
				C71.2,60.4,70.7,61.3,70.1,62.1z"/>
			<path class="st3" d="M35.8,55.4c1.4-2.6,3-5.1,4.6-7.5c0.3,0,0.4-0.1,0.7-0.2c1.8-0.6,3.6-1.1,5.5-1.3c2.8-0.3,5.7-0.1,8.5,0.3
				c3.7,0.5,7.4,1.1,11.1,1.4c2.7,0.3,5.4,0.4,8.1,0.1c0.9-0.1,2-0.1,3-0.2c0.2,0.1,0.1,0.2,0,0.4c-0.6,1.5-1.3,3-1.9,4.4
				c-0.6,1.3-1.5,2.6-2.1,3.9c-0.1,0-0.2,0.2-0.3,0.2c-1.7-0.2-3.2-0.8-4.8-1.2c-4.1-1.1-8.4-2-12.6-2.6c-3.6-0.4-7.1-0.4-10.7,0
				C42.5,53.4,40.2,54,38,55C37.2,55.4,36.5,55.2,35.8,55.4z"/>
			<path class="st3" d="M41.4,46.2c0.9-1.4,1.8-2.9,2.8-4.3c0.1,0,0.2,0,0.2-0.1c3.2-2,6.6-3,10.4-3.1c3.1-0.1,6.1,0.3,9.2,0.8
				c2,0.3,4.1,0.7,6.2,1c3.4,0.5,6.8,0.7,10.3,0.2c0,0.1-0.1,0.3-0.1,0.4c-0.9,1.7-1.6,3.6-2.3,5.4C76.2,47,74.3,47,72.4,47
				c-3.2,0.1-6.4-0.3-9.5-0.6c-3.3-0.4-6.5-1-9.8-1.3c-2.9-0.3-5.7-0.3-8.5,0.3C43.4,45.7,42.4,46,41.4,46.2z"/>
			<path class="st3" d="M50.4,32.9c1-0.2,2.1-0.5,3.1-0.6c1.8-0.1,3.5,0.1,5.2,0.3c2.9,0.4,5.8,1,8.8,1.1c2.1,0,4.1-0.3,6.2-0.8
				s4-1.1,5.8-2.1c0.8-0.5,1.6-1,2.4-1.6c0.2-0.2,0.4-0.3,0.7-0.2c1,0.8,1.9,1.6,2.3,2.8c-0.1,0.2,0,0.3,0.1,0.3l0,0
				c-0.1,0.2-0.1,0.3-0.2,0.5c-0.5,1-1.1,1.9-1.7,2.9c-0.7,1.2-1.3,2.4-1.9,3.7c-1.2,0.4-2.5,0.4-3.8,0.5c-3.3,0.1-6.6-0.3-9.8-0.8
				c-3.9-0.6-7.8-1.4-11.8-1.4c-2.1,0-4.2,0.2-6.2,0.7c-1.3,0.4-2.6,0.9-3.9,1.4c1-1.6,2.2-3.2,3.3-4.7
				C49.4,34.2,49.8,33.5,50.4,32.9z"/>
			<path class="st3" d="M78.9,27.4c0.5,0.4,1.1,0.5,1.7,0.8c0.1,0.1,0.3,0.1,0.4,0.2c0,0.2-0.2,0.2-0.2,0.3c-2.1,1.5-4.5,2.4-7,3
				c-2.1,0.5-4.2,0.9-6.3,0.8c-1.9-0.1-3.8-0.4-5.7-0.7c-2.7-0.4-5.4-0.9-8.1-0.8c-0.5,0-1,0.1-1.4,0.2c-0.2,0-0.4,0.1-0.5-0.1
				c0.6-0.8,1.2-1.7,1.7-2.5c2.1,0.1,4.2,0.3,6.2,0.4c3.6,0.1,6.9-0.7,9.8-3.1c0.7-0.6,1.5-1.2,2.2-1.8c2.1,1,4.3,1.9,6.4,2.8
				c0.2,0.1,0.3,0.2,0.5,0.2C78.6,27.3,78.7,27.4,78.9,27.4z"/>
			<path class="st3" d="M54.2,27.3c0-0.1,0.1-0.1,0.1-0.2s0.1-0.1,0.1-0.1c1.1-1.5,2-3.2,3.4-4.4c1.5-1.3,3.2-2.1,5.2-1.9
				c0.7,0.1,1.3,0.3,1.9,0.5c1.5,0.6,2.9,1.3,4.3,1.9c0.1,0.1,0.2,0.2,0.4,0.2c0.1,0.1,0.2,0.1,0.3,0.1c0,0.1,0.1,0.1,0.1,0.1
				c0.1,0,0.1,0.1,0.1,0.1c-0.8,0.8-1.7,1.5-2.7,2.1c-1.8,1.2-3.7,1.8-5.8,2c-1.9,0.2-3.7,0-5.6-0.1C55.4,27.5,54.8,27.6,54.2,27.3z
				"/>
			<path class="st4" d="M35.8,55.4c0.7-0.2,1.3-0.6,1.9-0.9c2.2-1.1,4.6-1.6,7-1.9c3.6-0.4,7.2-0.2,10.8,0.3
				c4.3,0.6,8.4,1.5,12.6,2.6c1.6,0.4,3.3,0.9,5,1.2c0.1,0,0.2,0,0.3,0.1C74.2,57,75,57,75.8,57c-0.2,0.5-0.5,1-0.9,1.4
				c0-0.1,0.1-0.1-0.2-0.1c-0.7-0.1-1.4-0.4-2.2-0.4c-1-0.3-2-0.5-3.1-0.8c-2.6-0.6-5.1-1.2-7.7-1.8c-2.1-0.5-4.2-0.8-6.4-1.1
				c-2.8-0.4-5.5-0.5-8.3-0.4c-3.6,0.2-6.9,0.6-10.1,2.5c-0.9,0.5-1.9,1.1-2.6,1.8c0,0.1-0.1,0.1-0.2,0.1
				C34.8,57.2,35.2,56.3,35.8,55.4z"/>
			<path class="st4" d="M41.4,46.2c1-0.2,2-0.5,3-0.8c2.8-0.6,5.7-0.5,8.5-0.3c3.3,0.3,6.5,0.9,9.8,1.3c3.1,0.4,6.3,0.7,9.5,0.6
				c1.9,0,3.9-0.1,5.7-0.5c0.8-0.1,1.6-0.4,2.3-0.6c0.4-0.1,0.9-0.4,1.4-0.5c-0.2,0.6-0.4,1.1-0.7,1.6c-0.1,0-0.1-0.1-0.1,0
				c-1.2,0.4-2.4,0.6-3.6,0.9c-1,0.1-1.9,0.2-3,0.2c-2.7,0.2-5.5,0.1-8.1-0.1c-3.7-0.3-7.4-0.9-11.1-1.4c-2.8-0.4-5.6-0.6-8.5-0.3
				c-1.9,0.2-3.7,0.7-5.5,1.3c-0.2,0.1-0.4,0.2-0.7,0.2C40.7,47.3,41,46.8,41.4,46.2z"/>
			<path class="st4" d="M45.7,39.7c1.3-0.5,2.5-1,3.9-1.4c2-0.5,4.1-0.8,6.2-0.7c4,0.1,7.9,0.8,11.8,1.4c3.3,0.5,6.5,1,9.8,0.8
				c1.3,0,2.5-0.1,3.8-0.5c0.6,0,1.3-0.3,1.9-0.5c0.5-0.2,1.1-0.5,1.6-0.6c-0.2,0.6-0.4,1.1-0.6,1.7c-0.1,0-0.2,0.1-0.3,0.1
				c-1.1,0.4-2.1,0.6-3.3,0.9c-3.4,0.5-7,0.3-10.5-0.2c-2.1-0.3-4.1-0.7-6.1-1c-3-0.5-6-0.9-9.1-0.9c-3.7,0.1-7.3,1.1-10.5,3.2
				c0,0.1-0.2,0-0.2,0.1C44.7,41.3,45.1,40.4,45.7,39.7z"/>
			<path class="st4" d="M54.2,27.3c0.6,0.3,1.3,0.3,2,0.2c1.9,0.2,3.7,0.3,5.6,0.1c2.1-0.2,4-0.8,5.8-2c0.9-0.6,1.9-1.3,2.7-2.1
				c0.4,0.2,0.8,0.4,1.3,0.6c-0.7,0.6-1.5,1.2-2.2,1.8c-2.8,2.3-6.2,3.2-9.8,3.1c-2.1-0.1-4.2-0.3-6.2-0.4
				C53.6,28.2,53.8,27.7,54.2,27.3z"/>
			<path class="st4" d="M78.4,27.3c-0.2,0-0.4-0.1-0.5-0.2C78.1,27,78.3,27.1,78.4,27.3z"/>
			<path class="st4" d="M33.4,60c0,0.2-0.1,0.3-0.2,0.4C33.2,60.3,33.3,60.2,33.4,60z"/>
			<path class="st4" d="M69.7,23.4c-0.2,0-0.3-0.1-0.4-0.2C69.4,23.2,69.6,23.3,69.7,23.4z"/>
			<path class="st4" d="M54.3,27.1c0,0.1-0.1,0.1-0.1,0.1C54.2,27.1,54.3,27.1,54.3,27.1z"/>
			<path class="st4" d="M70,23.6c-0.1,0-0.1,0-0.1-0.1C69.9,23.5,70,23.5,70,23.6C70.1,23.5,70.1,23.5,70,23.6z"/>
			<path class="st5" d="M63.5,77.8c-0.5,0.8-1.3,0.9-2.1,1.1c-1.6,0.3-3.2-0.1-4.8-0.6c0.9-1.6,1.8-3.1,2.9-4.5
				c0.1-0.2,0.2-0.3,0.3-0.4c0.9-0.1,1.9,0.1,2.8,0.2c0.7,0,1.5,0.1,2.2,0.1c0.2,0,0.3,0,0.6,0.1c-0.1,0.1-0.2,0.3-0.2,0.4
				c-0.2,0.2-0.3,0.3-0.3,0.5C64.4,75.8,63.9,76.8,63.5,77.8z"/>
			<path class="st5" d="M77.2,48c1.2-0.3,2.4-0.5,3.6-0.9c0-0.1,0.1,0,0.1,0c-1.6,3.3-3.1,6.7-5,9.8c-0.8-0.1-1.8,0-2.6-0.2
				c0.6-1.2,1.5-2.6,2.1-3.8c0.6-1.5,1.3-3,1.9-4.4C77.3,48.3,77.4,48.2,77.2,48z"/>
			<path class="st5" d="M80.4,40.7c1.2-0.3,2.3-0.5,3.4-0.9c0.1,0,0.1,0,0.3,0c-0.7,1.7-1.4,3.4-2.1,5.1c-0.1,0.2-0.2,0.4-0.3,0.6
				c-0.5,0.1-0.9,0.3-1.4,0.5c-0.8,0.2-1.5,0.6-2.3,0.6c0.7-1.8,1.4-3.6,2.3-5.4C80.3,41.1,80.3,40.9,80.4,40.7z"/>
			<path class="st5" d="M84.7,38.2c-0.6,0.1-1,0.4-1.6,0.6c-0.6,0.2-1.2,0.4-1.9,0.5c0.6-1.2,1.2-2.5,1.9-3.7c0.5-1,1.1-1.9,1.7-2.9
				c0.1-0.2,0.1-0.3,0.2-0.5c0.6,1.4,0.7,2.8,0.4,4.2c-0.1,0.3-0.2,0.6-0.3,0.9C85,37.4,85,37.5,85,37.6
				C84.8,37.8,84.7,38,84.7,38.2z"/>
			<path class="st5" d="M72.6,57.7c0.8,0,1.5,0.2,2.2,0.2c0.1,0,0.1,0.1,0.1,0.2c-0.9,1.3-1.8,2.6-2.6,4c-0.7,0-1.7-0.1-2.4-0.2
				c0.5-0.9,1.2-1.7,1.7-2.6c0.3-0.5,0.6-0.9,0.8-1.3C72.5,58,72.7,57.9,72.6,57.7z"/>
			<path class="st4" d="M64.9,74.7c0-0.2,0.1-0.4,0.3-0.5C65.2,74.4,65.1,74.6,64.9,74.7z"/>
			<path class="st5" d="M85,32.2c-0.2,0-0.2-0.1-0.1-0.3C84.9,32.1,84.9,32.2,85,32.2z"/>
			<path class="st4" d="M84.9,37.7c0-0.1,0-0.2,0.1-0.3C85,37.5,85,37.6,84.9,37.7z"/>
		</g>
	</g>
</g>
<g>
	<path class="st6" d="M24.2,38.4c0,0,64.1,55.5,70.5,61.7c0,0-36.1,12.6-79.4-0.1C-11.8,90.4,24.2,38.4,24.2,38.4z"/>
</g>
<g>
	<path class="st6" d="M92.2,42.3c0,0-63.7,52.3-70.1,58.6c0,0,34.8,11.4,78-1.3C128.1,88.2,92.2,42.3,92.2,42.3z"/>
</g>
</svg>
