<?xml version="1.0" encoding="utf-8"?>
<!-- Generator: Adobe Illustrator 25.2.1, SVG Export Plug-In . SVG Version: 6.00 Build 0)  -->
<svg version="1.1" id="Layer_1" xmlns="http://www.w3.org/2000/svg" xmlns:xlink="http://www.w3.org/1999/xlink" x="0px" y="0px"
	 viewBox="0 0 112 112" style="enable-background:new 0 0 112 112;" xml:space="preserve">
<style type="text/css">
	.st0{fill:#FFFFFF;}
	.st1{fill:#F4ECD8;}
	.st2{clip-path:url(#SVGID_2_);}
	.st3{fill:#EA4C09;}
	.st4{fill:#F49772;}
	.st5{fill:#C53A10;}
	.st6{fill:#292D14;}
</style>
<g>
	<path class="st0" d="M53.7,5.8c4.3,0,9.4,1.8,14.7,7.3c7.3,7.5,15.2,19.2,21.8,29.8c0,0,0,0,0,0s35.9,45.8,7.9,57.3
		c-14.6,4.3-28.2,5.8-39.8,6c-1.6,0.1-3.3,0.1-5,0.1c-11.8,0-25.5-1.4-40-5.7c-27.1-9.6,8.9-61.6,8.9-61.6s0,0,0.1,0.1
		c8.9-16.6,16.5-25.4,16.5-25.4S44.8,5.8,53.7,5.8 M53.7,2.6L53.7,2.6L53.7,2.6c-10,0-16.8,8.1-17.5,9c-0.6,0.8-7.7,9.3-16.2,24.8
		l-0.5,0.7c-0.2,0.4-6.2,9-11.4,20c-7.3,15.2-9.7,27.1-7,35.3c1.7,5.3,5.5,9.1,11.1,11.1l0.1,0l0.1,0c13.1,3.9,26.9,5.8,40.9,5.8
		c1.7,0,3.4,0,5.1-0.1c13.8-0.2,27.5-2.3,40.6-6.1l0.2,0l0.1-0.1c6.3-2.6,10.3-6.9,11.9-12.9c2.1-8.1-0.4-18.9-7.5-32.2
		c-4.8-9-10.1-15.9-10.9-17C84.4,27.5,77,17.4,70.7,10.9C65.3,5.4,59.6,2.6,53.7,2.6L53.7,2.6z"/>
	<path class="st1" d="M93.7,100.3c15.2-10.7,10.5-32.7,10.5-32.7S84.7,29.9,68.4,13.1s-29.7,0.5-29.7,0.5S22.4,32.7,9.5,67.4
		c0,0-12.7,18.5,3.3,28.9c0,0,9.2,8.3,42.1,8.3S93.7,100.3,93.7,100.3z"/>
	<g>
		<defs>
			<path id="SVGID_1_" d="M56.4,48.2c-0.6-0.8-1.1-1.6-1.7-2.3c-2.8-3.4-7.1-4.5-11-2.8c-3.9,1.7-6.2,5.7-5.7,9.9
				c0.3,3.1,1.7,5.9,3.5,8.4c3.5,4.8,8,8.4,12.9,11.8c2,1.4,2,1.4,3.9,0c4.6-3.2,9-6.7,12.5-11.2c1.8-2.3,3.2-4.9,3.7-7.8
				c0.9-4.7-1.3-9.2-5.4-11c-4.2-1.9-8.7-0.5-11.6,3.4C57.2,47.1,56.8,47.6,56.4,48.2z"/>
		</defs>
		<clipPath id="SVGID_2_">
			<use xlink:href="#SVGID_1_"  style="overflow:visible;"/>
		</clipPath>
		<g class="st2">
			<path class="st3" d="M31.4,76.2c-1.2-0.6-2.6-1.2-3.8-1.8c0-1.8,0.4-3.6,1-5.2c0.6-0.2,1.1-0.7,1.6-1c2.8-1.7,5.6-3.3,8.8-4.3
				c2.5-0.8,5.2-1.3,7.9-1.4c2.9-0.1,5.9,0.1,8.8,0.3c2.8,0.2,5.6,0.5,8.4,0.7c1,0.1,2,0.1,3,0.3c-0.1,0.3-0.4,0.7-0.6,0.9
				c-0.7,0.7-1.2,1.5-1.9,2.2c-0.9,1-1.9,2.1-2.9,3c-1,0.9-2,1.8-2.9,2.8c-0.2,0-0.3,0-0.6,0c-2.3-0.2-4.6-0.6-6.9-0.8
				c-2.9-0.4-5.8-1-8.8-1.2c-1.6-0.1-3.2,0.1-4.7,0.6c-1.6,0.6-3.2,1.5-4.5,2.7C32.7,74.7,31.9,75.4,31.4,76.2z"/>
			<path class="st3" d="M37.6,79.2c-1.7-0.8-3.4-1.6-5.1-2.4c0.8-1.1,1.7-1.9,2.8-2.7c1.9-1.4,4-2.2,6.3-2.2c2.5,0,4.9,0.5,7.3,0.9
				c2.1,0.3,4.1,0.6,6.2,0.9c0.9,0.1,1.7,0.2,2.5,0.4c0,0.2-0.2,0.3-0.3,0.4c-1.1,1.4-2,3-2.9,4.5c-1.2-0.3-2.3-0.8-3.5-1.4
				c-1.3-0.5-2.6-1.1-3.9-1.4c-2.6-0.7-5.1-0.6-7.4,0.9C39,77.7,38.1,78.3,37.6,79.2z"/>
			<path class="st3" d="M51.7,86c-4.3-2.1-8.7-4.1-13-6.2c0.1-0.1,0.1-0.2,0.2-0.3c1.7-1.8,3.8-2.7,6.3-2.4c1.4,0.1,2.7,0.5,4,1
				c1.6,0.7,3.3,1.3,4.9,2c-0.1,0.8-0.6,1.4-0.8,2.2c-0.2,0.9-0.5,1.8-0.7,2.7C52.4,85.4,52.4,85.9,51.7,86z"/>
			<path class="st4" d="M57.7,74c-0.8-0.2-1.7-0.2-2.5-0.4c-2.1-0.3-4.1-0.6-6.2-0.9c-2.5-0.3-4.9-0.8-7.3-0.9
				c-2.3,0-4.5,0.8-6.3,2.2c-1,0.8-2,1.7-2.8,2.7c-0.4-0.2-0.7-0.4-1.1-0.6c0.5-0.9,1.3-1.5,2.1-2.2c1.3-1.2,2.8-2.1,4.5-2.7
				c1.5-0.5,3-0.7,4.7-0.6c3,0.2,5.8,0.8,8.8,1.2c2.3,0.3,4.5,0.6,6.9,0.8c0.2,0,0.4,0,0.6,0c0.5,0.1,0.9,0.1,1.4,0.2
				c1.3,0.1,2.5,0.1,3.8,0.2c-0.2,0.4-0.5,0.8-0.7,1.3c-0.1-0.1-0.3-0.1-0.6-0.1c-0.7,0-1.5-0.1-2.2-0.1
				C59.6,74.1,58.7,73.9,57.7,74z"/>
			<path class="st4" d="M80.6,29.7c0,0.1,0,0.1-0.1,0.1c-0.3-0.2-0.4,0-0.7,0.2c-0.7,0.6-1.5,1.1-2.4,1.6c-1.9,1-3.8,1.7-5.8,2.1
				c-2.1,0.5-4.1,0.8-6.2,0.8c-3-0.1-5.8-0.8-8.8-1.1c-1.7-0.2-3.5-0.4-5.2-0.3c-1,0.1-2,0.4-3.1,0.6c0.4-0.6,0.8-1.1,1.1-1.8
				c0.1,0.3,0.3,0.2,0.5,0.1c0.5-0.1,0.9-0.1,1.4-0.2c2.8-0.1,5.4,0.3,8.1,0.8c1.9,0.3,3.8,0.6,5.7,0.7c2.1,0.1,4.2-0.3,6.3-0.8
				c2.5-0.6,4.9-1.5,7-3c0.1-0.1,0.3-0.1,0.2-0.3s-0.2-0.2-0.4-0.2c-0.5-0.3-1.2-0.4-1.7-0.8c0-0.1,0.1-0.1,0.1-0.1
				C78.1,28.5,79.3,29,80.6,29.7z"/>
			<path class="st5" d="M51.7,86c0.7-0.1,0.6-0.6,0.8-1.1c0.2-0.9,0.5-1.8,0.7-2.7c0.2-0.7,0.7-1.4,0.8-2.2c1.5,0.4,3,0.8,4.6,0.7
				c0.6,0,1.3-0.2,1.9-0.3c-0.8,1.9-1.8,3.7-3.6,4.8c-1.3,0.9-2.8,1.2-4.5,0.8c-0.1,0-0.3-0.2-0.4,0C52,86.1,51.9,86.1,51.7,86z"/>
			<path class="st4" d="M60.5,80.5c-0.6,0-1.3,0.2-1.9,0.3c-1.6,0.1-3.1-0.3-4.6-0.7c-1.6-0.7-3.3-1.3-4.9-2c-1.3-0.5-2.6-0.9-4-1
				c-2.5-0.2-4.6,0.6-6.3,2.4c-0.1,0.1-0.1,0.2-0.2,0.3c-0.4-0.2-0.7-0.4-1.1-0.6c0.5-1,1.4-1.5,2.3-2.1c2.3-1.5,4.8-1.6,7.4-0.9
				c1.3,0.3,2.6,0.8,3.9,1.4c1.1,0.5,2.2,1,3.5,1.4c1.6,0.5,3.1,0.9,4.8,0.6c0.8-0.1,1.6-0.3,2.1-1.1C61.1,79.1,60.8,79.8,60.5,80.5
				z"/>
			<path class="st4" d="M70.3,62.8c-0.3,0.4-0.6,0.8-0.8,1.2c-0.8-0.1-1.7-0.2-2.4-0.2c-1-0.2-2.1-0.2-3-0.3
				c-2.8-0.2-5.6-0.5-8.4-0.7c-2.9-0.3-5.9-0.5-8.9-0.3c-2.7,0.1-5.3,0.5-7.8,1.3c-3.2,1-6,2.6-8.8,4.3c-0.5,0.3-1,0.8-1.6,1
				c0.1-0.7,0.3-1.2,0.5-1.8c0.2,0.1,0.3-0.1,0.4-0.1c2.2-1.3,4.3-2.6,6.7-3.6c3.4-1.5,7-2.2,10.7-2.3c2.2-0.1,4.4,0,6.5,0.2
				c3.1,0.3,6.1,0.5,9.2,0.7c1.8,0.1,3.6,0.3,5.5,0.4C68.8,62.8,69.6,62.9,70.3,62.8z"/>
			<path class="st5" d="M67.1,63.8c0.8-0.1,1.6,0.1,2.4,0.2c-0.7,1.1-1.4,2.3-2.1,3.4c-1.1,1.8-2.2,3.6-3.2,5.4
				c-0.1,0.1-0.2,0.3-0.3,0.3c-1.3-0.1-2.5-0.1-3.8-0.2c-0.5,0-0.9-0.1-1.4-0.2c1-0.9,2-1.8,2.9-2.8c1-1,2-2,2.9-3
				c0.7-0.7,1.2-1.5,1.9-2.2C66.8,64.5,66.9,64.1,67.1,63.8z"/>
			<path class="st3" d="M68.1,62.7c-1.8-0.1-3.6-0.3-5.5-0.4c-3.1-0.3-6.2-0.5-9.2-0.7c-2.1-0.2-4.3-0.3-6.5-0.2
				c-3.7,0.1-7.3,0.8-10.7,2.3c-2.4,1-4.6,2.3-6.7,3.6c-0.1,0.1-0.2,0.3-0.4,0.1c0.6-2.2,1.3-4.3,2.2-6.3c0.1-0.1,0.2-0.2,0.2-0.4
				c0.2-0.6,0.5-1.2,0.9-1.9c0.1,0,0.2,0,0.2-0.1c0.7-0.7,1.5-1.4,2.4-1.9C38,55,41.4,54.4,45,54.2c2.8-0.2,5.6,0.1,8.4,0.5
				c2.1,0.3,4.2,0.6,6.4,1.1c2.6,0.6,5.1,1.3,7.7,1.9c1,0.3,2,0.5,3.1,0.8c0.2,0.1,0.1,0.2,0,0.4c-0.3,0.5-0.6,0.9-0.8,1.3
				C69.2,61,68.7,61.9,68.1,62.7z"/>
			<path class="st3" d="M33.8,56c1.4-2.6,3-5.1,4.6-7.5c0.3,0,0.4-0.1,0.7-0.2c1.8-0.6,3.6-1.1,5.5-1.3c2.8-0.3,5.7-0.1,8.5,0.3
				c3.7,0.5,7.4,1.1,11.1,1.4c2.7,0.3,5.4,0.4,8.1,0.1c0.9-0.1,2-0.1,3-0.2c0.2,0.1,0.1,0.2,0,0.4c-0.6,1.5-1.3,3-1.9,4.4
				c-0.6,1.3-1.5,2.6-2.1,3.9c-0.1,0-0.2,0.2-0.3,0.2c-1.7-0.2-3.2-0.8-4.8-1.2c-4.1-1.1-8.4-2-12.6-2.6c-3.6-0.4-7.1-0.4-10.7,0
				c-2.4,0.3-4.7,0.9-6.9,1.9C35.2,56,34.5,55.8,33.8,56z"/>
			<path class="st3" d="M39.4,46.8c0.9-1.4,1.8-2.9,2.8-4.3c0.1,0,0.2,0,0.2-0.1c3.2-2,6.6-3,10.4-3.1c3.1-0.1,6.1,0.3,9.2,0.8
				c2,0.3,4.1,0.7,6.2,1c3.4,0.5,6.8,0.7,10.3,0.2c0,0.1-0.1,0.3-0.1,0.4c-0.9,1.7-1.6,3.6-2.3,5.4c-1.9,0.5-3.8,0.5-5.7,0.5
				c-3.2,0.1-6.4-0.3-9.5-0.6c-3.3-0.4-6.5-1-9.8-1.3c-2.9-0.3-5.7-0.3-8.5,0.3C41.4,46.3,40.4,46.6,39.4,46.8z"/>
			<path class="st3" d="M48.4,33.5c1-0.2,2.1-0.5,3.1-0.6c1.8-0.1,3.5,0.1,5.2,0.3c2.9,0.4,5.8,1,8.8,1.1c2.1,0,4.1-0.3,6.2-0.8
				c2.1-0.5,4-1.1,5.8-2.1c0.8-0.5,1.6-1,2.4-1.6c0.2-0.2,0.4-0.3,0.7-0.2c1,0.8,1.9,1.6,2.3,2.8c-0.1,0.2,0,0.3,0.1,0.3l0,0
				c-0.1,0.2-0.1,0.3-0.2,0.5c-0.5,1-1.1,1.9-1.7,2.9c-0.7,1.2-1.3,2.4-1.9,3.7c-1.2,0.4-2.5,0.4-3.8,0.5c-3.3,0.1-6.6-0.3-9.8-0.8
				c-3.9-0.6-7.8-1.4-11.8-1.4c-2.1,0-4.2,0.2-6.2,0.7c-1.3,0.4-2.6,0.9-3.9,1.4c1-1.6,2.2-3.2,3.3-4.7
				C47.4,34.8,47.8,34.1,48.4,33.5z"/>
			<path class="st3" d="M76.9,28c0.5,0.4,1.1,0.5,1.7,0.8c0.1,0.1,0.3,0.1,0.4,0.2c0,0.2-0.2,0.2-0.2,0.3c-2.1,1.5-4.5,2.4-7,3
				c-2.1,0.5-4.2,0.9-6.3,0.8c-1.9-0.1-3.8-0.4-5.7-0.7c-2.7-0.4-5.4-0.9-8.1-0.8c-0.5,0-1,0.1-1.4,0.2c-0.2,0-0.4,0.1-0.5-0.1
				c0.6-0.8,1.2-1.7,1.7-2.5c2.1,0.1,4.2,0.3,6.2,0.4c3.6,0.1,6.9-0.7,9.8-3.1c0.7-0.6,1.5-1.2,2.2-1.8c2.1,1,4.3,1.9,6.4,2.8
				c0.2,0.1,0.3,0.2,0.5,0.2C76.6,27.9,76.7,28,76.9,28z"/>
			<path class="st3" d="M52.2,27.9c0-0.1,0.1-0.1,0.1-0.2c0-0.1,0.1-0.1,0.1-0.1c1.1-1.5,2-3.2,3.4-4.4c1.5-1.3,3.2-2.1,5.2-1.9
				c0.7,0.1,1.3,0.3,1.9,0.5c1.5,0.6,2.9,1.3,4.3,1.9c0.1,0.1,0.2,0.2,0.4,0.2c0.1,0.1,0.2,0.1,0.3,0.1c0,0.1,0.1,0.1,0.1,0.1
				c0.1,0,0.1,0.1,0.1,0.1c-0.8,0.8-1.7,1.5-2.7,2.1c-1.8,1.2-3.7,1.8-5.8,2c-1.9,0.2-3.7,0-5.6-0.1C53.4,28.1,52.8,28.2,52.2,27.9z
				"/>
			<path class="st4" d="M33.8,56c0.7-0.2,1.3-0.6,1.9-0.9c2.2-1.1,4.6-1.6,7-1.9c3.6-0.4,7.2-0.2,10.8,0.3c4.3,0.6,8.4,1.5,12.6,2.6
				c1.6,0.4,3.3,0.9,5,1.2c0.1,0,0.2,0,0.3,0.1c0.8,0.2,1.6,0.2,2.4,0.2c-0.2,0.5-0.5,1-0.9,1.4c0-0.1,0.1-0.1-0.2-0.1
				c-0.7-0.1-1.4-0.4-2.2-0.4c-1-0.3-2-0.5-3.1-0.8c-2.6-0.6-5.1-1.2-7.7-1.8c-2.1-0.5-4.2-0.8-6.4-1.1c-2.8-0.4-5.5-0.5-8.3-0.4
				c-3.6,0.2-6.9,0.6-10.1,2.5c-0.9,0.5-1.9,1.1-2.6,1.8c0,0.1-0.1,0.1-0.2,0.1C32.8,57.8,33.2,56.9,33.8,56z"/>
			<path class="st4" d="M39.4,46.8c1-0.2,2-0.5,3-0.8c2.8-0.6,5.7-0.5,8.5-0.3c3.3,0.3,6.5,0.9,9.8,1.3c3.1,0.4,6.3,0.7,9.5,0.6
				c1.9,0,3.9-0.1,5.7-0.5c0.8-0.1,1.6-0.4,2.3-0.6c0.4-0.1,0.9-0.4,1.4-0.5c-0.2,0.6-0.4,1.1-0.7,1.6c-0.1,0-0.1-0.1-0.1,0
				c-1.2,0.4-2.4,0.6-3.6,0.9c-1,0.1-1.9,0.2-3,0.2c-2.7,0.2-5.5,0.1-8.1-0.1c-3.7-0.3-7.4-0.9-11.1-1.4c-2.8-0.4-5.6-0.6-8.5-0.3
				c-1.9,0.2-3.7,0.7-5.5,1.3c-0.2,0.1-0.4,0.2-0.7,0.2C38.7,47.9,39,47.4,39.4,46.8z"/>
			<path class="st4" d="M43.7,40.3c1.3-0.5,2.5-1,3.9-1.4c2-0.5,4.1-0.8,6.2-0.7c4,0.1,7.9,0.8,11.8,1.4c3.3,0.5,6.5,1,9.8,0.8
				c1.3,0,2.5-0.1,3.8-0.5c0.6,0,1.3-0.3,1.9-0.5c0.5-0.2,1.1-0.5,1.6-0.6c-0.2,0.6-0.4,1.1-0.6,1.7c-0.1,0-0.2,0.1-0.3,0.1
				c-1.1,0.4-2.1,0.6-3.3,0.9c-3.4,0.5-7,0.3-10.5-0.2c-2.1-0.3-4.1-0.7-6.1-1c-3-0.5-6-0.9-9.1-0.9c-3.7,0.1-7.3,1.1-10.5,3.2
				c0,0.1-0.2,0-0.2,0.1C42.7,41.9,43.1,41,43.7,40.3z"/>
			<path class="st4" d="M52.2,27.9c0.6,0.3,1.3,0.3,2,0.2c1.9,0.2,3.7,0.3,5.6,0.1c2.1-0.2,4-0.8,5.8-2c0.9-0.6,1.9-1.3,2.7-2.1
				c0.4,0.2,0.8,0.4,1.3,0.6c-0.7,0.6-1.5,1.2-2.2,1.8c-2.8,2.3-6.2,3.2-9.8,3.1c-2.1-0.1-4.2-0.3-6.2-0.4
				C51.6,28.8,51.8,28.3,52.2,27.9z"/>
			<path class="st4" d="M76.4,27.9c-0.2,0-0.4-0.1-0.5-0.2C76.1,27.6,76.3,27.7,76.4,27.9z"/>
			<path class="st4" d="M31.4,60.6c0,0.2-0.1,0.3-0.2,0.4C31.2,60.9,31.3,60.8,31.4,60.6z"/>
			<path class="st4" d="M67.7,24c-0.2,0-0.3-0.1-0.4-0.2C67.4,23.8,67.6,23.9,67.7,24z"/>
			<path class="st4" d="M52.3,27.7c0,0.1-0.1,0.1-0.1,0.1C52.2,27.7,52.3,27.7,52.3,27.7z"/>
			<path class="st4" d="M68,24.2c-0.1,0-0.1,0-0.1-0.1C67.9,24.1,68,24.1,68,24.2C68.1,24.1,68.1,24.1,68,24.2z"/>
			<path class="st5" d="M61.5,78.4c-0.5,0.8-1.3,0.9-2.1,1.1c-1.6,0.3-3.2-0.1-4.8-0.6c0.9-1.6,1.8-3.1,2.9-4.5
				c0.1-0.2,0.2-0.3,0.3-0.4c0.9-0.1,1.9,0.1,2.8,0.2c0.7,0,1.5,0.1,2.2,0.1c0.2,0,0.3,0,0.6,0.1c-0.1,0.1-0.2,0.3-0.2,0.4
				c-0.2,0.2-0.3,0.3-0.3,0.5C62.4,76.4,61.9,77.4,61.5,78.4z"/>
			<path class="st5" d="M75.2,48.6c1.2-0.3,2.4-0.5,3.6-0.9c0-0.1,0.1,0,0.1,0c-1.6,3.3-3.1,6.7-5,9.8c-0.8-0.1-1.8,0-2.6-0.2
				c0.6-1.2,1.5-2.6,2.1-3.8c0.6-1.5,1.3-3,1.9-4.4C75.3,48.9,75.4,48.8,75.2,48.6z"/>
			<path class="st5" d="M78.4,41.3c1.2-0.3,2.3-0.5,3.4-0.9c0.1,0,0.1,0,0.3,0c-0.7,1.7-1.4,3.4-2.1,5.1c-0.1,0.2-0.2,0.4-0.3,0.6
				c-0.5,0.1-0.9,0.3-1.4,0.5c-0.8,0.2-1.5,0.6-2.3,0.6c0.7-1.8,1.4-3.6,2.3-5.4C78.3,41.7,78.3,41.5,78.4,41.3z"/>
			<path class="st5" d="M82.7,38.8c-0.6,0.1-1,0.4-1.6,0.6c-0.6,0.2-1.2,0.4-1.9,0.5c0.6-1.2,1.2-2.5,1.9-3.7c0.5-1,1.1-1.9,1.7-2.9
				c0.1-0.2,0.1-0.3,0.2-0.5c0.6,1.4,0.7,2.8,0.4,4.2c-0.1,0.3-0.2,0.6-0.3,0.9c-0.1,0.1-0.1,0.2-0.1,0.3
				C82.8,38.4,82.7,38.6,82.7,38.8z"/>
			<path class="st5" d="M70.6,58.3c0.8,0,1.5,0.2,2.2,0.2c0.1,0,0.1,0.1,0.1,0.2c-0.9,1.3-1.8,2.6-2.6,4c-0.7,0-1.7-0.1-2.4-0.2
				c0.5-0.9,1.2-1.7,1.7-2.6c0.3-0.5,0.6-0.9,0.8-1.3C70.5,58.6,70.7,58.5,70.6,58.3z"/>
			<path class="st4" d="M62.9,75.3c0-0.2,0.1-0.4,0.3-0.5C63.2,75,63.1,75.2,62.9,75.3z"/>
			<path class="st5" d="M83,32.8c-0.2,0-0.2-0.1-0.1-0.3C82.9,32.7,82.9,32.8,83,32.8z"/>
			<path class="st4" d="M82.9,38.3c0-0.1,0-0.2,0.1-0.3C83,38.1,83,38.2,82.9,38.3z"/>
		</g>
	</g>
	<g>
		
			<image style="overflow:visible;opacity:0.7;" width="102" height="80" xlink:href="CF2CE7D3.png"  transform="matrix(1 0 0 1 -1 33)">
		</image>
		<g>
			<path class="st6" d="M22.2,39c0,0,64.1,55.5,70.5,61.7c0,0-36.1,12.6-79.4-0.1C-13.8,91,22.2,39,22.2,39z"/>
		</g>
	</g>
	<g>
		
			<image style="overflow:visible;opacity:0.7;" width="101" height="77" xlink:href="CF2CE7D1.png"  transform="matrix(1 0 0 1 11 35)">
		</image>
		<g>
			<path class="st6" d="M90.2,42.9c0,0-63.7,52.3-70.1,58.6c0,0,34.8,11.4,78-1.3C126.1,88.8,90.2,42.9,90.2,42.9z"/>
		</g>
	</g>
</g>
</svg>
