<?xml version="1.0" encoding="utf-8"?>
<!-- Generator: Adobe Illustrator 25.2.1, SVG Export Plug-In . SVG Version: 6.00 Build 0)  -->
<svg version="1.1" id="Layer_1" xmlns="http://www.w3.org/2000/svg" xmlns:xlink="http://www.w3.org/1999/xlink" x="0px" y="0px"
	 viewBox="0 0 911.2 215.4" style="enable-background:new 0 0 911.2 215.4;" xml:space="preserve">
<style type="text/css">
	.st0{fill:#D47231;}
	.st1{fill:#FFFFFF;}
</style>
<path class="st0" d="M13.2,194.7C4,188.3,0,178.6,0,166.7c0-30.2,29.9-75.2,48.6-95.5C85.6,31.2,133.5,3,175.2,3
	c3.6,0,7.2,0.3,10.8,0.8c17,3,28.9,10.6,36.5,21l9.6,9.6c10.6,10.6,15.3,25.7,15.3,42.1c-0.1,10.3-1.7,20.4-4.7,30.2v0.2
	c-4.5,15.1-13.4,31.2-24.2,45.4l9.8,9.6c2.5,2.6,3.8,6.1,3.8,9.6c0.1,3.9-1.5,7.7-4.4,10.4c-1.7,1.3-4.9,4-6,5.1
	c-7.6,5.1-22.5,11.9-33.6,12.1c-6.4,0.1-12.7-0.6-18.9-2.1c-15.1,6.8-27.8,11-36.3,11c-3,0-6-0.2-8.9-0.8
	c-10.4-2.1-18.3-5.9-23.8-11.3l-5.3-5.3c-15.1,11.5-35,23.8-49.7,23.8c-3.7,0.1-7.4-0.6-10.8-2.1c-3.7-1.6-7.1-3.8-10-6.6
	L13.2,194.7z M137.4,65.4c-18.1,10.8-36.9,25.9-53.3,43.5c-14.4,16.3-27,36.1-34,52.4c10.8-7.4,22.1-17.4,27-22.7
	C93.6,121.6,116.8,93.2,137.4,65.4z M139.9,144.6l6.6,3.6c21.9-16.6,45.2-44.1,53.1-64.3c2-6.7,3.1-13.6,3.2-20.6
	c0-1.5-0.2-2.8-0.2-4.3c-0.4,1.5-1.1,3-1.9,4.3C184.3,88.5,161.2,118.9,139.9,144.6z"/>
<path class="st0" d="M314.8,44.2L327,56.3c2.6,2.7,4.1,6.3,4.2,10c-0.1,3.7-1.5,7.3-4,10c-1.8,1.6-3.4,3.4-4.9,5.3l-2.2,2.7
	c-2.8,3-6.5,4.8-10.6,5.1c1.8,3.9,1.2,8.4-1.5,11.7l-0.4,0.4l-1.7,2.3c-4.7,6.4-16.3,21.7-28.7,36.7c1.7,0.9,3.2,2.1,4.5,3.4
	c0.8,0.9,1.4,1.8,2.1,2.8l12.7,12.7c2.4,2.6,3.6,6,3.6,9.4c0,4.3-1.8,8.4-4.9,11.4c-13.2,11.3-31.2,25.3-47.3,25.3
	c-3.2,0-6.4-0.6-9.4-1.7c-3.2-1.2-6.1-3.1-8.5-5.5l-10.4-10.4c-5.3,2-11.2,0.7-15.1-3.4l-11.9-11.9c-1.7-0.9-3.1-2.1-4.4-3.6
	c-2.5-2.7-3.8-6.2-3.8-9.8c-0.1-4.5,1.9-8.9,5.5-11.7c9.6-8.1,24.4-21.2,39.1-34.2c7.9-11.7,25.9-33.1,40.3-46.9
	c2.6-2.1,5.8-3.2,9.1-3.2h0.8c-0.3-1-0.5-2.1-0.4-3.2c0.1-3.8,1.5-7.4,4-10.2c0.8-0.8,1.6-1.7,2.3-2.7l1.1-1.3l4.7-5.1
	c2.8-2.9,6.6-4.5,10.6-4.5c3.9,0,7.6,1.5,10.4,4.2C312.9,41.4,314,42.8,314.8,44.2z"/>
<path class="st0" d="M249,159.2c0-4.4,2-8.5,5.3-11.3c12.3-9.8,26.8-24.2,38.6-36.1l17.8-18C316.3,85.8,322,78,327.4,71
	c4.2-5.3,8.3-10.8,15.3-10.8c3.4,0.2,6.7,1.1,9.6,2.8c1.9,1.4,3.4,3.2,4.5,5.3l3.4,3.6c5-2.7,10.2-5.1,15.5-7c4.3-1.3,8.7-2,13.2-2
	c10.8,0,20.4,4.2,25.3,12.1l11.6,11.5c4,3.8,6.2,9.1,6.2,15.7c-0.1,3.4-0.7,6.8-1.9,10h-0.2c-2,5.4-4.8,10.4-8.3,14.9
	c-4,5.1-8.3,10.4-12.9,15.5l1.5,1.3l1.9,2.6l12.9,12.9c2.3,2.7,3.6,6.2,3.6,9.8c0,4.2-1.9,8.2-5.1,11c-9.1,7.7-18.7,15.1-26.6,19.6
	c-6.6,3.6-13.2,5.5-19.1,5.5c-7.2,0.2-14.1-2.5-19.3-7.6l-11-11c-7.4-4.5-11.9-12.3-11.9-22.3c0-3.5,0.5-7.1,1.7-10.4
	c-13.2,14.4-24.8,29.7-32.3,43.3c-2.4,4.6-7.3,7.5-12.5,7.4c-4.1,0-7.9-1.6-10.8-4.5c-16.1-14.2-19.1-18-19.9-22.7l-4.9-5.1
	c-1.7-1-3.3-2.3-4.5-3.8C250.3,166.1,249,162.7,249,159.2z"/>
<path class="st0" d="M386,172.6c-1.7-0.9-3.1-2.1-4.3-3.6c-2.5-2.7-3.8-6.2-3.8-9.8c0-4.5,1.9-8.7,5.3-11.7
	c6.8-5.3,14.9-13,24.4-22.1c10.6-26.7,35.5-52.2,59-61.8c5.4-2.2,11.2-3.3,17-3.4c10.8,0,19.9,4.5,25.1,12.3l11.5,11.5
	c5.1,5.1,7.9,12.3,7.9,21.2c0,3.2-0.4,6.4-1.1,9.4c-3,12.3-11,22.9-21.2,31.4c0.3,0.3,0.6,0.7,0.8,1.1l12.5,12.3
	c2.4,2.6,3.6,6,3.6,9.4c0,4.3-1.9,8.5-5.1,11.4c-3.7,3.5-7.6,6.7-11.7,9.6c-12.9,9.8-28.5,16.2-43.1,16.8
	c-11.9,0.6-24.6-2.5-33.3-11.1l-10.8-10.8c-0.1-0.1-0.2-0.2-0.4-0.2l-0.8,0.6l0.2,0.2c-2.5,2.3-5.8,3.6-9.3,3.6
	c-4,0-7.7-1.6-10.6-4.4L386,172.6z"/>
<path class="st0" d="M804,4.5c3.1-1.8,6.5-2.9,10-3.4c5.9-0.3,11.5,2.8,14.4,7.9l12.3,12.1c2.8,2.8,4.3,6.5,4.4,10.4
	c0,2.7-0.8,5.4-2.3,7.8c-3.2,4.9-10.6,8.9-16.8,11.2l-0.4-0.2c-18,18.7-47.3,57.3-69.2,86.6c-11.5,15.3-22.9,30-28.2,36.3
	c-20.2,22.9-45.6,43.1-76.9,42.2H651c-15.1-0.4-28.5-7-38.6-17l-8.9-8.9c-14.9-11.1-24.8-29.3-25-48.6c2.7-32.3,30.8-56.7,57.1-56.7
	c5.8,0.1,11.6,1.2,17,3.4c-0.4-3.1-0.6-6.2-0.6-9.3c0-13.4,4.3-27.6,14-40.5C688.5,7.9,725.3,0,758.8,0C770.9,0,787,1.9,804,4.5z
	 M625.5,167.9c3.5,1.8,7.4,2.7,11.3,2.6c19.1,1,37.8-13.8,53.7-31.9l1.3-1.5c-3.6-2-6.9-4.6-9.8-7.6l-3.4-3.4
	c-2.8,4.7-7.2,7.2-11.9,7.2c-2.9-0.1-5.8-0.9-8.3-2.4c-2.2-1.4-4.8-2.1-7.4-2.1c-12.1,0-26.1,12.5-27.6,28.5
	C623.4,160.9,624.2,164.5,625.5,167.9z M725,95.7l11.9-15.5c0.8-1.1,1.9-2.3,2.6-3.4c8.7-11.5,17.2-22.9,25.2-32.7
	c-25.7,1.7-48.2,10-60.1,28.2c-4.5,7.4-7,15.3-7,21.7v2.3c1.4-0.6,2.7-1.5,3.8-2.7c2.8-3.1,6.8-4.9,11-4.9c3.8,0.1,7.4,1.5,10.2,4
	C723.5,93.5,724.4,94.5,725,95.7z"/>
<path class="st0" d="M728,159.2c0-4.4,2-8.5,5.3-11.3c12.3-9.8,26.8-24.2,38.6-36.1l17.8-18C795.3,85.8,801,78,806.5,71
	c4.2-5.3,8.3-10.8,15.3-10.8c3.4,0.2,6.7,1.1,9.6,2.8c1.9,1.4,3.4,3.2,4.5,5.3l3.4,3.6c5-2.7,10.2-5.1,15.5-7c4.3-1.3,8.7-2,13.2-2
	c10.8,0,20.4,4.2,25.3,12.1l11.5,11.5c4,3.8,6.2,9.1,6.2,15.7c-0.1,3.4-0.7,6.8-1.9,10h-0.2c-2,5.4-4.8,10.4-8.3,14.9
	c-4,5.1-8.3,10.4-12.8,15.5l1.5,1.3l1.9,2.6l12.8,12.9c2.3,2.7,3.6,6.2,3.6,9.8c0,4.2-1.9,8.2-5.1,11c-9.1,7.7-18.7,15.1-26.6,19.6
	c-6.6,3.6-13.2,5.5-19.1,5.5c-7.2,0.2-14.1-2.5-19.3-7.6l-11-11c-7.4-4.5-11.9-12.3-11.9-22.3c0-3.5,0.5-7.1,1.7-10.4
	c-13.2,14.4-24.8,29.7-32.3,43.3c-2.4,4.6-7.3,7.5-12.5,7.4c-4.1,0-7.9-1.6-10.8-4.5c-16.1-14.2-19.1-18-19.8-22.7l-4.9-5.1
	c-1.7-1-3.3-2.3-4.5-3.8C729.3,166.1,728,162.7,728,159.2z"/>
<path class="st1" d="M9.4,166.7c0-27.6,28.4-69.8,46.1-89c35.5-38.2,80.7-65.2,119.7-65.2c3.2,0,6.3,0.2,9.4,0.6
	c27.8,4.7,38.8,24.8,38.8,48.4c-0.1,9.4-1.6,18.8-4.4,27.8c-8.5,28.5-32.5,60.1-54.1,72.8c-4.5-0.8-11.7-2.8-13.4-3.8
	c20.6-10.8,48.2-43.7,57.1-71.5c2.3-7.6,3.6-15.5,3.6-23.4c0-18.9-7.8-36.7-29.1-39.1c-2.8-0.4-5.7-0.6-8.5-0.6
	c-33.8,0-76.2,23.8-112.3,64.3c-23,25.9-41.3,60.3-41.3,78.8c0,6.1,1.9,10.2,6.2,12.1c12.9,5.3,46.7-23.2,56.7-33.8
	c24.2-25.1,61.1-71.4,84.7-107.8c1.7-2.8,5.1-3.4,7.9-1.7s3.4,5.1,1.7,7.9c-20.2,31.2-50.7,70.3-74.7,97
	c-11.9,0-21.6,11.5-21.2,21.7c-12.7,11.1-35.9,28.4-52.4,28.4c-2.5,0.1-4.9-0.4-7.2-1.3C13.2,185.1,9.4,176.9,9.4,166.7z M96.4,145
	c3-1.4,6.2-2.1,9.4-2.1c13.4,0,29.1,9.5,38.4,14.6c9.3,5.5,17.2,7.6,24.2,7.6c9.8,0,18.1-4.2,26.8-10c1.3-0.9,2.5-2.1,3.4-2.6
	c2.3-2,5.7-1.9,7.8,0.4c0.1,0.1,0.1,0.1,0.2,0.2c2,2.4,1.8,5.9-0.6,7.9c-1.6,1.2-3.1,2.4-4.5,3.8c-6.6,4.5-19.5,10.4-28.7,10.6
	c-29.9,0.8-49.5-21.6-65.4-21.6c-2.1,0-4.1,0.4-6,1.3c-3.4,1.7-4.9,5.1-4.2,7.8c0.6,2.6,2.6,7.8,14.4,10c1.8,0.3,3.7,0.4,5.5,0.4
	c6.7-0.1,13.3-1.6,19.5-4.4c4.2,2.3,8.9,4.7,13.8,5.9c-11,5.7-21.9,9.5-32.5,9.5c-2.4,0-4.8-0.2-7.2-0.6c-13.8-2.6-22.3-9.3-24.4-18
	S88.8,148.8,96.4,145L96.4,145z"/>
<path class="st1" d="M195.8,154.6c9.6-8.1,24-20.8,34.2-31c-5.3,7.8-11.7,18.9-14.2,28.7c-4.5,4.3-8.5,7.6-12.9,11.1
	c-2.5,2-6.1,1.6-8-0.9C193.1,160.2,193.4,156.6,195.8,154.6L195.8,154.6z M216.4,162c2.1-16.3,11.2-30.4,20.2-43.5
	c7.4-11,25-31.8,39.7-45.9c5.1-4.2,13.6,3,9.3,8.1c-2.1,2.7-24.2,32.7-41.6,51.6c7.6-12.1,25.3-34,34.6-44.8
	c0.4-0.6,0.3-1.5-0.3-1.9c-0.5-0.4-1.3-0.3-1.8,0.2c-16.8,20-47.3,56-48.8,76.9c-0.2,5.7,1.9,7.4,4.9,7.4c3.2,0,7.6-2.1,10.8-3.6
	c8.3-4.7,16-10.4,23.1-16.8c2.3-2.1,5.9-1.9,8,0.5c2.1,2.3,1.9,5.9-0.5,8l0,0c-12.1,10.4-28.4,23.2-41.4,23.2
	c-2.1,0-4.2-0.4-6.2-1.1C218.3,177.1,215.9,169.6,216.4,162L216.4,162z M305.7,55.2c-2.5,2.5-4.8,5-7,7.8c-1.3,1.4-3,2.3-4.9,2.5
	c-4.4,0-7.6-5.3-4-9.6c2.8-3,4.7-5.7,7.6-8.5c2.3-2.2,6-2,8.1,0.3C307.4,49.7,307.5,53,305.7,55.2L305.7,55.2z"/>
<path class="st1" d="M260.5,154.8c13-10.6,26.8-24.2,39.5-37c2.1-2.3,8.1-9.6,15.5-18.2c-12.1,17.3-23.8,35.7-34.4,52.3
	c-4.5,4-9.1,7.9-13.4,11.5c-2.3,2-5.8,1.7-7.8-0.6c-0.1-0.1-0.1-0.1-0.2-0.2C257.8,160.4,258.1,156.8,260.5,154.8z M367.9,126.1
	c8.3-9.6,16.6-18,22.5-26.1c2.4-3,4.4-6.3,5.9-9.8c1.7-5.3-1.9-6.6-6-6.6c-2.7,0-5.4,0.5-7.9,1.3c-37.8,11.9-80.9,59.2-100,93.2
	c-0.9,1.8-2.7,2.9-4.7,2.8c-3.8,0-7.4-3.6-5.3-8.1c20.6-35.3,42.3-70.3,62.6-95.8c3.6-4.5,6.8-8.9,12.1-6c1.8,1.2,2.8,3.3,2.5,5.5
	c-1,3.4-3.8,6.6-6,9.6l-8.5,11.2c-12.7,10.8-24.5,22.6-35.4,35.3c-0.5,0.4-0.5,1.2-0.1,1.6c0.1,0.1,0.2,0.2,0.3,0.3
	c0.6,0.6,1.1,0.4,1.7-0.2c20.4-24,48.4-51,77.5-60.1c3.3-1.1,6.7-1.7,10.1-1.8c10.2,0,19.1,5.1,19.1,14.8c0,2.4-0.5,4.8-1.3,7
	c-1.5,4.3-4.1,8.3-7.4,12.7c-6.2,8.3-14.9,17.8-23.1,26.7c-8.3,9.6-15.1,17.8-18.1,24.8c-0.9,1.9-1.4,4-1.5,6.1c0,4,2.5,5.7,6,5.7
	c2.6,0,6-1.1,9.3-2.8c6.6-3.6,14.6-9.8,23.4-17.4c2.4-2,6-1.7,8,0.7c2,2.4,1.7,6-0.7,8l0,0c-8.9,7.8-17.6,14.4-25.3,18.7
	c-4.4,2.7-9.5,4.2-14.7,4.4c-10.2,0-17.6-6.8-17.6-16.8c0-3.8,0.9-7.6,2.6-11C351.8,144.8,359.7,135.2,367.9,126.1L367.9,126.1z"/>
<path class="st1" d="M389.4,154.6c7.4-5.9,14.5-12.5,22.1-19.9c-1.9,5.9-2.8,12-2.8,18.1c-4.4,3.8-8.1,7.4-12.1,10.6
	c-2.3,2.1-5.9,1.5-7.9-1C386.6,160.3,387.1,156.7,389.4,154.6z M411.9,150.1c0-30.4,30.4-66.4,58.2-77.7c4.3-1.8,8.8-2.7,13.4-2.8
	c11.9,0,20.6,7.8,20.6,20.4c-0.1,2.5-0.4,5-1,7.4c-6.4,26.6-40.4,44.6-64.8,44.6c-4,0.1-7.9-0.5-11.7-1.7c1.2-3.7,2.8-7.4,4.7-10.8
	c2.4,0.6,4.8,0.8,7.2,0.8c13.6,0,31-7.6,42-17.2c5.5-4.7,12.3-14.6,12.3-22.5c0.1-2.3-0.6-4.6-2.1-6.4c-1.1-1.5-3.6-2.3-7-2.3
	c-5,0.2-9.9,1.4-14.4,3.6c-17.2,8.3-37.8,31.5-43.9,49.5c-1.5,4.2-2.2,8.6-2.3,13c0,13,7.4,24,23.4,23.2
	c10.4-0.6,22.1-5.1,31.9-12.7c3.6-2.8,7-5.7,10.8-8.9c2.4-2,5.9-1.7,7.9,0.7c1.9,2.3,1.7,5.8-0.6,7.8c-3.6,3.3-7.4,6.4-11.3,9.3
	c-11.3,8.9-25.3,14.6-38.2,15.1s-26.6-3.8-32.1-16.6C412.9,161,411.8,155.6,411.9,150.1z"/>
<path class="st1" d="M588.1,141.2c1.1-28.2,25.2-47.6,47.6-47.6c6.5-0.1,13,1.7,18.5,5.1c2.8,1.5,3.4,4.9,1.7,7.8s-5.1,3.4-7.9,1.7
	c-3.6-2.3-7.8-3.4-12.1-3.4c-16.5,0-35.3,15.3-36.5,37c-1,20.4,15.1,37.6,37.2,38.2c22.5,0.9,43.1-14.8,61.1-35.2
	c26.3-30.2,66.9-87.5,89.8-113.4l3.2-3.6c4.1-4.2,8.4-8.2,13-11.9c0-0.2,0-0.2,0.2-0.2c4-3,7.6-4.7,10.8-5.1
	c4.7-0.2,7.9,4.7,5.5,8.7c-2.1,3.2-6.4,5.5-10,6.8c2.1-1.7,5.1-3.6,7.2-5.7c0.8-0.6,0.8-1.1,0-1.9c-0.6-0.4-1.3-0.4-1.9,0
	c-23.1,15.7-90.7,112.1-109.1,133.6c-18.7,21.2-42,40.1-70.1,39.1C608.5,190.7,586.6,168.2,588.1,141.2z M791.3,22.5
	c-10.8-1.7-21.7-2.6-32.7-2.6c-32.5,0-61.4,8.7-76.8,32.5c-5.7,8.9-8.3,18.2-8.3,26.5c0,12.7,6,23.1,15.9,26.1
	c2,0.8,4.1,1.1,6.2,1.1c4.3,0,8.7-1.7,12.7-6c2.1-2.3,5.6-2.5,7.9-0.4c2.3,2.1,2.5,5.7,0.4,8.1c0,0,0,0,0,0.1
	c-6.6,6.8-14.4,9.8-21.9,9.8c-3.4-0.1-6.8-0.7-10-1.9c-14.7-6-23.1-20.6-23.1-37.4c0-11.3,3.8-23.6,12.1-34.8
	c20-26.8,54.1-34,85.1-34c14.7,0.1,29.3,1.4,43.7,4.2L791.3,22.5z"/>
<path class="st1" d="M739.5,154.8c13-10.6,26.8-24.2,39.5-37c2.1-2.3,8.1-9.6,15.5-18.2c-12.1,17.3-23.8,35.7-34.4,52.3
	c-4.5,4-9.1,7.9-13.4,11.5c-2.3,2-5.8,1.7-7.8-0.6c-0.1-0.1-0.1-0.1-0.2-0.2C736.8,160.4,737.1,156.8,739.5,154.8z M846.9,126.1
	c8.3-9.6,16.6-18,22.5-26.1c2.4-3,4.4-6.3,5.9-9.8c1.7-5.3-1.9-6.6-6-6.6c-2.7,0-5.4,0.5-7.9,1.3c-37.8,11.9-80.9,59.2-100,93.2
	c-0.9,1.8-2.7,2.9-4.7,2.8c-3.8,0-7.4-3.6-5.3-8.1c20.6-35.3,42.3-70.3,62.6-95.8c3.6-4.5,6.8-8.9,12.1-6c1.8,1.2,2.8,3.3,2.5,5.5
	c-1,3.4-3.8,6.6-6,9.6l-8.5,11.2c-12.7,10.8-24.5,22.6-35.3,35.3c-0.5,0.4-0.5,1.2-0.1,1.6c0.1,0.1,0.2,0.2,0.3,0.3
	c0.6,0.6,1.1,0.4,1.7-0.2c20.4-24,48.4-51,77.5-60.1c3.3-1.1,6.7-1.7,10.2-1.7c10.2,0,19.1,5.1,19.1,14.8c0,2.4-0.5,4.8-1.3,7
	c-1.5,4.3-4.2,8.3-7.4,12.7c-6.2,8.3-14.9,17.8-23.1,26.6c-8.3,9.6-15.1,17.8-18.2,24.8c-0.9,1.9-1.4,4-1.5,6.1c0,4,2.5,5.7,6,5.7
	c2.7,0,6-1.1,9.3-2.8c6.6-3.6,14.6-9.8,23.4-17.4c2.4-2,6-1.7,8,0.7c2,2.4,1.7,6-0.7,8c-8.9,7.8-17.6,14.4-25.3,18.7
	c-4.4,2.7-9.5,4.2-14.7,4.4c-10.2,0-17.6-6.8-17.6-16.8c0-3.8,0.9-7.6,2.6-11C830.8,144.8,838.8,135.2,846.9,126.1L846.9,126.1z"/>
</svg>
