<?xml version="1.0" encoding="utf-8"?>
<!-- Generator: Adobe Illustrator 25.2.1, SVG Export Plug-In . SVG Version: 6.00 Build 0)  -->
<svg version="1.1" id="Layer_1" xmlns="http://www.w3.org/2000/svg" xmlns:xlink="http://www.w3.org/1999/xlink" x="0px" y="0px"
	 viewBox="0 0 819.6 215.4" style="enable-background:new 0 0 819.6 215.4;" xml:space="preserve">
<style type="text/css">
	.st0{fill:#BF4B1D;}
	.st1{fill:#FFFFFF;}
</style>
<path class="st0" d="M44.8,161.7c0,2.2,0.2,4.4,0.8,6.5c4.9,1.6,10.1,2.2,15.3,1.9c15.7-0.8,33.2-10.1,46.4-19.9
	c3.8-2.9,7.3-5.6,11.7-9.2c2.7-2.3,6.2-3.6,9.8-3.6c4.4,0,8.6,1.8,11.5,5.2l14.8,15.3c0,0.2,0.2,0.2,0.2,0.4
	c5.3,6.2,4.7,15.5-1.3,20.9c-4.4,3.6-9.2,7.1-13.2,10.2l0.2,0.2c-16.8,12.8-40.2,25.5-64.6,25.9h-0.2c-18.6,0.2-35.2-5.4-46.4-16.5
	C7.5,179.9,0,166.1,0,147.7c0-9.8,2.3-19.4,6.7-28.2c3.6-7.4,8.2-14.2,13.8-20.3c7.2-8.3,15.9-15.1,25.7-20.1c3.9-2,8-3.7,12.3-5
	c-1.3-4.9-1.9-10-1.9-15.1c-0.1-10.4,3.1-20.6,9-29.1c13.8-19,39.5-29.5,62.1-29.5c17.4,0,33.5,5.9,52.7,29.1
	c3.9,3.8,6.8,8.6,8.4,13.8c0.9,3.7,1.4,7.5,1.5,11.3c0,30.7-38.3,48.1-62.6,45.6c0.6,1.9,0.9,3.8,1,5.8c0,9-7.3,16.7-19.2,15.5
	c-4.6-0.6-9.8-2.5-15.7-5.8c-6.5,0.8-13.4,3.3-19,5.6C60.3,128.4,44.8,144.3,44.8,161.7z"/>
<path class="st0" d="M264.8,139.9l2.7,2.3c0.8,0.9,1.5,1.9,2.1,2.9l12.8,12.8c2.4,2.6,3.7,6,3.6,9.6c0,4.4-1.8,8.5-5,11.5
	c-13.2,11.1-31.6,26.1-47.7,26.1c-3.5,0-7-0.8-10.2-2.3l-0.4-0.2c-3-1.4-5.7-3.3-8-5.6l-6.3-6.3l-1.1,1
	c-9.8,6.9-20.9,12.6-31.6,12.6c-2.9,0.1-5.7-0.3-8.4-1.1h-0.2c-4-1.3-7.7-3.6-10.7-6.5l-10.9-10.9c-2.1,1.5-4.7,2.3-7.3,2.3
	c-3.9-0.1-7.5-1.8-10.2-4.6l-1.2-1.1l0.2,0.4l-11.3-11.3c-1.6-1-3-2.2-4.2-3.6h-0.2c-2.5-2.7-3.9-6.3-3.8-10
	c-0.1-4.6,1.9-9,5.5-11.9c10-8.2,23.8-21.5,36.2-31.8c9.3-14.3,21.1-26.9,34.7-37.2c14-10.2,30.1-18.8,45.2-18.8
	c3.8,0,7.6,0.5,11.3,1.5c5.5,1.5,10.3,5,13.4,9.8l1.2,1.1c0.9-0.2,1.9-0.3,2.9-0.4c6.8,0.1,13,3.7,16.7,9.4l12.3,12.3
	c2.6,2.5,4.1,6,4.2,9.6c-0.1,3.5-1.5,6.9-3.8,9.6C285.7,113.2,276.6,125.7,264.8,139.9z"/>
<path class="st0" d="M296.2,55.6h23.6c16.5-19.2,32.6-35.4,42.9-42.7c2.5-1.7,5.4-2.6,8.4-2.7c6,0.1,11.5,3.3,14.6,8.4L398.1,31
	c2.8,2.7,4.4,6.4,4.4,10.3c-0.1,2.3-0.6,4.6-1.7,6.7c-2.7,4.8-7.9,11.7-13.2,18.4l9.8,9.6c2.7,2.7,4.2,6.3,4.2,10.2
	c0.2,8-6,14.6-14,14.8c-0.3,0-0.5,0-0.8,0h-28.2L327,137c4.1,0.2,8,2.1,10.7,5.2c0.8,0.9,1.5,1.9,2.1,2.9l12.8,12.8
	c2.4,2.6,3.7,6,3.6,9.6c0,4.4-1.9,8.6-5.2,11.5c-2.4,2.3-4.9,4.5-7.5,6.5l-1.9,1.3c-7.7,5.8-14.9,10.9-20.9,13.8l-0.2-0.2
	c-5.1,2.8-10.7,4.3-16.5,4.4c-3.2,0-6.3-0.5-9.4-1.5l-0.2-0.2c-4.3-1.3-8.3-3.6-11.5-6.7l-10.5-10.5c-2.1,1.3-4.5,2-6.9,1.9
	c-4,0-7.8-1.6-10.7-4.4l-12.1-12.1c-1.7-0.9-3.2-2.2-4.4-3.6c-2.5-2.6-3.9-6.1-3.8-9.8c0-4.5,2-8.9,5.4-11.9
	c9.4-7.7,23.2-20.7,35.6-31.2c5-8.2,10.9-16.9,17.4-25.7l-4.4-4.8c-4.9-2.6-8-7.8-7.9-13.4C281,62.5,287.8,55.7,296.2,55.6z"/>
<path class="st0" d="M428.8,184.3c-1.6-1.1-3-2.3-4.4-3.6c-9.2-8.6-14-20.5-14-37c0.1-5.1,0.4-10.2,1.1-15.3
	C417.9,83.3,479.7,0,542,0c3.1,0,5.2,0.2,7.3,0.4c10.7,1.3,20.3,6.1,26.8,15.1l11.1,10.9c3.5,3.6,6.2,7.8,8,12.4l0.4,0.2
	c0.9,1.8,1.4,3.9,1.4,5.9c-0.1,5.5-3.1,10.5-8,13l0.6,1.9c0.7,3.9,1,7.8,1,11.7c0,24.7-12.8,53.3-29.3,76.4l11.3,11.3l0.4,0.6
	c2.4,2.7,3.7,6.2,3.6,9.8c0,4.2-1.8,8.2-4.8,11.1l-3.2,2.5c-10.3,7.7-25.5,13-39.1,13c-5.2,0-10.3-0.9-15.1-2.7L513,193
	c-12.3,6.9-28.2,14-43.5,14c-10.9,0.1-21.4-4-29.3-11.5L428.8,184.3z M455.8,162.1c5-0.6,11.3-3.1,17.8-5.9c-4.4-9-6.5-19.5-6.5-31
	v-4c-4.3,8.3-7.7,17-10,26.1c-0.8,4-1.2,8.1-1.3,12.3L455.8,162.1z M515.4,121.1c11.9-14.8,22.4-31.8,27.2-47.1
	c-5.4,5.3-10.2,11.2-14.2,17.6C522.6,100.7,518.2,110.7,515.4,121.1L515.4,121.1z"/>
<path class="st0" d="M678,137.8c2.5,1,4.8,2.5,6.7,4.4c0.8,1,1.3,1.9,15,15.7c5.4,5.9,5,15-0.8,20.5c-0.2,0.2-0.5,0.4-0.7,0.6h0.2
	c-13.4,11.5-31.2,25.7-47.7,25.7c-3.3,0-6.5-0.6-9.6-1.7c-3-1.1-5.6-2.9-7.8-5.2l-8.6-8.6c-10.7,7.7-23.2,14.4-34.5,14.4
	c-5.2,0.1-10.3-1.3-14.8-4l-0.2-0.2c-1.6-1.1-3.1-2.3-4.4-3.6l-8.6-8.6c-5.1,1.2-10.5-0.3-14.4-3.8c-14-13-15.3-14.2-16.5-15.5
	c-2.5-2.7-3.9-6.3-3.8-10c0-4.4,1.8-8.7,5.2-11.6c7.1-6.1,20.9-18.8,29.5-25.1c13-21.5,33.3-45.2,53.3-62.7c2.9-1.7,6.2-2.5,9.6-2.5
	c6.5,0,12.1,3.5,27,20.7l1.5,1.9c5.7-6.4,11.9-12.4,18.4-18c2.7-1.9,5.9-3,9.2-2.9c6.3,0,12.7,3.4,28,21.1c2.8,2.7,4.4,6.5,4.4,10.3
	c-0.1,3.4-1.2,6.7-3.3,9.4H710C706,104.4,692.6,121.1,678,137.8z"/>
<path class="st0" d="M713.3,55.6h23.6c16.5-19.2,32.6-35.4,42.9-42.7c2.5-1.7,5.4-2.6,8.4-2.7c6,0.1,11.5,3.3,14.6,8.4L815.2,31
	c2.8,2.7,4.4,6.4,4.4,10.3c0,2.3-0.6,4.6-1.7,6.7c-2.7,4.8-7.9,11.7-13.2,18.4l9.8,9.6c2.7,2.7,4.2,6.3,4.2,10.2
	c0.2,8-6,14.6-14,14.8c-0.3,0-0.5,0-0.8,0h-28.2l-31.6,36c4.1,0.2,8,2.1,10.7,5.2c0.8,0.9,1.5,1.8,2.1,2.8l12.8,12.8
	c2.4,2.6,3.7,6,3.6,9.6c0,4.4-1.9,8.6-5.2,11.5c-2.4,2.3-4.9,4.5-7.5,6.5l-1.9,1.3c-7.7,5.8-14.9,10.9-20.9,13.8l-0.2-0.2
	c-5.1,2.8-10.7,4.3-16.5,4.4c-3.2,0-6.4-0.5-9.4-1.5l-0.2-0.2c-4.3-1.3-8.3-3.6-11.5-6.7l-10.5-10.5c-2.1,1.3-4.5,2-6.9,1.9
	c-4,0-7.9-1.6-10.7-4.4l-12.1-12c-1.7-0.9-3.2-2.2-4.4-3.6c-2.5-2.6-3.9-6.1-3.8-9.8c0-4.5,2-8.9,5.4-11.9
	c9.4-7.7,23.2-20.7,35.6-31.2c5-8.2,10.9-16.9,17.4-25.7l-4.4-4.8c-4.9-2.6-8-7.8-7.8-13.4C698.2,62.5,704.9,55.7,713.3,55.6z"/>
<path class="st1" d="M9.6,147.7c0-3.9,0.4-7.9,1.1-11.7c3.6-19.7,20.5-39.1,39.8-48.5c9-4.8,20.5-7.1,31-7.1c3.9-0.1,7.7,0.3,11.5,1
	c7.9,1.6,11.1,5.6,11.1,9.2c0,3.8-3.4,7.1-9,6.5c-3.6-0.5-7-1.7-10.2-3.4c3,0.1,6.1,0.6,9,1.3c1,0.2,1.5,0,1.7-0.8
	c0.2-1,0-1.5-1-1.7c-3.6-1.1-7.3-1.6-11.1-1.5c-9.6,0-19.7,3.1-28,6.7c-14.9,6.7-29.9,23.2-33.7,39.1c-0.9,3.4-1.3,7-1.3,10.5
	c0,20.3,15.9,33.3,40.6,32.4c18.4-0.8,37.2-10.9,51.7-21.8c3.8-2.9,7.7-5.9,12.1-9.6c2.3-2.1,5.9-2,8.1,0.3s2,5.9-0.3,8.1
	c-0.1,0.1-0.2,0.2-0.3,0.3c-4.4,3.6-8.6,7.1-12.7,10.1c-15.5,11.9-37.2,23.8-59.2,23.9C32.8,191.4,9.6,176.6,9.6,147.7z M66.1,59
	c-0.1-8.4,2.5-16.7,7.3-23.6C85.1,18.8,107.7,10,127.6,10c17.2,0,32.6,6.5,37.2,20.5c0.7,2.9,1.1,5.8,1.1,8.8
	c0,24-28.4,36.6-48.1,37.5c-3.4,0.2-6.1-1.3-6.7-4.4c-0.8-3.1,1.3-6.5,4.4-6.7c15-0.9,42.9-10,38.3-31.8
	c-2.9-8.4-14.6-13.6-30.5-12.3c-15.7,1-32.6,8.2-40.6,20.3c-3.6,5-5.5,11-5.4,17.2C77.3,66,79.5,72.6,83.5,78c-4.3-0.2-8.7,0-13,0.8
	C67.6,72.6,66.1,65.8,66.1,59z"/>
<path class="st1" d="M119.2,153.1c10-8.2,20.5-18.2,31-28.7c-4.7,7.9-8,16.5-9.8,25.5c-4.6,4.4-9.8,8.6-14.2,12.3
	c-2.5,2.1-5.8,1.5-7.9-1c-2-2.4-1.7-5.9,0.7-7.9C119.1,153.2,119.1,153.1,119.2,153.1z M142.4,159.2c0-11.1,4.8-24,8.2-30.5
	c9-16.1,22.6-33.3,39.1-44.4c10.7-7.7,23.6-11.9,34.1-11.9c4.2,0,8.3,0.8,12.1,2.5c4.2,2.1,6.2,5.4,6.2,8.6c0,4.8-4.4,9.4-13.2,9.6
	c-31.4,0.4-64.6,40.4-59.8,32.8c10.2-16.3,32.8-40.2,54.2-40.2c1.9,0,3.7,0.2,5.6,0.6c4.2,0.8,3.6-1.5,0-2.3
	c-1.8-0.3-3.7-0.5-5.6-0.4c-25.7,0-50.2,28-62.5,50.8c-5.2,9.2-7.5,17.8-7.3,24.1c0,7.3,3.1,9.8,7.3,9.8c6.3,0,15.1-5.6,19.6-8.6
	c9.3-6.5,18.1-13.9,26.1-22c-3.2,6.3-6.9,14.8-7.7,22.2c-4.4,3.6-7.9,6.3-11.9,9.2c-8.4,5.9-17.8,10.9-26.4,10.9
	c-1.9,0-3.9-0.2-5.8-0.8C145.4,176.1,142.4,168.2,142.4,159.2z M201.4,162.5c0-26.1,38.9-68.4,47.9-76.8l5.8-5.2
	c5.2-4.2,15.9,2.7,9.6,10c-1.9,2.9-21.6,30.3-41.4,50.2c8.2-15.3,27-37.5,36.4-48.3c0.5-0.5,0.5-1.3-0.1-1.8c0,0-0.1-0.1-0.1-0.1
	c-0.5-0.5-1.3-0.5-1.8,0.1c0,0-0.1,0.1-0.1,0.1c-17.1,20.1-43.1,49.6-44.6,70.7c-0.2,3.8,0.2,5.9,3.1,7.3c1.7,0.6,5.4,0.4,12.8-3.4
	c8.4-4.8,16.2-10.5,23.4-17.1c2.3-2.2,6-2.1,8.2,0.2c2.2,2.3,2.1,6-0.2,8.2c-0.1,0.1-0.2,0.2-0.3,0.3
	c-12.1,10.1-28.9,23.9-41.8,23.9c-2.3,0-4.5-0.6-6.5-1.5C204.2,175.5,201.4,169.6,201.4,162.5L201.4,162.5z"/>
<path class="st1" d="M246.4,153.1c9.4-7.7,21.9-19.4,31.6-29.1c-4,7.5-9.8,17.6-11.9,27.4c-4,3.6-8,7.1-12.4,10.7
	c-2.3,2.1-5.9,1.5-8-1C243.5,158.8,244.1,155.2,246.4,153.1z M268.4,158.1c0-3.2,0.4-6.3,1.1-9.4c11.3-36.2,73.6-111.3,98.5-128
	c5.2-3.5,12.6,2.1,9.6,7.7c-4.6,8.2-19,24.9-26.4,34.3h-7.5l21.3-23c0.6-0.6,0.6-1.5,0-2.1c-0.6-0.6-1.5-0.2-2.1,0.4
	c-12.3,13.8-45.4,47.5-69.7,87c-6.1,10-12.5,23.7-12.5,33.3c0,4.6,1.5,8.4,5.4,10.2c5.6,2.1,12.8-1.5,28.4-13.6
	c2.9-2.1,5.4-4.2,8.2-6.7c2.4-2.1,6-1.8,8,0.6c2.1,2.4,1.8,6-0.6,8l0,0c-2.7,2.6-5.6,5-8.6,7.3c-7.1,5.4-13.6,10.1-19.7,13
	c-3.9,2.1-8.3,3.3-12.8,3.4c-2.2,0-4.4-0.4-6.5-1.1C272.1,176.3,268.4,167.3,268.4,158.1L268.4,158.1z M296.2,65.1h24.5
	c-3.3,3.6-6.3,7.7-10,11.5h-14.5c-3.2,0-5.7-2.6-5.8-5.7C290.5,67.7,293.1,65.2,296.2,65.1z M337,79.3c-10.5,11.7-30.1,35.2-41,46.2
	c6.7-11.5,23.8-34.7,33.5-46.2H337z M371.5,65.3c3.1,0,5.6,2.5,5.6,5.7s-2.5,5.7-5.6,5.7h-39.7c3.3-4,6.7-7.7,9.6-11.3H371.5z"/>
<path class="st1" d="M454.1,182.8c-8.6,0.2-16.9-3.1-23.2-9c-7.1-6.7-10.9-16.5-10.9-30.1c0-4.7,0.4-9.4,1.1-14
	C427,87.6,484.5,9.6,542,9.6c2.1,0,4.2,0.2,6.3,0.4c10.5,1.3,19,6.1,23.8,17.6c1.3,2.6,0.2,5.7-2.4,7c-0.2,0.1-0.5,0.2-0.7,0.3
	c-2.8,1.3-6.1,0-7.4-2.8c0,0,0-0.1,0-0.1c-2.9-6.3-7.5-9.4-13.4-10.7c-2.8-0.6-5.6-0.8-8.4-0.8c-45,0-97.9,66.3-106.7,109.6
	c-0.9,4.6-1.5,9.3-1.5,14c0,9.2,2.3,16.1,6.5,20.9c4.1,4.4,9.9,6.9,15.9,6.7c10.7,0,22.8-5.9,31.4-10.5c2.9,2.9,5.5,5.9,9.2,8
	C483,175.7,468.1,182.8,454.1,182.8z M476.7,125.1c0-18.8,6.3-40.2,18.2-59.2c11.1-17.8,30.8-38.1,52.9-36c9.8,1,15.5,8,17.6,16.7
	c0.6,3.2,0.8,6.5,0.8,9.8c0,36.6-29.5,82-54.6,101.2c-5.5-0.4-9.4-2.1-11.9-5.2c22.6-19,55.4-61.5,55.4-94.4c0-2.9-0.2-5.8-0.8-8.6
	c-1.5-5.4-4-7.7-7.7-7.9c-14.9-1.5-31,13.6-41.2,30.1c-11.7,19-17,37.9-17,53.5c0,10.7,2.5,19.7,7.1,26.2c2.3,3.5,5.6,6.2,9.6,7.7
	c3,1,6.1,1.5,9.2,1.5c10.2,0,21.5-4.6,28.3-10.4c2.4-2.1,6.1-1.9,8.2,0.6c2.1,2.4,1.9,6.1-0.6,8.2l0,0l-2.5,1.9
	c-9.9,7.1-21.6,11-33.8,11.2c-4.1,0-8.2-0.7-12.1-2.1C484.7,163.6,476.7,146.2,476.7,125.1z"/>
<path class="st1" d="M539.1,153.1c7.1-6.1,18.2-16.3,25.9-23.4c-4,7.5-7.1,15.4-9.4,23.6c-2.7,3.3-5.8,6.2-9.2,8.8
	c-2.3,2.1-5.9,1.5-8-1C536.3,158.8,536.8,155.2,539.1,153.1z M557.3,161.5c0-2.4,0.2-4.8,0.8-7.1c2.3-9.8,6.9-19.5,12.1-28.2
	c14-22.5,31.2-42.8,51-60.3c5.8-3.3,12.8,1.7,9.2,7.7c-8.6,13.8-25.1,32.2-41,49.1c10-14.5,21-28.2,33-41c0.8-0.8,0.8-1.3,0-1.9
	c-0.5-0.5-1.3-0.6-1.8-0.1c0,0-0.1,0.1-0.1,0.1c-15.9,16.9-32.6,38.3-42.2,55.6c-4.2,8.2-7.5,15.9-8.8,21.5
	c-2.1,8.1,0.6,10.7,5,10.7c5.5,0,13.8-4.4,17.8-6.9c10.5-6.7,22-17.2,33.5-29.3c-4.2,7.7-7.1,15.9-8.8,24.5
	c-10.2,9.2-27.4,23.4-42.2,23.4c-3.5,0.1-7-0.9-10-2.7C559.2,172.8,557.3,167.4,557.3,161.5L557.3,161.5z M620.6,170.5
	c-1.1-2.9-1.6-6.1-1.5-9.2c0-17,13.2-37.7,19.3-47.1c10.5-16.7,24-33.3,38.5-45.6c5.8-4,15.5,1.9,10.5,9.2
	c-4.6,7.1-23,29.3-39.8,48.3c8-14.4,24.5-35.6,36-48.7c0.5-0.6,0.4-1.4-0.2-1.9s-1.4-0.4-1.9,0.2l0,0
	c-17.4,19.7-31.8,39.3-42.1,59.8c-4.8,9.8-7.7,17.8-8.4,24.3c-0.6,6.7,1.5,9,4.8,9c2.9,0,6.7-1.7,10.3-3.6
	c6.7-3.6,14.6-9.4,23.6-17.1c2.4-2.1,6-1.8,8,0.6s1.8,6-0.6,8l0,0c-12.3,10.5-28.5,23.6-41.8,23.6c-2.2,0-4.3-0.4-6.3-1.1
	C625.1,177.6,622,174.4,620.6,170.5L620.6,170.5z"/>
<path class="st1" d="M663.5,153.1c9.4-7.7,21.8-19.4,31.6-29.1c-4,7.5-9.8,17.6-11.9,27.4c-4,3.6-8,7.1-12.5,10.7
	c-2.3,2.1-5.9,1.5-8-1C660.6,158.8,661.2,155.2,663.5,153.1z M685.5,158.1c0-3.2,0.4-6.3,1.2-9.4c11.3-36.2,73.6-111.3,98.5-128
	c5.2-3.5,12.6,2.1,9.6,7.7c-4.6,8.2-19,24.9-26.4,34.3h-7.5l21.3-23c0.6-0.6,0.6-1.5,0-2.1c-0.6-0.6-1.5-0.2-2.1,0.4
	c-12.3,13.8-45.4,47.5-69.7,87c-6.1,10-12.5,23.7-12.5,33.3c0,4.6,1.5,8.4,5.4,10.2c5.5,2.1,12.8-1.5,28.3-13.6
	c2.9-2.1,5.4-4.2,8.2-6.7c2.4-2.1,6-1.8,8,0.6s1.8,6-0.6,8l0,0c-2.7,2.6-5.6,5-8.6,7.3c-7.1,5.4-13.6,10.1-19.7,13
	c-4,2.1-8.4,3.3-12.8,3.5c-2.2,0-4.4-0.4-6.5-1.1C689.2,176.3,685.5,167.3,685.5,158.1L685.5,158.1z M713.3,65.2h24.5
	c-3.3,3.6-6.3,7.7-10,11.5h-14.5c-3.2,0-5.7-2.6-5.7-5.7C707.6,67.8,710.1,65.2,713.3,65.2L713.3,65.2z M754.1,79.3
	c-10.5,11.7-30.1,35.2-41,46.2c6.7-11.5,23.8-34.7,33.5-46.2H754.1z M788.6,65.3c3.1,0,5.7,2.5,5.7,5.7s-2.5,5.7-5.7,5.7h-39.7
	c3.2-4,6.7-7.7,9.6-11.3H788.6z"/>
</svg>
