<?xml version="1.0" encoding="utf-8"?>
<!-- Generator: Adobe Illustrator 25.2.1, SVG Export Plug-In . SVG Version: 6.00 Build 0)  -->
<svg version="1.1" id="Layer_1" xmlns="http://www.w3.org/2000/svg" xmlns:xlink="http://www.w3.org/1999/xlink" x="0px" y="0px"
	 viewBox="0 0 1312.5 242.8" style="enable-background:new 0 0 1312.5 242.8;" xml:space="preserve">
<style type="text/css">
	.st0{fill:#B65037;}
	.st1{fill:#FFFFFF;}
</style>
<path class="st0" d="M221.4,42.5c-0.5,7.8-4.2,17.7-9.9,26.7c-12.3,17.1-35.4,28.1-60.5,32.6c-0.5,5.1-0.9,9.3-1.1,13l-0.5,5.4
	c2.6-1.3,5-2.8,7.3-4.7c2.1-1.6,4.8-2.5,7.4-2.5c4.2-0.1,8.1,1.9,10.6,5.3l0.8,1.2l10.1,10.1l1.2,1.4c1.2,1.8,1.9,4,1.9,6.2
	c0,4.1-2,8-5.3,10.5c-10.6,8.1-20.3,11.5-32,11.5c-3.8,0-7.6-0.4-11.3-1.1c-0.2-0.1-0.5-0.2-0.8-0.2c-15.7,26.2-39.1,37.7-65.5,37.2
	c-15.2-0.3-32.9-6.2-45.3-18.6l-7.4-7.4c-8.5-6.6-14.9-15.5-18.3-25.7C0.9,137.8,0,131.9,0,126c0-14.6,6.2-27.5,15.7-37.2
	C26.2,78,40.6,72,55.7,72c1.9,0,3.9,0.2,5.9,0.3L61.1,72c-2.6-2-5-4.3-7.1-6.7c-9.8-10.2-15.8-23-15.8-38c0-4.1,0.4-8.2,1.4-12.2
	c1.5-6.9,8.5-11.2,14.6-9.8c3.3,0.9,6.1,2.9,7.9,5.7l10.2,10.2c0-0.1-0.2-0.1-0.2-0.3l0.5,0.5c2.8,2.8,4.1,6.9,3.4,10.9
	c-0.5,2.4-0.7,4.8-0.8,7.3c0,4.8,1.1,9.5,3.4,13.6c8.1,5.3,17.2,9,26.7,10.9c3.9,0.7,7.8,1.2,11.8,1.4c5-23.4,15.8-43.6,35.4-56.6
	c8.7-5.6,18.3-8.7,26.8-8.7c7.3,0,14.5,2.5,20.2,7.1c1.7,1.6,3.3,3.4,4.7,5.3l8.2,8.4c0.1,0,0.1,0.2,0.3,0.2
	C218.3,26.8,221.4,34.5,221.4,42.5z M111.8,112.6l0.9-9.2c0-0.8,0.2-1.6,0.2-2.5v-0.5c-3.9-0.8-7.6-1.7-11.3-2.8l0.9,0.8
	C106.5,102.6,109.7,107.4,111.8,112.6z M164.3,55.8c5.6-3.1,10.4-7.5,14.1-12.7l1.4-2c-0.4,0.3-0.8,0.6-1.2,0.8
	C173,45.6,168.1,50.3,164.3,55.8z M212.4,20.9l-0.8-0.9C211.9,20.3,212.2,20.6,212.4,20.9z"/>
<path class="st0" d="M154.5,139.6c-1.4-0.8-2.6-1.8-3.6-2.9c-2-2.2-3.1-5.1-3.1-8.1c0-3.7,1.6-7.2,4.4-9.6
	c5.6-4.3,12.2-10.7,20-18.2c8.7-21.8,29.2-42.8,48.4-50.7c4.4-1.8,9.2-2.8,14-2.8c8.8,0,16.3,3.7,20.6,10.1l9.5,9.5
	c4.2,4.2,6.5,10.1,6.5,17.4c0,2.6-0.3,5.2-0.9,7.8c-2.5,10.1-9,18.8-17.4,25.8c0.3,0.3,0.5,0.6,0.6,0.9l10.2,10.1
	c1.9,2.1,3,4.9,3,7.8c0,3.6-1.5,7-4.2,9.3c-3,2.9-6.2,5.5-9.6,7.9c-10.6,8.1-23.4,13.3-35.4,13.8c-9.8,0.5-20.2-2-27.3-9.2l-8.9-8.8
	c-0.1-0.1-0.2-0.1-0.3-0.1l-0.6,0.5l0.2,0.2c-2.1,1.9-4.8,2.9-7.6,2.9c-3.2,0-6.4-1.3-8.7-3.6L154.5,139.6z"/>
<path class="st0" d="M298.6,111.8h0.8c3.6,0,6.9,1.5,9.3,4.2c0.6,0.7,1.2,1.5,1.7,2.3l10.4,10.4c1.9,2.1,3,4.9,2.9,7.8
	c0,3.6-1.5,6.9-4.2,9.3c-1.9,1.9-3.9,3.6-6,5.3l-1.6,1.1l-0.2-0.2c-6,4.7-12.1,9-16.8,11.3c-4.1,2.2-8.7,3.4-13.3,3.4
	c-2.6,0-5.2-0.4-7.8-1.2l-0.2-0.1c-3.5-1-6.8-2.9-9.5-5.4l-8.5-8.5c-1.7,0.9-3.6,1.4-5.6,1.4c-3.2,0-6.3-1.2-8.5-3.4l-9.9-9.9
	c-1.3-0.7-2.5-1.6-3.4-2.8c-2-2.2-3.1-5-3.1-7.9c0-3.8,1.7-7.4,4.7-9.8c7.6-6.2,19.5-16.3,29.2-25.3C279.2,60,316,20,329,11.6
	c1.9-1.1,4-1.7,6.2-1.7c5.7,0.2,10.9,3.3,13.8,8.2l9.5,9.5c2.5,2.3,3.9,5.5,4,8.8c0,1.9-0.5,3.8-1.4,5.4
	c-10.3,17.4-40.6,48.1-60.9,68.4L298.6,111.8z"/>
<path class="st0" d="M288.5,139.6c-1.4-0.8-2.6-1.7-3.6-2.9c-2-2.2-3.1-5.1-3.1-8.1c0-3.7,1.6-7.2,4.3-9.6
	c5.6-4.3,12.2-10.7,20-18.2c8.7-21.8,29.2-42.8,48.4-50.7c4.4-1.8,9.2-2.8,14-2.8c8.8,0,16.3,3.7,20.6,10.1l9.5,9.5
	c4.2,4.2,6.5,10.1,6.5,17.4c0,2.6-0.3,5.2-0.9,7.8c-2.5,10.1-9,18.8-17.4,25.8c0.3,0.3,0.5,0.6,0.6,0.9l10.3,10.1
	c1.9,2.1,3,4.9,3,7.8c0,3.6-1.5,7-4.2,9.3c-3,2.9-6.2,5.5-9.6,7.9c-10.5,8.1-23.4,13.3-35.4,13.8c-9.8,0.5-20.2-2-27.3-9.2l-8.9-8.8
	c-0.1-0.1-0.2-0.1-0.3-0.1l-0.6,0.5l0.2,0.2c-2.1,1.9-4.8,2.9-7.6,2.9c-3.2,0-6.4-1.3-8.7-3.6L288.5,139.6z"/>
<path class="st0" d="M365.8,139.3c-1.2-0.7-2.4-1.5-3.3-2.6c-2-2.2-3.1-5.1-3.1-8.1c0-3.7,1.6-7.2,4.4-9.6
	c6.9-5.6,13.6-11.6,19.9-18c8.5-22,29.1-43.3,48.5-51.2c4.4-1.8,9.1-2.8,13.8-2.8c9.1,0,16.8,3.9,21.1,10.7l9,9
	c4.2,4.2,6.7,10.1,6.7,17.4c0,2.6-0.3,5.2-0.9,7.8c-1.5,6.4-4.5,12.4-8.7,17.5c-3.1,4-6.2,6.5-9,7.8l0.8,1.2l10.4,10.4
	c1.9,2.1,3,4.9,2.9,7.8c0,3.6-1.5,6.9-4.2,9.3c-3,2.9-6.2,5.5-9.6,7.9c-10.5,8.1-23.4,13.3-35.4,13.8c-9.8,0.5-20.2-2-27.3-9.2l-9-9
	l-0.6,0.6c-2.1,1.8-4.8,2.7-7.6,2.6c-3.2,0-6.4-1.2-8.7-3.4l-0.8-0.8l0.1,0.3L365.8,139.3z M416.4,130.8c6.7-0.5,14.7-4,20.9-8.7
	l8.4-7c0.8-0.7,1.6-1.2,2.5-1.7l-8.1-8.2c-2.7-1.3-4.7-3.8-5.4-6.7c-7.6,7.8-14.1,17.2-16.8,25h-0.1
	C416.9,125.8,416.4,128.3,416.4,130.8L416.4,130.8z"/>
<path class="st0" d="M486.3,45.9h19.1c13.4-15.5,26.4-28.7,34.7-34.6c2-1.4,4.4-2.1,6.8-2.2c4.8,0.1,9.3,2.7,11.8,6.9l10.1,10.1
	c2.3,2.2,3.5,5.2,3.6,8.4c0,1.9-0.5,3.8-1.4,5.4c-2.2,3.9-6.4,9.5-10.7,14.9l7.9,7.8c2.2,2.2,3.4,5.1,3.4,8.2
	c0.2,6.4-4.9,11.8-11.3,12c-0.2,0-0.4,0-0.6,0h-22.8l-25.6,29.2c3.3,0.1,6.5,1.6,8.7,4.1c0.6,0.7,1.2,1.5,1.7,2.3l10.4,10.4
	c1.9,2.1,3,4.9,3,7.8c0,3.6-1.5,7-4.2,9.3c-1.9,1.9-3.9,3.6-6,5.3l-1.5,1.1c-6.2,4.6-12.1,8.8-16.9,11.2l-0.2-0.2
	c-4.1,2.2-8.7,3.5-13.3,3.6c-2.6,0-5.1-0.4-7.6-1.2l-0.1-0.1c-3.5-1-6.7-2.8-9.4-5.3l-8.5-8.5c-1.7,1.1-3.6,1.6-5.6,1.6
	c-3.2,0-6.4-1.3-8.7-3.6l-9.8-9.8c-1.4-0.8-2.6-1.8-3.6-2.9c-2-2.1-3.1-5-3.1-7.9c0-3.7,1.6-7.2,4.3-9.6
	c7.6-6.2,18.8-16.8,28.9-25.3c4-6.7,8.8-13.7,14.1-20.8l-3.6-3.9c-4-2.1-6.5-6.3-6.4-10.9C474,51.6,479.5,46.1,486.3,45.9z"/>
<path class="st0" d="M702.6,114.2l2.2,1.8c0.6,0.7,1.2,1.5,1.7,2.3l10.4,10.4c1.9,2.1,3,4.9,3,7.8c0,3.5-1.4,6.9-4,9.3
	c-10.7,9-25.6,21.1-38.6,21.1c-2.8,0-5.6-0.7-8.2-1.9l-0.3-0.2c-2.4-1.1-4.6-2.6-6.5-4.5l-5.1-5.1l-0.9,0.8
	c-7.9,5.6-16.9,10.2-25.6,10.2c-2.3,0.1-4.6-0.3-6.8-0.9h-0.2c-3.3-1.1-6.3-2.9-8.8-5.2l-9.2-9.1c-7.5-4.5-9.9-12.4-9.9-21.1
	c0-10.6,4.3-22.3,7.5-28.2c7.8-13.8,20-27.8,34-38.5C648.5,55,661.5,48,673.8,48c3.1,0,6.2,0.4,9.2,1.2c4.5,1.2,8.3,4,10.9,7.9
	l0.9,0.9c0.8-0.2,1.5-0.3,2.3-0.3c5.5,0.1,10.6,3,13.5,7.6l9.9,9.9c2.1,2.1,3.3,4.8,3.3,7.8c-0.1,2.9-1.2,5.6-3.1,7.8
	C719.5,92.6,712.2,102.7,702.6,114.2z"/>
<path class="st0" d="M809,153.4c-8.4-6.5-12.2-17.2-12.2-29.8c0-9.2,2.8-20.5,7-30.2c0.9-1.9,1.9-4,3.1-6.2c-2.4-2-4.7-4.1-6.8-6.4
	l-5.1-5c-6.3-5-11.9-10.9-16.6-17.4c-1.3-2.2-2-4.7-2-7.3c-0.1-4.1,1.8-8,5.1-10.4c2.2-1.5,4.7-2.3,7.4-2.3c3.9,0,7.6,1.9,9.9,5
	l1.1,1.7l10,9.7l0.9,1.1c3.5,2.9,7.1,5.6,11,7.9c3.9-5.4,7.9-10.5,12.1-15.4c3.7-4.2,7.3-8.1,10.7-11.3C865.3,17.7,894.5,0,917.1,0
	c8.2-0.2,16.1,2.4,22.7,7.3c2.4,2,4.6,4.3,6.5,6.8l8.8,8.7c5.3,5.2,8.2,12.3,8.1,19.7c0,2.6-0.2,5.1-0.8,7.6h-0.2
	c-0.3,1.8-0.8,3.7-1.4,5.4l6.5,6.5c2.3,2.5,3.9,5.4,3.4,8.7h0.2c-0.9,7.6-8.5,19.6-17.4,30.2c-3.9,4.8-8.2,9.3-12.9,13.3h-0.2
	l-0.2,0.2c2.2,0.8,4.2,2,5.7,3.7l1.1,1.7l10.2,10.1l0.9,1.1c1.7,2.1,2.6,4.6,2.6,7.3c0,3.7-1.7,7.1-4.5,9.5
	c-14.9,12.3-42.3,27.6-58.3,32l0.2,0.2c-3,1-6.1,1.8-9.2,2.5l-1.1,1.2c-18.3,23.7-38,44.7-57.2,54.1c-6.3,3.1-13.2,4.8-20.2,5
	c-10.2,0-19.2-3.7-25.4-9.9l-8.4-8.4c-8.5-5.9-13.6-15.6-13.5-25.9c0-7.1,2.5-15.5,8.4-23.7C781.2,161.3,794.1,156.1,809,153.4z"/>
<path class="st0" d="M927.5,139.6c-1.4-0.8-2.6-1.8-3.6-2.9c-2-2.2-3.1-5.1-3.1-8.1c0-3.7,1.6-7.2,4.3-9.6
	c5.6-4.3,12.3-10.7,20-18.2c8.7-21.8,29.2-42.8,48.4-50.7c4.4-1.8,9.2-2.8,14-2.8c8.8,0,16.3,3.7,20.6,10.1l9.5,9.5
	c4.2,4.2,6.5,10.1,6.5,17.4c0,2.6-0.3,5.2-0.9,7.8c-2.5,10.1-9,18.8-17.4,25.8c0.3,0.3,0.5,0.6,0.6,0.9l10.2,10.1
	c1.9,2.1,3,4.9,2.9,7.8c0,3.6-1.5,7-4.2,9.3c-3,2.9-6.2,5.5-9.6,7.9c-10.6,8.1-23.4,13.3-35.4,13.8c-9.8,0.5-20.2-2-27.3-9.2
	l-8.8-8.8c-0.1-0.1-0.2-0.1-0.3-0.1l-0.6,0.5l0.2,0.2c-2.1,1.9-4.8,2.9-7.6,2.9c-3.2,0-6.3-1.3-8.7-3.6L927.5,139.6z"/>
<path class="st0" d="M998.4,128.6c0-3.6,1.6-7,4.3-9.3c10.1-8.1,22-19.9,31.7-29.6l14.6-14.7c4.7-6.5,9.3-12.9,13.8-18.6
	c3.4-4.3,6.8-8.8,12.6-8.8c2.8,0.1,5.5,0.9,7.9,2.3c1.5,1.2,2.8,2.6,3.7,4.3l2.8,3c4.1-2.2,8.3-4.2,12.7-5.7
	c3.5-1.1,7.2-1.7,10.9-1.7c8.8,0,16.8,3.4,20.8,9.9l9.5,9.5c3.3,3.1,5.1,7.4,5.1,12.9c0,2.8-0.6,5.6-1.6,8.2h-0.2
	c-1.6,4.4-3.9,8.6-6.8,12.3c-3.3,4.2-6.8,8.5-10.6,12.7l1.2,1.1l1.6,2.2L1143,129c1.9,2.2,3,5.1,3,8.1c0,3.5-1.6,6.7-4.2,9
	c-7.4,6.4-15.4,12.4-21.9,16.1c-4.8,2.8-10.2,4.3-15.7,4.5c-5.9,0.1-11.6-2.1-15.8-6.2l-9-9c-6-3.7-9.8-10.1-9.8-18.3
	c0-2.9,0.4-5.8,1.4-8.5c-10.9,11.8-20.3,24.4-26.5,35.5c-2,3.8-6,6.1-10.2,6.1c-3.3,0-6.5-1.4-8.8-3.7
	c-13.2-11.6-15.7-14.7-16.3-18.6l-4-4.2c-1.4-0.8-2.7-1.8-3.7-3.1C999.5,134.4,998.4,131.5,998.4,128.6z"/>
<path class="st0" d="M1109,135c-1.9-2.2-3-5-3-7.9c0-3.7,1.7-7.2,4.5-9.6c13.3-11.5,32.7-31.2,62.4-62.7c1.9-8.5,9.2-14.3,14.4-16
	v-0.2c1.6-0.6,3.4-0.9,5.1-0.9c4.7,0,8.9,2.6,11.2,6.7l9.8,9.8c3.1,3.1,4.4,7.7,3.3,12l0.5,0.5l-0.2,0.2l10.6,10.6
	c0.7,0.6,1.2,1.3,1.7,2l-0.3-0.3c1.5,2,2.3,4.4,2.3,6.8c0,4.1-1.9,8-5.1,10.6h-0.2c-6.5,4.6-12.4,9.9-17.7,15.8
	c2.9,0.3,5.6,1.7,7.5,3.8c0.6,0.7,1.2,1.5,1.7,2.3l10.4,10.4c1.9,2.1,3,4.9,2.9,7.8c0,3.5-1.4,6.9-4,9.3
	c-10.9,9.3-25.6,20.8-38.8,20.8c-2.6-0.1-5.3-0.5-7.8-1.4c-2.7-1.1-5.1-2.8-7.1-4.8c-15.2-12.9-18.5-19.2-19.2-25.9
	c-5.4,5.1-10.6,9.9-15.2,14c-2.2,1.7-5,2.6-7.8,2.6c-3.3,0-6.5-1.3-8.8-3.6l-9.8-9.8c-1.3-0.7-2.4-1.6-3.3-2.6L1109,135z"/>
<path class="st0" d="M1195.9,139.6c-1.4-0.8-2.6-1.8-3.6-2.9c-2-2.2-3.1-5.1-3.1-8.1c0-3.7,1.6-7.2,4.3-9.6
	c5.6-4.3,12.3-10.7,20-18.2c8.7-21.9,29.2-42.8,48.4-50.7c4.4-1.8,9.2-2.8,14-2.8c8.8,0,16.3,3.7,20.6,10.1l9.5,9.5
	c4.2,4.2,6.5,10.1,6.5,17.4c0,2.6-0.3,5.2-0.9,7.8c-2.5,10.1-9,18.8-17.4,25.8c0.3,0.3,0.5,0.6,0.6,0.9l10.2,10.1
	c1.9,2.1,3,4.9,2.9,7.8c0,3.6-1.5,6.9-4.2,9.3c-3,2.9-6.2,5.5-9.6,7.9c-10.6,8.1-23.4,13.3-35.4,13.8c-9.8,0.5-20.2-2-27.3-9.2
	l-8.8-8.8c-0.1-0.1-0.2-0.1-0.3-0.1l-0.6,0.5l0.2,0.2c-2.1,1.9-4.8,2.9-7.6,2.9c-3.2,0-6.3-1.3-8.7-3.6L1195.9,139.6z"/>
<path class="st1" d="M7.8,126c0.1-12,4.9-23.4,13.5-31.8c9.1-9.2,21.5-14.4,34.4-14.5c3.9,0,7.7,0.5,11.5,1.4
	c18.2,4.2,27,17.8,27.9,31.8c0.1,6.3-1.1,12.6-3.7,18.3c-5.3,10.9-15.8,19.1-30.7,18.8c-12-0.3-21.6-9.2-21.6-20
	c0-1.7,0.2-3.4,0.6-5c1.9-6.4,5.4-10.9,10.4-13.7c4.8-2.6,10.4-3.3,16.1-3c5.8,0.5,11.4,1.8,16.9,3.7c0.4,3.3,0.2,6.6-0.8,9.8
	c-5.4-2-11-3.3-16.8-3.9c-4.7-0.3-8.4,0.3-11,1.7s-4.5,3.9-5.7,7.9c-1.6,5.8,3.9,12.7,11.9,13c11.2,0.2,18.9-6.2,22.7-14.7
	c1.5-3.4,2.3-7,2.3-10.7c0-2.2-0.3-4.3-0.9-6.4c-2.2-8.2-8.4-15.7-19.9-18.5c-2.9-0.6-5.9-0.9-8.8-0.9c-10.5-0.1-20.7,4.1-28.1,11.6
	c-6.7,6.6-10.5,15.7-10.6,25.1c0,4,0.7,8,1.9,11.8c6,18.3,25.6,27.9,42.3,28.1c22.8,0.5,41.3-8.2,51.2-28.6c2.9,0.8,6,1.7,9.3,2.5
	c-11.3,25.3-33.8,36.3-60.7,35.7C42,175.1,18,164.4,10.2,141C8.6,136.2,7.8,131.1,7.8,126z M59.6,59.9c-8.4-8.7-13.6-19.7-13.6-32.6
	c0-3.7,0.5-7.3,1.2-10.9c0.5-2.5,2.8-4.1,5.3-3.6c0.1,0,0.2,0,0.4,0.1c2.6,0.5,4.2,3,3.7,5.6c-0.6,2.9-0.9,5.8-0.9,8.7
	c0,10.4,4.2,18.9,10.9,25.9c8.8,9.2,22.3,15.5,37.3,18.6c5.7,1.1,11.5,1.7,17.4,1.9c-0.5,3.3-0.9,6.4-1.2,9.6
	c-6-0.2-12-0.9-17.8-2.2C85.5,77.7,70.1,70.7,59.6,59.9z M113.9,135.1l-4.5-1.4c-4.6-1.6-9.1-3.6-13.5-5.9l-0.6-0.3
	c0.9-3.1,1.6-6.4,1.9-9.6c1,0.4,2,0.9,3,1.4c3.9,1.9,7.9,3.7,12,5.1c9.9,3.9,18.3,6.2,25.8,6.2c8.4,0,15.8-2.8,23.7-9
	c2.2-1.5,5.2-1,6.8,1.1c1.4,2.2,0.3,5.3-1.9,7c-9.1,7-17.5,9.9-27.5,9.9c-3.4,0-6.8-0.3-10.1-0.9
	C123.9,137.9,118.8,136.7,113.9,135.1z M118.1,122.2c2.6-12.1,2-17.8,4.2-39.1c3-28.2,12.7-53.4,34.6-67.8
	c7.4-4.8,15.4-7.4,22.5-7.4c5.5-0.1,10.9,1.7,15.2,5.3c4.6,3.9,7.1,9.8,7.1,16.8c-0.3,6.8-3.1,14.4-8.7,22.8
	c-12.4,18.6-35.1,27.9-58.6,30.1c0.2-3.3,0.7-6.7,1.4-9.9l3.4-0.3c19.1-2.8,36.5-11.2,45.8-25.1c5.1-7.4,7-13.3,7.1-17.8
	c0-4.3-1.6-7.3-3.7-9.1c-2-1.9-5.3-3-9.1-3c-4.8,0-10.7,1.7-17.1,5.9c-13.5,8.8-21.1,21.4-25.6,36.3l-1,3.3c-1.8,6.6-3,13.2-3.7,20
	c-2.3,22.8-1.7,28.8-4.6,41.4c0,0.7-0.1,1.3-0.3,2c-3.2-0.6-6.3-1.4-9.3-2.4L118.1,122.2z"/>
<path class="st1" d="M157.3,124.9c6.3-5.1,12.4-10.5,18.1-16.3c-1.5,4.8-2.3,9.8-2.3,14.9c-3.6,3.1-6.7,6-9.9,8.7
	c-1.9,1.6-4.8,1.3-6.4-0.6c0,0-0.1-0.1-0.1-0.1C155.1,129.4,155.3,126.5,157.3,124.9z M175.8,121.2c0-25,25-54.4,47.8-63.8
	c3.5-1.5,7.2-2.3,11-2.3c9.8,0,16.9,6.4,16.9,16.8c-0.1,2-0.3,4-0.8,6c-5.3,21.9-33.2,36.6-53.2,36.6c-3.3,0.1-6.5-0.4-9.6-1.4
	c1-3.1,2.3-6,3.9-8.8c1.9,0.5,3.9,0.7,5.9,0.6c11.2,0,25.4-6.2,34.4-14.1c4.5-3.9,10.1-11.9,10.1-18.5c0.1-1.9-0.5-3.8-1.7-5.2
	c-0.9-1.2-2.9-1.9-5.7-1.9c-4.1,0.2-8.1,1.2-11.8,2.9c-14.1,6.8-31,25.9-36,40.7c-1.2,3.4-1.8,7.1-1.9,10.7
	c0,10.7,6.1,19.7,19.2,19.1c8.5-0.5,18.1-4.2,26.2-10.4c3-2.3,5.7-4.7,8.8-7.3c1.9-1.7,4.9-1.5,6.5,0.5c1.7,1.9,1.5,4.9-0.5,6.5
	c-2.9,2.7-6,5.3-9.3,7.6c-9.3,7.3-20.8,11.9-31.3,12.4s-21.9-3.1-26.4-13.6C176.6,130.1,175.7,125.6,175.8,121.2z"/>
<path class="st1" d="M234.9,124.9c7.6-6.2,15.7-13.8,23.6-21.7c-3.6,6.4-6.2,13.2-7.8,20.3l-9.9,8.7c-2,1.6-5,1.3-6.6-0.8
	c0,0,0,0,0,0c-1.6-1.9-1.3-4.8,0.6-6.4C234.8,124.9,234.8,124.9,234.9,124.9z M252.4,129.1c0-2.6,0.4-5.2,1.1-7.8
	c8.4-31,64.1-92.9,79.7-103c4.5-2.8,12.2,2.2,9.1,7.6c-10.1,18-44.4,51.5-64.7,71.8C291,78,323.3,41.4,336.8,28.5
	c0.4-0.4,0.4-1.1-0.1-1.5c0,0-0.1,0-0.1-0.1c-0.4-0.4-1-0.4-1.4,0c-0.1,0.1-0.1,0.1-0.1,0.2c-19.4,18.1-66.1,70-72.6,96.3
	c-0.4,1.7-0.6,3.4-0.6,5.1c0,4.6,1.7,9.1,7,9.1c4.3,0.3,10.2-3.1,20.9-11.5c2.3-1.7,4.3-3.4,6.7-5.4c1.8-1.8,4.7-1.8,6.5,0.1
	s1.8,4.7-0.1,6.5c-0.1,0.1-0.3,0.3-0.5,0.4c-2.2,2.1-4.6,4.1-7,5.9c-5.7,4.3-11,8.2-16,10.6c-3.1,1.7-6.7,2.7-10.2,2.8
	c-1.8,0-3.7-0.3-5.4-0.9C255.6,143.7,252.4,136.5,252.4,129.1L252.4,129.1z"/>
<path class="st1" d="M291.3,124.9c6.3-5.1,12.4-10.5,18.1-16.3c-1.5,4.8-2.3,9.8-2.3,14.9c-3.6,3.1-6.7,6-9.9,8.7
	c-1.9,1.6-4.8,1.3-6.4-0.6c0,0-0.1-0.1-0.1-0.1C289.1,129.4,289.4,126.5,291.3,124.9z M309.8,121.2c0-25,25-54.4,47.8-63.8
	c3.5-1.5,7.2-2.3,11-2.3c9.8,0,16.9,6.4,16.9,16.8c-0.1,2-0.3,4-0.8,6c-5.3,21.9-33.2,36.6-53.2,36.6c-3.3,0.1-6.5-0.4-9.6-1.4
	c1-3.1,2.3-6,3.9-8.8c1.9,0.5,3.9,0.7,5.9,0.6c11.2,0,25.5-6.2,34.4-14.1c4.5-3.9,10.1-11.9,10.1-18.5c0.1-1.9-0.5-3.7-1.7-5.2
	c-0.9-1.2-3-1.9-5.7-1.9c-4.1,0.2-8.1,1.2-11.8,2.9c-14.1,6.8-31,25.9-36,40.7c-1.2,3.4-1.8,7.1-1.9,10.7c0,10.7,6,19.7,19.2,19.1
	c8.5-0.5,18.2-4.2,26.2-10.4c3-2.3,5.7-4.7,8.9-7.3c1.9-1.7,4.9-1.5,6.5,0.5s1.5,4.9-0.5,6.5l0,0c-2.9,2.7-6.1,5.3-9.3,7.6
	c-9.3,7.3-20.8,11.9-31.3,12.4s-21.9-3.1-26.4-13.6C310.6,130.1,309.7,125.6,309.8,121.2z"/>
<path class="st1" d="M368.9,124.9c6.3-5.1,12.4-10.5,18.1-16.3c-1.4,4.7-2,9.5-1.9,14.4c-3.6,3.1-7.1,6.5-10.4,9.2
	c-2,1.6-4.8,1.3-6.4-0.7c0,0-0.1-0.1-0.1-0.1C366.7,129.4,367,126.5,368.9,124.9z M387.4,121c0-25.1,25-54.6,47.8-63.9
	c3.4-1.5,7.1-2.3,10.9-2.3c9.8,0,17.1,6.4,17.1,16.9c0,2.1-0.3,4.2-0.8,6.2c-1.3,5.4-3.8,10.4-7.3,14.6c-3.6,4.7-6.7,6.4-9,6.4
	c-2.3,0.1-4.2-1.7-4.2-4c0-0.1,0-0.2,0-0.3c0-1.7,0.7-3.3,2-4.3c1.8-1.4,3.3-3,4.7-4.8c3-4.3,5.6-9.5,5.6-14
	c0.1-1.9-0.5-3.8-1.7-5.3c-1.5-1.7-3.7-2.6-5.9-2.5c-2.8,0-6.4,0.9-10.7,2.9c-14.3,7-32.3,27.2-37.2,42.2c-1.2,3.7-1.8,7.5-1.9,11.3
	c0,10.7,5.7,19.4,19.2,18.5c8.5-0.5,18.1-4.2,26.2-10.4c3-2.3,5.7-4.7,8.8-7.3c1.9-1.7,4.9-1.5,6.5,0.5s1.5,4.9-0.5,6.5l0,0
	c-2.9,2.7-6.1,5.3-9.3,7.6c-9.3,7.3-20.8,11.9-31.3,12.4s-21.9-3.1-26.4-13.6C388.2,130,387.3,125.5,387.4,121z"/>
<path class="st1" d="M446,124.9c7.6-6.2,17.7-15.7,25.6-23.6c-3.3,6-7.9,14.3-9.6,22.2c-3.3,3-6.5,5.7-10.1,8.7
	c-2,1.6-4.8,1.3-6.4-0.7c0,0-0.1-0.1-0.1-0.1C443.8,129.4,444,126.5,446,124.9z M463.8,128.9c0-2.6,0.3-5.1,0.9-7.6
	c9.2-29.3,59.6-90.1,79.7-103.6c4.2-2.8,10.2,1.7,7.8,6.2c-3.7,6.7-15.4,20.2-21.4,27.8h-6L542,33c0.5-0.5,0.5-1.2,0-1.7
	c0,0,0,0,0,0c-0.5-0.5-1.2-0.2-1.7,0.3c-9.9,11.2-36.8,38.5-56.5,70.4c-5,8.1-10.1,19.2-10.1,27c0,3.7,1.2,6.8,4.3,8.2
	c4.5,1.7,10.4-1.2,23-11c2.3-1.7,4.4-3.4,6.7-5.4c1.9-1.7,4.9-1.5,6.5,0.5s1.5,4.9-0.5,6.5l0,0c-2.2,2.1-4.6,4.1-7,5.9
	c-5.8,4.3-11,8.2-16,10.6c-3.2,1.7-6.8,2.7-10.4,2.8c-1.8,0-3.6-0.3-5.3-0.9C466.8,143.7,463.8,136.4,463.8,128.9L463.8,128.9z
	 M486.3,53.6h19.9c-2.6,2.9-5.1,6.2-8.1,9.3h-11.8c-2.6,0-4.7-2.1-4.7-4.7C481.8,55.8,483.8,53.7,486.3,53.6L486.3,53.6z
	 M519.3,65.1c-8.5,9.5-24.4,28.5-33.2,37.4c5.4-9.3,19.2-28.1,27.1-37.4H519.3z M547.3,53.8c2.5,0,4.6,2.1,4.6,4.6
	c0,2.5-2.1,4.6-4.6,4.6h-32.1c2.6-3.3,5.4-6.2,7.8-9.2H547.3z"/>
<path class="st1" d="M603.4,129.9c0-9,3.9-19.4,6.7-24.7c8.1-14,18.8-26.2,31.7-36c10.1-7.5,21.6-13.5,32-13.5c2.4,0,4.7,0.3,7,0.9
	c5.4,1.7,7.8,5.4,8.2,10.2c0,3.7-2.3,5.3-4.7,5.3c-2,0-3.9-1.1-4-3c-0.3-2-1.1-3.1-2.2-3.6c-1.5-0.4-3-0.7-4.5-0.6
	c-7.1,0-16.3,4-26.2,11.6c-11.8,8.8-22.7,21.2-29,33c-4.2,7.4-6,14.4-5.9,19.6c0,5.9,2.5,7.9,5.9,7.9c5.1,0,12.3-4.5,15.8-7
	c7.3-5.1,14.1-11,20.3-17.4c-2.7,5.5-4.4,11.3-5.1,17.4c-3.6,3-6.7,5.3-9.9,7.6c-6.8,4.8-14.4,8.8-21.4,8.8c-1.6,0-3.1-0.2-4.7-0.6
	C605.9,143.5,603.4,137.1,603.4,129.9z M651.2,132.5c0-21.1,31.5-55.4,38.8-62.2l4.7-4.2c4.2-3.4,12.9,2.2,7.8,8.1
	c-1.6,2.3-17.5,24.5-33.5,40.6c6.7-12.4,21.9-30.4,29.5-39.1c0.4-0.4,0.4-1,0-1.4c0-0.1-0.1-0.1-0.2-0.1c-0.4-0.4-1-0.4-1.4,0
	c-0.1,0-0.1,0.1-0.1,0.2c-13.8,16.3-34.9,40.2-36.1,57.2c-0.2,3.1,0.2,4.8,2.5,5.9c1.4,0.5,4.3,0.3,10.4-2.8
	c6.8-3.9,13.1-8.5,18.9-13.8c1.9-1.7,4.9-1.5,6.6,0.4c1.7,1.9,1.5,4.9-0.4,6.6l0,0c-9.8,8.2-23.4,19.4-33.8,19.4
	c-1.8,0-3.6-0.4-5.3-1.2C653.6,143,651.2,138.2,651.2,132.5L651.2,132.5z"/>
<path class="st1" d="M860.3,155.9c23.3-3.1,55.2-19.9,73.2-33.7c2.1-1.5,5.1-1.1,6.7,0.9c1.6,2,1.3,5-0.7,6.6c0,0,0,0,0,0
	c-14.3,11.9-41,26.7-55.8,30.7c-36.8,12.1-81.4,1.2-98.3,25.8c-3.1,4.5-4.5,8.7-4.5,12.4c0,8.8,7.8,14.7,17.7,14.7
	c4.4,0,8.8-1.1,12.7-3.1c14.3-7,30.2-22.6,45.8-42.2c4.6-0.5,9.1-1.2,13.7-2.2l-0.6,0.8c-17.8,23.1-36.8,43.4-54.6,52.1
	c-5.3,2.6-11.1,4.1-17.1,4.2c-15.4,0-27.2-10.4-27.2-24.5c0-5.9,2-12.6,6.8-19.2C794.9,155.8,826.8,160.9,860.3,155.9z M816.3,80.8
	C804,74.3,793.2,65.1,784.8,54c-1.5-2.2-1-5.2,1.1-6.8c2.1-1.6,5.2-1.2,6.8,0.9c6.2,8.7,16,17.2,28.1,24l1.1,0.6
	c-1.9,2.6-3.6,5.4-5.1,8.3L816.3,80.8z M804.5,123.6c0-8.4,2.2-17.8,6.4-27.3c7.1-17.2,24.5-40.3,38.9-53.5
	c19.7-18.6,46.4-35.1,67.3-35.1c6.7,0,12.9,1.7,18,5.6c5.4,3.9,8.5,10.1,8.4,16.8c0,2-0.2,4-0.6,5.9c-1.6,8.2-6.7,16.8-13.8,24.7
	c-14.1,15.5-37.7,29.3-62.4,30.9c-2.3,0.2-4.5,0.2-6.7,0.2c-9,0.1-18-1.1-26.7-3.6l-3.7-1.6c1.4-2.8,3.4-5.3,5.1-8.2
	c8,2.5,16.3,3.9,24.7,3.9c2.2,0,4.5-0.2,6.7-0.3c22-1.4,43.3-13.7,55.8-27.8c6.4-7.1,10.5-14.1,11.6-20c1.2-5.7,0-10.1-4.2-12.9
	c-3.7-2.6-8.2-3.9-12.7-3.7c-16.3,0-39.7,12.6-60.5,32.1c-12.6,12.4-29,33.8-36.5,50.4c-3.3,6.9-5,14.5-5.1,22.2
	c0,11.3,4.7,21.4,18.8,20.6c21.1-1.1,59.9-34.8,73.1-48.4c-4.7,7.8-14.4,21.1-16.9,25.8c-7.8,8.2-35.8,32.9-58.8,32.3
	C812.7,152,804.5,139.8,804.5,123.6L804.5,123.6z M870.6,149.9c12.1-14.6,28.7-39.9,38.9-55.4l0.2-0.2
	c12.7-18.1,23.7-33.3,32.1-41.4c3.3-3.3,10.1,0.3,9.5,4.5c-0.8,6.5-7.3,16.6-15.7,26.5c-5.3,6.4-7.8,8.4-14.9,14.9l24.5-35.1
	c0.5-0.6,0.5-1.2-0.2-1.4c-0.2-0.5-0.9-0.2-1.4,0.2c-22.2,31.5-41.3,58.5-59.1,84.6c-5,2-10.9,4.5-15.8,5.3L870.6,149.9z"/>
<path class="st1" d="M930.3,124.9c6.3-5.1,12.4-10.5,18.2-16.3c-1.5,4.8-2.3,9.8-2.3,14.9c-3.6,3.1-6.7,6-9.9,8.7
	c-2,1.6-4.8,1.3-6.4-0.7c0,0-0.1-0.1-0.1-0.1C928.1,129.4,928.4,126.5,930.3,124.9z M948.8,121.2c0-25,25-54.4,47.8-63.8
	c3.5-1.5,7.2-2.3,11-2.3c9.8,0,16.9,6.4,16.9,16.8c-0.1,2-0.3,4-0.8,6c-5.3,21.9-33.2,36.6-53.2,36.6c-3.3,0.1-6.5-0.4-9.6-1.4
	c1-3.1,2.3-6,3.9-8.8c1.9,0.5,3.9,0.7,5.9,0.6c11.2,0,25.4-6.2,34.4-14.1c4.5-3.9,10.1-11.9,10.1-18.5c0.1-1.9-0.5-3.8-1.7-5.3
	c-0.9-1.2-3-1.9-5.7-1.9c-4.1,0.2-8.1,1.2-11.8,2.9c-14.1,6.8-31,25.9-36,40.7c-1.2,3.4-1.8,7.1-1.9,10.7c0,10.7,6,19.7,19.2,19.1
	c8.5-0.5,18.2-4.2,26.2-10.4c2.9-2.3,5.7-4.7,8.8-7.3c1.8-1.8,4.7-1.8,6.5,0.1s1.8,4.7-0.1,6.5c-0.1,0.1-0.3,0.3-0.5,0.4
	c-2.9,2.7-6.1,5.3-9.3,7.6c-9.3,7.3-20.8,11.9-31.3,12.4s-21.9-3.1-26.4-13.6C949.6,130.1,948.7,125.6,948.8,121.2z"/>
<path class="st1" d="M1007.9,125c10.7-8.7,22-19.9,32.4-30.4c1.7-1.9,6.7-7.9,12.7-14.9c-9.9,14.3-19.5,29.3-28.2,43
	c-3.7,3.3-7.5,6.5-11,9.5c-1.9,1.6-4.8,1.4-6.4-0.5c0,0-0.1-0.1-0.1-0.1C1005.6,129.6,1005.9,126.6,1007.9,125z M1096,101.4
	c6.8-7.9,13.7-14.7,18.5-21.4c2-2.5,3.6-5.2,4.8-8.1c1.4-4.3-1.6-5.4-5-5.4c-2.2,0-4.4,0.4-6.5,1.1c-31,9.8-66.4,48.6-82.1,76.5
	c-0.7,1.4-2.2,2.4-3.9,2.3c-3.1,0-6-2.9-4.3-6.7c16.9-29,34.8-57.7,51.4-78.7c2.9-3.7,5.6-7.3,9.9-5c1.5,1,2.3,2.7,2,4.5
	c-0.8,2.8-3.1,5.4-5,7.9l-7,9.2c-10.4,8.9-20.1,18.6-29,29c-0.4,0.4-0.4,1,0,1.4c0.1,0.1,0.1,0.1,0.2,0.1c0.5,0.5,0.9,0.3,1.4-0.2
	c16.8-19.7,39.7-41.9,63.6-49.3c2.7-0.9,5.5-1.4,8.4-1.4c8.4,0,15.7,4.2,15.7,12.1c0,2-0.4,3.9-1.1,5.7c-1.2,3.6-3.4,6.8-6.1,10.4
	c-5.1,6.8-12.2,14.6-18.9,21.9c-6.8,7.9-12.4,14.6-14.9,20.3c-0.7,1.6-1.1,3.3-1.2,5c0,3.2,2,4.6,5,4.6c2.7-0.2,5.3-1,7.6-2.3
	c5.4-2.9,11.9-8.1,19.2-14.3c1.9-1.6,4.8-1.4,6.5,0.5c1.7,1.9,1.5,4.9-0.4,6.6c0,0,0,0-0.1,0c-7.3,6.4-14.4,11.8-20.8,15.4
	c-3.7,2.2-7.8,3.5-12.1,3.6c-8.4,0-14.4-5.6-14.4-13.8c0-3.1,0.8-6.2,2.2-9C1082.8,116.8,1089.3,108.9,1096,101.4L1096,101.4z"/>
<path class="st1" d="M1115.5,123.3c15.3-12.9,32.4-30.7,62.7-63c0.4,3.5,1.8,6.8,4,9.5l-4.3,4.7c-23.1,24.3-40.6,42.8-56.3,56
	c-2,1.7-4.9,1.5-6.7-0.5C1113.2,128,1113.5,125,1115.5,123.3C1115.5,123.4,1115.5,123.3,1115.5,123.3z M1210.8,71.1
	c1.7,2,0.8,5.4-1.2,6.8c-10.6,7.4-19.8,16.6-27.2,27.3c-6.5,9.5-11.8,19.4-11.8,25.8c0,2.6,0.9,4.6,3,5.7s5.4,0.9,10.9-2
	c6.8-3.9,13.1-8.5,18.9-13.8c1.9-1.7,4.9-1.5,6.6,0.4s1.5,4.9-0.4,6.6c-9.9,8.5-23.3,19.1-34,19.1c-1.7,0-3.5-0.3-5.1-0.9
	c-6.7-2.6-9.2-8.8-9.2-15.2c0.1-3.5,0.7-6.9,1.9-10.2c3.1-9.3,10.2-18.9,17.7-27.8c5-5.7,13.5-15.5,24-22.8
	C1207.2,68.9,1209.4,69,1210.8,71.1z M1193.1,76.6c-6.7-3.6-11.5-9.8-12.6-15.5c-1.7-8.7,5.4-14,9.8-15.2c4.5-1.7,8.7,2,7,5.9
	c-1.2,3.1-4.8,5.9-6.2,7.6c-1.7-2-1.7-3.3-1.6-5.7c0.1-0.6-0.3-1.1-0.9-1.2c0,0,0,0-0.1,0c-0.6-0.2-1.1,0.2-1.2,0.9
	c-0.5,8.2,7,15.4,14.3,16.6C1198.6,71.9,1195.7,74.2,1193.1,76.6L1193.1,76.6z"/>
<path class="st1" d="M1198.7,124.9c6.3-5.1,12.4-10.5,18.1-16.3c-1.5,4.8-2.3,9.8-2.3,14.9c-3.6,3.1-6.7,6-9.9,8.7
	c-2,1.6-4.8,1.3-6.4-0.7c0,0-0.1-0.1-0.1-0.1C1196.4,129.4,1196.7,126.5,1198.7,124.9z M1217.1,121.2c0-25,25-54.5,47.8-63.8
	c3.5-1.5,7.2-2.3,11-2.3c9.8,0,16.9,6.4,16.9,16.8c-0.1,2-0.3,4-0.8,6c-5.3,21.9-33.2,36.6-53.2,36.6c-3.3,0.1-6.5-0.4-9.6-1.4
	c1-3.1,2.3-6,3.9-8.8c1.9,0.5,3.9,0.7,5.9,0.6c11.2,0,25.4-6.2,34.4-14.1c4.5-3.9,10.1-11.9,10.1-18.5c0.1-1.9-0.6-3.8-1.7-5.2
	c-0.9-1.2-3-1.9-5.7-1.9c-4.1,0.2-8.1,1.2-11.8,2.9c-14.1,6.8-31,25.9-36,40.7c-1.2,3.4-1.8,7.1-1.9,10.7c0,10.7,6,19.7,19.2,19.1
	c8.5-0.5,18.2-4.2,26.2-10.4c3-2.3,5.7-4.7,8.8-7.3c1.8-1.8,4.7-1.8,6.5,0.1s1.8,4.7-0.1,6.5c-0.1,0.1-0.3,0.3-0.5,0.4
	c-2.9,2.7-6.1,5.3-9.3,7.6c-9.3,7.3-20.8,11.9-31.3,12.4s-21.9-3.1-26.4-13.6C1217.9,130.1,1217,125.6,1217.1,121.2z"/>
</svg>
