<?xml version="1.0" encoding="utf-8"?>
<!-- Generator: Adobe Illustrator 25.2.1, SVG Export Plug-In . SVG Version: 6.00 Build 0)  -->
<svg version="1.1" id="Layer_1" xmlns="http://www.w3.org/2000/svg" xmlns:xlink="http://www.w3.org/1999/xlink" x="0px" y="0px"
	 viewBox="0 0 600 180" style="enable-background:new 0 0 600 180;" xml:space="preserve">
<style type="text/css">
	.st0{fill:#FFFFFF;}
	.st1{fill:#B3B3B3;}
	.st2{fill:#787878;}
	.st3{fill:#FFF5DB;}
	.st4{fill:#546111;}
	.st5{fill:#F27F49;}
	.st6{fill:#D62448;}
</style>
<g>
	<g>
		<path class="st0" d="M576.8,169l-553.6,0.1c-6.8,0-12.4-5.6-12.4-12.5l0-133.2c0-6.9,5.5-12.5,12.4-12.5l553.6-0.1
			c6.8,0,12.4,5.6,12.4,12.5l0,133.2C589.2,163.5,583.7,169,576.8,169z"/>
	</g>
	<g>
		<g>
			<polygon class="st1" points="24.5,24.4 4.2,11.8 25.8,22 			"/>
		</g>
		<g>
			<polygon class="st1" points="573.9,22.1 592.7,7.8 575.6,24.2 			"/>
		</g>
		<g>
			<polygon class="st1" points="575.5,155.1 593.3,171.2 573.8,157.2 			"/>
		</g>
		<g>
			<polygon class="st1" points="26.1,157.5 4.7,169.6 24.6,155.2 			"/>
		</g>
	</g>
	<g>
		<path class="st2" d="M10.8,22.5C11.3,16.1,16.6,11,23.2,11l553.6-0.1c6.8,0,12.4,5.6,12.4,12.5l0,133.2c0,0.3,0,0.6,0,0.9
			c-0.5,6.5-5.8,11.6-12.4,11.6l-553.6,0.1c-6.8,0-12.4-5.6-12.4-12.5l0-133.2C10.8,23.1,10.8,22.8,10.8,22.5 M0.1,21.7L0.1,21.7
			C0,22.3,0,22.9,0,23.4l0,133.2c0,6.2,2.4,12.1,6.8,16.5c4.4,4.4,10.2,6.8,16.4,6.8l553.6-0.1c12.1,0,22.2-9.5,23.1-21.6
			c0-0.6,0.1-1.1,0.1-1.7l0-133.2c0-6.2-2.4-12.1-6.8-16.5C588.8,2.4,583,0,576.8,0L23.2,0.1C11.1,0.1,0.9,9.6,0.1,21.7L0.1,21.7z"
			/>
	</g>
	<g>
		<g>
			<path class="st1" d="M25.3,26c0.1-1.5,1.4-2.7,2.9-2.7l543.7-0.1c1.6,0,2.9,1.3,2.9,2.9l0,127.2c0,0.1,0,0.1,0,0.2
				c-0.1,1.5-1.4,2.7-2.9,2.7l-543.7,0.1c-1.6,0-2.9-1.3-2.9-2.9l0-127.2C25.3,26.1,25.3,26,25.3,26 M22.6,25.8c0,0.1,0,0.3,0,0.4
				l0,127.2c0,1.5,0.6,2.9,1.6,4c1.1,1.1,2.5,1.7,4,1.7l543.7-0.1c2.9,0,5.4-2.3,5.6-5.2c0-0.1,0-0.3,0-0.4l0-127.2
				c0-3.1-2.5-5.6-5.6-5.6L28.2,20.5C25.3,20.5,22.8,22.8,22.6,25.8L22.6,25.8z"/>
		</g>
	</g>
</g>
<g>
	<g>
		<g>
			<path class="st3" d="M557.1,111.4c-1.1,15.4-14,27.4-29.4,27.3l-36.9-0.4c-7.8-0.1-15.1-3.2-20.5-8.8c-5.5-5.6-8.5-13-8.4-20.8
				l0.3-37.1c0-0.6,0-1.2,0.1-1.9c1.1-15.4,14-27.4,29.4-27.3l36.9,0.4c7.8,0.1,15.1,3.2,20.5,8.8c5.5,5.6,8.5,13,8.4,20.8
				l-0.3,37.1C557.2,110.2,557.2,110.8,557.1,111.4z"/>
		</g>
		<g>
			<path d="M464.2,69.8c1-14.4,13.1-25.7,27.6-25.6l36.9,0.4c15.1,0.1,27.3,12.7,27.1,27.9l-0.3,37.1c0,0.6,0,1.2-0.1,1.7
				c-1,14.4-13.1,25.7-27.6,25.6l-36.9-0.4c-15.1-0.1-27.3-12.7-27.1-27.9l0.3-37.1C464.1,71,464.1,70.4,464.2,69.8 M460.6,69.6
				L460.6,69.6c0,0.7-0.1,1.3-0.1,2l-0.3,37.1c-0.1,8.3,3.1,16.2,8.9,22.1c5.8,6,13.6,9.3,21.8,9.4l36.9,0.4
				c16.3,0.2,30-12.6,31.2-28.9c0-0.7,0.1-1.3,0.1-2l0.3-37.1c0.1-8.3-3.1-16.2-8.9-22.1s-13.6-9.3-21.8-9.4l-36.9-0.4
				C475.5,40.5,461.8,53.2,460.6,69.6L460.6,69.6z"/>
		</g>
	</g>
	<g>
		<g>
			<path class="st4" d="M536.6,72.1l-0.3,37.4c0,4.6-3.8,8.3-8.3,8.3l-37.1-0.3c-4.6,0-8.2-3.8-8.2-8.4l0.3-37.4
				c0-4.6,3.8-8.3,8.3-8.3l37.1,0.3C533,63.7,536.7,67.5,536.6,72.1z"/>
		</g>
		<g>
			<path class="st5" d="M536.7,88.8l-0.1,20.5c0,4.7-3.9,8.5-8.5,8.5l-9.5-0.1c-4.7,0-8.4-3.9-8.4-8.6l0.1-20.5
				c0-4.7,3.9-8.5,8.5-8.5l9.5,0.1C532.9,80.2,536.7,84.1,536.7,88.8z"/>
		</g>
		<g>
			<path class="st6" d="M536.8,72.3l-0.1,9.4c0,4.7-3.9,8.5-8.5,8.5L505.6,90c-4.7,0-8.4-3.9-8.4-8.6l0.1-9.4c0-4.7,3.9-8.5,8.5-8.5
				l22.6,0.2C533,63.7,536.8,67.6,536.8,72.3z"/>
		</g>
		<g>
			<path class="st6" d="M514.2,69.6l-0.1,14.5c0,3.3-2.7,6-6,5.9L498,89.9c-8.3-0.1-15-6.9-15-15.3l0-5.3c0-3.3,2.7-6,6-5.9
				l19.3,0.1C511.6,63.6,514.2,66.3,514.2,69.6z"/>
		</g>
		<g>
			<path class="st5" d="M536.7,77l-0.2,29.4l-26.4-0.2l0.1-15.6c0.1-7.6,6.2-13.7,13.8-13.7L536.7,77z"/>
		</g>
	</g>
<animateTransform id="sushi"
	attributeName="transform"
	attributeType="XML"
	type="rotate" 
	from="0 510 90"
	to="360 510 90"
	begin="0s"
	dur="4s"
	repeatCount="indefinite"	/>
</g>
<g>
	<g>
		<g>
			<path class="st3" d="M417.3,111.1c-1.1,15.4-14,27.4-29.4,27.3L351,138c-7.8-0.1-15.1-3.2-20.5-8.8c-5.5-5.6-8.5-13-8.4-20.8
				l0.3-37.1c0-0.6,0-1.2,0.1-1.9c1.1-15.4,14-27.4,29.4-27.3l36.9,0.4c7.8,0.1,15.1,3.2,20.5,8.8s8.5,13,8.4,20.8l-0.3,37.1
				C417.4,109.8,417.3,110.4,417.3,111.1z"/>
		</g>
		<g>
			<path d="M324.3,69.5c1-14.4,13.1-25.7,27.6-25.6l36.9,0.4c15.1,0.1,27.3,12.7,27.1,27.9l-0.3,37.1c0,0.6,0,1.2-0.1,1.7
				c-1,14.4-13.1,25.7-27.6,25.6l-36.9-0.4c-15.1-0.1-27.3-12.7-27.1-27.9l0.3-37.1C324.3,70.6,324.3,70,324.3,69.5 M320.7,69.2
				L320.7,69.2c0,0.7-0.1,1.3-0.1,2l-0.3,37.1c-0.1,8.3,3.1,16.2,8.9,22.1c5.8,6,13.6,9.3,21.8,9.4l36.9,0.4
				c16.3,0.2,30-12.6,31.2-28.9c0-0.7,0.1-1.3,0.1-2l0.3-37.1c0.1-8.3-3.1-16.2-8.9-22.1c-5.8-6-13.6-9.3-21.8-9.4L352,40.2
				C335.6,40.1,321.9,52.8,320.7,69.2L320.7,69.2z"/>
		</g>
	</g>
	<g>
		<g>
			<path class="st4" d="M396.8,71.7l-0.3,37.4c0,4.6-3.8,8.3-8.3,8.3l-37.1-0.3c-4.6,0-8.2-3.8-8.2-8.4l0.3-37.4
				c0-4.6,3.8-8.3,8.3-8.3l37.1,0.3C393.2,63.3,396.9,67.1,396.8,71.7z"/>
		</g>
		<g>
			<path class="st5" d="M396.8,88.4l-0.1,20.5c0,4.7-3.9,8.5-8.5,8.5l-9.5-0.1c-4.7,0-8.4-3.9-8.4-8.6l0.1-20.5
				c0-4.7,3.9-8.5,8.5-8.5l9.5,0.1C393.1,79.8,396.9,83.7,396.8,88.4z"/>
		</g>
		<g>
			<path class="st6" d="M396.9,71.9l-0.1,9.4c0,4.7-3.9,8.5-8.5,8.5l-22.6-0.2c-4.7,0-8.4-3.9-8.4-8.6l0.1-9.4
				c0-4.7,3.9-8.5,8.5-8.5l22.6,0.2C393.2,63.3,397,67.2,396.9,71.9z"/>
		</g>
		<g>
			<path class="st6" d="M374.4,69.2l-0.1,14.5c0,3.3-2.7,6-6,5.9l-10.1-0.1c-8.3-0.1-15-6.9-15-15.3l0-5.3c0-3.3,2.7-6,6-5.9
				l19.3,0.1C371.7,63.2,374.4,65.9,374.4,69.2z"/>
		</g>
		<g>
			<path class="st5" d="M396.9,76.6l-0.2,29.4l-26.4-0.2l0.1-15.6c0.1-7.6,6.2-13.7,13.8-13.7L396.9,76.6z"/>
		</g>
	</g>
<animateTransform id="sushi"
	attributeName="transform"
	attributeType="XML"
	type="rotate" 
	from="0 370 90"
	to="360 370 90"
	begin="0s"
	dur="4s"
	repeatCount="indefinite"	/>
</g>
<g>
	<g>
		<g>
			<path class="st3" d="M277.5,110.7c-1.1,15.4-14,27.4-29.4,27.3l-36.9-0.4c-7.8-0.1-15.1-3.2-20.5-8.8c-5.5-5.6-8.5-13-8.4-20.8
				l0.3-37.1c0-0.6,0-1.2,0.1-1.9c1.1-15.4,14-27.4,29.4-27.3L249,42c7.8,0.1,15.1,3.2,20.5,8.8s8.5,13,8.4,20.8l-0.3,37.1
				C277.5,109.4,277.5,110.1,277.5,110.7z"/>
		</g>
		<g>
			<path d="M184.5,69.1c1-14.4,13.1-25.7,27.6-25.6l36.9,0.4c15.1,0.1,27.3,12.7,27.1,27.9l-0.3,37.1c0,0.6,0,1.2-0.1,1.7
				c-1,14.4-13.1,25.7-27.6,25.6l-36.9-0.4c-15.1-0.1-27.3-12.7-27.1-27.9l0.3-37.1C184.4,70.2,184.5,69.6,184.5,69.1 M180.9,68.8
				L180.9,68.8c0,0.7-0.1,1.3-0.1,2l-0.3,37.1c-0.2,17.2,13.6,31.3,30.7,31.5l36.9,0.4c16.3,0.2,30-12.6,31.2-28.9
				c0-0.7,0.1-1.3,0.1-2l0.3-37.1c0.2-17.2-13.6-31.3-30.7-31.5l-36.9-0.4C195.8,39.7,182.1,52.4,180.9,68.8L180.9,68.8z"/>
		</g>
	</g>
	<g>
		<g>
			<path class="st4" d="M257,71.3l-0.3,37.4c0,4.6-3.8,8.3-8.3,8.3l-37.1-0.3c-4.6,0-8.2-3.8-8.2-8.4l0.3-37.4
				c0-4.6,3.8-8.3,8.3-8.3l37.1,0.3C253.4,63,257,66.7,257,71.3z"/>
		</g>
		<g>
			<path class="st5" d="M257,88l-0.1,20.5c0,4.7-3.9,8.5-8.5,8.5l-9.5-0.1c-4.7,0-8.4-3.9-8.4-8.6l0.1-20.5c0-4.7,3.9-8.5,8.5-8.5
				l9.5,0.1C253.3,79.4,257,83.3,257,88z"/>
		</g>
		<g>
			<path class="st6" d="M257.1,71.5l-0.1,9.4c0,4.7-3.9,8.5-8.5,8.5l-22.6-0.2c-4.7,0-8.4-3.9-8.4-8.6l0.1-9.4
				c0-4.7,3.9-8.5,8.5-8.5l22.6,0.2C253.4,63,257.1,66.8,257.1,71.5z"/>
		</g>
		<g>
			<path class="st6" d="M234.5,68.8l-0.1,14.5c0,3.3-2.7,6-6,5.9l-10.1-0.1c-8.3-0.1-15-6.9-15-15.3l0-5.3c0-3.3,2.7-6,6-5.9
				l19.3,0.1C231.9,62.8,234.6,65.5,234.5,68.8z"/>
		</g>
		<g>
			<path class="st5" d="M257.1,76.2l-0.2,29.4l-26.4-0.2l0.1-15.6c0.1-7.6,6.2-13.7,13.8-13.7L257.1,76.2z"/>
		</g>
	</g>
	<animateTransform id="sushi"
	attributeName="transform"
	attributeType="XML"
	type="rotate" 
	from="0 230 90"
	to="360 230 90"
	begin="0s"
	dur="4s"
	repeatCount="indefinite"	/>
</g>
<g>
	<g>
		<g>
			<path class="st3" d="M137.6,110.3c-1.1,15.4-14,27.4-29.4,27.3l-36.9-0.4c-7.8-0.1-15.1-3.2-20.5-8.8c-5.5-5.6-8.5-13-8.4-20.8
				l0.3-37.1c0-0.6,0-1.2,0.1-1.9c1.1-15.4,14-27.4,29.4-27.3l36.9,0.4c7.8,0.1,15.1,3.2,20.5,8.8c5.5,5.6,8.5,13,8.4,20.8
				l-0.3,37.1C137.7,109.1,137.7,109.7,137.6,110.3z"/>
		</g>
		<g>
			<path d="M44.7,68.7c1-14.4,13.1-25.7,27.6-25.6l36.9,0.4c15.1,0.1,27.3,12.7,27.1,27.9l-0.3,37.1c0,0.6,0,1.2-0.1,1.7
				c-1,14.4-13.1,25.7-27.6,25.6l-36.9-0.4c-15.1-0.1-27.3-12.7-27.1-27.9l0.3-37.1C44.6,69.8,44.6,69.3,44.7,68.7 M41.1,68.4
				L41.1,68.4c0,0.7-0.1,1.3-0.1,2l-0.3,37.1c-0.2,17.2,13.6,31.3,30.7,31.5l36.9,0.4c16.3,0.2,30-12.6,31.2-28.9
				c0-0.7,0.1-1.3,0.1-2l0.3-37.1c0.1-8.3-3.1-16.2-8.9-22.1c-5.8-6-13.6-9.3-21.8-9.4l-36.9-0.4C56,39.3,42.3,52,41.1,68.4
				L41.1,68.4z"/>
		</g>
	</g>
	<g>
		<g>
			<path class="st4" d="M117.2,70.9l-0.3,37.4c0,4.6-3.8,8.3-8.3,8.3l-37.1-0.3c-4.6,0-8.2-3.8-8.2-8.4l0.3-37.4
				c0-4.6,3.8-8.3,8.3-8.3l37.1,0.3C113.5,62.6,117.2,66.3,117.2,70.9z"/>
		</g>
		<g>
			<path class="st5" d="M117.2,87.6l-0.1,20.5c0,4.7-3.9,8.5-8.5,8.5l-9.5-0.1c-4.7,0-8.4-3.9-8.4-8.6l0.1-20.5
				c0-4.7,3.9-8.5,8.5-8.5l9.5,0.1C113.4,79.1,117.2,82.9,117.2,87.6z"/>
		</g>
		<g>
			<path class="st6" d="M117.3,71.1l-0.1,9.4c0,4.7-3.9,8.5-8.5,8.5l-22.6-0.2c-4.7,0-8.4-3.9-8.4-8.6l0.1-9.4
				c0-4.7,3.9-8.5,8.5-8.5l22.6,0.2C113.6,62.6,117.3,66.4,117.3,71.1z"/>
		</g>
		<g>
			<path class="st6" d="M94.7,68.4l-0.1,14.5c0,3.3-2.7,6-6,5.9l-10.1-0.1c-8.3-0.1-15-6.9-15-15.3l0-5.3c0-3.3,2.7-6,6-5.9
				l19.3,0.1C92.1,62.4,94.7,65.1,94.7,68.4z"/>
		</g>
		<g>
			<path class="st5" d="M117.3,75.8l-0.2,29.4L90.6,105l0.1-15.6c0.1-7.6,6.2-13.7,13.8-13.7L117.3,75.8z"/>
		</g>
	</g>
	<animateTransform id="sushi"
	attributeName="transform"
	attributeType="XML"
	type="rotate" 
	from="0 90 90"
	to="360 90 90"
	begin="0s"
	dur="4s"
	repeatCount="indefinite"	/>
</g>
</svg>
