<?xml version="1.0" encoding="utf-8"?>
<!-- Generator: Adobe Illustrator 25.2.1, SVG Export Plug-In . SVG Version: 6.00 Build 0)  -->
<svg version="1.1" id="Layer_1" xmlns="http://www.w3.org/2000/svg" xmlns:xlink="http://www.w3.org/1999/xlink" x="0px" y="0px"
	 viewBox="0 0 1329.7 232.1" style="enable-background:new 0 0 1329.7 232.1;" xml:space="preserve">
<style type="text/css">
	.st0{fill:#BF4B1D;}
	.st1{fill:#FFFFFF;}
</style>
<path class="st0" d="M10.2,157.9C3.1,153,0,145.5,0,136.3C0,112.9,23.1,78,37.6,62.4c28.7-31,65.7-52.8,98.1-52.8
	c2.8,0,5.6,0.2,8.3,0.6c13.2,2.3,22.4,8.2,28.3,16.2l7.5,7.5c8.2,8.2,11.9,19.9,11.9,32.7c-0.1,7.9-1.3,15.8-3.6,23.4V90
	c-3.5,11.7-10.4,24.2-18.7,35.1l7.6,7.5c1.9,2,3,4.7,2.9,7.5c0,3-1.2,5.9-3.4,8c-1.3,1-3.8,3.1-4.7,4c-5.9,3.9-17.4,9.2-26.1,9.4
	c-4.9,0.1-9.9-0.4-14.7-1.6c-11.7,5.3-21.5,8.5-28.1,8.5c-2.3,0-4.6-0.2-6.9-0.6c-8-1.6-14.2-4.5-18.4-8.8l-4.1-4.1
	c-11.7,8.9-27.1,18.4-38.5,18.4c-2.9,0.1-5.7-0.5-8.3-1.6c-2.9-1.2-5.5-2.9-7.8-5.1L10.2,157.9z M106.4,57.8
	c-15.3,9.3-29.1,20.6-41.3,33.7c-11.1,12.6-20.9,28-26.3,40.5c7.5-5.2,14.5-11.1,20.9-17.6C72.5,101.3,90.5,79.3,106.4,57.8z
	 M108.3,119.2l5.1,2.8c17-12.9,35-34.1,41.1-49.8c1.6-5.2,2.4-10.5,2.5-16c0-1.2-0.1-2.2-0.1-3.4c-0.3,1.2-0.8,2.3-1.5,3.4
	C142.7,75.7,124.9,99.2,108.3,119.2z"/>
<path class="st0" d="M147.3,136.4c-1.8-2.1-2.8-4.7-2.8-7.5c0-3.5,1.6-6.8,4.2-9.1c12.6-10.8,30.9-29.4,58.8-59.1
	c1.8-8,8.6-13.5,13.6-15.1v-0.2c1.5-0.6,3.2-0.9,4.8-0.9c4.4,0,8.4,2.4,10.5,6.3l9.2,9.2c2.9,3,4.1,7.2,3.1,11.3l0.4,0.4l-0.1,0.2
	l9.9,10c0.6,0.6,1.2,1.2,1.6,1.9l-0.3-0.3c1.4,1.8,2.2,4.1,2.2,6.4c0.1,3.9-1.7,7.6-4.8,10h-0.1c-6.1,4.3-11.7,9.3-16.7,14.9
	c2.7,0.3,5.2,1.6,7,3.7c0.6,0.7,1.1,1.4,1.6,2.2l9.8,9.8c1.8,2,2.8,4.6,2.8,7.3c0,3.3-1.4,6.5-3.8,8.8
	c-10.2,8.8-24.1,19.6-36.6,19.6c-2.5-0.1-5-0.5-7.3-1.3c-2.5-1.1-4.8-2.6-6.7-4.5c-14.3-12.1-17.4-18.1-18.1-24.4
	c-5.1,4.8-9.9,9.4-14.3,13.2c-2.1,1.6-4.7,2.5-7.3,2.5c-3.1,0-6.1-1.2-8.4-3.4l-9.2-9.2c-1.2-0.6-2.2-1.5-3.1-2.5L147.3,136.4z"/>
<path class="st0" d="M222.8,130.4c0.1-3.4,1.6-6.7,4.2-8.9c5.3-4.5,12.9-11.3,18.6-16.7c5.3-9.4,11.7-16.7,22.4-22.4
	c8-13.8,21.5-26.6,36-28.1c10.4-0.7,18.1,3.4,22.7,10l8.9,8.7c4.5,4.8,6.9,11.2,6.7,17.7c0,1.5-0.1,2.9-0.3,4.4l0.1,0.1
	c-1.3,8.9-5.6,18.3-11.1,27.2l7.3,7.2c2.3,2.4,3.5,5.5,3.5,8.8c0,3.5-1.6,6.8-4.2,9.1c-8.5,7.5-19.5,12-30.6,12
	c-3.5,0-6.9-0.4-10.2-1.3c-9.1,5.1-16.8,8.4-22.2,8.4c-2.9,0-5.9-0.5-8.6-1.5c-2.7-1.1-5.2-2.7-7.3-4.8l-7.8-7.8
	c-1.4,0.7-3.1,1.1-4.7,1.2c-2.9,0-5.7-1.3-7.8-3.4l-9.4-9.4c-1.3-0.8-2.4-1.8-3.4-2.9C223.9,135.8,222.9,133.2,222.8,130.4z"/>
<path class="st0" d="M390.1,56.4h0.1l4.5,4.6c1.9-0.7,3.8-1.3,5.7-1.9c2-0.5,4.1-0.8,6.1-0.9c4.8,0,9.4,1.6,13,4.7
	c1.8,1.5,3.3,3.3,4.5,5.3l8.2,8.1c4.2,4.2,6.1,9.7,6.1,15.8c0,9.2-5,20.6-11.3,31.2l7.6,7.5c1.8,2.1,2.8,4.8,2.8,7.6
	c0.1,3.2-1.3,6.3-3.8,8.3h0.2c-7.6,6.9-15.8,11.4-26,12.7c-2.7,0.3-5.3,0.5-8,0.4c-2.2,0-4.4-0.1-6.6-0.4
	c-10.8,5.6-19.5,8.4-25.5,7.5c-4.2-0.6-8.1-2.6-11.1-5.6l-5.4-5.4c-2.9,3.7-5.7,7.3-8.3,10.8c-11.2,15-21.2,30.9-29.9,47.4L313,214
	c-1.7,3.9-5.6,6.4-9.8,6.3c-3.1,0-6.1-1.3-8.3-3.5l-9.2-9.2c-3.7-2-6-5.8-6-9.9c0-1.8,0.4-3.6,1.2-5.3v-0.1
	c8.9-17.9,18.7-34.8,29-51.1l-0.4-0.4c-1.3-0.7-2.4-1.7-3.4-2.8c-1.8-2.1-2.9-4.7-2.9-7.5c0-3.5,1.7-6.8,4.4-8.9
	c10.2-8.6,19.9-17.8,29-27.5l0.9-0.9l16.7-18c7.2-9.8,13.5-17.4,17.9-21.5c2.1-2.2,5-3.6,8-3.7C384.3,50.1,388.2,52.5,390.1,56.4z"
	/>
<path class="st0" d="M522.7,52.4h18c12.6-14.6,24.9-27.1,32.8-32.6c1.9-1.3,4.2-2,6.5-2.1c4.6,0.1,8.8,2.5,11.1,6.4l9.5,9.5
	c2.1,2.1,3.3,4.9,3.4,7.9c0,1.8-0.5,3.5-1.3,5.1c-3,4.9-6.4,9.6-10.1,14.1l7.4,7.3c2.1,2,3.2,4.8,3.2,7.8
	c0.2,6.1-4.7,11.1-10.7,11.3c-0.2,0-0.3,0-0.5,0h-21.6l-24.2,27.5c3.2,0.2,6.1,1.6,8.2,4c0.6,0.7,1.1,1.4,1.6,2.2l9.8,9.8
	c1.8,2,2.8,4.6,2.8,7.3c0,3.4-1.4,6.6-4,8.8c-1.8,1.8-3.7,3.4-5.7,5l-1.5,1c-5.9,4.4-11.4,8.4-16,10.5l-0.1-0.1
	c-3.9,2.1-8.2,3.3-12.6,3.4c-2.4,0-4.9-0.4-7.2-1.2l-0.2-0.1c-3.3-1-6.3-2.7-8.8-5.1l-8-8.1c-1.6,1-3.4,1.5-5.3,1.5
	c-3.1,0-6-1.2-8.2-3.4l-9.3-9.3c-1.3-0.7-2.4-1.7-3.4-2.8c-1.9-2-3-4.7-2.9-7.5c0-3.5,1.5-6.8,4.1-9.1c7.2-5.8,17.7-15.8,27.2-23.9
	c3.8-6.3,8.3-12.9,13.3-19.6l-3.4-3.7c-3.8-2-6.1-6-6-10.2C511.1,57.7,516.3,52.5,522.7,52.4z"/>
<path class="st0" d="M529.3,130.3c0-3.4,1.5-6.7,4.1-8.9c10.4-8.2,21.7-20.2,44.3-40.4c19.6-27.7,39.4-52.7,53.1-62.8
	c1.9-1.4,4.3-2.2,6.7-2.1c4.7,0,9,2.6,11.1,6.7l9.2,9c2.1,2,3.3,4.7,3.4,7.6c0,1.9-0.5,3.8-1.5,5.4c-2.5,4.2-5.4,8.3-8.5,12.2
	c2.6,1.2,4.7,3.1,6.3,5.4l9.7,9.5c2.5,2.5,4.1,5.8,4.6,9.4c1.8,9.1-4.5,17.3-9.2,24c-2.6,3.4-5.8,7.3-9.1,11
	c1.1,0.7,2.1,1.4,2.9,2.3c0.6,0.7,1.1,1.4,1.6,2.2l9.8,9.8c1.8,2,2.8,4.6,2.8,7.3c0,3.3-1.4,6.5-3.8,8.8c-3.4,2.8-7,5.6-10.1,7.9
	c-5.4,4.1-11.4,8.1-17.4,10c-2.8,0.9-5.8,1.4-8.8,1.5c-6.3,0-11.4-2.1-15.1-5.7l-8.9-8.9c-5.7-3.7-8.9-9.9-8.9-17.7
	c0-2,0.2-3.9,0.6-5.8c-10.5,11-19.6,22.4-25.6,32.2c-1.9,3.6-5.6,5.8-9.7,5.7c-3,0-5.9-1.2-8-3.4c-12.4-11.1-14.5-13.9-15.2-17.1
	l-4.5-4.7c-1.2-0.8-2.3-1.7-3.2-2.8C530.2,135.7,529.2,133.1,529.3,130.3z"/>
<path class="st0" d="M637.6,140.8c-1.3-0.7-2.4-1.7-3.4-2.8c-1.9-2.1-3-4.8-2.9-7.6c0-3.5,1.5-6.8,4.1-9.1
	c5.3-4.1,11.6-10.1,18.9-17.1c8.2-20.6,27.5-40.4,45.7-47.9c4.2-1.7,8.7-2.6,13.2-2.6c8.3,0,15.4,3.5,19.5,9.5l8.9,8.9
	c4,4,6.2,9.5,6.2,16.4c0,2.5-0.3,4.9-0.9,7.3c-2.3,9.5-8.5,17.7-16.4,24.3c0.2,0.3,0.4,0.5,0.6,0.9l9.7,9.5c1.8,2,2.8,4.6,2.8,7.3
	c0,3.4-1.5,6.6-4,8.8c-2.8,2.7-5.9,5.2-9.1,7.5c-10,7.6-22.1,12.6-33.4,13c-9.2,0.4-19-1.9-25.8-8.6l-8.2-8.3
	c-0.1-0.1-0.2-0.1-0.3-0.1l-0.6,0.4l0.2,0.1c-2,1.8-4.5,2.8-7.2,2.8c-3.1,0-6-1.2-8.2-3.4L637.6,140.8z"/>
<path class="st0" d="M783.6,122.2c0-18.2,13.8-38.1,39.2-50.2c16-7.5,35.9-10.4,56.1-10.4c14.9,0.1,29.7,1.2,44.5,3.1
	c4.1,0.4,9.1,1,13,1.6l1.9,0.4l12.2-10.1c19.2-16,40.4-33.4,55.9-43.2c11.9-7.3,23.9-13.5,34.6-13.5c5.4,0,10.6,1.9,14.8,5.3
	c0.9,0.9,1.7,2,2.3,3.1l9.1,8.9c1.2,1.1,2.1,2.4,2.8,3.8l0.6,1.5l-0.1-0.1c0.6,1.7,0.9,3.6,0.9,5.4c0,6.4-3.5,13-7,18.3
	c-4.2,6.7-10.7,14.3-17.4,22.5c-3.2,3.8-6.9,7.9-10.2,11.7l-6.4,7.2l3.4,3.4c1.9,1.9,2.9,4.5,3.1,7.2c0.6,6.2-4.4,11.7-10.8,12.2
	c-2.8,0-7-0.1-13.5-0.6l-0.7,1l-0.1,0.2l-1.2,1.6c-0.7,0.9-1.6,2.2-2.2,3.1c1.1-0.3,2.2-0.4,3.4-0.4c3.5,0,6.9,1.5,9.4,4l1,1.8
	l0.1,0.2l10.2,10.1c1.6,2.1,2.4,4.6,2.5,7.2c0,3.2-1.4,6.3-3.8,8.5c-3.2,2.8-6.7,5.6-9.7,7.9c-8,6.1-17.1,10.5-26,10.5
	c-3.7,0-7.3-0.8-10.7-2.3l-0.1-0.1c-2.4-1-4.6-2.5-6.5-4.4l-8.9-8.9c-6.3-4.1-10.1-11.7-8.8-21.5c0.6-6.3,3.7-14.1,8.9-23.4
	l-7.8-1.3v0.2l-3.4-0.4l-0.2-0.2c-0.3,0-0.4-0.2-0.7-0.2l-10.2,8.6c-10.1,8.3-20.2,16.7-29.7,24.1c-19.2,14.6-37.9,27.5-52.4,32.2
	c-8.1,2.7-16.6,4.2-25.2,4.2c-14.2,0-25.8-4.5-33.4-12.1l-7.8-7.8c-6.1-4.4-10.7-10.7-13-17.9C784.2,130.2,783.5,126.2,783.6,122.2z
	 M902.9,96.5c-4.2-0.3-8.3-0.4-12.2-0.4c-17.7,0-33.8,2.3-46.7,8.5c-18.7,8.8-25.9,20.3-25.9,29.4v2c3.1,0.9,6.3,1.4,9.5,1.3
	c6.2-0.2,12.4-1.3,18.3-3.4c11-3.4,28.4-15.5,45.5-28.4L902.9,96.5z"/>
<path class="st0" d="M1115.4,117.7l0.9,0.9l1.6,2.3l9.8,9.7c4.1,4.5,3.9,11.5-0.6,15.6c-0.2,0.2-0.3,0.3-0.5,0.5
	c-6.5,5.6-13.5,10.7-20.8,15.2c-4.7,2.5-10.1,4.8-15.5,4.8c-3.2,0.1-6.4-0.8-9.1-2.5c-1-0.6-2-1.3-2.8-2.2l-6-6l-0.7,0.6
	c-7.6,4.8-15.7,9.5-24,9.5c-2.2,0-4.4-0.4-6.4-1l-0.1-0.1c-3-1-5.7-2.6-8-4.8l-8.5-8.5c-1.7,1-3.7,1.5-5.7,1.5
	c-2.9,0-5.7-1.1-7.8-3.1l-9.4-9.4c-1.2-0.8-2.3-1.6-3.2-2.6c-1.9-2.1-3-4.8-2.9-7.6c0-3.5,1.6-6.8,4.2-9.1
	c6.6-5.6,13.2-11.1,28.4-25.6c6.9-9.4,17-20.5,25.9-27.2c10.5-7.8,23-14.2,34.6-14.2c2.9,0,5.8,0.4,8.6,1.2c3.8,1.2,7.2,3.6,9.5,6.9
	c12.7-15.4,25.2-29.3,33.8-36.6c4-3.4,8.2-5.6,12.3-5.6c3.5,0,6.9,1.6,9.9,5.6l9.5,9.5c3.8,4,4.3,10.1,1.2,14.6
	C1163,65.3,1135.5,97.5,1115.4,117.7z"/>
<path class="st0" d="M1211.3,117.7l0.9,0.9l1.6,2.3l9.8,9.7c4.1,4.5,3.9,11.5-0.6,15.6c-0.2,0.2-0.3,0.3-0.5,0.5
	c-6.5,5.6-13.5,10.7-20.8,15.2c-4.7,2.5-10.1,4.8-15.5,4.8c-3.2,0.1-6.4-0.8-9.1-2.5c-1-0.6-2-1.3-2.8-2.2l-6-6l-0.7,0.6
	c-7.6,4.8-15.7,9.5-24,9.5c-2.2,0-4.4-0.4-6.4-1l-0.1-0.1c-3-1-5.7-2.6-8-4.8l-8.5-8.5c-1.7,1-3.7,1.5-5.7,1.5
	c-2.9,0-5.7-1.1-7.8-3.1l-9.4-9.4c-1.2-0.8-2.3-1.6-3.2-2.6c-1.9-2.1-3-4.8-2.9-7.6c0-3.5,1.6-6.8,4.2-9.1
	c6.6-5.6,13.2-11.1,28.4-25.6c6.9-9.4,17-20.5,25.9-27.2c10.5-7.8,23-14.2,34.6-14.2c2.9,0,5.8,0.4,8.6,1.2c3.8,1.2,7.2,3.6,9.5,6.9
	c12.7-15.4,25.2-29.3,33.8-36.6c4-3.4,8.2-5.6,12.3-5.6c3.5,0,6.9,1.6,10,5.6l9.5,9.5c3.8,4,4.3,10.1,1.2,14.6
	C1258.9,65.3,1231.3,97.5,1211.3,117.7z"/>
<path class="st0" d="M1201.9,149.2c-9.8-9.4-11-10.2-12-11.4c-1.8-2.1-2.9-4.7-2.9-7.5c0-3.5,1.6-6.8,4.4-8.9
	c5.9-4.7,14.3-12.4,21.4-17.7c0.7-1.4,1.6-2.7,2.5-4h-0.2c10.6-16.7,23.6-31.8,38.5-44.8c2-1.8,4.5-2.8,7.2-2.9
	c4.2,0,8.3,2.8,10.5,6.7l9.2,9.1c1.2,1.3,2.2,2.9,2.9,4.5c3.6-5.5,7.8-10.7,12.3-15.5c2.6-2.5,6-3.9,9.5-4c4.7,0,9.1,2.7,11.3,6.9
	l9.2,9.1c2.5,2.5,4,5.8,4,9.4c0,1.7-0.3,3.4-1,5c-8.3,13.5-18,26.3-28.8,37.9l9.7,9.5c1.8,2,2.8,4.6,2.8,7.3c0,3.4-1.5,6.6-4,8.8
	c-2.5,2.2-5.7,5-8.2,6.9c-8.1,5.7-20.3,13.3-28.8,18.1l-0.3,0.1l-9.4,5.9l-0.4-0.4c-20.8,28.7-44.9,54.9-69.7,54.9
	c-6.9-0.1-12.9-2.5-17.1-6.7c-14.6-12.7-18.3-19.2-18-27.2c0.6-10.7,8.3-21.9,24.2-31.5c8.2-4.7,18.3-8.6,28.8-12.3l2.5-1l-0.3-0.3
	c-3.4,0.3-6.8-0.9-9.2-3.4C1202.3,149.6,1202.1,149.4,1201.9,149.2z"/>
<path class="st1" d="M7.3,136.3c0-21.4,22-54,35.7-68.9c27.5-29.6,62.5-50.5,92.7-50.5c2.4,0,4.9,0.1,7.3,0.4
	c21.5,3.7,30,19.2,30,37.5c-0.1,7.3-1.2,14.5-3.4,21.5c-6.6,22.1-25.2,46.5-41.9,56.4c-3.6-0.6-7-1.6-10.4-2.9
	c16-8.3,37.3-33.8,44.2-55.3c1.8-5.9,2.8-12,2.8-18.2c0-14.6-6-28.4-22.5-30.3c-2.2-0.3-4.4-0.4-6.6-0.4c-26.2,0-59,18.4-86.9,49.8
	c-17.9,20-32,46.7-32,61c0,4.7,1.5,7.9,4.8,9.4c10,4.1,36.2-18,43.9-26.2C83.7,100,112.3,64.1,130.6,36c1.2-2.1,3.9-2.8,6.1-1.6
	c2.1,1.2,2.8,3.9,1.6,6.1c-0.1,0.1-0.2,0.3-0.3,0.4C122.4,65,98.8,95.3,80.2,115.9c-9.2,0-16.7,8.9-16.4,16.8
	c-9.8,8.6-27.8,22-40.5,22c-1.9,0.1-3.8-0.3-5.6-1C10.2,150.5,7.3,144.2,7.3,136.3z M74.7,119.4c2.3-1.1,4.8-1.6,7.3-1.6
	c10.4,0,22.5,7.3,29.7,11.3c7.2,4.2,13.3,5.9,18.7,5.9c7.6,0,14.1-3.2,20.8-7.8c1-0.7,1.9-1.6,2.6-2c1.7-1.6,4.4-1.4,6,0.3
	c0,0,0.1,0.1,0.1,0.1c1.6,1.8,1.4,4.6-0.4,6.2c-1.2,0.9-2.4,1.9-3.5,2.9c-5.1,3.5-15.1,8.1-22.2,8.2c-23.1,0.6-38.3-16.7-50.7-16.7
	c-1.6,0-3.2,0.3-4.7,1c-2.6,1.3-3.8,4-3.2,6s2.1,6,11.1,7.8c1.4,0.2,2.8,0.3,4.2,0.3c5.2-0.1,10.3-1.2,15.1-3.4
	c3.3,2,6.9,3.5,10.7,4.5c-8.5,4.4-17,7.3-25.2,7.3c-1.9,0-3.7-0.1-5.6-0.4c-10.7-2.1-17.3-7.2-18.9-13.9S68.8,122.4,74.7,119.4z"/>
<path class="st1" d="M153.4,125.4c14.5-12.1,30.6-29,59.1-59.4c0.3,3.3,1.7,6.4,3.8,9l-4.1,4.4c-21.8,23-38.4,40.4-53.1,52.8
	c-1.9,1.6-4.7,1.4-6.3-0.4c-1.6-1.9-1.4-4.7,0.5-6.2C153.3,125.5,153.4,125.5,153.4,125.4z M243.3,76.1c1.6,1.9,0.7,5.1-1.2,6.4
	c-10,7-18.7,15.7-25.6,25.8c-6.1,8.9-11.1,18.3-11.1,24.3c0,2.5,0.9,4.4,2.8,5.4s5.1,0.9,10.2-1.9c6.4-3.7,12.4-8,17.9-13
	c1.8-1.7,4.5-1.6,6.2,0.1c1.7,1.8,1.6,4.5-0.1,6.2c-0.1,0.1-0.2,0.2-0.3,0.2c-9.4,8.1-22,18-32.1,18c-1.6,0-3.3-0.3-4.8-0.9
	c-6.3-2.5-8.6-8.4-8.6-14.4c0.1-3.3,0.7-6.6,1.8-9.7c2.9-8.8,9.7-17.8,16.7-26.2c4.7-5.4,12.7-14.6,22.7-21.5
	C239.9,74.1,242,74.2,243.3,76.1z M226.6,81.4c-6.3-3.4-10.8-9.2-11.9-14.6c-1.6-8.2,5.1-13.2,9.2-14.3c4.2-1.6,8.2,1.9,6.6,5.6
	c-1.2,2.9-4.5,5.6-5.9,7.2c-1.6-1.9-1.6-3.1-1.5-5.4c0.1-0.5-0.3-1.1-0.8-1.2c0,0,0,0-0.1,0c-0.6-0.1-1,0.2-1.2,0.9
	c-0.4,7.8,6.6,14.5,13.5,15.7C231.8,76.9,229.1,79.1,226.6,81.4z"/>
<path class="st1" d="M231.9,127.1c5.3-4.5,10.8-9.5,16.5-14.9c-2.3,5.1-4,10.1-4.1,15.8l-6.9,5.9c-1.9,1.5-4.7,1.1-6.1-0.8
	C229.9,131.2,230.1,128.6,231.9,127.1L231.9,127.1z M246.4,129.2c-0.4-16.2,13.8-36.2,23.1-38.5c-1.9,4.7-3.3,9.5-4.2,14.5
	c-7.8,9.9-10.2,17.8-10.2,23.4c0,5.6,2.5,9.1,4.8,10c3.4,1.3,7.9,0.3,14.4-3.2c2.5,2.2,5.3,4,8.3,5.3c-6.6,4.3-13.5,7.3-19.6,7.3
	c-2.1,0-4.2-0.4-6.1-1.2C250.9,144.5,246.6,138.2,246.4,129.2z M267,108c2.8-18.7,18-44.4,37.8-46.4c13.2-1,20.6,9.2,18.9,21.1
	c-2.3,17.4-16.8,36.6-28.7,47.7c-4,0.1-6.9-1.2-10-2.9c12.1-10.2,22.4-23.6,27.5-37.3c1.3-3.3,2.1-6.8,2.2-10.4
	c0-5.3-2.2-9.8-9.1-9.4c-14.9,1-28.1,24.4-29.9,37c-0.1,1.6-0.3,3.2-0.3,4.7c0,6.9,2.2,12.7,7.6,16.7c3.5,2.2,7.5,3.4,11.6,3.4
	c7.6,0,15.2-3.7,21.5-8.6c3.7-3.1,7.2-0.1,7.2,3.2c0,1.5-0.7,3-1.9,4c-7.2,6.5-16.4,10.1-26.1,10.3c-3.7,0-7.3-0.6-10.8-1.8
	C271.1,134.5,265.8,120.9,267,108z"/>
<path class="st1" d="M360.1,79.3c7-9.7,12.9-16.7,17-20.6s9.7,1.6,6.6,5.8c-7.8,9.8-14.7,18.2-21.8,27.1
	c-11,10.5-23.3,24.9-33.8,38.9c-0.4,0.4-0.3,1,0.1,1.4c0,0,0,0,0.1,0c0.4,0.4,1,0.3,1.5-0.3c17.7-23.1,47.6-58.7,72.6-65.6
	c1.4-0.3,2.9-0.5,4.4-0.6c3,0,6,1,8.4,2.9c3.5,2.9,5,7,5,11.9c0,16-16.4,39.4-26.9,49.6c-1.8,0.3-3.6,0.4-5.4,0.4
	c-2.3,0-4.6-0.3-6.9-0.9c13.2-11.4,24.3-25.9,29.1-41.6c0.8-2.4,1.2-4.9,1.3-7.5c0-4.1-1.9-5.7-4.7-5.7c-3.8,0-9.1,2.6-13.6,5.4
	c-25.6,16.4-49.6,47.4-67.2,70.7c-11.3,15.3-21.5,31.5-30.4,48.3c-0.7,1.5-2.2,2.5-3.8,2.5c-2.4,0.1-4.5-1.8-4.5-4.2
	c0-0.7,0.1-1.4,0.4-2.1C308.1,153.7,334.6,116.7,360.1,79.3z M312.1,127.1c10.4-8.8,20.3-18.1,29.7-28.1l0.6-0.4
	c0-0.1,0.1-0.3,0.3-0.4l7.3-7.8c-8.2,11.9-17.3,25.5-26.2,38.4c-2.2,1.8-4,3.5-6.1,5.1c-1.9,1.5-4.6,1.3-6.1-0.6
	C310,131.3,310.2,128.6,312.1,127.1C312.1,127.1,312.1,127.1,312.1,127.1z M344,130.3c1.6-1.8,2.9-3.5,4.5-5.3
	c1.2,1.9,2.6,3.6,4.2,5.1c0.3,6.3,3.4,9.5,8.2,9.5c1.6,0,3.3-0.3,4.8-0.9c3.8,2.1,8,3.4,12.3,3.8c-7.2,4.5-14.1,6.9-20.9,5.9
	C348.1,147,344,138.3,344,130.3z M355.6,117.1c6.1,8.2,17.6,14.3,29.4,15.2c8.3,0.6,17-1.2,26.9-9.2c1.9-1.5,4.7-1.2,6.2,0.8
	c1.4,1.8,1.2,4.4-0.5,6c-6.6,6-13.6,9.8-22.2,11c-2.4,0.3-4.8,0.4-7.2,0.4c-15.1,0-30.3-5.9-38.2-17.8L355.6,117.1z"/>
<path class="st1" d="M484.7,126.9c7.2-5.9,16.7-14.8,24.1-22.2c-3.1,5.7-7.5,13.5-9.1,20.9c-3.1,2.8-6.1,5.4-9.5,8.2
	c-1.8,1.5-4.5,1.2-6-0.6c0,0-0.1-0.1-0.1-0.1C482.6,131.2,482.8,128.5,484.7,126.9z M501.5,130.7c0-2.4,0.3-4.8,0.9-7.2
	c8.6-27.7,56.2-85,75.2-97.8c4-2.6,9.7,1.6,7.3,5.9c-3.5,6.3-14.5,19-20.2,26.2H559l16.2-17.6c0.4-0.4,0.4-1.2,0-1.6
	c-0.4-0.4-1.2-0.1-1.6,0.3c-9.4,10.5-34.7,36.3-53.3,66.4c-4.7,7.6-9.5,18.2-9.5,25.5c0,3.5,1.2,6.4,4.1,7.8
	c4.2,1.6,9.8-1.2,21.7-10.4c2.2-1.6,4.1-3.2,6.3-5.1c1.8-1.6,4.6-1.3,6.1,0.5c1.5,1.8,1.3,4.5-0.4,6.1c-2.1,2-4.3,3.8-6.6,5.6
	c-5.4,4.1-10.4,7.8-15.1,10c-3,1.6-6.4,2.5-9.8,2.6c-1.7,0-3.4-0.3-5-0.9C504.3,144.6,501.5,137.7,501.5,130.7z M522.7,59.7h18.7
	c-2.5,2.8-4.8,5.9-7.6,8.8h-11.1c-2.4,0-4.4-2-4.4-4.4C518.4,61.7,520.3,59.8,522.7,59.7z M553.9,70.6c-8,8.9-23,26.9-31.3,35.3
	c5.1-8.8,18.2-26.5,25.6-35.3H553.9z M580.2,59.9c2.4-0.1,4.4,1.7,4.5,4.1c0.1,2.4-1.7,4.4-4.1,4.5c-0.1,0-0.3,0-0.4,0H550
	c2.5-3.1,5.1-5.8,7.3-8.6L580.2,59.9z"/>
<path class="st1" d="M538.2,126.9c15.1-11.9,26.8-25.3,39.7-38.2c-8.3,12.1-16.5,24.6-23.7,35.9c-3.7,3.4-7,6.3-10.4,9.1
	c-1.8,1.5-4.5,1.4-6-0.4c0,0-0.1-0.1-0.1-0.2C536.1,131.2,536.4,128.5,538.2,126.9z M622,103.8c6-7,12.1-13.8,16.7-19.8
	c3.7-4.7,6.3-8.5,6.3-10.8s-2.3-2.9-7.9-1.6c-29.9,10.7-67,47.4-82,73.3c-0.7,1.4-2.1,2.2-3.7,2.2c-2.4,0.1-4.4-1.8-4.6-4.2
	c0-0.7,0.1-1.5,0.5-2.1c4.1-8.9,9.8-16.5,15.1-24.7C584,82.7,617.6,37,635.3,24c3.8-2.6,9.2,1.5,6.9,5.7c-4.1,9.2-34.8,44.4-44.2,52
	c11-14.5,25.8-32.6,39.7-48.9c0.4-0.4,0.3-0.9-0.2-1.5s-1-0.3-1.3,0.1c-17.6,20.6-31.5,37-44.5,55.5c0,0.1-0.1,0.1-0.1,0.3l-0.2,0.2
	c-7.5,6.3-15.4,14.5-23.4,23.2c-0.4,0.3-0.4,0.9-0.1,1.3c0.1,0.1,0.2,0.1,0.2,0.2c0.4,0.4,0.9,0.4,1.3-0.2
	c18.3-20.2,40.2-40,65.1-48.7c2.4-0.8,4.8-1.2,7.3-1.2c5.6,0,10.5,2.4,11.7,8.8c1.2,6.2-4,13-7.9,18.6c-4.8,6.3-11.3,13.2-17,20
	c-5.9,6.9-10.8,13.3-13.3,18.7c-1,1.7-1.5,3.6-1.6,5.6c-0.1,1.5,0.6,3,1.8,4c3.1,2.5,10.4,0.3,20.3-7.2c2.9-2.2,6-4.7,9.2-7.5
	c1.7-1.6,4.4-1.4,6,0.3c0,0,0.1,0.1,0.1,0.1c1.6,1.8,1.4,4.6-0.4,6.1c-3.4,2.8-6.6,5.4-9.7,7.8c-4.8,3.7-10.1,7-15.4,8.8
	c-2.2,0.7-4.5,1.1-6.8,1.2c-8.5,0-13.9-5.9-13.9-13.8c0.1-3.1,0.8-6.2,2.2-9.1C610.4,118,616.3,110.7,622,103.8z"/>
<path class="st1" d="M640.3,126.9c6-4.8,11.7-10,17.1-15.4c-1.4,4.5-2.2,9.2-2.2,14c-3.4,2.9-6.3,5.7-9.4,8.2
	c-1.8,1.5-4.5,1.2-6.1-0.6c0,0-0.1-0.1-0.1-0.1C638.2,131.2,638.5,128.5,640.3,126.9z M657.7,123.4c0-23.6,23.6-51.4,45.1-60.2
	c3.3-1.4,6.8-2.2,10.4-2.2c9.2,0,16,6,16,15.8c0,1.9-0.3,3.8-0.7,5.7c-5,20.6-31.3,34.5-50.2,34.5c-3.1,0-6.1-0.4-9.1-1.3
	c0.9-2.9,2.2-5.7,3.7-8.3c1.8,0.4,3.7,0.6,5.6,0.6c10.5,0,24-5.9,32.5-13.3c4.2-3.7,9.5-11.3,9.5-17.4c0.1-1.8-0.5-3.6-1.6-5
	c-0.9-1.2-2.8-1.8-5.4-1.8c-3.9,0.2-7.6,1.1-11.1,2.8c-13.3,6.4-29.3,24.4-34,38.3c-1.1,3.2-1.7,6.7-1.8,10.1
	c0,10.1,5.7,18.6,18.2,18c8-0.4,17.1-3.9,24.7-9.8c2.8-2.2,5.4-4.4,8.3-6.9c1.8-1.6,4.6-1.4,6.2,0.4c1.6,1.8,1.4,4.6-0.4,6.2
	c0,0,0,0-0.1,0.1c-2.8,2.6-5.7,5-8.8,7.2c-8.8,6.9-19.6,11.3-29.6,11.7s-20.6-2.9-24.9-12.9C658.5,131.8,657.6,127.6,657.7,123.4z"
	/>
<path class="st1" d="M790.9,122.2c0-15.7,11.7-32.7,35-43.6c15.1-7.2,33.5-9.7,53-9.7c14.6,0.1,29.1,1.2,43.6,3.1
	c4.4,0.4,8.8,1,13,1.6l3.4,0.6h-0.2c6,0.9,13.5,2.1,18,2.6h0.3l3.5,0.6l29.1,4.1h1.4c-1.9,2.6-4,5.3-5.9,8l-1.6-0.3
	c-11.4-1.3-23.7-3.2-36.3-5.1l-1.6-0.3c-4.6-0.9-9.3-1.5-14.1-1.8l-10-1.5c-14.6-1.8-29-3.1-42.6-3.1c-18.7,0-35.9,2.5-49.6,9.1
	c-21.7,10.1-29.9,24.3-29.9,35.7c0,2.3,0.3,4.6,1,6.7c2.8,8.5,11.9,15.7,27.1,15.7c7-0.2,13.9-1.4,20.5-3.7
	c12.2-3.8,28.8-15.1,47.9-29.7c9.4-7.3,19-15.2,29.3-23.6l4.5-3.8c3.9,0.2,7.7,0.7,11.6,1.3l-10.7,8.9c-10.1,8.3-20,16.5-29.6,24
	c-18.6,14.3-36.7,26.6-50.3,31c-7.4,2.6-15.2,3.9-23,4c-18.2,0-31-8.5-35.4-21.5C791.3,128.6,790.9,125.4,790.9,122.2z M967.4,128.4
	c0.7-7.9,5.7-18.3,15.8-32.9c0.2-0.2,0.2-0.2,0.2-0.4c3.4-4.4,6.6-8.9,10-13h0.2l3.4-4.4c8.3-10.2,18.2-20.9,26.5-30.6
	c5.8-6.7,11.2-13.6,16.1-20.9c1.3-1.8,2.4-3.8,3.4-5.9c0.4-0.6,0.8-1.2,1-1.9c0.2-0.6,0.3-1.2,0.3-1.8c0-0.7-0.1-1.3-0.4-1.9
	c-0.6-1.2-1.8-2-3.1-2.2c-1.8-0.5-3.7-0.6-5.6-0.4c-0.6,0-0.9,0.4-0.9,1c0.1,0.5,0.5,0.9,1,0.9c4.4-0.1,6.2,0.6,6.7,1.8
	c0,0.1,0.1,0.2,0.1,0.3c-2.4-0.2-4.9,0.2-7.2,1c-5.4,1.5-12,5-19.9,9.8c-15.7,10.1-34.5,25.3-54.5,42l-6.6,5.6
	c-3.5-0.4-7.5-1-11.3-1.8l12.5-10.4c19.8-16.5,39-32.2,55.1-42.6c10.8-6.7,21.7-12.3,30.6-12.3c3.4-0.1,6.8,0.9,9.5,2.9
	c0.4,0.4,1,0.9,1.2,1.3l0.6,1.5c1.9,5.3-1.9,12.3-5.6,17.7c-4.1,6.6-10.2,13.9-16.8,21.8c-6.4,7.6-13.8,15.5-20.2,23.1
	c-4.4,4.8-8.5,10.1-12.3,15.2l-3.1,3.9c-1.3,1.8-2.6,3.7-4,5.3c-10,14.5-13.6,23.6-14.3,29.3c-0.6,5,1.2,6.7,3.2,7.6
	c1.4,0.6,2.9,0.9,4.4,0.9c4.4,0,10-2.3,16.4-7.5c2.8-2,5.8-4.5,8.9-7.2c1.8-1.6,4.5-1.4,6.1,0.4s1.4,4.5-0.4,6.1l0,0
	c-3.2,2.8-6.4,5.4-9.4,7.8c-6.9,5.3-14.6,9.1-21.8,9.1c-2.7,0-5.3-0.6-7.8-1.8C970.1,142.4,966.2,137,967.4,128.4L967.4,128.4z
	 M1006.1,82.9c2.6,0,5.3,0.2,7.8,0.2c2.4,0.1,4.2,2.1,4.1,4.5c-0.1,2.2-1.9,4-4.1,4.1c-4.4,0-9.2-0.1-14.3-0.6L1006.1,82.9z"/>
<path class="st1" d="M1004.3,126.9c7.6-6.3,15.7-13.9,23.7-22c-3.6,6-6.1,12.6-7.5,19.5c-3.5,3.4-7.5,6.6-10.8,9.4
	c-1.7,1.5-4.3,1.3-5.8-0.5c-0.1-0.1-0.1-0.2-0.2-0.2C1002.2,131.2,1002.4,128.5,1004.3,126.9C1004.2,127,1004.3,126.9,1004.3,126.9z
	 M1022,131.6c0-8.5,3.7-18.3,6.3-23.3c6.9-12.3,17.3-25.5,29.9-34c8.2-5.9,18-9.1,26.1-9.1c3.2,0,6.3,0.6,9.2,1.9
	c3.2,1.6,4.7,4.1,4.7,6.6c0,3.7-3.4,7.2-10.1,7.3c-24,0.3-49.3,30.9-45.7,25c7.8-12.4,25-30.7,41.4-30.7c1.4,0,2.8,0.2,4.2,0.4
	c3.2,0.6,2.8-1.2,0-1.8c-1.4-0.2-2.8-0.3-4.2-0.3c-19.6,0-38.3,21.4-47.7,38.8c-3.9,7-5.7,13.6-5.6,18.5c0,5.6,2.3,7.5,5.6,7.5
	c4.8,0,11.6-4.2,14.9-6.6c6.3-4.2,20.2-15.1,26.6-21.5c-2.5,4.8-7.2,12.3-8.6,18.6c-3.4,2.8-10,7.9-13,10.1
	c-6.4,4.5-13.6,8.3-20.2,8.3c-1.5,0-3-0.2-4.4-0.6C1024.4,144.5,1022,138.5,1022,131.6L1022,131.6z M1069.3,138.6
	c0-28.5,72.3-110.9,80.9-112c4.8-0.6,8.6,3.8,5.9,7.8c-10.8,16-44.1,55.6-63.7,74.8c15.4-24,46.8-60.9,58.4-72.2
	c0.4-0.4,0.3-0.9-0.2-1.5c-0.3-0.4-0.8-0.4-1.1-0.2c-0.1,0-0.1,0.1-0.2,0.2c-8.3,7.5-35.4,38.9-52,62.2
	c-13.5,19-22.5,38.1-18.6,40.5c0.9,0.6,2,1.3,7.8-1.8c5.1-2.9,11.3-7.6,18.2-13.5c1.8-1.6,4.6-1.4,6.2,0.4c1.6,1.8,1.4,4.6-0.4,6.2
	c0,0,0,0-0.1,0.1c-6.9,6-13.6,11.1-19.6,14.5c-3.8,2-8.2,3.9-12.3,3.9c-1.9,0-3.8-0.5-5.4-1.5
	C1070.5,145.1,1069.3,142.3,1069.3,138.6L1069.3,138.6z"/>
<path class="st1" d="M1100.2,126.9c7.6-6.3,15.7-13.9,23.7-22c-3.6,6-6.1,12.6-7.5,19.5c-3.5,3.4-7.5,6.6-10.8,9.4
	c-1.7,1.5-4.3,1.3-5.8-0.5c-0.1-0.1-0.1-0.2-0.2-0.2C1098.1,131.2,1098.3,128.5,1100.2,126.9C1100.1,127,1100.2,126.9,1100.2,126.9z
	 M1117.9,131.6c0-8.5,3.7-18.3,6.3-23.3c6.9-12.3,17.3-25.5,29.9-34c8.2-5.9,18-9.1,26.1-9.1c3.2,0,6.3,0.6,9.2,1.9
	c3.2,1.6,4.7,4.1,4.7,6.6c0,3.7-3.4,7.2-10.1,7.3c-24,0.3-49.3,30.9-45.7,25c7.8-12.4,25-30.7,41.4-30.7c1.4,0,2.8,0.2,4.2,0.4
	c3.2,0.6,2.8-1.2,0-1.8c-1.4-0.2-2.8-0.3-4.2-0.3c-19.6,0-38.3,21.4-47.7,38.8c-4,7-5.7,13.6-5.6,18.5c0,5.6,2.3,7.5,5.6,7.5
	c4.8,0,11.6-4.2,14.9-6.6c6.3-4.2,20.2-15.1,26.6-21.5c-2.5,4.8-7.2,12.3-8.6,18.6c-3.4,2.8-10,7.9-13,10.1
	c-6.4,4.5-13.6,8.3-20.2,8.3c-1.5,0-3-0.2-4.4-0.6C1120.2,144.5,1117.9,138.5,1117.9,131.6L1117.9,131.6z M1165.2,138.6
	c0-28.5,72.3-110.9,80.9-112c4.8-0.6,8.6,3.8,5.9,7.8c-10.8,16-44.1,55.6-63.7,74.8c15.4-24,46.8-60.9,58.4-72.2
	c0.4-0.4,0.3-0.9-0.2-1.5c-0.3-0.4-0.8-0.4-1.1-0.2c-0.1,0-0.1,0.1-0.2,0.2c-8.3,7.5-35.4,38.9-52,62.2
	c-13.5,19-22.5,38.1-18.6,40.5c0.9,0.6,2,1.3,7.8-1.8c5.1-2.9,11.3-7.6,18.2-13.5c1.8-1.6,4.6-1.4,6.2,0.4c1.6,1.8,1.4,4.6-0.4,6.2
	c0,0,0,0-0.1,0.1c-6.9,6-13.6,11.1-19.6,14.5c-3.8,2-8.2,3.9-12.3,3.9c-1.9,0-3.8-0.5-5.4-1.5
	C1166.4,145.1,1165.2,142.3,1165.2,138.6L1165.2,138.6z"/>
<path class="st1" d="M1184.5,173c14.3-8.2,32.1-12.3,54-22.1c-3.4,4.8-6.4,9.1-10.4,13.9c-15.8,6-28.7,9.8-39.1,15.8
	c-12.4,7.3-16.4,14.4-16.4,18.3c-0.1,3.7,2.8,5.9,7.5,5.9c19.8,0,41.1-27.4,51.2-40.7c26.1-37.5,4.1-3.7,50.5-76.4
	c6.2-9.1,13.5-20.2,18.9-25.6c1.2-1.2,2.8-1.8,4.5-1.9c4,0,7.2,4.4,5.4,8.2c-7.4,11.9-15.8,23.1-25.2,33.5l18.9-29.4
	c0.9-1.2-1-2.2-1.8-1.2c-21.8,33.8-39.4,61.9-57.8,89.4c-19.8,27.5-42.6,52.8-64.7,52.8c-9.4-0.1-16.7-6.1-16.2-15.1
	C1164.3,190.1,1171,181.1,1184.5,173z M1196.1,126.9c5.9-4.7,14.1-12.2,19.9-18c-4,5.9-6.8,12.6-8.2,19.6c-1.8,1.6-4.4,3.8-6.1,5.1
	c-1.9,1.5-4.7,1.1-6.1-0.8C1194.1,131,1194.3,128.4,1196.1,126.9L1196.1,126.9z M1209.4,134.1c0-1.6,0.2-3.1,0.4-4.7
	c1.9-9.8,8.2-20.6,11.6-25.8c10.1-16.2,22.6-30.8,37-43.3c4-3.5,9.4,1.9,7,5.8c-7,10.5-19.5,24.3-31.8,37.8
	c6.6-10.1,15.2-20.6,28.2-35.1c0.4-0.4,0.4-1,0.1-1.4c0,0,0,0-0.1-0.1c-0.4-0.4-0.9-0.4-1.5,0c-17.4,19.3-26.9,31.9-34.8,46.1
	c-3.5,6.3-5.8,11.7-6.9,16.2c-1.5,7,0.6,8.6,3.5,9.1c10.8,1.5,30.6-17.3,42.4-28l-14.3,22.4c-9.4,8.9-21.1,14.9-29.7,14.5
	C1213.3,147.3,1209.4,141.7,1209.4,134.1L1209.4,134.1z M1248.9,158.5l10.2-15.8c4.2-2.8,16.7-10.8,19.9-13.3
	c2.5-1.9,4.8-4.1,7.6-6.3c1.8-1.6,4.6-1.3,6.1,0.5c1.5,1.8,1.3,4.5-0.4,6.1c-2.6,2.3-5.3,4.5-7.9,6.6c-7.9,5.9-20.2,13.2-28.4,17.9
	L1248.9,158.5z M1285.5,101.9c-0.1,0-0.1,0.1-0.1,0.1c0,0,0,0,0,0L1285.5,101.9z"/>
</svg>
