<svg xmlns="http://www.w3.org/2000/svg" viewBox="0 0 668.46 234.83"><path d="M11,161.25c-7.67-5.32-11-13.31-11-23.17C0,113,24.74,75.77,40.23,59,70.92,25.83,110.53,2.5,145.13,2.5a64.28,64.28,0,0,1,8.92.63C168.14,5.64,178,11.9,184.26,20.51l8,8c8.76,8.77,12.68,21.29,12.68,34.91A87.67,87.67,0,0,1,201,88.45v.16c-3.75,12.52-11.11,25.83-20,37.57l8.14,8a11.47,11.47,0,0,1,3.13,8,11.72,11.72,0,0,1-3.6,8.61c-1.41,1.1-4.07,3.29-5,4.23-6.27,4.22-18.63,9.86-27.87,10a62.36,62.36,0,0,1-15.65-1.73c-12.53,5.64-23,9.08-30.06,9.08a40,40,0,0,1-7.36-.62q-12.92-2.58-19.73-9.4L78.59,158c-12.52,9.55-29,19.73-41.17,19.73A21.68,21.68,0,0,1,28.49,176a26.5,26.5,0,0,1-8.29-5.48ZM113.81,54.17a206.84,206.84,0,0,0-44.14,36c-11.9,13.47-22.39,29.91-28.18,43.37a156,156,0,0,0,22.38-18.79C77.49,100.66,96.75,77.18,113.81,54.17Zm2,65.59,5.48,3c18.16-13.78,37.42-36.48,44-53.23A63.41,63.41,0,0,0,168,52.45c0-1.26-.16-2.35-.16-3.61a14.5,14.5,0,0,1-1.56,3.61C152.64,73.27,133.54,98.47,115.85,119.76Z" style="fill:#dda126"/><path d="M260.65,36.63l10.18,10a12.32,12.32,0,0,1,3.44,8.3,12.73,12.73,0,0,1-3.28,8.3,36.36,36.36,0,0,0-4.07,4.38L265,69.82a13.21,13.21,0,0,1-8.77,4.23A9.28,9.28,0,0,1,255,83.76l-.31.31L253.3,86c-3.92,5.32-13.47,18-23.8,30.37a16.74,16.74,0,0,1,3.76,2.82,23.27,23.27,0,0,1,1.72,2.34L245.47,132a11.43,11.43,0,0,1,3,7.83,12.65,12.65,0,0,1-4.07,9.39c-11,9.4-25.83,21-39.13,21a21.67,21.67,0,0,1-7.83-1.41,20.18,20.18,0,0,1-7-4.54l-8.61-8.61a11.5,11.5,0,0,1-12.52-2.81l-9.87-9.87a13.22,13.22,0,0,1-3.6-3,11.86,11.86,0,0,1-3.13-8.14,12.23,12.23,0,0,1,4.54-9.71c8-6.73,20.2-17.53,32.41-28.33C196.16,84.07,211,66.38,222.93,55a11.91,11.91,0,0,1,7.51-2.66h.63a7.16,7.16,0,0,1-.32-2.66A13.2,13.2,0,0,1,234,41.17,24.4,24.4,0,0,0,235.92,39l.94-1.09,3.91-4.23a12.09,12.09,0,0,1,8.77-3.76,12.89,12.89,0,0,1,8.61,3.45A12.72,12.72,0,0,1,260.65,36.63Z" style="fill:#dda126"/><path d="M322.8,60.27l.32.47a12,12,0,0,1,6.1-1.72,12.51,12.51,0,0,1,4.7.94V59.8a12.72,12.72,0,0,1,6.73,5.64L351,75.62A12.3,12.3,0,0,1,353.64,88c-1.87,5.8-7.35,14.41-14.56,23.49l-24.57,38c.94.47,2,.78,3.13,1.25a13.3,13.3,0,0,1,6.1,5.64l9.87,9.86a12.5,12.5,0,0,1,3.75,8.77,10.52,10.52,0,0,1-1.09,4.85,12.23,12.23,0,0,1-11.12,7,11.18,11.18,0,0,1-5-1.09l-.15-.16c-7.05-3.13-16-4.54-24.9-4.85l-1.25,2c-18.78,27.71-41.8,52-68.57,52-8.61,0-15.65-3-20.66-8-9.4-8.29-21-17.68-21-31.93,0-8.46,3.76-17.38,10.8-24.74,5.95-5.95,16.59-11.74,29.43-16.28l-1.25-1.09-10-10a9.88,9.88,0,0,1-3.44-2.82,11.72,11.72,0,0,1-3.13-8,12.46,12.46,0,0,1,4.69-9.86c5.79-4.85,13.78-12.21,19.88-18,3-3.92,5.8-8.46,8.93-12.68a140.89,140.89,0,0,1,25.36-25.68c11.43-8.3,24.73-15.34,37.26-15.34a35.45,35.45,0,0,1,9.08,1.25A21.57,21.57,0,0,1,322.8,60.27Z" style="fill:#dda126"/><path d="M579.7,3.76A22.6,22.6,0,0,1,588,.94a12.78,12.78,0,0,1,11.9,6.57l10.17,10a12.37,12.37,0,0,1,3.6,8.61,12.52,12.52,0,0,1-1.88,6.42c-2.66,4.07-8.76,7.36-13.93,9.24l-.31-.16c-14.88,15.5-39.14,47.44-57.3,71.7-9.55,12.69-18.94,24.9-23.33,30.06-16.75,18.94-37.73,35.7-63.71,34.91h-.16a46.73,46.73,0,0,1-31.94-14.09l-7.36-7.35a51.58,51.58,0,0,1-20.66-40.24c2.19-26.77,25.52-47,47.28-47a38.48,38.48,0,0,1,14.09,2.81,59.84,59.84,0,0,1-.47-7.67,55.77,55.77,0,0,1,11.58-33.5C484.05,6.58,514.57,0,542.28,0,552.3,0,565.61,1.57,579.7,3.76ZM431.91,139a20.75,20.75,0,0,0,9.4,2.19c15.81.78,31.31-11.43,44.46-26.46l1.09-1.25a36.23,36.23,0,0,1-8.14-6.26l-2.81-2.82a11.41,11.41,0,0,1-9.87,6,14,14,0,0,1-6.89-2,11.6,11.6,0,0,0-6.1-1.72c-10,0-21.61,10.34-22.86,23.64A23.75,23.75,0,0,0,431.91,139Zm82.35-59.8,9.86-12.84c.63-.94,1.57-1.88,2.2-2.82,7.2-9.55,14.24-18.94,20.82-27.08-21.29,1.41-39.92,8.29-49.79,23.32-3.75,6.11-5.79,12.68-5.79,18v1.88a8.84,8.84,0,0,0,3.13-2.2,12.26,12.26,0,0,1,9.08-4.07,13.14,13.14,0,0,1,8.46,3.29A10.23,10.23,0,0,1,514.26,79.22Z" style="fill:#dda126"/><path d="M516.76,131.82a12.48,12.48,0,0,1,4.38-9.4c10.18-8.14,22.24-20,31.94-29.9L567.8,77.65c4.69-6.58,9.39-13,13.93-18.79,3.45-4.38,6.89-8.92,12.68-8.92a17.5,17.5,0,0,1,8,2.35,13.75,13.75,0,0,1,3.75,4.38l2.82,3a93.19,93.19,0,0,1,12.84-5.8,35.84,35.84,0,0,1,11-1.72c8.92,0,16.9,3.45,21,10l9.54,9.55c3.29,3.13,5.17,7.52,5.17,13A24.9,24.9,0,0,1,666.9,93h-.16a44.92,44.92,0,0,1-6.89,12.37c-3.29,4.23-6.89,8.61-10.64,12.84l1.25,1.09,1.56,2.19,10.65,10.65a12.48,12.48,0,0,1,3,8.14,12.13,12.13,0,0,1-4.22,9.08c-7.52,6.42-15.5,12.53-22.08,16.28a33.89,33.89,0,0,1-15.81,4.54,22.07,22.07,0,0,1-16-6.26l-9.08-9.08c-6.1-3.76-9.86-10.18-9.86-18.47a25.25,25.25,0,0,1,1.41-8.61c-11,11.9-20.51,24.58-26.77,35.85a11.5,11.5,0,0,1-10.33,6.1A12.55,12.55,0,0,1,544,166c-13.31-11.74-15.81-14.88-16.44-18.79l-4.07-4.23a13.65,13.65,0,0,1-3.75-3.13A12.64,12.64,0,0,1,516.76,131.82Z" style="fill:#dda126"/><path d="M7.83,138.08c0-22.86,23.48-57.77,38.2-73.74,29.43-31.62,66.85-54,99.1-54a64.17,64.17,0,0,1,7.82.47c23,3.92,32.1,20.51,32.1,40.08a79.93,79.93,0,0,1-3.61,23c-7,23.64-26.92,49.79-44.77,60.28-3.76-.63-9.71-2.35-11.11-3.13,17.06-8.93,39.92-36.17,47.28-59.18a67.36,67.36,0,0,0,3-19.41c0-15.66-6.42-30.38-24.11-32.41a53.82,53.82,0,0,0-7-.47c-28,0-63.1,19.73-93,53.23-19.1,21.45-34.28,49.94-34.28,65.28,0,5,1.56,8.45,5.16,10,10.65,4.38,38.67-19.26,47-28,20-20.82,50.57-59.18,70.14-89.24a4.75,4.75,0,1,1,8,5.17c-16.75,25.83-42,58.24-61.84,80.31-9.86,0-17.85,9.55-17.53,18-10.49,9.24-29.75,23.49-43.37,23.49a14.45,14.45,0,0,1-5.95-1.1C11,153.27,7.83,146.53,7.83,138.08Zm72-18a19,19,0,0,1,7.83-1.72c11.12,0,24.11,7.82,31.78,12,7.67,4.54,14.25,6.26,20,6.26,8.14,0,15-3.44,22.23-8.3,1.1-.78,2-1.72,2.82-2.19a4.56,4.56,0,0,1,6.57.47,4.69,4.69,0,0,1-.47,6.58,42.58,42.58,0,0,0-3.75,3.13c-5.48,3.76-16.13,8.61-23.8,8.76-24.74.63-41-17.84-54.17-17.84a11.18,11.18,0,0,0-5,1.09c-2.82,1.41-4.07,4.23-3.44,6.42.47,2.19,2.19,6.42,11.9,8.3a21.61,21.61,0,0,0,4.54.31A41.22,41.22,0,0,0,113,139.8a46.22,46.22,0,0,0,11.43,4.85c-9.08,4.7-18.16,7.83-26.93,7.83a36,36,0,0,1-6-.47c-11.42-2.19-18.47-7.67-20.19-14.87S73.58,123.21,79.84,120.08Z" style="fill:#fff"/><path d="M162.18,128.06c8-6.73,19.89-17.22,28.34-25.67-4.38,6.42-9.71,15.65-11.74,23.79-3.76,3.6-7.05,6.26-10.65,9.24a4.73,4.73,0,0,1-5.95-7.36Zm17.07,6.11C181,120.7,188.48,109,196,98.16c6.1-9.08,20.66-26.3,32.87-38,4.23-3.45,11.28,2.5,7.68,6.73-1.73,2.19-20,27.08-34.45,42.74,6.27-10,21-28.18,28.65-37.11a1.11,1.11,0,1,0-1.72-1.4c-13.93,16.59-39.14,46.34-40.39,63.71-.16,4.7,1.57,6.11,4.07,6.11,2.66,0,6.26-1.72,8.92-3A106.36,106.36,0,0,0,220.73,124a4.72,4.72,0,1,1,6.27,7c-10,8.61-23.49,19.25-34.29,19.25a14.35,14.35,0,0,1-5.17-.94C180.81,146.69,178.78,140.43,179.25,134.17Zm73.89-88.46a79.13,79.13,0,0,0-5.79,6.42,6,6,0,0,1-4.07,2,4.73,4.73,0,0,1-3.29-8c2.35-2.5,3.91-4.69,6.26-7a4.77,4.77,0,0,1,6.89,6.57Z" style="fill:#fff"/><path d="M191.46,194.91c0-6.42,3-13.46,8.61-19.26,8.14-8.14,27.71-16,49.15-20.66A168.33,168.33,0,0,1,281,151.54c11.59,0,22.86,1.73,33.51,6.42a4.84,4.84,0,0,1,2.5,6.27,4.75,4.75,0,0,1-6.26,2.34c-9.08-4.07-20.35-5.63-31.47-5.63a118.8,118.8,0,0,0-28.18,3.29,146.37,146.37,0,0,0-27.86,8.29c-8,3.6-13.47,6.73-16.44,9.71-5.48,5.79-6.73,11.74-5.48,16,1.25,3.91,4.7,7.36,11.43,7.36,17.06,0,33.81-15.66,50.56-38.67l1.73-2.66a80.7,80.7,0,0,1,12-.94l-1.88,3c-17.53,26-38.82,48.69-62.46,48.69-10.49,0-18-5.79-20.36-14.09A19.13,19.13,0,0,1,191.46,194.91Zm24.26-66.85c8.14-6.73,16.75-14.87,25.36-23.48a65.66,65.66,0,0,0-8,20.82c-3.76,3.6-8,7-11.59,10-2,1.72-4.69,1.25-6.41-.78A4.58,4.58,0,0,1,215.72,128.06Zm18.94,5c0-9.08,3.92-19.57,6.74-24.89,7.35-13.15,18.47-27.24,31.93-36.32,8.77-6.26,19.26-9.71,27.87-9.71a24.1,24.1,0,0,1,9.86,2c3.45,1.72,5,4.38,5,7,0,3.92-3.6,7.67-10.8,7.83-25.68.31-52.45,34.29-49,27.71C263.63,93.15,285.7,71.23,305,73.58c2.34.47,2.5-1.72.31-2-22.86-2.35-44.77,21.13-55.58,41.17-4.22,7.51-6.1,14.56-5.95,19.72,0,5.95,2.51,8,5.95,8,5.17,0,12.37-4.54,16-7.05,6.73-4.54,25.36-19.88,32.25-26.77-2.66,5.17-10.49,16.75-13.46,22.7-9.08,7.36-21.61,20.67-35.07,20.67a16.18,16.18,0,0,1-4.7-.63C237.17,146.85,234.66,140.43,234.66,133.07Zm91.27-64.66a4.18,4.18,0,0,1,5.48-1.09,4.47,4.47,0,0,1,2.67,5.79c-1.73,5.17-6.42,12.68-12.53,20.35l8.46-15c.46-.47.31-.94-.32-1.41-.78-.31-1.25-.15-1.56.32-13.31,23.32-25.68,44.77-42.27,72.33-3.76-.47-7.36,0-11,0,10.17-17.54,19.1-32.41,29.27-49.32C312.16,87.2,319.2,75.77,325.93,68.41Z" style="fill:#fff"/><path d="M400.92,117c.94-23.33,20.82-39.46,39.45-39.46a28.44,28.44,0,0,1,15.34,4.23c2.35,1.25,2.82,4.07,1.41,6.42a4.62,4.62,0,0,1-6.58,1.41,18.58,18.58,0,0,0-10-2.82c-13.62,0-29.27,12.68-30.21,30.69-.78,16.9,12.52,31.15,30.84,31.62,18.63.78,35.7-12.21,50.57-29.12,21.76-25,55.42-72.48,74.36-93.93l2.66-3a124.3,124.3,0,0,1,10.8-9.86c0-.16,0-.16.16-.16q4.93-3.75,8.92-4.22a4.8,4.8,0,0,1,4.54,7.2c-1.72,2.66-5.32,4.54-8.29,5.64,1.72-1.41,4.22-3,6-4.7.62-.47.62-.94,0-1.57a1.44,1.44,0,0,0-1.57,0c-19.1,13-75.15,92.84-90.33,110.69-15.5,17.53-34.76,33.18-58.08,32.4C417.82,158,399.66,139.33,400.92,117ZM569.21,18.63a178.57,178.57,0,0,0-27.08-2.19c-26.93,0-50.88,7.2-63.56,26.93a41.16,41.16,0,0,0-6.89,21.91c0,10.49,5,19.1,13.15,21.61a14.49,14.49,0,0,0,5.17.94c3.6,0,7.2-1.41,10.48-5a4.68,4.68,0,0,1,6.58-.32,4.73,4.73,0,0,1,.31,6.74c-5.48,5.63-11.89,8.14-18.16,8.14a25.07,25.07,0,0,1-8.29-1.57c-12.22-5-19.1-17.06-19.1-31a48.41,48.41,0,0,1,10-28.8c16.6-22.23,44.78-28.18,70.45-28.18a199.69,199.69,0,0,1,36.17,3.44Z" style="fill:#fff"/><path d="M526.31,128.22c10.8-8.77,22.23-20,32.72-30.69,1.72-1.88,6.73-8,12.84-15-10,14.41-19.73,29.59-28.49,43.37-3.76,3.29-7.52,6.57-11.12,9.55a4.57,4.57,0,0,1-6.57-.63A4.69,4.69,0,0,1,526.31,128.22Zm88.92-23.8c6.89-8,13.78-14.87,18.63-21.6a35.35,35.35,0,0,0,4.86-8.14c1.41-4.39-1.57-5.48-5-5.48a22.87,22.87,0,0,0-6.58,1.09c-31.31,9.87-67,49-82.81,77.18a4.34,4.34,0,0,1-3.92,2.35c-3.13,0-6.1-3-4.38-6.73,17.06-29.28,35.07-58.24,51.82-79.37,3-3.76,5.63-7.36,10-5a4.56,4.56,0,0,1,2,4.54c-.78,2.82-3.13,5.48-5,8l-7,9.24a256.88,256.88,0,0,0-29.28,29.27,1,1,0,0,0,.16,1.57c.47.47.94.31,1.41-.16C577,91.27,600.2,68.88,624.31,61.37A26.61,26.61,0,0,1,632.77,60c8.45,0,15.81,4.23,15.81,12.21a16.85,16.85,0,0,1-1.1,5.79c-1.25,3.61-3.44,6.89-6.1,10.49-5.17,6.89-12.37,14.72-19.1,22.08-6.89,8-12.53,14.71-15,20.51a14.57,14.57,0,0,0-1.25,5c0,3.28,2,4.69,5,4.69a17.84,17.84,0,0,0,7.67-2.35c5.48-3,12.05-8.14,19.41-14.4a4.72,4.72,0,0,1,6.11,7.2c-7.36,6.42-14.56,11.9-21,15.5a24.53,24.53,0,0,1-12.21,3.6c-8.46,0-14.56-5.64-14.56-13.93a20.71,20.71,0,0,1,2.19-9.08C601.93,119.92,608.5,111.94,615.23,104.42Z" style="fill:#fff"/></svg>