<?xml version="1.0" encoding="utf-8"?>
<!-- Generator: Adobe Illustrator 25.2.1, SVG Export Plug-In . SVG Version: 6.00 Build 0)  -->
<svg version="1.1" id="Layer_1" xmlns="http://www.w3.org/2000/svg" xmlns:xlink="http://www.w3.org/1999/xlink" x="0px" y="0px"
	 viewBox="0 0 668.5 234.8" style="enable-background:new 0 0 668.5 234.8;" xml:space="preserve">
<style type="text/css">
	.st0{fill:#7D1E06;}
	.st1{fill:#FFFFFF;}
</style>
<path class="st0" d="M11,161.2C3.3,155.9,0,147.9,0,138c0-25,24.7-62.2,40.2-79C70.9,25.8,110.5,2.5,145.1,2.5c3,0,6,0.2,8.9,0.6
	c14.1,2.5,23.9,8.8,30.2,17.4l8,8c8.8,8.8,12.7,21.3,12.7,34.9c-0.1,8.5-1.4,16.9-3.9,25v0.2c-3.8,12.5-11.1,25.8-20,37.6l8.1,8
	c2,2.2,3.2,5,3.1,8c0,3.2-1.3,6.4-3.6,8.6c-1.4,1.1-4.1,3.3-5,4.2c-6.3,4.2-18.6,9.9-27.9,10c-5.3,0.1-10.5-0.5-15.6-1.7
	c-12.5,5.6-23,9.1-30.1,9.1c-2.5,0-4.9-0.2-7.4-0.6c-8.6-1.7-15.2-4.9-19.7-9.4l-4.4-4.4c-12.5,9.6-29,19.7-41.2,19.7
	c-3.1,0.1-6.1-0.5-8.9-1.7c-3.1-1.3-5.9-3.1-8.3-5.5L11,161.2z M113.8,54.2c-16.3,9.9-31.2,22-44.1,36
	c-11.9,13.5-22.4,29.9-28.2,43.4c8-5.5,15.5-11.8,22.4-18.8C77.5,100.7,96.8,77.2,113.8,54.2z M115.8,119.8l5.5,3
	c18.2-13.8,37.4-36.5,44-53.2c1.7-5.5,2.6-11.3,2.7-17.1c0-1.3-0.2-2.3-0.2-3.6c-0.4,1.3-0.9,2.5-1.6,3.6
	C152.6,73.3,133.5,98.5,115.8,119.8L115.8,119.8z"/>
<path class="st0" d="M260.6,36.6l10.2,10c2.2,2.2,3.4,5.2,3.4,8.3c-0.1,3.1-1.2,6-3.3,8.3c-1.5,1.3-2.8,2.8-4.1,4.4l-1.9,2.2
	c-2.3,2.5-5.4,4-8.8,4.2c1.5,3.2,1,7-1.2,9.7l-0.3,0.3l-1.4,1.9c-3.9,5.3-13.5,18-23.8,30.4c1.4,0.8,2.6,1.7,3.8,2.8
	c0.6,0.7,1.2,1.5,1.7,2.3l10.5,10.5c2,2.1,3,4.9,3,7.8c0,3.6-1.5,7-4.1,9.4c-11,9.4-25.8,21-39.1,21c-2.7,0-5.3-0.5-7.8-1.4
	c-2.6-1-5-2.6-7-4.5l-8.6-8.6c-4.4,1.7-9.3,0.6-12.5-2.8l-9.9-9.9c-1.4-0.8-2.6-1.8-3.6-3c-2-2.2-3.2-5.1-3.1-8.1
	c-0.1-3.8,1.6-7.3,4.5-9.7c8-6.7,20.2-17.5,32.4-28.3c6.5-9.7,21.3-27.4,33.3-38.8c2.1-1.7,4.8-2.7,7.5-2.7h0.6
	c-0.3-0.9-0.4-1.8-0.3-2.7c0-3.1,1.2-6.1,3.3-8.5c0.7-0.7,1.3-1.4,1.9-2.2l0.9-1.1l3.9-4.2c2.3-2.4,5.5-3.8,8.8-3.8
	c3.2,0,6.3,1.3,8.6,3.4C259.2,34.3,260,35.4,260.6,36.6z"/>
<path class="st0" d="M322.8,60.3l0.3,0.5c1.8-1.1,3.9-1.7,6.1-1.7c1.6,0,3.2,0.3,4.7,0.9v-0.2c2.8,1,5.2,3,6.7,5.6L351,75.6
	c3.1,3.3,4.1,8.1,2.6,12.4c-1.9,5.8-7.4,14.4-14.6,23.5l-24.6,38c0.9,0.5,2,0.8,3.1,1.2c2.6,1.2,4.7,3.2,6.1,5.6l9.9,9.9
	c2.4,2.3,3.7,5.5,3.8,8.8c0,1.7-0.3,3.3-1.1,4.9c-2,4.3-6.4,7-11.1,7c-1.7,0-3.4-0.3-5-1.1l-0.1-0.2c-7-3.1-16-4.5-24.9-4.9l-1.2,2
	c-18.8,27.7-41.8,52-68.6,52c-8.6,0-15.6-3-20.7-8c-9.4-8.3-21-17.7-21-31.9c0-8.5,3.8-17.4,10.8-24.7c5.9-5.9,16.6-11.7,29.4-16.3
	l-1.2-1.1l-10-10c-1.3-0.7-2.5-1.6-3.4-2.8c-2-2.2-3.1-5-3.1-8c0-3.8,1.7-7.5,4.7-9.9c5.8-4.8,13.8-12.2,19.9-18
	c3-3.9,5.8-8.5,8.9-12.7c7.3-9.6,15.8-18.2,25.4-25.7c11.4-8.3,24.7-15.3,37.3-15.3c3.1,0,6.1,0.4,9.1,1.2
	C316,53.1,320.1,56.1,322.8,60.3z"/>
<path class="st0" d="M579.7,3.8c2.6-1.5,5.4-2.4,8.3-2.8c4.9-0.3,9.5,2.3,11.9,6.6l10.2,10c2.3,2.3,3.6,5.4,3.6,8.6
	c0,2.3-0.7,4.5-1.9,6.4c-2.7,4.1-8.8,7.4-13.9,9.2l-0.3-0.2c-14.9,15.5-39.1,47.4-57.3,71.7c-9.5,12.7-18.9,24.9-23.3,30.1
	c-16.8,18.9-37.7,35.7-63.7,34.9H453c-12.1-0.4-23.5-5.4-31.9-14.1l-7.4-7.4c-12.7-9.5-20.3-24.4-20.7-40.2
	c2.2-26.8,25.5-47,47.3-47c4.8,0,9.6,1,14.1,2.8c-0.3-2.5-0.5-5.1-0.5-7.7c0.1-12.1,4.2-23.9,11.6-33.5C484,6.6,514.6,0,542.3,0
	C552.3,0,565.6,1.6,579.7,3.8z M431.9,139c2.9,1.5,6.1,2.2,9.4,2.2c15.8,0.8,31.3-11.4,44.5-26.5l1.1-1.2c-3-1.7-5.7-3.8-8.1-6.3
	l-2.8-2.8c-2,3.6-5.7,5.9-9.9,6c-2.4-0.1-4.8-0.7-6.9-2c-1.8-1.1-3.9-1.7-6.1-1.7c-10,0-21.6,10.3-22.9,23.6
	C430.2,133.3,430.8,136.2,431.9,139z M514.3,79.2l9.9-12.8c0.6-0.9,1.6-1.9,2.2-2.8c7.2-9.5,14.2-18.9,20.8-27.1
	c-21.3,1.4-39.9,8.3-49.8,23.3c-3.8,6.1-5.8,12.7-5.8,18v1.9c1.2-0.5,2.3-1.2,3.1-2.2c2.3-2.6,5.6-4.1,9.1-4.1
	c3.1,0.1,6.1,1.2,8.5,3.3C513,77.4,513.7,78.3,514.3,79.2L514.3,79.2z"/>
<path class="st0" d="M516.8,131.8c0-3.6,1.6-7.1,4.4-9.4c10.2-8.1,22.2-20,31.9-29.9l14.7-14.9c4.7-6.6,9.4-13,13.9-18.8
	c3.5-4.4,6.9-8.9,12.7-8.9c2.8,0.1,5.6,0.9,8,2.3c1.5,1.2,2.8,2.7,3.8,4.4l2.8,3c4.1-2.3,8.4-4.2,12.8-5.8c3.6-1.1,7.3-1.7,11-1.7
	c8.9,0,16.9,3.5,21,10l9.5,9.6c3.3,3.1,5.2,7.5,5.2,13c-0.1,2.8-0.6,5.6-1.6,8.3h-0.2c-1.6,4.5-4,8.6-6.9,12.4
	c-3.3,4.2-6.9,8.6-10.6,12.8l1.2,1.1l1.6,2.2l10.7,10.6c1.9,2.3,3,5.2,3,8.1c0,3.5-1.6,6.8-4.2,9.1c-7.5,6.4-15.5,12.5-22.1,16.3
	c-4.8,2.8-10.2,4.3-15.8,4.5c-6,0.2-11.7-2.1-16-6.3l-9.1-9.1c-6.1-3.8-9.9-10.2-9.9-18.5c0-2.9,0.4-5.8,1.4-8.6
	c-11,11.9-20.5,24.6-26.8,35.8c-2,3.8-6,6.2-10.3,6.1c-3.4,0-6.6-1.3-8.9-3.7c-13.3-11.7-15.8-14.9-16.4-18.8l-4.1-4.2
	c-1.4-0.8-2.7-1.9-3.8-3.1C517.8,137.6,516.8,134.8,516.8,131.8z"/>
<path class="st1" d="M7.8,138.1c0-22.9,23.5-57.8,38.2-73.7c29.4-31.6,66.8-54,99.1-54c2.6,0,5.2,0.2,7.8,0.5
	c23,3.9,32.1,20.5,32.1,40.1c-0.1,7.8-1.3,15.6-3.6,23c-7,23.6-26.9,49.8-44.8,60.3c-3.8-0.6-9.7-2.4-11.1-3.1
	c17.1-8.9,39.9-36.2,47.3-59.2c1.9-6.3,3-12.8,3-19.4c0-15.7-6.4-30.4-24.1-32.4c-2.3-0.3-4.7-0.5-7-0.5c-28,0-63.1,19.7-93,53.2
	c-19.1,21.5-34.3,49.9-34.3,65.3c0,5,1.6,8.4,5.2,10c10.6,4.4,38.7-19.3,47-28c20-20.8,50.6-59.2,70.1-89.2c1.4-2.2,4.4-2.8,6.6-1.4
	c2.2,1.4,2.8,4.4,1.4,6.6l0,0c-16.8,25.8-42,58.2-61.8,80.3c-9.9,0-17.8,9.6-17.5,18C57.9,143.7,38.6,158,25,158
	c-2,0.1-4.1-0.3-6-1.1C11,153.3,7.8,146.5,7.8,138.1z M79.8,120.1c2.5-1.1,5.1-1.7,7.8-1.7c11.1,0,24.1,7.8,31.8,12
	c7.7,4.5,14.2,6.3,20,6.3c8.1,0,15-3.4,22.2-8.3c1.1-0.8,2-1.7,2.8-2.2c1.9-1.7,4.8-1.5,6.4,0.3l0.1,0.1c1.7,2,1.5,4.9-0.5,6.6
	c-1.3,1-2.6,2-3.8,3.1c-5.5,3.8-16.1,8.6-23.8,8.8c-24.7,0.6-41-17.8-54.2-17.8c-1.7,0-3.4,0.3-5,1.1c-2.8,1.4-4.1,4.2-3.4,6.4
	c0.5,2.2,2.2,6.4,11.9,8.3c1.5,0.3,3,0.4,4.5,0.3c5.6-0.1,11-1.3,16.1-3.5c3.6,2.1,7.4,3.8,11.4,4.9c-9.1,4.7-18.2,7.8-26.9,7.8
	c-2,0-4-0.1-6-0.5c-11.4-2.2-18.5-7.7-20.2-14.9S73.6,123.2,79.8,120.1L79.8,120.1z"/>
<path class="st1" d="M162.2,128.1c8-6.7,19.9-17.2,28.3-25.7c-4.4,6.4-9.7,15.7-11.7,23.8c-3.8,3.6-7.1,6.3-10.6,9.2
	c-2,1.6-5,1.3-6.7-0.7S160.1,129.7,162.2,128.1L162.2,128.1z M179.2,134.2c1.8-13.5,9.2-25.2,16.8-36c6.1-9.1,20.7-26.3,32.9-38
	c4.2-3.5,11.3,2.5,7.7,6.7c-1.7,2.2-20,27.1-34.4,42.7c6.3-10,21-28.2,28.6-37.1c0.4-0.5,0.4-1.2-0.1-1.6s-1.2-0.4-1.6,0.1
	c0,0,0,0.1-0.1,0.1c-13.9,16.6-39.1,46.3-40.4,63.7c-0.2,4.7,1.6,6.1,4.1,6.1c2.7,0,6.3-1.7,8.9-3c6.9-3.9,13.3-8.6,19.1-13.9
	c1.8-1.9,4.8-2,6.7-0.3c1.9,1.8,2,4.8,0.3,6.7c-0.2,0.2-0.4,0.4-0.7,0.6c-10,8.6-23.5,19.2-34.3,19.2c-1.8,0-3.5-0.3-5.2-0.9
	C180.8,146.7,178.8,140.4,179.2,134.2z M253.1,45.7c-2,2-4,4.2-5.8,6.4c-1,1.2-2.5,1.9-4.1,2c-2.6-0.1-4.7-2.2-4.6-4.9
	c0-1.2,0.5-2.3,1.3-3.1c2.4-2.5,3.9-4.7,6.3-7c1.9-1.8,5-1.7,6.7,0.3C254.6,41.2,254.7,43.9,253.1,45.7L253.1,45.7z"/>
<path class="st1" d="M191.5,194.9c0-6.4,3-13.5,8.6-19.3c8.1-8.1,27.7-16,49.1-20.7c10.5-2.2,21.1-3.3,31.8-3.5
	c11.6,0,22.9,1.7,33.5,6.4c2.4,1.1,3.5,3.8,2.5,6.3c-1.1,2.4-3.9,3.4-6.3,2.3c-9.1-4.1-20.4-5.6-31.5-5.6c-9.5,0-19,1.1-28.2,3.3
	c-9.5,1.8-18.9,4.6-27.9,8.3c-8,3.6-13.5,6.7-16.4,9.7c-5.5,5.8-6.7,11.7-5.5,16c1.2,3.9,4.7,7.4,11.4,7.4
	c17.1,0,33.8-15.7,50.6-38.7l1.7-2.7c4-0.6,8-0.9,12-0.9l-1.9,3c-17.5,26-38.8,48.7-62.5,48.7c-10.5,0-18-5.8-20.4-14.1
	C191.7,199,191.4,196.9,191.5,194.9z M215.7,128.1c8.1-6.7,16.8-14.9,25.4-23.5c-3.8,6.4-6.5,13.5-8,20.8c-3.8,3.6-8,7-11.6,10
	c-2,1.7-4.7,1.2-6.4-0.8c-1.6-1.9-1.4-4.8,0.5-6.5C215.6,128.1,215.7,128.1,215.7,128.1z M234.7,133.1c0-9.1,3.9-19.6,6.7-24.9
	c7.4-13.2,18.5-27.2,31.9-36.3c8.8-6.3,19.3-9.7,27.9-9.7c3.4,0,6.8,0.6,9.9,2c3.5,1.7,5,4.4,5,7c0,3.9-3.6,7.7-10.8,7.8
	c-25.7,0.3-52.4,34.3-49,27.7c7.4-13.5,29.4-35.4,48.7-33.1c2.3,0.5,2.5-1.7,0.3-2c-22.9-2.3-44.8,21.1-55.6,41.2
	c-4.2,7.5-6.1,14.6-5.9,19.7c0,5.9,2.5,8,5.9,8c5.2,0,12.4-4.5,16-7.1c6.7-4.5,25.4-19.9,32.2-26.8c-2.7,5.2-10.5,16.8-13.5,22.7
	c-9.1,7.4-21.6,20.7-35.1,20.7c-1.6,0-3.2-0.2-4.7-0.6C237.2,146.9,234.7,140.4,234.7,133.1L234.7,133.1z M325.9,68.4
	c1.3-1.7,3.6-2.2,5.5-1.1c2.3,0.8,3.5,3.4,2.7,5.7c0,0,0,0,0,0.1c-1.7,5.2-6.4,12.7-12.5,20.3l8.5-15c0.5-0.5,0.3-0.9-0.3-1.4
	c-0.8-0.3-1.2-0.2-1.6,0.3c-13.3,23.3-25.7,44.8-42.3,72.3c-3.8-0.5-7.4,0-11,0c10.2-17.5,19.1-32.4,29.3-49.3
	C312.2,87.2,319.2,75.8,325.9,68.4L325.9,68.4z"/>
<path class="st1" d="M400.9,117c0.9-23.3,20.8-39.5,39.5-39.5c5.4-0.1,10.7,1.4,15.3,4.2c2.4,1.2,2.8,4.1,1.4,6.4
	c-1.3,2.2-4.2,2.9-6.3,1.6c-0.1,0-0.2-0.1-0.2-0.2c-3-1.9-6.5-2.9-10-2.8c-13.6,0-29.3,12.7-30.2,30.7
	c-0.8,16.9,12.5,31.2,30.8,31.6c18.6,0.8,35.7-12.2,50.6-29.1c21.8-25,55.4-72.5,74.4-93.9l2.7-3c3.4-3.5,7-6.8,10.8-9.9
	c0-0.2,0-0.2,0.2-0.2c3.3-2.5,6.3-3.9,8.9-4.2c2.6-0.2,5,1.7,5.2,4.4c0.1,1-0.1,2-0.6,2.8c-1.7,2.7-5.3,4.5-8.3,5.6
	c1.7-1.4,4.2-3,6-4.7c0.6-0.5,0.6-0.9,0-1.6c-0.5-0.3-1.1-0.3-1.6,0c-19.1,13-75.2,92.8-90.3,110.7c-15.5,17.5-34.8,33.2-58.1,32.4
	C417.8,158,399.7,139.3,400.9,117z M569.2,18.6c-9-1.4-18-2.1-27.1-2.2c-26.9,0-50.9,7.2-63.6,26.9c-4.3,6.5-6.7,14.1-6.9,21.9
	c0,10.5,5,19.1,13.1,21.6c1.7,0.6,3.4,0.9,5.2,0.9c3.6,0,7.2-1.4,10.5-5c1.7-1.9,4.7-2,6.6-0.3s2.1,4.7,0.4,6.7c0,0,0,0-0.1,0.1
	c-5.5,5.6-11.9,8.1-18.2,8.1c-2.8-0.1-5.6-0.6-8.3-1.6c-12.2-5-19.1-17.1-19.1-31c0.1-10.4,3.7-20.5,10-28.8
	c16.6-22.2,44.8-28.2,70.4-28.2c12.1,0,24.2,1.2,36.2,3.4L569.2,18.6z"/>
<path class="st1" d="M526.3,128.2c10.8-8.8,22.2-20,32.7-30.7c1.7-1.9,6.7-8,12.8-15c-10,14.4-19.7,29.6-28.5,43.4
	c-3.8,3.3-7.5,6.6-11.1,9.6c-1.9,1.6-4.8,1.4-6.4-0.5c0,0-0.1-0.1-0.1-0.2C524,132.8,524.3,129.9,526.3,128.2z M615.2,104.4
	c6.9-8,13.8-14.9,18.6-21.6c2-2.5,3.6-5.2,4.9-8.1c1.4-4.4-1.6-5.5-5-5.5c-2.2,0-4.5,0.4-6.6,1.1c-31.3,9.9-67,49-82.8,77.2
	c-0.8,1.5-2.3,2.4-3.9,2.4c-3.1,0-6.1-3-4.4-6.7c17.1-29.3,35.1-58.2,51.8-79.4c3-3.8,5.6-7.4,10-5c1.5,1,2.3,2.8,2,4.5
	c-0.8,2.8-3.1,5.5-5,8l-7,9.2c-10.5,9-20.3,18.7-29.3,29.3c-0.4,0.4-0.4,1,0,1.4c0.1,0.1,0.1,0.1,0.2,0.2c0.5,0.5,0.9,0.3,1.4-0.2
	c16.9-19.9,40.1-42.3,64.2-49.8c2.7-0.9,5.6-1.4,8.5-1.4c8.5,0,15.8,4.2,15.8,12.2c0,2-0.4,3.9-1.1,5.8c-1.2,3.6-3.4,6.9-6.1,10.5
	c-5.2,6.9-12.4,14.7-19.1,22.1c-6.9,8-12.5,14.7-15,20.5c-0.7,1.6-1.1,3.3-1.2,5c0,3.3,2,4.7,5,4.7c2.7-0.2,5.3-1,7.7-2.4
	c5.5-3,12-8.1,19.4-14.4c2-1.7,5-1.4,6.7,0.5c1.7,2,1.4,5-0.5,6.7c-7.4,6.4-14.6,11.9-21,15.5c-3.7,2.3-7.9,3.5-12.2,3.6
	c-8.5,0-14.6-5.6-14.6-13.9c0-3.2,0.8-6.3,2.2-9.1C601.9,119.9,608.5,111.9,615.2,104.4z"/>
</svg>
