<svg xmlns="http://www.w3.org/2000/svg" viewBox="0 0 281.85 87.15"><path d="M17.61,46.85a16.7,16.7,0,0,0-6.15-2.25c-4.75-.53-7.13,2-7.46,4.29s1.06,5.82,5.81,6.94a33.22,33.22,0,0,0,5,.4A21.9,21.9,0,0,0,25.6,53.58l.2-.13,3.83,2.38h-.07A26.66,26.66,0,0,1,14.7,60.25a32.24,32.24,0,0,1-5.48-.46C2.61,58.07-.62,53.06.1,48.3s5.22-8.39,11.76-7.66c5.81.59,10.77,4.62,15.19,7.73C33.46,52.86,40.2,56.75,47.26,57c4.76.2,9.19-1.25,13.68-4.69L65,48.89a2,2,0,0,1,2.57,3c-1.52,1.32-2.9,2.51-4.29,3.5-5.29,4-10.5,5.88-16.58,5.42C35.11,60,27.32,52.46,17.61,46.85Zm9.51-19.69a18.8,18.8,0,0,1,.13-2c.86-8.06,6.94-16.18,16.91-17a1.85,1.85,0,0,1,2.11,1.78A1.85,1.85,0,0,1,44.49,12c-7.73.73-12.55,7-13.28,13.55-.86,8.12,4,12.35,11.1,13.74a17.29,17.29,0,0,0,3.11.33c13.54,0,27.41-17.84,29.79-26.1a15.88,15.88,0,0,0,.59-3.89c0-3-1.32-5.55-5.28-5.29-5.42.4-10.77,6.28-13.94,11.16-4.76,7.27-8.59,16.52-12.35,23a14.12,14.12,0,0,1-4-1.05C44,31,48.32,21.28,53.41,13.49,56.91,8.14,63.58.41,70.78.28c6.21-.2,9,4.09,9,9.38A18.81,18.81,0,0,1,79,14.61C76,25.18,61,43.48,44.76,43.48a18.18,18.18,0,0,1-2.65-.2C33.13,41.89,27.12,35.82,27.12,27.16ZM36.83,43a33.59,33.59,0,0,0,3.9,1.25,37.28,37.28,0,0,1-6.28,7.67c-1.32-.73-2.44-1.32-3.57-2A47.66,47.66,0,0,0,36.83,43Z" style="fill:#fff"/><path d="M63,50.68c2.38-2,4.89-4.3,7.47-6.74a17.86,17.86,0,0,0-1.85,7.13L65.5,53.72a2,2,0,0,1-2.51-3Zm6.54,1C69.34,44.33,75.74,35.35,80,34.3a35.29,35.29,0,0,0-1.92,6.53c-3.5,4.5-4.62,8-4.62,10.57s1.12,4.1,2.18,4.5c1.52.59,3.57.13,6.47-1.46a13,13,0,0,0,3.77,2.38c-3,2-6.08,3.3-8.85,3.3a7.72,7.72,0,0,1-2.78-.53C71.58,58.54,69.67,55.7,69.53,51.67Zm9.32-9.58c1.25-8.46,8.12-20,17-20.94,6-.46,9.31,4.16,8.52,9.51-1.06,7.86-7.6,16.52-13,21.54A8.06,8.06,0,0,1,87,50.88C92.45,46.25,97.08,40.24,99.39,34a13.78,13.78,0,0,0,1-4.69c0-2.38-1-4.42-4.1-4.23-6.73.47-12.68,11-13.47,16.72-.07.72-.13,1.45-.13,2.11,0,3.1,1,5.75,3.43,7.53A9.71,9.71,0,0,0,91.33,53c3.44,0,6.87-1.65,9.71-3.9a1.89,1.89,0,0,1,3.24,1.46,2.43,2.43,0,0,1-.86,1.78A18.08,18.08,0,0,1,91.66,57a15.45,15.45,0,0,1-4.89-.79C80.7,54.05,78.32,47.9,78.85,42.09Z" style="fill:#fff"/><path d="M89,78.82a12,12,0,0,1,3.63-8.13C96,67.26,104.28,64,113.33,62a71.09,71.09,0,0,1,13.41-1.45,34.59,34.59,0,0,1,14.14,2.71,2,2,0,1,1-1.59,3.63A33.21,33.21,0,0,0,126,64.48a50.2,50.2,0,0,0-11.89,1.39,61.79,61.79,0,0,0-11.75,3.5c-3.37,1.52-5.68,2.84-6.94,4.1-2.31,2.44-2.84,5-2.31,6.73s2,3.11,4.82,3.11c7.2,0,14.27-6.61,21.34-16.32l.72-1.12a35,35,0,0,1,5.09-.4l-.79,1.26c-7.4,11-16.38,20.54-26.36,20.54-4.43,0-7.6-2.44-8.59-5.94A8.08,8.08,0,0,1,89,78.82ZM99.19,50.61c3.44-2.84,7.07-6.28,10.71-9.91a27.48,27.48,0,0,0-3.37,8.79c-1.59,1.52-3.37,3-4.89,4.23a1.87,1.87,0,0,1-2.71-.33A1.94,1.94,0,0,1,99.19,50.61Zm8,2.12A25.39,25.39,0,0,1,110,42.22c3.1-5.55,7.79-11.49,13.47-15.32a21.26,21.26,0,0,1,11.76-4.1,10.11,10.11,0,0,1,4.16.86,3.37,3.37,0,0,1,2.12,3c0,1.65-1.52,3.24-4.56,3.3-10.83.14-22.13,14.47-20.68,11.7,3.11-5.75,12.42-15,20.55-14,1,.2,1.05-.72.13-.86-9.65-1-18.89,8.92-23.45,17.38A16.85,16.85,0,0,0,111,52.46c0,2.51,1,3.37,2.51,3.37,2.18,0,5.22-1.92,6.74-3a145.5,145.5,0,0,0,13.61-11.3c-1.13,2.18-4.43,7.07-5.68,9.58-3.84,3.1-9.12,8.72-14.8,8.72a6.82,6.82,0,0,1-2-.27C108.25,58.54,107.19,55.83,107.19,52.73ZM145.7,25.44A1.77,1.77,0,0,1,148,25a1.88,1.88,0,0,1,1.12,2.44A32.32,32.32,0,0,1,143.85,36l3.57-6.34c.19-.2.13-.4-.14-.59s-.52-.07-.66.13C141,39.05,135.79,48.1,128.79,59.73a35.61,35.61,0,0,0-4.62,0c4.29-7.4,8-13.68,12.35-20.81C139.88,33.37,142.86,28.55,145.7,25.44Z" style="fill:#fff"/><path d="M177.35,45.92c.39-9.84,8.78-16.65,16.64-16.65a12,12,0,0,1,6.48,1.79,1.87,1.87,0,0,1,.59,2.71,2,2,0,0,1-2.78.59,7.84,7.84,0,0,0-4.22-1.19c-5.75,0-12.36,5.35-12.75,12.95-.33,7.13,5.28,13.14,13,13.34s15.07-5.15,21.34-12.28C224.84,36.61,239,16.59,247,7.54l1.12-1.25a49.07,49.07,0,0,1,4.56-4.16c0-.07,0-.07.06-.07A8,8,0,0,1,256.55.28a2,2,0,0,1,1.91,3A7.12,7.12,0,0,1,255,5.69a29.35,29.35,0,0,0,2.51-2c.27-.2.27-.4,0-.66a.61.61,0,0,0-.66,0c-8.06,5.48-31.71,39.17-38.11,46.7s-14.67,14-24.51,13.68S176.82,55.37,177.35,45.92Zm71-41.48a74.72,74.72,0,0,0-11.43-.93c-11.36,0-21.47,3-26.82,11.36a17.45,17.45,0,0,0-2.91,9.25c0,4.43,2.12,8.06,5.55,9.12a6.14,6.14,0,0,0,2.18.39,5.85,5.85,0,0,0,4.43-2.11,2,2,0,0,1,2.77-.13,2,2,0,0,1,.14,2.84,10.61,10.61,0,0,1-7.67,3.43,10.49,10.49,0,0,1-3.5-.66C206,34.89,203,29.8,203,23.92a20.4,20.4,0,0,1,4.23-12.15C214.27,2.39,226.16-.12,237-.12a84.5,84.5,0,0,1,15.26,1.45Z" style="fill:#fff"/><path d="M230.26,50.68a179.68,179.68,0,0,0,13.81-13c.73-.79,2.84-3.37,5.41-6.34-4.22,6.08-8.32,12.48-12,18.3-1.58,1.38-3.17,2.77-4.69,4a1.93,1.93,0,0,1-2.77-.27A2,2,0,0,1,230.26,50.68Zm37.52-10c2.91-3.37,5.82-6.28,7.86-9.12a14.92,14.92,0,0,0,2.05-3.43c.6-1.85-.66-2.32-2.11-2.32a9.61,9.61,0,0,0-2.78.47c-13.21,4.16-28.27,20.67-34.94,32.56a1.83,1.83,0,0,1-1.65,1A2,2,0,0,1,234.36,57c7.2-12.35,14.79-24.57,21.86-33.49,1.26-1.58,2.38-3.1,4.23-2.11a1.92,1.92,0,0,1,.86,1.91,11.27,11.27,0,0,1-2.12,3.37l-3,3.9a109.6,109.6,0,0,0-12.35,12.35.41.41,0,0,0,.06.66c.21.2.4.13.6-.06,7.14-8.39,16.91-17.84,27.09-21a11.3,11.3,0,0,1,3.56-.59c3.57,0,6.67,1.78,6.67,5.15a7.17,7.17,0,0,1-.46,2.44,17,17,0,0,1-2.58,4.43c-2.18,2.91-5.21,6.21-8.06,9.31-2.9,3.37-5.28,6.21-6.34,8.66a6.17,6.17,0,0,0-.53,2.11c0,1.39.86,2,2.12,2a7.51,7.51,0,0,0,3.24-1,53.07,53.07,0,0,0,8.19-6.08,2,2,0,0,1,2.57,3,55.52,55.52,0,0,1-8.85,6.54A10.34,10.34,0,0,1,266,60c-3.57,0-6.15-2.38-6.15-5.88a8.79,8.79,0,0,1,.93-3.83C262.17,47.18,264.94,43.81,267.78,40.64Z" style="fill:#fff"/></svg>