<?xml version="1.0" encoding="utf-8"?>
<!-- Generator: Adobe Illustrator 25.2.1, SVG Export Plug-In . SVG Version: 6.00 Build 0)  -->
<svg version="1.1" id="Layer_1" xmlns="http://www.w3.org/2000/svg" xmlns:xlink="http://www.w3.org/1999/xlink" x="0px" y="0px"
	 viewBox="0 0 1035.7 385.1" style="enable-background:new 0 0 1035.7 385.1;" xml:space="preserve">
<style type="text/css">
	.st0{fill:#D6BFAB;}
	.st1{fill:#F6E5C7;}
	.st2{fill:#B8896D;}
	.st3{fill:#C9AB89;}
	.st4{fill:#FFF1DC;}
	.st5{fill:#FFF1DD;}
	.st6{fill:#CAA078;}
	.st7{enable-background:new    ;}
	.st8{fill:#B75137;}
	.st9{fill:#FEE68F;}
	.st10{fill:#E5AD3B;}
	.st11{fill:#D69C42;}
</style>
<g>
	<path class="st0" d="M860.8,5.9l18,59.2l-600,81.9l-92.2-4.6l2.4-2.6L860.8,5.9 M862.1,0.1c-0.9-0.2-1.8-0.2-2.7,0l-671.8,134
		c-1.3,0.3-2.5,0.9-3.5,1.9l-2.4,2.6c-1.6,1.6-2,4.1-1.1,6.2c0.9,1.8,2.6,3.1,4.6,3.5c0.3,0.1,0.7,0.1,1,0.1l92.2,4.6
		c0.4,0,0.9,0,1.3-0.1L879.8,71c1.8-0.2,3.4-1.2,4.4-2.6c1-1.4,1.3-3.2,0.8-4.8L867,4.3C866.3,2.2,864.4,0.5,862.1,0.1z"/>
</g>
<g>
	<path class="st1" d="M186.5,143.5c-0.6,0-1-0.5-1-1c0-0.2,0.1-0.5,0.3-0.6l2.4-2.6c0.1-0.1,0.3-0.3,0.5-0.3L860.6,5
		c0.1,0,0.1,0,0.2,0c0.5,0,0.9,0.3,1,0.7l18,59.2c0.1,0.3,0,0.6-0.1,0.8c-0.2,0.2-0.4,0.4-0.7,0.4L278.9,148h-0.1L186.5,143.5z"/>
</g>
<g>
	<path class="st1" d="M860.8,5.9l18,59.2l-600,81.9l-92.2-4.6l2.4-2.6L860.8,5.9 M860.8,3.9c-0.1,0-0.3,0-0.4,0L188.6,138
		c-0.4,0.1-0.8,0.3-1.1,0.6l-2.4,2.6c-0.8,0.8-0.7,2.1,0.1,2.8c0.3,0.3,0.8,0.5,1.3,0.5l92.2,4.6h0.1h0.3l600-82
		c1.1-0.2,1.9-1.2,1.7-2.3c0-0.1,0-0.2-0.1-0.3l-18-59.2C862.4,4.5,861.7,3.9,860.8,3.9L860.8,3.9z"/>
</g>
<g>
	<polygon class="st2" points="873.2,46.8 291.8,145.3 878.8,65.1 	"/>
</g>
<g>
	<path class="st3" d="M1026.1,96.9l3.1,62.3l-876.7,14.3c-7.4-17.7,11.3-26.4,11.3-26.4L1026.1,96.9 M1026.8,90.5c-0.3,0-0.7,0-1,0
		l-862.4,50.1c-0.8,0-1.6,0.3-2.4,0.6c-4,2-7.7,4.8-10.6,8.2c-6.5,7.6-7.9,17.1-3.9,26.5c0.9,2.2,2.9,3.7,5.3,3.9c0.3,0,0.5,0,0.8,0
		l876.7-14.3c3.6-0.1,6.4-3,6.3-6.6c0-0.1,0-0.1,0-0.2l-3.1-62.3c-0.1-1.7-0.8-3.3-2.1-4.5C1029.4,91.2,1028.2,90.6,1026.8,90.5
		L1026.8,90.5z"/>
</g>
<g>
	<path class="st4" d="M152.5,174.5c-0.4,0-0.8-0.2-0.9-0.6c-7.7-18.4,11.6-27.6,11.8-27.7c0.1-0.1,0.2-0.1,0.4-0.1l862.4-50.2
		c0.2,0,0.5,0.1,0.7,0.3c0.2,0.2,0.3,0.4,0.3,0.7l3.1,62.3c0,0.3-0.1,0.5-0.3,0.7c-0.2,0.2-0.4,0.3-0.7,0.3L152.5,174.5z"/>
</g>
<g>
	<path class="st5" d="M1026.1,96.9l3.1,62.3l-876.7,14.3c-7.4-17.7,11.3-26.4,11.3-26.4L1026.1,96.9 M1026.1,94.9h-0.1l-862.3,50.2
		c-0.3,0-0.5,0.1-0.7,0.2c-0.2,0.1-20.4,9.8-12.3,29c0.3,0.7,1,1.2,1.8,1.2l0,0l876.7-14.3c0.5,0,1.1-0.2,1.4-0.6
		c0.4-0.4,0.6-0.9,0.5-1.5l-3.1-62.3C1028.1,95.7,1027.2,94.9,1026.1,94.9L1026.1,94.9z"/>
</g>
<g>
	<polygon class="st6" points="240.4,175.3 1027.8,133.3 1029.2,159.2 	"/>
</g>
<g class="st7">
	<path class="st8" d="M259.2,152.1c0.4-1.4,0.5-2.3,0.5-2.5c0-0.2,0-0.5-0.1-0.7c-0.5-0.1-1-0.1-1.5,0c-4.5,0.2-9.9,2.8-11.2,6
		c-0.1,1-1.6,1.8-2.9,1.8c-0.8,0-1.6-0.1-2.1-0.4l-2.6-1.7c-1-0.3-1.6-1.1-1.3-2.5c1.8-5,9.9-9.3,16.9-9.6c3.1-0.1,6.1,0.5,8.4,2.1
		l2.7,1.9l0.3-0.2c3-2,7.6-4.4,11.7-4.6c1.5-0.1,2.9,0.1,4.1,0.6c1,0.4,1.8,0.8,2.4,1.4l2.2,1.5l0,0l0.2,0.1c1.3,0.9,1.9,2,2,3.3
		c0.1,1.8-0.9,3.6-2.4,5.1c-0.6,0.6-2,1.8-3.6,3.2c-1.2,1.1-2.7,2.3-4,3.4c0.6,0.1,1.2,0.3,1.7,0.6c0.2,0.1,0.3,0.3,0.4,0.4l2.7,1.7
		c0.5,0.4,0.7,0.8,0.7,1.3c0,0.6-0.3,1.2-0.9,1.7c-2.5,1.7-6,3.8-9,4c-2,0.2-3.5-0.2-4.5-0.8l-2.3-1.5c-1.7-0.7-2.5-2-2.6-3.5
		c0-1.1,0.3-2.2,1-3.2l0,0c1.6-2.2,5.6-5.7,8.8-8.5c1.6-1.4,3-2.6,3.7-3.3c0.2-0.2,0.5-0.5,0.7-0.8c-2.1,0.6-4.5,1.9-6.4,3.3
		c-1.4,1-2.9,2.1-4.3,3.3c-2.1,5-10.1,14.6-14.1,16.3c-0.6,0.3-1.1,0.4-1.6,0.4c-0.8,0-1.6-0.2-2.1-0.5l-2.5-1.7
		c-1-0.4-1.7-1.2-1.8-2c0-0.3,0-0.6,0.2-0.9C248.2,163.7,253.4,157.5,259.2,152.1z"/>
	<path class="st8" d="M307.8,151.3c1.9-1.9,4.7-3.5,7.5-3.9c2.7-0.3,4.7,0.4,6,1.6l2.4,1.5c1.2,0.8,1.8,1.9,1.9,3.2
		c0,0.3,0,0.5,0,0.8l0,0c-0.3,1.7-1.3,3.5-2.6,5.2l1.9,1.2c0.6,0.4,1,1,1,1.6c0,0.6-0.3,1.2-1,1.7c-2.1,1.5-4.9,2.4-7.8,2.6
		c-0.9,0-1.8,0-2.7-0.1c-2.5,1.1-4.7,1.8-6.2,1.8c-1.6,0-2.8-0.4-3.7-1l-2.4-1.6c-1-0.5-1.8-1.1-2.3-1.9c-3.6,3.1-7.6,5.4-10.9,5.6
		c-1.2,0.1-2.4-0.1-3.5-0.4l0,0c-0.6-0.2-1.1-0.4-1.5-0.7l-2.1-1.3c-0.4,0.2-0.8,0.3-1.2,0.3c-0.7,0-1.5-0.2-2-0.5l-2.5-1.6
		c-0.3-0.1-0.6-0.3-0.9-0.5c-0.5-0.4-0.8-0.9-0.8-1.3c0-0.6,0.3-1.2,1-1.7c1.3-0.9,3.2-2.2,4.7-3.3c1.5-1.8,3.4-3.8,5.7-5.1l0.6-0.2
		c1.6-2.5,5.2-4.2,9.2-4.3c2-0.1,4.3,0.4,5.7,1.7l2.4,1.5c0.3,0.2,0.8,0.7,1,1C304.9,152.6,306.3,151.5,307.8,151.3z"/>
	<path class="st8" d="M346.7,157.8l0.2,0.2l0.4,0.4l2.6,1.7c0.5,0.4,0.8,0.9,0.8,1.3c0,0.6-0.3,1.2-1,1.6c-1.8,1.2-3.6,2.3-5.3,3.1
		c-1.2,0.5-2.6,1-4,1.1c-0.8,0-1.6-0.1-2.4-0.4c-0.3-0.1-0.5-0.2-0.7-0.4l-1.6-1l-0.2,0.1c-1.9,1-4,1.9-6.1,2c-0.6,0-1.1,0-1.7-0.1
		l0,0c-0.9-0.2-1.6-0.4-2.1-0.8l-2.3-1.5c-0.4,0.2-1,0.3-1.5,0.3c-0.7,0-1.5-0.1-2-0.5l-2.5-1.6c-0.3-0.1-0.6-0.3-0.9-0.5
		c-0.5-0.4-0.8-0.9-0.8-1.4c0-0.6,0.3-1.3,1-1.7c1.7-1.1,3.3-2.2,7.2-5.1c1.7-1.8,4.2-4,6.5-5.3c2.7-1.6,5.8-2.9,8.8-3
		c0.8,0,1.5,0,2.2,0.1c1,0.2,1.9,0.6,2.5,1.2c3.2-3,6.3-5.7,8.5-7.2c1-0.7,2.1-1.1,3.1-1.2c0.9,0,1.8,0.2,2.6,0.9l2.5,1.7
		c0.5,0.4,0.9,0.9,0.9,1.5c0,0.4-0.1,0.8-0.5,1.2C358.6,147.5,351.8,153.8,346.7,157.8z"/>
	<path class="st8" d="M399.8,156.1l-2.3-1.5c-5.8,5.7-13.9,12.4-22,12.2c-2.9-0.1-5.4-0.8-7.3-2.1l-1.9-1.2
		c-3.2-1.5-5.2-4.2-5.1-7.2c0.7-4.4,6.1-7.9,11.2-8.2c1.8-0.1,3.7,0.2,5.3,0.9c0.4,0.2,0.7,0.4,0.9,0.7l2.5,1.6
		c0.6,0.4,0.9,0.9,0.9,1.5c0,0.4-0.2,0.8-0.5,1.2c-0.6,0.6-1.4,1-2.3,1c-0.6,0-1.3-0.1-1.9-0.4l0,0c-0.4-0.2-1-0.3-1.6-0.2
		c-2.5,0.1-5.2,1.7-5.4,4.1c-0.1,0.6,0,1.2,0.3,1.7c0.6,0.2,1.3,0.3,2.1,0.3c4.7,0.1,9.9-3.8,13.8-7.3l-1.5-1
		c-0.8-0.3-1.4-0.8-1.5-1.5c-0.1-0.3-0.1-0.6,0-0.8c-1.7,0-3.1-0.5-4.1-1.2l-2.2-1.4c-0.6-0.2-1.1-0.6-1.6-1
		c-1.2-1.1-1.8-2.2-1.8-3.3c-0.1-3,3.5-5.7,7.8-6.5c1.3-0.2,2.7-0.4,4.1-0.4c3.2-0.1,7.7,0.1,11.4,0.3l1,0.1
		c2.3,0.1,4.4,0.3,6.2,0.3c1-0.4,2.6-1,3.8-1c1.4-0.1,2.6,0.4,3.2,1.1l2.4,1.6c0.7,0.5,1.1,1,1.1,1.6c0,0.4-0.2,0.8-0.5,1.2
		c-0.8,0.9-2.1,1.3-3.4,1.5l-0.7,0.5c-0.9,0.6-2.5,1.9-4.6,3.7l2.2,1.4c0.2,0.2,0.4,0.3,0.6,0.5l0,0c0.3,0.4,0.5,0.7,0.5,1.1
		c0,0.6-0.3,1.2-0.7,1.7c-0.6,0.5-1.8,1-3.4,1.5c-0.4,1.5,0.2,3.1-2.8,3.4C401.2,156.7,400.4,156.4,399.8,156.1z M389.2,148
		c0.2,0,0.4,0,0.6,0l0.2,0l1.9,0c2.1-2.2,4.1-4,5.7-5.4c-3-0.2-6.1-0.2-8.5-0.1c-1.3,0.1-2.4,0.2-3.2,0.3c-0.8,0.1-1.4,0.4-2,0.7
		c0.8,0.1,1.5,0.5,2,1l2.4,1.6c0.3,0.2,0.6,0.5,0.8,0.8C389.3,147.2,389.4,147.6,389.2,148z"/>
	<path class="st8" d="M422.8,140.3l2.5,1.6c0.5,0.4,0.9,0.9,0.9,1.4c0,0.5-0.2,1-0.7,1.5c-0.3,0.2-0.7,0.5-1,0.8l-0.4,0.4
		c-0.7,0.5-1.4,0.8-2.1,0.8c0.3,0.5,0.4,1.1-0.2,1.7l-0.1,0.1l-0.3,0.3c-0.9,1-3.1,3.3-5.5,5.5c0.3,0.1,0.7,0.3,0.9,0.4
		c0.2,0.1,0.3,0.3,0.4,0.4l2.6,1.7c0.5,0.4,0.8,0.8,0.8,1.3c0,0.6-0.3,1.2-0.9,1.7c-2.6,1.7-6.1,3.9-9.3,4c-0.6,0-1.3,0-1.9-0.2
		c-0.7-0.2-1.3-0.4-1.7-0.7l-2.2-1.4c-1,0.3-2.2,0.2-3.1-0.4l-2.5-1.6c-0.3-0.1-0.6-0.3-0.9-0.5c-0.5-0.4-0.8-0.9-0.8-1.4
		c0-0.6,0.3-1.3,1-1.7c1.9-1.3,4.8-3.3,7.6-5.3c1.5-1.8,5-5,7.8-7.1c0.6-0.3,1.2-0.5,1.8-0.5l0.2,0c-0.1-0.1-0.1-0.3-0.1-0.5
		c0-0.5,0.2-1,0.7-1.5c0.2-0.1,0.3-0.3,0.4-0.4l0.2-0.2l0.9-0.8c0.6-0.5,1.3-0.7,2.1-0.7c0.7,0,1.5,0.1,2.1,0.5
		C422.4,139.9,422.6,140.1,422.8,140.3z"/>
	<path class="st8" d="M410.3,157.3c0-0.6,0.3-1.2,1-1.7c2.4-1.5,5.2-3.7,7.5-5.5l3.5-2.7c1.1-1.2,2.2-2.3,3.2-3.4
		c0.8-0.8,1.6-1.6,3-1.7c0.6,0,1.2,0.1,2,0.3c0.4,0.2,0.7,0.5,0.9,0.7l0.7,0.5c1-0.5,2-0.8,3.1-1.1c0.8-0.2,1.7-0.4,2.6-0.4
		c2.2-0.1,4.1,0.4,5.2,1.5l2.4,1.6c0.8,0.5,1.3,1.2,1.4,2.2c0,0.4-0.1,0.9-0.3,1.5l0,0c-0.4,0.9-0.9,1.5-1.6,2.2
		c-0.8,0.8-1.6,1.6-2.5,2.3l0.3,0.2l0.4,0.4l2.7,1.7c0.5,0.4,0.8,0.9,0.8,1.4c0,0.6-0.3,1.2-1,1.6c-1.8,1.2-3.7,2.3-5.2,3.1
		c-1.3,0.6-2.6,0.9-3.8,1c-1.6,0.1-2.9-0.3-3.9-0.9l-2.3-1.5c-1.5-0.6-2.5-1.7-2.5-3.1c0-0.5,0-1,0.3-1.5c-2.6,2.2-4.8,4.5-6.2,6.5
		c-0.5,0.8-1.5,1.1-2.5,1.2c-0.8,0-1.6-0.2-2.2-0.6c-3.3-1.9-3.9-2.4-4.1-3.1l-1-0.7c-0.3-0.1-0.7-0.3-0.9-0.5
		C410.6,158.3,410.3,157.8,410.3,157.3z"/>
	<path class="st8" d="M467.2,152.5l0.2,0.2l0.4,0.4l2.6,1.7c0.5,0.4,0.8,0.9,0.8,1.3c0,0.6-0.3,1.2-1,1.6c-1.8,1.2-3.6,2.3-5.3,3.1
		c-1.2,0.5-2.6,1-4,1.1c-0.8,0-1.6-0.1-2.4-0.4c-0.3-0.1-0.5-0.2-0.7-0.4l-1.6-1l-0.2,0.1c-1.9,1-4,1.9-6.1,2c-0.6,0-1.1,0-1.7-0.1
		l0,0c-0.9-0.2-1.6-0.4-2.1-0.8l-2.3-1.5c-0.4,0.2-1,0.3-1.5,0.3c-0.7,0-1.5-0.1-2-0.5l-2.5-1.6c-0.3-0.1-0.6-0.3-0.9-0.5
		c-0.5-0.4-0.8-0.9-0.8-1.4c0-0.6,0.3-1.3,1-1.7c1.7-1.1,3.3-2.2,7.2-5.1c1.7-1.8,4.2-4,6.5-5.3c2.7-1.6,5.8-2.9,8.8-3
		c0.8,0,1.5,0,2.2,0.1c1,0.2,1.9,0.6,2.5,1.2c3.2-3,6.3-5.7,8.5-7.2c1-0.7,2.1-1.1,3.1-1.2c0.9,0,1.8,0.2,2.6,0.9l2.5,1.7
		c0.5,0.4,0.9,0.9,0.9,1.5c0,0.4-0.1,0.8-0.5,1.2C479.1,142.2,472.2,148.5,467.2,152.5z"/>
	<path class="st8" d="M462.8,157c-0.3-0.1-0.6-0.3-0.9-0.5c-0.5-0.4-0.8-0.9-0.8-1.4c0-0.6,0.3-1.3,1-1.7c1.3-0.8,2.9-2,4.8-3.4
		c2-3.9,6.8-7.8,11.4-9.4c1.1-0.4,2.3-0.6,3.4-0.6c2.2-0.1,4,0.5,5.1,1.5l2.4,1.6c1.1,0.7,1.7,1.7,1.7,3c0,0.5,0,0.9-0.2,1.4
		c-0.5,1.8-2.1,3.4-4.1,4.7c0.1,0.1,0.1,0.1,0.2,0.2l2.6,1.7c0.5,0.4,0.8,0.8,0.8,1.3c0,0.6-0.3,1.2-1,1.7c-0.9,0.7-1.6,1.1-2.3,1.5
		c-2.5,1.5-5.6,2.6-8.5,2.8c-2.4,0.2-4.9-0.1-6.7-1.3l-2.2-1.5c0,0,0,0-0.1,0l-0.1,0.1l0,0c-0.5,0.4-1.2,0.6-1.8,0.6
		c-0.8,0-1.5-0.1-2.2-0.5L462.8,157z"/>
	<path class="st8" d="M481.2,155.3c-0.5-0.4-0.8-0.9-0.8-1.4c0-0.6,0.3-1.3,1-1.7c3.2-2.2,7.8-5.8,14.8-11.6
		c0.4-1.5,2.1-2.6,3.4-2.9l0,0c0.4-0.1,0.8-0.2,1.2-0.2c1.2-0.1,2.2,0.4,2.8,1l2.5,1.6c0.7,0.5,1.2,1.3,0.9,2.1l0.1,0.1l0,0l2.7,1.7
		c0.2,0.1,0.3,0.2,0.4,0.3l-0.1-0.1c0.4,0.3,0.6,0.8,0.6,1.2c0,0.7-0.4,1.5-1.2,1.9l0,0c-1.3,0.7-2.7,1.6-4.2,3
		c0.7,0,1.3,0.2,1.9,0.6c0.2,0.1,0.3,0.3,0.4,0.4l2.6,1.7c0.5,0.4,0.8,0.8,0.8,1.3c0,0.6-0.3,1.2-0.9,1.7c-2.6,1.7-6.1,3.9-9.3,4
		c-0.6,0-1.3,0-1.9-0.2c-0.7-0.2-1.3-0.5-1.8-0.8c-3.8-2.1-4.7-3.2-4.9-4.3c-1.3,1-2.5,1.8-3.6,2.6c-0.6,0.3-1.2,0.5-1.9,0.5
		c-0.8,0-1.6-0.1-2.2-0.5l-2.5-1.6C481.7,155.7,481.5,155.5,481.2,155.3L481.2,155.3z"/>
</g>
<g class="st7">
	<g>
		<path class="st9" d="M240.8,153.4c-0.6,0-1.2-0.3-1-1.1c1.6-4.4,8.8-8.2,15.1-8.5c2.7-0.1,5.1,0.4,7,1.7c1.4,1,2,2.3,2.1,3.8
			l-2.5,2.1c0.2-0.7,0.3-1.4,0.3-2c-0.1-1.1-0.5-2.1-1.4-2.7c-1.3-0.9-3.2-1.3-5.3-1.2c-5.2,0.2-11.6,3.4-12.9,7.2
			C241.9,153.1,241.4,153.4,240.8,153.4z M267.5,147.3c2.7-1.9,6.7-4,10.5-4.2c1.1-0.1,2.2,0.1,3.3,0.5c1.9,0.6,2.6,1.8,2.7,3
			c0.1,1.4-0.8,3-2.1,4.3c-1.6,1.6-8.9,7.6-11.3,10.4c-0.9,1-1.4,2-1.3,2.7c0,0.7,0.5,1.1,1.6,1.1c0.6,0,1.3-0.2,2.3-0.6
			c1.3-0.6,2.8-1.5,4.5-2.6c0.4-0.3,1.2-0.3,1.6,0c0.4,0.3,0.4,0.9-0.1,1.2c-2.3,1.6-5.5,3.5-8,3.7c-2.9,0.2-4.2-1-4.3-2.6
			c0-0.8,0.2-1.7,0.8-2.5c2.3-3.2,10.2-9.4,12.4-11.6c0.9-0.9,1.7-2.1,1.7-3.1c0-0.7-0.5-1.4-1.6-1.9c-0.6-0.2-1.3-0.3-2.1-0.3
			c-2.9,0.1-6.7,2-9.6,4.1c-8.1,5.6-16.2,15.7-17.4,17.3c-0.1,0.1-0.1,0.1,0,0.2c0.2,0.1,0.3,0.1,0.4,0c2.7-3.7,7.9-9.4,12.2-13.1
			c-2.1,4.5-9.6,13.5-13.4,15.1c-1.2,0.6-2.5-0.3-2-1.1C250.8,163,259.5,152.7,267.5,147.3z"/>
	</g>
	<g>
		<path class="st9" d="M276.4,162.6c1.3-0.9,2.7-1.9,4.2-3c-0.6,1-0.9,1.9-0.9,3l-1.7,1.2c-0.5,0.3-1.2,0.3-1.6,0
			C275.9,163.4,276,163,276.4,162.6z M280.2,162.7c-0.1-1.9,2.5-6.2,6.4-8.3l0.3-0.1c-0.2,0.6-0.2,1.2-0.2,1.8
			c0,0.4,0.1,0.8,0.2,1.2c-0.6,0.5-1.3,1.1-2.2,1.8c0.6-0.8,1.8-1.8,1.8-1.9c0-0.1-0.1-0.2-0.3-0.2c-0.6,0-2.2,2.1-2.9,3.3
			c-0.6,0.9-0.8,1.7-0.8,2.3c0.1,1.9,2,2.1,3.1,2.1c2.4-0.1,5.5-1.8,8.1-4.2c1-0.1,2-0.2,3.1-0.4c-2.9,3.1-7.1,6-11.1,6.2
			c-0.9,0-1.8-0.1-2.7-0.3C281.4,165.5,280.3,164.4,280.2,162.7z M287.1,156.1c-0.1-3.4,3.7-5.8,8.2-6c2.2-0.1,4.9,0.7,5,3.2
			c0,0.5,0,1-0.2,1.5c-0.2,0.6-0.6,1.3-1,2c-1.1,0.5-2.1,0.7-3.2,1c0.9-1.1,1.7-2.2,1.9-3.2c0.1-0.4,0.1-0.8,0.1-1.1
			c-0.1-1.5-1.2-1.9-2.6-1.9c-3-0.1-6.3,1.9-6.2,4.4c0.1,1.3,1.1,2.6,4.7,2.4c3.4-0.2,6.7-1.5,9.7-3.2c-0.6,0.6-1.7,1.8-2.3,3
			c-2.2,0.9-4.7,1.6-7.3,1.8c-3.5,0.2-6-0.7-6.8-2.6C287.2,156.9,287.2,156.5,287.1,156.1z M301,162c-0.3-4.1,4.7-8.7,7.2-9.3
			c-0.9,0.9-1.6,2.2-1.8,2.9c-2.3,2.2-3,4.4-3,5.9c0,1.1,0.5,1.9,1.2,2c0.9,0.2,2.1,0,3.7-0.8c0.6,0.4,1.3,0.6,2.2,0.9
			c-1.8,1-3.7,1.6-5.4,1.6C302.5,165.2,301.1,163.7,301,162z M306.2,157.8c0.6-3.5,4.3-8.4,9.4-9c3.4-0.3,5.4,1.5,5.1,3.7
			c-0.5,3.3-4,6.9-6.9,9.1c-1,0.1-1.9-0.1-2.7-0.3c3.1-2,5.6-4.6,6.8-7.2c0.3-0.6,0.5-1.3,0.5-2c0-1-0.6-1.8-2.4-1.6
			c-3.9,0.4-7.1,4.8-7.4,7.2c0,0.3,0,0.6,0,0.9c0.1,1.3,0.7,2.3,2.1,3c1,0.4,2,0.5,3,0.5c2-0.1,3.9-0.9,5.5-1.8
			c0.9-0.6,1.9-0.1,1.9,0.5c0,0.2-0.1,0.5-0.5,0.8c-1.8,1.3-4.2,2.1-6.7,2.2c-0.9,0-1.9,0-2.8-0.2
			C307.5,162.6,306,160.2,306.2,157.8z"/>
	</g>
	<g>
		<path class="st9" d="M318,160.8c1.9-1.3,3.9-2.8,6-4.3c-1,1.2-1.6,2.7-1.8,3.7c-0.9,0.7-1.9,1.3-2.7,1.9c-0.5,0.3-1.1,0.3-1.6-0.1
			C317.5,161.6,317.5,161.1,318,160.8z M322.6,161.4c-0.1-1.6,0.8-3.4,1.4-4.4c1.7-2.4,4.3-4.9,7.5-6.6c2.1-1.2,4.6-1.9,6.7-2
			c0.9,0,1.7,0.1,2.4,0.2c0.8,0.3,1.2,0.7,1.3,1.2c0,0.7-0.8,1.4-2.6,1.5c-6.2,0.3-12.5,6.3-11.6,5.2c1.9-2.4,6.2-6,10.5-6.2
			c0.4,0,0.7,0,1.1,0c0.8,0.1,0.7-0.2,0-0.3c-0.4,0-0.7,0-1.1,0c-5.1,0.2-9.8,4.4-12.1,7.7c-1,1.3-1.4,2.6-1.3,3.5
			c0,1,0.7,1.4,1.5,1.3c1.3-0.1,3-0.9,3.8-1.4c1.6-0.9,5.1-3,6.7-4.3c-0.6,0.9-1.8,2.4-2.1,3.5c-0.9,0.6-2.5,1.6-3.3,2
			c-1.6,0.9-3.5,1.7-5.2,1.8c-0.4,0-0.8,0-1.1-0.1C323.4,163.8,322.7,162.7,322.6,161.4z M335,162.2c-0.2-5.3,17.8-21.4,20.1-21.7
			c1.2-0.2,2.3,0.6,1.6,1.4c-2.7,3.1-11,10.8-15.9,14.6c3.8-4.6,11.6-11.8,14.5-14c0.1-0.1,0.1-0.2,0-0.3c-0.1-0.1-0.2-0.1-0.3,0
			c-2.1,1.5-8.9,7.6-13,12.1c-3.3,3.7-5.5,7.3-4.5,7.7c0.2,0.1,0.5,0.2,2-0.4c1.3-0.6,2.9-1.5,4.6-2.7c0.5-0.3,1.2-0.3,1.6,0
			c0.4,0.3,0.4,0.8-0.1,1.1c-1.7,1.2-3.4,2.2-5,2.9c-1,0.4-2.1,0.8-3.2,0.9c-0.5,0-1,0-1.4-0.2C335.3,163.4,335,162.9,335,162.2z"/>
	</g>
	<g>
		<path class="st9" d="M363.2,156.3c0.4-3.9,5-6.7,9.4-6.8c1.5-0.1,2.9,0.2,4.2,0.7c0.5,0.2,0.6,0.7,0.3,1.1
			c-0.4,0.4-1.1,0.5-1.6,0.3c-0.8-0.4-1.8-0.5-2.8-0.5c-3.2,0.1-6.9,2.2-7.2,5.3c-0.4,2.9,2.9,5.4,7.2,5.5
			c7.3,0.2,14.6-6.9,18.2-10.6l2.8-0.1c-4.8,5-12.6,12.5-21.1,12.3C367,163.4,362.7,160.3,363.2,156.3z M375.7,142.9
			c-0.1-2.3,2.8-4.5,6.3-5.1c1.1-0.2,2.3-0.3,3.7-0.4c6.8-0.3,16,0.8,20.6,0.6c0.8,0,1.4-0.1,1.8-0.2c0.2,0,0.3-0.1,0.2-0.2
			c0-0.1-0.1-0.2-0.3-0.1c-0.4,0.1-1.9,0.2-2.3,0.3c0.5-0.2,1.7-0.7,2.5-0.7c1.2-0.1,2.1,0.8,1.5,1.4c-0.8,0.9-2.4,1.1-4,1.2
			c-0.9,0-1.9,0-2.6,0c-4.8-0.2-11.9-0.8-17.2-0.6c-1.3,0.1-2.5,0.2-3.5,0.3c-2.5,0.4-4.5,1.9-4.4,3.5c0,0.5,0.3,1,0.8,1.5
			c0.5,0.4,1.2,0.7,2.3,0.7c0.5,0,1.1-0.1,1.7-0.3c0.6-0.2,1.2,0,1.5,0.5c0.2,0.4-0.1,0.8-0.7,1.1c-0.9,0.3-1.7,0.4-2.4,0.4
			c-1.7,0.1-3.2-0.4-4.2-1.2C376.1,144.6,375.7,143.7,375.7,142.9z M387.9,151c-0.5,0-1,0.1-1.2,0.1c-0.6,0.1-1.2-0.2-1.3-0.6
			c-0.1-0.4,0.3-0.8,0.9-0.9c0.6-0.1,1.3-0.1,2.1-0.2c0.5,0,1,0,1.5,0c1.4,0,2.7-0.1,4-0.1c1.5-0.1,2.9-0.2,4.4-0.3
			c-0.4,0.5-0.7,1.1-1,1.7c-1,0.1-2,0.2-3.1,0.2c-1.4,0.1-2.9,0.1-4.3,0.1C389.1,151,388.4,151,387.9,151z M402.9,140
			c0.9,0,2,0.1,3.3-0.1c-0.1,0.1-0.3,0.2-0.4,0.3c-1.7,1.1-5.7,4.4-9.7,8.5l-2.8,0.1C397.5,144.5,401.2,141.3,402.9,140z M399.7,148
			c0.7-0.5,1.7-1,2.7-1c0.6,0,1.1,0.1,1.5,0.5c0.4,0.4,0.2,1-0.2,1.4c-0.6,0.5-1.6,0.9-2.7,1.1c0.4-0.6,0.9-1.2,1.6-1.7
			c0.1-0.1,0.1-0.2,0-0.3c-0.1-0.1-0.2-0.1-0.3,0c-1.7,1-2.6,2.8-2.4,4.3c0.1,0.4-0.4,0.8-1.1,0.9c-0.6,0.1-1.2-0.3-1.2-0.7
			C397.4,150.9,398.3,149.3,399.7,148z"/>
	</g>
	<g>
		<path class="st9" d="M399.6,157.2c1.9-1.3,4.7-3.2,6.7-4.7c-1,1.2-2.2,2.8-2.7,4.2c-0.9,0.7-1.7,1.2-2.5,1.7
			c-0.5,0.3-1.2,0.3-1.6-0.1C399.1,158,399.1,157.5,399.6,157.2z M403.8,158c0.3-2.4,2-4.5,3.8-6.4c1.4-1.6,4.8-4.8,7.7-6.9
			c1-0.6,2.8,0.3,1.9,1.1c-0.4,0.4-4.6,4.9-8,7.8c1.4-1.8,4.9-5.1,6.7-6.7c0.1-0.1,0.1-0.2-0.1-0.3c-0.2-0.1-0.3,0-0.4,0
			c-3.3,3-9.1,8.4-9.3,11.5c0,0.8,0.4,1,1,1c0.6,0,1.5-0.4,2.1-0.6c1.3-0.6,2.9-1.5,4.5-2.6c0.5-0.3,1.2-0.3,1.6,0
			c0.4,0.3,0.4,0.8-0.1,1.1c-2.4,1.6-5.5,3.6-8.2,3.7c-0.4,0-0.9,0-1.3-0.1C404.3,160.2,403.7,159.1,403.8,158z M421,141.9
			c-0.5,0.3-0.9,0.7-1.4,1.2c-0.3,0.3-0.7,0.4-1,0.4c-0.9,0-1.6-0.7-0.9-1.3c0.5-0.5,0.9-0.9,1.5-1.3c0.4-0.3,1.1-0.4,1.6-0.1
			C421.4,141.1,421.4,141.6,421,141.9z"/>
	</g>
	<g>
		<path class="st9" d="M412.6,156.6c2.6-1.6,5.2-3.7,7.7-5.7c0.4-0.3,1.6-1.5,3-2.7c-2.3,2.6-4.6,5.3-6.6,7.8
			c-0.9,0.6-1.8,1.2-2.6,1.8c-0.4,0.3-1.2,0.3-1.6,0C412.1,157.4,412.2,156.9,412.6,156.6z M434,151.5c1.6-1.5,3.2-2.7,4.4-3.9
			c0.6-0.6,0.9-1.1,1.1-1.5c0.3-0.8-0.4-0.9-1.3-0.9c-0.6,0-1.2,0.2-1.6,0.3c-7.5,2-15.9,9.2-19.5,14.2c-0.2,0.3-0.6,0.4-0.9,0.4
			c-0.8,0-1.5-0.5-1.1-1.1c3.9-5.3,8.1-10.5,12-14.3c0.7-0.7,1.3-1.3,2.4-1c0.6,0.3,0.6,0.7,0.5,0.8c-0.2,0.5-0.7,1-1.2,1.4
			l-1.6,1.7c-2.2,1.5-4.5,3.2-6.9,5.4c-0.1,0.1-0.1,0.2,0.1,0.3c0.1,0.1,0.2,0,0.3,0c3.9-3.6,9.4-7.7,15.2-9.3
			c0.7-0.2,1.4-0.3,2-0.3c2-0.1,3.9,0.6,3.9,1.9c0,0.3,0,0.6-0.2,1c-0.3,0.6-0.8,1.2-1.4,1.9c-1.2,1.2-2.9,2.7-4.5,4
			c-1.6,1.5-2.9,2.7-3.5,3.7c-0.2,0.4-0.3,0.6-0.3,0.9c0,0.6,0.5,0.8,1.2,0.8c0.5,0,1.2-0.2,1.8-0.5c1.3-0.6,2.9-1.5,4.6-2.7
			c0.4-0.3,1.2-0.3,1.6,0c0.4,0.3,0.4,0.9-0.1,1.2c-1.7,1.2-3.4,2.2-5,2.9c-1,0.5-2,0.7-2.9,0.8c-2,0.1-3.6-0.8-3.6-2.3
			c0-0.5,0.1-1,0.5-1.6C430.9,154.4,432.4,152.9,434,151.5z"/>
	</g>
	<g>
		<path class="st9" d="M438.5,155.4c1.9-1.3,3.9-2.8,6-4.3c-1,1.2-1.6,2.7-1.8,3.7c-0.9,0.7-1.9,1.3-2.7,1.9
			c-0.5,0.3-1.1,0.3-1.6-0.1C437.9,156.3,438,155.8,438.5,155.4z M443.1,156.1c-0.1-1.6,0.8-3.4,1.4-4.4c1.7-2.4,4.3-4.9,7.5-6.6
			c2.1-1.2,4.6-1.9,6.7-2c0.9,0,1.7,0.1,2.4,0.2c0.8,0.3,1.2,0.7,1.3,1.2c0,0.7-0.8,1.4-2.6,1.5c-6.2,0.3-12.5,6.3-11.6,5.2
			c1.9-2.4,6.2-6,10.5-6.2c0.4,0,0.7,0,1.1,0c0.8,0.1,0.7-0.2,0-0.3c-0.4,0-0.7,0-1.1,0c-5.1,0.2-9.8,4.4-12.1,7.7
			c-1,1.3-1.4,2.6-1.3,3.5c0,1,0.7,1.4,1.5,1.3c1.3-0.1,3-0.9,3.8-1.4c1.6-0.9,5.1-3,6.7-4.3c-0.6,0.9-1.8,2.4-2.1,3.5
			c-0.9,0.6-2.5,1.6-3.3,2c-1.6,0.9-3.5,1.7-5.2,1.8c-0.4,0-0.8,0-1.1-0.1C443.8,158.5,443.2,157.4,443.1,156.1z M455.4,156.9
			c-0.2-5.3,17.8-21.4,20.1-21.7c1.2-0.2,2.3,0.6,1.6,1.4c-2.7,3.1-11,10.8-15.9,14.6c3.8-4.6,11.6-11.8,14.5-14
			c0.1-0.1,0.1-0.2,0-0.3c-0.1-0.1-0.2-0.1-0.3,0c-2.1,1.5-8.9,7.6-13,12.1c-3.3,3.7-5.5,7.3-4.5,7.7c0.2,0.1,0.5,0.2,2-0.4
			c1.3-0.6,2.9-1.5,4.6-2.7c0.5-0.3,1.2-0.3,1.6,0c0.4,0.3,0.4,0.8-0.1,1.1c-1.7,1.2-3.4,2.2-5,2.9c-1,0.4-2.1,0.8-3.2,0.9
			c-0.5,0-1,0-1.4-0.2C455.8,158,455.4,157.5,455.4,156.9z"/>
	</g>
	<g>
		<path class="st9" d="M463.3,154.3c1.4-0.9,2.8-1.9,4.3-3c-0.3,0.9-0.5,1.8-0.5,2.6c-0.8,0.6-1.6,1.1-2.4,1.6
			c-0.4,0.3-1.2,0.3-1.6-0.1C462.8,155.2,462.9,154.7,463.3,154.3z M467.8,153.5c-0.2-4.4,5.7-9.8,11.2-11.7
			c0.9-0.3,1.8-0.5,2.7-0.5c2.4-0.1,4.2,0.9,4.3,2.7c0,0.3,0,0.7-0.1,1.1c-1.1,3.9-7.8,6.8-12.7,7c-0.9,0-1.7,0-2.4-0.1
			c0.2-0.6,0.5-1.1,0.9-1.6c0.5,0.1,0.9,0.1,1.4,0c2.7-0.1,6.2-1.4,8.3-2.8c1.1-0.7,2.4-2.2,2.3-3.3c0-0.4-0.1-0.6-0.5-0.9
			c-0.2-0.2-0.7-0.3-1.4-0.3c-0.8,0-1.8,0.2-2.9,0.6c-3.4,1.3-7.4,4.9-8.5,7.5c-0.3,0.6-0.4,1.3-0.4,1.9c0.1,1.9,1.6,3.4,4.9,3.1
			c2.1-0.2,4.4-0.9,6.3-2.1c0.7-0.4,1.4-0.9,2.1-1.4c0.4-0.3,1.2-0.3,1.6,0c0.4,0.3,0.4,0.8-0.1,1.1c-0.7,0.5-1.5,1-2.2,1.4
			c-2.2,1.4-5,2.3-7.6,2.5c-2.6,0.2-5.4-0.3-6.6-2.1C468.1,155.1,467.8,154.3,467.8,153.5z"/>
	</g>
	<g>
		<path class="st9" d="M482.7,153.2c3.7-2.4,7.7-5.7,14.8-11.7c0.1,0.6,0.5,1.1,1.1,1.6l-1,0.9c-5.5,4.5-9.6,7.9-13.3,10.4
			c-0.5,0.3-1.2,0.3-1.6,0C482.2,154.1,482.3,153.5,482.7,153.2z M505.6,143.1c0.4,0.3,0.2,0.9-0.3,1.2c-1.9,1.1-4.1,2.5-6.4,5.1
			c-1.5,1.7-2.7,3.5-2.7,4.6c0,0.5,0.3,0.8,0.8,1c0.5,0.2,1.3,0.1,2.6-0.5c1.3-0.6,2.9-1.5,4.5-2.6c0.5-0.3,1.2-0.3,1.6,0
			c0.4,0.3,0.4,0.8-0.1,1.1c-2.4,1.6-5.5,3.6-8.2,3.7c-0.4,0-0.9,0-1.3-0.1c-1.7-0.4-2.3-1.4-2.4-2.6c0-0.6,0.1-1.2,0.4-1.8
			c0.7-1.7,2.4-3.4,4.1-5c1.2-1.1,3.2-2.9,5.7-4.2C504.7,142.7,505.3,142.7,505.6,143.1z M501.3,144.2c-1.7-0.6-2.9-1.6-3.2-2.6
			c-0.5-1.5,1.2-2.5,2.3-2.8c1.1-0.3,2.1,0.3,1.8,1c-0.3,0.6-1.1,1.1-1.5,1.4c-0.4-0.3-0.4-0.6-0.4-1c0-0.1-0.1-0.2-0.2-0.2
			c-0.2,0-0.3,0-0.3,0.2c-0.1,1.4,1.8,2.6,3.6,2.7C502.7,143.3,501.9,143.8,501.3,144.2z"/>
	</g>
</g>
<path class="st9" d="M79.2,366.9l-0.1-0.1H79L79.2,366.9z"/>
<path class="st9" d="M145.4,175.3c-0.8,2-1.5,4-2.2,6c-0.5,1.9-1.1,3.8-1.5,5.6c-0.3,1.2-0.5,2.3-0.7,3.4c0.1,0.9,0.1,1.8-0.1,2.6
	c-0.1,0.7-0.3,1.3-0.5,2v0.1c-0.3,2.6-0.4,5.3-0.3,7.9c0.6,3,1.4,6,2.6,8.8c2.5,5.8,5.5,11.5,8.8,16.9c1.2,2.1,2.7,4.1,4.2,5.9
	c1.5,1.6,2.8,3.4,4,5.3c1.4,2.6,1.9,6.1,0.2,8.8c-1.4,2.2-3.9,2.6-6.3,2.7c-2.7,0.2-5.4-0.2-7.9-1.1c2.6,4.3,6.2,8.2,11.1,9.8
	c9.6,3.1,18.8-3.1,24.8-10.2c2.6-3.2,4.9-6.6,7.1-10.1c-3.8,0.2-7.6-0.7-10.9-2.8c-5.6-3.4-9.7-9-12.6-14.8
	c-3.5-7.1-4.5-15-4.8-22.8c-0.3-6.5-0.1-13.1,0.7-19.6l-8.5,0.1c-0.3,0-0.5,0-0.8,0c-2.3-0.2-4.4-1.7-5.3-3.9
	c-0.2-0.6-0.5-1.2-0.7-1.7v0.1C145.7,174.6,145.6,175,145.4,175.3z"/>
<path class="st9" d="M79,366.8C79,366.8,78.9,366.8,79,366.8C78.9,366.7,78.9,366.8,79,366.8z"/>
<path class="st9" d="M71.4,329.5c-3.9-7.8-5.2-16.8-5.8-25.4c-0.5-8.5-0.4-17.1,0.5-25.6c1.2-11.1,3.2-22.1,5.8-33
	c3-13.2,6.9-26.2,11.5-38.9c4.5-12.3,9.7-24.3,15.6-36c4.4-9,9.2-17.9,14.4-26.5c4.7-7.9,10.1-15.3,16-22.3
	c-6.1,5.7-11.8,11.8-17.2,18.3c-6.3,7.4-12.3,15.1-17.8,23.2c-5.4,8.4-10.3,17.1-14.5,26.1c-4.4,9.1-9,18.1-13,27.3
	c-3.9,8.9-7.1,18.2-9.6,27.6c-5,18.9-6.8,38.6-5.3,58.1c0,0.9-0.1,1.7-0.4,2.5c0.1,0.8,0.1,1.5-0.1,2.3c1.7,8.2,4,16.3,6.8,24.3
	c4.3,12.6,10.8,24.4,19,34.9c0.5-0.2,1,0,1.3,0.5c0.1,0.1,0,0,0-0.1s-0.1-0.1,0,0v0.1c0,0,0,0,0.1,0.1l0.2,0.1h0.4l0.1,0
	c0.1-0.1,0.3-0.2,0.4-0.2H80l0,0l0.4-0.4c0.4-0.3,0.7-0.7,1.1-1.1c0.1-0.1,0.2-0.3,0.4-0.4l0.3-0.4c1.7-2.4,3.2-4.8,4.6-7.4
	c0.2-0.5,0.5-0.9,0.7-1.4c0.1-0.1,0.1-0.2,0.2-0.3l0.1-0.2c0.4-0.8,0.8-1.5,1.2-2.3c0.8-1.7,1.6-3.4,2.4-5.1l0.1-0.3
	c1-2.7,2.1-5.4,3.3-8.1c-1.7,1.4-3.7,2.3-5.9,2.7C81,343,74.6,335.8,71.4,329.5z"/>
<path class="st9" d="M91.3,281.2c0,1.8,0.1,3.6,0.3,5.4c0.1,1,0.3,1.9,0.4,2.8c0.1,0.5,0.2,0.9,0.2,1.1c0.5,1.7,1.3,3.3,2.3,4.7
	c1.7,2.4,4.3,5.2,7.5,5.4c0.4,0,0.8,0,1.1-0.1c0.3-4.7,0.8-9.3,1.2-14c0.2-2.6,0.4-5.3,0.6-7.9c-0.8-10.1-2.2-20.2-2.6-30.4
	c-0.1-3.4-0.2-6.7-0.2-10.1c-2.5,7.5-5.4,14.9-7.6,22.6C92.5,267.3,91.4,274.3,91.3,281.2z"/>
<path class="st9" d="M131.9,68.3c13-7.9,27.1-13.7,41.9-17c11.2-2.6,22.7-2.7,33.9-0.4c1.9,0.4,3.9,0.9,5.9,1.5
	c-0.8-4.9-5.6-9.2-9.6-11.8c-3.7-2.2-7.7-3.9-11.8-5c-4.8-1.4-9.7-2.4-14.7-3c-5-0.7-10.1-0.8-15.1-0.2c-1.8,0.2-3.5,0.6-5.2,1.2
	c0,0.4-0.1,0.8-0.2,1.2c-0.1,0.4-0.2,0.8-0.5,1.2c-0.1,0.3-0.3,0.6-0.6,0.9l-0.3,0.3c-0.1,0.8-0.5,1.5-1.1,2
	c-6.7,5.4-13.3,10.8-19.7,16.5c-5.7,4.9-11.1,10.1-16.2,15.7c-4.7,5.4-8.7,11.4-12.8,17.3c-0.3,0.5-0.7,0.9-1,1.4
	C112.5,81.3,122,74.2,131.9,68.3z"/>
<path class="st9" d="M135.1,246.5c-1.1,0.9-2.1,1.9-2.9,3c-1.2,11.5-2.5,23.1-4.8,34.5c0,0.8,0,1.5,0,2.3c0,13.4,2.5,26.9,11.5,37.2
	c4,4.6,9.1,8.9,15,10.8c4.5,1.5,9.3,1.5,13.8,0c9.8-3.2,17.2-11.7,22.9-20c2-3,3.9-6.1,5.7-9.2c-8.2,7.8-20.7,12.3-31.2,6.8
	c-10.4-5.4-16.1-17.8-19.4-28.5c-3.4-11.2-5.3-23.4-4.2-35.2c-1.9-1.2-3.7-2.5-5.3-4C136.1,245,135.7,245.9,135.1,246.5z"/>
<path class="st9" d="M163.5,189.4c0,0.2,0,0.4,0,0.6v1.4c0,1,0,2,0,3c0,1.9,0.1,3.9,0.2,5.8c0.1,0.9,0.1,1.9,0.2,2.8l0.1,0.6v0.1
	c0.1,0.4,0.1,0.8,0.1,1.2c0.2,1.6,0.4,3.2,0.8,4.8c0.1,0.7,0.3,1.4,0.5,2.1l0.1,0.4c0.1,0.4,0.3,0.9,0.4,1.3
	c0.8,2.4,1.9,4.7,3.2,6.9c2.7,4.6,6.4,8.9,11.1,11.4c2.1,1.2,4.5,1.9,6.9,2c0.3,0,0.7,0,1,0c-0.5-0.6-1-1.3-1.4-2
	c-2-4.2-1.2-9.6-0.1-14c1.2-4.4,2.7-8.8,4.5-13c2.2-5.4,4.2-10.9,6.1-16.3c1.1-3,2.2-6.1,3.1-9.2l-36.2,0.6
	c-0.3,2.9-0.6,5.9-0.7,8.9C163.5,188.8,163.5,189.3,163.5,189.4z"/>
<path class="st9" d="M206.4,255.4c-1.8,4.2-3.4,8.6-5.8,12.5c-1.5,2.4-3.2,4.7-5,6.9c-4.7,6-10,11.4-15.8,16.3
	c-5.1,4.2-11.1,8.5-17.9,9.3c-1,0.1-2,0.1-2.9,0c2.9,3.4,6.8,5.9,11.1,7.2c5.5,1.5,11.1,0.4,16.3-1.9c6.5-2.9,11.4-7.9,15.2-13.8
	c0.7-1.1,1.4-2.3,2.1-3.5c0.2-0.6,0.5-1.3,0.7-1.9c0.2-0.5,0.5-1,1-1.2c5.4-10.7,8.6-22.7,11-34.3c3.3-15.6,2.4-31.9,6.1-47.4
	c-0.7,1.2-1.4,2.5-2.2,3.7c-0.5,0.9-1.1,1.7-1.6,2.6c0,0.2,0,0.5,0,0.6C217.7,226.1,212.4,241.2,206.4,255.4z"/>
<path class="st9" d="M202.3,195.2c-0.1,0.4-0.2,0.8-0.4,1.2c-0.4,0.9-0.7,1.8-1.1,2.7c-0.9,2.4-1.9,4.8-2.8,7.2
	c-0.5,1.3-0.9,2.6-1.4,3.9l-0.4,1.2c-0.1,0.1-0.1,0.4-0.2,0.5c-0.2,0.6-0.4,1.2-0.5,1.8c-0.4,1.3-0.7,2.6-1,3.8
	c-0.1,0.6-0.3,1.2-0.4,1.8l0,0c0,0.2-0.1,0.5-0.1,0.7s-0.1,0.5-0.1,0.8l0,0c0,0.2,0,0.4,0,0.6l0,0c0.3,0,0.5,0,0.8,0l0.2-0.1
	l0.6-0.2c0.5-0.2,0.9-0.4,1.3-0.7c1.1-0.7,2.2-1.5,3.2-2.4c1.7-1.4,3.2-2.9,4.8-4.5c6.8-7.1,12.5-15.1,17-23.8
	c1.9-3.6,3.5-7.3,5-11.1L208,179c-1.4,5-3.1,9.9-4.8,14.8C203,194.3,202.7,194.8,202.3,195.2z"/>
<path class="st9" d="M195.3,237.1l-0.6,0.4l-0.1,0.1c-1.7,2.4-3.2,4.8-4.8,7.3c-5.6,8.7-12.2,18.2-22.7,21.2c-4.4,1.3-9.2,1-13.4-1
	c-3.9-2-7.2-5.1-9.5-8.9c0,0.8,0.1,1.6,0.1,2.4s0.1,1.5,0.2,2.3c0.1,0.9,0.1,0.8,0.2,1.6c0.2,1.5,0.4,2.9,0.6,4.3
	c0.9,6,2.4,11.9,4.6,17.6c0.2,0.4,0.3,0.9,0.5,1.3c0.5,0.1,0.9,0.4,1,0.9c1.1,3,2.6,5.7,5.6,7.2c2.5,1,5.2,1.1,7.8,0.3
	c6.4-1.8,12-6.2,16.9-10.5c5.1-4.6,9.8-9.7,14-15.2c1.5-1.9,2.8-4,4.1-6.1c0-0.1,0.1-0.1,0.1-0.2c0,0,0,0,0-0.1
	c0.1-0.3,0.3-0.6,0.4-1c0.6-1.4,1.2-2.7,1.8-4.1c1.4-3.1,2.7-6.2,4-9.3c4.2-10.5,7.9-21.4,9.2-32.6c-2.4,3.5-4.9,6.9-7.7,10.1
	c-2.2,2.6-4.6,5.1-7.2,7.2c-1.1,0.9-2.3,1.7-3.5,2.3c-0.3,0.4-0.6,0.7-0.9,1.1C195.9,236.3,195.7,236.7,195.3,237.1z"/>
<path class="st9" d="M113.1,327.4c0.6,0.6,0.9,1.4,0.8,2.2c0,1.2,0,2.3,0.2,3.5c0.1,1,0.4,2,0.7,2.9c0.7,2,1.8,3.9,3.2,5.6
	c5,6.1,13.5,8.8,21.2,8.3c4-0.3,7.9-1.5,11.2-3.6c1.7-1.1,3.2-2.4,4.5-3.9c0.4-0.5,0.7-0.9,1.1-1.5c-9.7-1.9-18.1-9.9-23.1-17.9
	c-3.7-6.2-6.2-13-7.3-20.2c-0.4-2.4-0.6-4.7-0.8-7.1c-0.8,3.2-1.7,6.3-2.7,9.4C119.6,312.8,116.6,320.2,113.1,327.4z"/>
<path class="st9" d="M128.9,128.8c-6.5,8-12.2,16.5-17.2,25.5c-11.4,19.8-20.9,40.6-28.3,62.3c-4.2,12.3-7.5,24.8-10.1,37.4
	c-2,9.4-3.5,18.8-4.3,28.4c-0.7,8-0.6,16.1,0.2,24.1c0.8,7.6,2.4,15.5,6.8,21.9c3.7,5.4,11,10.2,17.3,5.9c3-2,5.1-5.3,6.8-8.4
	c0.5-0.9,1-1.8,1.4-2.7c0-0.1,0.1-0.2,0.1-0.3c0.8-5.4,1-10.9,1.3-16.3c-0.4,0.1-0.9,0.1-1.3,0.1c-3.8-0.3-7.1-3.6-9.1-6.6
	c-3.5-5.1-4.1-11.5-4.2-17.6C88,265.7,94.7,250,100,234.3c0.3-0.9,1.3-1.9,2.1-0.9c0.1-5.2,0.3-10.3,0.8-15.5
	c1.4-16.8,4.6-33.7,11-49.4c0.7-3,1.6-5.9,2.6-8.8c1.7-4.9,3.8-9.7,6.1-14.3c6.3-12.5,14.6-24,24.6-33.9
	C140.2,116.2,134.2,122.3,128.9,128.8z"/>
<path class="st9" d="M133.3,240.7c-0.1,0.4-0.1,0.9-0.2,1.4c0.2-0.2,0.4-0.3,0.6-0.5C133.5,241.3,133.4,241,133.3,240.7z"/>
<path class="st9" d="M104.8,341.8c-1.4,2.5-2.8,5-4.1,7.5c-3,5.9-6.6,11.5-10.6,16.7c-0.9,1.2-1.9,2.4-3,3.5
	c1.4,0.2,2.8,0.4,4.2,0.5c7.6,0.6,15.3-0.4,22.5-2.9c6.5-2.3,12.7-6,16.5-11.9c-2.1-0.5-4.1-1.2-6-2.1c-8.3-4-13.5-12.4-13.4-21.6
	c-0.2,0.4-0.4,0.8-0.6,1.2C108.5,335.8,106.6,338.7,104.8,341.8z"/>
<path class="st9" d="M224.2,73.1c0.7-0.6,1.2-1.4,1.5-2.3v-0.1c0,0,0-0.1,0-0.2l0.1-0.4c0-0.1,0-0.2,0-0.4c0-0.1,0-0.2,0-0.2v-0.1
	v-0.5c0,0-0.1-0.5-0.1-0.7s0-0.2-0.1-0.3l0,0c-0.1-0.5-0.3-0.9-0.6-1.4c-1-1.7-2.4-3.1-4-4.2c-2-1.4-4.2-2.5-6.5-3.3
	c-4.7-1.7-9.6-2.8-14.6-3.4c-11.6-1.4-23.2,0.3-34.4,3.6c-13.9,4.1-27,10.3-39.1,18.4c-1.9,1.3-3.9,2.7-5.8,4.1
	c3.4-2.3,6.9-4.4,10.5-6.3c5-2.7,10.1-5,15.5-6.9c5.4-1.8,10.9-3.2,16.5-4.3c5.8-1.3,11.6-2,17.5-2.2c5,0,10.1,0.7,14.9,2.1
	c6.6,1.8,13.6,4.6,16.8,10.7c0.4,0.5,0.8,1,1.2,1.5c2.6,0.2,5.3-0.3,7.7-1.3C222.5,74.5,223.4,73.9,224.2,73.1z"/>
<path class="st9" d="M82.5,167.9c10.1-16.7,21.9-32.3,35.2-46.5c12.7-13.7,27.3-25.8,44.4-33.8c6.7-3.2,13.7-5.9,20.9-7.9
	c4.9-1.8,10.1-3,15.3-3.5c-2.3-0.5-4.7-1-7-1.4c-1.2-0.2-2.5-0.4-3.7-0.7c-0.6-0.2-1.1-0.3-1.6-0.5l-0.7-0.3h-0.1
	c-7.6-1.1-15.6-0.2-22.9,1.5C151,77.6,140.1,82,130,87.9c-9.2,5.1-17.7,11.4-25.2,18.7c-9.5,9.3-17.6,20-24,31.7
	c-3.2,5.9-5.9,12-8,18.4c-1.9,5.9-3.2,12-3.8,18.2c-0.1,1-0.7,3.7-2.2,3.5c-0.3,0-0.6-0.2-0.8-0.5c-0.1,0-0.2,0-0.3,0
	c-1.5-0.2-1.7-2.8-1.5-3.9c1-6.4,2.3-12.7,4-19c2.7-11,6.5-21.6,11.4-31.8l0.2-0.3c0.9-2.5,1.9-5,2.9-7.4
	c6.8-16.9,16-32.7,27.3-46.9c9.2-11.4,19.8-21.5,31.6-30.1c-1.5,0.2-3,0.4-4.4,0.7C112.2,44,90.1,59,70.5,74.4
	c-9.8,7.5-18.7,16-26.6,25.5c-7.8,9.6-14.4,20.1-19.9,31.2c-6.5,13.2-11.4,27.1-14.5,41.4c0,0.9-0.1,1.7-0.5,2.5
	c-2,10-2.8,20.1-2.5,30.3c0.6,14,2.6,27.8,6.1,41.3c-0.1-1-0.2-1.9-0.3-2.9c-0.7-5.7-1-11.5-1-17.3c0-10.6,1.5-21.1,4.3-31.3
	c2.8-9.8,7.4-19.1,13.4-27.4c11.7-16.3,27.5-30.1,35.1-49.1c0.4-1.1,1.7-2.5,2.7-1.1c0.2,0.3,0.3,0.5,0.4,0.8
	c0.8-0.4,1.7,0.4,1.8,1.7c0.4,3.1-0.7,6.2-1.9,9c-1,2.4-2.2,4.8-3.4,7.1s-2.6,4.9-3.8,7.4c-0.6,1.8-1.3,3.7-2.1,5.4
	c0,0.1-0.1,0.3-0.1,0.5c-0.2,0.7-0.5,1.4-1,2c-0.5,1.1-1,2.2-1.5,3.2c-1.9,4.8-3.3,9.8-4.2,14.9c-3.6,18-5.8,36.3-6.5,54.6
	c-0.2,4.5-0.4,9-0.4,13.6c0.1,2.9,0.3,5.8,0.4,8.6c0.3,5.7,0.7,11.3,1.1,16.9c0.3,1.8,0.6,3.5,0.9,5.2c2.6-15.9,6.4-31.7,11.5-47
	C64.2,202.9,72.4,184.8,82.5,167.9z"/>
<path class="st9" d="M253.9,114.2c2-5.1,2.7-10.6,2.3-16c-0.4-5.6-2.1-11.1-4.8-16.1c-3-5.5-7.2-10.2-12.3-13.8
	c-2.5-1.7-5.1-3.2-7.9-4.4c-1.1-0.5-2.2-0.9-3.3-1.2c1.1,2.4,1.5,5,1.1,7.6c-0.6,5.9-5.1,10.7-10.9,11.6c-0.6,0.1-1.3,0.2-1.9,0.3
	c10.3,0.4,20.6,6.8,26.7,14.8c3.5,4.5,5.3,10,5.2,15.7c-0.3,5.9-2.8,11.4-7,15.5c0.1,0.4,0.1,0.8,0.2,1.3c0.2-0.3,0.5-0.6,0.8-0.8
	C247.4,125.3,251.6,120.2,253.9,114.2z"/>
<path class="st9" d="M244.3,116.4c0,0,0.2-0.7,0.2-0.8s0.1-0.6,0.2-0.9l0.1-0.4c0-0.3,0.1-0.7,0.1-1v-0.4c0-0.3,0-0.7,0-1
	c0,0,0-0.2,0-0.3l0,0c-0.1-0.6-0.2-1.2-0.3-1.8c0-0.1,0-0.2,0-0.2c0,0,0-0.1,0-0.1l-0.3-0.8c-0.4-1-0.8-2-1.3-3
	c-1.2-2.2-2.7-4.2-4.4-6c-3.6-3.7-7.9-6.7-12.6-8.7c-4.5-2-9.4-2.9-14.3-2.4c-2,0.2-3.9,0.7-5.7,1.6c0.6,0.2,1.1,0.3,1.6,0.5
	c1.1-0.1,2.2,0,3.3,0.2c5,0.9,9.6,3.7,13.4,6.8c4,3.2,7.5,7.1,10.1,11.6c2.5,4.4,4.4,9.1,5.5,14c1.7-1.7,3.1-3.7,4.1-5.9
	C244.2,116.9,244.3,116.7,244.3,116.4z"/>
<path class="st9" d="M52.2,370.2c2.3,3.5,5.4,7.2,9.5,8.5c4.5,1.4,8.7-0.6,12.1-3.5c0.6-0.5,1.3-1.1,1.9-1.7c0,0,0,0,0-0.1
	c-0.9-1-1.7-2.1-2.6-3.2c-8.9-11.7-15.2-25.3-19.7-39.3c-2.1-6.7-3.9-13.5-5.4-20.4c-0.6-0.8-0.9-1.7-0.9-2.7
	c-0.2-2.4-0.7-4.8-1.5-7.1c-0.9-2.8-1.7-5.5-2.3-8.3c-2.4-10.2-4.1-20.6-5-31.1c-0.5-5.8-0.6-11.5-0.5-17.3
	c-1.3-15.4-1.8-30.9,0.2-46.3c1.2-9.2,2.7-18.3,4.1-27.5c0.5-3.9,1.2-7.7,2.2-11.5c-3.5,4.3-6.7,8.8-9.5,13.6
	c-4.6,7.6-8.3,15.7-11.1,24.1c0,0.1-0.1,0.2-0.1,0.4l-0.2,0.7c-0.2,0.8-0.4,1.5-0.6,2.3c-0.4,1.4-0.7,2.7-1,4.1
	c-0.6,2.7-1,5.5-1.3,8.3c-0.6,5.9-0.7,11.8-0.4,17.8c0.6,11.9,2.5,23.6,4.5,35.3c1,5.8,2,11.6,2.9,17.4c0.3,1.6,0.5,3.3,0.8,4.9
	c1.5,3.9,2.8,7.9,4,11.9c0.2,0.8,0.4,1.5,0.7,2.3c1-0.1,1.2,1.4,1.2,2.1c0,1,0.1,2,0.1,3c2.6,10.2,4.2,20.7,4.8,31.2
	c2,7.2,4.4,14.3,7.4,21.2C47.9,362.9,49.8,366.7,52.2,370.2z"/>
<path class="st9" d="M135.7,231.8c3.5,4.4,8.5,8.8,14.1,9.6c-1.5-1.7-2.9-3.5-4.1-5.4c-1.3-2.1-2.3-4.4-3.4-6.7s-2.1-4.6-3-6.9
	c-1.4-4-2.3-8.2-2.7-12.4c-0.4,2.6-0.8,5.2-1.1,7.8c-0.1,1.8-0.3,3.6-0.4,5.4C135.1,226,135.3,228.9,135.7,231.8z"/>
<path class="st9" d="M205.1,84.6c-6.9-0.6-13.8,0.1-20.4,2c-3.2,1.1-6.3,2.3-9.4,3.7c-6.6,3-12.9,6.6-18.9,10.6
	c0.7-0.1,1.1,0.7,1.3,1.7c1.5-1.2,3.1-2.3,4.7-3.3c7.7-5.3,16.5-8.9,25.8-10.3c4-0.6,8-0.6,12,0C201.4,87,203.1,85.6,205.1,84.6z"/>
<path class="st10" d="M156,30l0.2,0.1c0.3,0.3,0.6,0.6,0.7,1l0.2,0.8c0.1,0.5,0.1,0.9,0.1,1.4c0,0.1,0,0.2,0,0.3
	c1.7-0.5,3.4-0.9,5.2-1.2c5-0.6,10.1-0.5,15.1,0.2c5,0.6,9.9,1.6,14.7,3c4.2,1.1,8.1,2.8,11.8,5c4,2.5,8.8,6.8,9.6,11.8
	c-1.9-0.6-3.9-1.1-5.9-1.5c-11.2-2.3-22.8-2.2-33.9,0.4c-14.8,3.3-29,9.1-41.9,17c-9.8,5.9-19.3,13-27,21.7
	c-1.7,2.3-3.4,4.7-4.9,7.2c-0.5,0.8-0.9,1.6-1.4,2.4c1.8-1.7,3.5-3.4,5.3-4.9c5.3-4.7,10.9-9.1,16.8-13c1.9-1.4,3.8-2.8,5.8-4.1
	c12-8,25.2-14.2,39.1-18.3c11.2-3.3,22.8-5,34.4-3.6c5,0.5,9.9,1.6,14.6,3.3c2.3,0.8,4.5,1.9,6.5,3.3c1.6,1.1,3,2.5,4,4.2
	c0.2,0.4,0.4,0.9,0.6,1.4l0,0c0,0.1,0.1,0.2,0.1,0.3s0.1,0.6,0.1,0.7v0.5v0.1c0,0.1,0,0.2,0,0.2c0,0.1,0,0.2,0,0.4l-0.1,0.4
	c0,0.1,0,0.1,0,0.2v0.1c-0.3,0.9-0.8,1.7-1.5,2.3c-0.8,0.8-1.8,1.5-2.9,1.9c-2.4,1-5.1,1.5-7.7,1.3c1,1.6,1.5,3.5,1.6,5.3
	c0.1,0.8-0.5,5.1-2.3,4.5c-2-0.7-4-1.2-6-1.5c-0.6-0.1-1.3-0.2-1.9-0.2c-2,1-3.7,2.5-4.9,4.3c2,0.3,3.9,0.7,5.8,1.2
	c1.7-0.9,3.6-1.5,5.5-1.7c4.9-0.5,9.8,0.4,14.3,2.4c4.8,2,9.1,5,12.6,8.7c1.7,1.8,3.2,3.8,4.4,6c0.5,1,0.9,2,1.3,3l0.3,0.8
	c0,0,0,0.1,0,0.1c0,0,0,0.1,0,0.2c0.1,0.6,0.2,1.2,0.3,1.8l0,0c0,0.1,0,0.3,0,0.3c0,0.3,0,0.7,0,1v0.4c0,0.3-0.1,0.7-0.1,1l-0.1,0.4
	c-0.1,0.3-0.1,0.6-0.2,0.9s-0.2,0.8-0.2,0.8c-0.1,0.2-0.2,0.5-0.3,0.7c-0.9,2.2-2.2,4.2-3.9,6c0.4,1.7,0.7,3.5,1,5.3
	c4.2-4.1,6.7-9.6,7-15.5c0.1-5.7-1.7-11.2-5.2-15.7c-6-8.1-16.4-14.4-26.7-14.8c0.6-0.1,1.3-0.1,1.9-0.3c5.9-0.9,10.4-5.6,11-11.6
	c0.3-2.6-0.1-5.2-1.1-7.6c1.1,0.4,2.2,0.8,3.3,1.3c2.7,1.2,5.4,2.6,7.8,4.3c5.1,3.6,9.3,8.3,12.3,13.8c2.8,4.9,4.4,10.4,4.8,16.1
	c0.5,5.4-0.3,10.9-2.3,16c-2.3,6-6.4,11.1-11.9,14.6c-0.3,0.2-0.6,0.5-0.8,0.8c0.2,1.7,0.4,3.4,0.5,5.1c0.2,0,0.3,0,0.5-0.1
	c11.7-7.2,17-20.8,17.1-34.2s-5.6-26.9-16-35.6c-2.8-2.3-5.8-4.2-9.1-5.7c-1.8-0.8-3.6-1.6-5.4-2.2s-3.9-1.6-5.9-1.5
	c-0.5,0-0.9,0.3-1.1,0.7c-1.6-1-3.3-1.8-5-2.5c0-6.2-2.8-11.5-7.4-15.6c-3.9-3.5-8.6-5.6-13.4-7.2c-9.9-3.3-20.9-5.4-31.3-4.4
	c-3.5,0.3-7,1.1-10.2,2.6C154.9,29.2,155.5,29.6,156,30L156,30z"/>
<path class="st10" d="M106.2,321.1l0.1-0.3l0.3-0.5c0.5-1,0.8-2.1,0.7-3.1c-0.3,1.4-0.8,2.7-1.2,4.1L106.2,321.1z"/>
<path class="st10" d="M156.4,100.8c-1.4,0.9-2.7,1.8-4,2.7c-7,4.7-13.7,9.9-20.1,15.5c-1,0.9-2,1.8-2.9,2.7
	c-5.9,7-11.3,14.4-16,22.3c-5.2,8.6-9.9,17.5-14.4,26.5c-5.8,11.7-11,23.7-15.6,36c-4.7,12.7-8.5,25.7-11.5,38.9
	c-2.6,10.9-4.5,21.9-5.8,33c-0.9,8.5-1,17.1-0.5,25.6c0.6,8.6,1.9,17.6,5.8,25.4c3.2,6.4,9.6,13.6,17.4,12.4
	c2.2-0.4,4.2-1.3,5.9-2.7c1.8-4.4,3.8-8.7,5.5-13.2c0.1-0.3,0.2-0.6,0.3-0.8l0.7-2c-0.5,0.9-0.9,1.8-1.4,2.7
	c-1.7,3.1-3.8,6.4-6.8,8.4c-6.3,4.2-13.6-0.5-17.3-5.9c-4.4-6.4-5.9-14.3-6.8-21.9c-0.8-8-0.9-16.1-0.2-24.1
	c0.9-9.5,2.3-19,4.4-28.4c2.6-12.7,6-25.2,10.1-37.4c7.4-21.6,16.9-42.5,28.3-62.3c5-9,10.8-17.5,17.2-25.5
	c5.3-6.4,11.3-12.6,18.4-17.2c3.3-3.2,6.8-6.2,10.4-9C157.5,101.5,157.1,100.8,156.4,100.8z"/>
<path class="st10" d="M100,234.3c-5.3,15.7-12,31.3-11.8,48.2c0.1,6,0.7,12.4,4.2,17.6c2,3,5.2,6.3,9.1,6.6c0.4,0,0.9,0,1.3-0.1V306
	c0.1-1.8,0.2-3.6,0.4-5.5c-0.4,0.1-0.7,0.1-1.1,0.1c-3.1-0.2-5.8-3-7.5-5.4c-1-1.4-1.8-3-2.3-4.7c-0.1-0.2-0.1-0.6-0.2-1.1
	c-0.2-0.9-0.3-1.9-0.4-2.8c-0.2-1.8-0.3-3.6-0.3-5.4c0.1-7,1.2-13.9,3.3-20.5c2.2-7.6,5-15.1,7.6-22.6c0-1.6,0-3.1,0-4.7
	C101.3,232.5,100.3,233.4,100,234.3z"/>
<path class="st10" d="M75.6,373.4c-0.6,0.6-1.2,1.2-1.9,1.7c-3.4,2.9-7.6,4.9-12.1,3.5c-4.1-1.3-7.2-5-9.5-8.5
	c-2.3-3.5-4.3-7.3-5.9-11.1c-3-6.9-5.5-13.9-7.4-21.2c0.1,1.8,0.1,3.6,0.1,5.3c0,2.3-0.1,4.6-0.2,6.9c1.3,3.8,2.7,7.6,4.2,11.3
	c1.7,4.1,3.7,8.2,6,12c2.4,4,5.5,8.2,9.8,10.4c8.7,4.5,16.5-2.8,22-9.3c-1.1,0.5-2.4,0.9-3.6,1C76.2,375.5,75.8,374.5,75.6,373.4z"
	/>
<path class="st10" d="M136.1,244.1l-0.2-0.2c-0.8-0.6-1.5-1.4-2.1-2.2c0-0.1-0.1-0.1-0.1-0.2c-0.2,0.2-0.4,0.3-0.6,0.5
	c-0.2,1.4-0.4,2.8-0.6,4.1l-0.1,1c-0.1,0.8-0.2,1.6-0.2,2.3c0.9-1.1,1.8-2.1,2.9-3C135.7,245.9,136.1,245,136.1,244.1z"/>
<path class="st10" d="M186.4,136.2c-3.8,0.2-7.5,1.4-10.6,3.7l17.2-1c0.3,0,0.5-0.1,0.8-0.2c0.2,0,0.3-0.1,0.4-0.3
	C191.8,137,189.1,136.2,186.4,136.2z"/>
<path class="st10" d="M216.4,251c-2.5,11.6-5.6,23.6-11,34.3c-0.5,0.3-0.8,0.7-1,1.2c-0.2,0.6-0.4,1.3-0.7,1.9
	c-0.7,1.2-1.4,2.4-2.1,3.5c-3.8,5.9-8.7,10.9-15.2,13.8c-5.1,2.3-10.8,3.4-16.3,1.9c-4.3-1.3-8.1-3.8-11.1-7.2c1,0.1,2,0.1,2.9,0
	c6.7-0.8,12.8-5.1,17.9-9.3c5.8-4.9,11.1-10.3,15.8-16.3c1.8-2.2,3.5-4.5,5-6.9c2.4-3.9,4-8.3,5.8-12.5c6-14.3,11.3-29.4,12.2-45
	c0-0.2,0-0.4,0-0.6c-1.1,1.8-2.3,3.5-3.4,5.2c-1.4,11.2-5,22.1-9.2,32.6c-1.3,3.1-2.6,6.2-4,9.3c-0.6,1.4-1.2,2.7-1.8,4.1
	c-0.1,0.3-0.3,0.6-0.4,1c0,0,0,0,0,0.1c0,0-0.1,0.1-0.1,0.2c-1.2,2.1-2.6,4.2-4.1,6.1c-4.2,5.5-8.9,10.6-14,15.2
	c-4.9,4.4-10.4,8.8-16.9,10.5c-2.5,0.8-5.3,0.7-7.8-0.3c-3-1.5-4.5-4.2-5.6-7.2c-0.1-0.5-0.5-0.8-1-0.9c-0.2-0.5-0.4-0.9-0.5-1.3
	c-2.1-5.7-3.7-11.6-4.6-17.6c-0.2-1.4-0.4-2.9-0.6-4.3c-0.1-0.7-0.1-0.6-0.2-1.6c-0.1-0.8-0.1-1.5-0.2-2.3s-0.1-1.6-0.1-2.4
	c2.3,3.8,5.6,6.9,9.5,8.9c4.2,2,9,2.3,13.4,1c10.5-3,17.1-12.4,22.7-21.2c1.6-2.4,3.1-4.9,4.8-7.3l0.1-0.1l0.6-0.4
	c0.3-0.3,0.5-0.8,0.6-1.2c0.3-0.4,0.6-0.7,0.9-1.1c-1.2,0.6-2.5,1-3.9,1.2c-1.9,0.1-3.7-0.7-4.9-2.2c-0.3,0-0.6,0-1,0
	c-2.4-0.1-4.8-0.8-6.9-2c-4.7-2.6-8.4-6.9-11.1-11.4c-1.3-2.2-2.4-4.5-3.2-6.9c-0.1-0.4-0.3-0.9-0.4-1.3l-0.1-0.4
	c-0.2-0.7-0.3-1.4-0.5-2.1c-0.3-1.6-0.6-3.2-0.8-4.8c-0.1-0.4-0.1-0.8-0.1-1.2v-0.1l-0.1-0.6c-0.1-0.9-0.2-1.9-0.2-2.8
	c-0.1-1.9-0.2-3.9-0.2-5.8c0-1,0-2,0-3v-1.4c0-0.2,0-0.4,0-0.6s0-0.6,0-0.8c0.1-3,0.4-5.9,0.7-8.9l-3,0.1c-0.7,6.5-0.9,13-0.7,19.6
	c0.3,7.8,1.3,15.7,4.8,22.8c2.9,5.8,7,11.3,12.6,14.8c3.2,2,7,3,10.9,2.8c-2.1,3.5-4.5,6.9-7.1,10.1c-5.9,7.1-15.2,13.3-24.8,10.2
	c-4.9-1.6-8.5-5.5-11.1-9.8c-1.5-0.5-3-1.3-4.4-2.1c-1.1,11.7,0.8,24,4.2,35.2c3.3,10.7,8.9,23.1,19.4,28.5c10.6,5.5,23,1,31.2-6.8
	c-1.7,3.2-3.6,6.3-5.7,9.2c-5.6,8.3-13.1,16.8-22.9,20c-4.5,1.5-9.3,1.5-13.8,0c-5.8-1.9-11-6.2-15-10.8
	c-9-10.4-11.5-23.9-11.5-37.2c0-0.8,0-1.5,0-2.3c-0.8,3.9-1.7,7.9-2.7,11.8c0.2,2.4,0.4,4.7,0.8,7.1c1.1,7.1,3.6,14,7.3,20.2
	c5,8,13.4,16,23.1,17.9c-0.3,0.5-0.7,1-1.1,1.5c-1.3,1.5-2.8,2.8-4.5,3.9c-3.4,2.1-7.3,3.4-11.2,3.6c-7.7,0.5-16.2-2.1-21.2-8.3
	c-1.4-1.7-2.4-3.5-3.2-5.6c-0.4-0.9-0.6-1.9-0.7-2.9c-0.2-1.2-0.2-2.3-0.2-3.5c0.1-0.8-0.3-1.6-0.8-2.2c-0.7,1.4-1.4,2.8-2.2,4.1
	c-0.1,9.2,5.1,17.6,13.4,21.6c1.9,0.9,3.9,1.6,6,2.1c-3.8,5.8-10,9.6-16.5,11.9c-7.2,2.5-14.9,3.4-22.5,2.9
	c-1.4-0.1-2.8-0.3-4.2-0.5c-1.8,2-3.9,3.6-6.3,4.8c2.8,0.9,5.6,1.4,8.6,1.5c3.9,0.4,7.9,0.3,11.9-0.1c7.9-0.9,15.9-3.2,22.5-7.7
	c3.5-2.3,6.5-5.4,8.7-9c0.6-1,0.8-2.2,0.7-3.4c5.7,0.8,11.4-0.2,16.5-2.9c2.2-1.2,4.3-2.8,6-4.7c1.9-1.9,3.4-4.2,4.3-6.7
	c1.1,0,2.1,0,3.2-0.1c11-1.4,19.6-9.7,26-18c6.9-9.2,12.5-19.3,16.4-30.1c0.1-0.4,0.3-0.7,0.4-1.1c1.7-3.2,3.3-6.5,4.6-9.8
	c2.9-7.3,5.2-14.8,7-22.5c2.1-8.7,3.5-17.5,4.2-26.3c0.9-9.9,1.4-20,3.9-29.7c0.5-2.1,1.2-4.2,2-6.2c0.5-1.2,0.6-2.6,0.1-3.8
	c-1.7,3.4-3.4,6.7-5.3,10C218.8,219,219.7,235.4,216.4,251z"/>
<polygon class="st10" points="164.2,179.8 161.1,179.8 161.1,179.8 164.2,179.8 "/>
<path class="st10" d="M125,260.1c0,0.2,0,0.4-0.1,0.6c0.1-0.7,0.2-1.4,0.3-2.1C125.1,259.1,125.1,259.6,125,260.1z"/>
<path class="st10" d="M32.7,301.7c0.5,1.7,0.9,3.4,1.3,5c0-1-0.1-2-0.1-3C33.9,303,33.6,301.6,32.7,301.7z"/>
<path class="st11" d="M79,366.8L79,366.8L79,366.8C78.9,366.8,79,366.8,79,366.8z"/>
<path class="st11" d="M78.8,366.6"/>
<path class="st11" d="M221.9,189.8c-4.5,8.7-10.2,16.7-17,23.8c-1.5,1.6-3.1,3.1-4.8,4.5c-1,0.9-2.1,1.7-3.2,2.4
	c-0.4,0.3-0.9,0.5-1.3,0.7l-0.6,0.2l-0.2,0.1c-0.3,0-0.5,0-0.8,0l0,0c0-0.2,0-0.4,0-0.6l0,0c0-0.3,0.1-0.5,0.1-0.8s0.1-0.5,0.1-0.7
	l0,0c0.1-0.6,0.2-1.2,0.4-1.8c0.3-1.3,0.7-2.6,1-3.8c0.2-0.6,0.4-1.2,0.5-1.8c0-0.1,0.1-0.4,0.2-0.5l0.4-1.2
	c0.4-1.3,0.9-2.6,1.4-3.9c0.9-2.4,1.8-4.8,2.8-7.2c0.4-0.9,0.7-1.8,1.1-2.7c0.2-0.4,0.3-0.8,0.4-1.2c0.5-0.4,0.8-0.8,1-1.4
	c1.7-4.9,3.4-9.8,4.8-14.8l-7.6,0.1c-1,3.1-2,6.2-3.1,9.2c-2,5.5-4,10.9-6.1,16.3c-1.8,4.2-3.3,8.6-4.5,13c-1.1,4.4-1.9,9.8,0.1,14
	c0.4,0.7,0.8,1.4,1.4,2c1.2,1.4,3.1,2.2,5,2.1c1.4-0.1,2.7-0.5,3.9-1.2c1.2-0.7,2.4-1.5,3.5-2.3c2.6-2.2,5-4.6,7.2-7.2
	c2.7-3.2,5.2-6.6,7.7-10.1c1.2-1.7,2.3-3.4,3.4-5.2c0.6-0.9,1.1-1.7,1.6-2.6c0.8-1.2,1.5-2.4,2.2-3.7c1.9-3.3,3.6-6.6,5.3-10
	c1.4-3,2.8-6.1,4.2-9.2c0.8-1.9,1.6-3.8,2.3-5.8l-7.4,0.1C225.4,182.5,223.7,186.2,221.9,189.8z"/>
<polygon class="st11" points="226.9,178.7 226.9,178.7 234.2,178.6 234.2,178.6 "/>
<polygon class="st11" points="208,179 200.4,179.2 200.4,179.2 208,179 "/>
<path class="st9" d="M233.7,130.1c-0.3-2-0.8-4-1.4-5.9c-1.2-3.8-2.8-7.5-5-10.9c-4.7-7.2-12-12.2-20.4-14.1
	c-8.4-2-17.2-1.7-25.6,0.8c-20.4,7.8-36.7,25-47.3,43.8c-6.5,11.6-10.6,24.4-13.1,37.5c-2.6,13.3-4,27-5.3,40.5
	c-2.6,28.2-1.5,56.8-6.4,84.8c-0.2,1.5-0.4,2.9-0.6,4.3c-0.4,2.2-0.8,4.3-1.4,6.4c-0.3,1.4-0.8,2.7-1.2,4.1
	c-0.3,0.9-0.6,1.8-0.9,2.7c2-3.7,3.9-7.4,5.6-11.2c4.4-10.6,8-21.5,10.6-32.6c0.3-1.8,0.6-3.6,0.9-5.3c0.9-4.7,1.8-9.5,2.6-14.2
	c0.1-0.7,0.2-1.4,0.3-2.1l0,0c0.1-1.2,0.1-2.4,0.2-3.6c0.5-9.6,1.6-19.2,3-28.7c0.3-3.4,0.6-6.7,1-10.1c0.7-6.5,1.5-12.9,2.6-19.4
	s2-12.8,4-19c2.8-8.3,6.6-16.3,11.3-23.7c0.5-1,1.1-1.9,1.8-2.8c1-1.5,2-3.1,3-4.5c5.4-7.8,12-16.3,21-20.1c0.1,0,0.2,0,0.2,0
	c4.1-2.6,8.8-4.2,13.6-4.8c5-0.6,10.1,0.7,14.2,3.7c4,3.1,7,7.2,8.7,11.9l0.2,0.5l24.5-1.4c0-0.3,0-0.6,0-0.9
	C234.3,133.8,234,131.9,233.7,130.1z"/>
<path class="st11" d="M241.7,136.1c0-0.4,0-1,0-1.4c-0.1-1.7-0.3-3.4-0.5-5.1c-0.1-0.4-0.1-0.9-0.2-1.3c-0.3-1.8-0.6-3.5-1-5.3
	c-1.1-4.9-3-9.6-5.4-14c-2.7-4.4-6.1-8.3-10.2-11.5c-3.9-3.1-8.5-5.9-13.4-6.8c-1.1-0.2-2.2-0.3-3.3-0.2c-0.5-0.2-1.1-0.3-1.6-0.5
	c-1.9-0.5-3.9-0.9-5.9-1.2c-4-0.6-8-0.6-12,0c-9.2,1.5-18,5-25.8,10.3c-1.6,1.1-3.1,2.2-4.7,3.3c-3.7,2.8-7.2,5.8-10.4,9
	c-10,9.9-18.3,21.4-24.6,33.9c-2.4,4.6-4.4,9.4-6.1,14.3c-1,2.9-1.9,5.8-2.6,8.8c-6.3,15.7-9.6,32.6-11,49.4
	c-0.4,5.1-0.7,10.3-0.8,15.5c0,1.6,0,3.1,0,4.7c0,3.4,0.1,6.7,0.2,10.1c0.4,10.2,1.8,20.3,2.6,30.4c-0.2,2.6-0.4,5.3-0.6,7.9
	c-0.4,4.7-0.8,9.3-1.2,14c-0.1,1.8-0.3,3.6-0.4,5.5v0.5c-0.3,5.5-0.6,10.9-1.3,16.3c0,0.1-0.1,0.2-0.1,0.3l-0.7,2
	c-0.1,0.3-0.2,0.5-0.3,0.8c-1.7,4.4-3.6,8.8-5.5,13.2c-1.1,2.7-2.2,5.4-3.3,8.1l-0.1,0.3c-0.8,1.7-1.6,3.4-2.4,5.1
	c-0.4,0.8-0.8,1.5-1.2,2.3l-0.1,0.2c-0.1,0.1-0.1,0.2-0.2,0.3c-0.2,0.5-0.5,0.9-0.7,1.4c-1.3,2.6-2.9,5.1-4.6,7.4l-0.3,0.4
	c-0.1,0.1-0.2,0.3-0.4,0.4c-0.3,0.4-0.7,0.7-1.1,1.1l-0.4,0.4l0,0h-0.1c-0.2,0.1-0.3,0.1-0.4,0.2l-0.1,0h-0.4l0.1,0.1l-0.2-0.1
	c-0.1,0-0.2-0.1-0.1-0.1c0,0-0.1,0-0.1-0.1v-0.1c0.1,0.1,0.1,0.2,0,0.1c-0.3-0.4-0.8-0.6-1.3-0.5c-8.2-10.5-14.7-22.3-19-34.9
	c-2.8-7.9-5.1-16-6.8-24.3c0.2-0.8,0.2-1.5,0.1-2.3c0.3-0.8,0.4-1.7,0.4-2.5c-1.5-19.5,0.3-39.2,5.3-58.1c2.4-9.4,5.6-18.6,9.4-27.6
	c4-9.2,8.6-18.2,13-27.3c4.2-9,9.1-17.8,14.5-26.1c5.5-8,11.4-15.8,17.8-23.2c5.3-6.5,11.1-12.6,17.1-18.3c1-0.9,1.9-1.8,2.9-2.7
	c6.4-5.6,13.1-10.7,20.1-15.5c1.3-0.9,2.7-1.8,4-2.7c6-4,12.3-7.5,18.9-10.6c3-1.4,6.2-2.6,9.4-3.7c6.6-1.9,13.6-2.6,20.4-2
	c0.6,0.1,1.3,0.1,1.9,0.2c2,0.3,4,0.8,6,1.5c1.8,0.6,2.4-3.8,2.3-4.5c-0.1-1.9-0.7-3.7-1.6-5.3c-0.3-0.5-0.7-1.1-1.2-1.5
	c-3.2-6.1-10.2-8.9-16.8-10.7c-4.8-1.4-9.8-2.1-14.9-2.1c-5.9,0.2-11.8,0.9-17.5,2.2c-5.6,1.1-11.1,2.5-16.5,4.3
	c-5.3,1.9-10.5,4.2-15.5,6.9c-3.6,1.9-7.1,4.1-10.5,6.3c-5.9,3.9-11.5,8.3-16.8,13c-1.8,1.6-3.6,3.2-5.4,4.9
	c0.4-0.8,0.9-1.6,1.4-2.4c1.5-2.5,3.2-4.8,4.9-7.2c0.3-0.4,0.7-0.9,1-1.4c4.1-5.9,8.1-11.9,12.8-17.3c5-5.6,10.4-10.8,16.2-15.7
	c6.4-5.7,13.1-11.1,19.7-16.5c0.6-0.5,1-1.2,1.1-2l0.3-0.3c0.3-0.3,0.5-0.6,0.6-0.9c0.2-0.4,0.4-0.8,0.5-1.2
	c0.1-0.4,0.2-0.8,0.2-1.2c0-0.1,0-0.2,0-0.3c0-0.5,0-0.9-0.1-1.4l-0.2-0.8c-0.1-0.4-0.4-0.7-0.7-1L156,30l0,0
	c-0.5-0.5-1-0.8-1.6-1.1c-2.2-1.2-5-1-7.5-0.6c-1.4,0.2-2.9,0.6-4.3,1c-4.8,0.3-9.5,1.2-14.1,2.6c-6.5,2.1-13,4.6-19.3,7.3
	c-6.7,2.7-13.2,5.9-19.5,9.4C83.3,52.3,77,56.4,71,60.8c-12,8.8-23.6,18.3-33,29.9c-9.1,11.3-16.9,23.7-23.2,36.8
	c-3.6,7.4-6.4,15.1-8.2,23.1c-0.7,3.3-1.3,6.6-1.6,10c-0.4,2-0.9,4-1.3,6.1c-1,4-1.6,8.1-1.9,12.3c0,0.3,0,0.7,0.1,1
	c-2.7,17.8-2.6,35.8,0.1,53.6c2.6,15.7,7.6,30.9,13,45.8s11.4,29.6,15.2,44.9c1.9,7.7,3.1,15.4,3.7,23.3c0.1,1.7,0.2,3.5,0.3,5.2
	c0,0.3,0,0.5,0,0.8c-0.3,2.5-0.7,5.1-1.2,7.6c-0.6,1.9-1.3,3.7-2.3,5.5c-0.8,1.4-1.6,2.7-2.6,3.9c-1.2,1.4-2.6,2.6-3.7,4.1
	c-0.8,1-1.4,6.8,1.1,5.9c2.8-1.1,5.1-4.5,6.6-7c0.6-0.9,1.1-1.9,1.6-2.9c2.9-3.9,3.9-8.7,4.3-13.6c0.4-2.3,0.6-4.5,0.8-6.8
	s0.2-4.6,0.2-6.9c0-1.8,0-3.5-0.1-5.3c-0.6-10.5-2.2-21-4.8-31.2c-0.4-1.7-0.9-3.4-1.3-5c-0.2-0.8-0.4-1.5-0.7-2.3
	c-1.2-4-2.5-8-4-11.9c-0.3-1.6-0.5-3.3-0.8-4.9c-1-5.8-2-11.6-2.9-17.4c-2-11.7-3.9-23.4-4.5-35.3c-0.3-5.9-0.2-11.9,0.4-17.8
	c0.3-2.8,0.7-5.6,1.3-8.3c0.3-1.4,0.6-2.7,1-4.1c0.2-0.8,0.4-1.5,0.6-2.3l0.2-0.7c0-0.1,0.1-0.2,0.1-0.4c2.8-8.4,6.5-16.5,11.1-24.1
	c2.8-4.8,6-9.3,9.5-13.6c-0.9,3.8-1.6,7.6-2.2,11.5c-1.4,9.2-2.9,18.3-4.1,27.5c-1.9,15.5-1.5,30.9-0.2,46.3
	c-0.1,5.8,0,11.5,0.5,17.3c0.9,10.5,2.6,20.9,5,31.1c0.6,2.8,1.4,5.6,2.3,8.3c0.8,2.3,1.3,4.7,1.5,7.1c0,1,0.3,1.9,0.9,2.7
	c1.5,6.9,3.2,13.7,5.4,20.4c4.5,14,10.8,27.6,19.7,39.3c0.8,1.1,1.7,2.1,2.6,3.2c0,0,0,0,0,0.1c0.2,1,0.6,2,1.4,1.9
	c1.2-0.1,2.5-0.5,3.6-1l0.2-0.1c2.4-1.2,4.5-2.8,6.3-4.8c1.1-1.1,2.1-2.4,3-3.5c4-5.3,7.5-10.9,10.6-16.7c1.4-2.5,2.7-5,4.1-7.5
	c1.7-3,3.7-6,5.4-9c0.2-0.4,0.4-0.8,0.6-1.2c0.8-1.4,1.5-2.8,2.2-4.1c3.6-7.2,6.6-14.6,9-22.3c1-3.1,1.9-6.3,2.7-9.4
	c1-3.9,1.9-7.8,2.7-11.8c2.2-11.4,3.6-22.9,4.8-34.4c0.1-0.8,0.1-1.6,0.2-2.3l0.1-1c0.2-1.4,0.4-2.8,0.6-4.1
	c0.1-0.4,0.1-0.9,0.2-1.4c0.1,0.3,0.2,0.6,0.4,0.9c0,0.1,0.1,0.1,0.1,0.2c0.6,0.8,1.3,1.5,2.1,2.2l0.2,0.2c1.6,1.5,3.4,2.8,5.3,4
	c1.4,0.8,2.9,1.6,4.4,2.1c2.5,0.9,5.2,1.3,7.9,1.1c2.4-0.1,4.9-0.5,6.3-2.7c1.7-2.7,1.2-6.2-0.2-8.8c-1.2-1.9-2.5-3.7-4-5.3
	c-1.6-1.8-3-3.8-4.2-5.9c-3.3-5.4-6.3-11.1-8.8-16.9c-1.2-2.8-2.1-5.8-2.6-8.8c-0.1-2.6,0-5.3,0.3-7.9v-0.1c0.2-0.7,0.4-1.3,0.5-2
	c0.2-0.9,0.2-1.8,0.1-2.6c0.2-1.1,0.4-2.2,0.7-3.4c0.4-1.9,1-3.8,1.5-5.6c0.7-2,1.4-4,2.2-6c0.1-0.3,0.3-0.7,0.4-1v-0.1
	c0.2-0.4,0.4-0.9,0.6-1.3c0.8-1.6,1.7-3.2,2.6-4.8c0.6-0.9,1.1-1.9,1.7-2.8c1.4-2.2,2.9-4.4,4.6-6.5c3.4-4.3,7.1-8.3,11.2-12
	c1.5-1.3,3-2.6,4.6-3.9c0.9-0.7,1.9-1.5,2.8-2.2c0.4,0,0.7-0.1,1-0.3l0.7-0.5l0.2-0.2l0,0c3.1-2.2,6.8-3.5,10.6-3.7
	c2.8,0,5.5,0.8,7.9,2.2c0.2,0.1,0.3,0.2,0.4,0.4l15.2-0.9l-0.2-0.5c-1.7-4.7-4.6-8.7-8.5-11.8c-4.1-3-9.1-4.3-14.1-3.8
	c-4.8,0.6-9.5,2.2-13.6,4.8c-0.1,0-0.2,0-0.2,0c-9,3.7-15.6,12.3-21,20.1c-1,1.5-2,3-3,4.5c-0.6,0.9-1.2,1.8-1.8,2.8
	c-4.8,7.4-8.6,15.4-11.3,23.7c-2,6.1-3,12.6-4,19s-1.8,12.9-2.6,19.4c-0.4,3.4-0.7,6.7-1,10.1c-1.4,9.5-2.5,19.1-3,28.7
	c-0.1,1.2-0.1,2.4-0.2,3.6l0,0c-0.1,0.7-0.2,1.4-0.3,2.1c-0.8,4.8-1.7,9.5-2.6,14.2c-0.3,1.8-0.6,3.5-0.9,5.3
	c-2.6,11.1-6.1,22.1-10.6,32.6c-1.7,3.9-3.6,7.6-5.6,11.2c0.3-0.9,0.6-1.8,0.9-2.7c0.4-1.4,0.8-2.7,1.2-4.1c0.6-2.1,1-4.2,1.4-6.4
	c0.2-1.4,0.4-2.9,0.6-4.3c4.9-28,3.8-56.6,6.4-84.8c1.2-13.5,2.7-27.1,5.3-40.5c2.5-13.1,6.5-25.8,13.1-37.5
	c10.6-18.8,26.9-36,47.3-43.8c8.3-2.5,17.1-2.7,25.6-0.8c8.4,1.9,15.7,6.9,20.4,14.1c2.2,3.4,3.8,7,5,10.9c0.6,1.9,1.1,3.9,1.4,5.9
	c0.3,1.8,0.6,3.7,0.7,5.5c0,0.3,0,0.6,0,0.9l-20.4,1.3L241.7,136.1z M46.5,268.6c-0.3-1.7-0.7-3.5-0.9-5.2
	c-0.5-5.6-0.8-11.2-1.1-16.9c-0.2-2.9-0.3-5.8-0.4-8.6c0-4.6,0.2-9.2,0.4-13.6c0.8-18.4,3-36.6,6.5-54.6c0.9-5.1,2.3-10,4.3-14.8
	c0.5-1.1,1-2.2,1.5-3.2c0.5-0.6,0.8-1.3,1-2c0-0.1,0.1-0.3,0.1-0.5c0.8-1.8,1.5-3.6,2.1-5.4c1.2-2.5,2.5-5,3.8-7.4
	c1.3-2.4,2.4-4.7,3.4-7.1c1.1-2.8,2.2-5.9,1.9-9c-0.2-1.2-1-2-1.8-1.7c-0.1-0.3-0.2-0.6-0.4-0.8c-1-1.4-2.2,0-2.7,1.1
	c-7.7,18.9-23.4,32.8-35.1,49.1c-6,8.3-10.5,17.6-13.4,27.4c-2.8,10.2-4.3,20.7-4.3,31.3c0,5.8,0.3,11.6,1,17.3
	c0.1,0.9,0.2,1.9,0.3,2.9c-3.5-13.5-5.6-27.4-6.2-41.4C6.2,195,7,184.9,9,174.9c0.4-0.8,0.5-1.6,0.5-2.5c3.1-14.4,8-28.3,14.5-41.4
	c5.4-11.1,12.1-21.5,19.9-31.2c7.9-9.5,16.8-18,26.6-25.5C90.1,59,112.2,44,137.1,39.1c1.5-0.3,2.9-0.5,4.4-0.7
	c-11.8,8.6-22.4,18.7-31.6,30.1c-11.3,14.2-20.5,30-27.3,46.9c-1,2.5-2,4.9-2.9,7.4l-0.2,0.3c-4.9,10.2-8.8,20.8-11.5,31.8
	c-1.6,6.3-2.9,12.6-4,19c-0.2,1.1,0,3.7,1.5,3.9c0.1,0,0.2,0,0.3,0c0.2,0.3,0.5,0.4,0.8,0.5c1.5,0.2,2.1-2.5,2.2-3.5
	c0.6-6.2,1.8-12.3,3.8-18.2c2.1-6.4,4.8-12.5,8-18.4c6.4-11.7,14.5-22.3,24-31.7c7.6-7.3,16.1-13.6,25.3-18.8
	c10.1-5.9,21-10.3,32.3-13.1c7.3-1.7,15.3-2.6,22.9-1.5h0.1l0.7,0.3c0.5,0.2,1.1,0.4,1.6,0.5c1.2,0.3,2.4,0.5,3.7,0.7
	c2.4,0.4,4.7,0.8,7,1.4c-5.2,0.6-10.3,1.8-15.3,3.5c-7.2,2-14.2,4.7-20.9,7.9c-17,8-31.6,20.1-44.4,33.8
	c-13.3,14.2-25.1,29.8-35.2,46.5c-10.1,17-18.3,35-24.5,53.7C52.9,236.9,49.1,252.7,46.5,268.6z M136.6,209.9
	c0.4,4.2,1.3,8.4,2.7,12.4c0.9,2.4,1.9,4.7,3,6.9s2.1,4.5,3.4,6.7c1.2,1.9,2.6,3.7,4.1,5.4c-5.5-0.8-10.6-5.1-14.1-9.6
	c-0.4-2.9-0.6-5.8-0.6-8.7c0.1-1.8,0.3-3.6,0.4-5.4C135.8,215.1,136.2,212.4,136.6,209.9L136.6,209.9z"/>
</svg>
