<?xml version="1.0" encoding="utf-8"?>
<!-- Generator: Adobe Illustrator 25.2.1, SVG Export Plug-In . SVG Version: 6.00 Build 0)  -->
<svg version="1.1" xmlns="http://www.w3.org/2000/svg" xmlns:xlink="http://www.w3.org/1999/xlink" x="0px" y="0px"
	 viewBox="0 0 844.1 676.8" style="enable-background:new 0 0 844.1 676.8;" xml:space="preserve">
<style type="text/css">
	.st0{fill:#FFFFFF;}
	.st1{fill:#B3B3B3;}
	.st2{fill:#787878;}
	.st3{fill:#FAFAFA;}
	.st4{fill:#FFF5DB;}
	.st5{fill:#546111;}
	.st6{fill:#F27F49;}
	.st7{fill:#D62448;}
	.st8{fill:#DEC49E;stroke:#99573A;stroke-width:2;stroke-linecap:round;stroke-linejoin:round;stroke-miterlimit:10;}
	.st9{display:none;}
	.st10{display:inline;}
	
		.st11{display:inline;fill:#DEC49E;stroke:#99573A;stroke-width:2;stroke-linecap:round;stroke-linejoin:round;stroke-miterlimit:10;}
	.st12{fill:#BABABA;}
</style>
<g id="Layer_1">
</g>
<g id="Layer_2">
	<g>
		<g>
			<path d="M92.5,248.9c8.1,3.5,15.2,8.2,21.2,14.3c6,6,10.8,13.1,14.3,21.2c3.5,8.1,5.3,16.7,5.3,25.9c0,6.1-0.8,12.1-2.4,17.8
				c-1.6,5.7-3.8,11-6.7,15.9c-2.9,4.9-6.4,9.4-10.5,13.5c-4.1,4.1-8.6,7.6-13.5,10.5c-4.9,2.9-10.2,5.1-15.9,6.7
				c-5.7,1.6-11.6,2.4-17.8,2.4c-6.1,0-12.1-0.8-17.8-2.4c-5.7-1.6-11-3.8-15.9-6.7c-4.9-2.9-9.4-6.4-13.4-10.5
				c-4-4.1-7.5-8.6-10.3-13.5C6.1,339,3.9,333.7,2.4,328C0.8,322.3,0,316.4,0,310.2c0-6.1,0.8-12.1,2.4-17.7
				c1.6-5.7,3.8-11,6.7-15.9c2.9-4.9,6.3-9.4,10.3-13.5c4-4.1,8.5-7.5,13.4-10.5c4.9-2.9,10.2-5.1,15.9-6.7
				c5.7-1.6,11.6-2.4,17.8-2.4C75.7,243.6,84.4,245.4,92.5,248.9z M45.5,260.8c-6.5,2.8-12.2,6.6-17,11.5c-4.8,4.9-8.6,10.5-11.4,17
				c-2.8,6.5-4.2,13.5-4.2,20.9c0,7.5,1.4,14.5,4.2,21.1c2.8,6.5,6.6,12.2,11.4,17.1c4.8,4.9,10.5,8.7,17,11.5
				c6.5,2.8,13.5,4.2,21.1,4.2c7.4,0,14.4-1.4,21-4.2c6.5-2.8,12.2-6.6,17.1-11.5c4.8-4.8,8.7-10.5,11.5-17.1
				c2.8-6.5,4.2-13.5,4.2-21.1c0-7.4-1.4-14.4-4.2-20.9c-2.8-6.5-6.6-12.2-11.5-17c-4.9-4.8-10.5-8.7-17.1-11.5
				c-6.5-2.8-13.5-4.2-21-4.2C59.1,256.6,52.1,258,45.5,260.8z"/>
			<path d="M227.2,369.3c0,1.8-0.6,3.4-1.8,4.6c-1.2,1.2-2.8,1.8-4.6,1.8c-1.8,0-3.3-0.6-4.5-1.8c-1.2-1.2-1.8-2.8-1.8-4.6v-42.8
				V326c-0.1-10.9-2.6-19.3-7.3-25.2c-4.7-5.8-11.4-8.8-19.9-8.8c-4.2,0-8.1,0.8-11.7,2.5c-3.7,1.6-6.9,3.9-9.6,6.8
				c-2.8,2.9-5,6.3-6.6,10.3c-1.6,4-2.5,8.2-2.7,12.8v44.7c0,1.8-0.6,3.4-1.9,4.7c-1.3,1.3-2.8,1.9-4.6,1.9c-1.8,0-3.3-0.6-4.6-1.9
				c-1.3-1.3-1.9-2.8-1.9-4.7v-83.5c0-1.8,0.6-3.3,1.9-4.6c1.3-1.3,2.8-1.9,4.6-1.9c1.8,0,3.3,0.6,4.5,1.9c1.2,1.3,1.8,2.8,1.8,4.6
				v11c4-5.2,8.8-9.4,14.3-12.5c5.5-3.2,11.4-4.8,17.7-4.8c5.9,0,11.2,1.1,15.9,3.3c4.7,2.2,8.8,5.3,12.2,9.4c3.4,4.1,6,9,7.8,14.8
				c1.8,5.8,2.7,12.2,2.8,19.3v0.5V369.3z"/>
			<path d="M255.5,369.3c0,1.8-0.6,3.3-1.9,4.5c-1.3,1.2-2.8,1.8-4.6,1.8c-1.8,0-3.3-0.6-4.6-1.8c-1.3-1.2-1.9-2.7-1.9-4.5V250.9
				c0-1.8,0.6-3.4,1.9-4.6c1.3-1.2,2.8-1.8,4.6-1.8c1.8,0,3.3,0.6,4.6,1.8c1.3,1.2,1.9,2.7,1.9,4.6V369.3z"/>
			<path d="M306.9,354.2l31.1-71c0.8-1.6,1.9-2.8,3.6-3.5s3.3-0.7,4.9,0.1c1.7,0.8,2.9,1.9,3.5,3.6c0.6,1.6,0.5,3.3-0.2,5.1
				l-37.2,83.7l-0.3,0.8l-15.3,34.4c-0.8,1.7-2,2.9-3.6,3.5c-1.7,0.6-3.4,0.6-5.1-0.2c-1.6-0.8-2.7-1.9-3.1-3.5
				c-0.4-1.6-0.2-3.2,0.5-5l14.2-32.6l-35.9-81.3c-0.8-1.7-0.8-3.4-0.2-5c0.6-1.6,1.8-2.8,3.4-3.6c1.6-0.8,3.3-0.8,4.9-0.1
				c1.6,0.7,2.8,1.9,3.6,3.6L306.9,354.2z"/>
		</g>
		<g>
			<path class="st0" d="M392.8,652L348.1,37.5c-0.6-7.6,5.2-14.2,12.8-14.8L507.6,12c7.6-0.6,14.2,5.2,14.8,12.8l44.7,614.5
				c0.6,7.6-5.2,14.2-12.8,14.8l-146.8,10.7C400,665.3,393.3,659.6,392.8,652z"/>
		</g>
		<g>
			<g>
				<polygon class="st1" points="507.7,27.4 520,3.8 510.5,28.6 				"/>
			</g>
			<g>
				<polygon class="st1" points="554.5,636.9 571.8,656.7 552.4,639 				"/>
			</g>
			<g>
				<polygon class="st1" points="408,649.4 391.8,670.4 405.6,647.7 				"/>
			</g>
			<g>
				<polygon class="st1" points="361.1,39.7 346.1,17 363.6,37.9 				"/>
			</g>
		</g>
		<g>
			<path class="st2" d="M508.6,12c7.2,0,13.2,5.5,13.7,12.8l44.7,614.5c0.6,7.6-5.2,14.2-12.8,14.8l-146.8,10.7c-0.3,0-0.7,0-1,0
				c-7.2,0-13.2-5.5-13.7-12.8L348.1,37.5c-0.6-7.6,5.2-14.2,12.8-14.8L507.6,12C508,12,508.3,12,508.6,12 M508.6,0L508.6,0
				c-0.6,0-1.3,0-1.9,0.1L359.9,10.8c-6.9,0.5-13.1,3.6-17.6,8.9c-4.5,5.2-6.7,11.9-6.2,18.7l44.7,614.5c1,13.4,12.3,23.9,25.7,23.9
				c0.6,0,1.3,0,1.9-0.1L555.2,666c6.9-0.5,13.1-3.6,17.6-8.9c4.5-5.2,6.7-11.9,6.2-18.7L534.4,23.9C533.4,10.5,522.1,0,508.6,0
				L508.6,0z"/>
		</g>
		<g>
			<g>
				<path class="st3" d="M409.8,649.9c-2.5,0-4.5-1.9-4.7-4.4L361.1,42.1c-0.2-2.6,1.8-4.9,4.4-5.1l140.1-10.2c0.1,0,0.2,0,0.3,0
					c2.5,0,4.5,1.9,4.7,4.4l43.9,603.4c0.2,2.6-1.8,4.9-4.4,5.1l-140.1,10.2C410,649.9,409.9,649.9,409.8,649.9z"/>
			</g>
			<g>
				<path class="st1" d="M506,28.3c1.7,0,3.1,1.3,3.2,3l43.9,603.4c0.1,1.8-1.2,3.3-3,3.5L410,648.4c-0.1,0-0.2,0-0.2,0
					c-1.7,0-3.1-1.3-3.2-3L362.6,42c-0.1-1.8,1.2-3.3,3-3.5l140.1-10.2C505.9,28.3,505.9,28.3,506,28.3 M506,25.3
					c-0.2,0-0.3,0-0.5,0L365.4,35.6c-1.7,0.1-3.2,0.9-4.3,2.1c-1.1,1.3-1.6,2.9-1.5,4.5l43.9,603.4c0.2,3.2,3,5.8,6.2,5.8
					c0.2,0,0.3,0,0.5,0l140.1-10.2c3.4-0.2,6-3.2,5.8-6.7L512.2,31.1C512,27.9,509.3,25.3,506,25.3L506,25.3z"/>
			</g>
		</g>
		<g>
			<g>
				<g>
					<g>
						<path class="st4" d="M454.7,625.5c-17.1,0-31.3-13.4-32.4-30.4l-2.6-40.9c-0.5-8.6,2.3-17,8.1-23.5c5.8-6.5,13.7-10.4,22.3-11
							L491,517c0.7,0,1.4-0.1,2.1-0.1c17.1,0,31.3,13.4,32.4,30.4l2.6,40.9c0.5,8.6-2.3,17-8.1,23.5s-13.7,10.4-22.3,11l-40.9,2.6
							C456.1,625.4,455.4,625.5,454.7,625.5z"/>
					</g>
					<g>
						<path d="M493.1,519c15.9,0,29.4,12.5,30.4,28.6l2.6,40.9c1.1,16.7-11.8,31.3-28.5,32.3l-40.9,2.6c-0.6,0-1.3,0.1-1.9,0.1
							c-15.9,0-29.4-12.5-30.4-28.6l-2.6-40.9c-1.1-16.7,11.8-31.3,28.5-32.3l40.9-2.6C491.8,519,492.4,519,493.1,519 M493.1,515
							L493.1,515c-0.7,0-1.5,0-2.2,0.1l-40.9,2.6c-9.2,0.6-17.6,4.7-23.7,11.6c-6.1,6.9-9.2,15.8-8.6,24.9l2.6,40.9
							c1.1,18.1,16.3,32.3,34.4,32.3c0.7,0,1.5,0,2.2-0.1l40.9-2.6c9.2-0.6,17.6-4.7,23.7-11.6s9.2-15.8,8.6-24.9l-2.6-40.9
							C526.3,529.2,511.2,515,493.1,515L493.1,515z"/>
					</g>
				</g>
				<g>
					<g>
						<path class="st5" d="M496.4,599.6l-41.2,2.7c-5.1,0.3-9.5-3.5-9.8-8.6l-2.7-41.2c-0.3-5.1,3.5-9.5,8.6-9.8l41.2-2.7
							c5.1-0.3,9.5,3.5,9.8,8.6l2.7,41.2C505.3,594.9,501.5,599.3,496.4,599.6z"/>
					</g>
					<g>
						<path class="st6" d="M478,601l-22.6,1.5c-5.2,0.3-9.7-3.6-10-8.8l-0.7-10.5c-0.3-5.2,3.6-9.7,8.8-10l22.6-1.5
							c5.2-0.3,9.7,3.6,10,8.8l0.7,10.5C487.2,596.1,483.2,600.6,478,601z"/>
					</g>
					<g>
						<path class="st7" d="M496.2,599.7l-10.4,0.7c-5.2,0.3-9.7-3.6-10-8.8l-1.6-25.1c-0.3-5.2,3.6-9.7,8.8-10l10.4-0.7
							c5.2-0.3,9.7,3.6,10,8.8l1.6,25.1C505.3,594.9,501.4,599.4,496.2,599.7z"/>
					</g>
					<g>
						<path class="st7" d="M497.4,574.5l-16,1c-3.6,0.2-6.8-2.5-7-6.2l-0.7-11.2c-0.6-9.3,6.4-17.3,15.7-17.9l5.8-0.4
							c3.6-0.2,6.8,2.5,7,6.2l1.4,21.4C503.8,571.1,501,574.2,497.4,574.5z"/>
					</g>
					<g>
						<path class="st6" d="M491,600.1l-32.4,2.1l-1.9-29.3l17.2-1.1c8.4-0.5,15.6,5.8,16.2,14.2L491,600.1z"/>
					</g>
				</g>
			</g>
			<g>
				<g>
					<g>
						<path class="st4" d="M443.8,470.2c-17.1,0-31.3-13.4-32.4-30.4l-2.6-40.9c-0.5-8.6,2.3-17,8.1-23.5c5.8-6.5,13.7-10.4,22.3-11
							l40.9-2.6c0.7,0,1.4-0.1,2.1-0.1c17.1,0,31.3,13.4,32.4,30.4l2.6,40.9c0.5,8.6-2.3,17-8.1,23.5s-13.7,10.4-22.3,11l-40.9,2.6
							C445.2,470.2,444.5,470.2,443.8,470.2z"/>
					</g>
					<g>
						<path d="M482.2,363.7c15.9,0,29.4,12.5,30.4,28.6l2.6,40.9c1.1,16.7-11.8,31.3-28.5,32.3l-40.9,2.6c-0.6,0-1.3,0.1-1.9,0.1
							c-15.9,0-29.4-12.5-30.4-28.6l-2.6-40.9c-1.1-16.7,11.8-31.3,28.5-32.3l40.9-2.6C480.9,363.8,481.6,363.7,482.2,363.7
							 M482.2,359.7L482.2,359.7c-0.7,0-1.5,0-2.2,0.1l-40.9,2.6c-9.2,0.6-17.6,4.7-23.7,11.6c-6.1,6.9-9.2,15.8-8.6,24.9l2.6,40.9
							c1.1,18.1,16.3,32.3,34.4,32.3c0.7,0,1.5,0,2.2-0.1l40.9-2.6c9.2-0.6,17.6-4.7,23.7-11.6c6.1-6.9,9.2-15.8,8.6-24.9l-2.6-40.9
							C515.5,373.9,500.4,359.7,482.2,359.7L482.2,359.7z"/>
					</g>
				</g>
				<g>
					<g>
						<path class="st5" d="M485.6,444.4l-41.2,2.7c-5.1,0.3-9.5-3.5-9.8-8.6l-2.7-41.2c-0.3-5.1,3.5-9.5,8.6-9.8l41.2-2.7
							c5.1-0.3,9.5,3.5,9.8,8.6l2.7,41.2C494.5,439.7,490.6,444,485.6,444.4z"/>
					</g>
					<g>
						<path class="st6" d="M467.2,445.7l-22.6,1.5c-5.2,0.3-9.7-3.6-10-8.8l-0.7-10.5c-0.3-5.2,3.6-9.7,8.8-10l22.6-1.5
							c5.2-0.3,9.7,3.6,10,8.8l0.7,10.5C476.3,440.9,472.4,445.4,467.2,445.7z"/>
					</g>
					<g>
						<path class="st7" d="M485.4,444.5l-10.4,0.7c-5.2,0.3-9.7-3.6-10-8.8l-1.6-25.1c-0.3-5.2,3.6-9.7,8.8-10l10.4-0.7
							c5.2-0.3,9.7,3.6,10,8.8l1.6,25.1C494.5,439.7,490.6,444.2,485.4,444.5z"/>
					</g>
					<g>
						<path class="st7" d="M486.5,419.2l-16,1c-3.6,0.2-6.8-2.5-7-6.2l-0.7-11.2c-0.6-9.3,6.4-17.3,15.7-17.9l5.8-0.4
							c3.6-0.2,6.8,2.5,7,6.2l1.4,21.4C492.9,415.9,490.2,419,486.5,419.2z"/>
					</g>
					<g>
						<path class="st6" d="M480.2,444.9l-32.4,2.1l-1.9-29.3l17.2-1.1c8.4-0.5,15.6,5.8,16.2,14.2L480.2,444.9z"/>
					</g>
				</g>
			</g>
			<g>
				<g>
					<g>
						<path class="st4" d="M433,315c-17.1,0-31.3-13.4-32.4-30.4l-2.6-40.9c-0.5-8.6,2.3-17,8.1-23.5s13.7-10.4,22.3-11l40.9-2.6
							c0.7,0,1.4-0.1,2.1-0.1c17.1,0,31.3,13.4,32.4,30.4l2.6,40.9c0.5,8.6-2.3,17-8.1,23.5s-13.7,10.4-22.3,11l-40.9,2.6
							C434.3,315,433.7,315,433,315z"/>
					</g>
					<g>
						<path d="M471.3,208.5c15.9,0,29.4,12.5,30.4,28.6l2.6,40.9c1.1,16.7-11.8,31.3-28.5,32.3l-40.9,2.6c-0.6,0-1.3,0.1-1.9,0.1
							c-15.9,0-29.4-12.5-30.4-28.6l-2.6-40.9c-1.1-16.7,11.8-31.3,28.5-32.3l40.9-2.6C470.1,208.5,470.7,208.5,471.3,208.5
							 M471.4,204.5L471.4,204.5c-0.7,0-1.5,0-2.2,0.1l-40.9,2.6c-19,1.2-33.4,17.6-32.2,36.6l2.6,40.9
							c1.1,18.1,16.3,32.3,34.4,32.3c0.7,0,1.5,0,2.2-0.1l40.9-2.6c19-1.2,33.4-17.6,32.2-36.6l-2.6-40.9
							C504.6,218.7,489.5,204.5,471.4,204.5L471.4,204.5z"/>
					</g>
				</g>
				<g>
					<g>
						<path class="st5" d="M474.7,289.2l-41.2,2.7c-5.1,0.3-9.5-3.5-9.8-8.6L421,242c-0.3-5.1,3.5-9.5,8.6-9.8l41.2-2.7
							c5.1-0.3,9.5,3.5,9.8,8.6l2.7,41.2C483.6,284.4,479.8,288.8,474.7,289.2z"/>
					</g>
					<g>
						<path class="st6" d="M456.3,290.5l-22.6,1.5c-5.2,0.3-9.7-3.6-10-8.8l-0.7-10.5c-0.3-5.2,3.6-9.7,8.8-10l22.6-1.5
							c5.2-0.3,9.7,3.6,10,8.8l0.7,10.5C465.5,285.7,461.5,290.2,456.3,290.5z"/>
					</g>
					<g>
						<path class="st7" d="M474.5,289.3l-10.4,0.7c-5.2,0.3-9.7-3.6-10-8.8l-1.6-25.1c-0.3-5.2,3.6-9.7,8.8-10l10.4-0.7
							c5.2-0.3,9.7,3.6,10,8.8l1.6,25.1C483.6,284.5,479.7,289,474.5,289.3z"/>
					</g>
					<g>
						<path class="st7" d="M475.7,264l-16,1c-3.6,0.2-6.8-2.5-7-6.2l-0.7-11.2c-0.6-9.3,6.4-17.3,15.7-17.9l5.8-0.4
							c3.6-0.2,6.8,2.5,7,6.2l1.4,21.4C482.1,260.6,479.3,263.8,475.7,264z"/>
					</g>
					<g>
						<path class="st6" d="M469.3,289.6l-32.4,2.1l-1.9-29.3l17.2-1.1c8.4-0.5,15.6,5.8,16.2,14.2L469.3,289.6z"/>
					</g>
				</g>
			</g>
			<g>
				<g>
					<g>
						<path class="st4" d="M422.1,159.8c-17.1,0-31.3-13.4-32.4-30.4l-2.6-40.9c-0.5-8.6,2.3-17,8.1-23.5c5.8-6.5,13.7-10.4,22.3-11
							l40.9-2.6c0.7,0,1.4-0.1,2.1-0.1c17.1,0,31.3,13.4,32.4,30.4l2.6,40.9c0.5,8.6-2.3,17-8.1,23.5c-5.8,6.5-13.7,10.4-22.3,11
							l-40.9,2.6C423.5,159.8,422.8,159.8,422.1,159.8z"/>
					</g>
					<g>
						<path d="M460.5,53.3c15.9,0,29.4,12.5,30.4,28.6l2.6,40.9c1.1,16.7-11.8,31.3-28.5,32.3l-40.9,2.6c-0.6,0-1.3,0.1-1.9,0.1
							c-15.9,0-29.4-12.5-30.4-28.6l-2.6-40.9c-1.1-16.7,11.8-31.3,28.5-32.3l40.9-2.6C459.2,53.3,459.9,53.3,460.5,53.3
							 M460.5,49.3L460.5,49.3c-0.7,0-1.5,0-2.2,0.1l-40.9,2.6c-19,1.2-33.4,17.6-32.2,36.6l2.6,40.9c1.1,18.1,16.3,32.3,34.4,32.3
							c0.7,0,1.5,0,2.2-0.1l40.9-2.6c9.2-0.6,17.6-4.7,23.7-11.6c6.1-6.9,9.2-15.8,8.6-24.9l-2.6-40.9
							C493.8,63.5,478.7,49.3,460.5,49.3L460.5,49.3z"/>
					</g>
				</g>
				<g>
					<g>
						<path class="st5" d="M463.9,133.9l-41.2,2.7c-5.1,0.3-9.5-3.5-9.8-8.6l-2.7-41.2c-0.3-5.1,3.5-9.5,8.6-9.8l41.2-2.7
							c5.1-0.3,9.5,3.5,9.8,8.6l2.7,41.2C472.8,129.2,468.9,133.6,463.9,133.9z"/>
					</g>
					<g>
						<path class="st6" d="M445.5,135.3l-22.6,1.5c-5.2,0.3-9.7-3.6-10-8.8l-0.7-10.5c-0.3-5.2,3.6-9.7,8.8-10l22.6-1.5
							c5.2-0.3,9.7,3.6,10,8.8l0.7,10.5C454.6,130.4,450.7,134.9,445.5,135.3z"/>
					</g>
					<g>
						<path class="st7" d="M463.7,134.1l-10.4,0.7c-5.2,0.3-9.7-3.6-10-8.8l-1.6-25.1c-0.3-5.2,3.6-9.7,8.8-10l10.4-0.7
							c5.2-0.3,9.7,3.6,10,8.8l1.6,25.1C472.8,129.2,468.8,133.7,463.7,134.1z"/>
					</g>
					<g>
						<path class="st7" d="M464.8,108.8l-16,1c-3.6,0.2-6.8-2.5-7-6.2l-0.7-11.2c-0.6-9.3,6.4-17.3,15.7-17.9l5.8-0.4
							c3.6-0.2,6.8,2.5,7,6.2l1.4,21.4C471.2,105.4,468.5,108.6,464.8,108.8z"/>
					</g>
					<g>
						<path class="st6" d="M458.5,134.4l-32.4,2.1l-1.9-29.3l17.2-1.1c8.4-0.5,15.6,5.8,16.2,14.2L458.5,134.4z"/>
					</g>
				</g>
			</g>
		</g>
		<g>
			<path class="st2" d="M630.1,325.8c0,19.3-15.7,35.1-35,35.1c-19.3,0-35.1-15.7-35.1-35.1s15.8-35.1,35.1-35.1
				C614.4,290.7,630.1,306.4,630.1,325.8z M615.5,325.8c0-11.3-9-20.3-20.4-20.3c-11.3,0-20.4,9-20.4,20.3
				c0,11.2,9.1,20.4,20.4,20.4C606.5,346.2,615.5,337,615.5,325.8z"/>
			<path class="st2" d="M706.5,325.8c0,19.3-15.7,35.1-35,35.1c-19.3,0-35.1-15.7-35.1-35.1s15.8-35.1,35.1-35.1
				C690.8,290.7,706.5,306.4,706.5,325.8z M691.9,325.8c0-11.3-9-20.3-20.4-20.3c-11.3,0-20.4,9-20.4,20.3
				c0,11.2,9.1,20.4,20.4,20.4C682.9,346.2,691.9,337,691.9,325.8z"/>
			<path class="st2" d="M768.3,297.3v-24.2c0-4,3.2-7.2,7.3-7.2s7.4,3.2,7.4,7.2v79.7c0,4-3.3,7.2-7.4,7.2c-3.6,0-6.5-2.5-7.2-5.9
				c-5.7,4.2-12.8,6.7-20.4,6.7c-19.3,0-35.1-15.7-35.1-35c0-19.4,15.8-35.1,35.1-35.1C755.5,290.7,762.6,293.1,768.3,297.3z
				 M747.9,305.5c-11.3,0-20.4,9-20.4,20.3c0,11.2,9.1,20.3,20.4,20.3c11.1,0,19.9-8.6,20.4-19.4V325
				C767.9,314,759,305.5,747.9,305.5z"/>
			<path class="st2" d="M819.3,347.9c5.4,0,10.6-2.7,10.6-7.4c0-5.7-7-7.5-11.9-9c-11.8-4.1-23.2-9-23.2-20.8
				c0-12.4,11.6-20.2,24.2-20.2c8.2,0,18,3.2,21.4,9.9c0.5,1.1,0.8,2.2,0.8,3.2c0,3.4-3.1,6.3-6.4,6.3c-0.8,0-1.6-0.1-2.4-0.5
				c-4.1-2.9-7.1-5.9-12.4-5.9c-6,0-10.5,2.2-10.5,6.9c0,4.8,5.3,6.8,12.5,9c11.7,3.7,22.1,8.1,22.1,20.7
				c0,11.7-10.5,20.8-24.7,20.8c-9.3,0-20.4-3.7-25.2-12.4c-0.8-1.5-1.1-2.8-1.1-4c0-3.8,3.1-6.5,6.7-6.5c2.2,0,4.6,1,6.6,3.5
				C809.6,345.9,813.2,347.9,819.3,347.9z"/>
		</g>
		<g>
			<polygon class="st8" points="772.7,54.3 407.7,187 417.8,187.5 756.5,77.5 			"/>
		</g>
		<g>
			<polygon class="st8" points="820.8,147.3 406.4,202.5 414.7,197.3 798,134.7 			"/>
		</g>
	</g>
</g>
<g id="Layer_3" class="st9">
	<g class="st10">
		<path d="M100.5,251.8c7.9,3.4,14.7,8,20.6,13.9c5.9,5.9,10.5,12.7,13.9,20.5c3.4,7.8,5.1,16.2,5.1,25.2c0,6-0.8,11.7-2.3,17.3
			c-1.6,5.5-3.7,10.7-6.5,15.5c-2.8,4.8-6.2,9.2-10.2,13.1c-4,4-8.4,7.4-13.1,10.1s-9.9,5-15.5,6.5c-5.5,1.6-11.3,2.3-17.3,2.3
			c-6,0-11.7-0.8-17.3-2.3c-5.5-1.6-10.7-3.7-15.5-6.5s-9.1-6.2-13-10.1c-3.9-4-7.3-8.4-10-13.1c-2.8-4.8-4.9-9.9-6.5-15.5
			c-1.5-5.5-2.3-11.3-2.3-17.3c0-6,0.8-11.7,2.3-17.2c1.5-5.5,3.7-10.6,6.5-15.4s6.1-9.1,10-13.1c3.9-3.9,8.3-7.3,13-10.1
			c4.8-2.8,9.9-5,15.5-6.5c5.5-1.5,11.3-2.3,17.3-2.3C84.3,246.7,92.7,248.4,100.5,251.8z M54.9,263.5c-6.3,2.7-11.8,6.4-16.5,11.1
			c-4.7,4.7-8.4,10.2-11.1,16.5c-2.7,6.3-4.1,13.1-4.1,20.3c0,7.3,1.4,14.1,4.1,20.4c2.7,6.3,6.4,11.9,11.1,16.6
			c4.7,4.7,10.2,8.4,16.5,11.1c6.3,2.7,13.2,4.1,20.4,4.1c7.2,0,14-1.4,20.3-4.1c6.3-2.7,11.9-6.4,16.6-11.1
			c4.7-4.7,8.4-10.2,11.1-16.6c2.7-6.3,4.1-13.2,4.1-20.4c0-7.2-1.4-14-4.1-20.3c-2.7-6.3-6.4-11.8-11.1-16.5
			c-4.7-4.7-10.2-8.4-16.6-11.1c-6.3-2.7-13.1-4.1-20.3-4.1C68.1,259.4,61.3,260.7,54.9,263.5z"/>
		<path d="M235.6,368.8c0,1.8-0.6,3.3-1.8,4.5c-1.2,1.2-2.7,1.8-4.5,1.8c-1.7,0-3.2-0.6-4.4-1.8c-1.2-1.2-1.8-2.7-1.8-4.5v-41.6
			v-0.5c-0.1-10.6-2.5-18.8-7.1-24.4c-4.6-5.7-11.1-8.5-19.4-8.5c-4,0-7.8,0.8-11.4,2.4c-3.5,1.6-6.7,3.8-9.4,6.6
			c-2.7,2.8-4.8,6.2-6.4,10c-1.6,3.8-2.5,8-2.6,12.4v43.4c0,1.8-0.6,3.3-1.8,4.5c-1.2,1.2-2.7,1.8-4.4,1.8c-1.7,0-3.2-0.6-4.4-1.8
			c-1.2-1.2-1.8-2.7-1.8-4.5v-81.1c0-1.7,0.6-3.2,1.9-4.4c1.3-1.2,2.8-1.8,4.5-1.8c1.7,0,3.2,0.6,4.4,1.8c1.2,1.2,1.8,2.7,1.8,4.4
			v10.6c3.9-5,8.5-9.1,13.9-12.2c5.3-3.1,11.1-4.6,17.2-4.6c5.7,0,10.9,1.1,15.5,3.2c4.6,2.1,8.6,5.2,11.8,9.1
			c3.3,3.9,5.8,8.7,7.6,14.3c1.8,5.6,2.7,11.9,2.7,18.8v0.5V368.8z"/>
		<path d="M267.2,368.8c0,1.7-0.6,3.2-1.8,4.4c-1.2,1.2-2.7,1.8-4.4,1.8c-1.7,0-3.2-0.6-4.4-1.8c-1.2-1.2-1.8-2.7-1.8-4.4v-115
			c0-1.8,0.6-3.3,1.8-4.4c1.2-1.2,2.7-1.7,4.4-1.7c1.7,0,3.2,0.6,4.4,1.7c1.2,1.2,1.8,2.6,1.8,4.4V368.8z"/>
		<path d="M321.4,354.1l30.3-69c0.7-1.6,1.9-2.7,3.5-3.4c1.6-0.7,3.2-0.7,4.8,0c1.7,0.7,2.8,1.9,3.4,3.5c0.6,1.6,0.5,3.3-0.2,5
			l-36.1,81.3l-0.3,0.8l-14.8,33.4c-0.7,1.7-1.9,2.8-3.5,3.4c-1.6,0.6-3.3,0.6-4.9-0.1c-1.6-0.7-2.6-1.9-3-3.4
			c-0.4-1.5-0.2-3.2,0.5-4.9l13.8-31.6l-34.8-79c-0.7-1.7-0.8-3.3-0.1-4.9c0.6-1.6,1.7-2.8,3.3-3.5c1.6-0.7,3.2-0.8,4.8-0.1
			c1.6,0.7,2.8,1.8,3.5,3.5L321.4,354.1z"/>
	</g>
	<g class="st10">
		<path class="st3" d="M419.8,668.8c-20.1,0-37-15.7-38.4-35.8L339.6,60.1c-0.7-10.3,2.6-20.2,9.3-28s16.1-12.5,26.4-13.3L483.5,11
			c0.9-0.1,1.9-0.1,2.8-0.1c20.1,0,37,15.7,38.4,35.8l41.7,572.9c0.7,10.3-2.6,20.2-9.3,28c-6.7,7.8-16.1,12.5-26.4,13.3l-108.2,7.9
			C421.7,668.8,420.7,668.8,419.8,668.8z"/>
		<path class="st2" d="M486.3,16.9c16.9,0,31.2,13.1,32.5,30.2L560.5,620c1.3,17.9-12.2,33.6-30.1,34.9l-108.2,7.9
			c-0.8,0.1-1.6,0.1-2.4,0.1c-16.9,0-31.2-13.1-32.5-30.2L345.6,59.7c-1.3-17.9,12.2-33.6,30.1-34.9l108.2-7.9
			C484.7,16.9,485.5,16.9,486.3,16.9 M486.3,4.9v12V4.9c-1.1,0-2.2,0-3.3,0.1l-108.2,7.9c-24.5,1.8-43,23.2-41.2,47.7l41.7,572.9
			c0.8,11.3,5.9,21.8,14.2,29.5c8.3,7.7,19,11.9,30.3,11.9c1.1,0,2.2,0,3.3-0.1l108.2-7.9c11.9-0.9,22.7-6.3,30.5-15.3
			c7.8-9,11.6-20.5,10.7-32.4L530.8,46.2c-0.8-11.3-5.9-21.8-14.2-29.5C508.3,9.1,497.6,4.9,486.3,4.9L486.3,4.9z"/>
	</g>
	<g class="st10">
		<g>
			<g>
				<path class="st4" d="M450.3,625.1c-17.1,0-31.3-13.4-32.4-30.4l-2.5-40.3c-0.5-8.6,2.3-17,8.1-23.5s13.7-10.4,22.3-11l40.3-2.5
					c0.7,0,1.4-0.1,2.1-0.1c17.1,0,31.3,13.4,32.4,30.4l2.5,40.3c1.1,17.9-12.5,33.3-30.4,34.5l-40.3,2.5
					C451.7,625.1,451,625.1,450.3,625.1z"/>
				<path d="M488.1,519.3c15.9,0,29.4,12.5,30.4,28.6l2.5,40.3c1.1,16.7-11.8,31.3-28.5,32.3l-40.3,2.5c-0.6,0-1.3,0.1-1.9,0.1
					c-15.9,0-29.4-12.5-30.4-28.6l-2.5-40.3c-1.1-16.7,11.8-31.3,28.5-32.3l40.3-2.5C486.8,519.3,487.5,519.3,488.1,519.3
					 M488.1,515.3L488.1,515.3c-0.7,0-1.5,0-2.2,0.1l-40.3,2.5c-19,1.2-33.4,17.6-32.2,36.6l2.5,40.3c1.1,18.1,16.3,32.3,34.4,32.3
					c0.7,0,1.5,0,2.2-0.1l40.3-2.5c19-1.2,33.4-17.6,32.2-36.6l-2.5-40.3C521.4,529.5,506.3,515.3,488.1,515.3L488.1,515.3z"/>
			</g>
			<g>
				<path class="st5" d="M491.6,599.4l-40.8,2.7c-5.1,0.3-9.5-3.5-9.8-8.6l-2.7-40.8c-0.3-5.1,3.5-9.5,8.6-9.8l40.8-2.7
					c5.1-0.3,9.5,3.5,9.8,8.6l2.7,40.8C500.5,594.7,496.6,599.1,491.6,599.4z"/>
				<path class="st6" d="M473.3,600.7l-22.3,1.5c-5.2,0.3-9.7-3.6-10-8.8l-0.7-10.3c-0.3-5.2,3.6-9.7,8.8-10l22.3-1.5
					c5.2-0.3,9.7,3.6,10,8.8l0.7,10.3C482.4,595.9,478.5,600.4,473.3,600.7z"/>
				<path class="st7" d="M491.4,599.5l-10.2,0.7c-5.2,0.3-9.7-3.6-10-8.8l-1.6-24.8c-0.3-5.2,3.6-9.7,8.8-10l10.2-0.7
					c5.2-0.3,9.7,3.6,10,8.8l1.6,24.8C500.5,594.7,496.6,599.2,491.4,599.5z"/>
				<path class="st7" d="M492.5,574.4l-15.8,1c-3.6,0.2-6.8-2.5-7-6.2l-0.7-11c-0.6-9.3,6.4-17.3,15.7-17.9l5.6-0.4
					c3.6-0.2,6.8,2.5,7,6.2l1.4,21.2C498.9,571,496.2,574.2,492.5,574.4z"/>
				<path class="st6" d="M486.3,599.9l-32.2,2.1l-1.9-29.2l17-1.1c8.4-0.5,15.6,5.8,16.2,14.2L486.3,599.9z"/>
			</g>
		</g>
		<g>
			<g>
				<path class="st4" d="M439.6,470.8c-17.1,0-31.3-13.4-32.4-30.4l-2.5-40.3c-0.5-8.6,2.3-17,8.1-23.5c5.8-6.5,13.7-10.4,22.3-11
					l40.3-2.5c0.7,0,1.4-0.1,2.1-0.1c17.1,0,31.3,13.4,32.4,30.4l2.5,40.3c1.1,17.9-12.5,33.3-30.4,34.5l-40.3,2.5
					C440.9,470.8,440.2,470.8,439.6,470.8z"/>
				<path d="M477.3,365c15.9,0,29.4,12.5,30.4,28.6l2.5,40.3c1.1,16.7-11.8,31.3-28.5,32.3l-40.3,2.5c-0.6,0-1.3,0.1-1.9,0.1
					c-15.9,0-29.4-12.5-30.4-28.6l-2.5-40.3c-1.1-16.7,11.8-31.3,28.5-32.3l40.3-2.5C476,365.1,476.7,365,477.3,365 M477.3,361
					L477.3,361c-0.7,0-1.5,0-2.2,0.1l-40.3,2.5c-9.2,0.6-17.6,4.7-23.7,11.6c-6.1,6.9-9.2,15.8-8.6,24.9l2.5,40.3
					c1.1,18.1,16.3,32.3,34.4,32.3c0.7,0,1.5,0,2.2-0.1l40.3-2.5c19-1.2,33.4-17.6,32.2-36.6l-2.5-40.3
					C510.6,375.2,495.5,361,477.3,361L477.3,361z"/>
			</g>
			<g>
				<path class="st5" d="M480.8,445.2l-40.8,2.7c-5.1,0.3-9.5-3.5-9.8-8.6l-2.7-40.8c-0.3-5.1,3.5-9.5,8.6-9.8l40.8-2.7
					c5.1-0.3,9.5,3.5,9.8,8.6l2.7,40.8C489.7,440.4,485.9,444.8,480.8,445.2z"/>
				<path class="st6" d="M462.5,446.5l-22.3,1.5c-5.2,0.3-9.7-3.6-10-8.8l-0.7-10.3c-0.3-5.2,3.6-9.7,8.8-10l22.3-1.5
					c5.2-0.3,9.7,3.6,10,8.8l0.7,10.3C471.6,441.7,467.7,446.1,462.5,446.5z"/>
				<path class="st7" d="M480.6,445.3l-10.2,0.7c-5.2,0.3-9.7-3.6-10-8.8l-1.6-24.8c-0.3-5.2,3.6-9.7,8.8-10l10.2-0.7
					c5.2-0.3,9.7,3.6,10,8.8l1.6,24.8C489.7,440.5,485.8,445,480.6,445.3z"/>
				<path class="st7" d="M481.8,420.2l-15.8,1c-3.6,0.2-6.8-2.5-7-6.2l-0.7-11c-0.6-9.3,6.4-17.3,15.7-17.9l5.6-0.4
					c3.6-0.2,6.8,2.5,7,6.2l1.4,21.2C488.2,416.8,485.4,419.9,481.8,420.2z"/>
				<path class="st6" d="M475.5,445.6l-32.2,2.1l-1.9-29.2l17-1.1c8.4-0.5,15.6,5.8,16.2,14.2L475.5,445.6z"/>
			</g>
		</g>
		<g>
			<g>
				<path class="st4" d="M428.8,316.6c-17.1,0-31.3-13.4-32.4-30.4l-2.5-40.3c-1.1-17.9,12.5-33.3,30.4-34.5l40.3-2.5
					c0.7,0,1.4-0.1,2.1-0.1c17.1,0,31.3,13.4,32.4,30.4l2.5,40.3c0.5,8.6-2.3,17-8.1,23.5s-13.7,10.4-22.3,11l-40.3,2.5
					C430.1,316.6,429.5,316.6,428.8,316.6z"/>
				<path d="M466.5,210.8c15.9,0,29.4,12.5,30.4,28.6l2.5,40.3c1.1,16.7-11.8,31.3-28.5,32.3l-40.3,2.5c-0.6,0-1.3,0.1-1.9,0.1
					c-15.9,0-29.4-12.5-30.4-28.6l-2.5-40.3c-1.1-16.7,11.8-31.3,28.5-32.3l40.3-2.5C465.3,210.8,465.9,210.8,466.5,210.8
					 M466.5,206.8L466.5,206.8c-0.7,0-1.5,0-2.2,0.1l-40.3,2.5c-19,1.2-33.4,17.6-32.2,36.6l2.5,40.3c1.1,18.1,16.3,32.3,34.4,32.3
					c0.7,0,1.5,0,2.2-0.1l40.3-2.5c19-1.2,33.4-17.6,32.2-36.6l-2.5-40.3C499.8,221,484.7,206.8,466.5,206.8L466.5,206.8z"/>
			</g>
			<g>
				<path class="st5" d="M470,290.9l-40.8,2.7c-5.1,0.3-9.5-3.5-9.8-8.6l-2.7-40.8c-0.3-5.1,3.5-9.5,8.6-9.8l40.8-2.7
					c5.1-0.3,9.5,3.5,9.8,8.6l2.7,40.8C478.9,286.2,475.1,290.6,470,290.9z"/>
				<path class="st6" d="M451.7,292.3l-22.3,1.5c-5.2,0.3-9.7-3.6-10-8.8l-0.7-10.3c-0.3-5.2,3.6-9.7,8.8-10l22.3-1.5
					c5.2-0.3,9.7,3.6,10,8.8l0.7,10.3C460.9,287.4,456.9,291.9,451.7,292.3z"/>
				<path class="st7" d="M469.8,291.1l-10.2,0.7c-5.2,0.3-9.7-3.6-10-8.8l-1.6-24.8c-0.3-5.2,3.6-9.7,8.8-10l10.2-0.7
					c5.2-0.3,9.7,3.6,10,8.8l1.6,24.8C478.9,286.2,475,290.7,469.8,291.1z"/>
				<path class="st7" d="M471,265.9l-15.8,1c-3.6,0.2-6.8-2.5-7-6.2l-0.7-11c-0.6-9.3,6.4-17.3,15.7-17.9l5.6-0.4
					c3.6-0.2,6.8,2.5,7,6.2l1.4,21.2C477.4,262.6,474.6,265.7,471,265.9z"/>
				<path class="st6" d="M464.7,291.4l-32.2,2.1l-1.9-29.2l17-1.1c8.4-0.5,15.6,5.8,16.2,14.2L464.7,291.4z"/>
			</g>
		</g>
		<g>
			<g>
				<path class="st4" d="M418,162.4c-17.1,0-31.3-13.4-32.4-30.4L383,91.7c-1.1-17.9,12.5-33.3,30.4-34.5l40.3-2.5
					c0.7,0,1.4-0.1,2.1-0.1c17.1,0,31.3,13.4,32.4,30.4l2.5,40.3c1.1,17.9-12.5,33.3-30.4,34.5l-40.3,2.5
					C419.4,162.4,418.7,162.4,418,162.4z"/>
				<path d="M455.7,56.6c15.9,0,29.4,12.5,30.4,28.6l2.5,40.3c1.1,16.7-11.8,31.3-28.5,32.3l-40.3,2.5c-0.6,0-1.3,0.1-1.9,0.1
					c-15.9,0-29.4-12.5-30.4-28.6L385,91.5c-1.1-16.7,11.8-31.3,28.5-32.3l40.3-2.5C454.5,56.6,455.1,56.6,455.7,56.6 M455.8,52.6
					L455.8,52.6c-0.7,0-1.5,0-2.2,0.1l-40.3,2.5c-9.2,0.6-17.6,4.7-23.7,11.6c-6.1,6.9-9.2,15.8-8.6,24.9l2.5,40.3
					c1.1,18.1,16.3,32.3,34.4,32.3c0.7,0,1.5,0,2.2-0.1l40.3-2.5c19-1.2,33.4-17.6,32.2-36.6l-2.5-40.3
					C489,66.8,473.9,52.6,455.8,52.6L455.8,52.6z"/>
			</g>
			<g>
				<path class="st5" d="M459.2,136.7l-40.8,2.7c-5.1,0.3-9.5-3.5-9.8-8.6l-2.7-40.8c-0.3-5.1,3.5-9.5,8.6-9.8l40.8-2.7
					c5.1-0.3,9.5,3.5,9.8,8.6l2.7,40.8C468.1,132,464.3,136.4,459.2,136.7z"/>
				<path class="st6" d="M440.9,138l-22.3,1.5c-5.2,0.3-9.7-3.6-10-8.8l-0.7-10.3c-0.3-5.2,3.6-9.7,8.8-10l22.3-1.5
					c5.2-0.3,9.7,3.6,10,8.8l0.7,10.3C450.1,133.2,446.1,137.7,440.9,138z"/>
				<path class="st7" d="M459,136.8l-10.2,0.7c-5.2,0.3-9.7-3.6-10-8.8l-1.6-24.8c-0.3-5.2,3.6-9.7,8.8-10l10.2-0.7
					c5.2-0.3,9.7,3.6,10,8.8l1.6,24.8C468.1,132,464.2,136.5,459,136.8z"/>
				<path class="st7" d="M460.2,111.7l-15.8,1c-3.6,0.2-6.8-2.5-7-6.2l-0.7-11c-0.6-9.3,6.4-17.3,15.7-17.9l5.6-0.4
					c3.6-0.2,6.8,2.5,7,6.2l1.4,21.2C466.6,108.3,463.8,111.5,460.2,111.7z"/>
				<path class="st6" d="M453.9,137.2l-32.2,2.1l-1.9-29.2l17-1.1c8.4-0.5,15.6,5.8,16.2,14.2L453.9,137.2z"/>
			</g>
		</g>
	</g>
	<polygon class="st11" points="778,23.9 427.8,185.9 437.8,185.5 763.9,48.3 	"/>
	<polygon class="st11" points="812.1,112 406.4,201.2 414.2,195.4 788.5,101.4 	"/>
	<g class="st10">
		<path class="st2" d="M628.2,328.3c0,18.9-15.3,34.3-34.2,34.3c-18.8,0-34.3-15.4-34.3-34.3c0-18.9,15.4-34.3,34.3-34.3
			C612.9,294,628.2,309.4,628.2,328.3z M613.9,328.3c0-11.1-8.8-19.8-19.9-19.8c-11,0-19.9,8.8-19.9,19.8c0,10.9,8.9,19.9,19.9,19.9
			C605.1,348.2,613.9,339.2,613.9,328.3z"/>
		<path class="st2" d="M702.8,328.3c0,18.9-15.3,34.3-34.2,34.3c-18.8,0-34.3-15.4-34.3-34.3c0-18.9,15.4-34.3,34.3-34.3
			C687.5,294,702.8,309.4,702.8,328.3z M688.5,328.3c0-11.1-8.8-19.8-19.9-19.8c-11,0-19.9,8.8-19.9,19.8c0,10.9,8.9,19.9,19.9,19.9
			C679.7,348.2,688.5,339.2,688.5,328.3z"/>
		<path class="st2" d="M763.1,300.4v-23.6c0-4,3.2-7,7.1-7s7.2,3.1,7.2,7v77.9c0,4-3.2,7-7.2,7c-3.5,0-6.4-2.4-7-5.7
			c-5.6,4.1-12.5,6.5-20,6.5c-18.8,0-34.3-15.4-34.3-34.2c0-19,15.4-34.3,34.3-34.3C750.6,294,757.5,296.4,763.1,300.4z
			 M743.2,308.4c-11,0-19.9,8.8-19.9,19.8c0,10.9,8.9,19.8,19.9,19.8c10.8,0,19.5-8.4,19.9-19v-1.7
			C762.7,316.8,754.1,308.4,743.2,308.4z"/>
		<path class="st2" d="M813,349.9c5.2,0,10.3-2.7,10.3-7.2c0-5.5-6.8-7.3-11.6-8.8c-11.5-4-22.6-8.8-22.6-20.3
			c0-12.1,11.3-19.8,23.6-19.8c8,0,17.6,3.2,20.9,9.6c0.5,1.1,0.8,2.2,0.8,3.1c0,3.3-3,6.1-6.2,6.1c-0.8,0-1.6-0.1-2.4-0.5
			c-4-2.9-6.9-5.7-12.1-5.7c-5.8,0-10.3,2.2-10.3,6.8c0,4.7,5.2,6.6,12.2,8.8c11.4,3.6,21.5,7.9,21.5,20.2
			c0,11.4-10.3,20.3-24.1,20.3c-9,0-20-3.6-24.6-12.1c-0.8-1.4-1.1-2.7-1.1-4c0-3.7,3-6.3,6.5-6.3c2.2,0,4.5,1,6.5,3.4
			C803.5,347.9,807,349.9,813,349.9z"/>
	</g>
</g>
</svg>
