<?xml version="1.0" encoding="utf-8"?>
<!-- Generator: Adobe Illustrator 25.2.1, SVG Export Plug-In . SVG Version: 6.00 Build 0)  -->
<svg version="1.1" id="Layer_1" xmlns="http://www.w3.org/2000/svg" xmlns:xlink="http://www.w3.org/1999/xlink" x="0px" y="0px"
	 viewBox="0 0 832.8 674.3" style="enable-background:new 0 0 832.8 674.3;" xml:space="preserve">
<style type="text/css">
	.st0{fill:#FAFAFA;}
	.st1{fill:#787878;}
	.st2{fill:#FFF5DB;}
	.st3{fill:#546111;}
	.st4{fill:#F27F49;}
	.st5{fill:#D62448;}
	.st6{fill:#DEC49E;stroke:#99573A;stroke-width:2;stroke-linecap:round;stroke-linejoin:round;}
</style>
<path d="M94.9,250.6c7.7,3.3,14.7,8,20.6,13.9c5.9,5.9,10.6,12.9,13.9,20.5c3.4,7.9,5.2,16.5,5.1,25.2c0,5.8-0.8,11.6-2.3,17.3
	c-1.5,5.4-3.7,10.6-6.5,15.5c-5.6,9.6-13.7,17.6-23.3,23.3c-4.9,2.8-10.1,5-15.5,6.5c-11.3,3.1-23.2,3.1-34.5,0
	c-5.4-1.5-10.6-3.7-15.5-6.5c-4.8-2.8-9.1-6.2-13-10.1c-3.9-3.9-7.2-8.4-10-13.1c-11.7-20.2-11.7-45.2,0-65.4
	c2.8-4.8,6.2-9.2,10-13.1c3.9-3.9,8.2-7.3,13-10.1c4.8-2.8,10-5,15.5-6.5c5.6-1.5,11.4-2.3,17.3-2.3
	C78.4,245.5,86.9,247.2,94.9,250.6z M49.3,262.2c-6.2,2.6-11.8,6.4-16.5,11.1c-4.7,4.8-8.5,10.4-11.1,16.5
	c-2.7,6.4-4.1,13.3-4.1,20.3c-0.1,7,1.3,14,4.1,20.5c2.6,6.2,6.4,11.8,11.1,16.6c4.7,4.8,10.3,8.5,16.5,11.1
	c6.5,2.8,13.4,4.1,20.5,4.1c7,0.1,13.9-1.3,20.3-4.1c12.5-5.3,22.4-15.2,27.7-27.7c2.7-6.5,4.1-13.4,4.1-20.5
	c0.1-7-1.3-13.9-4.1-20.3c-5.3-12.5-15.2-22.4-27.7-27.7c-6.4-2.7-13.4-4.1-20.3-4.1C62.7,258.1,55.8,259.5,49.3,262.2z"/>
<path d="M230,367.6c0.1,3.4-2.6,6.2-6,6.3c-0.1,0-0.2,0-0.3,0c-1.6,0-3.2-0.6-4.4-1.8c-1.2-1.2-1.8-2.8-1.8-4.5v-42.1
	c-0.1-10.6-2.5-18.8-7.1-24.4c-4.6-5.7-11.1-8.5-19.4-8.5c-3.9,0-7.8,0.8-11.4,2.4c-3.5,1.6-6.7,3.8-9.4,6.6
	c-2.7,2.9-4.9,6.3-6.4,10c-1.6,3.9-2.5,8.1-2.6,12.4v43.4c0,1.7-0.6,3.3-1.8,4.5c-2.4,2.4-6.4,2.5-8.8,0c0,0,0,0,0,0
	c-1.2-1.2-1.9-2.8-1.9-4.5v-81.1c0-1.7,0.7-3.3,1.9-4.4c1.2-1.2,2.8-1.9,4.5-1.8c1.7,0,3.2,0.6,4.4,1.8c1.2,1.2,1.8,2.8,1.8,4.4V297
	c3.8-4.9,8.5-9.1,13.9-12.2c5.2-3.1,11.1-4.7,17.2-4.6c5.3-0.1,10.6,1,15.5,3.2c4.6,2.1,8.6,5.2,11.8,9.1c3.4,4.2,6,9.1,7.6,14.3
	c1.8,6.1,2.8,12.4,2.8,18.7V367.6z"/>
<path d="M261.6,367.6c0,1.7-0.6,3.2-1.8,4.4c-2.5,2.4-6.4,2.4-8.9,0c-1.2-1.1-1.9-2.7-1.8-4.4v-115c-0.1-1.7,0.6-3.3,1.8-4.4
	c2.5-2.3,6.4-2.3,8.9,0c1.2,1.1,1.9,2.8,1.8,4.4V367.6z"/>
<path d="M315.7,352.9l30.2-69c0.7-1.5,1.9-2.8,3.5-3.4c1.5-0.7,3.3-0.7,4.8,0c1.6,0.6,2.8,1.9,3.4,3.5c0.6,1.6,0.5,3.4-0.2,5
	l-36.1,81.3l-0.3,0.8l-14.8,33.4c-1.4,3.2-5.1,4.7-8.3,3.4c-0.1,0-0.1-0.1-0.2-0.1c-1.5-0.6-2.6-1.8-3-3.4c-0.4-1.6-0.2-3.4,0.5-4.9
	l13.8-31.6l-34.8-79c-0.7-1.5-0.8-3.3-0.1-4.9c0.6-1.6,1.8-2.8,3.3-3.5c1.5-0.7,3.2-0.8,4.8-0.1c1.6,0.7,2.8,1.9,3.5,3.5
	L315.7,352.9z"/>
<path class="st0" d="M414.1,667.6c-20.2-0.1-36.9-15.7-38.5-35.8L334,58.9c-1.5-21.3,14.4-39.7,35.7-41.3c0,0,0,0,0,0l108.2-7.9
	c0.9-0.1,1.9-0.1,2.8-0.1c20.2,0.1,36.9,15.7,38.5,35.8l41.7,572.9c1.5,21.3-14.4,39.7-35.7,41.3c0,0,0,0,0,0l-108.2,7.9
	C416,667.5,415,667.6,414.1,667.6z"/>
<path class="st1" d="M480.7,15.6c17.1,0,31.2,13.2,32.5,30.2l41.7,572.9c1.3,17.9-12.2,33.6-30.1,34.9c0,0,0,0,0,0l-108.2,7.9
	c-0.8,0.1-1.6,0.1-2.4,0.1c-17.1,0-31.2-13.2-32.5-30.2L339.9,58.5c-1.3-17.9,12.2-33.6,30.1-34.9l108.2-7.9
	C479.1,15.7,479.9,15.7,480.7,15.6 M480.7,3.7L480.7,3.7c-1.1,0-2.2,0-3.3,0.1l-108.2,7.9c-24.5,1.8-43,23.2-41.2,47.7l41.7,572.9
	c1.7,23.3,21.1,41.3,44.4,41.3c1.1,0,2.2,0,3.3-0.1l108.2-7.9c24.6-1.8,43-23.1,41.2-47.7c0,0,0,0,0,0L525.1,45
	C523.4,21.7,504,3.7,480.7,3.7L480.7,3.7z"/>
<g>
	<path class="st2" d="M444.7,623.9c-17.1,0-31.3-13.3-32.4-30.4l-2.5-40.3c-1.1-17.9,12.5-33.3,30.4-34.5l40.3-2.5
		c0.7,0,1.4-0.1,2-0.1c17.1,0,31.3,13.3,32.4,30.4l2.5,40.3c1.1,17.9-12.5,33.3-30.4,34.5l-40.3,2.5
		C446.1,623.8,445.4,623.9,444.7,623.9z"/>
	<path d="M482.5,518.1c16.1,0,29.4,12.5,30.4,28.6l2.5,40.3c1,16.8-11.7,31.2-28.5,32.3l-40.3,2.5c-0.6,0-1.3,0.1-1.9,0.1
		c-16.1-0.1-29.4-12.5-30.4-28.6l-2.5-40.3c-1-16.8,11.7-31.2,28.5-32.3l40.3-2.5C481.2,518.1,481.8,518.1,482.5,518.1 M482.5,514.1
		L482.5,514.1c-0.7,0-1.5,0-2.2,0.1l-40.3,2.5c-19,1.2-33.4,17.6-32.2,36.6l2.5,40.3c1.2,18.2,16.2,32.3,34.4,32.3
		c0.7,0,1.5,0,2.2-0.1l40.3-2.5c19-1.2,33.4-17.6,32.2-36.6l-2.5-40.3C515.7,528.2,500.7,514.1,482.5,514.1L482.5,514.1z"/>
	<path class="st3" d="M441.3,541.6l40.8-2.7c5.1-0.3,9.5,3.5,9.8,8.6l2.7,40.8c0.3,5.1-3.5,9.5-8.6,9.8l-40.8,2.7
		c-5.1,0.3-9.5-3.5-9.8-8.6l-2.7-40.8C432.3,546.3,436.2,541.9,441.3,541.6z"/>
	<path class="st4" d="M443.5,571.8l22.3-1.5c5.2-0.3,9.7,3.6,10,8.8l0.7,10.3c0.3,5.2-3.6,9.7-8.8,10l-22.3,1.5
		c-5.2,0.3-9.7-3.6-10-8.8l-0.7-10.3C434.3,576.6,438.3,572.1,443.5,571.8z"/>
	<path class="st5" d="M472.7,555.3l10.2-0.7c5.2-0.3,9.7,3.6,10,8.8l1.6,24.8c0.3,5.2-3.6,9.7-8.8,10l-10.2,0.7
		c-5.2,0.3-9.7-3.6-10-8.8l-1.6-24.8C463.6,560.2,467.5,555.7,472.7,555.3z"/>
	<path class="st5" d="M479,539.2l5.6-0.4c3.6-0.2,6.8,2.5,7,6.2l1.4,21.2c0.2,3.6-2.5,6.8-6.2,7l-15.8,1c-3.6,0.2-6.8-2.5-7-6.2
		l-0.7-11C462.8,547.8,469.8,539.8,479,539.2C479,539.2,479,539.2,479,539.2z"/>
	<path class="st4" d="M446.6,571.6l17-1.1c8.4-0.5,15.6,5.8,16.2,14.2l0,0l0.9,14l0,0l-32.2,2.1l0,0L446.6,571.6L446.6,571.6z"/>
</g>
<g>
	<path class="st2" d="M434.2,469.5c-17.1,0-31.3-13.3-32.4-30.4l-2.5-40.3c-1.1-17.9,12.5-33.3,30.4-34.5l40.3-2.5
		c0.7,0,1.4-0.1,2-0.1c17.1,0,31.3,13.3,32.4,30.4l2.5,40.3c1.1,17.9-12.5,33.3-30.4,34.5l-40.3,2.5
		C435.6,469.5,434.9,469.5,434.2,469.5z"/>
	<path d="M472,363.7c16.1,0,29.4,12.5,30.4,28.6l2.5,40.3c1,16.8-11.7,31.2-28.5,32.3l-40.3,2.5c-0.6,0-1.3,0.1-1.9,0.1
		c-16.1-0.1-29.4-12.5-30.4-28.6l-2.5-40.3c-1-16.8,11.7-31.2,28.5-32.3l40.3-2.5C470.7,363.8,471.3,363.7,472,363.7 M472,359.7
		L472,359.7c-0.7,0-1.5,0-2.2,0.1l-40.3,2.5c-19,1.2-33.4,17.6-32.2,36.6l2.5,40.3c1.2,18.2,16.2,32.3,34.4,32.3
		c0.7,0,1.5,0,2.2-0.1l40.3-2.5c19-1.2,33.4-17.6,32.2-36.6l-2.5-40.3C505.2,373.9,490.2,359.8,472,359.7L472,359.7z"/>
	<path class="st3" d="M430.8,387.3l40.8-2.7c5.1-0.3,9.5,3.5,9.8,8.6l2.7,40.8c0.3,5.1-3.5,9.5-8.6,9.8l-40.8,2.7
		c-5.1,0.3-9.5-3.5-9.8-8.6l-2.7-40.8C421.9,392,425.7,387.6,430.8,387.3z"/>
	<path class="st4" d="M433,417.4l22.3-1.5c5.2-0.3,9.7,3.6,10,8.8l0.7,10.3c0.3,5.2-3.6,9.7-8.8,10l-22.3,1.5
		c-5.2,0.3-9.7-3.6-10-8.8l-0.7-10.3C423.9,422.3,427.8,417.8,433,417.4z"/>
	<path class="st5" d="M462.2,401l10.2-0.7c5.2-0.3,9.7,3.6,10,8.8l1.6,24.8c0.3,5.2-3.6,9.7-8.8,10l-10.2,0.7
		c-5.2,0.3-9.7-3.6-10-8.8l-1.6-24.8C453.1,405.8,457,401.3,462.2,401z"/>
	<path class="st5" d="M468.6,384.8l5.6-0.4c3.6-0.2,6.8,2.5,7,6.2l1.4,21.2c0.2,3.6-2.5,6.8-6.2,7l-15.8,1c-3.6,0.2-6.8-2.5-7-6.2
		l-0.7-11C452.3,393.4,459.3,385.4,468.6,384.8C468.6,384.8,468.6,384.8,468.6,384.8z"/>
	<path class="st4" d="M436.1,417.2l17-1.1c8.4-0.5,15.6,5.8,16.2,14.2l0,0l0.9,14l0,0l-32.2,2.1l0,0L436.1,417.2L436.1,417.2z"/>
</g>
<g>
	<path class="st2" d="M422.9,315.2c-17.1,0-31.3-13.3-32.4-30.4l-2.5-40.3c-1.1-17.9,12.5-33.3,30.4-34.5l40.3-2.5
		c0.7,0,1.4-0.1,2-0.1c17.1,0,31.3,13.3,32.4,30.4l2.5,40.3c1.1,17.9-12.5,33.3-30.4,34.5l-40.3,2.5
		C424.2,315.2,423.5,315.2,422.9,315.2z"/>
	<path d="M460.6,209.4c16.1,0,29.4,12.5,30.4,28.6l2.5,40.3c1,16.8-11.7,31.2-28.5,32.3l-40.3,2.5c-0.6,0-1.3,0.1-1.9,0.1
		c-16.1-0.1-29.4-12.5-30.4-28.6l-2.5-40.3c-1-16.8,11.7-31.2,28.5-32.3l40.3-2.5C459.3,209.4,460,209.4,460.6,209.4 M460.6,205.4
		L460.6,205.4c-0.7,0-1.5,0-2.2,0.1l-40.3,2.5c-19,1.2-33.4,17.6-32.2,36.6l2.5,40.3c1.2,18.2,16.2,32.3,34.4,32.3
		c0.7,0,1.5,0,2.2-0.1l40.3-2.5c19-1.2,33.4-17.6,32.2-36.6l-2.5-40.3C493.9,219.6,478.8,205.4,460.6,205.4L460.6,205.4z"/>
	<path class="st3" d="M419.4,232.9l40.8-2.7c5.1-0.3,9.5,3.5,9.8,8.6l2.7,40.8c0.3,5.1-3.5,9.5-8.6,9.8l-40.8,2.7
		c-5.1,0.3-9.5-3.5-9.8-8.6l-2.7-40.8C410.5,237.6,414.3,233.2,419.4,232.9z"/>
	<path class="st4" d="M421.6,263.1l22.3-1.5c5.2-0.3,9.7,3.6,10,8.8l0.7,10.3c0.3,5.2-3.6,9.7-8.8,10l-22.3,1.5
		c-5.2,0.3-9.7-3.6-10-8.8l-0.7-10.3C412.5,267.9,416.5,263.4,421.6,263.1z"/>
	<path class="st5" d="M450.9,246.7l10.2-0.7c5.2-0.3,9.7,3.6,10,8.8l1.6,24.8c0.3,5.2-3.6,9.7-8.8,10l-10.2,0.7
		c-5.2,0.3-9.7-3.6-10-8.8l-1.6-24.8C441.8,251.5,445.7,247,450.9,246.7z"/>
	<path class="st5" d="M457.2,230.5l5.6-0.4c3.6-0.2,6.8,2.5,7,6.2l1.4,21.2c0.2,3.6-2.5,6.8-6.2,7l-15.8,1c-3.6,0.2-6.8-2.5-7-6.2
		l-0.7-11C440.9,239.1,447.9,231.1,457.2,230.5C457.2,230.5,457.2,230.5,457.2,230.5z"/>
	<path class="st4" d="M424.7,262.9l17-1.1c8.4-0.5,15.6,5.8,16.2,14.2l0,0l0.9,14l0,0l-32.2,2.1l0,0L424.7,262.9L424.7,262.9z"/>
</g>
<g>
	<path class="st2" d="M412.1,160.9c-17.1,0-31.3-13.3-32.4-30.4l-2.5-40.3c-1.1-17.9,12.5-33.3,30.4-34.5l40.3-2.5
		c0.7,0,1.4-0.1,2-0.1c17.1,0,31.3,13.3,32.4,30.4l2.5,40.3c1.1,17.9-12.5,33.3-30.4,34.5l-40.3,2.5
		C413.4,160.8,412.7,160.9,412.1,160.9z"/>
	<path d="M449.8,55.1c16.1,0,29.4,12.5,30.4,28.6l2.5,40.3c1,16.8-11.7,31.2-28.5,32.3l-40.3,2.5c-0.6,0-1.3,0.1-1.9,0.1
		c-16.1-0.1-29.4-12.5-30.4-28.6L379.1,90c-1-16.8,11.7-31.2,28.5-32.3l40.3-2.5C448.5,55.1,449.2,55,449.8,55.1 M449.8,51L449.8,51
		c-0.7,0-1.5,0-2.2,0.1l-40.3,2.5c-19,1.2-33.4,17.6-32.2,36.6l2.5,40.3c1.2,18.2,16.2,32.3,34.4,32.3c0.7,0,1.5,0,2.2-0.1l40.3-2.5
		c19-1.2,33.4-17.6,32.2-36.6l-2.5-40.3C483.1,65.2,468,51.1,449.8,51L449.8,51z"/>
	<path class="st3" d="M408.6,78.6l40.8-2.7c5.1-0.3,9.5,3.5,9.8,8.6l2.7,40.8c0.3,5.1-3.5,9.5-8.6,9.8l-40.8,2.7
		c-5.1,0.3-9.5-3.5-9.8-8.6L400,88.4C399.7,83.3,403.5,78.9,408.6,78.6z"/>
	<path class="st4" d="M410.9,108.8l22.3-1.5c5.2-0.3,9.7,3.6,10,8.8l0.7,10.3c0.3,5.2-3.6,9.7-8.8,10l-22.3,1.5
		c-5.2,0.3-9.7-3.6-10-8.8l-0.7-10.3C401.7,113.6,405.7,109.1,410.9,108.8z"/>
	<path class="st5" d="M440.1,92.3l10.2-0.7c5.2-0.3,9.7,3.6,10,8.8l1.6,24.8c0.3,5.2-3.6,9.7-8.8,10l-10.2,0.7
		c-5.2,0.3-9.7-3.6-10-8.8l-1.6-24.8C431,97.2,434.9,92.7,440.1,92.3z"/>
	<path class="st5" d="M446.4,76.2l5.6-0.4c3.6-0.2,6.8,2.5,7,6.2l1.4,21.2c0.2,3.6-2.5,6.8-6.2,7l-15.8,1c-3.6,0.2-6.8-2.5-7-6.2
		l-0.7-11C430.1,84.8,437.1,76.8,446.4,76.2C446.4,76.2,446.4,76.2,446.4,76.2z"/>
	<path class="st4" d="M413.9,108.6l17-1.1c8.4-0.5,15.6,5.8,16.2,14.2l0,0l0.9,14l0,0l-32.2,2.1l0,0L413.9,108.6L413.9,108.6z"/>
</g>
<polygon class="st6" points="772.3,22.7 422.1,184.7 432.1,184.3 758.3,47.1 "/>
<polygon class="st6" points="806.5,110.8 400.8,200 408.6,194.2 782.8,100.2 "/>
<path class="st1" d="M622.5,327c0,18.9-15.4,34.2-34.3,34.2c-18.9,0-34.2-15.4-34.2-34.3c0-18.9,15.4-34.2,34.2-34.2
	C607.2,292.8,622.5,308.2,622.5,327z M608.2,327c-0.2-11-9.4-19.7-20.3-19.4c-10.6,0.2-19.2,8.8-19.4,19.4
	c-0.2,11,8.5,20.1,19.4,20.3c11,0.2,20.1-8.5,20.3-19.4C608.2,327.6,608.2,327.3,608.2,327z"/>
<path class="st1" d="M697.2,327c0,18.9-15.4,34.2-34.3,34.2c-18.9,0-34.2-15.4-34.2-34.3s15.4-34.2,34.3-34.2c0,0,0,0,0,0
	C681.9,292.8,697.2,308.2,697.2,327z M682.9,327c-0.2-11-9.4-19.7-20.3-19.4c-10.6,0.2-19.2,8.8-19.4,19.4
	c-0.2,11,8.5,20.1,19.4,20.3c11,0.2,20.1-8.5,20.3-19.4C682.9,327.6,682.9,327.3,682.9,327z"/>
<path class="st1" d="M757.5,299.2v-23.6c0-3.9,3.2-7.1,7.2-7.1c3.9,0,7.1,3.2,7.1,7.1v77.9c-0.1,4-3.3,7.1-7.3,7.1
	c-3.4-0.1-6.3-2.5-6.9-5.8c-5.8,4.3-12.8,6.5-20,6.5c-18.9,0.3-34.5-14.7-34.8-33.6c-0.3-18.9,14.7-34.5,33.6-34.8
	c0.4,0,0.8,0,1.2,0C744.7,292.8,751.7,295,757.5,299.2z M737.6,307.2c-11,0-19.8,9-19.8,19.9c0,11,9,19.8,19.9,19.8
	c10.6,0,19.3-8.4,19.7-19v-1.7C757.1,315.5,748.3,307.1,737.6,307.2L737.6,307.2z"/>
<path class="st1" d="M807.3,348.7c5.2,0,10.3-2.6,10.3-7.2c0-5.5-6.8-7.3-11.6-8.8c-11.5-4-22.6-8.8-22.6-20.3
	c0-12.1,11.3-19.8,23.6-19.8c8,0,17.6,3.2,20.9,9.6c0.5,1,0.7,2,0.8,3.1c-0.1,3.4-2.9,6-6.2,6.1c-0.8,0-1.6-0.2-2.4-0.5
	c-4-2.9-6.9-5.8-12.1-5.8c-5.8,0-10.3,2.1-10.3,6.8s5.2,6.6,12.2,8.8c11.4,3.6,21.5,7.9,21.5,20.2c0,11.4-10.3,20.3-24.1,20.3
	c-9,0-20-3.6-24.6-12.1c-0.7-1.2-1.1-2.6-1.1-4c0-3.5,2.9-6.3,6.4-6.3c0.1,0,0.1,0,0.2,0c2.6,0.1,4.9,1.3,6.5,3.4
	C797.8,346.7,801.4,348.7,807.3,348.7z"/>
</svg>
