<?xml version="1.0" encoding="utf-8"?>
<!-- Generator: Adobe Illustrator 25.2.1, SVG Export Plug-In . SVG Version: 6.00 Build 0)  -->
<svg version="1.1" id="Layer_1" xmlns="http://www.w3.org/2000/svg" xmlns:xlink="http://www.w3.org/1999/xlink" x="0px" y="0px"
	 viewBox="0 0 340.9 120.9" style="enable-background:new 0 0 340.9 120.9;" xml:space="preserve">
<style type="text/css">
	.st0{fill:#D47231;}
	.st1{fill:#FFFFFF;}
</style>
<path class="st0" d="M60.7,81.8c-3.2-2.2-5-6-4.9-9.9c0-2.2,0.4-4.3,1.3-6.3l0.1-0.2l0.8-1.9c-1.8,2.5-3.7,4.8-5.5,7.2
	C46.1,78.6,34.1,92,22.1,92c-2.3,0-4.6-0.5-6.7-1.4h-0.1c-1.6-0.7-3-1.6-4.2-2.8l-4.9-4.8C1.8,79.9,0,74.9,0,69.1
	c0-9.4,5.4-21.5,11.7-30.3c7.8-10.1,17.2-18.8,27.8-25.8l1.6-1c3-1.9,6.1-3.6,9.3-5.2c1.7-0.8,3.4-1.6,5.2-2.3
	c5.8-2.3,11.8-3.8,18-4.4C74.5,0,75.9,0,76.8,0c9.9,0,18.5,3.4,22.8,9.6L104,14c3.3,3.2,5.1,7.7,5,12.3c0,2-0.3,4-0.8,5.9h-0.1
	c-2.1,7.3-11.8,15-20.6,18.5c0.1,1.2,0,2.3-0.2,3.5c-0.4,2.3-1.1,4.6-2.1,6.7c1.6,0.3,3,1.1,4,2.3c0.3,0.4,0.6,0.8,0.8,1.3l0.1,0.1
	l5.6,5.5c2.3,2.7,2.1,6.7-0.6,9.1h0.1c-1.8,1.7-3.7,3.2-5.8,4.6c-3,2.4-6.4,4.3-9.9,5.7c-1.7,0.5-3.4,0.8-5.1,0.8
	c-3.1,0.1-6.2-1-8.4-3.2L60.7,81.8z M54.1,29.4C44.3,35.5,35.8,43.5,29.2,53c-2.5,3.6-7,11.1-8.8,17.6c5.8-3.6,12.6-11.4,16.1-15.8
	C43,46.7,48.8,38.3,54.1,29.4z M79.4,29.7c4.3-2.3,7.9-5,9.1-7.4c0.3-0.6,0.5-1.3,0.6-2c-2.6-0.5-5.2-0.7-7.8-0.5
	c-0.3,0-0.7,0.1-1,0.1c0.9,1.1,1.4,2.5,1.4,3.9c0,1.1-0.3,2.2-0.8,3.1L79.4,29.7z"/>
<path class="st0" d="M78.9,75.5c-0.7-0.4-1.4-1-1.9-1.6c-1.1-1.2-1.7-2.7-1.7-4.3c0-2,0.9-3.9,2.3-5.2c3-2.3,6.6-5.8,10.8-9.8
	c4.7-11.8,15.7-23.1,26.1-27.3c2.4-1,4.9-1.5,7.5-1.5c4.4-0.2,8.6,1.9,11.1,5.4l5.1,5.1c2.4,2.5,3.6,5.9,3.5,9.4
	c0,1.4-0.2,2.8-0.5,4.2c-1.3,5.4-4.8,10.1-9.4,13.9c0.1,0.1,0.2,0.3,0.3,0.5l5.5,5.4c1,1.1,1.6,2.6,1.6,4.2c0,1.9-0.8,3.7-2.2,5
	c-1.6,1.5-3.4,3-5.2,4.3c-5.7,4.3-12.6,7.2-19,7.4c-5.3,0.2-10.9-1.1-14.7-4.9l-4.8-4.8c0,0-0.1-0.1-0.2-0.1L92.8,81l0.1,0.1
	c-1.1,1-2.6,1.6-4.1,1.6c-1.7,0-3.4-0.7-4.7-1.9L78.9,75.5z"/>
<path class="st0" d="M120.5,75.3c-0.7-0.3-1.3-0.8-1.8-1.4c-1.1-1.2-1.7-2.7-1.7-4.3c0-2,0.9-3.9,2.4-5.2c3.7-3,7.3-6.3,10.7-9.7
	c4.6-11.9,15.7-23.3,26.1-27.6c2.4-1,4.9-1.5,7.4-1.5c4.9,0,9,2.1,11.4,5.8l4.8,4.9c2.4,2.5,3.7,5.9,3.6,9.3c0,1.4-0.2,2.8-0.5,4.2
	c-0.8,3.5-2.4,6.7-4.7,9.4c-1.2,1.8-2.9,3.2-4.8,4.2l0.4,0.7l5.6,5.6c1,1.1,1.6,2.6,1.6,4.2c0,1.9-0.8,3.7-2.2,5
	c-1.6,1.5-3.4,3-5.2,4.3c-5.7,4.3-12.6,7.2-19,7.4c-5.3,0.2-10.9-1.1-14.7-4.9l-4.9-4.8l-0.3,0.3c-1.2,0.9-2.6,1.4-4.1,1.4
	c-1.7,0-3.4-0.6-4.7-1.8l-0.4-0.4l0.1,0.2L120.5,75.3z M147.7,70.8c3.6-0.2,7.9-2.2,11.3-4.7l4.5-3.8c0.4-0.4,0.9-0.7,1.3-0.9
	l-4.3-4.4c-1.4-0.7-2.5-2-2.9-3.6c-4.1,4.2-7.6,9.3-9,13.5h-0.1C148,68.1,147.7,69.4,147.7,70.8L147.7,70.8z"/>
<path class="st0" d="M216.2,18.8l5.4,5.3c1.1,1.2,1.8,2.8,1.8,4.4c0,1.6-0.7,3.2-1.8,4.4c-0.8,0.7-1.5,1.5-2.2,2.3l-1,1.2
	c-1.2,1.3-2.9,2.1-4.7,2.2c0.8,1.7,0.5,3.7-0.7,5.2l-0.2,0.2l-0.8,1c-2.1,2.8-7.2,9.6-12.7,16.2c0.7,0.4,1.4,0.9,2,1.5
	c0.3,0.4,0.6,0.8,0.9,1.3l5.6,5.6c1,1.1,1.6,2.6,1.6,4.2c0,1.9-0.8,3.7-2.2,5c-5.8,5-13.8,11.2-20.9,11.2c-1.4,0-2.8-0.2-4.2-0.8
	c-1.4-0.5-2.7-1.4-3.8-2.4l-4.6-4.6c-2.3,0.9-4.9,0.3-6.6-1.5l-5.3-5.3c-0.7-0.4-1.4-0.9-1.9-1.6c-1.1-1.2-1.7-2.7-1.7-4.3
	c0-2,0.8-3.9,2.4-5.2c4.3-3.6,10.8-9.4,17.3-15.1c5.3-7.4,11.3-14.3,17.8-20.7c1.1-0.9,2.5-1.4,4-1.4h0.4c-0.1-0.5-0.2-0.9-0.2-1.4
	c0-1.7,0.7-3.3,1.8-4.5c0.4-0.4,0.7-0.8,1-1.2l0.5-0.6l2.1-2.3c1.2-1.3,2.9-2,4.7-2C212.8,15.2,215.1,16.6,216.2,18.8L216.2,18.8z"
	/>
<path class="st0" d="M236.7,27.3L236.7,27.3l2.7,2.7c1.1-0.4,2.2-0.8,3.3-1.1c1.2-0.3,2.3-0.4,3.5-0.5c2.7,0,5.4,0.9,7.4,2.7
	c1,0.9,1.9,1.9,2.6,3l4.7,4.6c2.4,2.4,3.6,5.6,3.5,9c0,5.3-2.8,11.8-6.4,17.8l4.3,4.3c1,1.2,1.6,2.7,1.6,4.3c0,1.8-0.8,3.6-2.2,4.8
	h0.1c-4.3,3.9-9,6.5-14.9,7.3c-1.5,0.2-3.1,0.3-4.6,0.2c-1.3,0-2.5-0.1-3.8-0.2c-6.2,3.2-11.2,4.8-14.6,4.3
	c-2.4-0.3-4.6-1.5-6.3-3.2l-3.1-3.1c-1.7,2.1-3.3,4.2-4.8,6.2c-6.4,8.6-12,17.6-17,27.1l-0.1-0.1c-1,2.2-3.2,3.6-5.6,3.6
	c-1.8,0-3.5-0.7-4.8-2l-5.3-5.3c-2.1-1.1-3.4-3.3-3.4-5.7c0-1,0.2-2.1,0.7-3v-0.1c5.1-10.2,10.7-19.9,16.5-29.2l-0.2-0.2
	c-2.1-1.2-3.5-3.4-3.6-5.8c0-2,0.9-3.9,2.5-5.1c5.8-4.9,11.4-10.1,16.6-15.7l0.5-0.5l9.5-10.3c3.1-4.4,6.5-8.5,10.2-12.3
	c1.2-1.3,2.9-2,4.6-2.1C233.4,23.8,235.6,25.2,236.7,27.3z"/>
<path class="st0" d="M245.1,75.5c-0.7-0.4-1.4-1-1.9-1.6c-1.1-1.2-1.7-2.7-1.7-4.3c0-2,0.9-3.9,2.3-5.2c3-2.3,6.6-5.8,10.8-9.8
	c4.7-11.8,15.7-23.1,26.1-27.3c2.4-1,4.9-1.5,7.5-1.5c4.4-0.2,8.6,1.9,11.1,5.4l5.1,5.1c2.4,2.5,3.7,5.9,3.5,9.4
	c0,1.4-0.2,2.8-0.5,4.2c-1.3,5.4-4.8,10.1-9.3,13.9c0.1,0.1,0.2,0.3,0.3,0.5l5.5,5.4c1,1.2,1.5,2.6,1.5,4.2c0,1.9-0.8,3.7-2.2,5
	c-1.6,1.5-3.4,3-5.2,4.3c-5.7,4.3-12.6,7.2-19,7.4c-5.3,0.2-10.9-1.1-14.7-4.9l-4.8-4.8c0,0-0.1-0.1-0.2-0.1L259,81l0.1,0.1
	c-1.1,1-2.6,1.6-4.1,1.6c-1.7,0-3.4-0.7-4.7-1.9L245.1,75.5z"/>
<path class="st0" d="M283.2,69.5c0-2,0.9-3.9,2.5-5.1c8.3-6.9,18-17,24.5-24l3.9-4.2h0.2l1.7-1.7c0.5-6.8,5.3-12,10.6-12
	c1.3,0,2.7,0.3,3.8,0.9c1.3,0.7,2.5,1.8,3.3,3.1l5.3,5.3c1.3,1.2,2,3,1.9,4.8c0,3.4-2.6,6.9-4.7,9.1c1.5,5.3,3.4,13.9,3.4,21
	c0,1.4,0,2.8-0.2,4.3c-1.6,12.6-8.9,20.6-21.8,20.6c-1,0-2.4-0.1-3.5-0.2H314c-4.1-0.4-7.9-2.2-10.8-5.1l-4.3-4.3
	c-0.8,0.3-1.6,0.5-2.5,0.5c-1.6,0-3.2-0.7-4.3-1.8l-5.4-5.4c-0.7-0.4-1.3-0.9-1.8-1.6C283.8,72.6,283.2,71.1,283.2,69.5z M310.8,72
	h0.2c4.9,0,7.5-3.2,8.6-8.8C316.9,66.1,314,69.2,310.8,72z"/>
<path class="st1" d="M4.2,69.1c0-8.5,4.9-19.6,10.9-27.8C28.3,22.9,49.8,6,73.8,4.3c1-0.1,2-0.1,2.9-0.1c12.1,0,21.6,5.6,21.6,15.4
	c0,1.6-0.2,3.2-0.7,4.8c-2.1,7.7-12.6,15.5-20,16.8c-0.6-1.6-1.5-3.1-2.6-4.5c6.8-1.1,15-7.3,17.2-12.9c0.6-1.4,1-3,1-4.5
	c0-7.8-9.9-10.7-19-10.1c-19.4,1.2-41.8,15.5-55,34.8C15.9,48.9,9,60.9,9,69.1c0,2.8,0.8,5.1,2.8,6.6c1,0.7,2.1,1.1,3.3,1
	c7.9,0,19.6-13,24.6-19.3C50.5,44.2,59.7,28.5,66.5,16c0.6-1.2,2.1-1.6,3.3-1c0,0,0,0,0,0c1.2,0.6,1.7,2,1.1,3.2c0,0,0,0.1-0.1,0.1
	C63.6,31.7,54,47.9,42.9,61.6c-6,7.4-17.1,19.8-27.5,19.8c-1.8,0-3.5-0.4-5.1-1.1C5.9,78.3,4.2,74.2,4.2,69.1z M66.5,57.8
	c2.3-3.4,6-9.6,5.8-13.1c-0.2-2.7-1.5-5.3-5.2-7.3c-0.3-0.2-0.6-0.1-0.8,0.1c0,0,0,0,0,0c-0.2,0.3,0,0.7,0.2,0.8
	c1.9,1.1,3.4,2.8,4.4,4.8c-1.9-0.1-3.8-0.8-5.4-1.8c-0.9-0.7-1.4-1.8-1.4-3c0-2,1.5-3.6,3.5-3.8c4.5-0.4,10.4,4.6,9.3,12.4
	c-0.6,3.8-3.1,8.6-6,13.4c-2.9,4.8-3.8,5.3-5.1,8.8c-0.6,1.7-1.4,4,0,4.9c1.9,1.4,6.1,0.2,11.8-4l5.2-4.3c1-0.9,2.6-0.8,3.5,0.3
	c0.9,1,0.8,2.6-0.3,3.5c-1.7,1.6-3.6,3.1-5.5,4.4c-2.6,2.2-5.6,3.9-8.8,5c-1.3,0.4-2.6,0.6-3.9,0.7c-4,0.2-7.5-2.8-7.7-6.8
	c0-0.3,0-0.6,0-0.9c0-1.6,0.4-3.3,1-4.8C62.7,63.6,63.5,62.9,66.5,57.8z"/>
<path class="st1" d="M80.4,67.6c3.4-2.8,6.7-5.7,9.8-8.8c-0.8,2.6-1.2,5.3-1.2,8c-1.9,1.7-3.6,3.3-5.4,4.7c-1,0.9-2.6,0.7-3.4-0.3
	c0,0,0-0.1-0.1-0.1C79.2,70,79.3,68.5,80.4,67.6z M90.3,65.6c0-13.5,13.5-29.3,25.7-34.3c1.9-0.8,3.9-1.2,5.9-1.3
	c5.3,0,9.1,3.4,9.1,9c0,1.1-0.2,2.2-0.4,3.3C127.8,54,112.8,62,102,62c-1.8,0-3.5-0.2-5.2-0.8c0.5-1.7,1.2-3.3,2.1-4.8
	c1,0.2,2.1,0.4,3.2,0.3c6,0,13.7-3.3,18.5-7.6c2.4-2.1,5.4-6.4,5.4-9.9c0-1-0.3-2-0.9-2.8c-0.5-0.7-1.6-1-3.1-1
	c-2.2,0.1-4.4,0.6-6.4,1.6c-7.6,3.7-16.7,14-19.4,21.9c-0.6,1.9-1,3.8-1,5.8c0,5.8,3.3,10.6,10.4,10.3c5.2-0.4,10.1-2.4,14.1-5.6
	c1.6-1.2,3.1-2.5,4.8-3.9c1.1-0.9,2.6-0.7,3.5,0.4c0.8,1,0.7,2.5-0.2,3.4c-1.6,1.5-3.3,2.8-5,4.1c-4.8,3.9-10.7,6.2-16.9,6.7
	c-5.7,0.2-11.8-1.7-14.2-7.3C90.8,70.4,90.3,68,90.3,65.6z"/>
<path class="st1" d="M122.1,67.6c3.4-2.8,6.7-5.7,9.8-8.8c-0.7,2.5-1.1,5.1-1,7.8c-1.9,1.7-3.8,3.5-5.6,4.9c-1,0.9-2.6,0.7-3.4-0.3
	c0,0,0-0.1-0.1-0.1C120.9,70,121.1,68.5,122.1,67.6z M132.1,65.5c0-13.5,13.5-29.4,25.7-34.4c1.9-0.8,3.8-1.2,5.9-1.2
	c5.3,0,9.2,3.4,9.2,9.1c0,1.1-0.2,2.2-0.4,3.3c-0.7,2.9-2,5.6-4,7.9c-1.9,2.5-3.6,3.4-4.8,3.4c-1.2,0-2.2-1-2.3-2.2
	c0-0.1,0-0.1,0-0.2c0-0.9,0.4-1.8,1.1-2.3c1-0.7,1.8-1.6,2.5-2.6c1.6-2.3,3-5.1,3-7.5c0-1-0.3-2-0.9-2.8c-0.8-0.9-2-1.4-3.2-1.3
	c-2,0.1-4,0.7-5.8,1.6c-7.7,3.8-17.4,14.6-20,22.7c-0.7,2-1,4-1,6.1c0,5.8,3.1,10.4,10.4,10c5.2-0.4,10.1-2.4,14.1-5.6
	c1.6-1.2,3.1-2.5,4.8-3.9c1.1-0.9,2.6-0.7,3.5,0.4c0.8,1,0.7,2.5-0.2,3.4c-1.6,1.5-3.3,2.8-5,4.1c-4.8,3.9-10.7,6.2-16.9,6.7
	c-5.7,0.2-11.8-1.7-14.2-7.3C132.5,70.4,132,68,132.1,65.5z"/>
<path class="st1" d="M163.6,67.6c4.3-3.6,10.6-9.2,15.1-13.7c-2.3,3.4-5.2,8.4-6.3,12.7c-2,1.9-3.8,3.3-5.7,4.9
	c-1.1,0.8-2.7,0.6-3.5-0.5C162.5,69.9,162.7,68.4,163.6,67.6L163.6,67.6z M172.8,70.8c0.9-7.2,4.9-13.5,8.9-19.2
	c5.2-7.3,11.1-14.1,17.5-20.3c2.3-1.8,6,1.3,4.1,3.6c-0.9,1.2-10.7,14.5-18.4,22.8c3.3-5.3,11.2-15,15.3-19.8c0.2-0.2,0.2-0.6,0-0.8
	c0,0,0,0-0.1,0c-0.2-0.2-0.6-0.2-0.8,0c0,0,0,0-0.1,0.1c-7.4,8.8-20.9,24.7-21.6,34c-0.1,2.5,0.8,3.2,2.2,3.2
	c1.7-0.2,3.3-0.8,4.8-1.6c3.7-2.1,7.1-4.6,10.2-7.4c1-0.9,2.6-0.8,3.5,0.2c0.9,1,0.8,2.6-0.2,3.6l0,0c-5.4,4.6-12.5,10.2-18.3,10.2
	c-0.9,0-1.9-0.2-2.8-0.5C173.6,77.5,172.5,74.2,172.8,70.8z M212.2,23.6c-1.1,1.1-2.1,2.2-3.1,3.4c-0.6,0.6-1.3,1-2.2,1.1
	c-1.4,0-2.5-1.2-2.5-2.6c0-0.6,0.3-1.2,0.7-1.7c1.3-1.3,2.1-2.5,3.3-3.8c1-1,2.6-1,3.6,0C213.1,21.1,213.1,22.6,212.2,23.6z"/>
<path class="st1" d="M219.6,40.4c2.9-4.2,6.2-8.1,9.7-11.8c2.2-2.3,5.5,0.9,3.8,3.3c-4.4,5.6-8.4,10.4-12.5,15.5
	c-7,6.9-13.4,14.3-19.3,22.2c-0.2,0.2-0.2,0.6,0,0.8c0,0,0,0,0,0c0.2,0.2,0.6,0.2,0.8-0.2c10.1-13.2,27.2-33.5,41.4-37.4
	c0.8-0.2,1.7-0.3,2.5-0.3c1.7,0,3.4,0.6,4.8,1.7c1.9,1.7,3,4.2,2.8,6.8c0,9.1-9.3,22.5-15.4,28.3c-1,0.2-2.1,0.2-3.1,0.2
	c-1.3,0-2.6-0.2-3.9-0.5c7.5-6.5,13.9-14.8,16.6-23.7c0.4-1.4,0.7-2.8,0.8-4.3c0-2.3-1.1-3.3-2.7-3.3c-2.2,0-5.2,1.5-7.8,3.1
	C223.7,50.3,210,68,200,81.3c-6.5,8.7-12.3,18-17.4,27.6c-0.4,0.9-1.2,1.4-2.2,1.4c-1.4,0.1-2.5-1-2.6-2.4c0-0.4,0.1-0.8,0.2-1.2
	C190,82.9,205.1,61.7,219.6,40.4z M192.2,67.7c6-5,11.6-10.3,17-16l0.3-0.2c0-0.1,0.1-0.2,0.2-0.2l4.2-4.4
	c-4.7,6.8-9.9,14.5-15,21.9c-1.2,1-2.3,2-3.5,2.9c-1,0.9-2.6,0.8-3.5-0.3S191.2,68.6,192.2,67.7C192.2,67.7,192.2,67.7,192.2,67.7
	L192.2,67.7z M210.5,69.5c0.9-1,1.7-2,2.6-3c0.7,1.1,1.5,2,2.4,2.9c0.2,3.6,1.9,5.4,4.7,5.4c0.9,0,1.9-0.2,2.8-0.5
	c2.2,1.2,4.5,1.9,7,2.2c-4.1,2.6-8,3.9-12,3.3C212.8,79,210.5,74.1,210.5,69.5z M217.1,62c3.5,4.7,10,8.2,16.8,8.7
	c4.8,0.3,9.7-0.7,15.4-5.3c1-0.9,2.6-0.8,3.5,0.2c0.9,1.1,0.8,2.7-0.2,3.6c0,0,0,0,0,0c-3.5,3.4-7.9,5.6-12.7,6.3
	c-1.4,0.2-2.7,0.3-4.1,0.2c-8.6,0-17.3-3.3-21.8-10.2L217.1,62z"/>
<path class="st1" d="M246.6,67.6c3.4-2.8,6.7-5.7,9.8-8.8c-0.8,2.6-1.2,5.3-1.2,8c-1.9,1.7-3.6,3.3-5.3,4.7c-1,0.9-2.6,0.7-3.4-0.3
	c0,0,0-0.1-0.1-0.1C245.4,70,245.6,68.5,246.6,67.6z M256.5,65.6c0-13.5,13.5-29.3,25.7-34.3c1.9-0.8,3.9-1.2,5.9-1.3
	c5.3,0,9.1,3.4,9.1,9c0,1.1-0.2,2.2-0.4,3.3C294.1,54,279,62,268.2,62c-1.8,0-3.5-0.2-5.2-0.8c0.5-1.7,1.2-3.3,2.1-4.8
	c1,0.2,2.1,0.4,3.2,0.3c6,0,13.7-3.3,18.5-7.6c2.4-2.1,5.4-6.4,5.4-9.9c0-1-0.3-2-0.9-2.8c-0.5-0.7-1.6-1-3.1-1
	c-2.2,0.1-4.4,0.6-6.3,1.6c-7.6,3.7-16.7,14-19.4,21.9c-0.6,1.9-1,3.8-1,5.8c0,5.8,3.3,10.6,10.4,10.3c5.2-0.4,10.1-2.4,14.1-5.6
	c1.6-1.2,3.1-2.5,4.8-3.9c1-0.9,2.6-0.9,3.5,0.1c0.9,1,0.9,2.6-0.1,3.5c0,0-0.1,0.1-0.1,0.1c-1.6,1.5-3.3,2.8-5,4.1
	c-4.8,3.9-10.7,6.2-16.9,6.7c-5.7,0.2-11.8-1.7-14.2-7.3C257,70.4,256.5,68,256.5,65.6z"/>
<path class="st1" d="M288.4,67.6c8.4-6.9,18.3-17.2,24.9-24.3l2.7-2.9l0.2-0.2l1.3-1.5l-0.1,0.2l1.5-1.6c0,0.4,0.1,0.7,0.2,1.1
	c0.2,1.6,0.7,3.3,1,4.9l-3.2,3.4c-6.7,7-16.6,17.5-25.4,24.7c-1.1,0.9-2.6,0.7-3.5-0.3C287.2,70,287.3,68.4,288.4,67.6L288.4,67.6
	L288.4,67.6z M296.4,72.7c-0.6-1.2-0.1-2.7,1.2-3.3c0,0,0,0,0,0c1.3-0.6,2.8,0,3.3,1.2c1.4,3,4.3,5.1,7.6,5.4
	c0.9,0.1,1.8,0.2,2.6,0.2c7.6,0,11.5-4.8,12.9-13c0.1-0.9,0.2-1.8,0.2-2.8c-0.2-5.9-1.1-11.8-2.8-17.5l-1-5.1
	c-1.3-6.7,3.5-13.1,8.1-10.7c1.1,0.5,1.8,1.6,1.8,2.8c0,2.3-2.1,4.9-3.7,6.5l-0.5,0.6c-0.1-0.5-0.1-0.9-0.2-1.4
	c0-1.3,0.6-2.5,1.6-3.3c0.2-0.2,0.3-0.5,0.1-0.8c0,0,0,0-0.1-0.1c-0.2-0.2-0.6-0.2-0.8,0c0,0,0,0,0,0c-1.1,1.2-1.8,2.7-1.8,4.3
	c0,1.2,0.3,2.3,0.8,3.4c1.3,4.7,3.4,13.3,3.4,20.8c0,1.2,0,2.5-0.2,3.7c-1.3,10.6-7.2,17.3-17.9,17.3c-1,0-2.1-0.1-3.2-0.2
	C302.8,80.4,298.5,77.3,296.4,72.7L296.4,72.7z"/>
</svg>
