<?xml version="1.0" encoding="utf-8"?>
<!-- Generator: Adobe Illustrator 25.2.1, SVG Export Plug-In . SVG Version: 6.00 Build 0)  -->
<svg version="1.1" id="Layer_1" xmlns="http://www.w3.org/2000/svg" xmlns:xlink="http://www.w3.org/1999/xlink" x="0px" y="0px"
	 viewBox="0 0 112 112" style="enable-background:new 0 0 112 112;" xml:space="preserve">
<style type="text/css">
	.st0{fill:#FFFFFF;}
	.st1{fill:#BDA58D;}
	.st2{fill:#231F20;}
	.st3{fill:url(#SVGID_1_);}
	.st4{fill:url(#SVGID_2_);}
	.st5{fill:url(#SVGID_3_);}
	.st6{fill:url(#SVGID_4_);}
	.st7{fill:url(#SVGID_5_);}
	.st8{fill:url(#SVGID_6_);}
	.st9{fill:url(#SVGID_7_);}
	.st10{fill:url(#SVGID_8_);}
	.st11{fill:url(#SVGID_9_);}
	.st12{fill:url(#SVGID_10_);}
	.st13{fill:url(#SVGID_11_);}
	.st14{fill:url(#SVGID_12_);}
	.st15{fill:url(#SVGID_13_);}
	.st16{fill:url(#SVGID_14_);}
	.st17{fill:url(#SVGID_15_);}
	.st18{fill:url(#SVGID_16_);}
	.st19{fill:url(#SVGID_17_);}
	.st20{fill:url(#SVGID_18_);}
	.st21{fill:url(#SVGID_19_);}
	.st22{fill:url(#SVGID_20_);}
	.st23{fill:url(#SVGID_21_);}
	.st24{fill:url(#SVGID_22_);}
	.st25{fill:url(#SVGID_23_);}
	.st26{fill:url(#SVGID_24_);}
	.st27{fill:url(#SVGID_25_);}
	.st28{fill:url(#SVGID_26_);}
	.st29{fill:url(#SVGID_27_);}
	.st30{fill:url(#SVGID_28_);}
	.st31{fill:url(#SVGID_29_);}
	.st32{fill:url(#SVGID_30_);}
	.st33{fill:url(#SVGID_31_);}
	.st34{fill:url(#SVGID_32_);}
	.st35{fill:url(#SVGID_33_);}
	.st36{fill:url(#SVGID_34_);}
	.st37{fill:url(#SVGID_35_);}
	.st38{fill:url(#SVGID_36_);}
	.st39{fill:url(#SVGID_37_);}
	.st40{fill:url(#SVGID_38_);}
	.st41{fill:url(#SVGID_39_);}
	.st42{fill:url(#SVGID_40_);}
	.st43{fill:url(#SVGID_41_);}
	.st44{fill:url(#SVGID_42_);}
	.st45{clip-path:url(#SVGID_44_);}
	.st46{fill:#EA4C09;}
	.st47{fill:#F49772;}
	.st48{fill:#C53A10;}
</style>
<g>
	<g>
		<path class="st0" d="M7.6,43c-3.6,4.1-6.8,12.5-0.5,23C7,70.5,7.5,82,14.3,85.2c1.4,1.6,5.1,5.7,7.3,8c3.1,3.4,7.8,5.2,8.3,5.4
			c0.3,0.1,0.5,0.2,0.7,0.2c0.2,0.1,0.4,0.1,0.7,0c1.3,2.1,4.1,3.8,8.4,6c0.4,0.2,0.7,0.4,0.9,0.5c0.7,0.4,2.2,1.2,4.5,1.7
			c4.4,1.1,9.7,0.7,15.8-1c4.9-1.4,8-2.3,10.3-3c2.7-0.8,3.9-1.2,5.1-1.3c2.4-0.4,3.8-1.2,5.6-2.2c0.8-0.4,1.7-0.9,2.8-1.5
			c4.5-2.2,10.2-5.6,14.1-12.4c2.7-4.7,3.1-8,2.8-10c1.2-2.6,3.5-7.2,5-9.4c3.2-4.7,2.3-17.8-0.6-24.6c-0.2-2.5-1.5-9.2-8.8-18
			c-0.7-0.8-1.3-1.5-1.8-2.2c-6.3-7.7-6.9-8.1-14.9-10.9L79,10.4c-2.5-0.9-4.3-1.6-5.8-2.3c-2-0.9-3.7-1.6-6.3-2.2
			c-2.7-0.7-6.2-1.1-11.3-1.5c-1.3-0.1-12-1-23.8,6.3c-2.3,0.6-9.8,3.1-13,9.4C13.3,22.4,5.8,29.5,7.6,43z"/>
		<path class="st0" d="M67.6,2.6c2.8,0.7,4.8,1.5,6.8,2.4c1.5,0.6,3.1,1.4,5.6,2.2l1.3,0.4c8.6,3,9.7,3.8,16.4,11.9l1.8,2.2
			c7.4,9,9.1,16.1,9.5,19.3c2.9,7,4.3,21.1,0.1,27.2c-1.1,1.6-2.9,5.1-4.3,8.1c0.1,3.3-1,7-3.3,11.1C97.2,95,91,98.7,86,101.1
			c-1.1,0.5-1.9,1-2.7,1.4c-1.8,1-3.7,2.1-6.6,2.5c-1,0.2-2.1,0.5-4.6,1.3c-2.3,0.7-5.4,1.6-10.3,3c-6.7,1.9-12.5,2.2-17.4,1
			c-2.7-0.7-4.5-1.6-5.3-2.1c-0.2-0.1-0.5-0.2-0.8-0.4c-4.1-2.1-7-3.9-8.8-5.9c-0.2-0.1-0.4-0.1-0.6-0.2l-0.1,0
			c-1-0.4-6-2.4-9.6-6.2c-1.8-1.9-4.7-5.1-6.9-7.6c-7.5-4.1-8.4-15.3-8.4-20.9C-1.9,56.7,0,47.6,4.2,42C3,29.1,9.5,21,16.4,17.5
			c3.8-6.3,10.7-8.9,14.1-9.9c12.4-7.5,23.8-6.6,25.4-6.5C61.1,1.4,64.8,1.9,67.6,2.6z M45.9,104c3.8,0.9,8.6,0.6,14.1-1
			c4.9-1.4,8-2.3,10.2-3c2.7-0.8,4.1-1.2,5.5-1.4c1.8-0.3,2.9-0.9,4.5-1.8c0.8-0.4,1.7-1,3-1.6c4.1-2,9.3-5.1,12.7-11.1
			c2.4-4.2,2.5-6.8,2.4-8c-0.1-0.6,0-1.3,0.3-1.8c1-2.1,3.5-7.3,5.2-9.8c2.3-3.4,1.8-15.1-0.9-21.4c-0.1-0.3-0.2-0.7-0.3-1
			c-0.2-2.2-1.4-8.1-8.1-16.2l-1.8-2.2c-6-7.3-6.1-7.3-13.5-9.9l-1.3-0.4c-2.7-0.9-4.5-1.7-6-2.4c-2-0.8-3.5-1.5-5.8-2.1
			c-2.5-0.6-5.9-1-10.8-1.4c0,0-0.1,0-0.1,0c-1.1-0.1-10.8-0.9-21.7,5.8c-0.3,0.2-0.6,0.3-0.9,0.4c-1.9,0.5-8.3,2.6-11,7.7
			c-0.3,0.7-0.9,1.2-1.6,1.5c-1.9,0.8-11.1,5.7-9.3,19.6c0.1,0.9-0.2,1.9-0.8,2.6C8.4,47,3.7,53.9,9.9,64.4c0.3,0.5,0.5,1.1,0.5,1.8
			c-0.1,6.5,1.2,14.2,5.3,16.1c0.4,0.2,0.7,0.5,1,0.8c2.3,2.5,5.4,6,7.2,8c2.7,2.9,6.9,4.5,7.1,4.5l0.1,0c0,0,0,0,0,0
			c1.2,0,2.3,0.6,2.9,1.6c0.9,1.5,4,3.2,7.1,4.9c0.4,0.2,0.8,0.4,1,0.5C42.8,102.9,44,103.5,45.9,104z"/>
	</g>
	<g>
		<path class="st1" d="M50.5,105.9c-5.1,0-7.8-1.5-8.9-2.1c-0.2-0.1-0.6-0.3-1-0.5c-3.3-1.7-6.7-3.6-7.8-5.5
			c-0.4-0.7-1.2-0.8-1.5-0.8c-0.1,0-0.1,0-0.2,0c-0.2,0-0.4,0-0.6-0.1c-0.2-0.1-4.7-1.8-7.6-4.9c-2.2-2.4-6.3-7-7.5-8.3
			C8.9,81,8.9,68.8,9,65.6C1.7,54,7.3,46.2,9.5,43.7C7.1,28.4,17,22.9,20.1,21.5c2.8-6.4,10.6-8.7,12.4-9.1
			C41.2,7,49.2,6.2,53.2,6.2c1.2,0,1.9,0.1,2.1,0.1c10.6,0.7,13,1.8,17.1,3.6c1.6,0.7,3.3,1.4,5.9,2.4l1.3,0.4
			c7.7,2.7,8,2.9,14.1,10.3l1.8,2.2c7.3,8.9,8.3,15.4,8.4,17.3c2.8,6,3.8,18.9,0.9,23c-1.8,2.6-4.5,8.2-5.4,10.2
			c0.3,1.5,0.3,4.5-2.5,9.3c-3.6,6.3-8.8,9.4-13.3,11.6c-1.2,0.6-2.1,1.1-2.9,1.5c-1.7,0.9-2.9,1.6-4.9,1.9
			c-1.3,0.2-2.6,0.6-5.3,1.4c-2.3,0.7-5.4,1.6-10.2,3C56.7,105.4,53.4,105.9,50.5,105.9z"/>
		<path class="st2" d="M53.2,8c1.2,0,1.9,0.1,1.9,0.1c14.3,1,13.1,2.5,22.5,5.8c9.4,3.3,8.2,2.5,16.4,12.4c8.2,9.9,8,16.5,8,16.5
			c2.9,5.9,3.5,18.2,1.2,21.5c-2.3,3.3-5.8,11.1-5.8,11.1s1.4,2.4-2.1,8.5c-3.5,6.1-8.7,9-12.5,10.9c-3.8,1.9-4.8,2.9-7.3,3.3
			c-2.5,0.4-4.7,1.3-15.7,4.4c-3.8,1.1-6.9,1.4-9.4,1.4c-4.6,0-7-1.3-8.1-1.9c-1.5-0.8-7-3.4-8-5.3c-0.9-1.6-2.6-1.7-3.1-1.7
			c-0.1,0-0.1,0-0.1,0s-4.3-1.6-6.9-4.4c-2.6-2.8-7.8-8.6-7.8-8.6c-6.4-2-5.6-17-5.6-17c-8.6-13.2,0.7-20.7,0.7-20.7
			C8.3,27,21.5,23,21.5,23c2.5-6.9,11.7-8.8,11.7-8.8C41.8,8.7,49.7,8,53.2,8 M53.2,4.3c-4.2,0-12.5,0.8-21.5,6.4
			c-2.3,0.6-9.8,3.1-13,9.4c-5.5,2.5-12.9,9.5-11.2,23c-3.6,4.1-6.8,12.5-0.5,23C7,70.5,7.4,82,14.3,85.3c1.4,1.6,5.1,5.7,7.3,8
			c3.1,3.4,7.8,5.2,8.3,5.4c0.4,0.2,0.8,0.3,1.2,0.3c0.1,0,0.1,0,0.2,0c1.3,2.1,4.1,3.8,8.4,6.1c0.4,0.2,0.7,0.4,0.9,0.5
			c1.2,0.6,4.3,2.4,9.9,2.4c3.1,0,6.6-0.5,10.4-1.6c4.9-1.4,8-2.3,10.3-3c2.7-0.8,3.9-1.2,5.1-1.3c2.4-0.4,3.8-1.2,5.6-2.2
			c0.8-0.4,1.7-0.9,2.8-1.5c4.5-2.2,10.2-5.6,14.1-12.4c2.7-4.7,3.1-8,2.8-10c1.2-2.6,3.5-7.2,5-9.4c3.2-4.7,2.3-17.8-0.6-24.6
			c-0.2-2.5-1.5-9.2-8.8-18c-0.7-0.8-1.3-1.5-1.8-2.2c-6.3-7.7-6.9-8.1-14.9-10.9l-1.3-0.4c-2.5-0.9-4.3-1.6-5.8-2.3
			c-4.5-1.9-7.3-3-17.6-3.7C55.2,4.4,54.4,4.3,53.2,4.3L53.2,4.3z"/>
	</g>
	<g>
		
			<linearGradient id="SVGID_1_" gradientUnits="userSpaceOnUse" x1="1391.6974" y1="6617.0059" x2="1389.2218" y2="6627.5537" gradientTransform="matrix(-0.1367 -0.9906 0.9906 -0.1367 -6352.9771 2353.5964)">
			<stop  offset="0" style="stop-color:#FFE8D6"/>
			<stop  offset="0.4888" style="stop-color:#FCF3EA"/>
			<stop  offset="1" style="stop-color:#FFD184"/>
		</linearGradient>
		<path class="st3" d="M17.7,61.3c2.3,0.2,3.7,4.8,3.2,10.2C20.4,77,18.2,81.2,16,81s-3.7-4.8-3.2-10.2
			C13.2,65.3,15.4,61.1,17.7,61.3z"/>
		
			<linearGradient id="SVGID_2_" gradientUnits="userSpaceOnUse" x1="1407.2344" y1="6616.2085" x2="1406.2657" y2="6623.3125" gradientTransform="matrix(-0.1367 -0.9906 0.9906 -0.1367 -6352.9771 2353.5964)">
			<stop  offset="0" style="stop-color:#FFE8D6"/>
			<stop  offset="0.4888" style="stop-color:#FCF3EA"/>
			<stop  offset="1" style="stop-color:#FFD184"/>
		</linearGradient>
		<path class="st4" d="M11.9,45.5c2.3,0,4,4.5,4,10c-0.1,5.5-2,9.9-4.2,9.9s-4-4.5-4-10C7.7,49.9,9.6,45.4,11.9,45.5z"/>
		
			<linearGradient id="SVGID_3_" gradientUnits="userSpaceOnUse" x1="1406.679" y1="6632.751" x2="1407.0018" y2="6624.6787" gradientTransform="matrix(-0.1367 -0.9906 0.9906 -0.1367 -6352.9771 2353.5964)">
			<stop  offset="0" style="stop-color:#FFE8D6"/>
			<stop  offset="0.4888" style="stop-color:#FCF3EA"/>
			<stop  offset="1" style="stop-color:#FFD184"/>
		</linearGradient>
		<path class="st5" d="M20.2,44.2c2.3-0.2,4.4,4.1,4.8,9.6s-1.1,10-3.3,10.2c-2.3,0.2-4.4-4.1-4.8-9.6S17.9,44.4,20.2,44.2z"/>
		
			<linearGradient id="SVGID_4_" gradientUnits="userSpaceOnUse" x1="1397.9735" y1="6644.9546" x2="1394.5293" y2="6633.438" gradientTransform="matrix(-0.1367 -0.9906 0.9906 -0.1367 -6352.9771 2353.5964)">
			<stop  offset="0" style="stop-color:#FFE8D6"/>
			<stop  offset="0.4888" style="stop-color:#FCF3EA"/>
			<stop  offset="1" style="stop-color:#FFD184"/>
		</linearGradient>
		<path class="st6" d="M28.8,54.2c2.1-0.9,5.5,2.4,7.8,7.4s2.4,9.8,0.3,10.7c-2.1,0.9-5.5-2.4-7.8-7.4S26.7,55.1,28.8,54.2z"/>
		
			<linearGradient id="SVGID_5_" gradientUnits="userSpaceOnUse" x1="1386.3032" y1="6650.0073" x2="1375.4325" y2="6646.6709" gradientTransform="matrix(-0.1367 -0.9906 0.9906 -0.1367 -6352.9771 2353.5964)">
			<stop  offset="0" style="stop-color:#FFE8D6"/>
			<stop  offset="0.4888" style="stop-color:#FCF3EA"/>
			<stop  offset="1" style="stop-color:#FFD184"/>
		</linearGradient>
		<path class="st7" d="M34.5,75.4c0.4-2.2,5.1-3.2,10.5-2.2s9.4,3.6,9,5.8s-5.1,3.2-10.5,2.2C38.1,80.3,34.1,77.7,34.5,75.4z"/>
		
			<linearGradient id="SVGID_6_" gradientUnits="userSpaceOnUse" x1="1206.1638" y1="6902.4092" x2="1207.0249" y2="6911.1274" gradientTransform="matrix(-0.1963 -0.9805 0.9805 -0.1963 -6457.6401 2625.3032)">
			<stop  offset="0" style="stop-color:#FFE8D6"/>
			<stop  offset="0.4888" style="stop-color:#FCF3EA"/>
			<stop  offset="1" style="stop-color:#FFD184"/>
		</linearGradient>
		<path class="st8" d="M74.8,77.1c2.2-0.7,5.2,3,6.9,8.2s1.2,10-0.9,10.7c-2.2,0.7-5.2-3-6.9-8.2S72.6,77.7,74.8,77.1z"/>
		
			<linearGradient id="SVGID_7_" gradientUnits="userSpaceOnUse" x1="1724.0992" y1="6072.5562" x2="1721.839" y2="6079.9829" gradientTransform="matrix(1.637222e-02 -0.9999 0.9999 1.637222e-02 -6018.1714 1696.3983)">
			<stop  offset="0" style="stop-color:#FFE8D6"/>
			<stop  offset="0.4888" style="stop-color:#FCF3EA"/>
			<stop  offset="1" style="stop-color:#FFD184"/>
		</linearGradient>
		<path class="st9" d="M88.1,63.6c2.2,0.7,2.6,5.5,1,10.7c-1.6,5.2-4.7,8.9-6.9,8.2c-2.2-0.7-2.6-5.5-1-10.7
			C82.9,66.6,86,62.9,88.1,63.6z"/>
		
			<linearGradient id="SVGID_8_" gradientUnits="userSpaceOnUse" x1="1162.5443" y1="6978.0918" x2="1155.8712" y2="6985.4111" gradientTransform="matrix(-0.2133 -0.977 0.977 -0.2133 -6484.2798 2705.0239)">
			<stop  offset="0" style="stop-color:#FFE8D6"/>
			<stop  offset="0.4888" style="stop-color:#FCF3EA"/>
			<stop  offset="1" style="stop-color:#FFD184"/>
		</linearGradient>
		<path class="st10" d="M94.5,74.6c1.9,1.1,1.3,5.9-1.5,10.6s-6.6,7.6-8.6,6.5c-1.9-1.1-1.3-5.9,1.5-10.6
			C88.7,76.4,92.5,73.5,94.5,74.6z"/>
		
			<linearGradient id="SVGID_9_" gradientUnits="userSpaceOnUse" x1="1657.8867" y1="6220.8164" x2="1661.7615" y2="6227.7046" gradientTransform="matrix(-1.671335e-02 -0.9999 0.9999 -1.671335e-02 -6100.3081 1832.0216)">
			<stop  offset="0" style="stop-color:#FFE8D6"/>
			<stop  offset="0.4888" style="stop-color:#FCF3EA"/>
			<stop  offset="1" style="stop-color:#FFD184"/>
		</linearGradient>
		<path class="st11" d="M91.3,59.3c2-1,5.6,2.2,8.1,7.1s2.7,9.7,0.7,10.7c-2,1-5.6-2.2-8.1-7.1S89.2,60.3,91.3,59.3z"/>
		
			<linearGradient id="SVGID_10_" gradientUnits="userSpaceOnUse" x1="1394.7457" y1="6701.5791" x2="1394.0999" y2="6711.5889" gradientTransform="matrix(-0.1367 -0.9906 0.9906 -0.1367 -6352.9771 2353.5964)">
			<stop  offset="0" style="stop-color:#FFE8D6"/>
			<stop  offset="0.4888" style="stop-color:#FCF3EA"/>
			<stop  offset="1" style="stop-color:#FFD184"/>
		</linearGradient>
		<path class="st12" d="M98.5,45.9c2.2-0.3,4.6,3.9,5.4,9.3s-0.5,10.1-2.7,10.4c-2.2,0.3-4.6-3.9-5.4-9.3S96.3,46.2,98.5,45.9z"/>
		
			<linearGradient id="SVGID_11_" gradientUnits="userSpaceOnUse" x1="1412.0729" y1="6701.4312" x2="1415.9476" y2="6707.9966" gradientTransform="matrix(-0.1367 -0.9906 0.9906 -0.1367 -6352.9771 2353.5964)">
			<stop  offset="0" style="stop-color:#FFE8D6"/>
			<stop  offset="0.4888" style="stop-color:#FCF3EA"/>
			<stop  offset="1" style="stop-color:#FFD184"/>
		</linearGradient>
		<path class="st13" d="M90.3,28.3c1.9-1.2,5.8,1.6,8.7,6.2c2.9,4.6,3.7,9.4,1.8,10.6s-5.8-1.6-8.7-6.2
			C89.1,34.2,88.3,29.5,90.3,28.3z"/>
		
			<linearGradient id="SVGID_12_" gradientUnits="userSpaceOnUse" x1="1404.4026" y1="6693.3467" x2="1403.1111" y2="6703.4639" gradientTransform="matrix(-0.1367 -0.9906 0.9906 -0.1367 -6352.9771 2353.5964)">
			<stop  offset="0" style="stop-color:#FFE8D6"/>
			<stop  offset="0.4888" style="stop-color:#FCF3EA"/>
			<stop  offset="1" style="stop-color:#FFD184"/>
		</linearGradient>
		<path class="st14" d="M89.8,37.7c2.3-0.1,4.3,4.3,4.5,9.7s-1.4,10-3.7,10.1c-2.3,0.1-4.3-4.3-4.5-9.7S87.6,37.8,89.8,37.7z"/>
		
			<linearGradient id="SVGID_13_" gradientUnits="userSpaceOnUse" x1="1435.3086" y1="6698.7295" x2="1427.4514" y2="6691.5181" gradientTransform="matrix(-0.1367 -0.9906 0.9906 -0.1367 -6352.9771 2353.5964)">
			<stop  offset="0" style="stop-color:#FFE8D6"/>
			<stop  offset="0.4888" style="stop-color:#FCF3EA"/>
			<stop  offset="1" style="stop-color:#FFD184"/>
		</linearGradient>
		<path class="st15" d="M75.5,15.2c1.3-1.9,6-0.9,10.5,2.1c4.5,3,7.2,7,6,8.9c-1.3,1.9-6,0.9-10.5-2.1C76.9,21,74.3,17,75.5,15.2z"
			/>
		
			<linearGradient id="SVGID_14_" gradientUnits="userSpaceOnUse" x1="1412.575" y1="6677.0391" x2="1404.7178" y2="6669.8276" gradientTransform="matrix(-0.1367 -0.9906 0.9906 -0.1367 -6352.9771 2353.5964)">
			<stop  offset="0" style="stop-color:#FFE8D6"/>
			<stop  offset="0.4888" style="stop-color:#FCF3EA"/>
			<stop  offset="1" style="stop-color:#FFD184"/>
		</linearGradient>
		<path class="st16" d="M57.1,40.6c1.3-1.9,6-0.9,10.5,2.1c4.5,3,7.2,7,6,8.9s-6,0.9-10.5-2.1S55.9,42.5,57.1,40.6z"/>
		
			<linearGradient id="SVGID_15_" gradientUnits="userSpaceOnUse" x1="1418.0947" y1="6688.0645" x2="1423.5839" y2="6693.4458" gradientTransform="matrix(-0.1367 -0.9906 0.9906 -0.1367 -6352.9771 2353.5964)">
			<stop  offset="0" style="stop-color:#FFE8D6"/>
			<stop  offset="0.4888" style="stop-color:#FCF3EA"/>
			<stop  offset="1" style="stop-color:#FFD184"/>
		</linearGradient>
		<path class="st17" d="M72.9,25.8c1.3-1.9,6-0.9,10.5,2.1c4.5,3,7.2,7,6,8.9c-1.3,1.9-6,0.9-10.5-2.1
			C74.3,31.7,71.6,27.7,72.9,25.8z"/>
		
			<linearGradient id="SVGID_16_" gradientUnits="userSpaceOnUse" x1="1414.8868" y1="6691.6187" x2="1407.9985" y2="6682.6855" gradientTransform="matrix(-0.1367 -0.9906 0.9906 -0.1367 -6352.9771 2353.5964)">
			<stop  offset="0" style="stop-color:#FFE8D6"/>
			<stop  offset="0.4888" style="stop-color:#FCF3EA"/>
			<stop  offset="1" style="stop-color:#FFD184"/>
		</linearGradient>
		<path class="st18" d="M72.1,34c1.7-1.5,6,0.6,9.7,4.6s5.2,8.6,3.6,10.1c-1.7,1.5-6-0.6-9.7-4.6S70.4,35.5,72.1,34z"/>
		
			<linearGradient id="SVGID_17_" gradientUnits="userSpaceOnUse" x1="1395.4308" y1="6684.7344" x2="1400.4895" y2="6691.8384" gradientTransform="matrix(-0.1367 -0.9906 0.9906 -0.1367 -6352.9771 2353.5964)">
			<stop  offset="0" style="stop-color:#FFE8D6"/>
			<stop  offset="0.4888" style="stop-color:#FCF3EA"/>
			<stop  offset="1" style="stop-color:#FFD184"/>
		</linearGradient>
		<path class="st19" d="M74.8,47.5c1.7-1.5,6,0.7,9.6,4.8s5.1,8.7,3.4,10.2s-6-0.7-9.6-4.8C74.6,53.5,73.1,48.9,74.8,47.5z"/>
		
			<linearGradient id="SVGID_18_" gradientUnits="userSpaceOnUse" x1="1528.304" y1="6485.8364" x2="1528.842" y2="6497.8911" gradientTransform="matrix(-7.958526e-02 -0.9968 0.9968 -7.958526e-02 -6272.5508 2107.2825)">
			<stop  offset="0" style="stop-color:#FFE8D6"/>
			<stop  offset="0.4888" style="stop-color:#FCF3EA"/>
			<stop  offset="1" style="stop-color:#FFD184"/>
		</linearGradient>
		<path class="st20" d="M75.8,57.1c2.2-0.2,4.5,4,5.1,9.4c0.6,5.4-0.8,10-3,10.3s-4.5-4-5.1-9.4S73.6,57.3,75.8,57.1z"/>
		
			<linearGradient id="SVGID_19_" gradientUnits="userSpaceOnUse" x1="1388.9524" y1="6670.8906" x2="1370.5475" y2="6664.54" gradientTransform="matrix(-0.1367 -0.9906 0.9906 -0.1367 -6352.9771 2353.5964)">
			<stop  offset="0" style="stop-color:#FFE8D6"/>
			<stop  offset="0.4888" style="stop-color:#FCF3EA"/>
			<stop  offset="1" style="stop-color:#FFD184"/>
		</linearGradient>
		<path class="st21" d="M53.9,74c0.6-2.2,5.3-2.8,10.6-1.5c5.3,1.4,9.1,4.3,8.5,6.5c-0.6,2.2-5.3,2.8-10.6,1.5
			C57.1,79.1,53.3,76.2,53.9,74z"/>
		
			<linearGradient id="SVGID_20_" gradientUnits="userSpaceOnUse" x1="1424.8684" y1="6630.7231" x2="1429.066" y2="6622.2202" gradientTransform="matrix(-0.1367 -0.9906 0.9906 -0.1367 -6352.9771 2353.5964)">
			<stop  offset="0" style="stop-color:#FFE8D6"/>
			<stop  offset="0.4888" style="stop-color:#FCF3EA"/>
			<stop  offset="1" style="stop-color:#FFD184"/>
		</linearGradient>
		<path class="st22" d="M20.3,25.4c2.1,0.9,2.1,5.7,0,10.7s-5.5,8.5-7.6,7.6s-2.1-5.7,0-10.7S18.2,24.5,20.3,25.4z"/>
		
			<linearGradient id="SVGID_21_" gradientUnits="userSpaceOnUse" x1="1432.4567" y1="6642.5381" x2="1434.7169" y2="6633.9277" gradientTransform="matrix(-0.1367 -0.9906 0.9906 -0.1367 -6352.9771 2353.5964)">
			<stop  offset="0" style="stop-color:#FFE8D6"/>
			<stop  offset="0.4888" style="stop-color:#FCF3EA"/>
			<stop  offset="1" style="stop-color:#FFD184"/>
		</linearGradient>
		<path class="st23" d="M28.2,16.4c2.2,0.3,3.5,4.9,2.7,10.4s-3.1,9.6-5.4,9.3c-2.2-0.3-3.5-4.9-2.7-10.4S25.9,16.1,28.2,16.4z"/>
		
			<linearGradient id="SVGID_22_" gradientUnits="userSpaceOnUse" x1="1416.3164" y1="6640.1704" x2="1425.1422" y2="6638.2334" gradientTransform="matrix(-0.1367 -0.9906 0.9906 -0.1367 -6352.9771 2353.5964)">
			<stop  offset="0" style="stop-color:#FFE8D6"/>
			<stop  offset="0.4888" style="stop-color:#FCF3EA"/>
			<stop  offset="1" style="stop-color:#FFD184"/>
		</linearGradient>
		<path class="st24" d="M39.3,36c0.8,2.1-2.7,5.4-7.9,7.3c-5.1,1.9-9.9,1.7-10.7-0.4c-0.8-2.1,2.7-5.4,7.9-7.3
			C33.7,33.7,38.5,33.8,39.3,36z"/>
		
			<linearGradient id="SVGID_23_" gradientUnits="userSpaceOnUse" x1="1437.0574" y1="6676.6235" x2="1428.8774" y2="6677.915" gradientTransform="matrix(-0.1367 -0.9906 0.9906 -0.1367 -6352.9771 2353.5964)">
			<stop  offset="0" style="stop-color:#FFE8D6"/>
			<stop  offset="0.4888" style="stop-color:#FCF3EA"/>
			<stop  offset="1" style="stop-color:#FFD184"/>
		</linearGradient>
		<path class="st25" d="M75.5,19.5c0.6,2.2-3.1,5.2-8.4,6.7s-10,1-10.6-1.2s3.1-5.2,8.4-6.7S74.9,17.3,75.5,19.5z"/>
		
			<linearGradient id="SVGID_24_" gradientUnits="userSpaceOnUse" x1="1449.3541" y1="6681.2803" x2="1436.3308" y2="6678.2666" gradientTransform="matrix(-0.1367 -0.9906 0.9906 -0.1367 -6352.9771 2353.5964)">
			<stop  offset="0" style="stop-color:#FFE8D6"/>
			<stop  offset="0.4888" style="stop-color:#FCF3EA"/>
			<stop  offset="1" style="stop-color:#FFD184"/>
		</linearGradient>
		<path class="st26" d="M76.7,13.1c-0.3,2.2-5,3.4-10.4,2.6c-5.4-0.8-9.5-3.3-9.2-5.5s5-3.4,10.4-2.6S77.1,10.9,76.7,13.1z"/>
		
			<linearGradient id="SVGID_25_" gradientUnits="userSpaceOnUse" x1="1424.7347" y1="6671.6475" x2="1416.4471" y2="6674.6611" gradientTransform="matrix(-0.1367 -0.9906 0.9906 -0.1367 -6352.9771 2353.5964)">
			<stop  offset="0" style="stop-color:#FFE8D6"/>
			<stop  offset="0.4888" style="stop-color:#FCF3EA"/>
			<stop  offset="1" style="stop-color:#FFD184"/>
		</linearGradient>
		<path class="st27" d="M72,29.4c1,2-2.2,5.6-7.1,8.1c-4.9,2.4-9.7,2.8-10.7,0.7c-1-2,2.2-5.6,7.1-8.1C66.2,27.7,71,27.4,72,29.4z"
			/>
		
			<linearGradient id="SVGID_26_" gradientUnits="userSpaceOnUse" x1="1449.9646" y1="6650.6533" x2="1437.587" y2="6654.4204" gradientTransform="matrix(-0.1367 -0.9906 0.9906 -0.1367 -6352.9771 2353.5964)">
			<stop  offset="0" style="stop-color:#FFE8D6"/>
			<stop  offset="0.4888" style="stop-color:#FCF3EA"/>
			<stop  offset="1" style="stop-color:#FFD184"/>
		</linearGradient>
		<path class="st28" d="M48.6,9.7c1.2,2.2-1.6,6.1-6.4,8.8s-9.6,3.1-10.8,0.9s1.6-6.1,6.4-8.8S47.4,7.5,48.6,9.7z"/>
		
			<linearGradient id="SVGID_27_" gradientUnits="userSpaceOnUse" x1="1438.8201" y1="6660.6885" x2="1438.9277" y2="6670.9131" gradientTransform="matrix(-0.1367 -0.9906 0.9906 -0.1367 -6352.9771 2353.5964)">
			<stop  offset="0" style="stop-color:#FFE8D6"/>
			<stop  offset="0.4888" style="stop-color:#FCF3EA"/>
			<stop  offset="1" style="stop-color:#FFD184"/>
		</linearGradient>
		<path class="st29" d="M52.3,7.5c2.3-0.1,4.4,4.2,4.7,9.6c0.3,5.5-1.2,10-3.5,10.1c-2.3,0.1-4.4-4.2-4.7-9.6
			C48.5,12.2,50,7.6,52.3,7.5z"/>
		
			<linearGradient id="SVGID_28_" gradientUnits="userSpaceOnUse" x1="1812.0854" y1="2498.0337" x2="1812.193" y2="2508.2588" gradientTransform="matrix(0.7188 -0.6953 0.6953 0.7188 -2988.5359 -473.1371)">
			<stop  offset="0" style="stop-color:#FFE8D6"/>
			<stop  offset="0.4888" style="stop-color:#FCF3EA"/>
			<stop  offset="1" style="stop-color:#FFD184"/>
		</linearGradient>
		<path class="st30" d="M61.4,59.3c1.4,1.7-0.8,6-5,9.5c-4.2,3.5-8.8,4.9-10.2,3.2s0.8-6,5-9.5C55.3,59,59.9,57.5,61.4,59.3z"/>
		
			<linearGradient id="SVGID_29_" gradientUnits="userSpaceOnUse" x1="1840.0197" y1="2608.8" x2="1840.1272" y2="2619.0249" gradientTransform="matrix(0.6974 -0.7167 0.7167 0.6974 -3110.4832 -443.4698)">
			<stop  offset="0" style="stop-color:#FFE8D6"/>
			<stop  offset="0.4888" style="stop-color:#FCF3EA"/>
			<stop  offset="1" style="stop-color:#FFD184"/>
		</linearGradient>
		<path class="st31" d="M53,53.5c1.5,1.7-0.6,6-4.7,9.6s-8.6,5.2-10.1,3.5c-1.5-1.7,0.6-6,4.7-9.6S51.5,51.8,53,53.5z"/>
		
			<linearGradient id="SVGID_30_" gradientUnits="userSpaceOnUse" x1="1818.2045" y1="5868.7085" x2="1818.3121" y2="5878.9331" gradientTransform="matrix(6.136281e-02 -0.9981 0.9981 6.136281e-02 -5905.3545 1517.3091)">
			<stop  offset="0" style="stop-color:#FFE8D6"/>
			<stop  offset="0.4888" style="stop-color:#FCF3EA"/>
			<stop  offset="1" style="stop-color:#FFD184"/>
		</linearGradient>
		<path class="st32" d="M69.5,53.1c2.2,0.3,3.5,4.9,2.7,10.4c-0.7,5.4-3.2,9.6-5.4,9.3c-2.2-0.3-3.5-4.9-2.7-10.4
			C64.9,56.9,67.3,52.8,69.5,53.1z"/>
		
			<linearGradient id="SVGID_31_" gradientUnits="userSpaceOnUse" x1="1436.2693" y1="6648.7183" x2="1427.9817" y2="6652.8081" gradientTransform="matrix(-0.1367 -0.9906 0.9906 -0.1367 -6352.9771 2353.5964)">
			<stop  offset="0" style="stop-color:#FFE8D6"/>
			<stop  offset="0.4888" style="stop-color:#FCF3EA"/>
			<stop  offset="1" style="stop-color:#FFD184"/>
		</linearGradient>
		<path class="st33" d="M48.2,20.9c1.2,1.9-1.7,5.8-6.4,8.6s-9.4,3.5-10.6,1.6c-1.2-1.9,1.7-5.8,6.4-8.6S47,19,48.2,20.9z"/>
		
			<linearGradient id="SVGID_32_" gradientUnits="userSpaceOnUse" x1="1421.202" y1="6659.1851" x2="1429.6344" y2="6659.1851" gradientTransform="matrix(-0.1367 -0.9906 0.9906 -0.1367 -6352.9771 2353.5964)">
			<stop  offset="0" style="stop-color:#FFE8D6"/>
			<stop  offset="0.4888" style="stop-color:#FCF3EA"/>
			<stop  offset="1" style="stop-color:#FFD184"/>
		</linearGradient>
		<path class="st34" d="M58.5,29.1c0.6,2.2-3.3,5.1-8.6,6.4S39.9,36.1,39.3,34s3.3-5.1,8.6-6.4C53.2,26.2,58,26.9,58.5,29.1z"/>
		
			<linearGradient id="SVGID_33_" gradientUnits="userSpaceOnUse" x1="1411.7484" y1="6653.2773" x2="1420.1808" y2="6653.2773" gradientTransform="matrix(-0.1367 -0.9906 0.9906 -0.1367 -6352.9771 2353.5964)">
			<stop  offset="0" style="stop-color:#FFE8D6"/>
			<stop  offset="0.4888" style="stop-color:#FCF3EA"/>
			<stop  offset="1" style="stop-color:#FFD184"/>
		</linearGradient>
		<path class="st35" d="M54,39.2c0.6,2.2-3.3,5.1-8.6,6.4s-10.1,0.7-10.6-1.5c-0.6-2.2,3.3-5.1,8.6-6.4S53.4,37,54,39.2z"/>
		
			<linearGradient id="SVGID_34_" gradientUnits="userSpaceOnUse" x1="2278.8799" y1="3673.3799" x2="2287.3123" y2="3673.3799" gradientTransform="matrix(0.5945 -0.8041 0.8041 0.5945 -4254.0142 -297.4733)">
			<stop  offset="0" style="stop-color:#FFE8D6"/>
			<stop  offset="0.4888" style="stop-color:#FCF3EA"/>
			<stop  offset="1" style="stop-color:#FFD184"/>
		</linearGradient>
		<path class="st36" d="M65.6,55.7c-1.1,2-5.9,1.3-10.6-1.4s-7.7-6.5-6.5-8.5c1.1-2,5.9-1.3,10.6,1.4C63.8,49.9,66.7,53.8,65.6,55.7
			z"/>
		
			<linearGradient id="SVGID_35_" gradientUnits="userSpaceOnUse" x1="1412.0648" y1="6644.353" x2="1403.9926" y2="6639.7246" gradientTransform="matrix(-0.1367 -0.9906 0.9906 -0.1367 -6352.9771 2353.5964)">
			<stop  offset="0" style="stop-color:#FFE8D6"/>
			<stop  offset="0.4888" style="stop-color:#FCF3EA"/>
			<stop  offset="1" style="stop-color:#FFD184"/>
		</linearGradient>
		<path class="st37" d="M43.5,54.8c-0.9,2.1-5.7,2.1-10.7,0s-8.4-5.5-7.6-7.6c0.9-2.1,5.7-2.1,10.7,0S44.4,52.7,43.5,54.8z"/>
		
			<linearGradient id="SVGID_36_" gradientUnits="userSpaceOnUse" x1="1364.054" y1="6648.7661" x2="1375.2476" y2="6655.2241" gradientTransform="matrix(-0.1367 -0.9906 0.9906 -0.1367 -6352.9771 2353.5964)">
			<stop  offset="0" style="stop-color:#FFE8D6"/>
			<stop  offset="0.4888" style="stop-color:#FCF3EA"/>
			<stop  offset="1" style="stop-color:#FFD184"/>
		</linearGradient>
		<path class="st38" d="M58.5,91.9c-0.9,2.1-5.7,2.1-10.7,0s-8.4-5.5-7.6-7.6c0.9-2.1,5.7-2.1,10.7,0S59.3,89.8,58.5,91.9z"/>
		
			<linearGradient id="SVGID_37_" gradientUnits="userSpaceOnUse" x1="1350.3071" y1="6650.2339" x2="1364.7297" y2="6654.5391" gradientTransform="matrix(-0.1367 -0.9906 0.9906 -0.1367 -6352.9771 2353.5964)">
			<stop  offset="0" style="stop-color:#FFE8D6"/>
			<stop  offset="0.4888" style="stop-color:#FCF3EA"/>
			<stop  offset="1" style="stop-color:#FFD184"/>
		</linearGradient>
		<path class="st39" d="M61.3,100.9c-0.4,2.2-5.1,3.3-10.5,2.3s-9.4-3.5-9-5.8c0.4-2.2,5.1-3.3,10.5-2.3S61.7,98.7,61.3,100.9z"/>
		
			<linearGradient id="SVGID_38_" gradientUnits="userSpaceOnUse" x1="1364.0334" y1="6669.1689" x2="1355.2076" y2="6667.9849" gradientTransform="matrix(-0.1367 -0.9906 0.9906 -0.1367 -6352.9771 2353.5964)">
			<stop  offset="0" style="stop-color:#FFE8D6"/>
			<stop  offset="0.4888" style="stop-color:#FCF3EA"/>
			<stop  offset="1" style="stop-color:#FFD184"/>
		</linearGradient>
		<path class="st40" d="M77.1,96.2c-0.2,2.3-4.7,3.8-10.2,3.3s-9.7-2.6-9.6-4.8c0.2-2.3,4.7-3.8,10.2-3.3S77.3,94,77.1,96.2z"/>
		
			<linearGradient id="SVGID_39_" gradientUnits="userSpaceOnUse" x1="1366.7031" y1="6664.7573" x2="1375.4213" y2="6668.3091" gradientTransform="matrix(-0.1367 -0.9906 0.9906 -0.1367 -6352.9771 2353.5964)">
			<stop  offset="0" style="stop-color:#FFE8D6"/>
			<stop  offset="0.4888" style="stop-color:#FCF3EA"/>
			<stop  offset="1" style="stop-color:#FFD184"/>
		</linearGradient>
		<path class="st41" d="M72.9,88.2c-0.6,2.2-5.4,2.7-10.7,1.1s-9-4.6-8.3-6.7c0.6-2.2,5.4-2.7,10.7-1.1C69.8,83,73.5,86,72.9,88.2z"
			/>
		
			<linearGradient id="SVGID_40_" gradientUnits="userSpaceOnUse" x1="1376.1616" y1="6632.1689" x2="1374.2242" y2="6623.3433" gradientTransform="matrix(-0.1367 -0.9906 0.9906 -0.1367 -6352.9771 2353.5964)">
			<stop  offset="0" style="stop-color:#FFE8D6"/>
			<stop  offset="0.4888" style="stop-color:#FCF3EA"/>
			<stop  offset="1" style="stop-color:#FFD184"/>
		</linearGradient>
		<path class="st42" d="M20.9,75.7c2.1-0.8,5.6,2.9,7.7,8.2c2.2,5.4,2.2,10.5,0.1,11.3s-5.6-2.9-7.7-8.2
			C18.9,81.6,18.8,76.6,20.9,75.7z"/>
		
			<linearGradient id="SVGID_41_" gradientUnits="userSpaceOnUse" x1="1366.8215" y1="6634.3135" x2="1368.2207" y2="6643.0317" gradientTransform="matrix(-0.1367 -0.9906 0.9906 -0.1367 -6352.9771 2353.5964)">
			<stop  offset="0" style="stop-color:#FFE8D6"/>
			<stop  offset="0.4888" style="stop-color:#FCF3EA"/>
			<stop  offset="1" style="stop-color:#FFD184"/>
		</linearGradient>
		<path class="st43" d="M33.9,81.5c2.2-0.6,5.2,3.4,6.8,9c1.6,5.6,1.1,10.6-1.1,11.2c-2.2,0.6-5.2-3.4-6.8-9
			C31.2,87.1,31.7,82.1,33.9,81.5z"/>
		
			<linearGradient id="SVGID_42_" gradientUnits="userSpaceOnUse" x1="1388.843" y1="6636.6016" x2="1386.2599" y2="6628.314" gradientTransform="matrix(-0.1367 -0.9906 0.9906 -0.1367 -6352.9771 2353.5964)">
			<stop  offset="0" style="stop-color:#FFE8D6"/>
			<stop  offset="0.4888" style="stop-color:#FCF3EA"/>
			<stop  offset="1" style="stop-color:#FFD184"/>
		</linearGradient>
		<path class="st44" d="M23.1,63.2c2-1,5.7,2.5,8.3,7.7s2.9,10.3,0.9,11.3c-2,1-5.7-2.5-8.3-7.7S21,64.2,23.1,63.2z"/>
	</g>
	<g>
		<defs>
			<path id="SVGID_43_" d="M69.5,56.4L79.9,46c4-4,4-10.6,0-14.6c-4-4-10.6-4-14.6,0L54.8,41.7L44.5,31.4c-4-4-10.6-4-14.6,0
				c-4,4-4,10.6,0,14.6l10.4,10.4L29.8,66.8c-4,4-4,10.6,0,14.6c2,2,4.7,3,7.3,3s5.3-1,7.3-3L54.8,71l10.4,10.4c2,2,4.7,3,7.3,3
				s5.3-1,7.3-3c4-4,4-10.6,0-14.6L69.5,56.4z"/>
		</defs>
		<clipPath id="SVGID_44_">
			<use xlink:href="#SVGID_43_"  style="overflow:visible;"/>
		</clipPath>
		<g class="st45">
			<path class="st46" d="M2.3,41.6c-0.2-2.3-0.5-4.7-0.7-7C4.2,33.1,7,32,9.9,31.4c0.8,0.7,1.9,1,2.8,1.4c4.9,2.4,9.6,5.1,13.8,8.7
				c3.4,2.9,6.2,6.3,8.7,10c2.7,4.1,5,8.5,7.3,12.9c2.1,4.1,4.2,8.3,6.3,12.5c0.8,1.5,1.6,3,2.2,4.6c-0.6,0.1-1.1,0.1-1.7,0
				c-1.6-0.4-3.2-0.4-4.8-0.7c-2.3-0.4-4.6-0.9-6.8-1.6c-2.2-0.6-4.3-1.2-6.5-1.7c-0.2-0.3-0.3-0.5-0.5-0.8c-1.7-3.5-3.2-7-4.8-10.5
				c-2-4.5-3.7-9.1-6-13.5c-1.2-2.4-2.9-4.4-5-6.1c-2.3-1.8-4.9-3.2-7.8-4C5.6,42.1,4,41.6,2.3,41.6z"/>
			<path class="st46" d="M3.5,52.9c-0.3-3.1-0.6-6.2-1-9.3c2.2,0.2,4.2,0.8,6.2,1.6c3.6,1.5,6.6,3.7,8.7,7c2.2,3.5,3.6,7.4,5.2,11.2
				c1.4,3.2,2.8,6.4,4.2,9.6c0.6,1.3,1.3,2.6,1.7,3.9c-0.3,0.1-0.5,0-0.8,0c-3-0.4-6-0.3-9-0.2c-0.6-2-0.8-4-1.1-6.1
				c-0.4-2.3-0.7-4.6-1.4-6.8c-1.3-4.2-3.6-7.7-7.8-9.7C6.9,53.6,5.3,52.9,3.5,52.9z"/>
			<path class="st46" d="M6.1,79c-0.8-8-1.7-16-2.5-24c0.2,0,0.4-0.1,0.5,0c4,0.9,7.1,3.1,8.9,6.8c1.1,2.1,1.7,4.3,2.1,6.6
				c0.5,2.9,1,5.8,1.5,8.7c-1.2,0.5-2.5,0.3-3.8,0.7c-1.5,0.5-3,0.8-4.5,1.3C7.6,79.4,6.9,79.9,6.1,79z"/>
			<path class="st47" d="M28.5,77.1c-0.4-1.4-1.2-2.6-1.7-3.9c-1.4-3.2-2.8-6.4-4.2-9.6c-1.7-3.8-3.1-7.7-5.2-11.2
				c-2.1-3.3-5.1-5.6-8.7-7c-2-0.8-4.1-1.4-6.2-1.6c-0.1-0.7-0.1-1.4-0.2-2.1c1.7,0,3.3,0.5,5,1c2.8,0.8,5.5,2.1,7.8,4
				c2.1,1.7,3.7,3.7,5,6.1c2.3,4.4,4,9,6,13.5c1.6,3.5,3.1,7,4.8,10.5c0.1,0.3,0.3,0.6,0.5,0.8c0.3,0.7,0.7,1.4,1,2.2
				c1,1.9,2,3.7,3,5.6c-0.8,0.1-1.6,0.1-2.4,0.2c0.1-0.3-0.1-0.6-0.3-0.9c-0.6-1.1-1.2-2.2-1.8-3.3C30,79.9,29.5,78.4,28.5,77.1z"/>
			<path class="st47" d="M111.5,70.8c-0.1,0-0.1,0-0.2,0c0-0.5-0.4-0.6-0.8-0.8c-1.5-0.5-2.9-1.2-4.3-2c-3-1.8-5.7-4-8.1-6.4
				c-2.5-2.5-4.7-5.1-6.5-8.1c-2.5-4.3-4-9-6.1-13.5c-1.2-2.6-2.4-5.3-4.1-7.6c-1-1.4-2.3-2.6-3.5-3.9c1.2,0,2.3,0.1,3.5,0.1
				c-0.3,0.4,0,0.6,0.2,0.8c0.5,0.6,1,1.2,1.5,1.9c2.6,3.8,4.3,8,6,12.2c1.2,2.9,2.4,5.9,4,8.7c1.8,3.1,4.1,5.8,6.7,8.3
				c3.1,3,6.4,5.6,10.3,7.3c0.2,0.1,0.4,0.3,0.6,0.1c0.2-0.2,0.1-0.4,0-0.7c-0.1-1-0.5-2-0.3-3.1c0.1,0,0.2,0,0.2,0
				C111.1,66.3,111.3,68.5,111.5,70.8z"/>
			<path class="st48" d="M6.1,79c0.7,0.9,1.4,0.4,2.3,0.1c1.5-0.5,3-0.8,4.5-1.3c1.2-0.4,2.6-0.3,3.8-0.7c0.7,2.5,1.5,5,3,7.2
				c0.6,0.9,1.4,1.6,2,2.4c-3.4,0.6-6.8,0.6-10-0.9c-2.5-1.1-4.2-3-5.1-5.6c-0.1-0.2,0-0.5-0.4-0.6C6.2,79.5,6.2,79.3,6.1,79z"/>
			<path class="st47" d="M21.7,86.7c-0.6-0.9-1.4-1.6-2-2.4c-1.5-2.2-2.3-4.7-3-7.2c-0.5-2.9-1-5.8-1.5-8.7c-0.4-2.3-1-4.5-2.1-6.6
				C11.2,58,8.2,55.8,4.2,55c-0.2,0-0.3,0-0.5,0c-0.1-0.7-0.1-1.4-0.2-2.1c1.8-0.1,3.4,0.6,5,1.4c4.1,2,6.4,5.4,7.8,9.7
				c0.7,2.2,1.1,4.5,1.4,6.8c0.3,2,0.5,4.1,1.1,6.1c0.6,2.7,1.5,5.2,3.3,7.3c0.9,1,1.8,2.1,3.4,2.1C24.2,86.4,22.9,86.6,21.7,86.7z"
				/>
			<path class="st47" d="M55.4,85.2c-0.8,0-1.6-0.1-2.4-0.1c-0.6-1.2-1.2-2.5-1.9-3.6c-0.6-1.6-1.5-3.1-2.2-4.6
				c-2.1-4.2-4.2-8.3-6.3-12.5c-2.2-4.4-4.5-8.8-7.3-12.9c-2.5-3.7-5.3-7.1-8.7-10c-4.2-3.6-8.9-6.3-13.8-8.7
				c-0.9-0.5-2-0.8-2.8-1.4c1-0.5,2-0.6,3-0.9c0,0.4,0.4,0.4,0.6,0.5c3.8,1.9,7.5,3.9,11,6.4c5.1,3.6,9.2,8.1,12.6,13.3
				c2,3,3.8,6.2,5.4,9.4c2.3,4.6,4.6,9.2,7,13.7c1.4,2.7,2.8,5.4,4.2,8.1C54.1,83.1,54.7,84.2,55.4,85.2z"/>
			<path class="st48" d="M51,81.5c0.8,1.1,1.3,2.4,1.9,3.6c-2.2,0-4.4,0-6.5,0c-3.5,0-7,0-10.5,0.2c-0.2,0-0.5,0-0.7-0.1
				c-1-1.9-2-3.7-3-5.6c-0.4-0.7-0.7-1.4-1-2.2c2.2,0.6,4.3,1.2,6.5,1.7c2.3,0.6,4.5,1.1,6.8,1.6c1.6,0.3,3.2,0.4,4.8,0.7
				C49.9,81.7,50.4,81.6,51,81.5z"/>
			<path class="st46" d="M53.6,81.9c-1.4-2.7-2.8-5.4-4.2-8.1c-2.3-4.6-4.7-9.2-7-13.7c-1.6-3.2-3.4-6.4-5.4-9.4
				c-3.4-5.2-7.5-9.7-12.6-13.3c-3.5-2.5-7.2-4.5-11-6.4c-0.2-0.1-0.6-0.1-0.6-0.5c3.6-1,7.2-1.9,10.8-2.4c0.3,0.1,0.5,0.1,0.7-0.1
				c1.1-0.2,2.2-0.3,3.4-0.4c0.1,0.1,0.2,0.2,0.3,0.2c1.7,0.4,3.3,1,4.8,1.8c5.4,2.8,9.3,7.2,12.7,12.1c2.7,3.9,4.8,8.1,6.7,12.4
				c1.4,3.3,2.8,6.6,4,10c1.4,4.2,2.7,8.4,4.1,12.6c0.5,1.7,1.1,3.3,1.6,5C61.9,82,61.6,82,61.3,82c-0.9,0-1.8,0-2.6,0
				C57,82,55.3,82,53.6,81.9z"/>
			<path class="st46" d="M33.2,27.2C38.1,27,43,27,47.9,27.1c0.2,0.4,0.5,0.5,0.8,0.8c2.5,2,4.7,4.2,6.7,6.7c2.9,3.8,5.1,8,7,12.3
				c2.5,5.7,5,11.5,7.7,17.1c2,4.1,4.2,8,6.9,11.7c0.9,1.3,1.9,2.7,2.9,4c0,0.3-0.2,0.4-0.5,0.4c-2.6,0.4-5.3,0.8-7.9,1.2
				c-2.3,0.3-4.7,0.3-7,0.5c-0.1-0.2-0.2-0.3-0.2-0.5c-1.2-2.6-1.9-5.4-2.7-8.1c-2.1-6.8-4.4-13.6-7.3-20.2
				c-2.5-5.5-5.3-10.8-9-15.6c-2.5-3.2-5.4-6.1-8.8-8.4C35.3,28.5,34.1,28.1,33.2,27.2z"/>
			<path class="st46" d="M51.1,27.2c2.8,0,5.7,0,8.5,0.2c0.1,0.1,0.2,0.2,0.3,0.2c5.6,2.8,10.1,6.8,13.5,12.1
				c2.8,4.3,4.9,9,6.9,13.8c1.3,3.2,2.6,6.5,4,9.7c2.3,5.3,5,10.3,8.7,14.8c-0.2,0.1-0.5,0.2-0.7,0.2c-3.3,0.2-6.5,0.9-9.7,1.4
				c-2.3-2.3-4-5-5.8-7.7c-2.9-4.5-5.2-9.3-7.5-14.1c-2.3-5-4.3-10.1-6.7-15c-2.1-4.3-4.6-8.4-7.8-11.9
				C53.6,29.6,52.3,28.4,51.1,27.2z"/>
			<path class="st46" d="M78,28.4c1.2,1.3,2.5,2.5,3.5,3.9c1.7,2.4,2.9,5,4.1,7.6c2,4.5,3.6,9.2,6.1,13.5c1.8,3,4,5.6,6.5,8.1
				c2.5,2.5,5.1,4.7,8.1,6.4c1.4,0.8,2.8,1.5,4.3,2c0.4,0.1,0.7,0.3,0.8,0.8c-0.2,2.1-0.7,4.1-2,5.8c-0.3,0-0.4,0.2-0.3,0.4
				c0,0,0,0,0,0c-0.3,0-0.6,0.1-0.9,0.1c-1.9,0.1-3.7,0.1-5.6,0.2c-2.3,0.1-4.6,0.3-6.9,0.5c-1.6-1.4-2.8-3.2-4-4.9
				c-3.1-4.6-5.3-9.6-7.4-14.7c-2.5-6.1-4.9-12.3-8.3-18c-1.8-3-3.9-5.8-6.5-8.2c-1.7-1.6-3.5-2.9-5.4-4.3c3.2,0,6.4,0.3,9.6,0.5
				C75.2,28.1,76.6,28.1,78,28.4z"/>
			<path class="st46" d="M110.6,64.1c-0.1,1,0.2,2,0.3,3.1c0,0.2,0.2,0.5,0,0.7c-0.2,0.2-0.4-0.1-0.6-0.1c-4-1.7-7.3-4.3-10.3-7.3
				c-2.6-2.5-4.9-5.2-6.7-8.3c-1.6-2.8-2.8-5.7-4-8.7c-1.7-4.2-3.4-8.5-6-12.2c-0.5-0.7-1-1.3-1.5-1.9c-0.2-0.2-0.5-0.4-0.2-0.8
				c1.7,0.1,3.4,0.2,5,0.3c1.7,3,3.2,6.2,4.9,9.2c3,5.2,7,9.2,12.9,11.2c1.5,0.5,3,1.1,4.5,1.6c0.5,3.9,1.1,7.7,1.6,11.6
				c0,0.3,0,0.6,0.1,0.9C110.5,63.6,110.5,63.8,110.6,64.1z"/>
			<path class="st46" d="M89.2,28.9c0.1,0,0.2,0,0.3,0c0.1,0,0.2,0,0.2,0c3.1,0.2,6.3,0.1,9.3,1c3.2,1,5.8,2.7,7.3,5.8
				c0.5,1,0.8,2.1,0.9,3.2c0.4,2.6,0.7,5.2,1,7.8c-0.1,0.3-0.1,0.5,0.1,0.7c0,0.2,0,0.3,0.1,0.5c-0.1,0.1-0.1,0.2,0,0.2
				c0,0.1,0,0.2,0,0.2c-1.8-0.5-3.6-1.2-5.3-2c-3.2-1.5-5.8-3.6-7.9-6.5c-1.9-2.5-3.3-5.3-4.7-8.1C90,30.9,89.3,30,89.2,28.9z"/>
			<path class="st47" d="M33.2,27.2c0.9,0.9,2,1.3,3,1.9c3.5,2.2,6.3,5.1,8.8,8.4c3.8,4.8,6.6,10.1,9,15.6
				c2.9,6.6,5.2,13.3,7.3,20.2c0.8,2.7,1.6,5.5,2.7,8.1c0.1,0.2,0.2,0.3,0.2,0.5c0.4,1.3,1.1,2.4,1.8,3.6c-0.9,0.1-1.9,0.1-2.8,0
				c0.1-0.1,0.4-0.1,0.2-0.4C63,84,62.7,82.8,62,81.7c-0.5-1.7-1.1-3.3-1.6-5c-1.4-4.2-2.7-8.4-4.1-12.6c-1.2-3.4-2.5-6.7-4-10
				c-1.9-4.3-4.1-8.5-6.7-12.4c-3.4-4.9-7.3-9.3-12.7-12.1c-1.5-0.8-3.1-1.4-4.8-1.8c-0.1,0-0.2-0.1-0.3-0.2
				C29.7,27.5,31.4,27.2,33.2,27.2z"/>
			<path class="st47" d="M51.1,27.2c1.2,1.2,2.5,2.4,3.7,3.6c3.3,3.5,5.7,7.6,7.8,11.9c2.4,4.9,4.4,10,6.7,15
				c2.2,4.8,4.6,9.6,7.5,14.1c1.7,2.7,3.5,5.4,5.8,7.7c0.8,1.1,1.9,1.9,2.9,2.8c0.6,0.5,1.4,0.9,1.9,1.5c-1,0.3-1.9,0.4-2.9,0.5
				c0-0.1,0-0.2-0.1-0.2c-1.6-1.3-3-2.9-4.5-4.3c-1-1.3-1.9-2.6-2.9-4c-2.6-3.7-4.9-7.7-6.9-11.7c-2.8-5.6-5.2-11.4-7.7-17.1
				c-1.9-4.3-4.1-8.5-7-12.3c-1.9-2.5-4.2-4.7-6.7-6.7c-0.3-0.2-0.6-0.4-0.8-0.8C48.9,27.2,50,27.2,51.1,27.2z"/>
			<path class="st47" d="M64.2,27.6c1.8,1.4,3.7,2.7,5.4,4.3c2.5,2.4,4.7,5.2,6.5,8.2c3.4,5.7,5.8,11.9,8.3,18
				c2.1,5.1,4.3,10.1,7.4,14.7c1.2,1.8,2.4,3.5,4,4.9c0.6,0.9,1.5,1.6,2.4,2.3c0.7,0.6,1.6,1,2.2,1.7c-1,0.2-1.9,0.4-2.9,0.5
				c-0.1-0.1-0.1-0.3-0.2-0.4c-1.6-1.2-2.9-2.6-4.3-4c-3.7-4.4-6.4-9.5-8.7-14.8c-1.4-3.2-2.7-6.5-4-9.7c-2-4.7-4.1-9.4-6.9-13.8
				c-3.4-5.2-7.8-9.3-13.5-12.1c-0.1,0-0.2-0.2-0.3-0.2C61.2,27.4,62.7,27.4,64.2,27.6z"/>
			<path class="st47" d="M89.2,28.9c0.1,1.2,0.8,2.1,1.4,3c1.4,2.8,2.8,5.6,4.7,8.1c2.1,2.8,4.7,5,7.9,6.5c1.7,0.8,3.5,1.5,5.3,2
				c0.1,0.8,0.2,1.5,0.3,2.3c-1.5-0.5-3-1.1-4.5-1.6c-5.8-2-9.9-6-12.9-11.2c-1.7-3-3.2-6.2-4.9-9.2C87.4,28.8,88.3,28.8,89.2,28.9z
				"/>
			<path class="st47" d="M110.4,63.3c-0.1-0.3-0.2-0.6-0.1-0.9C110.6,62.7,110.6,63,110.4,63.3z"/>
			<path class="st47" d="M24.5,27.9c-0.2,0.2-0.5,0.2-0.7,0.1C24,27.9,24.2,27.9,24.5,27.9z"/>
			<path class="st47" d="M108.3,47.5c-0.2-0.2-0.2-0.5-0.1-0.7C108.4,47,108.4,47.3,108.3,47.5z"/>
			<path class="st47" d="M89.7,28.9c-0.1,0-0.2,0-0.2,0C89.5,28.8,89.6,28.8,89.7,28.9z"/>
			<path class="st47" d="M108.4,48.2c-0.1-0.1-0.1-0.1,0-0.2C108.4,48,108.5,48.1,108.4,48.2C108.5,48.2,108.5,48.2,108.4,48.2z"/>
			<path class="st48" d="M25.5,86.2c-1.6,0-2.5-1.1-3.4-2.1c-1.8-2.1-2.7-4.6-3.3-7.3c3-0.1,6-0.2,9,0.2c0.3,0,0.5,0,0.8,0
				c0.9,1.3,1.5,2.8,2.2,4.2c0.6,1.1,1.2,2.2,1.8,3.3c0.2,0.3,0.3,0.5,0.3,0.9c-0.2,0-0.5,0-0.7,0.1c-0.4-0.1-0.7-0.1-1,0.1
				C29.2,85.8,27.3,86,25.5,86.2z"/>
			<path class="st48" d="M79.8,79.7c1.5,1.5,2.9,3,4.5,4.3c0.1,0,0.1,0.2,0.1,0.2c-6.1,0.7-12.2,1.3-18.3,1.2
				c-0.6-1.2-1.4-2.3-1.8-3.6c2.3-0.2,4.7-0.2,7-0.5c2.6-0.4,5.3-0.8,7.9-1.2C79.6,80.1,79.8,80.1,79.8,79.7z"/>
			<path class="st48" d="M93,77.9c1.4,1.4,2.7,2.8,4.3,4c0.1,0.1,0.1,0.2,0.2,0.4c-3,0.5-6,1-9,1.5c-0.4,0.1-0.7,0.1-1.1,0.1
				c-0.5-0.6-1.3-1-1.9-1.5c-1-0.9-2.1-1.6-2.9-2.8c3.2-0.5,6.4-1.1,9.7-1.4C92.5,78.1,92.7,78,93,77.9z"/>
			<path class="st48" d="M100.3,81.8c-0.7-0.7-1.5-1.1-2.2-1.7c-0.8-0.7-1.7-1.4-2.4-2.3c2.3-0.2,4.6-0.4,6.9-0.5
				c1.9-0.1,3.7-0.1,5.6-0.2c0.3,0,0.6-0.1,0.9-0.1c-1.4,2.1-3.4,3.4-5.7,4.2c-0.5,0.2-1,0.2-1.5,0.4c-0.2,0-0.4,0-0.5,0.1
				C101,81.7,100.7,81.7,100.3,81.8z"/>
			<path class="st48" d="M62,81.7c0.7,1.1,1,2.3,1.6,3.4c0.1,0.2-0.1,0.3-0.2,0.4c-2.7-0.1-5.3-0.2-8-0.2c-0.7-1-1.2-2.2-1.7-3.3
				c1.7,0,3.4,0.1,5,0.1c0.9,0,1.8,0,2.6,0C61.6,82,61.9,82,62,81.7z"/>
			<path class="st47" d="M31.1,85.6c0.3-0.2,0.7-0.2,1-0.1C31.8,85.7,31.5,85.7,31.1,85.6z"/>
			<path class="st48" d="M109.1,77c-0.1-0.3,0-0.4,0.3-0.4C109.3,76.8,109.2,76.9,109.1,77z"/>
			<path class="st47" d="M101.3,81.6c0.2-0.1,0.3-0.2,0.5-0.1C101.7,81.7,101.5,81.7,101.3,81.6z"/>
		</g>
	</g>
</g>
</svg>
