<?xml version="1.0" encoding="utf-8"?>
<!-- Generator: Adobe Illustrator 25.2.1, SVG Export Plug-In . SVG Version: 6.00 Build 0)  -->
<svg version="1.1" id="Layer_1" xmlns="http://www.w3.org/2000/svg" xmlns:xlink="http://www.w3.org/1999/xlink" x="0px" y="0px"
	 viewBox="0 0 112 112" style="enable-background:new 0 0 112 112;" xml:space="preserve">
<style type="text/css">
	.st0{fill:#FFFFFF;}
	.st1{fill:#C9343D;}
</style>
<path class="st0" d="M56,110C26.2,110,2,85.8,2,56S26.2,2,56,2s54,24.2,54,54S85.8,110,56,110z"/>
<path class="st0" d="M56,4c28.7,0,52,23.3,52,52s-23.3,52-52,52S4,84.7,4,56S27.3,4,56,4L56,4 M56,0C25.1,0,0,25.1,0,56
	s25.1,56,56,56s56-25.1,56-56S86.9,0,56,0z"/>
<g>
	<g>
		<path class="st1" d="M44.4,21.3c1.4,0,2.5,1.2,2.5,2.5c0,1.4-1.1,2.5-2.5,2.5c-1.4,0-2.5-1.1-2.5-2.5C41.9,22.4,43,21.3,44.4,21.3
			z M44.4,69.1c-1.3,0-2.3-1-2.3-2.3V32.2c0-1.3,1.1-2.3,2.3-2.3c1.3,0,2.3,1,2.3,2.3v34.6C46.8,68,45.7,69.1,44.4,69.1z"/>
		<path class="st1" d="M58.8,20.2v46.6c0,1.3-1,2.3-2.3,2.3c-1.3,0-2.3-1-2.3-2.3V20.2c0-1.3,1-2.3,2.3-2.3
			C57.8,17.9,58.8,18.9,58.8,20.2z"/>
		<path class="st1" d="M68.6,21.3c1.4,0,2.5,1.2,2.5,2.5c0,1.4-1.1,2.5-2.5,2.5c-1.4,0-2.5-1.1-2.5-2.5
			C66.1,22.4,67.3,21.3,68.6,21.3z M68.6,69.1c-1.3,0-2.3-1-2.3-2.3V32.2c0-1.3,1.1-2.3,2.3-2.3c1.3,0,2.3,1,2.3,2.3v34.6
			C71,68,69.9,69.1,68.6,69.1z"/>
		<g>
			<g>
				<path class="st1" d="M56.7,71.9c11.5,0,19.4,9.3,19.4,20.8c0,0.8-0.6,1.4-1.4,1.4c-0.8,0-1.4-0.6-1.4-1.4
					c0-9.8-6.7-17.9-16.5-17.9s-17.9,8-17.9,17.9c0,0.8-0.6,1.4-1.4,1.4c-0.8,0-1.4-0.6-1.4-1.4C35.9,81.2,45.3,71.9,56.7,71.9z"/>
			</g>
		</g>
	</g>
	<path class="st1" d="M56,10c25.4,0,46,20.6,46,46s-20.6,46-46,46S10,81.4,10,56S30.6,10,56,10 M56,4C27.3,4,4,27.3,4,56
		s23.3,52,52,52c28.7,0,52-23.3,52-52S84.7,4,56,4L56,4z"/>
</g>
</svg>
