<?xml version="1.0" encoding="utf-8"?>
<!-- Generator: Adobe Illustrator 25.2.1, SVG Export Plug-In . SVG Version: 6.00 Build 0)  -->
<svg version="1.1" id="Layer_1" xmlns="http://www.w3.org/2000/svg" xmlns:xlink="http://www.w3.org/1999/xlink" x="0px" y="0px"
	 viewBox="0 0 279.9 84.2" style="enable-background:new 0 0 279.9 84.2;" xml:space="preserve">
<style type="text/css">
	.st0{fill:#FFFFFF;}
</style>
<g>
	<path class="st0" d="M0,70.8c0-9.3,5.4-21.4,11.8-30.3C26.3,20.4,49.7,2,76,0.1C77.1,0,78.2,0,79.2,0c13.2,0,23.6,6.1,23.6,16.9
		c0,1.6-0.2,3.4-0.7,5.2c-2.3,8.4-13.8,16.9-21.8,18.3c-0.3-0.7-1.6-3.7-2.8-4.9c7.4-1.2,16.3-7.9,18.8-14c0.7-1.8,1.1-3.5,1.1-4.9
		c0-8.5-10.8-11.7-20.8-11c-21.1,1.3-45.6,16.9-60,38C12.8,48.7,5.3,61.9,5.3,70.8c0,3,0.9,5.6,3.1,7.2c1.1,0.8,2.3,1.1,3.6,1.1
		c8.6,0,21.4-14.2,26.9-21c11.6-14.4,21.7-31.5,29-45.1c0.7-1.4,2.3-1.7,3.6-1.1c1.4,0.7,1.8,2.3,1.1,3.6
		C64.8,30,54.3,47.6,42.2,62.6c-6.6,8-18.7,21.6-30,21.6c-1.9,0-3.7-0.4-5.6-1.2C1.9,80.8,0,76.3,0,70.8z M68,58.5
		c2.5-3.7,6.6-10.5,6.3-14.3c-0.2-2.9-1.6-5.7-5.6-7.9c-0.4-0.2-0.6-0.2-0.9,0.2c-0.2,0.3-0.1,0.6,0.3,0.9c2.1,1.4,3.7,2.9,4.7,5.2
		c-2.3-0.3-4.6-0.9-5.9-2c-1.1-1-1.5-2.2-1.5-3.3c0-2.1,1.5-3.9,3.8-4.1c4.9-0.5,11.4,5,10.1,13.5c-0.6,4.2-3.4,9.4-6.6,14.6
		c-3.1,5.1-4.1,5.8-5.6,9.6c-0.6,1.8-1.5,4.4,0,5.4c2.1,1.5,6.7,0.3,12.8-4.4l5.6-4.6c1.2-1,2.8-0.9,3.8,0.3c1,1.1,0.9,2.8-0.3,3.8
		c-2.1,1.9-4,3.5-5.9,4.8c-3,2.5-6.4,4.4-9.6,5.5c-1.5,0.5-3,0.7-4.3,0.7c-5.2,0-8.4-3.6-8.4-8.4c0-1.6,0.4-3.4,1.1-5.2
		C63.8,64.8,64.6,64,68,58.5z"/>
	<path class="st0" d="M83.1,69.2c3.6-2.8,7-6,10.7-9.6c-0.9,2.9-1.4,5.8-1.4,8.7c-2.1,1.8-3.9,3.6-5.8,5.1c-1.1,1-2.8,0.7-3.8-0.5
		C81.7,71.9,82,70.2,83.1,69.2z M93.9,67c0-14.7,14.7-32,28.1-37.4c2.3-0.9,4.5-1.4,6.5-1.4c5.7,0,9.9,3.7,9.9,9.8
		c0,1.1-0.2,2.3-0.5,3.6C134.8,54.4,118.4,63,106.7,63c-2.1,0-4-0.3-5.6-0.8c0.6-1.8,1.3-3.5,2.3-5.2c1.1,0.3,2.2,0.4,3.5,0.4
		c6.6,0,14.9-3.6,20.2-8.3c2.6-2.3,5.9-7,5.9-10.8c0-1.2-0.3-2.2-1-3.1c-0.5-0.7-1.7-1.1-3.4-1.1c-1.8,0-4.3,0.5-6.9,1.7
		c-8.3,4-18.2,15.2-21.1,23.9c-0.7,2.1-1.1,4.3-1.1,6.3c0,6.3,3.6,11.6,11.3,11.2c5-0.3,10.7-2.5,15.4-6.1c1.7-1.4,3.4-2.7,5.2-4.3
		c1.1-1,2.8-0.9,3.8,0.3c1,1.1,0.9,2.8-0.3,3.8c-1.8,1.7-3.6,3.1-5.5,4.5c-5.5,4.3-12.2,7-18.4,7.3c-6.2,0.3-12.8-1.8-15.5-8
		C94.4,72.2,93.9,69.6,93.9,67z"/>
	<path class="st0" d="M128.6,69.2c2.5-1.9,4.7-4.1,7.2-6.4c-0.1,2.1,0,4.4,0.6,6.8c-1.5,1.4-2.9,2.6-4.4,3.7c-1.2,1-2.8,0.7-3.8-0.4
		C127.3,71.8,127.5,70.2,128.6,69.2z M138.1,70.5c-1.1-3.3-1.2-6-0.9-8.7c0,0,0.8-7.6,2.6-10.4c0.7-1.1,1.5-1.5,2.5-1.5
		c1.3,0,2.5,0.9,2.9,2c-1.6,3.6-2.8,7.6-2.8,11.4c0,2,0.3,3.9,1,5.8c2.3,5.5,7.5,8.7,12.7,7.3c2.6,1.5,4.9,2,8.2,2
		c-2.7,2.1-6.2,3.6-10.5,3.6c-1,0-2.1-0.1-3.2-0.3C144.5,81,139.8,75.8,138.1,70.5z M162.2,36.1c0.5,2.2,0.7,4.4,1.4,6.6l-12.1,12.6
		l-6.1,6.1l-1.7,1.6c0.3-3.7,1.4-7.6,2.8-10.4C152.2,46.6,157.1,41.3,162.2,36.1z M146,62.5l4-4c3.5,6.7,5.9,10.3,9.5,12.4
		c1.5,0.6,2.8,1,4.2,1c4.1,0,7.8-2.6,10.9-5.2c1.2-1,2.7-0.7,3.8,0.4c0.7,0.7,0.7,2.7-0.5,3.9c-4.6,4.6-10.6,6.7-15.8,6.1
		c-4.7-0.5-9-3.4-12.6-8.4C148.1,66.6,147,64.6,146,62.5z M166.6,57.4c0-4.2-0.5-8.5-1.3-12.1c-0.5-2.8-1.1-5.5-1.7-8
		c-0.2-1-0.3-2-0.3-2.9c0-4,1.8-7.4,4.7-8.5c3.1-1.2,8.4,0.1,6.5,4.7c-0.6,1.4-2.5,3.1-4.2,4.8l-0.5,0.5c-0.1-0.3-0.1-0.6-0.1-1.1
		c0-1.4,0.3-2.6,1.6-4.1c0.3-0.3,0.5-0.8,0.2-1.2c-0.4-0.4-0.8-0.1-1.1,0.2c-1.5,1.7-2,3.4-2,4.9c0.1,1.1,0.4,2.4,0.6,3.5
		c1.4,4.7,2.9,12.1,2.9,19.4c0,1.7-0.1,3.5-0.3,5.2c-0.3,1.8-0.5,3.5-1.1,5.2c-1.9,1.5-4.7,2.6-6.7,2.6c1.4-2.3,2-5.1,2.4-8.4
		C166.5,60.7,166.6,59,166.6,57.4z"/>
	<path class="st0" d="M171.6,69.2c3.6-2.8,7-6,10.7-9.6c-0.9,2.9-1.4,5.8-1.4,8.7c-2.1,1.8-3.9,3.6-5.8,5.1c-1.1,1-2.8,0.7-3.8-0.5
		C170.2,71.9,170.5,70.2,171.6,69.2z M182.4,67c0-14.7,14.7-32,28.1-37.4c2.3-0.9,4.5-1.4,6.5-1.4c5.7,0,9.9,3.7,9.9,9.8
		c0,1.1-0.2,2.3-0.5,3.6C223.3,54.4,206.9,63,195.2,63c-2.1,0-4-0.3-5.6-0.8c0.6-1.8,1.3-3.5,2.3-5.2c1.1,0.3,2.2,0.4,3.5,0.4
		c6.6,0,14.9-3.6,20.2-8.3c2.6-2.3,5.9-7,5.9-10.8c0-1.2-0.3-2.2-1-3.1c-0.5-0.7-1.7-1.1-3.4-1.1c-1.8,0-4.3,0.5-6.9,1.7
		c-8.3,4-18.2,15.2-21.1,23.9c-0.7,2.1-1.1,4.3-1.1,6.3c0,6.3,3.6,11.6,11.3,11.2c5-0.3,10.7-2.5,15.4-6.1c1.7-1.4,3.4-2.7,5.2-4.3
		c1.1-1,2.8-0.9,3.8,0.3c1,1.1,0.9,2.8-0.3,3.8c-1.8,1.7-3.6,3.1-5.5,4.5c-5.5,4.3-12.2,7-18.4,7.3c-6.2,0.3-12.8-1.8-15.5-8
		C182.9,72.2,182.4,69.6,182.4,67z"/>
	<path class="st0" d="M217.1,69.2c4.5-3.6,10.4-9.2,15-13.8c-1.9,3.6-4.6,8.4-5.6,13c-1.9,1.7-3.8,3.4-5.9,5.1
		c-1.1,1-2.8,0.7-3.8-0.5C215.7,71.9,216,70.2,217.1,69.2z M227.6,71.5c0-1.5,0.2-3,0.5-4.5c5.4-17.2,35-52.9,46.8-60.9
		c2.5-1.6,6,1,4.6,3.6c-2.2,3.9-9,11.8-12.6,16.3h-3.6l10.1-10.9c0.3-0.3,0.3-0.7,0-1c-0.3-0.3-0.7-0.1-1,0.2
		c-5.8,6.6-21.6,22.6-33.2,41.4c-2.9,4.7-5.9,11.3-5.9,15.9c0,2.2,0.7,4,2.6,4.8c2.6,1,6.1-0.7,13.5-6.5c1.4-1,2.6-2,3.9-3.2
		c1.1-1,2.8-0.9,3.8,0.3c1,1.1,0.9,2.8-0.3,3.8c-1.4,1.4-2.7,2.4-4.1,3.5c-3.4,2.6-6.5,4.8-9.4,6.2c-2,1-4,1.6-6.1,1.6
		c-1,0-2-0.2-3.1-0.5C229.3,80.2,227.6,75.9,227.6,71.5z M240.8,27.3h11.7c-1.5,1.7-3,3.6-4.7,5.5h-6.9c-1.5,0-2.7-1.2-2.7-2.7
		C238.1,28.6,239.3,27.3,240.8,27.3z M260.2,34.1c-5,5.6-14.3,16.8-19.5,22c3.2-5.5,11.3-16.5,15.9-22H260.2z M276.6,27.4
		c1.5,0,2.7,1.2,2.7,2.6c0,1.5-1.2,2.7-2.7,2.7h-18.9c1.5-1.9,3.2-3.6,4.6-5.4H276.6z"/>
</g>
</svg>
