<?xml version="1.0" encoding="utf-8"?>
<!-- Generator: Adobe Illustrator 25.2.1, SVG Export Plug-In . SVG Version: 6.00 Build 0)  -->
<svg version="1.1" id="Layer_1" xmlns="http://www.w3.org/2000/svg" xmlns:xlink="http://www.w3.org/1999/xlink" x="0px" y="0px"
	 viewBox="0 0 768.5 98.8" style="enable-background:new 0 0 768.5 98.8;" xml:space="preserve">
<style type="text/css">
	.st0{fill:#7D1E06;}
	.st1{fill:#FFFFFF;}
</style>
<g>
	<g>
		<path class="st0" d="M61.8,83.3c-3.1-2.1-4.9-5.6-4.9-10c0-2.1,0.4-4.3,1.3-6.4l0.1-0.2l0.9-2c-1.8,2.6-3.7,4.9-5.6,7.3
			c-6.5,8-18.8,21.6-31,21.6c-2.4,0-4.6-0.4-6.8-1.4h-0.1c-1.7-0.8-3.1-1.7-4.3-2.9l-4.9-4.9C1.9,81.3,0,76.3,0,70.3
			c0-9.5,5.5-21.9,11.9-30.9C19,30,29,20.5,40.2,13.2l1.6-1c3.1-1.9,6.2-3.7,9.4-5.3C53,6,54.8,5.3,56.6,4.6
			c6-2.3,12.1-3.9,18.3-4.5C75.8,0,77.2,0,78.2,0C88.3,0,97,3.5,101.4,9.8l4.5,4.5c3.2,3.2,5.1,7.4,5.1,12.5c0,2-0.3,4-0.9,6H110
			c-2.1,7.5-12,15.2-21,18.8c0.1,1.1,0,2.3-0.2,3.6c-0.3,2.2-1.1,4.5-2.1,6.8c1.5,0.3,3,1,4.1,2.3c0.3,0.4,0.6,0.9,0.9,1.3l0.1,0.1
			l5.7,5.6c1.1,1.3,1.6,2.8,1.6,4.3c0,1.8-0.7,3.6-2.2,4.9H97c-1.8,1.7-3.7,3.1-5.9,4.7c-3.2,2.6-6.8,4.6-10.1,5.8
			c-1.8,0.5-3.6,0.9-5.2,0.9c-3.6,0-6.5-1.2-8.6-3.2L61.8,83.3z M55,29.9c-9.7,6-18.7,14.4-25.3,24c-2.6,3.7-7.1,11.3-8.9,17.9
			c5.9-3.7,12.8-11.7,16.4-16.1C43.5,48.1,49.7,38.8,55,29.9z M80.8,30.2c4.4-2.3,8-5.1,9.3-7.5c0.3-0.7,0.5-1.4,0.6-2
			c-2.4-0.5-5.2-0.7-7.9-0.5c-0.3,0-0.7,0.1-1,0.1c0.9,1.1,1.4,2.6,1.4,4c0,1-0.3,2.1-0.9,3.1L80.8,30.2z"/>
		<path class="st0" d="M80.3,76.9c-0.8-0.4-1.4-0.9-2-1.6c-1.2-1.3-1.7-2.9-1.7-4.4c0-2,0.9-3.9,2.4-5.3c3.1-2.4,6.7-5.9,11-10
			c4.8-12,16-23.5,26.5-27.8c2.6-1,5.2-1.5,7.7-1.5c4.8,0,8.9,2,11.3,5.5l5.2,5.2c2.3,2.3,3.6,5.5,3.6,9.5c0,1.4-0.2,2.8-0.5,4.3
			c-1.4,5.5-4.9,10.3-9.5,14.1c0.2,0.2,0.3,0.3,0.3,0.5l5.6,5.5c1.1,1.2,1.6,2.7,1.6,4.3c0,1.9-0.8,3.7-2.3,5.1
			c-2,2-3.7,3.1-5.3,4.3c-5.8,4.4-12.8,7.3-19.4,7.6c-5.4,0.3-11.1-1.1-15-5L95,82.3c0,0-0.1-0.1-0.2-0.1l-0.3,0.3l0.1,0.1
			c-1.2,1.1-2.7,1.6-4.2,1.6c-1.7,0-3.4-0.7-4.8-2L80.3,76.9z"/>
		<path class="st0" d="M120.8,75.1c-1.1-1.4-1.7-2.8-1.7-4.3c0-1.9,0.9-3.8,2.6-5.2c1.4-1.1,2.6-2.3,4-3.6l1.5-1.4l1.2-0.9
			c0.3-2.6,1.2-7.1,2.9-9.8c1.6-2.5,3.5-3.3,5.9-3.3c1.1,0,2.2,0.4,3.2,1.1l5.4-5.7l6.7-6.9c0.3-4.9,3.1-9.2,7.1-10.8
			c1.1-0.4,2.4-0.6,3.7-0.6c3.1,0,6.5,1.3,7.8,3.9l5.6,5.5c1,1,1.7,2.4,1.7,4.2c0,1.1-0.3,2.4-0.9,3.8c-0.8,1.7-2.6,3.5-4.3,5.2
			l-0.3,0.4c1.3,4.8,2.6,11.6,2.6,17.9V66l4.7,4.7c0.9,0.9,1.4,2.6,1.4,4.3c0,1.8-0.5,3.6-1.9,4.9c-3.9,3.8-8.5,6-13.1,6.7
			c-4.8,3.1-9.1,4.9-12.2,4.9c-1,0-2.3-0.1-3.7-0.3c-3.8-0.6-7.1-2.6-9.8-5.2l-3.9-3.9l-0.3,0.3c-1.3,1-2.7,1.4-4.2,1.4
			c-1.8,0-3.6-0.7-4.8-2l-5.4-5.4C121.9,76.2,121.3,75.7,120.8,75.1L120.8,75.1z"/>
		<path class="st0" d="M162.9,76.9c-0.8-0.4-1.4-0.9-2-1.6c-1.2-1.3-1.7-2.9-1.7-4.4c0-2,0.9-3.9,2.4-5.3c3.1-2.4,6.7-5.9,11-10
			c4.8-12,16-23.5,26.5-27.8c2.6-1,5.2-1.5,7.7-1.5c4.8,0,8.9,2,11.3,5.5l5.2,5.2c2.3,2.3,3.6,5.5,3.6,9.5c0,1.4-0.2,2.8-0.5,4.3
			c-1.4,5.5-4.9,10.3-9.5,14.1c0.2,0.2,0.3,0.3,0.3,0.5l5.6,5.5c1.1,1.2,1.6,2.7,1.6,4.3c0,1.9-0.8,3.7-2.3,5.1
			c-2,2-3.7,3.1-5.3,4.3c-5.8,4.4-12.8,7.3-19.4,7.6c-5.4,0.3-11.1-1.1-15-5l-4.8-4.8c0,0-0.1-0.1-0.2-0.1l-0.3,0.3l0.1,0.1
			c-1.2,1.1-2.7,1.6-4.2,1.6c-1.7,0-3.4-0.7-4.8-2L162.9,76.9z"/>
		<path class="st0" d="M229,25.5h10.5c7.3-8.5,14.5-15.7,19-19c1.1-0.8,2.6-1.2,3.7-1.2c2.6,0,5.1,1.5,6.5,3.7l5.5,5.5
			c1.2,1.2,2,2.8,2,4.6c0,0.9-0.3,2-0.8,3c-1.2,2.1-3.5,5.2-5.9,8.2l4.3,4.3c1.2,1.2,1.9,2.7,1.9,4.5c0,3.7-2.8,6.5-6.5,6.5h-12.5
			l-14,16c1.9,0.1,3.6,0.9,4.8,2.3c0.3,0.4,0.7,0.9,0.9,1.3l5.7,5.7c1.1,1.2,1.6,2.7,1.6,4.3c0,1.9-0.8,3.7-2.3,5.1
			c-1.3,1.2-2.4,2.2-3.3,2.9l-0.9,0.6c-3.4,2.6-6.6,4.8-9.3,6.1l-0.1-0.1c-2.3,1.2-4.8,2-7.3,2c-1.4,0-2.8-0.3-4.2-0.7l-0.1-0.1
			c-2.1-0.7-3.8-1.7-5.1-3l-4.7-4.7c-0.9,0.6-2,0.9-3.1,0.9c-1.7,0-3.5-0.7-4.8-2l-5.4-5.4c-0.8-0.4-1.4-0.9-2-1.6
			c-1.2-1.3-1.7-2.8-1.7-4.3c0-2,0.9-3.9,2.4-5.3c4.2-3.4,10.3-9.2,15.8-13.9c2.2-3.7,4.8-7.5,7.7-11.4l-2-2.1
			c-2.1-1.1-3.5-3.3-3.5-6C222.2,28.7,225.4,25.5,229,25.5z"/>
		<path class="st0" d="M285.3,89.5c-4.3-3.1-5.9-7.7-5.9-12.8c0-7.5,3.7-15.9,6-20.4c15-27.6,49.2-55.4,78.5-54.6
			c9.8,0.7,16.5,4.4,20.2,9.5l4.7,4.7c3.6,3.6,5.3,8.1,5.3,13c0,10-7.2,22.1-17.7,29c-8.2,5.3-20.2,9.7-31.5,9.7
			c-1.8,0-3.7-0.1-5.4-0.3c-2.3,2.6-3.7,4.2-5,5.9c-8.4,10.2-21,25.7-33.6,25.7c-2,0-4-0.5-6-1.3h-0.1c-1.8-0.8-3.2-1.8-4.4-2.9
			L285.3,89.5z M300.9,75.5c6.6-5.1,14.5-14.7,18.5-19.8c-1.1-1.3-1.8-2.9-1.8-4.5c0-0.4,0.1-0.9,0.2-1.4
			c-5.5,6.1-10.3,12.8-13.9,19.5h-0.1C302.8,71.1,301.7,73.2,300.9,75.5z M322.6,44.7c0.6-0.3,1.2-0.3,1.9-0.3c1,0,1.9,0.2,2.8,0.6
			l0.6,0.3l0.1-0.1c3.3-4.3,6.5-8.5,9.6-12.8C332.4,35.9,327.3,40.1,322.6,44.7z M364.5,31.1c0,1.2-0.3,2.5-1,3.7
			c-2,3-3.8,5.7-5.8,8.4c1.9-0.9,3.7-2,5.3-3.1c6-4.4,11.3-12.1,11.3-17.9V22c-1-0.3-2.1-0.4-3.3-0.6c-1-0.1-1.8-0.1-2.6-0.1
			c-3.2,0-6.5,0.4-9.8,1.3l4.3,4.2C364,28,364.5,29.5,364.5,31.1z"/>
		<path class="st0" d="M431.1,62.9l1.2,1c0.3,0.4,0.7,0.9,0.9,1.3l5.7,5.7c1.1,1.2,1.6,2.7,1.6,4.3c0,1.9-0.8,3.8-2.2,5.1
			c-5.9,4.9-14,11.6-21.2,11.6c-1.7,0-3.1-0.4-4.5-1l-0.2-0.1c-1.4-0.7-2.6-1.5-3.6-2.5l-2.8-2.8l-0.5,0.4c-4.3,3.1-9.3,5.6-14,5.6
			c-1.2,0-2.5-0.1-3.7-0.5h-0.1c-2-0.7-3.6-1.7-4.8-2.9l-4.8-4.8c-1,0.7-2.1,1-3.2,1c-1.6,0-3.2-0.8-4.5-2l-0.5-0.5L370,82l-5-5
			c-0.7-0.4-1.3-0.9-1.9-1.6H363c-1.2-1.3-1.7-2.9-1.7-4.4c0-2,0.8-3.9,2.5-5.3c4.4-3.7,10.5-9.5,16.1-14.1
			c4.3-6.4,8.8-11.5,15.4-16.5c6.2-4.5,13.4-8.3,20.1-8.3c1.7,0,3.4,0.3,5,0.7c2.8,0.9,4.7,2.4,6,4.3l0.5,0.5
			c0.4-0.1,0.9-0.2,1.3-0.2c2.9,0,6,1.7,7.4,4.2l5.4,5.4c1.1,1.1,1.9,2.6,1.9,4.3c0,1.4-0.5,2.8-1.7,4.3
			C440.4,51.1,436.4,56.6,431.1,62.9z"/>
		<path class="st0" d="M417.7,70.8c0-1.8,0.9-3.8,2.6-5.2l2.7-2.4l1.3-1.1l1.4-1.2v-0.2c0-3.5,1-6.4,3.6-8.9c1.4-1.1,2.6-1.8,3.8-2
			c0.8-0.1,2.1-0.2,3.8,0.1l2.7-2.9l1.9-2c1.4-1.4,2.6-2.6,3.7-3.9l3.1-3.1l1.4-1.4l1.4-1.4c0.8-6.1,5.2-11,11.1-11.7
			c2.8,0,6.1,1.6,7.7,4.3l5.5,5.4c1.2,1.2,2,2.7,2,4.5c0,1.2-0.3,2.5-1.1,3.8c-0.8,1.3-2.7,3.3-4.6,5.2l-0.1,0.1l0.3,0.9V48
			c7.7-3.9,14.5-8.8,19.4-12.9c0.4-5,3.1-9.2,7.1-10.8c1.1-0.4,2.4-0.6,3.7-0.6c3.1,0,6.5,1.3,7.8,3.9l5.6,5.5c1,1,1.7,2.4,1.7,4.2
			c0,1.1-0.3,2.4-0.9,3.8c-0.8,1.7-2.6,3.5-4.3,5.2l-0.3,0.4c1.3,4.8,2.6,11.6,2.6,17.9V66l4.7,4.7c0.9,0.9,1.5,2.6,1.5,4.4
			c0,1.9-0.6,3.8-2.1,5.1c-4.3,3.8-8.6,5.9-12.8,6.5c-4.9,3-9.2,4.9-12.3,4.9c-1,0-2.3-0.1-3.7-0.3c-3.9-0.6-7.2-2.5-9.9-5.1
			l-6.4-6.3l-0.4-0.5c-0.3-0.3-0.6-0.6-0.9-0.9c-0.9,2.6-2.4,5.1-4.3,7.3c-3.3,3.6-7.8,5.8-13.4,5.8c-1.6,0-3.5-0.2-5.3-0.6h0
			c-3.4-0.9-6.2-2.6-8.6-5l-4.2-4.2l-0.8,0.7c-1.3,1-2.7,1.5-4.3,1.5c-1.6,0-3.2-0.6-4.5-1.9l-5.5-5.5c-0.7-0.3-1.3-0.9-1.9-1.6
			C418.2,73.7,417.7,72.3,417.7,70.8z"/>
		<path class="st0" d="M497.9,70.8c0-2,0.8-3.7,2.4-5.2c3.6-2.8,8.2-7.1,12.5-10.3c6.5-11.6,16.6-22.5,24.6-28.7
			c0.5-0.3,2.4-1.1,3.8-1c3,0.2,6,2.6,11.7,10.2l0.6,0.8c3.1-3.5,6.5-6.7,9.9-9.6c1.1-0.9,2.4-1.2,3.6-1.2c2.9,0,6,1.9,12.2,9.1
			c1.1-1.1,2.1-2.2,3.2-3.2c2.7-2.6,5.7-4.8,7.8-5.8c0.9-0.3,1.7-0.4,2.6-0.4c1.8,0,3.4,0.6,4.7,1.7c2.3,2.3,4.8,4.7,6.9,7.2
			c1.4,1.4,2.1,3.3,2.1,5.1c0,1.2-0.3,2.4-1,3.5h-0.1c-2.1,3.2-8.2,11.4-16.1,20.3l1,1l0.5,0.8l5.7,5.7l0.4,0.5c0.8,1,1,2.3,1,3.7
			c0,2-0.7,4-1.9,5.3h-0.1c-3.1,3.5-8.3,5.9-13,5.9c-1.7,0-3.3-0.3-4.8-0.9l0.1,0.1c-1.8-0.8-3.4-1.8-4.8-3.1l-0.9-0.9
			c-2.7,2.4-5.4,4.4-7.7,6c-4,2.5-8.4,4.7-12.8,4.7c-2.2,0-4.3-0.5-6.5-1.8c-0.8-0.4-1.4-0.9-2-1.5l-3.5-3.5
			c-4.4,3.4-9.8,6.6-15.1,6.6c-2,0-4.1-0.4-6.1-1.6v0.1c-0.9-0.5-1.6-1-2.3-1.7l-4.3-4.3c-2,0.2-4-0.5-5.4-2l-5.3-5.3
			c-0.8-0.4-1.5-1-2.1-1.8C498.3,73.7,497.9,72.3,497.9,70.8z"/>
		<path class="st0" d="M685.6,44.3c0.7,1,1.1,2.3,1.1,3.6c0,2.5-0.9,4.2-2.9,5.4h-0.1c-2.3,1.6-6,4.8-9.5,8.6c2,0.3,4,1.7,5,3.6
			l5.4,5.4c1.1,1.1,1.9,2.6,1.9,4.4c0,1.9-0.7,3.4-2.1,4.8c-6,5.2-14.3,11.6-21.4,11.6c-3.7,0-6.2-1.2-8.1-3.1l-5.2-5.2
			c-4-2.5-5.5-7.2-5.5-11.3c0-0.9,0-1.8,0.2-2.7c-2.7,1.4-5.5,2.5-8.3,3.2c-9.4,11.1-20.2,19.8-28.6,19.8c-2.7,0-5.4-0.6-7.8-1.9
			l-0.1-0.1c-1.3-0.6-2.4-1.4-3.3-2.4l-4.6-4.6c-0.9,0.4-1.8,0.7-2.6,0.7c-1.8,0-3.4-0.6-4.5-1.8l-5.5-5.5c-0.8-0.4-1.4-0.9-2-1.7
			c-1.1-1.3-1.6-2.8-1.6-4.3c0-3.1,4.2-6.9,7.8-10c1.5-1.4,4.2-3.7,5.2-4.8c3.6-5.4,8.1-11.5,13.4-15.2l1-0.5
			c3.7-9.1,12-16.9,21.3-16.9c5.8,0,10.3,2.4,13,6.3l5,5c1.4,1.4,2.6,3.2,3.3,5.3c3.1-2.8,6.1-5.9,9.1-8.8c0.9-7.1,8.2-10.1,11-10.1
			s4.9,1.4,6.1,3.5l5.4,5.4c1.2,1.2,2,2.9,2,4.7c0,0.4-0.1,0.9-0.2,1.3L685.6,44.3z"/>
		<path class="st0" d="M733.5,63.4L734,64l0.9,1.4l5.7,5.6c1.1,1.3,1.7,2.8,1.7,4.3c0,1.9-0.9,3.7-2.4,5c-4.2,3.5-8.3,6.6-12.1,8.8
			c-2.7,1.4-5.9,2.8-9,2.8c-1.9,0-3.7-0.4-5.3-1.4c-0.6-0.3-1.1-0.8-1.6-1.3l-3.5-3.5L708,86c-4.4,2.8-9.1,5.5-13.9,5.5
			c-1.4,0-2.6-0.3-3.7-0.6l-0.1-0.1c-2-0.7-3.5-1.6-4.7-2.8l-4.9-4.9c-1,0.6-2.2,0.9-3.3,0.9c-1.6,0-3.3-0.6-4.5-1.8l-5.4-5.4
			c-0.7-0.4-1.3-0.9-1.9-1.5c-1.2-1.3-1.7-2.9-1.7-4.4c0-1.9,0.9-3.9,2.5-5.3c3.8-3.2,7.7-6.5,16.5-14.9c4-5.4,9.9-11.9,15.1-15.8
			c6.1-4.5,13.4-8.2,20.1-8.2c1.7,0,3.4,0.3,5,0.7c2.3,0.7,4.2,2.1,5.5,4c7.4-8.9,14.6-17,19.6-21.3c2.3-2,4.8-3.2,7.1-3.2
			c2,0,4,0.9,5.8,3.2l5.5,5.5c1.2,1.3,1.9,2.9,1.9,4.7c0,1.3-0.3,2.6-1.2,3.8C761.1,33,745.2,51.7,733.5,63.4z"/>
	</g>
	<g>
		<path class="st1" d="M4.3,70.3c0-8.7,5-20,11.1-28.3C28.8,23.3,50.7,6.1,75.2,4.3c1-0.1,2-0.1,3-0.1c12.3,0,22,5.7,22,15.7
			c0,1.5-0.2,3.1-0.7,4.8c-2.1,7.8-12.8,15.7-20.3,17.1c-0.3-0.7-1.5-3.5-2.6-4.6c6.9-1.1,15.2-7.4,17.5-13.1c0.7-1.7,1-3.2,1-4.6
			c0-7.9-10-10.9-19.4-10.3C56,10.4,33.2,25,19.7,44.7C16.2,49.7,9.2,62,9.2,70.3c0,2.8,0.9,5.2,2.9,6.7c1,0.8,2.1,1,3.4,1
			c8,0,20-13.3,25.1-19.6C51.4,45,60.8,29,67.6,16.3c0.7-1.3,2.1-1.6,3.4-1c1.3,0.7,1.7,2.1,1,3.4c-7.3,13.5-17.1,30-28.4,44
			c-6.1,7.5-17.4,20.2-28,20.2c-1.8,0-3.5-0.3-5.2-1.1C6,79.7,4.3,75.5,4.3,70.3z M67.7,58.8c2.3-3.5,6.1-9.8,5.9-13.4
			c-0.2-2.7-1.5-5.4-5.3-7.4c-0.3-0.2-0.6-0.2-0.9,0.2c-0.2,0.3-0.1,0.6,0.3,0.9c2,1.3,3.5,2.7,4.4,4.8C70,43.6,67.8,43,66.6,42
			c-1-0.9-1.4-2-1.4-3.1c0-2,1.4-3.7,3.6-3.8c4.6-0.4,10.6,4.7,9.4,12.6c-0.6,3.9-3.1,8.8-6.1,13.6c-2.9,4.8-3.8,5.4-5.2,8.9
			c-0.6,1.7-1.4,4.1,0,5c2,1.4,6.2,0.3,12-4.1l5.3-4.3c1.1-0.9,2.6-0.9,3.6,0.3c0.9,1,0.9,2.6-0.3,3.6c-2,1.8-3.7,3.2-5.5,4.5
			c-2.8,2.3-6,4.1-8.9,5.1c-1.4,0.4-2.8,0.7-4,0.7c-4.8,0-7.8-3.3-7.8-7.8c0-1.5,0.3-3.1,1-4.8C63.8,64.7,64.5,64,67.7,58.8z"/>
		<path class="st1" d="M81.8,68.8c3.3-2.6,6.5-5.6,10-8.9c-0.9,2.7-1.3,5.4-1.3,8.2c-2,1.7-3.7,3.3-5.4,4.8c-1,0.9-2.6,0.7-3.6-0.4
			S80.8,69.7,81.8,68.8z M91.9,66.8c0-13.7,13.7-29.9,26.2-35c2.1-0.9,4.2-1.3,6-1.3c5.4,0,9.3,3.5,9.3,9.2c0,1-0.2,2.1-0.4,3.3
			c-2.9,12-18.2,20.1-29.2,20.1c-2,0-3.7-0.3-5.3-0.8c0.6-1.7,1.2-3.2,2.1-4.8c1,0.3,2,0.3,3.2,0.3c6.1,0,13.9-3.4,18.9-7.7
			c2.5-2.1,5.5-6.5,5.5-10.1c0-1.1-0.3-2-0.9-2.9c-0.5-0.7-1.6-1-3.1-1c-1.7,0-4,0.5-6.5,1.6C110,41.4,100.7,51.9,98,60
			c-0.7,2-1,4-1,5.9c0,5.9,3.3,10.8,10.5,10.5c4.7-0.3,9.9-2.3,14.4-5.7c1.6-1.3,3.1-2.6,4.8-4c1-0.9,2.6-0.9,3.6,0.3
			c0.9,1,0.9,2.6-0.3,3.6c-1.7,1.6-3.4,2.9-5.1,4.2c-5.1,4-11.4,6.5-17.2,6.8s-12-1.7-14.5-7.5C92.4,71.7,91.9,69.2,91.9,66.8z"/>
		<path class="st1" d="M124.3,68.8c2.3-1.8,4.4-3.8,6.7-6c-0.1,2,0,4.1,0.6,6.4c-1.4,1.3-2.7,2.4-4.1,3.5c-1.1,0.9-2.6,0.7-3.6-0.3
			C123.1,71.3,123.2,69.7,124.3,68.8z M133.2,70.1c-1-3.1-1.1-5.6-0.9-8.1c0,0,0.8-7.1,2.5-9.7c0.7-1,1.4-1.4,2.3-1.4
			c1.2,0,2.3,0.9,2.7,1.9c-1.5,3.4-2.6,7.1-2.6,10.6c0,1.9,0.3,3.7,0.9,5.4c2.1,5.1,7,8.2,11.8,6.8c2.4,1.4,4.6,1.9,7.7,1.9
			c-2.6,2-5.8,3.4-9.8,3.4c-0.9,0-2-0.1-3-0.3C139.1,79.9,134.7,75,133.2,70.1z M155.6,37.9c0.4,2,0.7,4.1,1.3,6.1l-11.3,11.7
			l-5.7,5.7l-1.6,1.5c0.3-3.5,1.3-7.1,2.6-9.7C146.4,47.8,150.9,42.8,155.6,37.9z M140.5,62.6l3.7-3.7c3.2,6.3,5.5,9.6,8.8,11.6
			c1.4,0.6,2.6,0.9,3.9,0.9c3.8,0,7.3-2.5,10.2-4.8c1.1-0.9,2.6-0.7,3.6,0.3c0.7,0.7,0.7,2.6-0.4,3.7c-4.3,4.3-9.9,6.2-14.7,5.7
			c-4.4-0.5-8.4-3.1-11.7-7.8C142.5,66.4,141.4,64.5,140.5,62.6z M159.8,57.8c0-3.9-0.5-7.9-1.2-11.3c-0.4-2.6-1-5.1-1.6-7.5
			c-0.2-0.9-0.3-1.9-0.3-2.7c0-3.7,1.7-6.9,4.4-7.9c2.9-1.1,7.8,0.1,6,4.4c-0.6,1.3-2.3,2.9-3.9,4.5l-0.4,0.5
			c-0.1-0.3-0.1-0.6-0.1-1c0-1.3,0.3-2.4,1.5-3.8c0.3-0.3,0.5-0.8,0.2-1.1c-0.3-0.3-0.8-0.1-1,0.2c-1.4,1.6-1.9,3.1-1.9,4.6
			c0.1,1,0.3,2.2,0.6,3.2c1.3,4.4,2.7,11.3,2.7,18.1c0,1.6-0.1,3.2-0.3,4.8c-0.3,1.7-0.4,3.2-1,4.8c-1.8,1.4-4.4,2.5-6.3,2.5
			c1.3-2.1,1.9-4.8,2.2-7.8C159.7,60.9,159.8,59.4,159.8,57.8z"/>
		<path class="st1" d="M164.4,68.8c3.3-2.6,6.5-5.6,10-8.9c-0.9,2.7-1.3,5.4-1.3,8.2c-2,1.7-3.7,3.3-5.4,4.8c-1,0.9-2.6,0.7-3.6-0.4
			C163.1,71.4,163.4,69.7,164.4,68.8z M174.5,66.8c0-13.7,13.7-29.9,26.2-35c2.1-0.9,4.2-1.3,6-1.3c5.4,0,9.3,3.5,9.3,9.2
			c0,1-0.2,2.1-0.4,3.3c-2.9,12-18.2,20.1-29.2,20.1c-2,0-3.7-0.3-5.3-0.8c0.6-1.7,1.2-3.2,2.1-4.8c1,0.3,2,0.3,3.2,0.3
			c6.1,0,13.9-3.4,18.9-7.7c2.5-2.1,5.5-6.5,5.5-10.1c0-1.1-0.3-2-0.9-2.9c-0.5-0.7-1.6-1-3.1-1c-1.7,0-4,0.5-6.5,1.6
			c-7.7,3.7-17,14.2-19.7,22.3c-0.7,2-1,4-1,5.9c0,5.9,3.3,10.8,10.5,10.5c4.7-0.3,9.9-2.3,14.4-5.7c1.6-1.3,3.1-2.6,4.8-4
			c1-0.9,2.6-0.9,3.6,0.3c0.9,1,0.9,2.6-0.3,3.6c-1.7,1.6-3.4,2.9-5.1,4.2c-5.1,4-11.4,6.5-17.2,6.8s-12-1.7-14.5-7.5
			C174.9,71.7,174.5,69.2,174.5,66.8z"/>
		<path class="st1" d="M206.9,68.8c4.2-3.4,9.7-8.6,14-12.9c-1.8,3.3-4.3,7.8-5.3,12.2c-1.8,1.6-3.6,3.1-5.5,4.8
			c-1,0.9-2.6,0.7-3.6-0.4C205.6,71.4,205.9,69.7,206.9,68.8z M216.7,71c0-1.4,0.2-2.8,0.5-4.2c5-16.1,32.7-49.4,43.7-56.8
			c2.3-1.5,5.6,0.9,4.3,3.4c-2,3.7-8.4,11.1-11.7,15.2h-3.3l9.4-10.2c0.3-0.3,0.3-0.7,0-0.9c-0.3-0.3-0.7-0.1-0.9,0.2
			c-5.4,6.1-20.2,21.1-31,38.6c-2.7,4.4-5.5,10.5-5.5,14.8c0,2,0.7,3.7,2.4,4.5c2.5,0.9,5.7-0.7,12.6-6c1.3-0.9,2.4-1.9,3.7-3
			c1-0.9,2.6-0.9,3.6,0.3c0.9,1,0.9,2.6-0.3,3.6c-1.3,1.3-2.6,2.2-3.8,3.2c-3.1,2.4-6,4.5-8.8,5.8c-1.9,0.9-3.7,1.5-5.7,1.5
			c-0.9,0-1.9-0.2-2.9-0.5C218.3,79.1,216.7,75.1,216.7,71z M229,29.8h10.9c-1.4,1.6-2.8,3.4-4.4,5.1H229c-1.4,0-2.6-1.1-2.6-2.6
			C226.5,31,227.7,29.8,229,29.8z M247.1,36.1c-4.7,5.2-13.4,15.6-18.2,20.5c3-5.1,10.5-15.4,14.9-20.5H247.1z M262.4,29.8
			c1.4,0,2.6,1.1,2.6,2.5c0,1.4-1.1,2.6-2.6,2.6h-17.6c1.4-1.8,3-3.4,4.3-5L262.4,29.8L262.4,29.8z"/>
		<path class="st1" d="M283.7,76.7c0-6.5,3.4-14.3,5.6-18.5C303.8,31.6,336,4.5,363.8,6c13.9,0.7,19.6,7.7,19.6,16.2
			c0,8.9-6.3,19.5-15.9,25.7c-7.7,5-18.6,9-29.3,9c-5.1,0-10.1-0.9-14.6-3.1c-1.3-0.6-2-2-1.4-3.3c0.6-1.4,2-2,3.3-1.4
			c4.5,2.1,9.3,3.1,14,3.1c9.7,0,19.3-3.8,25.9-8.4c7.2-5.1,13.1-13.9,13.1-21.3c0-6-3.8-10.8-14-11.7c-1-0.1-2-0.1-3-0.1
			c-24.8,0-54.2,24.7-67.9,49.9c-2.4,4.4-5,10.6-5,15.5c0,2.8,0.9,5.2,3.1,6.5c0.8,0.4,1.5,0.6,2.4,0.6c9.4,0,26.7-22.3,30.6-27.1
			l0.1-0.1l5.4,1.6c-6.6,6.9-22.4,30.6-36,30.6c-1.5,0-3-0.3-4.4-0.9C285.2,85.1,283.7,81.1,283.7,76.7z M330.1,49.2l1.2-1.4
			c6.4-8.2,11.8-15.6,17.9-24.7c0.8-1.3,2.2-1.6,3.5-0.7c1.3,0.8,1.5,2.2,0.8,3.5c-5.4,8.1-10.3,14.8-16,22.3l-2,2.6v0.1
			C332.4,50,331.3,49.6,330.1,49.2z"/>
		<path class="st1" d="M366.5,68.8c4.4-3.7,9.1-8.1,13.8-12.8c-2.3,3.7-3.7,8.2-4.3,11.3c-2,2-4.3,3.8-6.3,5.4
			c-1.1,0.9-2.6,0.7-3.5-0.4C365.2,71.4,365.4,69.7,366.5,68.8z M376.7,71.5c0-4.9,2.1-10.6,3.7-13.5c4-7.1,10-14.8,17.3-19.7
			c4.8-3.4,10.5-5.3,15.1-5.3c2,0,3.8,0.4,5.4,1.1c1.9,0.9,2.7,2.4,2.7,3.8c0,2.1-2,4.2-5.9,4.3c-13.9,0.2-28.7,17.9-26.5,14.5
			c4.5-7.2,14.5-17.9,24.1-17.9c0.9,0,1.6,0.1,2.5,0.3c1.9,0.3,1.6-0.7,0-1c-0.9-0.2-1.6-0.2-2.5-0.2c-11.4,0-22.3,12.4-27.7,22.5
			c-2.3,4.1-3.3,7.9-3.2,10.7c0,3.2,1.4,4.3,3.2,4.3c2.8,0,6.7-2.5,8.7-3.8c3.7-2.5,7.8-6,11.6-9.8c-1.4,2.8-3.1,6.5-3.4,9.9
			c-2,1.6-3.5,2.8-5.3,4.1c-3.7,2.6-7.9,4.8-11.7,4.8c-0.9,0-1.7-0.1-2.6-0.3C378.1,79,376.7,75.5,376.7,71.5z M402.9,73
			c0-11.6,17.3-30.4,21.3-34.1l2.6-2.3c2.3-1.9,7.1,1.2,4.3,4.4c-0.9,1.3-9.6,13.4-18.4,22.3c3.7-6.8,12-16.7,16.2-21.4
			c0.3-0.3,0.2-0.6-0.1-0.9c-0.3-0.3-0.6-0.2-0.9,0.1c-7.6,8.9-19.1,22-19.8,31.4c-0.1,1.7,0.1,2.6,1.4,3.2c0.8,0.3,2.4,0.2,5.7-1.5
			c3-1.6,6.5-4.2,10.4-7.6c1.1-0.9,2.7-0.9,3.7,0.3c0.9,1,0.8,2.6-0.3,3.6c-5.5,4.4-13,10.5-18.7,10.5c-1,0-2-0.3-2.9-0.7
			C404.2,78.8,402.9,76.1,402.9,73z"/>
		<path class="st1" d="M422.9,68.8c2-1.6,3.9-3.4,6-5.2c0.3,1.7,0.7,3.6,1.4,5.5c-1.4,1.3-2.8,2.5-4.2,3.6c-1.1,0.9-2.6,0.8-3.6-0.3
			C421.7,71.3,421.8,69.7,422.9,68.8z M431.5,69l-0.3-0.7c-1-2.8-1.4-5.4-1.4-7.7s0.6-4.2,2-5.5c0.8-0.6,1.5-1,2.3-1.2
			c0.9-0.3,2-0.2,3.1,0.1l-2.3,2.5l-0.2,0.3c-0.3,1.6-0.3,3.9,0.3,6.2c0.3,1.3,0.5,2.6,1.1,3.7l0.2,0.4c1.7,4.3,4.7,7.7,8,8.4
			c1.2,0.3,2.3,0.4,3.3,0.4c3,0,5-1.2,6.5-2.9c2-2.1,3.1-5.4,3.7-9l0.1-0.1c1.7-0.3,3.3-0.7,5.3-1.3l-0.1,0.4
			c-0.6,4.8-2,9.7-5.2,13.4c-2.6,2.8-6,4.5-10.4,4.5c-1.4,0-2.9-0.2-4.4-0.5C437.5,79,433.6,73.8,431.5,69z M436.1,62.7
			c-0.4-2-0.6-4.1-0.3-5.4l0.1-0.1l2.9-3.2c3.5-3.7,6.8-7,9.5-9.9l2.8-2.9c0-0.1,0.1-0.2,0.2-0.2l1.4-1.5l-0.1,0.2l1.5-1.6
			c0,0.3,0.1,0.7,0.2,1.1c0.3,1.6,0.7,3.3,1.1,5l-3.3,3.5c-2.4,2.4-5,5.3-8,8.3H444l-4.7,4.7c-0.9,1-2,2-2.9,2.9L436.1,62.7z
			 M495.3,43c-10.5,8.5-24.7,17.7-39.3,20c-1.5,0.2-3.1,0.3-4.6,0.3c-4,0-7.7-0.8-11-2.2l4-4c2.2,0.7,4.5,1,7.1,1
			c1.8,0,3.8-0.2,5.9-0.6l0.9-0.2c14.5-2.9,27.9-12.7,36.1-19.5C494.6,40.2,494.9,40.8,495.3,43z M458.3,55.8
			c-0.3-5.9-1.9-11.1-3-16.9c-1-5.6,2.1-10.7,7-11.1c2.4-0.2,5.3,2,3.6,4.8c-0.7,1.1-2.4,2.9-4,4.5l-0.5,0.6c-0.1-0.6-0.2-1-0.2-1.4
			c0-1,0.5-2.1,1.6-3.4c0.3-0.3,0.3-0.6,0-0.9c-0.3-0.3-0.6-0.2-0.9,0.1c-1.4,1.2-1.8,2.7-1.8,4.4c0,2.1,0.7,4.5,1.2,6.7
			c0.8,3.3,1.8,7,2,11.4c-2,0.7-3.5,1.1-5.1,1.5L458.3,55.8L458.3,55.8z M476.7,57c-0.6,2-0.9,4.1-0.9,6.1s0.3,3.9,1,5.8
			c2.1,5.1,7,8.2,11.8,6.8c2.4,1.4,4.6,1.9,7.7,1.9c-2.6,2-5.8,3.4-9.8,3.4c-0.9,0-2-0.1-3-0.3c-5.7-0.9-10.1-5.7-11.7-10.6
			c-1-3.1-1.1-5.6-0.9-8.1c0,0,0-1.1,0.2-2.2L476.7,57z M496.1,76.2c-8.8,0-16-7.9-18.5-17.7c0.2-0.8,0.2-1.6,0.5-2.2l3-1.7
			c3.8,9.6,8.5,16.2,15,16.2c2.9,0,6.1-1.4,9.8-4.3c1.1-0.9,2.6-0.7,3.6,0.3c0.7,0.7,0.8,2.6-0.4,3.7
			C504.7,74.5,500.2,76.2,496.1,76.2z M498.4,57.8c0-3.9-0.5-7.9-1.2-11.3c-0.4-2.6-1-5.1-1.6-7.5c-0.2-0.9-0.3-1.9-0.3-2.7
			c0-3.7,1.7-6.9,4.4-7.9c2.9-1.1,7.8,0.1,6,4.4c-0.6,1.3-2.3,2.9-3.9,4.5l-0.4,0.5c-0.1-0.3-0.1-0.6-0.1-1c0-1.3,0.3-2.4,1.5-3.8
			c0.3-0.3,0.5-0.8,0.2-1.1c-0.3-0.3-0.8-0.1-1,0.2c-1.4,1.6-1.9,3.1-1.9,4.6c0.1,1,0.3,2.2,0.6,3.2c1.3,4.4,2.7,11.3,2.7,18.1
			c0,1.6-0.1,3.2-0.3,4.8c-0.3,1.7-0.4,3.2-1,4.8c-1.8,1.4-4.3,2.1-6.2,2.1c1.3-2.1,1.8-4.4,2.1-7.5
			C498.4,60.9,498.4,59.4,498.4,57.8z"/>
		<path class="st1" d="M503,68.8c3.3-2.6,7.6-6.6,11-10c-1.7,3.3-3.1,6.5-3.9,10.5c-0.9,0.9-2.8,2.6-3.8,3.3c-1,0.9-2.6,0.8-3.6-0.3
			C501.8,71.3,502,69.7,503,68.8z M510.8,72.3c2.4-15.3,17.6-33.6,28.6-42c2.3-1.8,6.2,1.3,4.6,4c-3.8,6.1-14.2,16.2-21.3,24
			c4.8-7.1,12.5-16.8,18.3-22.7c0.3-0.3,0.3-0.6,0-0.9c-0.3-0.3-0.6-0.3-0.9,0c-7.5,7.9-15.7,17.8-20.5,26.9c-1.8,3.5-3,7-3.5,9.4
			c-0.8,3.6,0.5,4.7,2.4,4.7s4.3-1.1,6.1-2.1c4-2.3,8.2-6.6,16.3-14.6c-2,3.5-3.4,7.1-4.3,11.4c-4.4,3.7-11.9,10.5-18.5,10.5
			c-1.4,0-2.8-0.3-4.1-1C511.5,78.2,510.5,75.6,510.8,72.3z M537.6,73c0-0.9,0.1-1.9,0.3-2.8c1.3-5.5,3.9-10.5,6.9-15.3
			c5.6-8.7,13.5-18,21.3-24.7c2.2-1.7,6.5,1.3,4.8,4c-4.8,7.6-15.6,18.8-21.5,24.9c4.3-7.1,12.9-17.7,18.7-23.5
			c0.3-0.3,0.2-0.6-0.1-0.9c-0.3-0.3-0.5-0.3-0.8,0c-7.1,7.2-14.5,16.4-19.6,25.1c-2.4,4.2-4.2,8.4-4.8,11.2
			c-0.9,3.6,0.3,4.7,2.2,4.7c2.5,0,6.1-1.9,7.9-3.1c3.8-2.6,7.9-6.2,12.2-10.5c-0.3,1.4-0.3,2.7-0.2,4c0.1,1,0.3,2,0.6,2.8
			c-3.4,3.1-6.5,5.9-9.9,8c-3.4,2.2-7.1,4.1-10.6,4.1c-1.5,0-3-0.3-4.3-1.2C538.4,78.2,537.6,75.6,537.6,73z M566.3,65.9
			c-0.7-8.2,6-16.8,10.7-22.4c2.7-3.4,5.6-6.5,8.2-8.9c2.4-2.3,4.8-4.2,6.5-4.9c1-0.4,2.1-0.1,2.8,0.6c1.1,0.9,1.4,2.4,0.6,3.5
			c-2.7,4.1-12,16.2-22.1,27c1.3-4.7,4.4-9.3,7.8-13.4c4.2-5.4,8.8-9.6,11.3-12.2c0.3-0.3,0.3-0.6,0-0.9c-0.3-0.3-0.6-0.3-0.9,0
			c-2.4,2.6-7.1,7-11.4,12.3c-4.2,5.3-8.6,11.7-8.6,17.9c0,2.5,2,5.1,5.4,5.1c1.9,0,4.1-0.9,6.5-3c1-0.9,2.6-0.9,3.6,0.3
			c0.7,0.9,0.3,2.7-0.7,3.7c-2.3,2.8-6.5,4.6-10.1,4.6c-1.2,0-2.3-0.2-3.3-0.6C569,73.1,566.6,69.6,566.3,65.9z"/>
		<path class="st1" d="M579.7,70.8c0-2,7.1-7.1,10.5-10.6c-1.4,3-2.3,5.9-2.4,9.2c-1.8,1.5-4.2,4-5.6,4c-0.9,0-1.5-0.3-2-0.9
			C579.8,72,579.7,71.4,579.7,70.8z M589,69.7c0-5.9,6.2-19,15.1-25.2l0.6-0.3c-0.4,2-0.7,3.8-0.7,5.6c0,1.3,0.1,2.5,0.3,3.8
			c-1.4,1.6-3,3.2-5,5.2c1.4-2.3,4.2-5.5,4.2-5.8c0-0.4-0.2-0.6-0.6-0.6c-1.4,0-5.1,6.4-6.9,10c-1.4,2.8-2,5.1-2,7.1
			c0,6,4.2,7,6.6,7c5.4,0,12.5-4.8,18.6-12.2c2.3-0.1,4.5-0.3,6.9-0.7c-6.9,9.4-16.6,17.9-25.5,17.9c-2,0-4-0.4-6-1.4
			C591.4,78.6,589,74.8,589,69.7z M605.2,49.9c0-10.5,8.8-22.3,19.1-22.3c7.1,0,11.7,5,11.7,12.2c0,4.3-1.4,9-3.7,14
			c-2.5,1.3-4.8,2-7.1,2.6c3.7-6,5.9-12.2,5.9-16.6c0-4.1-2.2-7.1-6.5-7.1c-6.7,0-14.2,9.4-14.2,17.2c0,4.1,2.2,8.2,10.4,8.2
			c14.3,0,28.3-14,37.7-24.3c0.2,1.8,0.9,3.5,2.1,5.2c-10.6,11.3-23.7,23.9-39.7,23.9c-7.7,0-13.4-3.1-15.1-9.1
			C605.3,52.6,605.2,51.2,605.2,49.9z M673.6,38.4c1.3,0,2.4,1.3,2.4,2.6c0,0.9-0.3,1.5-1,2c-5.7,4-21.4,19.2-21.4,29
			c0,2,0.9,3.6,3.1,3.6c3,0,8.8-3.6,14.9-9c0.4-0.4,1-0.6,1.7-0.6c1.3,0,2.6,1,2.6,2.5c0,0.8-0.3,1.4-0.9,2
			c-5.4,4.7-12.8,10.5-18.7,10.5c-5.7,0-7.7-4.8-7.7-8.8c0-7.1,5-14.1,10.7-20.9c2.7-3.1,7.4-8.5,13.2-12.5
			C672.8,38.5,673.1,38.4,673.6,38.4z M666.1,42.4c-4.3-2.3-7.2-6.2-7.2-9.9c0-5,5-7.2,6.8-7.2c1.6,0,2.7,1.2,2.7,2.6
			c0,2-2.6,4.2-3.6,5.1c-0.7-0.9-0.9-1.5-0.9-2.5v-0.8c0-0.4-0.2-0.6-0.6-0.6c-0.4,0-0.6,0.5-0.6,0.8c0,4.3,4,8.2,8,8.8L666.1,42.4z
			"/>
		<path class="st1" d="M669,68.8c4.4-3.7,9.1-8.1,13.8-12.8c-2.3,3.7-3.7,8.2-4.3,11.3c-2,2-4.3,3.8-6.3,5.4
			c-1.1,0.9-2.6,0.7-3.5-0.4C667.7,71.4,667.9,69.7,669,68.8z M679.3,71.5c0-4.9,2.1-10.6,3.7-13.5c4-7.1,10-14.8,17.3-19.7
			c4.8-3.4,10.5-5.3,15.1-5.3c2,0,3.8,0.4,5.4,1.1c1.9,0.9,2.7,2.4,2.7,3.8c0,2.1-2,4.2-5.9,4.3c-13.9,0.2-28.7,17.9-26.5,14.5
			c4.5-7.2,14.5-17.9,24.1-17.9c0.9,0,1.6,0.1,2.5,0.3c1.9,0.3,1.6-0.7,0-1c-0.9-0.2-1.6-0.2-2.5-0.2c-11.4,0-22.3,12.4-27.7,22.5
			c-2.3,4.1-3.3,7.9-3.2,10.7c0,3.2,1.4,4.3,3.2,4.3c2.8,0,6.7-2.5,8.7-3.8c3.7-2.5,11.7-8.8,15.5-12.5c-1.4,2.8-4.2,7.1-5,10.8
			c-2,1.6-5.8,4.6-7.6,5.9c-3.7,2.6-7.9,4.8-11.7,4.8c-0.9,0-1.7-0.1-2.6-0.3C680.6,79,679.3,75.5,679.3,71.5z M706.7,75.6
			c0-16.6,42-64.5,47-65.1c2.8-0.3,5,2.2,3.4,4.5c-6.3,9.3-25.6,32.3-37,43.5c8.9-13.9,27.2-35.4,33.9-41.9c0.3-0.3,0.2-0.5-0.1-0.9
			c-0.3-0.3-0.5-0.3-0.8,0c-4.8,4.3-20.6,22.6-30.2,36.1c-7.8,11.1-13.1,22.1-10.8,23.6c0.5,0.3,1.2,0.8,4.5-1
			c3-1.7,6.5-4.4,10.5-7.8c1.1-0.9,2.6-0.9,3.6,0.3c0.9,1,0.9,2.6-0.3,3.6c-4,3.5-7.9,6.5-11.4,8.4c-2.2,1.2-4.8,2.3-7.1,2.3
			c-1.1,0-2.2-0.3-3.1-0.9C707.4,79.3,706.7,77.7,706.7,75.6z"/>
	</g>
</g>
</svg>
