<?xml version="1.0" encoding="utf-8"?>
<!-- Generator: Adobe Illustrator 25.2.1, SVG Export Plug-In . SVG Version: 6.00 Build 0)  -->
<svg version="1.1" id="Layer_1" xmlns="http://www.w3.org/2000/svg" xmlns:xlink="http://www.w3.org/1999/xlink" x="0px" y="0px"
	 viewBox="0 0 448.6 76" style="enable-background:new 0 0 448.6 76;" xml:space="preserve">
<style type="text/css">
	.st0{fill:#BF4B1D;}
	.st1{fill:#FFFFFF;}
</style>
<path class="st0" d="M50.2,67.6c-2.6-1.8-4.2-4.9-4-8.1c0-1.8,0.3-3.5,1-5.2l0.1-0.1l0.7-1.6c-1.5,2.1-3,4-4.5,5.9
	C38.1,64.9,28.2,76,18.2,76c-1.9,0-3.8-0.4-5.5-1.2h-0.1c-1.3-0.6-2.5-1.4-3.5-2.3l-4-4C1.5,66,0,61.9,0,57.1c0-7.7,4.5-17.7,9.7-25
	c6.4-8.4,14.2-15.6,23-21.3L34,9.9c2.5-1.6,5-3,7.7-4.3C43,5,44.5,4.3,45.9,3.8c4.7-1.9,9.7-3.2,14.8-3.7C61.5,0,62.7,0,63.5,0
	c8.2,0,15.2,2.8,18.8,7.9l3.7,3.7c2.7,2.7,4.2,6.3,4.1,10.1c0,1.7-0.2,3.3-0.7,4.9h-0.1c-1.7,6.1-9.7,12.4-17,15.2
	c0.1,1,0,1.9-0.1,2.9c-0.3,1.9-0.9,3.8-1.7,5.5c1.3,0.2,2.5,0.9,3.3,1.9c0.2,0.3,0.5,0.7,0.7,1l0.1,0.1l4.6,4.5
	c0.9,1,1.3,2.2,1.3,3.5c0,1.5-0.6,3-1.8,4h0.1c-1.5,1.4-3.1,2.7-4.8,3.8c-2.5,2-5.3,3.6-8.2,4.7c-1.4,0.4-2.8,0.7-4.2,0.7
	c-2.6,0.1-5.1-0.8-7-2.6L50.2,67.6z M44.6,24.3c-8.1,5-15.1,11.6-20.5,19.5c-2.1,3-5.8,9.2-7.2,14.6c4.8-3,10.4-9.5,13.3-13
	C35.5,38.6,40.3,31.6,44.6,24.3z M65.6,24.5c3.6-1.9,6.5-4.1,7.5-6.1c0.2-0.5,0.4-1.1,0.5-1.6c-2.1-0.4-4.3-0.6-6.4-0.4
	c-0.3,0-0.5,0.1-0.8,0.1c0.8,0.9,1.2,2.1,1.1,3.2c0,0.9-0.2,1.8-0.7,2.5L65.6,24.5z"/>
<path class="st0" d="M65.1,62.4c-0.6-0.3-1.1-0.8-1.6-1.3c-0.9-1-1.4-2.3-1.4-3.6c0-1.6,0.7-3.2,1.9-4.3c2.5-1.9,5.5-4.8,8.9-8.1
	c3.9-9.7,13-19,21.5-22.6c2-0.8,4.1-1.2,6.2-1.2c3.6-0.1,7.1,1.5,9.2,4.5L114,30c2,2.1,3,4.9,2.9,7.7c0,1.2-0.1,2.3-0.4,3.5
	c-1.1,4.5-4,8.4-7.7,11.5c0.1,0.1,0.2,0.3,0.3,0.4l4.6,4.5c0.9,0.9,1.3,2.2,1.3,3.5c0,1.6-0.7,3.1-1.9,4.1c-1.3,1.3-2.8,2.4-4.3,3.5
	c-4.7,3.6-10.4,5.9-15.7,6.1c-4.3,0.2-9-0.9-12.1-4.1l-3.9-3.9L77,66.7l-0.3,0.2l0.1,0.1c-0.9,0.8-2.1,1.3-3.4,1.3
	c-1.5,0-2.8-0.6-3.9-1.6L65.1,62.4z"/>
<path class="st0" d="M98,60.9c-0.9-1-1.3-2.2-1.4-3.5c0-1.6,0.8-3.2,2.1-4.2c1.1-0.9,2.2-1.9,3.2-2.9l1.2-1.1l1-0.7
	c0.3-2.1,1-5.8,2.3-7.9c1-1.7,2.8-2.8,4.8-2.7c0.9,0,1.9,0.3,2.6,0.9l4.4-4.6l5.5-5.6c0.3-4,2.5-7.5,5.8-8.8c1-0.3,2-0.5,3-0.5
	c2.6,0,5.2,1,6.4,3.2l4.6,4.5c0.9,0.9,1.4,2.1,1.4,3.4c0,1.1-0.3,2.1-0.7,3.1c-0.9,1.6-2.1,3-3.5,4.2l-0.2,0.3
	c1.3,4.7,2,9.6,2.1,14.6v1.1l3.8,3.8c0.8,1,1.3,2.3,1.2,3.5c0.1,1.5-0.5,2.9-1.5,4c-2.9,2.9-6.6,4.8-10.6,5.4c-3.9,2.5-7.4,4-9.9,4
	c-1,0-2-0.1-3-0.3c-3-0.5-5.8-2-7.9-4.2l-3.2-3.2l-0.3,0.2c-1,0.8-2.2,1.2-3.4,1.2c-1.5,0-2.9-0.6-3.9-1.7L99.5,62
	C98.8,61.8,98.4,61.4,98,60.9L98,60.9z"/>
<path class="st0" d="M151.3,20.7h8.5c5.9-6.9,11.7-12.8,15.5-15.4c0.9-0.6,1.9-1,3-1c2.1,0,4.1,1.2,5.2,3l4.5,4.5
	c1,1,1.6,2.3,1.6,3.7c0,0.8-0.2,1.7-0.6,2.4c-1.4,2.3-3,4.5-4.8,6.6l3.5,3.5c1,1,1.5,2.3,1.5,3.7c0.1,2.9-2.2,5.2-5,5.3
	c-0.1,0-0.2,0-0.3,0h-10.1l-11.4,13c1.5,0.1,2.9,0.7,3.9,1.9c0.3,0.3,0.5,0.6,0.8,1l4.6,4.6c0.9,1,1.3,2.2,1.3,3.5
	c0,1.6-0.7,3.1-1.9,4.1c-0.8,0.8-1.7,1.6-2.7,2.3l-0.7,0.5c-2.4,1.9-4.9,3.6-7.5,5l-0.1-0.1c-1.8,1-3.9,1.5-5.9,1.6
	c-1.1,0-2.3-0.2-3.4-0.6l-0.1-0.1c-1.6-0.5-3-1.3-4.1-2.4l-3.8-3.8c-0.7,0.5-1.6,0.7-2.5,0.7c-1.5,0-2.9-0.6-3.9-1.6l-4.4-4.3
	c-0.6-0.3-1.1-0.8-1.6-1.3c-0.9-0.9-1.4-2.2-1.4-3.5c0-1.6,0.7-3.2,1.9-4.3c3.4-2.8,8.4-7.5,12.9-11.3c1.8-3,3.9-6.1,6.3-9.2
	l-1.6-1.7c-1.8-0.9-2.9-2.8-2.8-4.8C145.9,23.2,148.3,20.8,151.3,20.7z"/>
<path class="st0" d="M211.1,51.1l1,0.8c0.3,0.3,0.5,0.7,0.8,1l4.6,4.7c0.8,0.9,1.3,2.2,1.3,3.5c0,1.6-0.6,3.1-1.8,4.1
	c-4.8,4-11.4,9.4-17.2,9.4c-1.3,0-2.5-0.3-3.7-0.8l-0.1-0.1c-1.1-0.5-2-1.2-2.9-2l-2.3-2.3l-0.4,0.3c-3.5,2.5-7.5,4.6-11.4,4.6
	c-1,0-2-0.1-3-0.4h-0.1c-1.4-0.5-2.8-1.3-3.9-2.3l-3.9-3.9c-0.8,0.5-1.7,0.8-2.6,0.8c-1.4,0-2.7-0.6-3.7-1.7l-0.4-0.4l0.1,0.1
	l-4.1-4.1c-0.6-0.4-1.1-0.8-1.5-1.3h-0.1c-0.9-1-1.4-2.3-1.4-3.6c0-1.7,0.7-3.2,2-4.3c3.6-3,8.5-7.7,13-11.5
	c3.4-5.2,7.6-9.7,12.5-13.4c5-3.7,10.8-6.8,16.3-6.8c1.4,0,2.7,0.2,4.1,0.5c2,0.5,3.7,1.8,4.8,3.5l0.4,0.4c0.3-0.1,0.7-0.1,1-0.1
	c2.4,0,4.7,1.3,6,3.4l4.4,4.4c0.9,0.9,1.5,2.1,1.5,3.5c0,1.3-0.5,2.5-1.4,3.5C218.6,41.5,215.3,46,211.1,51.1z"/>
<path class="st0" d="M254.5,50.3c0.9,0.4,1.7,0.9,2.4,1.6c1.7,2,3.5,3.9,5.4,5.7c0.9,1,1.4,2.2,1.4,3.5c0,1.6-0.7,3.1-1.9,4.1h0.1
	c-4.8,4.1-11.2,9.2-17.2,9.2c-1.2,0-2.3-0.2-3.5-0.6c-1.1-0.4-2-1-2.8-1.9l-3.1-3.1c-3.9,2.8-8.3,5.2-12.4,5.2
	c-1.9,0-3.7-0.5-5.3-1.5l-0.1-0.1c-0.6-0.4-1.1-0.8-1.6-1.3l-3.1-3.1c-1.8,0.4-3.8-0.1-5.2-1.4c-5-4.7-5.5-5.1-5.9-5.6
	c-0.9-1-1.4-2.3-1.4-3.6c0-1.6,0.7-3.1,1.9-4.2c2.6-2.2,7.5-6.8,10.6-9c5.3-8.4,11.7-16,19.2-22.6c1.1-0.6,2.2-0.9,3.5-0.9
	c2.4,0,4.4,1.2,9.7,7.5l0.5,0.7c2.1-2.3,4.3-4.5,6.6-6.5c1-0.7,2.1-1,3.3-1c2.3,0,4.5,1.2,10.1,7.6c1,1,1.6,2.3,1.6,3.7
	c0,1.2-0.4,2.4-1.2,3.4H266C264.5,38.3,259.7,44.3,254.5,50.3z"/>
<path class="st0" d="M247.2,60.3c-0.9-1-1.3-2.2-1.3-3.5c0-1.6,0.7-3.2,2-4.3c5.9-5.1,14.6-13.9,27.7-27.9c0.8-3.3,3.2-5.9,6.4-7.1
	v-0.1c0.7-0.3,1.5-0.4,2.3-0.4c2.1,0,4,1.2,5,3l4.3,4.4c1.4,1.4,1.9,3.4,1.5,5.3l0.2,0.2l-0.1,0.1l4.7,4.7c0.3,0.3,0.5,0.6,0.8,0.9
	l-0.2-0.2c0.6,0.9,1,1.9,1,3c0,1.8-0.8,3.6-2.3,4.7h-0.1c-2.9,2-5.5,4.4-7.9,7c1.3,0.2,2.4,0.8,3.3,1.7c0.3,0.3,0.5,0.7,0.8,1
	l4.6,4.6c0.9,1,1.4,2.2,1.4,3.5c0,1.6-0.6,3.1-1.8,4.1c-4.8,4.1-11.4,9.2-17.2,9.2c-1.2,0-2.3-0.2-3.5-0.6c-1.2-0.5-2.3-1.2-3.2-2.1
	c-6.8-5.7-8.2-8.5-8.6-11.5c-2.4,2.3-4.7,4.4-6.8,6.2c-1,0.8-2.2,1.2-3.5,1.2c-1.5,0-2.9-0.6-3.9-1.6l-4.3-4.3
	C248,61.3,247.6,60.9,247.2,60.3L247.2,60.3z"/>
<path class="st0" d="M339.5,51.1l1,0.8c0.3,0.3,0.5,0.7,0.8,1l4.6,4.6c0.9,1,1.3,2.2,1.3,3.5c0,1.6-0.6,3.1-1.8,4.1
	c-4.8,4-11.4,9.4-17.2,9.4c-1.3,0-2.5-0.3-3.7-0.8l-0.1-0.1c-1.1-0.5-2.1-1.2-2.9-2l-2.3-2.3l-0.4,0.3c-3.5,2.5-7.5,4.6-11.4,4.6
	c-1,0-2-0.1-3-0.4h-0.1c-1.5-0.5-2.8-1.3-3.9-2.3l-4-3.9c-0.8,0.5-1.7,0.8-2.6,0.8c-1.4,0-2.7-0.6-3.7-1.7l-0.4-0.4l0.1,0.1
	l-4.1-4.1c-0.6-0.4-1.1-0.8-1.5-1.3h-0.1c-0.9-1-1.4-2.3-1.4-3.6c0-1.7,0.7-3.2,2-4.3c3.6-3,8.6-7.7,13-11.5
	c3.4-5.2,7.6-9.7,12.6-13.4s10.8-6.8,16.3-6.8c1.4,0,2.7,0.2,4.1,0.5c2,0.5,3.7,1.8,4.8,3.5l0.4,0.4c0.3-0.1,0.7-0.1,1-0.1
	c2.4,0,4.7,1.3,6,3.4l4.5,4.4c0.9,0.9,1.5,2.1,1.5,3.5c0,1.3-0.5,2.5-1.4,3.5C347,41.5,343.8,46,339.5,51.1z"/>
<path class="st0" d="M328.6,57.5c0-1.6,0.7-3.1,1.9-4.1c4.9-4.1,9.6-8.5,14.1-13.2l6.5-6.6c2.1-2.9,4.1-5.7,6.1-8.3
	c1.5-1.9,3-3.9,5.6-3.9c1.2,0,2.4,0.4,3.5,1c0.7,0.5,1.2,1.2,1.7,1.9l1.2,1.3c1.8-1,3.7-1.8,5.7-2.5c1.6-0.5,3.2-0.8,4.8-0.8
	c3.9,0,7.5,1.5,9.2,4.4l4.2,4.3c1.5,1.5,2.4,3.6,2.3,5.7c0,1.3-0.3,2.5-0.7,3.7h-0.1c-0.7,2-1.7,3.8-3,5.5c-1.5,1.9-3,3.8-4.7,5.7
	l0.5,0.5l0.7,1l4.7,4.7c0.8,1,1.3,2.3,1.3,3.6c0,1.5-0.7,3-1.9,4c-3,2.7-6.3,5.1-9.7,7.2c-2.1,1.2-4.5,1.9-7,2
	c-2.6,0.1-5.1-0.9-7-2.8l-4-4c-2.8-1.7-4.5-4.8-4.3-8.1c0-1.3,0.2-2.6,0.6-3.8c-4.5,4.8-8.5,10.1-11.8,15.8
	c-0.9,1.7-2.6,2.7-4.5,2.7c-1.5,0-2.9-0.6-3.9-1.7c-5.9-5.2-7-6.6-7.2-8.3l-1.8-1.9c-0.6-0.4-1.2-0.9-1.7-1.4
	C329.1,60,328.7,58.8,328.6,57.5z"/>
<path class="st0" d="M397.8,20.7h8.5c5.9-6.9,11.7-12.8,15.5-15.4c0.9-0.6,1.9-1,3-1c2.1,0,4.1,1.2,5.2,3l4.5,4.5
	c1,1,1.6,2.3,1.6,3.7c0,0.8-0.2,1.7-0.6,2.4c-1.4,2.3-3,4.5-4.8,6.6l3.5,3.5c1,1,1.5,2.3,1.5,3.7c0.1,2.9-2.1,5.3-5,5.4
	c-0.1,0-0.2,0-0.3,0h-10.1L409,50c1.5,0.1,2.9,0.7,3.9,1.9c0.3,0.3,0.5,0.7,0.8,1l4.6,4.6c0.9,1,1.3,2.2,1.3,3.5
	c0,1.6-0.7,3.1-1.9,4.1c-0.9,0.8-1.8,1.6-2.7,2.3l-0.7,0.5c-2.4,1.9-4.9,3.6-7.5,5l-0.1-0.1c-1.8,1-3.9,1.5-5.9,1.6
	c-1.1,0-2.3-0.2-3.4-0.6l-0.1-0.1c-1.6-0.5-3-1.3-4.1-2.4l-3.8-3.8c-0.7,0.5-1.6,0.7-2.5,0.7c-1.4,0-2.8-0.6-3.9-1.6l-4.3-4.3
	c-0.6-0.3-1.1-0.8-1.6-1.3c-0.9-0.9-1.4-2.2-1.4-3.5c0-1.6,0.7-3.2,1.9-4.3c3.4-2.8,8.3-7.5,12.8-11.2c1.8-3,3.9-6.1,6.3-9.2
	l-1.6-1.7c-1.8-0.9-2.9-2.8-2.8-4.8C392.4,23.2,394.8,20.8,397.8,20.7z"/>
<path class="st0" d="M400.9,57.4c0-1.6,0.8-3.2,2.1-4.2c7.1-6.2,13.9-12.8,20.2-19.8l3.3-3.4h0.1l1.4-1.4c0.4-5.6,4.3-9.9,8.8-9.9
	c1.1,0,2.2,0.2,3.2,0.8c1.1,0.6,2,1.5,2.7,2.5l4.4,4.4c1.1,1,1.6,2.5,1.6,3.9c0,2.8-2.1,5.7-3.9,7.5c1.7,5.7,2.6,11.5,2.8,17.4
	c0,1.2,0,2.4-0.1,3.5c-1.3,10.4-7.4,17-18,17c-0.8,0-2-0.1-2.9-0.1h-0.1c-3.4-0.4-6.5-1.9-8.9-4.3l-3.5-3.5
	c-0.7,0.3-1.4,0.4-2.1,0.4c-1.4,0-2.6-0.5-3.6-1.5l-4.5-4.5c-0.6-0.3-1.1-0.8-1.5-1.3C401.4,60,400.9,58.7,400.9,57.4z M423.7,59.5
	h0.2c4.1,0,6.2-2.6,7.1-7.2C428.8,54.6,426.3,57.1,423.7,59.5z"/>
<path class="st1" d="M3.5,57.1c0-7,4.1-16.2,9-23C23.5,18.9,41.2,4.9,61,3.5c0.8-0.1,1.7-0.1,2.4-0.1c10,0,17.9,4.6,17.9,12.8
	c0,1.3-0.2,2.7-0.5,3.9C79,26.5,70.3,32.9,64.2,34c-0.5-1.3-1.2-2.6-2.1-3.7c5.6-0.9,12.4-6,14.2-10.6c0.5-1.2,0.8-2.4,0.8-3.7
	c0-6.4-8.1-8.8-15.7-8.4c-16,1-34.5,12.8-45.5,28.8c-2.8,4-8.5,13.9-8.5,20.7c-0.2,2.1,0.7,4.1,2.3,5.5c0.8,0.6,1.8,0.9,2.8,0.8
	c6.5,0,16.2-10.8,20.4-15.9c8.8-10.9,16.4-23.9,21.9-34.2c0.5-1,1.7-1.4,2.7-0.9c0,0,0,0,0.1,0c1,0.5,1.4,1.7,0.9,2.7c0,0,0,0,0,0.1
	c-5.9,11-13.9,24.4-23,35.7c-5,6.1-14.1,16.4-22.7,16.4c-1.5,0-2.9-0.3-4.2-0.9C4.9,64.7,3.5,61.3,3.5,57.1z M54.9,47.8
	c1.9-2.8,5-7.9,4.8-10.8c-0.1-2.2-1.2-4.3-4.3-6c-0.2-0.2-0.5-0.1-0.7,0.1l0,0c-0.1,0.2,0,0.6,0.2,0.7c1.6,0.9,2.8,2.3,3.6,3.9
	c-1.6-0.1-3.1-0.6-4.5-1.5c-0.7-0.6-1.1-1.5-1.2-2.5c0-1.6,1.3-3,2.9-3.1c3.7-0.4,8.6,3.8,7.7,10.2c-0.5,3.2-2.6,7.1-5,11
	s-3.1,4.4-4.2,7.2c-0.5,1.4-1.2,3.3,0,4.1c1.6,1.2,5,0.2,9.7-3.3l4.3-3.5c0.9-0.7,2.2-0.5,2.9,0.4c0.6,0.8,0.5,2-0.2,2.7
	c-1.4,1.3-2.9,2.5-4.5,3.7c-2.2,1.8-4.6,3.2-7.2,4.1c-1.1,0.3-2.1,0.5-3.2,0.6c-3.3,0.2-6.1-2.3-6.3-5.6c0-0.2,0-0.5,0-0.7
	c0-1.4,0.3-2.7,0.8-3.9C51.8,52.5,52.4,52,54.9,47.8z"/>
<path class="st1" d="M66.4,55.8c2.8-2.3,5.5-4.7,8.1-7.2c-0.7,2.1-1,4.4-1,6.6c-1.6,1.4-3,2.7-4.4,3.9c-0.8,0.7-2.1,0.6-2.8-0.2
	l-0.1-0.1C65.4,57.9,65.5,56.6,66.4,55.8z M74.6,54.2c0-11.1,11.1-24.2,21.3-28.4c1.6-0.6,3.2-1,4.9-1c4.3,0,7.5,2.8,7.5,7.5
	c0,0.9-0.1,1.8-0.4,2.7c-2.4,9.7-14.8,16.3-23.7,16.3c-1.4,0-2.9-0.2-4.3-0.6c0.4-1.4,1-2.7,1.7-3.9c0.9,0.2,1.7,0.3,2.6,0.3
	c5,0,11.3-2.8,15.3-6.3c2-1.7,4.5-5.3,4.5-8.2c0-0.8-0.2-1.7-0.8-2.4c-0.7-0.6-1.6-0.9-2.6-0.8c-1.8,0.1-3.6,0.5-5.2,1.3
	c-6.3,3-13.8,11.5-16,18.1c-0.5,1.5-0.8,3.1-0.8,4.8c0,4.8,2.7,8.8,8.6,8.5c4.3-0.4,8.3-2,11.7-4.6c1.3-1,2.5-2.1,3.9-3.2
	c0.9-0.7,2.2-0.7,2.9,0.2c0.7,0.9,0.7,2.2-0.2,2.9l0,0c-1.3,1.2-2.7,2.3-4.1,3.3c-4,3.2-8.9,5.1-14,5.5c-4.7,0.2-9.7-1.4-11.7-6.1
	C74.9,58.1,74.5,56.1,74.6,54.2z"/>
<path class="st1" d="M100.9,55.8c1.9-1.5,3.6-3.1,5.5-4.8c-0.1,1.7,0.1,3.5,0.5,5.2c-1.1,1-2.2,1.9-3.3,2.8
	c-0.9,0.7-2.2,0.6-2.9-0.3C99.9,57.9,99.9,56.6,100.9,55.8C100.8,55.9,100.8,55.8,100.9,55.8z M108.1,56.8c-0.7-2.1-1-4.3-0.7-6.6
	c0,0,0.6-5.7,2-7.9c0.4-0.7,1.1-1.1,1.9-1.1c1,0,1.9,0.6,2.2,1.6c-1.3,2.7-2,5.6-2.1,8.6c0,1.5,0.2,3,0.8,4.4
	c1.7,4.1,5.7,6.6,9.6,5.5c1.9,1.1,4,1.6,6.2,1.5c-2.3,1.8-5.1,2.8-7.9,2.8c-0.8,0-1.6-0.1-2.4-0.2C112.9,64.8,109.3,60.9,108.1,56.8
	L108.1,56.8z M126.3,30.7c0.4,1.7,0.6,3.3,1,5l-9.2,9.5l-4.6,4.6l-1.3,1.2c0.2-2.7,0.9-5.4,2.1-7.9
	C118.7,38.8,122.5,34.7,126.3,30.7L126.3,30.7z M114,50.7l3-3c2.6,5.1,4.5,7.8,7.2,9.4c1,0.5,2.1,0.7,3.2,0.8c3.1,0,5.9-2,8.3-3.9
	c0.9-0.7,2.2-0.6,2.9,0.3c0.6,1,0.5,2.2-0.4,3c-3.1,3.2-7.5,4.9-11.9,4.6c-3.6-0.4-6.8-2.5-9.5-6.3C115.7,54,114.8,52.4,114,50.7
	L114,50.7z M129.7,46.9c0-3.1-0.4-6.2-1-9.2c-0.4-2.1-0.8-4.1-1.3-6.1c-0.1-0.7-0.2-1.5-0.2-2.2c0-3,1.4-5.6,3.6-6.4
	s6.4,0.1,4.9,3.6c-0.9,1.4-1.9,2.6-3.2,3.7l-0.3,0.4c-0.1-0.3-0.1-0.6-0.1-0.8c0-1.2,0.4-2.3,1.2-3.1c0.2-0.2,0.4-0.6,0.1-0.9
	s-0.6-0.1-0.8,0.1c-1,1-1.5,2.3-1.5,3.7c0.1,0.9,0.3,1.8,0.5,2.6c1.4,4.8,2.1,9.7,2.2,14.7c0,1.3-0.1,2.6-0.2,3.9
	c-0.1,1.3-0.4,2.7-0.8,3.9c-1.5,1.1-3.2,1.8-5.1,2c1-2,1.7-4.1,1.8-6.3C129.6,49.4,129.6,48.1,129.7,46.9L129.7,46.9z"/>
<path class="st1" d="M133.4,55.8c3.4-2.8,7.9-7,11.4-10.5c-1.5,2.7-3.5,6.3-4.3,9.9c-1.5,1.3-2.9,2.5-4.5,3.9
	c-0.8,0.7-2.1,0.6-2.8-0.2c0,0,0-0.1-0.1-0.1C132.4,57.8,132.5,56.6,133.4,55.8z M141.3,57.6c0-1.1,0.1-2.3,0.4-3.4
	c4.1-13,26.5-40.1,35.5-46.1c1.9-1.2,4.5,0.8,3.5,2.8c-1.7,3-6.8,9-9.5,12.4h-2.7l7.6-8.2c0.2-0.2,0.2-0.5,0-0.8
	c-0.2-0.2-0.5-0.1-0.8,0.1c-4.4,5-16.4,17.1-25.1,31.3c-2.2,3.6-4.5,8.5-4.5,12c0,1.7,0.5,3,1.9,3.7c2,0.8,4.6-0.5,10.2-4.9
	c1-0.8,1.9-1.5,3-2.4c0.9-0.7,2.2-0.7,2.9,0.2s0.7,2.2-0.2,2.9l0,0c-1,0.9-2,1.8-3.1,2.6c-2.2,1.8-4.6,3.4-7.1,4.7
	c-1.4,0.8-3,1.2-4.6,1.2c-0.8,0-1.6-0.2-2.4-0.4C142.6,64.2,141.3,60.9,141.3,57.6L141.3,57.6z M151.3,24.1h8.8
	c-1.2,1.3-2.3,2.8-3.6,4.1h-5.2c-1.1,0-2.1-0.9-2.1-2.1C149.3,25.1,150.2,24.2,151.3,24.1L151.3,24.1z M166,29.3
	c-3.8,4.2-10.8,12.7-14.8,16.6c3.7-5.8,7.7-11.4,12.1-16.6L166,29.3z M178.4,24.3c1.1,0,2,0.9,2,2s-0.9,2-2,2h-14.3
	c1.2-1.5,2.4-2.8,3.5-4.1h10.8V24.3z"/>
<path class="st1" d="M158.6,55.8c3.6-3,7.4-6.5,11.2-10.3c-1.7,2.8-2.9,5.9-3.5,9.2c-1.6,1.6-3.5,3.1-5.1,4.4
	c-0.8,0.7-2,0.6-2.7-0.2l-0.1-0.1C157.6,57.9,157.7,56.6,158.6,55.8C158.6,55.9,158.6,55.8,158.6,55.8z M167,58
	c0.2-3.8,1.2-7.6,3-11c3.2-5.8,8.1-12,14.1-16c3.6-2.6,7.9-4.1,12.3-4.3c1.5,0,3,0.3,4.4,0.9c1.3,0.5,2.1,1.7,2.2,3.1
	c0,1.7-1.6,3.4-4.8,3.4c-11.3,0.1-23.2,14.6-21.5,11.8c3.6-5.9,11.8-14.5,19.5-14.5c0.7,0,1.3,0.1,2,0.2c1.5,0.3,1.3-0.5,0-0.8
	c-0.7-0.1-1.3-0.2-2-0.1c-9.2,0-18.1,10.1-22.5,18.3c-1.6,2.6-2.5,5.6-2.6,8.7c0,2.6,1.1,3.5,2.6,3.5c2.3,0,5.5-2,7-3.1
	c3.4-2.4,6.5-5,9.4-7.9c-1.4,2.5-2.3,5.2-2.8,8c-1.6,1.3-2.8,2.3-4.3,3.3c-3,2.1-6.4,3.9-9.5,3.9c-0.7,0-1.4-0.1-2.1-0.3
	C168.1,64.1,167,61.3,167,58z M188.2,59.2c0-9.4,14-24.6,17.2-27.7l2.1-1.9c1.9-1.5,5.7,1,3.5,3.6c-4.5,6.4-9.5,12.4-14.9,18.1
	c3-5.5,9.7-13.5,13.1-17.4c0.2-0.2,0.1-0.5-0.1-0.7c-0.2-0.2-0.5-0.1-0.7,0.1c-6.1,7.2-15.5,17.9-16.1,25.5
	c-0.1,1.4,0.1,2.1,1.1,2.6c0.6,0.2,1.9,0.1,4.6-1.2c3-1.7,5.9-3.8,8.4-6.1c0.9-0.8,2.2-0.7,3,0.1c0,0,0,0,0,0.1
	c0.7,0.9,0.6,2.2-0.2,2.9c-4.4,3.7-10.4,8.6-15,8.6c-0.8,0-1.6-0.2-2.4-0.6C189.6,64.1,188.1,61.8,188.2,59.2L188.2,59.2z"/>
<path class="st1" d="M204.5,55.8c2.5-2.2,6.6-5.9,9.3-8.4c-1.4,2.7-2.6,5.5-3.4,8.5c-1,1.2-2.1,2.2-3.3,3.2
	c-0.8,0.7-2.1,0.6-2.8-0.2l-0.1-0.1C203.5,57.8,203.6,56.6,204.5,55.8z M211,58.8c0-0.9,0.1-1.7,0.3-2.6c0.9-3.6,2.4-7,4.4-10.1
	c5-8.1,11.2-15.4,18.4-21.7c2.1-1.2,4.6,0.6,3.3,2.8c-3.1,5-9,11.6-14.8,17.7c3.6-5.2,7.5-10.2,11.9-14.8c0.3-0.3,0.3-0.5,0-0.7
	c-0.2-0.2-0.5-0.2-0.7,0l0,0c-5.7,6.1-11.7,13.8-15.2,20c-1.3,2.5-2.4,5-3.2,7.7c-0.8,2.9,0.2,3.9,1.8,3.9c2,0,5-1.6,6.4-2.5
	c4.4-3,8.5-6.5,12.1-10.5c-1.5,2.8-2.6,5.7-3.2,8.8c-3.6,3.3-9.9,8.4-15.2,8.4c-1.3,0-2.5-0.3-3.6-1C211.9,63,210.9,61,211,58.8
	L211,58.8z M233.8,62.1c-0.4-1.1-0.6-2.2-0.5-3.3c0-6.1,4.8-13.6,7-17c3.8-6.1,8.4-11.6,13.8-16.4c2.1-1.5,5.6,0.7,3.8,3.3
	s-8.3,10.6-14.4,17.4c2.9-5.2,8.8-12.8,13-17.5c0.2-0.2,0.1-0.5-0.1-0.7l0,0c-0.2-0.2-0.5-0.2-0.7,0l0,0c-6,6.5-11.1,13.7-15.2,21.5
	c-1.5,2.7-2.5,5.7-3,8.8c-0.2,2.4,0.5,3.2,1.7,3.2c1.3-0.2,2.6-0.6,3.7-1.3c3-1.8,5.9-3.8,8.5-6.2c0.9-0.7,2.2-0.7,2.9,0.2
	s0.7,2.2-0.2,2.9c-4.4,3.8-10.3,8.5-15,8.5c-0.8,0-1.6-0.1-2.3-0.4C235.4,64.6,234.3,63.5,233.8,62.1L233.8,62.1z"/>
<path class="st1" d="M250,55.1c6.8-5.7,14.4-13.7,27.9-28c0.2,1.6,0.8,3,1.8,4.2l-1.9,2.1c-10.3,10.8-18.1,19-25,24.9
	c-0.9,0.8-2.2,0.7-3-0.2C249,57.2,249.1,55.9,250,55.1C250,55.2,250,55.1,250,55.1z M292.5,31.9c0.7,1,0.4,2.3-0.5,3
	c-4.7,3.3-8.8,7.4-12.1,12.2c-2.9,4.2-5.2,8.6-5.2,11.5c-0.1,1,0.4,2,1.3,2.5s2.4,0.4,4.8-0.9c3-1.7,5.8-3.8,8.4-6.1
	c0.9-0.8,2.2-0.7,3,0.1c0,0,0,0,0,0.1c0.7,0.9,0.6,2.2-0.2,2.9c-4.4,3.8-10.3,8.5-15.1,8.5c-0.8,0-1.6-0.1-2.3-0.4
	c-3-1.2-4.1-3.9-4.1-6.8c0-1.6,0.3-3.1,0.8-4.5c1.4-4.1,4.6-8.4,7.9-12.3c3.1-3.8,6.7-7.2,10.7-10.1C290.7,30.8,291.8,31,292.5,31.9
	C292.4,31.9,292.4,31.9,292.5,31.9z M284.6,34.4c-2.8-1.4-4.8-3.9-5.6-6.9c-0.8-3.9,2.4-6.2,4.3-6.8c2-0.8,3.9,0.9,3.1,2.6
	c-0.5,1.4-2.1,2.6-2.8,3.4c-0.6-0.7-0.9-1.6-0.7-2.5c0-0.3-0.1-0.5-0.4-0.5l0,0c-0.3-0.1-0.5,0.1-0.5,0.4c-0.2,3.7,3.1,6.8,6.3,7.4
	C287,32.3,285.7,33.3,284.6,34.4L284.6,34.4z"/>
<path class="st1" d="M287,55.8c3.6-3,7.4-6.5,11.2-10.3c-1.7,2.8-2.9,5.9-3.5,9.2c-1.7,1.6-3.5,3.1-5.1,4.4c-0.8,0.7-2,0.6-2.7-0.2
	l-0.1-0.1C286,57.9,286.1,56.6,287,55.8C287,55.9,287,55.8,287,55.8z M295.4,58c0.2-3.8,1.2-7.6,3-11c3.2-5.8,8.1-12,14.1-16
	c3.6-2.6,7.9-4.1,12.3-4.3c1.5,0,3,0.3,4.3,0.9c1.3,0.5,2.1,1.7,2.2,3.1c0,1.7-1.6,3.4-4.8,3.4C315.2,34.3,303.3,48.7,305,46
	c3.7-5.9,11.8-14.5,19.5-14.5c0.7,0,1.3,0.1,2,0.2c1.5,0.3,1.3-0.5,0-0.8c-0.7-0.1-1.3-0.2-2-0.1c-9.2,0-18.1,10.1-22.5,18.3
	c-1.6,2.6-2.5,5.6-2.6,8.7c0,2.6,1.1,3.5,2.6,3.5c2.3,0,5.5-2,7-3.1c3.4-2.3,6.5-5,9.4-7.9c-1.4,2.5-2.3,5.2-2.8,8
	c-1.6,1.3-2.8,2.3-4.3,3.3c-3,2.1-6.4,3.9-9.5,3.9c-0.7,0-1.4-0.1-2.1-0.3C296.5,64.1,295.4,61.3,295.4,58z M316.6,59.2
	c0-9.4,14-24.6,17.2-27.7l2.1-1.9c1.9-1.5,5.7,1,3.5,3.6c-4.5,6.4-9.5,12.4-14.9,18.1c3-5.5,9.7-13.5,13.1-17.4
	c0.2-0.2,0.1-0.5-0.1-0.7s-0.5-0.1-0.7,0.1c-6.1,7.2-15.5,17.9-16.1,25.5c-0.1,1.4,0.1,2.1,1.1,2.6c0.6,0.2,1.9,0.1,4.6-1.2
	c3-1.7,5.8-3.8,8.4-6.1c0.8-0.8,2.1-0.8,2.9,0s0.8,2.1,0,2.9c-0.1,0.1-0.1,0.1-0.2,0.2c-4.3,3.7-10.4,8.6-15,8.6
	c-0.8,0-1.6-0.2-2.3-0.6C318,64.1,316.5,61.8,316.6,59.2L316.6,59.2z"/>
<path class="st1" d="M332.9,55.9c5-4.3,9.9-8.8,14.4-13.5c0.8-0.8,3-3.5,5.7-6.6c-4.4,6.3-8.7,13-12.6,19.1
	c-1.7,1.5-3.3,2.9-4.9,4.2c-0.8,0.7-2.1,0.7-2.8-0.2l-0.1-0.1C331.9,57.9,332,56.6,332.9,55.9z M372,45.4c3-3.5,6.1-6.5,8.2-9.5
	c0.9-1.1,1.6-2.3,2.1-3.6c0.6-1.9-0.7-2.4-2.2-2.4c-1,0-2,0.2-2.9,0.5c-13.8,4.3-29.5,21.6-36.5,34c-0.3,0.6-1,1-1.7,1
	c-1.1,0.1-2.1-0.8-2.2-1.9c0-0.4,0.1-0.7,0.2-1.1c7.5-12.9,15.5-25.7,22.8-35c1.3-1.6,2.5-3.2,4.4-2.2c0.7,0.4,1,1.2,0.9,2
	c-0.5,1.3-1.3,2.5-2.2,3.5l-3.1,4.1c-4.6,3.9-9,8.3-12.9,12.9c-0.2,0.1-0.2,0.4-0.1,0.6l0.1,0.1c0.2,0.2,0.4,0.1,0.6-0.1
	c7.5-8.8,17.7-18.6,28.3-21.9c1.2-0.4,2.5-0.6,3.7-0.6c3.7,0,7,1.9,7,5.4c0,0.9-0.2,1.7-0.5,2.5c-0.7,1.7-1.6,3.2-2.7,4.6
	c-2.3,3-5.5,6.5-8.4,9.7c-3,3.5-5.5,6.5-6.6,9c-0.3,0.7-0.5,1.4-0.5,2.2c-0.1,1.1,0.7,2,1.8,2.1c0.1,0,0.3,0,0.4,0
	c1.2-0.1,2.3-0.4,3.4-1c3-1.8,5.9-3.9,8.5-6.3c0.8-0.8,2.2-0.7,2.9,0.1c0.8,0.8,0.7,2.2-0.1,2.9l-0.1,0.1c-2.8,2.6-5.9,4.9-9.2,6.8
	c-1.6,1-3.5,1.5-5.4,1.6c-3.7,0-6.4-2.5-6.4-6.1c0-1.4,0.4-2.8,1-4C366.2,52.2,369.1,48.7,372,45.4z"/>
<path class="st1" d="M379.9,55.8c3.4-2.8,7.9-7,11.4-10.5c-1.5,2.7-3.5,6.3-4.3,9.9c-1.5,1.3-2.9,2.5-4.5,3.9
	c-0.8,0.7-2.1,0.6-2.8-0.2l-0.1-0.1C378.9,57.8,379,56.6,379.9,55.8z M387.8,57.6c0-1.1,0.1-2.3,0.4-3.4c4.1-13,26.5-40.1,35.5-46.1
	c1.9-1.2,4.5,0.8,3.5,2.8c-1.7,3-6.8,9-9.5,12.4H415l7.7-8.2c0.2-0.2,0.2-0.5,0-0.8c-0.2-0.2-0.5-0.1-0.8,0.1
	c-4.4,5-16.4,17.1-25.1,31.3c-2.2,3.6-4.5,8.5-4.5,12c0,1.7,0.6,3,1.9,3.7c2,0.8,4.6-0.5,10.2-4.9c1-0.8,1.9-1.5,3-2.4
	c0.9-0.7,2.2-0.7,2.9,0.2c0.7,0.9,0.7,2.2-0.2,2.9l0,0c-1,0.9-2,1.8-3.1,2.6c-2.2,1.8-4.6,3.4-7.1,4.7c-1.4,0.8-3,1.2-4.6,1.2
	c-0.8,0-1.6-0.2-2.3-0.4C389.2,64.2,387.8,60.9,387.8,57.6z M397.8,24.1h8.8c-1.2,1.3-2.3,2.8-3.6,4.1h-5.2c-1.1,0-2.1-0.9-2.1-2.1
	C395.8,25.1,396.7,24.2,397.8,24.1z M412.5,29.3c-3.8,4.2-10.8,12.7-14.8,16.6c3.7-5.8,7.7-11.4,12.1-16.6L412.5,29.3z M425,24.3
	c1.1,0,2,0.9,2,2s-0.9,2-2,2h-14.3c1.2-1.5,2.4-2.8,3.5-4.1H425V24.3z"/>
<path class="st1" d="M405.2,55.8c7-5.7,15.1-14.2,20.6-20.1l2.2-2.3l0.2-0.1l1.1-1.3l-0.1,0.1l1.3-1.3c0,0.3,0.1,0.6,0.1,0.9
	c0.2,1.3,0.5,2.7,0.8,4.1l-2.6,2.8c-5.5,5.7-13.7,14.4-21,20.4c-0.9,0.7-2.2,0.6-2.9-0.3C404.2,57.8,404.3,56.5,405.2,55.8
	L405.2,55.8L405.2,55.8z M411.8,60c-0.5-1,0-2.3,1-2.8l0,0c1-0.5,2.3,0,2.8,1c1.2,2.5,3.6,4.2,6.3,4.5c0.8,0.1,1.5,0.1,2.1,0.1
	c6.3,0,9.5-3.9,10.6-10.7c0.1-0.8,0.1-1.5,0.1-2.3c-0.2-4.9-0.9-9.7-2.3-14.3l-0.8-4.2c-1.1-5.5,2.9-10.8,6.7-8.8
	c0.9,0.4,1.5,1.3,1.5,2.4c0,1.9-1.7,4.1-3,5.4l-0.4,0.5c-0.1-0.4-0.1-0.8-0.1-1.2c0-1.1,0.5-2.1,1.3-2.8c0.2-0.2,0.2-0.5,0-0.6l0,0
	c-0.2-0.2-0.5-0.1-0.7,0.1l0,0c-0.9,1-1.5,2.2-1.5,3.6c0,1,0.2,1.9,0.6,2.8c1.1,3.9,2.8,11,2.8,17.2c0,1,0,2-0.1,3
	c-1.1,8.8-6,14.3-14.8,14.3c-0.8,0-1.7-0.1-2.6-0.1C417.1,66.4,413.5,63.8,411.8,60z"/>
</svg>
