<?xml version="1.0" encoding="utf-8"?>
<!-- Generator: Adobe Illustrator 25.2.1, SVG Export Plug-In . SVG Version: 6.00 Build 0)  -->
<svg version="1.1" id="Layer_1" xmlns="http://www.w3.org/2000/svg" xmlns:xlink="http://www.w3.org/1999/xlink" x="0px" y="0px"
	 viewBox="0 0 271.2 87.2" style="enable-background:new 0 0 271.2 87.2;" xml:space="preserve">
<style type="text/css">
	.st0{fill:#7D1E06;}
	.st1{fill:#FFFFFF;}
</style>
<path class="st0" d="M98.5,19.2c-0.2,3.5-1.9,7.9-4.4,11.9c-5.5,7.6-15.7,12.5-26.9,14.5c-0.2,2.3-0.4,4.1-0.5,5.8l-0.2,2.4
	c1.2-0.6,2.2-1.3,3.2-2.1c1-0.7,2.1-1.1,3.3-1.1c1.8,0,3.6,0.8,4.7,2.3l0.3,0.6l4.5,4.5l0.6,0.6c0.5,0.8,0.8,1.8,0.8,2.8
	c0,1.8-0.9,3.5-2.3,4.6c-4.7,3.6-9,5.1-14.2,5.1c-1.7,0-3.4-0.2-5-0.5c-0.1-0.1-0.2-0.1-0.3-0.1c-7,11.7-17.4,16.8-29.1,16.6
	C25.5,87,18.3,84,12.9,78.8l-3.3-3.3C5.8,72.6,3,68.6,1.5,64C0.4,61.6,0,58.9,0,56.3c0.1-6.2,2.6-12.2,7-16.6
	c4.7-4.8,11.1-7.5,17.8-7.5c0.8,0,1.7,0.1,2.6,0.1l-0.2-0.1c-1.1-0.9-2.2-1.9-3.2-3c-4.5-4.5-7-10.6-7-16.9c0-1.8,0.2-3.6,0.6-5.4
	C18.3,4,21.1,2,24.1,2.6c1.4,0.4,2.7,1.3,3.5,2.5l4.6,4.6c0-0.1-0.1-0.1-0.1-0.1l0.2,0.2c1.3,1.3,1.8,3.1,1.5,4.8
	c-0.2,1.1-0.3,2.2-0.3,3.2c0,2.1,0.5,4.2,1.5,6.1c3.6,2.4,7.6,4,11.9,4.8c1.7,0.3,3.5,0.5,5.2,0.6C54.3,19,59.1,10,67.8,4.2
	c3.5-2.4,7.7-3.7,11.9-3.9c3.3,0,6.5,1.1,9,3.2c0.7,0.7,1.4,1.5,2,2.3l3.7,3.7c0.1,0,0.1,0.1,0.1,0.1C97.1,12.2,98.5,15.6,98.5,19.2
	z M49.8,50.4l0.4-4.1c0-0.3,0.1-0.7,0.1-1.1V45c-1.7-0.3-3.4-0.8-5-1.2l0.4,0.3C47.4,45.9,48.8,48,49.8,50.4z M73.1,25.1
	c2.5-1.4,4.6-3.3,6.3-5.7l0.6-0.9c-0.2,0.1-0.4,0.3-0.6,0.4C76.9,20.6,74.8,22.7,73.1,25.1z M94.5,9.6l-0.3-0.4
	C94.3,9.3,94.4,9.4,94.5,9.6z"/>
<path class="st0" d="M122.4,51.1l1,0.8c0.3,0.3,0.5,0.7,0.8,1l4.6,4.6c0.9,1,1.3,2.2,1.3,3.5c0,1.6-0.6,3.1-1.8,4.1
	c-4.8,4-11.4,9.4-17.2,9.4c-1.3,0-2.5-0.3-3.7-0.8l-0.1-0.1c-1.1-0.5-2.1-1.2-2.9-2l-2.3-2.3l-0.4,0.3c-3.5,2.5-7.5,4.6-11.4,4.6
	c-1,0-2-0.1-3-0.4h-0.1c-1.4-0.5-2.8-1.3-3.9-2.3l-3.9-3.9c-0.8,0.5-1.7,0.8-2.6,0.8c-1.4,0-2.7-0.6-3.7-1.7l-0.4-0.4l0.1,0.1
	l-4.1-4.1c-0.6-0.4-1.1-0.8-1.5-1.3h-0.1c-0.9-1-1.4-2.3-1.4-3.6c0-1.7,0.7-3.2,2-4.3c3.6-3,8.6-7.7,13-11.5
	c3.4-5.2,7.6-9.7,12.5-13.4c5-3.7,10.8-6.8,16.3-6.8c1.4,0,2.7,0.2,4.1,0.5c2,0.5,3.7,1.8,4.8,3.5l0.4,0.4c0.3-0.1,0.7-0.1,1-0.1
	c2.4,0,4.7,1.3,6,3.4l4.4,4.4c0.9,0.9,1.5,2.1,1.5,3.5c0,1.3-0.5,2.5-1.4,3.5C129.9,41.5,126.7,46,122.4,51.1z"/>
<path class="st0" d="M162.2,61.3c-1-1.9-1.6-4-1.6-6.1l-2.8,3c-4.1,4.4-8.6,8.4-13.5,11.9c-3.1,2-7,3.9-10.4,3.9
	c-1.9,0-3.7-0.5-5.2-1.5l-0.1-0.1c-0.6-0.3-1.1-0.8-1.6-1.2l-3-3c-1.8,0.4-3.8-0.1-5.1-1.4l-4.3-4.3c-0.7-0.4-1.3-0.9-1.7-1.5
	c-0.9-1-1.3-2.2-1.3-3.5c0-1.6,0.7-3.2,1.9-4.2c2.9-2.3,6.6-5.8,9.7-8.8c5.7-8.3,12.4-15.9,19.8-22.7c1-0.8,2.2-1.2,3.5-1.2
	c2.1,0,4,1.2,5,3l4.4,4.3c0.6,0.7,1.1,1.5,1.4,2.4l0.4-0.5l0.1,0.1c1.4-4,3.7-7.4,6.9-8.8c0.7-0.3,1.4-0.4,2.1-0.4
	c2.1,0.1,4.1,1.3,5.1,3.1l4.3,4.4l0.1,0.2c4.1-3,8.5-5.3,12.4-6.1c0.8-0.1,1.6-0.2,2.4-0.2c3.7-0.1,7.2,1.6,9.3,4.6l4.1,4.1
	c0.9,0.9,1.6,2,2.1,3.2h-0.1c0.7,1.5,1.1,3.1,1.1,4.8c0,3.2-1.3,6.6-3.7,10c-1.4,1.8-2.9,3.4-4.7,4.8l4.1,4.1
	c0.9,0.9,1.3,2.2,1.3,3.5c0,1.6-0.7,3.1-1.9,4.1c-1.2,1.1-2.5,2.1-3.6,3l-0.7,0.5c-4.7,3.6-10.3,5.9-15.7,6.1
	c-4.6,0.2-8.9-1-12.1-4.1l-4.1-4.1c-1.9-1.4-3.4-3.2-4.4-5.3L162.2,61.3z"/>
<path class="st0" d="M242.8,51.5l0.4,0.4L244,53l4.6,4.6c0.9,1,1.4,2.2,1.4,3.5c0,1.6-0.7,3.1-1.9,4.1c-3.1,2.6-6.4,5-9.8,7.2
	c-2.2,1.3-4.7,2.1-7.3,2.3c-1.5,0-3-0.4-4.3-1.2c-0.5-0.3-0.9-0.6-1.3-1l-2.8-2.8l-0.3,0.3c-3.6,2.3-7.4,4.5-11.3,4.5
	c-1,0-2-0.2-3-0.5l-0.1-0.1c-1.4-0.5-2.7-1.2-3.8-2.3l-4-4c-0.8,0.5-1.7,0.7-2.7,0.7c-1.4,0-2.7-0.5-3.7-1.4l-4.4-4.4
	c-0.6-0.4-1.1-0.8-1.5-1.2c-0.9-1-1.4-2.3-1.4-3.6c0-1.6,0.7-3.2,2-4.3c3.1-2.6,6.2-5.2,13.4-12.1c3.5-4.8,7.6-9.1,12.2-12.9
	c5-3.7,10.8-6.7,16.3-6.7c1.4,0,2.7,0.2,4.1,0.5c1.8,0.6,3.4,1.7,4.5,3.2c6-7.2,11.9-13.8,15.9-17.2c1.6-1.5,3.6-2.4,5.8-2.6
	c1.9,0.1,3.6,1,4.7,2.6l4.5,4.5c1.8,1.9,2,4.8,0.5,6.9C265.2,26.8,252.3,42,242.8,51.5z"/>
<path class="st1" d="M3.5,56.3c0-5.3,2.2-10.4,6-14.1c4-4.1,9.6-6.4,15.3-6.4c1.7,0,3.4,0.2,5.1,0.6c8.1,1.9,12,7.9,12.4,14.1
	c0.1,2.8-0.5,5.6-1.7,8.1c-2.4,5.3-7.8,8.6-13.6,8.4c-5.3-0.1-9.6-4.1-9.6-8.9c0-0.7,0.1-1.5,0.3-2.2c0.7-2.6,2.3-4.8,4.6-6.1
	c2.2-1.1,4.7-1.6,7.2-1.3c2.6,0.2,5.1,0.8,7.5,1.7c0.2,1.5,0.1,2.9-0.3,4.3c-2.4-0.9-4.9-1.5-7.5-1.7c-1.7-0.2-3.4,0.1-4.9,0.8
	c-1.3,0.8-2.2,2.1-2.6,3.5c-0.7,2.6,1.7,5.6,5.3,5.7c4.4,0.2,8.4-2.5,10.1-6.5c0.6-1.5,1-3.1,1-4.8c0-1-0.1-1.9-0.4-2.8
	c-1-3.7-3.7-7-8.8-8.2C27.6,40.2,26.3,40,25,40c-4.7,0-9.2,1.9-12.5,5.2c-3,2.9-4.7,7-4.7,11.2c0,1.8,0.3,3.6,0.8,5.2
	C11.3,69.8,20,74,27.5,74.1c10.1,0.2,18.4-3.7,22.8-12.7c1.3,0.3,2.7,0.8,4.1,1.1c-5,11.2-15,16.1-27,15.9C18.7,78.2,8,73.4,4.6,63
	C3.8,60.8,3.5,58.6,3.5,56.3z M26.5,26.9c-3.9-3.8-6.1-9-6.1-14.5c0-1.6,0.2-3.2,0.6-4.8c0.2-1.1,1.2-1.8,2.3-1.6h0.1
	c1.1,0.2,1.9,1.3,1.7,2.5c-0.3,1.3-0.4,2.6-0.4,3.9c0,4.3,1.8,8.5,4.8,11.5c3.9,4.1,9.9,6.9,16.6,8.3c2.6,0.5,5.1,0.8,7.7,0.8
	c-0.2,1.5-0.4,2.8-0.5,4.3c-2.7-0.1-5.3-0.4-7.9-1C38,34.8,31.2,31.7,26.5,26.9z M50.7,60.4l-2-0.6c-2.1-0.7-4.1-1.6-6-2.6L42.4,57
	c0.4-1.4,0.7-2.8,0.8-4.3c0.5,0.2,0.9,0.4,1.3,0.6c1.7,0.9,3.5,1.6,5.3,2.3c4.4,1.7,8.1,2.8,11.5,2.8c3.7,0,7-1.2,10.6-4
	c1-0.7,2.3-0.5,3,0.5C75.4,56,75,57.3,74,58c-4.1,3.1-7.8,4.4-12.2,4.4c-1.5,0-3-0.2-4.4-0.4C55.1,61.6,52.8,61.1,50.7,60.4z
	 M52.5,54.7c1.2-5.4,0.9-7.9,1.9-17.4C55.7,24.7,60,13.5,69.8,7.1c3-2,6.4-3.2,10-3.3c2.5-0.1,4.9,0.8,6.8,2.4
	c2.1,1.9,3.3,4.6,3.2,7.4c-0.1,3-1.4,6.4-3.9,10.1C80.3,32,70.2,36.2,59.8,37.1c0.1-1.5,0.3-3,0.6-4.4l1.5-0.1
	c8.5-1.2,16.2-5,20.4-11.2c2.3-3.3,3.1-5.9,3.2-7.9c0.1-1.5-0.5-3-1.7-4.1c-1.2-0.9-2.6-1.4-4.1-1.3c-2.7,0.1-5.4,1-7.6,2.6
	c-6,3.9-9.4,9.5-11.4,16.2l-0.4,1.5c-0.8,2.9-1.3,5.9-1.7,8.9c-1,10.1-0.8,12.8-2.1,18.4c0,0.3-0.1,0.6-0.1,0.9
	c-1.4-0.3-2.8-0.6-4.1-1.1L52.5,54.7z"/>
<path class="st1" d="M70,55.8c3.6-3,7.4-6.5,11.2-10.3c-1.7,2.8-2.9,5.9-3.5,9.2c-1.7,1.6-3.5,3.1-5.1,4.4c-0.8,0.7-2,0.6-2.7-0.2
	l-0.1-0.1C69,57.9,69.1,56.6,70,55.8C69.9,55.9,70,55.8,70,55.8z M78.3,58c0.2-3.8,1.2-7.6,3-11c3.2-5.8,8.1-12,14.1-16
	c3.6-2.6,7.9-4.1,12.3-4.3c1.5,0,3,0.3,4.3,0.9c1.3,0.5,2.1,1.7,2.2,3.1c0,1.7-1.6,3.4-4.8,3.4C98.1,34.4,86.2,48.8,87.9,46
	c3.7-5.9,11.8-14.5,19.5-14.5c0.7,0,1.3,0.1,2,0.2c1.5,0.3,1.3-0.5,0-0.8c-0.7-0.1-1.3-0.2-2-0.1c-9.2,0-18.1,10.1-22.5,18.3
	c-1.6,2.6-2.5,5.6-2.6,8.7c0,2.6,1.1,3.5,2.6,3.5c2.3,0,5.4-2,7-3.1c3.4-2.4,6.5-5,9.4-7.9c-1.4,2.5-2.3,5.2-2.8,8
	c-1.6,1.3-2.8,2.3-4.3,3.3c-3,2.1-6.4,3.9-9.5,3.9c-0.7,0-1.4-0.1-2.1-0.3C79.4,64.1,78.3,61.3,78.3,58z M99.6,59.2
	c0-9.4,14-24.6,17.2-27.7l2.1-1.9c1.9-1.5,5.7,1,3.4,3.6c-4.5,6.4-9.5,12.4-14.9,18.1c3-5.5,9.7-13.5,13.1-17.4
	c0.2-0.2,0.1-0.5-0.1-0.7s-0.5-0.1-0.7,0.1l0,0c-6.1,7.2-15.5,17.9-16.1,25.5c-0.1,1.4,0.1,2.1,1.1,2.6c0.6,0.2,1.9,0.1,4.6-1.2
	c3-1.7,5.9-3.8,8.4-6.2c0.9-0.8,2.2-0.7,3,0.1c0,0,0,0,0,0.1c0.7,0.9,0.6,2.2-0.2,2.9c-4.3,3.7-10.4,8.6-15,8.6
	c-0.8,0-1.6-0.2-2.3-0.6C100.9,64.1,99.5,61.8,99.6,59.2z"/>
<path class="st1" d="M115.8,55.8c2.7-2.1,6.1-5.4,8.9-8.1c-1.5,2.7-2.5,5.6-3.2,8.5c-1,1-2,1.9-3.1,2.7c-0.8,0.7-2.1,0.6-2.8-0.2
	l-0.1-0.1C114.8,57.8,114.9,56.5,115.8,55.8z M122.3,58.8c0-0.9,0.1-1.8,0.3-2.6c0.6-3,2.3-6.6,4.6-10.4c4.9-8,11-15.2,18.1-21.5
	c0.9-0.8,2.3-0.6,3.1,0.3c0.6,0.7,0.7,1.7,0.2,2.4c-3.1,5-9,11.7-14.8,17.7c3.9-5.8,8.2-11.2,13.1-16.1c0.2-0.2,0.2-0.4-0.1-0.6
	c-0.1-0.2-0.4-0.2-0.5-0.1l-0.1,0.1c-5.9,6-12,13.5-15.9,20.6c-1.6,2.6-2.8,5.4-3.7,8.3c-0.5,2.9,0.6,3.9,2.1,3.9
	c1.9,0,4.6-1.5,6.1-2.6c4.5-3.1,8.6-6.8,12.3-10.9c4.6-4.9,8.9-10.1,12.4-14.5c-0.6,2.5-0.9,5-0.8,7.5c-2.7,3.2-5.7,6.6-8.7,9.9
	c-3.9,4.2-8.3,8.1-13,11.5c-2.7,1.8-5.8,3.3-8.6,3.3c-1.2,0-2.4-0.3-3.4-1C123.1,63.1,122.1,61,122.3,58.8L122.3,58.8z M164,48.7
	L164,48.7c-1.5-1.1-2.7-2.6-3.4-4.2c-0.7-1.9-1-3.9-1-5.9c0-5.8,2.1-12.6,6.4-14.5c2-0.8,4.1,1.6,2.8,3.2l-3,4.1
	c0.5-1.3,1.1-2.6,1.9-3.8c0.1-0.2,0.3-0.7,0-0.9c-0.2-0.1-0.5-0.1-0.7,0.2l0,0c-2.2,3.4-3.4,7.2-3.4,11.2c-0.1,2.3,0.6,4.6,2.1,6.3
	c-0.5,0.9-0.8,1.9-1.2,2.8L164,48.7z M164.1,54.2c0-5.7,3.4-11.7,6.5-15.6c4.9-6.4,12.5-12,18.7-13.1c3.9-0.6,7.4,0.8,8.8,4.1
	c0.5,1.1,0.8,2.3,0.8,3.5c-0.1,2.9-1.2,5.8-3,8.1c-5.2,6.8-13.1,9.9-21,9.9c-1.7,0-3.4-0.1-5.1-0.4c0.3-1.4,0.9-2.7,1.6-3.9
	c1.2,0.2,2.3,0.3,3.5,0.3c6.7,0,13.5-2.7,17.7-8.3c2.5-3.5,2.5-5.9,1.9-7.3s-2-2.3-4.4-1.8c-4.8,0.9-11.5,5.5-16.1,11.6
	c-2.6,3.5-5.7,8.3-5.7,12.8c0,1.4,0.3,2.8,1,4c1.4,2.8,4,3.9,6.9,3.9c4.6,0,9.8-2.5,12.5-4.6l3.9-3.3c0.9-0.7,2.2-0.7,2.9,0.2
	s0.7,2.2-0.2,2.9c-1.4,1.3-2.8,2.3-4.1,3.4c-4,3.2-8.8,5.1-13.9,5.5c-4.8,0.2-9.3-1.4-11.7-6.1C164.5,58.1,164,56.2,164.1,54.2
	L164.1,54.2z"/>
<path class="st1" d="M190.4,55.8c3.6-3,7.4-6.5,11.2-10.3c-1.7,2.8-2.9,5.9-3.5,9.2c-1.7,1.6-3.5,3.1-5.1,4.4
	c-0.8,0.7-2,0.6-2.7-0.2l-0.1-0.1C189.4,57.9,189.5,56.6,190.4,55.8C190.4,55.9,190.4,55.8,190.4,55.8z M198.8,58
	c0.2-3.8,1.2-7.6,3-11c3.2-5.8,8.1-12,14.1-16c3.6-2.6,7.9-4.1,12.3-4.3c1.5,0,3,0.3,4.4,0.9c1.3,0.5,2.1,1.7,2.2,3.1
	c0,1.7-1.6,3.4-4.8,3.4c-11.3,0.1-23.3,14.6-21.5,11.8c3.6-5.9,11.8-14.5,19.5-14.5c0.7,0,1.3,0.1,2,0.2c1.5,0.3,1.3-0.5,0-0.8
	c-0.7-0.1-1.3-0.2-2-0.1c-9.2,0-18.1,10.1-22.5,18.3c-1.6,2.6-2.5,5.6-2.6,8.7c0,2.6,1.1,3.5,2.6,3.5c2.3,0,5.4-2,7-3.1
	c4.4-3.1,8.6-6.5,12.5-10.1c-1.2,2.3-3.4,5.8-4.1,8.8c-1.6,1.3-4.7,3.7-6.1,4.8c-3,2.1-6.4,3.9-9.5,3.9c-0.7,0-1.4-0.1-2.1-0.3
	C199.9,64.1,198.8,61.3,198.8,58z M221.1,61.3c0-13.5,34.1-52.3,38.2-52.8c2.3-0.3,4.1,1.8,2.8,3.6c-5.1,7.5-20.8,26.2-30,35.3
	c7.2-11.3,22.1-28.7,27.5-34c0.2-0.2,0.1-0.4-0.1-0.7c-0.1-0.2-0.4-0.2-0.5-0.1l-0.1,0.1C255,16.2,242.2,31,234.4,42
	c-6.3,9-10.6,17.9-8.8,19.1c0.4,0.3,1,0.6,3.6-0.8c3-1.9,5.9-4,8.6-6.4c0.9-0.7,2.2-0.7,2.9,0.2s0.7,2.2-0.2,2.9
	c-2.8,2.6-5.9,4.9-9.2,6.9c-1.8,1.1-3.7,1.7-5.8,1.9c-0.9,0-1.8-0.2-2.6-0.7C221.6,64.3,220.9,62.9,221.1,61.3L221.1,61.3z"/>
</svg>
