<?xml version="1.0" encoding="utf-8"?>
<!-- Generator: Adobe Illustrator 25.2.1, SVG Export Plug-In . SVG Version: 6.00 Build 0)  -->
<svg version="1.1" id="Layer_1" xmlns="http://www.w3.org/2000/svg" xmlns:xlink="http://www.w3.org/1999/xlink" x="0px" y="0px"
	 viewBox="0 0 980.1 234.8" style="enable-background:new 0 0 980.1 234.8;" xml:space="preserve">
<style type="text/css">
	.st0{fill:#7D1E06;}
	.st1{fill:#FFFFFF;}
</style>
<path class="st0" d="M43.7,149.4c-8-6.2-11.7-16.5-11.7-28.5c0-8.8,2.7-19.6,6.7-29c0.9-1.8,1.8-3.9,3-5.9c-2.3-1.9-4.5-3.9-6.6-6.1
	l-4.9-4.8c-6-4.8-11.3-10.4-15.9-16.6c-1.3-2.1-2-4.5-1.9-7c-0.1-3.9,1.7-7.7,4.9-10c2.1-1.4,4.6-2.2,7.1-2.2c3.7,0,7.3,1.8,9.5,4.8
	l1,1.6l9.5,9.4l0.9,1c3.3,2.8,6.8,5.3,10.5,7.6c3.7-5.1,7.6-10,11.6-14.6c3.6-4,7-7.7,10.2-10.8c19.9-18.7,47.8-35.6,69.5-35.6
	c7.8-0.1,15.4,2.3,21.7,7c2.3,1.9,4.4,4.1,6.2,6.5l8.5,8.3c5.1,4.9,7.9,11.8,7.7,18.9c0,2.4-0.2,4.9-0.8,7.3h-0.1
	c-0.3,1.8-0.8,3.5-1.3,5.2l6.3,6.3c2.2,2.4,3.7,5.2,3.3,8.3h0.1c-0.9,7.3-8.2,18.7-16.6,29c-3.7,4.6-7.9,8.8-12.3,12.7h-0.1
	l-0.1,0.2c2.1,0.7,4,1.9,5.5,3.6l1,1.6l9.8,9.7l0.9,1c1.6,2,2.5,4.5,2.5,7c0,3.5-1.6,6.8-4.3,9.1c-14.2,11.7-40.5,26.4-55.8,30.6
	l0.1,0.1c-2.9,0.9-5.8,1.7-8.8,2.4l-1,1.2c-17.5,22.7-36.4,42.8-54.8,51.8c-6,3-12.6,4.6-19.3,4.8c-9.8,0-18.4-3.6-24.4-9.5l-8-8
	c-8.1-5.6-13-14.9-12.9-24.8c0-6.8,2.4-14.8,8-22.7C17.1,157,29.4,151.9,43.7,149.4z"/>
<path class="st0" d="M157.1,136.2c-1.3-0.7-2.5-1.7-3.4-2.8c-1.9-2.1-3-4.9-3-7.7c0-3.5,1.5-6.9,4.1-9.2
	c5.4-4.2,11.7-10.2,19.2-17.4c8.3-20.9,27.9-41,46.3-48.5c4.2-1.7,8.8-2.6,13.4-2.7c8.5,0,15.6,3.6,19.8,9.7l9.1,9.1
	c4,4,6.2,9.7,6.2,16.6c0,2.5-0.3,5-0.9,7.4c-2.4,9.7-8.6,18-16.6,24.6c0.2,0.3,0.4,0.6,0.6,0.9l9.8,9.7c1.8,2,2.9,4.7,2.8,7.4
	c0,3.4-1.4,6.6-4,8.9c-2.9,2.7-6,5.3-9.2,7.6c-10.1,7.7-22.4,12.8-33.8,13.2c-9.4,0.4-19.3-1.9-26.1-8.8l-8.5-8.5
	c-0.1-0.1-0.2-0.1-0.3-0.1l-0.6,0.4l0.1,0.1c-2,1.8-4.6,2.8-7.3,2.8c-3.1,0-6.1-1.3-8.3-3.4L157.1,136.2z"/>
<path class="st0" d="M272.6,46.5h18.3c12.8-14.9,25.2-27.5,33.3-33.1c1.9-1.3,4.2-2,6.5-2.1c4.6,0.1,8.9,2.6,11.3,6.5l9.7,9.6
	c2.2,2.1,3.4,5,3.4,8c0,1.8-0.5,3.6-1.3,5.2c-3.1,5-6.5,9.8-10.2,14.3l7.6,7.4c2.1,2.1,3.3,4.9,3.3,7.9c0.2,6.2-4.7,11.3-10.9,11.4
	c-0.2,0-0.4,0-0.5,0H321l-24.5,27.9c3.2,0.1,6.2,1.6,8.3,4c0.6,0.7,1.1,1.4,1.6,2.2l10,10c1.8,2,2.9,4.7,2.8,7.4
	c0,3.4-1.5,6.6-4,8.9c-1.8,1.8-3.8,3.5-5.8,5.1l-1.5,1c-5.9,4.5-11.6,8.5-16.2,10.7l-0.1-0.1c-3.9,2.1-8.3,3.3-12.8,3.4
	c-2.5,0-4.9-0.4-7.3-1.2l-0.1-0.1c-3.3-1-6.4-2.8-8.9-5.2l-8.2-8.2c-1.6,1-3.5,1.5-5.4,1.5c-3.1,0-6.1-1.2-8.3-3.4l-9.4-9.4
	c-1.3-0.7-2.5-1.7-3.4-2.8c-1.9-2-3-4.8-3-7.6c0-3.5,1.5-6.9,4.2-9.2c7.3-5.9,18-16,27.6-24.2c3.9-6.4,8.5-13.1,13.5-19.9l-3.4-3.7
	c-3.8-2-6.2-6.1-6.1-10.4C260.8,51.9,266.1,46.6,272.6,46.5z"/>
<path class="st0" d="M394.6,150c-10.4-8.8-16.3-22-16.3-38.2c0.1-5.2,0.6-10.3,1.6-15.4c-11.4-9.8-17.9-24.2-17.8-39.2
	c0-16.3,7.4-34.2,24.5-51.2c2.2-1.7,4.9-2.7,7.7-2.7c3.2,0,6.2,1.1,8.7,3.1l1.2,1.9l10.4,10.3c1.9,2.4,3,5.4,3,8.5
	c0.1,2.9-1,5.7-3,7.9c-5.4,5.3-9.9,11.4-13.4,18.1c16.6-21.7,39.4-39.2,62.7-47.5c8.6-2.8,20.6-5.6,32.3-5.6c15.1,0,30.3,4,39.2,16
	l8.5,8.3c3.9,4,6.8,8.8,8.5,14.1c0.6,2.8,0.9,5.7,1,8.6c0,17.2-15,35.8-31.9,48.8c-21,15.2-52.2,27.5-84.4,27.5
	c-7.8,0.1-15.6-1.1-23-3.4c-0.1,1.6-0.1,3-0.1,4c-0.1,4.2,0.6,8.4,2.1,12.3c4.3,2,9,3.1,13.8,3.1c25.2,1.5,52.9-14.4,68-26.6
	c2.1-1.9,4.8-2.9,7.6-3c3.5,0,6.9,1.4,9.2,4l1.2,1.8L526,126c1.7,2.1,2.7,4.8,2.7,7.6c0,3.4-1.4,6.6-4,8.8
	c-16.9,14.6-48.5,32.1-79.1,32.1c-2.1,0-4,0-5.8-0.1c-15.1-1-27.2-6.2-35.6-14.7L394.6,150z M424.2,87.8h0.9c27.5,0,53-10,70.4-22.7
	c14.1-10.4,22-21.2,22.6-29c-3-0.8-6.1-1.2-9.2-1.2c-8.7,0.2-17.3,1.7-25.5,4.6h0.1C461.6,47.3,437.7,63.9,424.2,87.8z"/>
<path class="st0" d="M622.4,67.8c7.7-9.7,18.9-18.1,30.1-19.3c10.5-0.7,18.4,3.4,23,10.1l9.1,8.9c4.6,4.9,7,11.3,6.8,18
	c0,1.5-0.1,3-0.3,4.4l0.2,0.2c-1.3,9.2-5.5,18.9-11.1,27.8l7.3,7.1c2.3,2.4,3.6,5.6,3.6,8.9c0,3.5-1.6,6.9-4.3,9.2
	c-8.6,7.6-19.8,12.2-31,12.2c-3.5,0-7-0.4-10.4-1.3c-10,5.5-18.6,8.8-24.7,8.3c-5.4-0.2-10.5-2.5-14.4-6.2l-9.2-9.2
	c-3.9-2.8-6.8-6.7-8.5-11.1c-14.7,15.9-30.7,27.8-43.7,27.8c-4.7,0-9.4-1.1-13.7-3.3l-0.2-0.1c-2.2-1-4.1-2.4-5.8-4.2l-7.9-7.9
	c-1.5,0.7-3.2,1.2-4.9,1.2c-3,0-5.8-1.3-7.9-3.4l-9.5-9.5c-1.3-0.8-2.5-1.8-3.4-3c-1.9-2.1-2.9-4.8-3-7.6c0.1-3.5,1.6-6.8,4.3-9.1
	c5.3-4.6,13.1-11.4,18.9-16.9c6.1-9.5,13.8-19.9,23.2-26.4l2.2-1c6.7-13.4,20.9-21.5,36.8-21.5c8,0,16.8,3.1,22,10.7l9.1,8.9
	c1.4,1.8,2.7,3.7,3.8,5.7C610.8,74.4,616.4,68.5,622.4,67.8z"/>
<path class="st0" d="M650.9,126c0-3.5,1.7-6.9,4.5-9.1c8.6-7,16.8-15,41.9-38.8c5.2-7.6,10.4-14.8,15.4-21.4
	c15.9-20.8,32.5-39.7,43.8-48.5c2.1-1.5,4.7-2.4,7.3-2.4c4.8,0,8.8,2.1,12.2,6.1l8.8,9.9c2,2,3.1,4.6,3.1,7.4
	c-0.1,2.2-0.7,4.4-1.8,6.4c-3.1,5.4-6.7,10.5-10.7,15.2c2.6,1.3,4.8,3.3,6.2,5.8l9.5,9.4c2.7,2.7,4.3,6.3,4.8,10.1
	c1.6,11.7-7,26.3-18.1,36.5l1.6,1.5l1.3,2.1l0.2,0.2l10.1,10c1.8,2.1,2.7,4.7,2.7,7.4c0,3.4-1.4,6.6-3.9,8.9
	c-2.8,2.8-2.2,1.9-2.4,1.9l-0.2,0.1l-0.1-0.1c-2.5,2.2-4.6,4.1-7.3,6.1c-11.3,8.5-21.4,12.6-31.8,11.1l-0.3-0.1
	c-5.4-0.9-10.3-3.5-14.2-7.3l-9.1-9.1c-4.5-3.4-8-8-10-13.4c-0.3-0.5-0.5-1.1-0.6-1.6c-7.7,9.1-14.4,17.7-18.7,25.7
	c-2,3.6-5.7,5.8-9.8,5.9c-3.2,0-6.3-1.3-8.6-3.6c-12.6-11.1-15-14.3-15.4-18l-4.2-4.3c-1.2-0.8-2.3-1.7-3.3-2.7
	C652,131.5,650.9,128.8,650.9,126z"/>
<path class="st0" d="M856.8,35.4l9.7,9.5c2,2.1,3.2,4.9,3.3,7.9c-0.1,2.9-1.2,5.7-3.1,7.9c-1.4,1.3-2.7,2.7-3.9,4.2l-1.8,2.1
	c-2.2,2.3-5.1,3.8-8.3,4c1.4,3,0.9,6.6-1.2,9.2l-0.3,0.3l-1.3,1.8c-3.7,5-12.8,17.1-22.6,28.8c1.3,0.7,2.5,1.6,3.6,2.7
	c0.6,0.7,1.1,1.4,1.6,2.2l9.9,10c1.8,2,2.9,4.7,2.8,7.4c0,3.4-1.4,6.6-3.9,8.9C831,151,816.9,162,804.3,162c-2.5,0-5.1-0.4-7.4-1.3
	c-2.5-1-4.8-2.4-6.7-4.3l-8.2-8.1c-4.1,1.6-8.8,0.5-11.9-2.7l-9.4-9.4c-1.3-0.7-2.4-1.7-3.4-2.8c-1.9-2.1-3-4.9-3-7.7
	c-0.1-3.6,1.5-7,4.3-9.2c7.6-6.4,19.2-16.6,30.7-26.9c6.2-9.2,20.3-26,31.6-36.8c2-1.6,4.5-2.5,7.1-2.5h0.6
	c-0.2-0.8-0.3-1.7-0.3-2.5c0.1-2.9,1.2-5.8,3.1-8c0.6-0.7,1.2-1.3,1.8-2.1l0.9-1l3.7-4c2.2-2.3,5.2-3.6,8.3-3.6
	C850.7,29,854.7,31.5,856.8,35.4z"/>
<path class="st0" d="M805.2,125.7c0-3.4,1.5-6.7,4.2-8.9c9.7-7.7,21.1-19,30.3-28.4l14-14.1c4.4-6.2,8.9-12.3,13.2-17.8
	c3.3-4.2,6.5-8.5,12-8.5c2.7,0.1,5.3,0.9,7.6,2.2c1.5,1.1,2.7,2.5,3.6,4.2l2.7,2.8c3.9-2.1,8-4,12.2-5.5c3.4-1.1,6.9-1.6,10.4-1.6
	c8.5,0,16,3.3,19.9,9.5l9,9c3.3,3.3,5.1,7.8,4.9,12.4c0,2.7-0.5,5.3-1.5,7.9h-0.2c-1.5,4.2-3.7,8.2-6.5,11.7
	c-3.1,4-6.5,8.2-10.1,12.2l1.2,1l1.5,2.1l10.1,10.1c1.8,2.2,2.8,4.9,2.8,7.7c0,3.3-1.5,6.5-4,8.6c-7.1,6.1-14.7,11.9-20.9,15.4
	c-4.6,2.6-9.7,4.1-15,4.3c-5.6,0.1-11.1-2-15.1-5.9l-8.6-8.6c-5.8-3.6-9.4-9.6-9.4-17.5c0-2.8,0.4-5.5,1.3-8.2
	c-10.4,11.3-19.5,23.3-25.4,34c-1.9,3.6-5.7,5.9-9.8,5.8c-3.2,0-6.2-1.3-8.4-3.6c-12.6-11.1-15-14.1-15.6-17.8l-3.9-4
	c-1.4-0.8-2.6-1.8-3.6-3C806.2,131.1,805.2,128.4,805.2,125.7z"/>
<path class="st0" d="M935.1,48.2c0-3.4,1.5-6.6,4-8.8c3.1-3.1,5.6-6.1,6.1-8.5c1.4-6.4,7.4-10.6,13.9-9.6c3.2,0.8,5.9,2.8,7.7,5.5
	l10.1,10c2.7,2.6,3.8,6.4,3.1,10.1c-1.5,9-7.7,16.6-13.5,21.7h0.2c-2,1.8-4.7,2.9-7.4,2.8c-3.2,0-6.3-1.2-8.6-3.6
	c-10.5-10-11.6-10.9-12.4-11.8C936.2,53.9,935.1,51.1,935.1,48.2z"/>
<path class="st1" d="M92.8,151.8c22.3-3,52.9-19,70.1-32.2c2-1.5,4.8-1.1,6.4,0.9c1.6,1.9,1.3,4.8-0.7,6.3c0,0,0,0,0,0
	c-13.7,11.4-39.2,25.5-53.4,29.4c-35.2,11.6-77.9,1.2-94.1,24.6c-3,4.3-4.3,8.3-4.3,11.9c0,8.5,7.4,14.1,16.9,14.1
	c4.2,0,8.4-1.1,12.2-3c13.7-6.7,29-21.7,43.8-40.4c4.4-0.5,8.7-1.2,13.1-2.1l-0.6,0.8c-17.1,22.1-35.2,41.6-52.3,49.9
	c-5.1,2.5-10.7,3.9-16.3,4c-14.7,0-26-9.9-26-23.5c0-5.6,1.9-12,6.5-18.4C30.1,151.6,60.7,156.5,92.8,151.8z M50.6,79.9
	c-11.8-6.3-22.1-15-30.1-25.7c-1.5-2.1-1-5,1-6.5c2.1-1.5,5-1.1,6.5,0.9c5.9,8.3,15.3,16.5,26.9,23l1,0.6c-1.8,2.5-3.5,5.1-4.9,7.9
	L50.6,79.9z M39.3,120.9c0-8,2.1-17.1,6.1-26.1c6.8-16.5,23.5-38.6,37.3-51.2C101.6,25.7,127.1,10,147.1,10
	c6.2-0.2,12.2,1.7,17.2,5.3c5.1,3.7,8.1,9.7,8,16c0,1.9-0.2,3.8-0.6,5.6c-1.5,7.9-6.4,16-13.2,23.6C145,75.4,122.5,88.7,98.9,90.1
	c-2.2,0.2-4.3,0.2-6.4,0.2c-8.6,0.1-17.2-1.1-25.5-3.4l-3.6-1.5c1.3-2.7,3.3-5,4.9-7.9c7.6,2.4,15.6,3.7,23.6,3.7
	c2.1,0,4.3-0.2,6.4-0.3c21.1-1.3,41.4-13.1,53.4-26.6c6.1-6.8,10.1-13.5,11.1-19.2c1.2-5.5,0-9.6-4-12.3c-3.6-2.4-7.8-3.7-12.2-3.6
	c-15.6,0-38,12-57.9,30.7C76.8,62,61,82.4,53.9,98.3c-3.1,6.6-4.8,13.9-4.9,21.2c0,10.8,4.5,20.5,18,19.7
	c20.2-1,57.3-33.2,69.9-46.3c-4.5,7.4-13.8,20.2-16.2,24.7c-7.4,7.9-34.3,31.5-56.3,30.9C47.2,148.1,39.3,136.3,39.3,120.9
	L39.3,120.9z M102.6,146c11.6-14,27.5-38.2,37.3-53l0.1-0.2c12.2-17.4,22.7-31.9,30.7-39.6c3.1-3.1,9.6,0.3,9,4.3
	c-0.7,6.2-7,15.9-15,25.4c-5.1,6.1-7.4,8-14.2,14.2L174,63.6c0.4-0.6,0.4-1.2-0.1-1.3c-0.1-0.5-0.9-0.2-1.3,0.2
	c-21.2,30.1-39.5,56-56.6,80.9c-4.8,1.9-10.4,4.3-15.1,5.1L102.6,146z"/>
<path class="st1" d="M159.8,122.1c6-4.9,11.8-10.1,17.4-15.6c-1.5,4.6-2.2,9.4-2.2,14.2c-3.4,3-6.4,5.8-9.5,8.3
	c-1.9,1.5-4.6,1.2-6.1-0.6c0,0-0.1-0.1-0.1-0.1C157.6,126.4,157.9,123.7,159.8,122.1z M177.4,118.5c0-23.9,23.9-52.1,45.7-61
	c3.3-1.4,6.9-2.2,10.5-2.2c9.4,0,16.2,6.1,16.2,16c0,2-0.3,3.9-0.7,5.8c-5,20.9-31.8,35-50.9,35c-3.1,0-6.2-0.4-9.2-1.3
	c1-2.9,2.2-5.8,3.7-8.5c1.8,0.4,3.7,0.6,5.6,0.6c10.7,0,24.4-5.9,33-13.5c4.3-3.7,9.7-11.4,9.7-17.6c0.1-1.8-0.5-3.6-1.6-5.1
	c-0.9-1.2-2.8-1.8-5.5-1.8c-3.9,0.2-7.8,1.1-11.3,2.8c-13.5,6.5-29.7,24.8-34.4,38.9c-1.2,3.3-1.8,6.8-1.8,10.2
	c0,10.2,5.8,18.9,18.4,18.3c8.2-0.4,17.4-4,25.1-10c2.8-2.2,5.5-4.5,8.5-7c1.8-1.6,4.6-1.4,6.2,0.4c1.6,1.8,1.4,4.6-0.4,6.2
	c-2.8,2.6-5.8,5-8.9,7.3c-8.9,7-19.9,11.4-30,11.9s-20.9-3-25.2-13.1C178.2,127,177.4,122.8,177.4,118.5z"/>
<path class="st1" d="M234,122.1c7.3-5.9,16.9-15,24.5-22.6c-3.1,5.8-7.6,13.7-9.2,21.2c-3.1,2.8-6.2,5.5-9.6,8.3
	c-1.9,1.5-4.6,1.2-6.1-0.6c0,0-0.1-0.1-0.1-0.1C231.9,126.4,232.1,123.7,234,122.1z M251.1,126c0-2.5,0.3-4.9,0.9-7.3
	c8.8-28.1,57-86.3,76.3-99.2c4-2.7,9.8,1.6,7.4,5.9c-3.6,6.3-14.7,19.2-20.5,26.5h-5.8l16.5-17.8c0.4-0.5,0.4-1.2,0-1.6
	c-0.5-0.4-1.2-0.1-1.6,0.3c-9.5,10.7-35.2,36.8-54,67.4c-4.8,7.7-9.6,18.4-9.6,25.8c0,3.6,1.2,6.5,4.2,7.9c4.3,1.6,10-1.2,22-10.5
	c2.2-1.6,4.2-3.3,6.4-5.2c1.8-1.6,4.6-1.4,6.2,0.4c1.6,1.8,1.4,4.6-0.4,6.2c-2.1,2-4.3,3.9-6.7,5.6c-5.5,4.2-10.5,7.9-15.3,10.1
	c-3.1,1.7-6.5,2.6-10,2.7c-1.7,0-3.4-0.3-5-0.9C253.9,140.1,251.1,133.1,251.1,126z M272.6,54h19c-2.5,2.8-4.9,5.9-7.7,8.9h-11.3
	c-2.5,0-4.4-2-4.5-4.5C268.2,56,270.1,54,272.6,54L272.6,54z M304.2,65c-8.2,9.1-23.3,27.3-31.8,35.8c5.2-8.9,18.4-26.9,26-35.8
	H304.2z M330.9,54.2c2.4,0,4.4,2,4.4,4.4s-2,4.4-4.4,4.4c0,0,0,0,0,0h-30.7c2.5-3.1,5.2-5.9,7.4-8.8L330.9,54.2z"/>
<path class="st1" d="M392.1,82.2c12.6-31,42.2-58.6,74.1-69.6c9.7-3.3,19.8-5,30-5.2c16,0,32.1,5,37.6,21.5c0.5,2,0.7,4.1,0.7,6.2
	c0,15.3-12.8,31.2-29.1,43.2c-20.2,15-48.9,26.1-80.3,26.1c-33.3,0-55.5-20.9-55.5-47.2c0-14.4,6.7-30.4,21.8-45.6
	c1.9-1.5,4.5-1.5,6.4,0c1.6,1.9,1.6,4.7,0,6.5c-13.5,13.5-19.1,27-19.1,38.9c0,4.6,0.9,9.2,2.7,13.5c5.9,14.3,21.5,24.7,43.8,24.7
	c29.2,0,56.3-10.5,74.8-24.2C519.3,56.8,528,40.9,525,31.1c0-0.2,0-0.3-0.2-0.4c-4.3-10.8-15.6-14.6-27.9-14.6
	c-9.5,0.2-18.8,1.9-27.8,5c-27.3,9.6-57.6,32.4-69.3,66.1C397,85.9,394.4,84.2,392.1,82.2z M396,100.9c-0.7,3.7-1,7.4-1,11.1
	c0,19.7,10.8,33.6,34.4,34.7c28.7,1.6,57-15,73.4-28.5c1.8-1.6,4.6-1.4,6.2,0.4c1.6,1.9,1.4,4.7-0.5,6.3c0,0,0,0,0,0
	c-15.9,13.8-45.7,30.4-74.7,30.4c-1.8,0-3.6,0-5.4-0.1c-26.7-1.9-42.6-18.4-42.6-43.5c0-5.4,0.7-10.8,1.9-16
	C390.3,97.8,393.1,99.4,396,100.9z"/>
<path class="st1" d="M498,122.2c5.3-4.6,11-9.7,16.8-15.1c-2.4,5.2-4,10.2-4.1,16l-7,5.9c-1.9,1.6-4.6,1.4-6.2-0.5
	c-1.6-1.9-1.4-4.6,0.5-6.2C497.9,122.3,497.9,122.3,498,122.2L498,122.2z M512.7,123.6c0-10.2,10.8-33.3,26.3-44l1-0.4
	c-0.7,3.2-1.1,6.5-1.2,9.8c0,2.2,0.2,4.5,0.6,6.7c-2.8,3.2-5.7,6.2-8.8,9.1c2.4-4,7.3-9.7,7.3-10.1c0-0.7-0.3-1-1-1
	c-2.4,0-8.9,11.1-12,17.5c-2.4,4.9-3.4,8.9-3.4,12.3c0,10.5,7.3,12.2,11.6,12.2c9.5,0,21.8-8.3,32.5-21.2c4-0.1,8-0.5,12-1.2
	c-12,16.3-29,31.3-44.5,31.3c-3.6,0-7.2-0.8-10.4-2.5C516.8,139.2,512.7,132.6,512.7,123.6L512.7,123.6z M540.9,89.1
	c0-18.4,15.4-31,33.3-31c8.8,0,19,5,19,18.9c0,2.8-0.3,5.6-1,8.3c-1.1,3.7-2.5,7.2-4.2,10.7c-4,2-8.1,3.5-12.5,4.4
	c3.6-5.8,7-11.4,8-16.9c0.4-2,0.6-3.9,0.6-5.9c0-8-4.5-10.5-9.8-11c-11.7-1-24.8,8.9-24.8,22.6c0,7.1,3.9,14.4,18.1,14.4
	c13.4,0,26.6-6.5,38.5-15.3c-3.8,4.8-7,10.1-9.5,15.7c-8.8,4.6-18.7,7.9-28.8,7.9c-13.5,0-23.5-5.3-26.3-15.9
	C541,93.7,540.8,91.4,540.9,89.1L540.9,89.1z M594,124.5c-0.4-22.4,20-46.6,29.5-49c-3.5,4.7-6.1,10-7.7,15.6
	c-9.2,11.7-12.6,23.5-12.6,31.8c0,6.1,1.8,10.2,4.5,11.1c3.6,1.2,8,0.3,14.5-3.3c2.5,2.3,5.4,4.1,8.5,5.4
	c-7.3,4.8-14.8,7.7-21.5,7.3C599.2,142.6,594.2,134.1,594,124.5z M615,102.9c2.8-19,18.3-45,38.3-47.1c13.4-1,20.9,9.4,19.2,21.4
	c-2.4,17.7-16.6,36.7-28.7,48c-3.7,0.2-7.3-0.7-10.5-2.5c12.3-10.4,22.7-23.9,27.9-37.8c1.4-3.4,2.1-6.9,2.2-10.6
	c0-5.3-2.2-9.9-9.2-9.5c-15.1,1-28.5,24.8-30.3,37.6c-0.2,1.6-0.3,3.3-0.3,4.8c0,7,2.2,12.9,7.7,16.9c3.5,2.2,7.5,3.4,11.7,3.4
	c7.7,0,15.4-3.7,21.8-8.8c3.7-3.1,7.3-0.2,7.3,3.3c0,1.5-0.7,3-1.9,4c-7.3,6.5-16.7,10.2-26.4,10.4c-3.7,0-7.5-0.6-11-1.8
	C619.1,129.8,613.8,116,615,102.9z"/>
<path class="st1" d="M660.1,122.5c11-8.9,20-18.4,29.4-27.8l10.8-11.3c-8.5,12.5-16.8,25.1-24,36.8c-3.6,3.4-7.1,6.2-10.5,9.1
	c-1.9,1.6-4.7,1.3-6.2-0.6C657.9,126.9,658.2,124.1,660.1,122.5L660.1,122.5z M672.7,130v-0.1c12.8-20.9,30.3-48,45.7-68.5
	c0.2,0,0.2,0,0.2-0.2c15.6-20.3,31.6-38.6,42.3-46.9c3.9-2.7,10,1.2,7.1,6.4c-5.6,10.4-20,26.1-47.2,55.2
	c11.3-15,27.9-35.9,42.2-52.7c0.4-0.4,0.4-1,0.1-1.4s-1-0.4-1.4-0.1c0,0-0.1,0.1-0.1,0.2C743.2,43.2,727,63.6,714.1,82
	c-7.6,6.5-15,14.8-23.2,23.8c-0.6,0.6-1,1.5-0.5,1.9s1.5,0.2,1.9-0.4c11.3-12.5,22.6-23.6,35.6-33.1c10.7-7.9,21.2-13.7,29.5-16.5
	c4-1.2,8.3-1.9,11.9-0.9c4.3,1,6.8,4,7.6,8.6c1.5,10.1-7.6,23.4-18.4,32.4c-8,6.4-18.6,11.1-28.2,11.1c-3.9,0-7.8-0.9-11.3-2.7
	c-2.8-1.6-5.2-5.2-3.8-8.6c0.9-2.5,3.2-4.3,5.9-4.3c3.1,0,5.9,1.9,7,4.8c-1.3,0-4.2-0.6-5.5-0.6c-0.7,0-1,1,0,1.5c2,0.5,4,0.9,6.1,1
	c8.9,0.6,17.1-3.4,24.2-9.2c4.7-3.7,8.7-8.2,11.9-13.2c2.8-4.8,3.9-8.5,3.4-10.7c-0.8-3.1-6.5-1-8-0.7
	c-30.3,9.5-68.4,48.1-83.1,74.7c-0.7,1.4-2.1,2.3-3.7,2.4c-2.5,0.1-4.6-1.9-4.6-4.4c0-0.7,0.1-1.4,0.5-2.1
	C670.3,134.4,671.4,132.3,672.7,130z M721.4,129.4c-1.7-4.6-2.5-9.5-2.4-14.4c0-2.1,0.1-4.2,0.4-6.2c2.9,1.1,5.9,1.8,8.9,2.1
	c-0.2,1.8-0.3,3.6-0.3,5.3c0,3.4,0.5,6.9,1.6,10.1c1.6,4.2,4.2,7,8.9,8c4.6,0.6,10.1-0.8,19.8-8c3-2.2,6.1-4.8,9.2-7.6
	c1.8-1.6,4.6-1.4,6.2,0.4c1.6,1.9,1.5,4.7-0.4,6.4c0,0,0,0,0,0c-3.4,2.8-6.2,5.3-9.7,7.7c-10.2,7.7-18.1,11-26.6,9.8
	C728.4,141.4,723.6,135.8,721.4,129.4L721.4,129.4z"/>
<path class="st1" d="M763.4,122.1c7.6-6.4,18.8-16.3,26.9-24.3c-4.2,6.1-9.2,14.8-11.1,22.6c-3.6,3.4-6.7,5.9-10.1,8.8
	c-1.9,1.6-4.8,1.3-6.3-0.7S761.5,123.6,763.4,122.1L763.4,122.1L763.4,122.1z M779.6,127.9c1.6-12.8,8.8-23.9,15.9-34.2
	c5.8-8.6,19.6-24.9,31.2-36.1c4-3.3,10.7,2.4,7.3,6.4c-1.6,2.1-19,25.7-32.7,40.5c5.9-9.5,19.9-26.7,27.2-35.2
	c0.4-0.4,0.3-1-0.1-1.4c0,0-0.1-0.1-0.1-0.1c-0.4-0.4-1-0.3-1.4,0.1c0,0-0.1,0.1-0.1,0.1c-13.2,15.7-37.1,43.9-38.3,60.4
	c-0.2,4.5,1.5,5.8,3.9,5.8s5.9-1.6,8.5-2.8c6.5-3.7,12.6-8.1,18.2-13.2c1.8-1.7,4.6-1.7,6.3,0.1c1.7,1.8,1.7,4.6-0.1,6.3
	c-0.1,0.1-0.2,0.2-0.3,0.2c-9.5,8.2-22.3,18.3-32.5,18.3c-1.7,0-3.3-0.3-4.9-0.9C781.1,139.8,779.2,133.8,779.6,127.9z M849.7,44
	c-1.9,1.9-3.8,4-5.5,6.1c-1,1.1-2.4,1.8-3.9,1.9c-2.5-0.1-4.4-2.1-4.3-4.6c0-1.1,0.5-2.2,1.2-3c2.2-2.4,3.7-4.5,5.9-6.7
	c1.8-1.8,4.6-1.8,6.4,0C851.3,39.4,851.4,42.2,849.7,44z"/>
<path class="st1" d="M814.2,122.2c10.2-8.3,21.1-19,31-29.1c1.6-1.8,6.4-7.6,12.2-14.2c-9.5,13.7-18.7,28.1-27,41.1
	c-3.6,3.1-7.1,6.2-10.5,9.1c-1.8,1.6-4.6,1.4-6.1-0.5c0,0-0.1-0.1-0.1-0.1C812.1,126.6,812.3,123.8,814.2,122.2z M898.5,99.7
	c6.5-7.6,13.1-14.1,17.7-20.5c1.9-2.4,3.4-4.9,4.6-7.7c1.3-4.2-1.5-5.2-4.8-5.2c-2.1,0-4.2,0.4-6.2,1c-29.7,9.3-63.5,46.5-78.5,73.2
	c-0.7,1.4-2.2,2.2-3.7,2.2c-2.4,0.1-4.5-1.8-4.6-4.2c0-0.8,0.1-1.5,0.5-2.2c16.2-27.8,33.3-55.2,49.1-75.3c2.8-3.6,5.3-7,9.5-4.8
	c1.5,0.9,2.2,2.6,1.9,4.4c-0.7,2.7-3,5.2-4.8,7.6l-6.7,8.8c-10,8.5-19.3,17.8-27.8,27.8c-0.4,0.3-0.4,0.9-0.1,1.3
	c0.1,0.1,0.2,0.2,0.3,0.2c0.4,0.4,0.9,0.3,1.3-0.1c16-18.9,38-40.1,60.9-47.2c2.6-0.9,5.3-1.3,8-1.3c8,0,15,4,15,11.6
	c0,1.9-0.4,3.7-1,5.5c-1.4,3.6-3.4,7-5.8,10c-4.9,6.5-11.7,14-18.1,20.9c-6.5,7.6-11.9,14-14.2,19.4c-0.7,1.5-1.1,3.1-1.2,4.8
	c0,3.1,1.9,4.5,4.8,4.5c2.6-0.2,5.1-0.9,7.3-2.2c5.2-2.8,11.4-7.7,18.4-13.7c1.9-1.5,4.8-1.2,6.3,0.8c1.5,1.8,1.2,4.5-0.5,6.1
	c-7,6.1-13.8,11.3-19.9,14.7c-3.5,2.1-7.5,3.3-11.6,3.4c-8,0-13.8-5.3-13.8-13.2c0-3,0.7-5.9,2.1-8.6
	C885.9,114.4,892.2,106.8,898.5,99.7z"/>
<path class="st1" d="M944.1,44.7c4.3-4,7.6-8.5,8.3-12.5c0.3-2.4,2.5-4.1,4.9-3.7c0.1,0,0.1,0,0.2,0c2.4,0.4,4,2.6,3.7,5
	c-1.2,7.2-6.4,13.6-11.3,17.9c-1.8,1.6-4.6,1.4-6.2-0.5c-1.6-1.8-1.5-4.5,0.3-6.1C944,44.8,944.1,44.8,944.1,44.7z"/>
</svg>
