<svg xmlns="http://www.w3.org/2000/svg" viewBox="0 0 980.1 234.83"><path d="M43.65,149.41c-8-6.24-11.73-16.48-11.73-28.51,0-8.76,2.67-19.59,6.68-28.95.89-1.78,1.78-3.86,3-5.94A66,66,0,0,1,35,79.93l-4.9-4.75A86.82,86.82,0,0,1,14.25,58.55a13.12,13.12,0,0,1-1.93-7,12.11,12.11,0,0,1,4.9-10,12.66,12.66,0,0,1,7.13-2.23,11.93,11.93,0,0,1,9.5,4.76l1,1.63,9.5,9.35.89,1a83.19,83.19,0,0,0,10.54,7.57Q61.4,56,67.4,49c3.57-4,7-7.72,10.25-10.83C97.54,19.5,125.46,2.57,147.13,2.57a35,35,0,0,1,21.68,7A36.73,36.73,0,0,1,175,16.08l8.47,8.32a25.67,25.67,0,0,1,7.72,18.85,31.55,31.55,0,0,1-.75,7.28h-.14a34.58,34.58,0,0,1-1.34,5.2L195.24,62c2.22,2.38,3.71,5.2,3.26,8.32h.15c-.89,7.27-8.17,18.7-16.63,29A101.59,101.59,0,0,1,169.7,112h-.15l-.15.15a13.62,13.62,0,0,1,5.5,3.57l1,1.63,9.8,9.65.89,1a11.48,11.48,0,0,1,2.53,7,12,12,0,0,1-4.31,9.05c-14.25,11.73-40.53,26.43-55.82,30.59l.15.15a83.56,83.56,0,0,1-8.76,2.37l-1,1.19C101.85,201.08,83,221.12,64.58,230.18a46.17,46.17,0,0,1-19.3,4.75c-9.8,0-18.41-3.57-24.35-9.51l-8-8A29.92,29.92,0,0,1,0,192.61c0-6.83,2.38-14.84,8-22.71C17.07,157,29.4,151.93,43.65,149.41Z" style="fill:#af3935"/><path d="M157.08,136.2a12.44,12.44,0,0,1-3.41-2.83,11.21,11.21,0,0,1-3-7.72,12.4,12.4,0,0,1,4.15-9.2c5.35-4.16,11.73-10.25,19.16-17.37,8.31-20.94,27.91-41,46.32-48.55a36.31,36.31,0,0,1,13.36-2.67c8.46,0,15.59,3.56,19.75,9.65l9.05,9.05c4,4,6.24,9.65,6.24,16.63a32,32,0,0,1-.89,7.43c-2.38,9.65-8.61,18-16.63,24.64a3.05,3.05,0,0,1,.59.89l9.8,9.65a10.81,10.81,0,0,1,2.82,7.43,11.83,11.83,0,0,1-4,8.9,83.47,83.47,0,0,1-9.2,7.58c-10.1,7.72-22.42,12.76-33.85,13.21-9.36.44-19.3-1.93-26.13-8.76l-8.46-8.46a.52.52,0,0,0-.3-.15l-.59.44.14.15a10.71,10.71,0,0,1-7.27,2.82,12.21,12.21,0,0,1-8.32-3.41Z" style="fill:#af3935"/><path d="M272.59,46.52h18.26c12.77-14.85,25.24-27.47,33.26-33.11a12.16,12.16,0,0,1,6.53-2.08,13.55,13.55,0,0,1,11.28,6.54l9.66,9.65a11.38,11.38,0,0,1,3.41,8,11.75,11.75,0,0,1-1.34,5.2A122,122,0,0,1,343.41,55L351,62.41a10.87,10.87,0,0,1,3.27,7.87,11.16,11.16,0,0,1-11.43,11.43H321l-24.5,27.91a11.73,11.73,0,0,1,8.32,4,20.92,20.92,0,0,1,1.63,2.22l9.95,10a10.81,10.81,0,0,1,2.82,7.43,11.86,11.86,0,0,1-4,8.9,70.52,70.52,0,0,1-5.79,5.05l-1.48,1c-5.94,4.46-11.59,8.46-16.19,10.69l-.15-.15a27.8,27.8,0,0,1-12.76,3.42,24.18,24.18,0,0,1-7.28-1.19l-.15-.15a21.82,21.82,0,0,1-8.91-5.2l-8.16-8.16A9.69,9.69,0,0,1,249,149a11.91,11.91,0,0,1-8.31-3.41l-9.35-9.35a12.49,12.49,0,0,1-3.42-2.83,10.88,10.88,0,0,1-3-7.57,12.41,12.41,0,0,1,4.16-9.2c7.27-5.94,18-16,27.61-24.2,3.86-6.39,8.47-13.07,13.51-19.9l-3.41-3.71a11.47,11.47,0,0,1-6.09-10.39A12.11,12.11,0,0,1,272.59,46.52Z" style="fill:#af3935"/><path d="M394.63,150c-10.39-8.76-16.33-22-16.33-38.15a89.91,89.91,0,0,1,1.63-15.44,51.39,51.39,0,0,1-17.81-39.2c0-16.33,7.42-34.15,24.49-51.22a12.21,12.21,0,0,1,7.72-2.67A13.44,13.44,0,0,1,403,6.43l1.18,1.93,10.4,10.25a14,14,0,0,1,3,8.46,11.26,11.26,0,0,1-3,7.87,68.25,68.25,0,0,0-13.37,18.11c16.63-21.67,39.35-39.19,62.66-47.51C472.43,2.72,484.46-.1,496.18-.1c15.15,0,30.29,4,39.2,16l8.46,8.31a35,35,0,0,1,8.46,14.11,44.67,44.67,0,0,1,1,8.61c0,17.22-15,35.78-31.92,48.84C500.34,111,469.16,123.28,437,123.28a75.51,75.51,0,0,1-23-3.42c-.15,1.64-.15,3-.15,4a32.2,32.2,0,0,0,2.08,12.33,33.91,33.91,0,0,0,13.81,3.11c25.24,1.49,52.85-14.4,68-26.57a11.62,11.62,0,0,1,7.57-3,12.25,12.25,0,0,1,9.21,4l1.18,1.78L526,126a12.11,12.11,0,0,1,2.67,7.57,11.34,11.34,0,0,1-4,8.76c-16.93,14.55-48.55,32.07-79.13,32.07-2.08,0-4,0-5.79-.15-15.15-1-27.17-6.23-35.64-14.7Zm29.55-62.2h.89c27.46,0,53-10,70.37-22.72,14.11-10.39,22-21.23,22.57-28.95a32,32,0,0,0-9.21-1.19,83,83,0,0,0-25.53,4.6h.15C461.59,47.26,437.69,63.89,424.18,87.8Z" style="fill:#af3935"/><path d="M622.38,67.75c7.72-9.65,18.86-18.11,30.14-19.3,10.54-.74,18.41,3.42,23,10.1l9.06,8.9a25.3,25.3,0,0,1,6.83,18,44.33,44.33,0,0,1-.3,4.45l.15.15c-1.34,9.21-5.49,18.86-11.13,27.77l7.27,7.12a12.68,12.68,0,0,1,3.56,8.91,12.2,12.2,0,0,1-4.3,9.2c-8.61,7.58-19.75,12.18-31,12.18a39.88,39.88,0,0,1-10.39-1.34c-10,5.5-18.56,8.76-24.65,8.32a21.94,21.94,0,0,1-14.4-6.24l-9.21-9.2a23.46,23.46,0,0,1-8.46-11.14c-14.7,15.89-30.73,27.76-43.65,27.76a29.37,29.37,0,0,1-13.66-3.26l-.15-.15a20.67,20.67,0,0,1-5.79-4.16l-7.86-7.87a11.79,11.79,0,0,1-4.9,1.19,11.18,11.18,0,0,1-7.87-3.41l-9.51-9.5a13.34,13.34,0,0,1-3.41-3,11.93,11.93,0,0,1-3-7.58,12.21,12.21,0,0,1,4.31-9.05c5.34-4.61,13.06-11.43,18.85-16.93,6.09-9.5,13.81-19.89,23.16-26.42l2.23-1c6.68-13.37,20.93-21.53,36.82-21.53,8,0,16.78,3.12,22,10.69l9.06,8.91A38.36,38.36,0,0,1,609,76.07C610.8,74.43,616.44,68.49,622.38,67.75Z" style="fill:#af3935"/><path d="M650.89,126a11.66,11.66,0,0,1,4.45-9.06c8.62-7,16.78-15,41.87-38.75,5.2-7.57,10.39-14.84,15.44-21.37C728.54,36,745.17,17.12,756.45,8.36A12.2,12.2,0,0,1,763.73,6c4.75,0,8.76,2.08,12.17,6.09L784.66,22a10.33,10.33,0,0,1,3.12,7.43A14,14,0,0,1,786,35.83,100.78,100.78,0,0,1,775.31,51a14.67,14.67,0,0,1,6.23,5.8l9.5,9.35a17.35,17.35,0,0,1,4.75,10.09c1.64,11.73-7,26.28-18.11,36.53l1.63,1.48,1.34,2.08.15.15,10.09,10a11.35,11.35,0,0,1,2.68,7.42,12.29,12.29,0,0,1-3.86,8.91c-2.82,2.82-2.23,1.93-2.38,1.93l-.15.15-.14-.15c-2.53,2.23-4.61,4.15-7.28,6.09-11.28,8.46-21.38,12.61-31.77,11.13l-.3-.15a27.19,27.19,0,0,1-14.25-7.27l-9.06-9.06a29.63,29.63,0,0,1-10-13.36,5.57,5.57,0,0,1-.59-1.64c-7.72,9.06-14.4,17.67-18.71,25.69a11.48,11.48,0,0,1-9.8,5.94,12.29,12.29,0,0,1-8.61-3.56c-12.62-11.14-15-14.26-15.44-18l-4.16-4.3a19,19,0,0,1-3.26-2.68A11.9,11.9,0,0,1,650.89,126Z" style="fill:#af3935"/><path d="M856.81,35.39l9.65,9.5a11.67,11.67,0,0,1,3.27,7.87,12.07,12.07,0,0,1-3.12,7.87,34.94,34.94,0,0,0-3.86,4.15L861,66.86a12.52,12.52,0,0,1-8.31,4,8.8,8.8,0,0,1-1.19,9.2l-.3.3-1.33,1.78c-3.72,5-12.77,17.08-22.57,28.81a15.79,15.79,0,0,1,3.56,2.67,21.06,21.06,0,0,1,1.64,2.22l9.94,10a10.81,10.81,0,0,1,2.82,7.43,12,12,0,0,1-3.86,8.9C831,151,816.88,162,804.26,162a20.62,20.62,0,0,1-7.43-1.34,19.24,19.24,0,0,1-6.68-4.3L782,148.22a10.94,10.94,0,0,1-11.88-2.67l-9.36-9.35a12.59,12.59,0,0,1-3.41-2.83,11.21,11.21,0,0,1-3-7.72,11.57,11.57,0,0,1,4.31-9.2c7.57-6.39,19.15-16.63,30.73-26.87,6.24-9.21,20.34-26,31.62-36.82a11.29,11.29,0,0,1,7.13-2.53h.59a7.08,7.08,0,0,1-.29-2.52,12.52,12.52,0,0,1,3.11-8,20.89,20.89,0,0,0,1.79-2.08l.89-1,3.71-4A11.49,11.49,0,0,1,846.27,29a12,12,0,0,1,10.54,6.39Z" style="fill:#af3935"/><path d="M805.15,125.65a11.78,11.78,0,0,1,4.15-8.9c9.65-7.72,21.09-19,30.29-28.36l14-14.11C858,68.05,862.46,62,866.76,56.47c3.27-4.16,6.53-8.46,12-8.46a16.67,16.67,0,0,1,7.57,2.22,13.12,13.12,0,0,1,3.56,4.16l2.67,2.82a87.12,87.12,0,0,1,12.18-5.49,33.85,33.85,0,0,1,10.39-1.64c8.46,0,16,3.27,19.9,9.51l9.05,9A16.42,16.42,0,0,1,949,81a23.45,23.45,0,0,1-1.48,7.86h-.15a42.57,42.57,0,0,1-6.53,11.73c-3.12,4-6.54,8.17-10.1,12.18l1.19,1,1.48,2.07,10.1,10.1a11.83,11.83,0,0,1,2.82,7.72,11.49,11.49,0,0,1-4,8.61c-7.13,6.09-14.7,11.88-20.93,15.44a32.25,32.25,0,0,1-15,4.31,20.94,20.94,0,0,1-15.14-5.94l-8.61-8.61c-5.79-3.56-9.36-9.65-9.36-17.52a24.07,24.07,0,0,1,1.34-8.17c-10.39,11.29-19.45,23.31-25.39,34a10.89,10.89,0,0,1-9.8,5.79A11.9,11.9,0,0,1,831,158c-12.62-11.13-15-14.1-15.59-17.82l-3.86-4a13.31,13.31,0,0,1-3.56-3A12,12,0,0,1,805.15,125.65Z" style="fill:#af3935"/><path d="M935.06,48.15a11.61,11.61,0,0,1,4-8.76c3.11-3.11,5.64-6.08,6.08-8.46A12.4,12.4,0,0,1,959,21.28a13.17,13.17,0,0,1,7.72,5.49l10.1,10a11.24,11.24,0,0,1,3.11,10.1c-1.48,9-7.72,16.63-13.51,21.67h.15a10.81,10.81,0,0,1-7.42,2.82,11.85,11.85,0,0,1-8.61-3.56C940,57.8,938.92,56.91,938.17,56A11.8,11.8,0,0,1,935.06,48.15Z" style="fill:#af3935"/><path d="M92.79,151.78c22.27-3,52.86-19,70.08-32.21a4.64,4.64,0,0,1,6.38.89,4.51,4.51,0,0,1-.74,6.38c-13.66,11.43-39.19,25.54-53.45,29.4-35.18,11.58-77.94,1.19-94.13,24.64-3,4.31-4.3,8.32-4.3,11.88,0,8.46,7.42,14.11,16.92,14.11a27.31,27.31,0,0,0,12.18-3c13.66-6.68,29-21.68,43.8-40.39a124.65,124.65,0,0,0,13.06-2.08l-.59.75c-17.08,22.12-35.19,41.57-52.26,49.88a38.33,38.33,0,0,1-16.33,4c-14.7,0-26-9.95-26-23.46,0-5.64,1.93-12,6.54-18.41C30.14,151.64,60.72,156.54,92.79,151.78ZM50.63,79.93A92,92,0,0,1,20.49,54.24a4.8,4.8,0,0,1,1-6.53,4.68,4.68,0,0,1,6.53.89c5.94,8.31,15.29,16.48,26.87,23l1,.6a57.17,57.17,0,0,0-4.9,7.86Zm-11.29,41c0-8,2.08-17.07,6.09-26.13,6.83-16.48,23.46-38.6,37.27-51.22C101.55,25.74,127.09,10,147.13,10a27.93,27.93,0,0,1,17.22,5.34,19.21,19.21,0,0,1,8,16,25.46,25.46,0,0,1-.59,5.64c-1.49,7.87-6.39,16-13.22,23.61-13.51,14.84-36.07,28.06-59.68,29.54-2.23.15-4.31.15-6.38.15A92.26,92.26,0,0,1,67,86.9L63.4,85.42c1.33-2.67,3.26-5,4.89-7.87A78.63,78.63,0,0,0,91.9,81.26c2.08,0,4.31-.15,6.39-.29,21.08-1.34,41.42-13.07,53.44-26.58,6.09-6.83,10.1-13.51,11.14-19.15,1.19-5.5,0-9.65-4-12.33a20.39,20.39,0,0,0-12.17-3.56c-15.59,0-38,12-57.91,30.73C76.76,62,61,82.45,53.89,98.34A50.75,50.75,0,0,0,49,119.57c0,10.83,4.46,20.49,18,19.74,20.19-1,57.31-33.25,69.93-46.32-4.46,7.42-13.81,20.19-16.19,24.65-7.42,7.87-34.29,31.47-56.27,30.88C47.21,148.07,39.34,136.34,39.34,120.9ZM102.59,146c11.58-14,27.47-38.15,37.27-53l.14-.15c12.18-17.37,22.72-31.92,30.74-39.64,3.12-3.12,9.65.3,9,4.31-.74,6.23-7,15.88-15,25.39-5.05,6.08-7.42,8-14.25,14.25L174,63.59c.45-.59.45-1.18-.14-1.33-.15-.45-.9-.15-1.34.15-21.23,30.14-39.49,56-56.57,80.91-4.75,1.93-10.39,4.31-15.14,5.05Z" style="fill:#fff"/><path d="M159.75,122.09a231.15,231.15,0,0,0,17.37-15.59,47.68,47.68,0,0,0-2.22,14.25c-3.42,3-6.39,5.8-9.51,8.32a4.36,4.36,0,0,1-6.23-.74A4.48,4.48,0,0,1,159.75,122.09Zm17.67-3.56c0-23.91,23.9-52.11,45.73-61a28.49,28.49,0,0,1,10.54-2.23c9.35,0,16.18,6.09,16.18,16a27.67,27.67,0,0,1-.74,5.79c-5,20.94-31.77,35-50.92,35a29.33,29.33,0,0,1-9.21-1.33,47.47,47.47,0,0,1,3.71-8.46,23,23,0,0,0,5.64.59c10.69,0,24.35-5.94,33-13.51C235.62,85.72,241,78,241,71.76a7.64,7.64,0,0,0-1.63-5.05c-.89-1.19-2.82-1.78-5.49-1.78a29.08,29.08,0,0,0-11.29,2.82c-13.51,6.53-29.69,24.8-34.44,38.9a31.6,31.6,0,0,0-1.78,10.24c0,10.25,5.79,18.86,18.41,18.27,8.16-.45,17.37-4,25.09-10,2.82-2.23,5.49-4.46,8.46-7a4.42,4.42,0,1,1,5.79,6.68,96.61,96.61,0,0,1-8.91,7.28c-8.9,7-19.89,11.43-30,11.87s-20.93-3-25.24-13.06A29.79,29.79,0,0,1,177.42,118.53Z" style="fill:#fff"/><path d="M234,122.09c7.27-5.94,16.92-15,24.5-22.57-3.12,5.79-7.58,13.66-9.21,21.23-3.12,2.83-6.24,5.5-9.65,8.32a4.37,4.37,0,0,1-6.24-.74A4.48,4.48,0,0,1,234,122.09ZM251.06,126a30.64,30.64,0,0,1,.89-7.27c8.76-28.06,57-86.26,76.32-99.18,4-2.67,9.79,1.63,7.42,5.94C332.13,31.82,321,44.74,315.2,52h-5.79L325.89,34.2a1.18,1.18,0,0,0,0-1.64c-.45-.44-1.19-.14-1.63.3-9.51,10.69-35.19,36.82-54.05,67.41-4.75,7.72-9.65,18.41-9.65,25.83,0,3.56,1.19,6.53,4.16,7.87,4.31,1.63,9.95-1.19,22-10.54,2.23-1.64,4.16-3.27,6.39-5.2a4.42,4.42,0,0,1,5.79,6.68,74.12,74.12,0,0,1-6.68,5.64c-5.5,4.16-10.54,7.87-15.29,10.1a22.26,22.26,0,0,1-9.95,2.67,15.88,15.88,0,0,1-5.05-.89C253.88,140.06,251.06,133.08,251.06,126Zm21.53-72h19c-2.52,2.83-4.9,5.94-7.72,8.91H272.59a4.46,4.46,0,0,1-4.45-4.45A4.56,4.56,0,0,1,272.59,53.94Zm31.62,11c-8.16,9.06-23.31,27.32-31.77,35.78,5.2-8.91,18.41-26.87,26-35.78Zm26.73-10.84a4.38,4.38,0,1,1,0,8.76H300.21c2.52-3.12,5.19-5.94,7.42-8.76Z" style="fill:#fff"/><path d="M392.11,82.15c12.62-31,42.16-58.64,74.08-69.63a97,97,0,0,1,30-5.19c16,0,32.07,5,37.57,21.52a30.2,30.2,0,0,1,.74,6.24c0,15.29-12.77,31.18-29.1,43.2-20.19,15-48.85,26.13-80.32,26.13-33.26,0-55.53-20.93-55.53-47.21,0-14.4,6.68-30.44,21.83-45.58a5.14,5.14,0,0,1,6.38,0,5,5,0,0,1,0,6.53c-13.51,13.51-19.15,27-19.15,38.9a36.55,36.55,0,0,0,2.67,13.51c5.94,14.26,21.53,24.65,43.8,24.65,29.25,0,56.27-10.54,74.83-24.2C519.34,56.77,528,40.88,525,31.08a.62.62,0,0,0-.15-.44c-4.31-10.84-15.59-14.56-27.91-14.56a88.63,88.63,0,0,0-27.77,5.05c-27.32,9.65-57.6,32.37-69.33,66.07A31.36,31.36,0,0,1,392.11,82.15ZM396,100.86a58.86,58.86,0,0,0-1,11.13c0,19.75,10.84,33.56,34.44,34.75,28.66,1.63,57-15,73.35-28.51a4.44,4.44,0,0,1,6.23.45,4.5,4.5,0,0,1-.59,6.38c-15.89,13.81-45.73,30.44-74.68,30.44-1.78,0-3.56,0-5.35-.15-26.72-1.93-42.61-18.41-42.61-43.5a69.75,69.75,0,0,1,1.93-16A52.35,52.35,0,0,0,396,100.86Z" style="fill:#fff"/><path d="M498,122.24c5.34-4.6,11-9.65,16.77-15.14-2.37,5.19-4,10.24-4.15,16l-7,5.94a4.43,4.43,0,1,1-5.64-6.83Zm14.69,1.34c0-10.25,10.84-33.26,26.28-43.95l1-.45a46.6,46.6,0,0,0-1.19,9.8,34.48,34.48,0,0,0,.6,6.68,120.23,120.23,0,0,1-8.76,9.06c2.37-4,7.27-9.65,7.27-10.1,0-.74-.29-1-1-1-2.37,0-8.9,11.13-12,17.51-2.38,4.9-3.42,8.91-3.42,12.33,0,10.54,7.28,12.17,11.58,12.17,9.51,0,21.83-8.31,32.52-21.23a83.47,83.47,0,0,0,12-1.19c-12,16.33-28.95,31.33-44.54,31.33A21.94,21.94,0,0,1,522.61,142C516.82,139.16,512.66,132.63,512.66,123.58Zm28.21-34.45c0-18.41,15.44-31,33.26-31,8.76,0,19,5,19,18.86a34.9,34.9,0,0,1-1,8.31A75,75,0,0,1,587.94,96a54.43,54.43,0,0,1-12.47,4.45c3.56-5.79,7-11.43,8-16.92a29.48,29.48,0,0,0,.6-5.94c0-8-4.46-10.54-9.8-11-11.73-1-24.8,8.91-24.8,22.57,0,7.13,3.86,14.4,18.12,14.4,13.36,0,26.57-6.53,38.45-15.29a75.26,75.26,0,0,0-9.5,15.74c-8.76,4.6-18.71,7.87-28.8,7.87-13.51,0-23.46-5.35-26.28-15.89A35,35,0,0,1,540.87,89.13ZM594,124.47c-.44-22.42,20.05-46.62,29.55-49a50.76,50.76,0,0,0-7.72,15.59c-9.21,11.73-12.62,23.46-12.62,31.77,0,6.09,1.78,10.25,4.45,11.14,3.57,1.19,8,.3,14.55-3.27a29.63,29.63,0,0,0,8.47,5.35c-7.28,4.75-14.85,7.72-21.53,7.27C599.22,142.58,594.17,134.12,594,124.47ZM615,102.94c2.82-19,18.26-45,38.3-47.07,13.37-1,20.94,9.36,19.16,21.38-2.38,17.67-16.63,36.68-28.66,48a19.08,19.08,0,0,1-10.54-2.53c12.32-10.39,22.72-23.9,27.91-37.85a31.06,31.06,0,0,0,2.23-10.55c0-5.34-2.23-9.94-9.21-9.5-15.14,1-28.5,24.8-30.28,37.57-.15,1.63-.3,3.26-.3,4.75,0,7,2.23,12.91,7.72,16.92A21.8,21.8,0,0,0,643,127.44c7.72,0,15.44-3.72,21.82-8.76,3.72-3.12,7.28-.15,7.28,3.26a5.4,5.4,0,0,1-1.93,4,40.59,40.59,0,0,1-26.43,10.39,34.74,34.74,0,0,1-11-1.78C619.12,129.81,613.77,116,615,102.94Z" style="fill:#fff"/><path d="M660.09,122.54c11-8.91,20-18.41,29.4-27.77l10.84-11.28c-8.46,12.47-16.78,25.09-24.05,36.82-3.57,3.41-7.13,6.24-10.54,9.06a4.43,4.43,0,0,1-5.65-6.83ZM672.71,130v-.15C685.48,109,703,81.86,718.44,61.37c.15,0,.15,0,.15-.15,15.59-20.34,31.62-38.6,42.31-46.92,3.86-2.67,10,1.19,7.13,6.39-5.64,10.39-20,26.13-47.21,55.23C732.1,60.92,748.73,40,763,23.21a1,1,0,1,0-1.48-1.33C743.24,43.25,727.05,63.59,714.14,82c-7.57,6.54-15,14.85-23.16,23.76-.6.59-1,1.48-.45,1.93s1.49.15,1.93-.45c11.28-12.47,22.57-23.6,35.63-33.1,10.69-7.87,21.23-13.66,29.55-16.48,4-1.19,8.31-1.93,11.88-.89,4.3,1,6.82,4,7.57,8.61,1.48,10.09-7.57,23.45-18.41,32.36-8,6.39-18.56,11.14-28.21,11.14a24.25,24.25,0,0,1-11.29-2.68c-2.82-1.63-5.19-5.19-3.85-8.61a6.32,6.32,0,0,1,5.93-4.3,7.44,7.44,0,0,1,7,4.75c-1.33,0-4.16-.59-5.49-.59-.74,0-1,1,0,1.48a31.11,31.11,0,0,0,6.08,1c8.91.59,17.08-3.42,24.21-9.21a54.45,54.45,0,0,0,11.87-13.21c2.82-4.75,3.86-8.46,3.42-10.69-.75-3.12-6.54-1-8-.74-30.29,9.5-68.44,48.1-83.14,74.68a4.29,4.29,0,0,1-3.71,2.37,4.53,4.53,0,0,1-4.16-6.53C670.34,134.41,671.38,132.34,672.71,130Zm48.7-.59A40.25,40.25,0,0,1,719,115a36.79,36.79,0,0,1,.44-6.23,32.68,32.68,0,0,0,8.91,2.08c-.15,1.78-.3,3.56-.3,5.34a29.34,29.34,0,0,0,1.64,10.1c1.63,4.15,4.15,7,8.9,8,4.61.59,10.1-.75,19.75-8,3-2.23,6.09-4.75,9.2-7.57a4.45,4.45,0,0,1,6.24.44,4.5,4.5,0,0,1-.44,6.39c-3.42,2.82-6.24,5.34-9.65,7.72-10.25,7.72-18.12,11-26.58,9.79C728.39,141.39,723.64,135.75,721.41,129.37Z" style="fill:#fff"/><path d="M763.43,122.09c7.57-6.38,18.85-16.33,26.87-24.35-4.16,6.09-9.2,14.85-11.13,22.57-3.57,3.41-6.69,5.94-10.1,8.76a4.49,4.49,0,0,1-5.64-7Zm16.18,5.79c1.63-12.77,8.76-23.9,15.89-34.15,5.79-8.61,19.59-24.94,31.17-36.07,4-3.27,10.7,2.37,7.28,6.38-1.63,2.08-19,25.68-32.66,40.53,5.94-9.5,19.89-26.72,27.17-35.18a1,1,0,0,0-.15-1.49,1,1,0,0,0-1.49.15c-13.21,15.74-37.11,43.94-38.3,60.42-.15,4.46,1.48,5.8,3.86,5.8s5.94-1.64,8.46-2.83A101.25,101.25,0,0,0,819,118.23a4.47,4.47,0,1,1,5.93,6.68c-9.5,8.17-22.27,18.26-32.51,18.26a13.51,13.51,0,0,1-4.9-.89C781.1,139.76,779.17,133.82,779.61,127.88ZM849.69,44a75.89,75.89,0,0,0-5.5,6.08A5.6,5.6,0,0,1,840.33,52a4.48,4.48,0,0,1-3.11-7.57c2.22-2.37,3.71-4.45,5.94-6.68A4.52,4.52,0,0,1,849.69,44Z" style="fill:#fff"/><path d="M814.2,122.24c10.25-8.31,21.09-19,31-29.1,1.64-1.78,6.39-7.57,12.18-14.25-9.5,13.66-18.71,28.06-27,41.12-3.57,3.12-7.13,6.24-10.55,9.06a4.34,4.34,0,0,1-6.23-.6A4.46,4.46,0,0,1,814.2,122.24Zm84.33-22.57c6.54-7.57,13.07-14.1,17.67-20.49a32.8,32.8,0,0,0,4.6-7.72c1.34-4.15-1.48-5.19-4.75-5.19a21.46,21.46,0,0,0-6.23,1c-29.7,9.35-63.55,46.47-78.54,73.19a4.13,4.13,0,0,1-3.71,2.23,4.42,4.42,0,0,1-4.16-6.39c16.18-27.76,33.26-55.23,49.14-75.27,2.82-3.56,5.35-7,9.5-4.75A4.32,4.32,0,0,1,884,60.63c-.74,2.67-3,5.19-4.75,7.57L872.55,77a244.26,244.26,0,0,0-27.76,27.76.9.9,0,0,0,.15,1.48c.44.45.89.3,1.33-.14,16-18.86,38-40.09,60.87-47.22a25.3,25.3,0,0,1,8-1.33c8,0,15,4,15,11.58a16.2,16.2,0,0,1-1,5.49,38.57,38.57,0,0,1-5.79,10c-4.9,6.53-11.73,14-18.12,20.93-6.53,7.57-11.87,14-14.25,19.45a13.89,13.89,0,0,0-1.19,4.75c0,3.12,1.93,4.46,4.75,4.46a16.88,16.88,0,0,0,7.28-2.23c5.2-2.82,11.43-7.72,18.41-13.66a4.48,4.48,0,0,1,5.79,6.83c-7,6.09-13.81,11.28-19.9,14.7a23.29,23.29,0,0,1-11.58,3.41c-8,0-13.8-5.34-13.8-13.21a19.76,19.76,0,0,1,2.07-8.61C885.91,114.37,892.15,106.8,898.53,99.67Z" style="fill:#fff"/><path d="M944.11,44.74c4.31-4,7.58-8.46,8.32-12.47a4.35,4.35,0,0,1,5.05-3.71,4.47,4.47,0,0,1,3.71,5C960,40.73,954.8,47.12,949.9,51.42a4.44,4.44,0,0,1-6.23-.45A4.32,4.32,0,0,1,944.11,44.74Z" style="fill:#fff"/></svg>