<svg xmlns="http://www.w3.org/2000/svg" viewBox="0 0 319.35 87.15"><path d="M0,50.45A19.16,19.16,0,0,1,5.77,36.86a20.69,20.69,0,0,1,14.72-6.17,21,21,0,0,1,4.9.6c7.76,1.79,11.54,7.62,11.93,13.59a18,18,0,0,1-1.59,7.82,13.81,13.81,0,0,1-13.12,8c-5.11-.13-9.22-3.91-9.22-8.55a8.06,8.06,0,0,1,.27-2.12,9.38,9.38,0,0,1,4.44-5.83A12.64,12.64,0,0,1,25,43a29.74,29.74,0,0,1,7.22,1.59,10,10,0,0,1-.33,4.17,27.73,27.73,0,0,0-7.16-1.65A8.82,8.82,0,0,0,20,47.8a5.44,5.44,0,0,0-2.45,3.38c-.66,2.45,1.66,5.37,5.1,5.5a10.06,10.06,0,0,0,9.68-6.3,12.29,12.29,0,0,0,1-4.57,9.84,9.84,0,0,0-.4-2.72c-.93-3.51-3.58-6.7-8.49-7.89a18.6,18.6,0,0,0-3.78-.4,16.78,16.78,0,0,0-12,5A15.14,15.14,0,0,0,4.18,50.51a17,17,0,0,0,.79,5c2.59,7.83,10.94,11.93,18.1,12,9.74.2,17.64-3.51,21.88-12.2,1.26.34,2.58.73,4,1.06C44.09,67.22,34.47,71.93,23,71.66c-8.35-.2-18.62-4.77-21.94-14.78A20.41,20.41,0,0,1,0,50.45ZM22.14,22.21A19.76,19.76,0,0,1,16.31,8.29a22.7,22.7,0,0,1,.53-4.64,2,2,0,0,1,2.39-1.53,2,2,0,0,1,1.59,2.39,18.27,18.27,0,0,0-.4,3.71,15.64,15.64,0,0,0,4.64,11.07c3.78,3.91,9.54,6.63,16,8a46.74,46.74,0,0,0,7.42.79c-.2,1.39-.4,2.72-.53,4.11a41.56,41.56,0,0,1-7.62-.93C33.21,29.83,26.65,26.85,22.14,22.21Zm23.2,32.15-1.92-.6a43,43,0,0,1-5.77-2.52l-.26-.13A20.21,20.21,0,0,0,38.18,47a10.75,10.75,0,0,1,1.26.6,46.6,46.6,0,0,0,5.11,2.18c4.24,1.66,7.82,2.66,11,2.66,3.58,0,6.76-1.2,10.15-3.85a2.11,2.11,0,0,1,2.91.47,2.36,2.36,0,0,1-.79,3,18.31,18.31,0,0,1-11.74,4.24,24.84,24.84,0,0,1-4.3-.4A45.5,45.5,0,0,1,45.34,54.36Zm1.79-5.5c1.13-5.17.86-7.63,1.79-16.71,1.26-12.06,5.44-22.8,14.79-29A18.23,18.23,0,0,1,73.32,0a9.81,9.81,0,0,1,6.49,2.25,9,9,0,0,1,3.06,7.16c-.14,2.92-1.33,6.17-3.72,9.75-5.3,8-15,11.93-25.05,12.86a29.44,29.44,0,0,1,.59-4.24l1.46-.14c8.15-1.19,15.58-4.77,19.56-10.74,2.19-3.18,3-5.7,3.05-7.62a4.9,4.9,0,0,0-1.6-3.91,5.73,5.73,0,0,0-3.91-1.26A13.56,13.56,0,0,0,66,6.63c-5.77,3.78-9,9.15-10.93,15.51l-.4,1.39A55.85,55.85,0,0,0,53,32.08c-1,9.75-.72,12.33-2,17.7a3.76,3.76,0,0,1-.14.87,28.31,28.31,0,0,1-4-1.06Z" style="fill:#fff"/><path d="M63.91,50c3.38-2.85,8.42-7.29,12-10.87a34.74,34.74,0,0,0-5,10.08c-1.59,1.52-3,2.65-4.51,3.91A2,2,0,0,1,63.91,50Zm7.23,2.59c.73-5.7,3.91-10.67,7.09-15.25A124.42,124.42,0,0,1,92.15,21.21c1.79-1.46,4.78,1.06,3.25,2.85-.73.93-8.49,11.47-14.58,18.1C83.47,37.92,89.7,30.23,93,26.45a.45.45,0,0,0-.07-.66.44.44,0,0,0-.66.06c-5.9,7-16.58,19.63-17.11,27-.06,2,.67,2.58,1.73,2.58a10.67,10.67,0,0,0,3.78-1.26,45.17,45.17,0,0,0,8.08-5.9,2,2,0,0,1,2.86.2,2,2,0,0,1-.21,2.78c-4.24,3.65-9.94,8.16-14.51,8.16a6.21,6.21,0,0,1-2.19-.4C71.8,57.87,70.94,55.22,71.14,52.57Zm31.29-37.46A35.17,35.17,0,0,0,100,17.83a2.48,2.48,0,0,1-1.72.86,2,2,0,0,1-1.39-3.38c1-1.06,1.65-2,2.65-3a2,2,0,0,1,2.92,2.78Z" style="fill:#fff"/><path d="M92,65c4.84-1.86,10.81-3.58,17.44-5.9l1.32-.47c-1.26,1.86-2.39,3.71-3.64,5.5-12.2,4.05-21.35,6.37-24.53,11.8a7,7,0,0,0-1,3.39c0,2.25,1.53,3.91,4.24,3.77,6.77-.53,13.27-6.49,19.83-15.38,7.09-9.48,13.59-21.54,19.89-32.21a81.4,81.4,0,0,1,7.35-10.41c1.53-1.66,4.71.06,3.78,2.25S130.07,39.91,126,44l8.69-14.65c.2-.2.13-.4-.14-.6s-.53-.06-.66.14c-7.95,13.59-9.61,16.84-11.6,20.08L112.84,64.3C104.88,76.5,94.8,88,85,87.11c-5.17-.53-7.35-4.31-7.35-8.16A10.44,10.44,0,0,1,79,73.85C81.55,69.61,86.39,67.15,92,65ZM86.59,50C90,47.13,93.68,43.69,97.33,40a28,28,0,0,0-3.39,8.82c-1.59,1.52-3.38,3-4.9,4.24a1.87,1.87,0,0,1-2.72-.33A1.94,1.94,0,0,1,86.59,50Zm8,2.13a25.43,25.43,0,0,1,2.85-10.55C100.57,36,105.28,30,111,26.19a21.29,21.29,0,0,1,11.8-4.11,10.25,10.25,0,0,1,4.18.86,3.39,3.39,0,0,1,2.12,3c0,1.66-1.53,3.25-4.58,3.31-10.87.14-22.2,14.52-20.75,11.74,3.12-5.77,12.47-15,20.62-14.06,1,.2,1.06-.72.13-.86-9.67-1-19,9-23.53,17.44a17,17,0,0,0-2.52,8.35c0,2.52,1.06,3.38,2.52,3.38,2.19,0,5.24-1.92,6.76-3A145,145,0,0,0,121.39,40.9c-1.13,2.19-4.24,7.09-5.37,9.61-3.84,3.12-9.42,8.75-15.11,8.75A7.23,7.23,0,0,1,98.85,59C95.67,57.94,94.61,55.22,94.61,52.11Zm24,4.7a93.7,93.7,0,0,0,12.13-8.55,2,2,0,1,1,2.59,3,57.61,57.61,0,0,1-18.16,11.07Z" style="fill:#fff"/><path d="M128.49,50.05a180.76,180.76,0,0,0,13.85-13c.73-.8,2.85-3.38,5.44-6.37-4.25,6.1-8.35,12.53-12.07,18.37-1.59,1.39-3.18,2.78-4.71,4a1.93,1.93,0,0,1-2.78-.26A2,2,0,0,1,128.49,50.05ZM166.14,40c2.92-3.38,5.83-6.29,7.89-9.14a15,15,0,0,0,2.05-3.45c.6-1.86-.66-2.32-2.12-2.32a9.58,9.58,0,0,0-2.78.46c-13.26,4.18-28.37,20.75-35.07,32.68a1.85,1.85,0,0,1-1.66,1,2,2,0,0,1-1.85-2.85c7.22-12.4,14.85-24.66,21.94-33.61,1.26-1.59,2.39-3.12,4.24-2.12a1.91,1.91,0,0,1,.86,1.92,11.44,11.44,0,0,1-2.12,3.38l-3,3.91a108.83,108.83,0,0,0-12.4,12.4.4.4,0,0,0,.07.66c.2.2.4.13.6-.07,7.15-8.41,17-17.9,27.17-21.08a11.52,11.52,0,0,1,3.58-.59c3.58,0,6.7,1.79,6.7,5.17a7.22,7.22,0,0,1-.46,2.45,17.06,17.06,0,0,1-2.59,4.44c-2.19,2.92-5.24,6.23-8.09,9.35-2.91,3.38-5.3,6.23-6.36,8.68a6.27,6.27,0,0,0-.53,2.12,1.85,1.85,0,0,0,2.12,2,7.51,7.51,0,0,0,3.25-1,54.1,54.1,0,0,0,8.22-6.1,2,2,0,0,1,2.78.2,2,2,0,0,1-.19,2.85,55.75,55.75,0,0,1-8.89,6.56,10.4,10.4,0,0,1-5.17,1.53c-3.58,0-6.16-2.39-6.16-5.9a8.85,8.85,0,0,1,.92-3.85C160.51,46.54,163.29,43.16,166.14,40Z" style="fill:#fff"/><path d="M255.44,6.9A92.54,92.54,0,0,0,236,4.51c-8.22,0-14.85,1.72-18.36,6.1a11.71,11.71,0,0,0-2.92,7.29,7.51,7.51,0,0,0,6.57,7.62,5.66,5.66,0,0,0,6.29-2.65,2,2,0,1,1,3.25,2.25,10.25,10.25,0,0,1-10.6,4.45,12.33,12.33,0,0,1-9.49-12,14.44,14.44,0,0,1,4.45-10.15C220,2.45,227.8.93,235.89.93s16.7,1.59,22.87,2.85ZM229.59,61.65a7,7,0,0,1-3-.6,6.36,6.36,0,0,1-3.92-6.16c0-5.3,4.44-12.27,8-17.44,7.16-10.4,19.35-23,24.86-29.16,2.85-2.85,6.63-6.76,10.21-8,1.59-.07,3,1.86,1.52,3.91A15.35,15.35,0,0,1,263,7.62l3.05-3.11a.37.37,0,0,0,0-.6.6.6,0,0,0-.66-.07c-9.75,9.62-24.27,25.66-31.82,36.47-4,5.83-6.83,10.8-6.83,13.92a3.07,3.07,0,0,0,2,3.11c5.3,2.12,23-10.74,28.77-16.11-1.73,3.65-2.26,5.24-3.38,7.63C250.47,52.3,237.48,61.65,229.59,61.65ZM289.91,2.12C291.7.8,294.42,3.38,293.3,5.3,287.53,14.45,276,27,269.17,34c5.56-9.35,18.56-24.07,19.48-25.33.33-.46,0-.79-.46-.46-9.28,9-29.76,36.79-29.76,44.75,0,1.39.59,2.12,2,2.12a5.74,5.74,0,0,0,1.93-.33,36.59,36.59,0,0,0,9.81-6.5,1.93,1.93,0,0,1,2.78.2,2,2,0,0,1-.2,2.78c-3.64,3-7,6-11.27,7.49a12.8,12.8,0,0,1-3.71.67,5.87,5.87,0,0,1-4-1.39,4.7,4.7,0,0,1-1.52-3.85c0-11,20.22-36.59,23.53-40.24C283.28,7.82,286.8,4.31,289.91,2.12Z" style="fill:#fff"/><path d="M279,47.27c8.15-12.53,16.64-24.47,20.95-28.58a2,2,0,0,1,3.25,2.19,30.38,30.38,0,0,1-4.05,7.49c-1.12,1-2.32,2-3.44,3.05,1.65-2.32,3.58-4.84,5.37-7a.54.54,0,0,0-.14-.67c-.19-.2-.39-.13-.59.14-2.65,3.51-6.1,8-8.09,10.8l-.07.07a184.79,184.79,0,0,0-14.52,16.5c-.19.27-.13.47.14.67a.37.37,0,0,0,.6-.07c8.55-11.2,18.23-20.62,25.45-25.92l1.06-.8a21.34,21.34,0,0,1,6.43-3,11.81,11.81,0,0,1,2.12-.26,5.32,5.32,0,0,1,3.65,1.26,6.73,6.73,0,0,1,2.25,5.43c0,5-3.38,11.6-7.09,16.51-5.63,7.56-14.12,15.24-21.34,14.32a6.77,6.77,0,0,1-5.44-4.71,12.7,12.7,0,0,1-.53-3.58c1.39-1.66,2.85-3.31,4.24-4.84a1.68,1.68,0,0,1,.2,1.59,8.91,8.91,0,0,0-.53,3,6.66,6.66,0,0,0,.4,2.45,2.73,2.73,0,0,0,2.18,2.06c2.13.27,5-.8,8.36-3.25A45,45,0,0,0,309,42.69,38,38,0,0,0,314.78,32a12.88,12.88,0,0,0,.6-3.38,2.82,2.82,0,0,0-.87-2.38c-.26-.27-.92-.54-2.25-.2a18.07,18.07,0,0,0-5.17,2.51c-4.24,2.72-9.22,7.16-14.72,12.93l-2,2.19-.13.13a153.36,153.36,0,0,0-12.46,15,.2.2,0,0,0-.07.13A174.07,174.07,0,0,0,262.81,82.4a1.94,1.94,0,0,1-1.73,1.06,2,2,0,0,1-1.85-2.85C262.61,73.38,270.7,59.8,279,47.27Zm-9,2.78a160.19,160.19,0,0,0,13.45-12.73l.27-.2c0-.06.07-.13.13-.19l3.31-3.52c-3.71,5.37-7.82,11.54-11.86,17.37-1,.79-1.79,1.59-2.78,2.32A2,2,0,1,1,270,50.05Z" style="fill:#fff"/></svg>