<?xml version="1.0" encoding="utf-8"?>
<!-- Generator: Adobe Illustrator 25.2.1, SVG Export Plug-In . SVG Version: 6.00 Build 0)  -->
<svg version="1.1" id="Layer_1" xmlns="http://www.w3.org/2000/svg" xmlns:xlink="http://www.w3.org/1999/xlink" x="0px" y="0px"
	 viewBox="0 0 1308.6 180.3" style="enable-background:new 0 0 1308.6 180.3;" xml:space="preserve">
<style type="text/css">
	.st0{fill:#B65037;}
	.st1{fill:#FFFFFF;}
</style>
<path class="st0" d="M164.4,31.6c-0.3,5.8-3.1,13.1-7.4,19.8c-9.1,12.7-26.3,20.8-44.9,24.2c-0.3,3.8-0.7,6.9-0.8,9.7l-0.3,4
	c1.9-0.9,3.7-2.1,5.4-3.4c1.6-1.2,3.5-1.8,5.5-1.8c3.1,0,6,1.4,7.8,3.9l0.6,0.9l7.5,7.5l0.9,1c0.9,1.4,1.4,3,1.4,4.6
	c0,3.1-1.5,6-3.9,7.8c-7.8,6-15.1,8.5-23.7,8.5c-2.8,0-5.6-0.3-8.4-0.8c-0.2-0.1-0.4-0.1-0.6-0.1c-11.6,19.5-29,28-48.6,27.6
	c-11.3-0.2-24.4-4.6-33.6-13.8l-5.5-5.5c-6.3-4.9-11.1-11.5-13.6-19.1c-1.4-4.2-2.1-8.6-2.1-13c0.1-10.4,4.3-20.3,11.6-27.6
	c7.8-8,18.5-12.5,29.7-12.5c1.4,0,2.9,0.1,4.4,0.2l-0.3-0.2c-1.9-1.5-3.7-3.2-5.3-5c-7.2-7.5-11.8-17-11.8-28.2c0-3.1,0.3-6.1,1-9.1
	c1.2-5.1,6.3-8.3,10.8-7.2c2.4,0.6,4.5,2.2,5.9,4.3l7.6,7.6c0-0.1-0.1-0.1-0.1-0.2l0.3,0.4C56,18,57,21,56.4,24
	c-0.4,1.8-0.6,3.6-0.6,5.4c0,3.5,0.8,7,2.5,10.1c6,3.9,12.7,6.7,19.8,8.1c2.9,0.5,5.8,0.9,8.8,1c3.7-17.4,11.8-32.4,26.3-42
	c6.5-4.2,13.6-6.5,20-6.5c5.5,0,10.8,1.8,15,5.3c1.3,1.2,2.4,2.5,3.5,3.9l6.1,6.2c0.1,0,0.1,0.1,0.2,0.1
	C162.1,19.9,164.4,25.6,164.4,31.6z M83.1,83.6l0.7-6.8c0-0.6,0.1-1.2,0.1-1.8v-0.3c-2.9-0.6-5.7-1.3-8.4-2.1l0.7,0.6
	C79.1,76.2,81.4,79.7,83.1,83.6z M122,41.5c4.2-2.3,7.7-5.6,10.5-9.5l1-1.5c-0.3,0.2-0.6,0.4-0.9,0.6
	C128.4,33.8,124.8,37.4,122,41.5z M157.7,15.6l-0.6-0.7C157.4,15.1,157.5,15.3,157.7,15.6z"/>
<path class="st0" d="M114.7,103.7c-1-0.6-1.9-1.3-2.7-2.2c-1.5-1.6-2.3-3.8-2.3-6c0-2.7,1.2-5.3,3.2-7.1c4.1-3.2,9.1-8,14.9-13.5
	c6.5-16.2,21.7-31.8,36-37.7c3.3-1.3,6.8-2,10.4-2.1c6.6,0,12.1,2.8,15.3,7.5l7,7c3.1,3.1,4.8,7.5,4.8,12.9c0,1.9-0.2,3.9-0.7,5.8
	c-1.9,7.5-6.7,13.9-12.9,19.1c0.2,0.2,0.3,0.4,0.5,0.7l7.6,7.5c1.4,1.6,2.2,3.6,2.2,5.8c0,2.6-1.1,5.2-3.1,6.9
	c-2.2,2.1-4.6,4.1-7.1,5.9c-7.8,6-17.4,9.9-26.3,10.2c-7.3,0.3-15-1.5-20.3-6.8l-6.6-6.6c-0.1-0.1-0.1-0.1-0.2-0.1l-0.5,0.3l0.1,0.1
	c-1.5,1.4-3.6,2.2-5.6,2.2c-2.4,0-4.7-1-6.5-2.7L114.7,103.7z"/>
<path class="st0" d="M221.8,83.1h0.6c2.6,0,5.2,1.1,6.9,3.1c0.5,0.5,0.9,1.1,1.3,1.7l7.7,7.7c1.4,1.6,2.2,3.6,2.2,5.8
	c0,2.6-1.1,5.2-3.1,6.9c-1.4,1.4-2.9,2.7-4.5,3.9l-1.1,0.8l-0.1-0.1c-3.9,3.2-8.1,6-12.4,8.4c-3,1.7-6.4,2.5-9.9,2.5
	c-2,0-3.9-0.3-5.8-0.9l-0.1-0.1c-2.6-0.8-5-2.1-7-4l-6.3-6.3c-1.3,0.7-2.7,1-4.1,1c-2.4,0-4.6-0.9-6.3-2.5l-7.4-7.4
	c-1-0.5-1.9-1.2-2.5-2.1c-1.5-1.6-2.3-3.7-2.3-5.9c0-2.8,1.2-5.5,3.5-7.3c5.6-4.6,14.5-12.1,21.6-18.8c15-25,42.3-54.7,52-60.9
	c1.4-0.8,3-1.3,4.6-1.3c4.2,0.1,8.1,2.4,10.3,6.1l7,7c1.9,1.7,2.9,4.1,3,6.6c0,1.4-0.4,2.8-1,4c-7.8,13-30.3,35.8-45.4,50.9
	L221.8,83.1z"/>
<path class="st0" d="M214.3,103.7c-1-0.6-1.9-1.3-2.6-2.2c-1.5-1.6-2.3-3.8-2.3-6c0-2.7,1.2-5.3,3.2-7.1c4.1-3.2,9.1-8,14.9-13.5
	c6.4-16.2,21.7-31.8,35.9-37.7c3.3-1.3,6.8-2,10.4-2.1c6.6,0,12.1,2.8,15.3,7.5l7,7c3.1,3.1,4.8,7.5,4.8,12.9c0,1.9-0.2,3.9-0.7,5.8
	c-1.9,7.5-6.7,13.9-12.9,19.1c0.2,0.2,0.3,0.4,0.5,0.7l7.6,7.5c1.4,1.6,2.2,3.6,2.2,5.8c0,2.6-1.1,5.2-3.1,6.9
	c-2.2,2.1-4.6,4.1-7.1,5.9c-7.8,6-17.4,9.9-26.3,10.2c-7.3,0.3-15-1.5-20.3-6.8l-6.6-6.6c-0.1-0.1-0.1-0.1-0.2-0.1l-0.5,0.3l0.1,0.1
	c-1.5,1.4-3.6,2.2-5.6,2.2c-2.4,0-4.7-1-6.4-2.7L214.3,103.7z"/>
<path class="st0" d="M271.7,103.4c-0.9-0.5-1.8-1.2-2.4-2c-1.5-1.6-2.3-3.8-2.3-6c0-2.7,1.2-5.3,3.2-7.1c5.2-4.2,10.1-8.6,14.8-13.3
	c6.3-16.4,21.7-32.1,36.1-38c3.3-1.3,6.7-2.1,10.2-2.1c6.8,0,12.4,2.9,15.7,8l6.7,6.7c3.3,3.5,5.1,8.1,5,12.9c0,1.9-0.2,3.8-0.7,5.7
	c-1.1,4.8-3.3,9.2-6.5,13c-1.7,2.5-4,4.4-6.7,5.8l0.6,0.9l7.7,7.7c1.4,1.6,2.2,3.6,2.2,5.8c0,2.6-1.1,5.2-3.1,6.9
	c-2.2,2.1-4.6,4.1-7.1,5.9c-7.8,6-17.4,9.9-26.3,10.2c-7.3,0.3-15-1.5-20.3-6.8l-6.7-6.7l-0.5,0.5c-1.6,1.3-3.6,2-5.6,2
	c-2.4,0-4.7-0.9-6.5-2.5l-0.6-0.6l0.1,0.2L271.7,103.4z M309.2,97.1c5-0.3,10.9-3,15.5-6.4l6.2-5.2c0.6-0.5,1.2-0.9,1.9-1.3l-6-6.1
	c-2-1-3.5-2.8-4-5c-5.6,5.8-10.5,12.8-12.4,18.6h-0.1C309.6,93.4,309.2,95.3,309.2,97.1z"/>
<path class="st0" d="M361.2,34.1h14.2c9.9-11.5,19.6-21.3,25.8-25.7c1.5-1,3.3-1.6,5.1-1.6c3.6,0.1,6.9,2,8.8,5.1l7.5,7.5
	c1.7,1.6,2.6,3.9,2.6,6.2c0,1.4-0.4,2.8-1,4c-2.4,3.9-5,7.6-7.9,11.1l5.9,5.8c1.6,1.6,2.6,3.8,2.5,6.1c0.1,4.8-3.7,8.8-8.5,8.9
	c-0.1,0-0.3,0-0.4,0h-17l-19,21.7c2.5,0.1,4.8,1.2,6.5,3.1c0.5,0.5,0.9,1.1,1.3,1.7l7.7,7.7c1.4,1.6,2.2,3.6,2.2,5.8
	c0,2.6-1.1,5.2-3.1,6.9c-1.4,1.4-2.9,2.7-4.5,3.9l-1.1,0.8c-4.6,3.4-9,6.6-12.6,8.3l-0.1-0.1c-3,1.7-6.4,2.6-9.9,2.7
	c-1.9,0-3.8-0.3-5.6-0.9l-0.1-0.1c-2.6-0.8-5-2.1-6.9-4l-6.3-6.3c-1.2,0.8-2.7,1.2-4.1,1.2c-2.4,0-4.7-1-6.5-2.7l-7.2-7.3
	c-1-0.6-1.9-1.3-2.6-2.2c-1.5-1.6-2.3-3.7-2.3-5.9c0-2.7,1.2-5.3,3.2-7.1c5.6-4.6,13.9-12.5,21.4-18.8c3-5,6.6-10.1,10.5-15.4
	l-2.6-2.9c-3-1.6-4.8-4.7-4.7-8.1C352,38.3,356.1,34.2,361.2,34.1z"/>
<path class="st0" d="M521.8,84.8l1.6,1.4c0.5,0.5,0.9,1.1,1.3,1.7l7.7,7.7c1.4,1.6,2.2,3.6,2.2,5.8c0,2.6-1.1,5.1-3,6.9
	c-8,6.7-19,15.7-28.7,15.7c-2.1,0-4.2-0.5-6.1-1.4l-0.2-0.1c-1.8-0.8-3.4-2-4.8-3.3l-3.8-3.8l-0.7,0.6c-5.9,4.1-12.6,7.6-19,7.6
	c-1.7,0-3.4-0.2-5.1-0.7H463c-2.4-0.8-4.6-2.1-6.5-3.9l-6.8-6.8c-5.5-3.3-7.4-9.2-7.4-15.7c0-7.8,3.2-16.6,5.5-21
	c6.5-11.1,15-20.8,25.2-28.6c8.4-6.1,18.1-11.3,27.2-11.3c2.3,0,4.6,0.3,6.8,0.9c3.3,0.9,6.2,3,8.1,5.9l0.7,0.7
	c0.6-0.1,1.1-0.2,1.7-0.2c4.1,0.1,7.8,2.2,10,5.6l7.4,7.4c1.6,1.5,2.5,3.6,2.5,5.8c-0.1,2.1-0.9,4.2-2.3,5.8
	C534.3,68.8,528.9,76.3,521.8,84.8z"/>
<path class="st0" d="M731.9,31.6c-0.3,5.8-3.1,13.1-7.4,19.8c-9.1,12.7-26.3,20.8-44.9,24.2c-0.3,3.8-0.7,6.9-0.8,9.7l-0.3,4
	c1.9-0.9,3.7-2.1,5.4-3.4c1.6-1.2,3.6-1.8,5.6-1.8c3.1,0,6,1.4,7.8,3.9l0.6,0.9l7.5,7.5l0.9,1c0.9,1.4,1.4,3,1.4,4.6
	c0,3.1-1.5,6-3.9,7.8c-7.8,6-15.1,8.5-23.7,8.5c-2.8,0-5.6-0.3-8.4-0.8c-0.2-0.1-0.4-0.1-0.6-0.1c-11.6,19.5-29,28-48.6,27.7
	c-11.3-0.2-24.4-4.6-33.6-13.8l-5.5-5.5c-6.3-4.9-11.1-11.5-13.6-19.1c-1.4-4.2-2.1-8.6-2.1-13c0.1-10.4,4.3-20.3,11.6-27.6
	c7.8-8,18.5-12.5,29.7-12.5c1.4,0,2.9,0.1,4.4,0.2l-0.3-0.2c-1.9-1.5-3.7-3.2-5.3-5c-7.2-7.5-11.7-17-11.7-28.2c0-3.1,0.3-6.1,1-9.1
	c1.2-5.1,6.3-8.3,10.8-7.2c2.4,0.6,4.5,2.2,5.9,4.3l7.6,7.6c0-0.1-0.1-0.1-0.1-0.2l0.3,0.4c2.1,2.1,3.1,5.1,2.6,8.1
	c-0.3,1.8-0.5,3.6-0.6,5.4c0,3.5,0.8,7,2.5,10.1c6,3.9,12.8,6.7,19.8,8.1c2.9,0.5,5.8,0.9,8.8,1c3.7-17.4,11.8-32.4,26.3-42
	c6.4-4.2,13.6-6.5,19.9-6.5c5.5,0,10.8,1.8,15,5.3c1.3,1.2,2.4,2.5,3.5,3.9l6.1,6.2c0.1,0,0.1,0.1,0.2,0.1
	C729.6,19.9,732,25.6,731.9,31.6z M650.6,83.6l0.7-6.8c0-0.6,0.1-1.2,0.1-1.8v-0.3c-2.9-0.6-5.6-1.3-8.4-2.1l0.7,0.6
	C646.6,76.2,649,79.7,650.6,83.6z M689.5,41.5c4.2-2.3,7.7-5.6,10.5-9.5l1-1.5c-0.3,0.2-0.6,0.4-0.9,0.6
	C695.9,33.8,692.3,37.4,689.5,41.5z M725.2,15.6l-0.6-0.7C724.9,15.1,725.1,15.3,725.2,15.6z"/>
<path class="st0" d="M767.8,83.5c1.5,0.6,2.9,1.5,4,2.7c0.5,0.6,0.8,1.2,9,9.4c3.3,3.5,3,9-0.5,12.3c-0.1,0.1-0.3,0.3-0.4,0.4h0.1
	c-8.1,6.9-18.8,15.4-28.7,15.4c-2,0-3.9-0.3-5.8-1c-1.8-0.7-3.4-1.7-4.7-3.1l-5.2-5.2c-6.4,4.6-13.9,8.6-20.7,8.6
	c-3.1,0-6.2-0.8-8.9-2.4l-0.1-0.1c-1-0.6-1.8-1.4-2.7-2.2l-5.2-5.2c-3.1,0.7-6.3-0.1-8.6-2.3c-8.4-7.8-9.2-8.5-9.9-9.3
	c-1.5-1.6-2.3-3.8-2.3-6c0-2.7,1.1-5.2,3.1-7c4.3-3.7,12.5-11.3,17.7-15.1c7.8-12.9,20-27.2,32-37.7c1.8-1,3.7-1.5,5.8-1.5
	c3.9,0,7.3,2.1,16.2,12.4l0.9,1.2c3.5-3.8,7.2-7.4,11.1-10.8c1.6-1.2,3.5-1.8,5.5-1.7c3.8,0,7.6,2.1,16.8,12.7
	c1.7,1.6,2.6,3.9,2.7,6.2c0,2-0.7,4-2,5.6H787C784.7,63.5,776.6,73.5,767.8,83.5z"/>
<path class="st0" d="M765.3,112.7c-1.9-1.1-3.3-2.7-4.2-4.7l-4.3-4.4c-1-0.6-1.9-1.4-2.7-2.3c-3.2-3.7-2.8-9.4,0.9-12.6
	c0.1-0.1,0.3-0.2,0.4-0.3c5.9-4.8,16.5-15.1,22.5-21.1l2-2.1l5.9-6.2l9.1-10.6c14.2-18.9,29.3-37,39.7-44.8c1.6-1.1,3.6-1.7,5.5-1.6
	c3.8,0,7.8,1.8,9.6,5.2l7.5,7.4c1.5,1.5,2.3,3.5,2.3,5.5c0,1.9-0.6,3.8-1.6,5.4c-2.7,5-7.6,10.8-13.8,17.6c0.7,0.7,1.3,1.5,1.7,2.3
	l7.1,6.9c3.1,3.4,4.8,7.8,4.6,12.4c0,9.9-6.5,22.6-13.5,31.9h0.1c-10.5,14.3-27.4,29-42.2,27.1l-0.2-0.1c-3.5-0.5-6.8-2.2-9.3-4.7
	l-3.9-3.9l-1.8,3.2c-1.4,2.9-4.4,4.6-7.6,4.6c-2.5,0-4.8-1-6.6-2.8L765.3,112.7z"/>
<path class="st0" d="M886.7,65c3.3,0,6.4,1.8,8,4.7l7.4,7.4c1.7,1.7,2.7,3.9,2.7,6.3c0,4.3-2.7,8.3-8.9,8.3h-21.9
	c-2.4,0.1-4.8-0.7-6.6-2.4l-7.5-7.5c-3.1-1.5-4.4-4.4-4.4-7.6c0-5.1,4.1-9.2,9.2-9.2H886.7z"/>
<path class="st0" d="M934.7,113.9c-6.2-4.8-9.1-12.8-9.1-22.1c0-6.8,2.1-15.2,5.2-22.5c0.7-1.4,1.4-3,2.3-4.6
	c-1.8-1.5-3.5-3-5.1-4.7l-3.8-3.7c-4.7-3.7-8.8-8.1-12.4-12.9c-1-1.6-1.5-3.5-1.5-5.4c-0.1-3,1.4-5.9,3.8-7.7
	c1.6-1.1,3.6-1.7,5.5-1.7c2.9,0,5.6,1.4,7.4,3.7l0.8,1.3l7.4,7.3l0.7,0.8c2.6,2.2,5.3,4.1,8.2,5.9c2.9-4,5.9-7.8,9-11.4
	c2.8-3.1,5.4-6,8-8.4C976.5,13.1,998.1,0,1015,0c6.1-0.1,12,1.8,16.9,5.4c1.8,1.5,3.4,3.2,4.8,5.1l6.6,6.5c3.9,3.8,6.1,9.1,6,14.6
	c0,1.9-0.2,3.8-0.6,5.6h-0.1c-0.2,1.4-0.6,2.7-1,4l4.8,4.8c1.7,1.8,2.9,4,2.5,6.5h0.1c-0.7,5.7-6.3,14.5-12.9,22.5
	c-2.9,3.6-6.1,6.9-9.6,9.9h-0.1l-0.1,0.1c1.6,0.6,3.1,1.5,4.3,2.8l0.8,1.3l7.6,7.5l0.7,0.8c1.2,1.5,1.9,3.4,2,5.4
	c0,2.7-1.3,5.3-3.3,7c-11.1,9.1-31.4,20.5-43.3,23.7l0.1,0.1c-2.2,0.7-4.5,1.3-6.8,1.8l-0.8,0.9c-13.7,17.7-28.4,33.2-42.7,40.3
	c-4.7,2.3-9.8,3.6-15,3.7c-7,0.2-13.8-2.5-18.9-7.4l-6.2-6.2c-6.3-4.4-10.1-11.6-10-19.2c0-5.3,1.8-11.5,6.2-17.6
	C914,119.8,923.6,115.9,934.7,113.9z"/>
<path class="st0" d="M1022.7,103.7c-1-0.6-1.9-1.3-2.7-2.2c-1.5-1.6-2.3-3.8-2.3-6c0-2.7,1.2-5.3,3.2-7.1c4.1-3.2,9.1-8,14.9-13.5
	c6.4-16.2,21.7-31.8,35.9-37.7c3.3-1.3,6.8-2,10.4-2.1c6.6,0,12.1,2.8,15.3,7.5l7,7c3.1,3.1,4.8,7.5,4.8,12.9c0,1.9-0.2,3.9-0.7,5.8
	c-1.8,7.5-6.7,13.9-12.9,19.1c0.2,0.2,0.3,0.4,0.5,0.7l7.6,7.5c1.4,1.6,2.2,3.6,2.2,5.8c0,2.6-1.1,5.2-3.1,6.9
	c-2.2,2.1-4.6,4.1-7.1,5.9c-7.8,6-17.4,9.9-26.3,10.2c-7.3,0.3-15-1.5-20.3-6.8l-6.6-6.6c-0.1-0.1-0.1-0.1-0.2-0.1l-0.5,0.3l0.1,0.1
	c-1.5,1.4-3.6,2.2-5.6,2.2c-2.4,0-4.7-1-6.5-2.7L1022.7,103.7z"/>
<path class="st0" d="M1075.3,95.5c0-2.7,1.2-5.2,3.2-6.9c7.5-6,16.4-14.7,23.5-22l10.8-11c3.5-4.8,6.9-9.6,10.3-13.8
	c2.5-3.2,5.1-6.6,9.3-6.6c2.1,0.1,4.1,0.7,5.9,1.7c1.1,0.9,2.1,2,2.8,3.2l2.1,2.2c3-1.7,6.2-3.1,9.4-4.3c2.6-0.8,5.3-1.3,8.1-1.3
	c6.6,0,12.4,2.5,15.4,7.4l7,7c2.6,2.5,3.9,6,3.8,9.6c0,2.1-0.4,4.1-1.2,6.1h-0.1c-1.2,3.3-2.9,6.4-5.1,9.1c-2.4,3.1-5.1,6.3-7.8,9.4
	l0.9,0.8l1.1,1.7l7.8,7.8c1.4,1.7,2.2,3.8,2.2,6c0,2.6-1.2,5-3.1,6.7c-5.1,4.5-10.5,8.5-16.2,12c-3.5,2.1-7.5,3.2-11.6,3.3
	c-4.4,0.1-8.6-1.6-11.8-4.6l-6.7-6.7c-4.7-2.9-7.5-8.1-7.2-13.6c0-2.2,0.3-4.3,1-6.3c-8.1,8.8-15.1,18.1-19.7,26.4
	c-1.5,2.8-4.4,4.5-7.6,4.5c-2.5,0-4.8-1-6.6-2.8c-9.8-8.6-11.6-11-12.1-13.8l-3-3.1c-1.1-0.6-2-1.4-2.8-2.3
	C1076.1,99.7,1075.3,97.7,1075.3,95.5z"/>
<path class="st0" d="M1157.5,100.2c-1.4-1.6-2.2-3.7-2.2-5.9c0-2.8,1.2-5.4,3.3-7.1c9.9-8.5,24.3-23.2,46.3-46.5
	c1.4-5.5,5.4-9.9,10.7-11.9v-0.1c1.2-0.5,2.5-0.7,3.8-0.7c3.5,0,6.6,2,8.3,5l7.3,7.3c2.3,2.3,3.2,5.7,2.4,8.9l0.3,0.3l-0.1,0.1
	l7.8,7.8c0.5,0.4,0.9,0.9,1.3,1.5l-0.2-0.2c1.1,1.5,1.7,3.2,1.7,5.1c0,3.1-1.4,6-3.8,7.8h-0.1c-4.8,3.4-9.2,7.3-13.1,11.8
	c2.1,0.3,4.1,1.3,5.5,2.9c0.5,0.5,0.9,1.1,1.3,1.7l7.7,7.7c1.4,1.6,2.2,3.6,2.2,5.8c0,2.6-1.1,5.1-3,6.9c-8.1,6.9-19,15.4-28.8,15.4
	c-2,0-3.9-0.4-5.8-1c-2-0.8-3.8-2-5.3-3.6c-11.3-9.6-13.7-14.3-14.3-19.2c-4,3.8-7.8,7.4-11.3,10.4c-1.7,1.3-3.7,2-5.8,2
	c-2.5,0-4.8-0.9-6.6-2.7l-7.3-7.3c-0.9-0.5-1.8-1.2-2.4-2L1157.5,100.2z"/>
<path class="st0" d="M1222,103.7c-1-0.6-1.9-1.3-2.7-2.2c-1.5-1.6-2.3-3.8-2.3-6c0-2.7,1.2-5.3,3.2-7.1c4.1-3.2,9.1-8,14.9-13.5
	c6.4-16.2,21.7-31.8,35.9-37.7c3.3-1.3,6.8-2,10.4-2.1c6.6,0,12.1,2.8,15.3,7.5l7,7c3.1,3.1,4.8,7.5,4.8,12.9c0,1.9-0.2,3.9-0.7,5.8
	c-1.8,7.5-6.7,13.9-12.9,19.1c0.2,0.2,0.4,0.4,0.5,0.7l7.6,7.5c1.4,1.6,2.2,3.6,2.2,5.8c0,2.6-1.1,5.2-3.1,6.9
	c-2.2,2.1-4.6,4.1-7.2,5.9c-7.8,6-17.4,9.9-26.3,10.2c-7.3,0.3-15-1.5-20.3-6.8l-6.6-6.6c-0.1-0.1-0.1-0.1-0.2-0.1l-0.5,0.3l0.1,0.1
	c-1.5,1.4-3.6,2.2-5.7,2.2c-2.4,0-4.7-1-6.4-2.7L1222,103.7z"/>
<path class="st1" d="M5.8,93.6c0.1-8.9,3.7-17.4,10-23.6c6.8-6.9,16-10.7,25.6-10.7c2.9,0,5.7,0.3,8.5,1c13.5,3.2,20,13.3,20.7,23.7
	c0.1,4.7-0.9,9.3-2.8,13.6c-4.1,8.8-13.1,14.3-22.8,13.9c-8.9-0.2-16-6.8-16-14.9c0-1.2,0.1-2.5,0.5-3.7c1.1-4.3,3.9-7.9,7.7-10.1
	c3.6-2,7.7-2.4,12-2.2c4.3,0.4,8.5,1.3,12.6,2.8c0.3,2.4,0.1,4.9-0.6,7.3c-4-1.5-8.2-2.5-12.4-2.9c-2.8-0.3-5.6,0.1-8.2,1.3
	c-2.1,1.3-3.7,3.4-4.3,5.9c-1.2,4.3,2.9,9.3,8.9,9.6c7.3,0.2,14-4.1,16.8-10.9c1.1-2.5,1.7-5.2,1.7-8c0-1.6-0.2-3.2-0.7-4.7
	c-1.6-6.1-6.2-11.6-14.7-13.7c-2.2-0.5-4.4-0.7-6.6-0.7c-7.8,0-15.4,3.1-20.9,8.6c-5,4.9-7.8,11.6-7.8,18.7c0,3,0.5,5.9,1.4,8.8
	c4.5,13.6,19,20.7,31.5,20.8c16.9,0.3,30.6-6.1,38-21.2c2.2,0.6,4.5,1.3,6.9,1.8c-8.4,18.8-25.1,27-45,26.5
	c-14.5-0.4-32.4-8.3-38.1-25.7C6.4,101.1,5.8,97.3,5.8,93.6z M44.2,44.5C38,38,34.1,29.8,34.1,20.3c0-2.7,0.3-5.4,0.9-8.1
	c0.3-1.8,2.1-3,3.9-2.7c0.1,0,0.1,0,0.2,0c1.9,0.4,3.1,2.2,2.8,4.1c-0.4,2.1-0.7,4.3-0.7,6.4c0,7.7,3.1,14.1,8.1,19.2
	c6.5,6.8,16.6,11.5,27.8,13.8c4.3,0.8,8.6,1.3,12.9,1.4c-0.3,2.4-0.7,4.7-0.9,7.1c-4.4-0.1-8.9-0.7-13.2-1.6
	C63.5,57.7,52.1,52.5,44.2,44.5z M84.6,100.3l-3.3-1c-3.4-1.2-6.8-2.7-10-4.4l-0.5-0.2c0.7-2.3,1.2-4.7,1.4-7.1
	c0.7,0.3,1.5,0.6,2.2,1c2.9,1.4,5.8,2.7,8.9,3.8c7.3,2.9,13.6,4.6,19.1,4.6c6.2,0,11.8-2.1,17.6-6.7c1.6-1.2,3.9-0.8,5.1,0.8
	c1,1.6,0.2,3.9-1.4,5.2c-6.8,5.2-13,7.4-20.4,7.4c-2.5,0-5-0.2-7.5-0.7C91.9,102.4,88.2,101.5,84.6,100.3z M87.7,90.8
	c2-9,1.5-13.2,3.1-29c2.2-21,9.4-39.6,25.7-50.3c5.5-3.6,11.4-5.5,16.7-5.5c4.1-0.1,8.1,1.3,11.3,3.9c3.5,2.9,5.3,7.3,5.3,12.4
	c-0.2,5.1-2.3,10.7-6.4,16.9c-9.2,13.8-26,20.7-43.6,22.3c0.2-2.5,0.5-4.9,1-7.4l2.5-0.2c14.2-2.1,27.1-8.3,34-18.7
	c3.8-5.5,5.2-9.9,5.3-13.2c0.2-2.6-0.9-5.1-2.8-6.8c-1.9-1.5-4.3-2.3-6.8-2.2c-3.6,0-8,1.3-12.7,4.4c-10,6.6-15.7,15.9-19,27
	l-0.7,2.4c-1.3,4.9-2.2,9.8-2.8,14.9c-1.7,16.9-1.3,21.4-3.5,30.8c0,0.5-0.1,1-0.2,1.5c-2.3-0.4-4.7-1.1-6.9-1.8L87.7,90.8z"/>
<path class="st1" d="M116.8,92.7c4.7-3.8,9.2-7.8,13.5-12.1c-1.1,3.6-1.7,7.3-1.7,11.1c-2.7,2.3-5,4.5-7.4,6.4
	c-1.4,1.2-3.6,1-4.8-0.5c0,0-0.1-0.1-0.1-0.1C115.2,96.1,115.4,94,116.8,92.7z M130.5,90c0-18.5,18.6-40.4,35.5-47.3
	c2.6-1.1,5.4-1.7,8.2-1.7c7.3,0,12.6,4.7,12.6,12.4c0,1.5-0.2,3-0.6,4.5C182.2,74.1,161.5,85,146.7,85c-2.4,0-4.8-0.3-7.1-1
	c0.7-2.3,1.7-4.5,2.9-6.6c1.4,0.3,2.9,0.5,4.4,0.5c8.3,0,18.9-4.6,25.6-10.5c3.3-2.9,7.5-8.9,7.5-13.7c0.1-1.4-0.4-2.8-1.3-3.9
	c-0.7-0.9-2.2-1.4-4.3-1.4c-3,0.1-6,0.9-8.8,2.2c-10.5,5.1-23,19.2-26.7,30.2c-0.9,2.6-1.4,5.2-1.4,7.9c0,8,4.5,14.6,14.3,14.2
	c6.3-0.3,13.5-3.1,19.5-7.7c2.2-1.7,4.3-3.5,6.6-5.4c1.4-1.2,3.6-1.1,4.8,0.3c1.2,1.4,1.1,3.6-0.4,4.8l0,0c-2.2,2-4.5,3.9-6.9,5.6
	c-6.9,5.4-15.4,8.9-23.3,9.2s-16.2-2.3-19.6-10.2C131.1,96.6,130.5,93.3,130.5,90z"/>
<path class="st1" d="M174.4,92.7c5.6-4.6,11.6-10.2,17.5-16.1c-2.6,4.7-4.6,9.8-5.8,15.1l-7.3,6.5c-1.5,1.2-3.7,1-4.9-0.5
	c0,0,0-0.1-0.1-0.1c-1.2-1.4-1-3.6,0.5-4.8C174.3,92.8,174.4,92.8,174.4,92.7z M187.4,95.8c0-1.9,0.3-3.9,0.8-5.8
	c6.2-23,47.6-69,59.2-76.5c3.3-2.1,9.1,1.6,6.8,5.6c-7.5,13.4-32.9,38.2-48,53.3c9.9-14.6,33.8-41.8,43.9-51.4
	c0.2-0.4,0.1-0.9-0.3-1.1c-0.3-0.2-0.7-0.1-0.9,0.1c-14.4,13.5-49.1,52-53.9,71.5c-0.3,1.2-0.4,2.5-0.5,3.8c0,3.5,1.3,6.8,5.2,6.8
	c3.2,0.2,7.6-2.3,15.6-8.5c1.7-1.3,3.2-2.5,5-4c1.4-1.2,3.6-1.1,4.8,0.3c1.2,1.4,1.1,3.6-0.4,4.8c-1.6,1.6-3.4,3-5.2,4.4
	c-4.3,3.2-8.2,6.1-11.9,7.8c-2.3,1.3-4.9,2-7.6,2.1c-1.4,0-2.7-0.3-4-0.7C189.8,106.7,187.4,101.4,187.4,95.8L187.4,95.8z"/>
<path class="st1" d="M216.4,92.7c4.7-3.8,9.2-7.8,13.5-12.1c-1.1,3.6-1.7,7.3-1.7,11.1c-2.6,2.3-5,4.5-7.4,6.4
	c-1.4,1.2-3.6,1-4.8-0.5c0,0-0.1-0.1-0.1-0.1C214.7,96.1,214.9,94,216.4,92.7z M230.1,90c0-18.5,18.6-40.4,35.5-47.3
	c2.6-1.1,5.4-1.7,8.2-1.7c7.3,0,12.6,4.7,12.6,12.4c0,1.5-0.2,3-0.6,4.5C281.8,74.1,261.1,85,246.2,85c-2.4,0-4.8-0.3-7.1-1
	c0.7-2.3,1.7-4.5,2.9-6.6c1.4,0.3,2.9,0.5,4.4,0.5c8.3,0,18.9-4.6,25.6-10.5c3.3-2.9,7.5-8.9,7.5-13.7c0.1-1.4-0.4-2.8-1.3-3.9
	c-0.7-0.9-2.2-1.4-4.3-1.4c-3,0.1-6,0.9-8.8,2.2c-10.5,5.1-23,19.2-26.7,30.2c-0.9,2.6-1.4,5.2-1.4,7.9c0,8,4.5,14.6,14.3,14.2
	c6.3-0.3,13.5-3.1,19.5-7.7c2.2-1.7,4.3-3.5,6.6-5.4c1.4-1.3,3.6-1.1,4.9,0.3c1.3,1.4,1.1,3.6-0.3,4.9c-2.2,2-4.5,3.9-6.9,5.6
	c-6.9,5.4-15.4,8.9-23.3,9.2c-7.8,0.3-16.2-2.3-19.6-10.1C230.7,96.6,230,93.3,230.1,90z"/>
<path class="st1" d="M274,92.7c4.7-3.8,9.2-7.8,13.5-12.1c-1,3.5-1.5,7.1-1.4,10.7c-2.6,2.3-5.3,4.8-7.7,6.8c-1.4,1.2-3.6,1-4.8-0.5
	c0,0-0.1-0.1-0.1-0.1C272.3,96.1,272.5,94,274,92.7z M287.7,89.9c0-18.7,18.5-40.5,35.5-47.5c2.6-1.1,5.3-1.7,8.1-1.7
	c7.3,0,12.7,4.7,12.7,12.5c0,1.6-0.2,3.1-0.6,4.6c-0.9,4-2.8,7.7-5.4,10.8c-2.6,3.5-5,4.7-6.7,4.7c-1.7,0.1-3.1-1.2-3.1-2.9
	c0-0.1,0-0.2,0-0.3c0-1.2,0.6-2.4,1.5-3.2c1.3-1,2.5-2.2,3.5-3.6c2.2-3.2,4.1-7,4.1-10.4c0-1.4-0.4-2.8-1.3-3.9
	c-1.1-1.3-2.7-2-4.4-1.8c-2.8,0.2-5.5,0.9-7.9,2.2c-10.6,5.2-24,20.2-27.6,31.3c-0.9,2.7-1.4,5.6-1.4,8.4c0,8,4.3,14.4,14.3,13.7
	c6.3-0.3,13.5-3.1,19.5-7.7c2.2-1.7,4.3-3.5,6.6-5.4c1.4-1.2,3.6-1.1,4.8,0.4s1.1,3.6-0.4,4.8l0,0c-2.2,2-4.5,3.9-6.9,5.6
	c-6.9,5.4-15.4,8.9-23.3,9.2s-16.2-2.3-19.6-10.1C288.3,96.6,287.6,93.2,287.7,89.9z"/>
<path class="st1" d="M331.2,92.7c5.6-4.6,13.1-11.6,19-17.5c-2.4,4.5-5.9,10.6-7.1,16.5c-2.4,2.2-4.8,4.3-7.5,6.4
	c-1.4,1.2-3.6,1-4.8-0.5c0,0-0.1-0.1-0.1-0.1C329.6,96.1,329.8,94,331.2,92.7z M344.5,95.7c0-1.9,0.2-3.8,0.7-5.6
	c6.8-21.8,44.2-66.9,59.2-77c3.1-2.1,7.6,1.3,5.8,4.6c-2.8,5-11.4,15-15.9,20.6h-4.5l12.8-13.8c0.3-0.4,0.3-0.9,0-1.3
	c-0.3-0.3-0.9-0.1-1.3,0.2c-7.4,8.3-27.3,28.6-41.9,52.3c-3.7,6-7.5,14.3-7.5,20c0,2.8,0.9,5.1,3.2,6.1c3.3,1.3,7.7-0.9,17-8.2
	c1.7-1.3,3.2-2.5,5-4c1.4-1.2,3.6-1.1,4.8,0.4s1.1,3.6-0.4,4.8l0,0c-1.6,1.6-3.4,3-5.2,4.4c-4.3,3.2-8.2,6.1-11.9,7.8
	c-2.4,1.3-5,2-7.7,2.1c-1.3,0-2.7-0.2-3.9-0.7C346.7,106.7,344.5,101.3,344.5,95.7L344.5,95.7z M361.2,39.9h14.8
	c-2,2.2-3.8,4.6-6,6.9h-8.8c-1.9,0-3.4-1.5-3.5-3.5C357.7,41.4,359.3,39.9,361.2,39.9L361.2,39.9z M385.7,48.4
	c-6.3,7-18.1,21.2-24.6,27.8c4-6.9,14.3-20.8,20.2-27.8L385.7,48.4z M406.4,40c1.9-0.1,3.5,1.3,3.6,3.2s-1.3,3.5-3.2,3.6
	c-0.1,0-0.2,0-0.4,0h-23.8c2-2.4,4-4.6,5.8-6.8H406.4z"/>
<path class="st1" d="M448.2,96.4c0-6.7,2.9-14.4,5-18.3c6-10.4,14-19.5,23.5-26.7c7.5-5.5,16-10,23.7-10c1.8,0,3.5,0.2,5.2,0.7
	c3.5,0.9,6,4,6.1,7.6c0,2.8-1.7,3.9-3.5,3.9c-1.5,0-2.9-0.8-3-2.2s-0.8-2.3-1.6-2.7c-1.1-0.3-2.2-0.5-3.3-0.5
	c-5.3,0-12.1,3-19.5,8.6c-8.8,6.6-16.1,15-21.5,24.5c-3.1,5.5-4.5,10.7-4.4,14.5c0,4.4,1.8,5.9,4.4,5.9c3.8,0,9.1-3.3,11.8-5.2
	c5.4-3.8,10.5-8.1,15.1-12.9c-2,4.1-3.3,8.4-3.8,12.9c-2.6,2.2-5,3.9-7.4,5.6c-5.1,3.6-10.7,6.6-15.9,6.6c-1.2,0-2.3-0.1-3.5-0.5
	C450,106.6,448.2,101.8,448.2,96.4z M483.6,98.4c0-15.7,23.4-41.1,28.8-46.2l3.5-3.1c3.1-2.5,9.6,1.6,5.8,6
	c-1.2,1.7-13,18.2-24.9,30.2c5-9.2,16.2-22.6,21.9-29c0.2-0.4,0.1-0.9-0.3-1.1c-0.3-0.2-0.7-0.1-0.9,0.1
	c-10.2,12-25.9,29.7-26.8,42.4c-0.1,2.3,0.1,3.6,1.8,4.4c1,0.3,3.2,0.2,7.7-2.1c5.1-2.9,9.8-6.3,14.1-10.3c1.4-1.3,3.6-1.1,4.9,0.3
	c1.3,1.4,1.1,3.6-0.3,4.9c-7.3,6.1-17.4,14.4-25.1,14.4c-1.4,0-2.7-0.3-3.9-0.9C485.8,106.6,483.4,102.7,483.6,98.4L483.6,98.4z"/>
<path class="st1" d="M573.3,93.6c0.1-8.9,3.7-17.4,10-23.6c6.8-6.8,16-10.7,25.6-10.7c2.9,0,5.7,0.3,8.5,1
	c13.5,3.2,20.1,13.3,20.8,23.7c0.1,4.7-0.8,9.3-2.8,13.6c-4.1,8.8-13.1,14.3-22.8,13.9c-8.9-0.2-16-6.8-16-14.9
	c0-1.2,0.1-2.5,0.5-3.7c1.1-4.3,3.9-7.9,7.7-10.1c3.6-2,7.7-2.4,12-2.2c4.3,0.4,8.5,1.3,12.6,2.8c0.3,2.4,0.1,4.9-0.6,7.3
	c-4-1.5-8.2-2.5-12.4-2.9c-2.8-0.3-5.6,0.1-8.2,1.3c-2.1,1.3-3.7,3.4-4.3,5.9c-1.2,4.3,2.9,9.3,8.9,9.6c7.4,0.3,14.1-4.1,16.8-10.9
	c1.1-2.5,1.7-5.2,1.7-8c0-1.6-0.2-3.2-0.7-4.7c-1.6-6.1-6.2-11.6-14.8-13.7c-2.2-0.5-4.4-0.7-6.6-0.7c-7.9,0-15.4,3.1-20.9,8.7
	c-5,4.9-7.8,11.6-7.8,18.7c0,3,0.5,5.9,1.4,8.8c4.5,13.6,19,20.7,31.5,20.8c16.9,0.3,30.7-6.1,38-21.2c2.2,0.6,4.5,1.3,6.9,1.8
	c-8.4,18.8-25.1,27-45,26.5c-14.5-0.4-32.4-8.3-38.1-25.7C573.9,101.1,573.3,97.3,573.3,93.6z M611.7,44.5
	c-6.2-6.5-10.1-14.6-10.1-24.2c0-2.7,0.3-5.4,0.9-8.1c0.3-1.8,2.1-3,3.9-2.7c0.1,0,0.1,0,0.2,0c1.9,0.4,3.1,2.2,2.8,4.1
	c-0.4,2.1-0.7,4.3-0.7,6.4c0,7.7,3.1,14.1,8.1,19.2c6.6,6.8,16.6,11.5,27.8,13.8c4.3,0.8,8.6,1.3,12.9,1.4c-0.3,2.4-0.7,4.7-0.9,7.1
	c-4.5-0.1-8.9-0.7-13.2-1.6C631,57.7,619.6,52.5,611.7,44.5z M652.1,100.3l-3.3-1c-3.4-1.2-6.8-2.7-10-4.4l-0.5-0.2
	c0.7-2.3,1.2-4.7,1.4-7.1c0.7,0.3,1.5,0.6,2.2,1c2.9,1.4,5.8,2.7,8.9,3.8c7.4,2.9,13.6,4.6,19.1,4.6c6.2,0,11.8-2.1,17.6-6.7
	c1.6-1.2,3.9-0.8,5.1,0.8c1,1.6,0.2,3.9-1.4,5.2c-6.8,5.2-13,7.4-20.4,7.4c-2.5,0-5-0.2-7.5-0.7
	C659.5,102.4,655.7,101.5,652.1,100.3z M655.2,90.8c2-9,1.5-13.2,3.1-29c2.2-21,9.5-39.6,25.7-50.3c5.5-3.6,11.4-5.5,16.7-5.5
	c4.1-0.1,8.1,1.3,11.3,3.9c3.5,2.9,5.3,7.3,5.3,12.4c-0.2,5-2.3,10.7-6.4,16.9c-9.2,13.8-26,20.7-43.6,22.4c0.2-2.5,0.5-4.9,1-7.4
	l2.5-0.2c14.2-2.1,27.1-8.3,34-18.7c3.8-5.5,5.2-9.9,5.3-13.2c0.2-2.6-0.9-5.1-2.8-6.8c-1.9-1.5-4.3-2.3-6.8-2.2
	c-3.6,0-8,1.3-12.7,4.4c-10,6.6-15.7,15.9-19,27l-0.7,2.4c-1.3,4.9-2.2,9.8-2.8,14.9c-1.7,16.9-1.3,21.4-3.5,30.8
	c0,0.5-0.1,1-0.2,1.5c-2.3-0.5-4.7-1.1-6.9-1.9L655.2,90.8z"/>
<path class="st1" d="M684.3,92.7c4.3-3.7,11-9.8,15.5-14.1c-2.4,4.5-4.3,9.3-5.6,14.2c-1.6,2-3.5,3.7-5.5,5.3
	c-1.4,1.2-3.6,1-4.8-0.5c0,0-0.1-0.1-0.1-0.1C682.7,96.1,682.9,94,684.3,92.7z M695.3,97.8c0-1.4,0.1-2.9,0.5-4.3
	c1.5-6,4-11.7,7.3-16.9c8.4-13.5,18.7-25.7,30.6-36.3c3.5-2,7.7,1,5.5,4.6c-5.2,8.3-15.1,19.3-24.7,29.5c6-8.7,12.6-16.9,19.8-24.7
	c0.5-0.5,0.5-0.8,0-1.2c-0.3-0.3-0.8-0.4-1.1-0.1c0,0-0.1,0.1-0.1,0.1c-9.6,10.1-19.6,23-25.3,33.4c-2.2,4.1-4,8.4-5.3,12.9
	c-1.3,4.8,0.3,6.4,3,6.4c3.3,0,8.3-2.7,10.7-4.2c6.3-4,13.2-10.4,20.2-17.6c-2.5,4.6-4.3,9.6-5.3,14.7c-6.1,5.5-16.5,14.1-25.3,14.1
	c-2.1,0-4.2-0.5-6-1.6C696.4,104.6,695.3,101.4,695.3,97.8L695.3,97.8z M733.3,103.2c-0.7-1.8-1-3.6-0.9-5.5
	c0-10.2,8-22.7,11.6-28.3c6.3-10,14.4-20,23.2-27.4c3.5-2.4,9.3,1.2,6.3,5.5c-2.8,4.3-13.8,17.6-24,29c4.8-8.7,14.7-21.4,21.7-29.3
	c0.2-0.4,0.1-0.9-0.3-1.1c-0.3-0.2-0.7-0.1-0.9,0.1c-10.5,11.9-19.1,23.6-25.4,35.9c-2.9,5.9-4.6,10.7-5.1,14.6s0.9,5.4,2.9,5.4
	c1.7,0,4-1,6.2-2.2c5.1-2.9,9.8-6.4,14.2-10.3c1.4-1.2,3.6-1.1,4.8,0.4c1.2,1.4,1.1,3.6-0.4,4.8c-7.4,6.3-17.2,14.2-25.1,14.2
	c-1.3,0-2.6-0.2-3.8-0.7C736,107.5,734.2,105.6,733.3,103.2L733.3,103.2z"/>
<path class="st1" d="M759.1,92.7c7.4-6,15.2-13.8,22.6-21.2c0-0.1,0.1-0.2,0.2-0.2c2.2-2.3,4.4-4.7,7-7.4
	c-6.5,9.2-12.2,18.2-17.9,27.4c-2.7,2.4-5.1,4.5-7.7,6.7c-1.5,1.2-3.6,1-4.8-0.5C757.3,96.1,757.6,94,759.1,92.7
	C759,92.8,759,92.7,759.1,92.7L759.1,92.7z M784.2,100.9c-0.9-2.7-1.2-5.5-0.9-8.3c1.7-2.6,3.5-5.2,5.5-7.8c1.7,0.6,2.7,2.5,2.2,4.3
	c-0.6,1.7-0.9,3.6-0.9,5.4c0,1.4,0.2,2.8,0.7,4.1c0.8,2.3,2,3.2,3.7,3.6c4,0.5,8.9-1.4,14.6-5.7c6.1-4.7,11.5-10.2,16-16.5
	c4.3-5.7,7.6-12,9.9-18.7c0.6-1.9,1-3.9,1-5.9c0-2.1-0.6-3.5-1.4-4.2c-1.2-1-2.8-1.4-4.3-1.4c-5.1,0-12.9,3.8-22.7,12.4
	c-4,3.6-7.8,7.4-11.4,11.4l-0.1,0.1c-5.8,6.1-11,12.7-15.4,19.8c0,0.1,0,0.1-0.1,0.1v0.2c-2.8,4-5.3,8.1-7.6,12.2
	c-0.5,1.1-1.6,1.8-2.9,1.8c-1.9,0.1-3.6-1.4-3.7-3.4c0-0.6,0.1-1.1,0.3-1.6c4.7-9.3,9.9-18.3,15.8-27l17.2-24.5
	c13.9-18.5,28.6-36.2,38.4-43.5c2.9-2,9.1,0.4,6.1,5.3c-4.3,8-15.9,19.9-28.9,33.1l-2.9,2c7.4-9.2,19.2-23,27.2-31.9
	c0.3-0.4,0.2-0.7-0.1-1c-0.2-0.3-0.7-0.3-0.9-0.1c0,0,0,0-0.1,0.1c-9.6,10.4-22.8,26.2-31.1,36.7c-0.1,0.1-0.1,0.2-0.1,0.3
	c-9.2,7.5-17.2,16.2-24,25.9c-0.3,0.2-0.3,0.7-0.1,1c0.1,0.1,0.1,0.1,0.2,0.2c0.4,0.2,0.9,0.1,1.2-0.2c11.2-15.7,22.8-25.9,33.5-33
	c1.3-0.7,2.7-1.3,4.2-1.8c2.6-1.1,5.4-1.6,8.2-1.7c3.2-0.1,6.3,1,8.8,3.1c2.8,2.3,3.9,5.7,3.9,9.5c0,8.7-5.9,20.2-12.3,28.7
	c-9.6,13-24.7,26.5-37.1,24.9C789.1,108.4,785.5,105.2,784.2,100.9z"/>
<path class="st1" d="M886.7,70.7c1.9,0,3.4,1.6,3.5,3.4c0,1.5-1,2.9-3.5,2.9h-21.9c-2.4,0-3.5-1.4-3.5-2.9c0-1.9,1.6-3.5,3.5-3.4
	H886.7z"/>
<path class="st1" d="M972.8,115.8c17.3-2.3,41-14.8,54.4-25c1.6-1.2,3.8-0.9,5,0.7c1.2,1.5,1,3.7-0.5,4.9c0,0-0.1,0-0.1,0.1
	c-10.6,8.9-30.4,19.8-41.5,22.8c-27.3,9-60.5,0.9-73,19.1c-2.3,3.3-3.3,6.4-3.3,9.2c0,6.6,5.8,10.9,13.1,10.9c3.3,0,6.5-0.8,9.5-2.3
	c10.6-5.2,22.5-16.8,34-31.3c3.4-0.4,6.8-0.9,10.1-1.6l-0.5,0.6c-13.2,17.2-27.3,32.3-40.5,38.7c-3.9,2-8.3,3-12.7,3.1
	c-11.4,0-20.2-7.7-20.2-18.2c0.1-5.2,1.9-10.2,5.1-14.3C924.2,115.7,947.9,119.5,972.8,115.8z M940.1,60
	c-9.2-4.9-17.1-11.7-23.4-19.9c-1.1-1.6-0.8-3.9,0.8-5.1c1.6-1.2,3.9-0.9,5.1,0.7c4.6,6.5,11.9,12.8,20.8,17.9l0.8,0.5
	c-1.4,1.9-2.7,4-3.8,6.1L940.1,60z M931.3,91.8c0.2-7,1.8-13.9,4.7-20.3c5.3-12.8,18.2-30,28.9-39.7c14.6-13.8,34.5-26,50-26
	c4.8-0.1,9.5,1.3,13.4,4.1c4,2.9,6.3,7.5,6.2,12.4c0,1.5-0.1,2.9-0.5,4.4c-1.2,6.1-5,12.4-10.3,18.3c-10.5,11.5-28,21.8-46.3,22.9
	c-1.7,0.1-3.3,0.1-5,0.1c-6.7,0-13.4-0.8-19.8-2.7l-2.8-1.2c1-2.1,2.5-3.9,3.8-6.1c5.9,1.9,12.1,2.9,18.3,2.9c1.6,0,3.3-0.1,5-0.2
	c16.4-1,32.1-10.1,41.5-20.6c4.7-5.3,7.8-10.5,8.6-14.9s0-7.5-3.1-9.6c-2.8-1.9-6.1-2.9-9.4-2.8c-12.1,0-29.5,9.3-44.9,23.8
	c-9.3,9.2-21.5,25.1-27.1,37.4c-2.4,5.1-3.7,10.8-3.8,16.4c0,8.4,3.5,15.9,13.9,15.3c15.7-0.8,44.5-25.8,54.3-35.9
	c-3.5,5.8-10.7,15.7-12.5,19.1c-5.8,6.1-26.6,24.4-43.7,24C937.4,112.9,931.3,103.8,931.3,91.8L931.3,91.8z M980.4,111.3
	c9-10.8,21.3-29.6,28.9-41.1l0.1-0.1c9.5-13.5,17.6-24.8,23.8-30.8c2.4-2.4,7.5,0.2,7,3.3c-0.6,4.8-5.4,12.3-11.6,19.7
	c-3.9,4.7-5.8,6.2-11.1,11l18.2-26c0.3-0.5,0.3-0.9-0.1-1c-0.1-0.3-0.7-0.1-1,0.1c-16.5,23.4-30.6,43.4-43.9,62.8
	c-3.7,1.5-8.1,3.3-11.8,3.9L980.4,111.3z"/>
<path class="st1" d="M1024.8,92.7c4.7-3.8,9.2-7.8,13.5-12.1c-1.1,3.6-1.7,7.3-1.7,11.1c-2.7,2.3-5,4.5-7.4,6.4
	c-1.4,1.2-3.6,1-4.8-0.5c0,0-0.1-0.1-0.1-0.1C1023.1,96.1,1023.3,94,1024.8,92.7z M1038.5,90c0-18.5,18.6-40.4,35.5-47.3
	c2.6-1.1,5.4-1.7,8.2-1.7c7.3,0,12.6,4.7,12.6,12.4c0,1.5-0.2,3-0.6,4.5c-3.9,16.2-24.7,27.1-39.5,27.1c-2.4,0-4.8-0.3-7.2-1
	c0.7-2.3,1.7-4.5,2.9-6.6c1.4,0.3,2.9,0.5,4.4,0.5c8.3,0,18.9-4.6,25.6-10.5c3.3-2.9,7.5-8.9,7.5-13.7c0.1-1.4-0.4-2.8-1.3-3.9
	c-0.7-0.9-2.2-1.4-4.3-1.4c-3,0.1-6,0.9-8.8,2.2c-10.5,5.1-23,19.2-26.7,30.2c-0.9,2.6-1.4,5.2-1.4,7.9c0,8,4.5,14.6,14.3,14.2
	c6.3-0.3,13.5-3.1,19.5-7.7c2.2-1.7,4.3-3.5,6.6-5.4c1.4-1.2,3.6-1.1,4.8,0.3c1.2,1.4,1.1,3.6-0.3,4.8l0,0c-2.2,2-4.5,3.9-6.9,5.6
	c-6.9,5.4-15.4,8.9-23.3,9.2s-16.2-2.3-19.6-10.1C1039.1,96.6,1038.4,93.3,1038.5,90z"/>
<path class="st1" d="M1082.4,92.8c8-6.4,16.4-14.7,24.1-22.6c1.3-1.4,5-5.9,9.4-11.1c-7.4,10.6-14.5,21.8-21,31.9
	c-2.8,2.4-5.5,4.8-8.2,7c-1.4,1.2-3.5,1.1-4.7-0.3c0,0-0.1-0.1-0.1-0.1C1080.7,96.2,1080.9,94.1,1082.4,92.8z M1147.8,75.3
	c5.1-5.9,10.1-10.9,13.7-15.9c1.5-1.8,2.7-3.8,3.6-6c1-3.2-1.2-4-3.7-4c-1.6,0-3.3,0.3-4.8,0.8c-23,7.3-49.3,36.1-61,56.8
	c-0.6,1.1-1.7,1.7-2.9,1.7c-1.9,0.1-3.5-1.3-3.6-3.2c0-0.6,0.1-1.2,0.4-1.8c12.6-21.5,25.8-42.9,38.1-58.4c2.2-2.8,4.2-5.4,7.4-3.7
	c1.1,0.7,1.7,2,1.5,3.3c-0.6,2.1-2.3,4-3.7,5.9l-5.2,6.8c-7.7,6.6-15,13.8-21.5,21.5c-0.3,0.2-0.3,0.7-0.1,1
	c0.1,0.1,0.1,0.1,0.2,0.2c0.3,0.3,0.7,0.2,1-0.1c12.4-14.6,29.5-31.1,47.2-36.6c2-0.7,4.1-1,6.2-1c6.2,0,11.6,3.1,11.6,9
	c0,1.5-0.3,2.9-0.8,4.3c-1.1,2.8-2.6,5.4-4.5,7.7c-3.8,5.1-9.1,10.8-14.1,16.2c-5.1,5.9-9.2,10.8-11.1,15.1
	c-0.5,1.2-0.8,2.4-0.9,3.7c0,2.4,1.5,3.5,3.7,3.5c2-0.1,3.9-0.7,5.6-1.7c4-2.2,8.9-6,14.3-10.6c1.5-1.2,3.7-1.1,4.9,0.4
	s1.1,3.7-0.4,4.9c-4.8,4.3-9.9,8.1-15.4,11.4c-2.7,1.7-5.8,2.6-9,2.7c-6.2,0-10.7-4.2-10.7-10.2c0-2.3,0.6-4.6,1.6-6.7
	C1138,86.8,1142.8,80.9,1147.8,75.3z"/>
<path class="st1" d="M1162.3,91.6c11.4-9.6,24.1-22.8,46.5-46.8c0.3,2.6,1.3,5,3,7l-3.2,3.5c-17.2,18.1-30.2,31.8-41.8,41.6
	c-1.5,1.3-3.7,1.1-5-0.3C1160.6,95,1160.8,92.8,1162.3,91.6C1162.3,91.6,1162.3,91.6,1162.3,91.6z M1233,52.8c1.3,1.5,0.6,4-0.9,5.1
	c-7.9,5.5-14.7,12.4-20.2,20.3c-4.8,7-8.8,14.4-8.8,19.1c-0.2,1.7,0.7,3.4,2.2,4.3c1.5,0.8,4,0.7,8.1-1.5c5-2.9,9.7-6.3,14-10.3
	c1.4-1.3,3.6-1.1,4.9,0.3c1.3,1.4,1.1,3.6-0.3,4.9l0,0c-7.4,6.3-17.3,14.2-25.2,14.2c-1.3,0-2.6-0.2-3.8-0.7c-5-2-6.8-6.6-6.8-11.3
	c0.1-2.6,0.5-5.2,1.4-7.6c2.3-6.9,7.6-14.1,13.1-20.6c3.7-4.3,10-11.5,17.9-16.9C1230.4,51.2,1232,51.3,1233,52.8z M1219.9,56.9
	c-4.9-2.7-8.5-7.3-9.3-11.5c-1.3-6.5,4-10.4,7.3-11.3c3.3-1.3,6.4,1.5,5.2,4.4c-0.9,2.3-3.6,4.4-4.6,5.6c-1.3-1.5-1.3-2.4-1.2-4.3
	c0.1-0.4-0.2-0.8-0.6-0.9c0,0,0,0-0.1,0c-0.5-0.1-0.8,0.1-0.9,0.7c-0.3,6.1,5.2,11.4,10.6,12.3C1224,53.4,1221.9,55.1,1219.9,56.9z"
	/>
<path class="st1" d="M1224.1,92.7c4.7-3.8,9.2-7.8,13.5-12.1c-1.1,3.6-1.7,7.3-1.7,11.1c-2.7,2.3-5,4.5-7.4,6.4
	c-1.4,1.2-3.6,1-4.8-0.5c0,0-0.1-0.1-0.1-0.1C1222.4,96.1,1222.6,94,1224.1,92.7z M1237.8,90c0-18.5,18.6-40.4,35.5-47.3
	c2.6-1.1,5.4-1.7,8.2-1.7c7.3,0,12.6,4.7,12.6,12.4c0,1.5-0.2,3-0.6,4.5c-4,16.2-24.7,27.1-39.6,27.1c-2.4,0-4.8-0.3-7.2-1
	c0.7-2.3,1.7-4.5,2.9-6.6c1.4,0.3,2.9,0.5,4.4,0.5c8.3,0,18.9-4.6,25.6-10.5c3.3-2.9,7.5-8.9,7.5-13.7c0.1-1.4-0.4-2.8-1.3-3.9
	c-0.7-0.9-2.2-1.4-4.3-1.4c-3,0.1-6,0.9-8.8,2.2c-10.5,5.1-23,19.2-26.7,30.2c-0.9,2.6-1.4,5.2-1.4,7.9c0,8,4.5,14.6,14.3,14.2
	c6.3-0.3,13.5-3.1,19.5-7.7c2.2-1.7,4.3-3.5,6.6-5.4c1.4-1.2,3.6-1.1,4.8,0.4s1.1,3.6-0.3,4.8c-2.2,2-4.5,3.9-6.9,5.6
	c-6.9,5.4-15.4,8.9-23.3,9.2s-16.2-2.3-19.6-10.1C1238.4,96.6,1237.8,93.3,1237.8,90z"/>
</svg>
