<?xml version="1.0" encoding="utf-8"?>
<!-- Generator: Adobe Illustrator 25.2.1, SVG Export Plug-In . SVG Version: 6.00 Build 0)  -->
<svg version="1.1" id="Layer_1" xmlns="http://www.w3.org/2000/svg" xmlns:xlink="http://www.w3.org/1999/xlink" x="0px" y="0px"
	 viewBox="0 0 721.3 186.4" style="enable-background:new 0 0 721.3 186.4;" xml:space="preserve">
<style type="text/css">
	.st0{fill:#FFFFFF;}
</style>
<g>
	<path class="st0" d="M0,131.2c0-13.8,5.9-26.2,15-35.3c9.8-10,23.6-16,38.3-16c4.1,0,8.4,0.5,12.8,1.6c20.2,4.7,30,19.8,31,35.3
		c0.2,7.6-1.6,14.7-4.1,20.3c-5.9,12.1-17.6,21.2-34.1,20.9c-13.3-0.3-24-10.2-24-22.2c0-1.7,0.2-3.6,0.7-5.5
		c2.1-7.1,6-12.1,11.5-15.2c5.3-2.9,11.5-3.6,17.9-3.3c6,0.5,12.4,1.9,18.8,4.1c0.5,3.6,0.2,7.2-0.9,10.9c-6.4-2.2-12.9-4-18.6-4.3
		c-5.2-0.3-9.3,0.3-12.2,1.9c-2.8,1.6-5,4.3-6.4,8.8c-1.7,6.4,4.3,14,13.3,14.3c12.4,0.2,21-6.9,25.2-16.4c1.6-3.8,2.6-7.9,2.6-11.9
		c0-2.4-0.3-4.7-1-7.1c-2.4-9.1-9.3-17.4-22.1-20.5c-3.3-0.7-6.5-1-9.8-1c-12.1,0-23.3,4.8-31.2,12.9c-7.2,7.2-11.7,17.1-11.7,27.9
		c0,4.3,0.7,8.6,2.1,13.1c6.7,20.3,28.4,31,47.1,31.2c25.3,0.5,45.8-9.1,56.9-31.7c3.3,0.9,6.7,1.9,10.3,2.8
		c-12.6,28.1-37.6,40.3-67.4,39.6c-21.7-0.5-48.4-12.4-57.1-38.4C0.9,142.2,0,136.5,0,131.2z M57.6,57.7
		c-9.3-9.7-15.2-21.9-15.2-36.2c0-4,0.5-7.9,1.4-12.1c0.5-2.9,3.4-4.7,6.2-4c2.9,0.5,4.7,3.4,4.1,6.2c-0.7,3.4-1,6.5-1,9.7
		c0,11.5,4.7,21,12.1,28.8C75,60.3,90,67.4,106.7,70.8c6.4,1.2,12.9,1.9,19.3,2.1c-0.5,3.6-1,7.1-1.4,10.7c-6.7-0.2-13.4-1-19.8-2.4
		C86.4,77.6,69.3,69.8,57.6,57.7z M117.9,141.3l-5-1.6c-5-1.7-10-4-15-6.5l-0.7-0.3c1-3.3,1.7-7.1,2.1-10.7c1.2,0.5,2.4,1,3.3,1.6
		c4.7,2.2,8.8,4.1,13.3,5.7c11,4.3,20.3,6.9,28.6,6.9c9.3,0,17.6-3.1,26.4-10c2.2-1.7,5.9-1.2,7.6,1.2c1.6,2.4,0.3,5.9-2.1,7.8
		c-10.2,7.8-19.5,11-30.5,11c-3.4,0-7.2-0.3-11.2-1C129.3,144.4,123.2,143.1,117.9,141.3z M122.6,127c2.9-13.4,2.2-19.8,4.7-43.4
		c3.3-31.4,14.1-59.3,38.4-75.3c8.3-5.3,17.1-8.3,25-8.3c6.4,0,12.2,1.9,16.9,5.9c5.2,4.3,7.9,10.9,7.9,18.6
		c-0.3,7.6-3.4,16-9.7,25.3c-13.8,20.7-39,31-65.2,33.4c0.2-3.8,0.9-7.4,1.6-11l3.8-0.3c21.2-3.1,40.5-12.4,50.8-27.9
		c5.7-8.3,7.8-14.8,7.9-19.8c0-4.8-1.7-8.1-4.1-10.2c-2.2-2.1-5.9-3.3-10.2-3.3c-5.3,0-11.9,1.9-19,6.5c-15,9.8-23.4,23.8-28.4,40.3
		l-1,3.6c-1.9,7.1-3.3,14.3-4.1,22.2c-2.6,25.3-1.9,32.1-5.2,46c0,0.7-0.2,1.6-0.3,2.2c-3.4-0.7-7.1-1.6-10.3-2.8L122.6,127z"/>
	<path class="st0" d="M166.2,130c6.4-5.5,16.4-14.7,23.3-21c-3.4,6.7-6.5,13.8-8.4,21.2c-1.9,2.6-6.2,6.4-8.3,7.9
		c-2.1,1.9-5.3,1.4-7.2-0.9C163.6,135.1,164.1,131.9,166.2,130z M182.5,137.5c0-2.1,0.2-4.3,0.7-6.4c2.1-8.8,6.2-17.6,10.9-25.3
		c11.5-19,29-39.6,45.8-54.3c5.2-2.9,11.5,1.6,8.3,6.9c-7.8,12.4-22.6,29-36.9,44.1c8.4-12.4,19.1-25.7,29.6-36.9
		c0.7-0.7,0.7-1.2,0-1.7c-0.5-0.5-1.2-0.5-1.7,0c-14.3,15.2-29.3,34.5-37.9,50c-3.8,7.4-6.7,14.3-7.9,19.3c-1.9,7.2,0.5,9.7,4.5,9.7
		c5,0,12.4-4,16-6.2c9.5-6,19.8-15.5,30.2-26.4c-3.6,6.9-6.5,14.3-7.9,22.1c-9.1,8.3-24.6,21-37.9,21c-3.1,0-6.2-0.7-9-2.4
		C184.3,147.7,182.5,142.9,182.5,137.5z M239.4,145.6c-1-2.6-1.4-5.3-1.4-8.3c0-15.3,11.9-34,17.4-42.4c9.5-15,21.5-30,34.6-41
		c5.2-3.6,14,1.7,9.5,8.3c-4.1,6.4-20.7,26.4-35.9,43.4c7.2-12.9,22.1-32.1,32.4-43.8c0.5-0.5,0.3-1.2-0.2-1.7s-1.2-0.3-1.7,0.2
		c-15.7,17.8-28.6,35.3-37.9,53.8c-4.3,8.8-6.9,16-7.6,21.9c-0.5,6,1.4,8.1,4.3,8.1c2.6,0,6-1.6,9.3-3.3c6-3.3,13.1-8.4,21.2-15.3
		c2.1-1.9,5.3-1.7,7.2,0.5c1.9,2.1,1.7,5.3-0.5,7.2c-11,9.5-25.7,21.2-37.6,21.2c-1.9,0-4-0.3-5.7-1
		C243.4,152,240.8,149.1,239.4,145.6z"/>
	<path class="st0" d="M278,130c11.2-9,23.1-21,34.1-32.1c3.3-3.4,6.5-7.1,10.5-11c-9.7,13.8-18.3,27.2-26.7,41
		c-4,3.6-7.6,6.7-11.5,10c-2.2,1.9-5.3,1.6-7.2-0.7S275.8,131.9,278,130z M294,135.8c15.2-25,31-49.6,50.3-74.6
		c15.2-19.6,37.4-46.4,51.2-56.5c4.1-3.3,11.7,0.9,9,6.9c-4.7,10.2-35,46-47.9,53.4c11-13.8,28.8-35.2,40.7-48.4
		c0.5-0.5,0.5-1.2,0-1.7c-0.7-0.5-1.2-0.3-1.7,0.2c-14.3,15.2-34.3,40.3-46.7,56c-11.9,9.7-24,22.1-35.9,38.6
		c-0.5,0.7-0.3,1.2,0.3,1.7s1.2,0.3,1.7-0.3c12.6-17.2,37.7-45.2,56.2-51.7c4.1-1.6,8.4-2.6,12.6-2.6c4.7,0,9,1.2,12.8,4.5
		c4.1,3.4,5.9,8.4,5.9,14.1c0,12.9-8.8,30-18.4,42.7c-4,5.3-8.4,10.5-13.3,15.5c-1.7,0.2-3.4,0.3-5,0.3c-3.3,0-6.4-0.5-9.3-1
		c6.9-6,13.6-12.9,19.3-21c7.1-9.7,12.4-19.5,15-27.8c1-3.6,1.6-6.5,1.6-8.8c0-3.1-0.9-5.2-2.2-6.2c-1.7-1.4-4-2.1-6.5-2.1
		c-7.6,0-19.1,5.9-33.8,18.6C327.5,105,311.4,127,297.7,151c-1,1.9-2.8,2.8-4.3,2.8c-3.3,0-6.7-3.4-4.8-7.4
		C290.1,143.1,292,139.8,294,135.8z M313.3,130.5c1.2-1.9,2.6-4,4.1-5.9c1.4,2.9,3.8,5.7,6,8.3c-0.2,2.4,0.2,4.7,0.9,6.7
		c1.4,4,4.5,5.2,7.8,5.2c2.6,0,5.5-0.7,7.9-1.6c4.1,1.9,8.4,3.1,13.8,4.3c-8.4,5.5-17.1,8.8-25.2,7.6
		C316.8,153.1,312.3,140.8,313.3,130.5z M319,122.2l6-7.6l1,1.6c9.7,12.4,24.3,20,39.1,20c9.8,0,19.6-3.3,28.1-10.7
		c2.2-1.9,5.3-1.7,7.2,0.5c1.9,2.1,1.4,5.2-0.7,7.2c-9.1,9.3-19.7,13.3-32.4,13.3c-3.4,0-6.9-0.3-10.7-0.9
		C343.2,143.8,324.9,134.4,319,122.2z"/>
	<path class="st0" d="M387.8,130c11.5-9.5,24-21.4,36.2-34c7.8-7.4,14-13.8,19.3-19.5c-11.7,16.5-24.5,34.6-36.2,50.3
		c-4.3,4-8.6,7.8-12.8,11.2c-2.2,1.9-5.3,1.4-7.2-0.9C385.2,135.1,385.6,131.9,387.8,130z M407.1,130.8
		c17.9-23.4,38.4-53.4,53.1-74.1c1.9-1.9,4.5-1.9,6.5-0.5c2.2,1.9,2.8,4.7,1.2,7.2l-0.9,1c-12.4,10.2-24.6,22.4-37.7,39
		c-0.5,0.5-0.5,1,0.2,1.6c0.7,0.7,1.2,0.7,1.7-0.2c13.6-16.4,45.5-53.8,68.1-49.6c7.2,1.2,9.8,6.4,9.8,12.6c0,10-6.2,22.9-9.1,28.3
		c-2.1,3.4-4,6.9-6.6,10.9c-10.5,16.5-24.8,33.8-35.3,44.3c-1.9,1.9-4,2.6-5.9,2.6c-3.8,0-7.1-2.9-7.4-5.5
		c-1.9-15.5,29.1-42.9,39.6-52.9l3.3-3.1c-10.2,18.1-24.1,35-34.3,46.5c-0.5,0.5-0.5,1.2,0,1.7c0.5,0.5,1.2,0.3,1.7-0.2
		c16.9-18.3,38.6-45.7,44.1-69.3c0.5-4.3-1.6-5.9-4.3-5.9c-1.6,0-3.3,0.5-5,1.2c-6.7,2.6-15.5,8.6-25.9,17.4
		c-15.2,13.1-31.9,31-45.8,49.5l-13.1,18.4c-4.1,5.7-12.2-0.3-8.6-5.9C398.7,142.5,400.7,139.8,407.1,130.8z M524.3,105.8
		c7.4-8.8,14.7-17.1,19.3-24.5c5.3-8.1,5.3-11.7,4.1-13.3c-0.5-0.7-1.4-1.4-4-1.2c-14.5,2.8-27.2,13.6-37.9,22.8
		c2.8-6,4.8-12.1,5.5-17.6c9.7-7.1,20.2-14.1,31.4-15.3c11.2-1.4,17.6,8.3,15.3,17.9c-0.9,4-3.1,8.3-5.7,12.4
		c-5.3,8.1-13.1,17.2-20.2,25.5c-7.6,8.8-13.8,16.5-16.7,22.8c-0.9,2.1-1.2,3.6-1.2,4.8c0,2.8,1.7,3.8,4.1,3.8
		c2.9,0,6.7-1.4,9.5-2.9c6-3.3,13.1-8.6,21.2-15.5c2.2-1.9,5.3-1.7,7.2,0.5c1.9,2.1,1.7,5.3-0.5,7.2c-8.1,7.1-16,13.1-23.1,16.7
		c-4.3,2.4-10,4.1-15.2,4.1c-6.5,0-12.2-2.8-13.8-10.9C501.7,130.5,517.1,114.1,524.3,105.8z"/>
	<path class="st0" d="M543.6,130c8.8-7.4,21.9-19,31.2-28.3c-4.8,7.1-10.7,17.2-12.9,26.2c-4.1,4-7.8,6.9-11.7,10.2
		c-2.2,1.9-5.3,1.4-7.2-0.9C541,135.1,541.4,131.9,543.6,130z M562.4,136.7c1.9-14.8,10.2-27.8,18.4-39.6c6.7-10,22.8-29,36.2-41.9
		c4.7-3.8,12.4,2.8,8.4,7.4c-1.9,2.4-22.1,29.8-37.9,47.1c6.9-11,23.1-31,31.5-40.9c0.5-0.5,0.3-1.2-0.2-1.7
		c-0.7-0.5-1.2-0.3-1.7,0.2c-15.3,18.3-43.1,51-44.5,70.2c-0.2,5.2,1.7,6.7,4.5,6.7c2.9,0,6.9-1.9,9.8-3.3c6-3.3,13.3-8.4,21-15.3
		c2.2-1.9,5.5-1.7,7.4,0.5c1.9,2.1,1.6,5.3-0.5,7.2c-11,9.5-25.9,21.2-37.7,21.2c-1.9,0-4-0.3-5.7-1
		C564.1,150.5,561.9,143.6,562.4,136.7z M643.8,39.3c-2.2,2.1-4.1,4.5-6.4,7.1c-1.6,1.6-3.1,2.2-4.5,2.2c-4,0-6.9-4.8-3.6-8.8
		c2.6-2.8,4.3-5.2,6.9-7.8c1.9-1.9,5-2.1,7.2,0C645.5,34,645.7,37.1,643.8,39.3z"/>
	<path class="st0" d="M602.6,130c8.4-6.9,19.6-17.4,28.4-26.2c-3.6,6.7-8.8,15.9-10.7,24.6c-3.6,3.3-7.2,6.4-11.2,9.7
		c-2.1,1.9-5.3,1.4-7.2-0.9C600,135.1,600.5,131.9,602.6,130z M622.4,134.4c0-2.8,0.3-5.7,1-8.4C633.6,93.4,689.6,25.9,712,10.9
		c4.7-3.1,11.4,1.9,8.6,6.9c-4.1,7.4-17.1,22.4-23.8,30.9h-6.7l19.1-20.7c0.5-0.5,0.5-1.4,0-1.9c-0.5-0.5-1.4-0.2-1.9,0.3
		c-11,12.4-40.8,42.7-62.7,78.3c-5.5,9-11.2,21.4-11.2,30c0,4.1,1.4,7.6,4.8,9.1c5,1.9,11.5-1.4,25.5-12.2c2.6-1.9,4.8-3.8,7.4-6
		c2.1-1.9,5.3-1.7,7.2,0.5c1.9,2.1,1.7,5.3-0.5,7.2c-2.6,2.6-5.2,4.5-7.8,6.5c-6.4,4.8-12.2,9.1-17.8,11.7
		c-3.8,1.9-7.6,3.1-11.5,3.1c-1.9,0-3.8-0.3-5.9-1C625.7,150.8,622.4,142.7,622.4,134.4z M647.4,50.8h22.1c-2.9,3.3-5.7,6.9-9,10.3
		h-13.1c-2.8,0-5.2-2.2-5.2-5.2C642.2,53.3,644.6,50.8,647.4,50.8z M684.1,63.6c-9.5,10.5-27.1,31.7-36.9,41.5
		c6-10.3,21.4-31.2,30.2-41.5H684.1z M715.1,51c2.9,0,5.2,2.2,5.2,5c0,2.9-2.2,5.2-5.2,5.2h-35.7c2.9-3.6,6-6.9,8.6-10.2H715.1z"/>
</g>
</svg>
