<?xml version="1.0" encoding="utf-8"?>
<!-- Generator: Adobe Illustrator 25.2.1, SVG Export Plug-In . SVG Version: 6.00 Build 0)  -->
<svg version="1.1" id="Layer_1" xmlns="http://www.w3.org/2000/svg" xmlns:xlink="http://www.w3.org/1999/xlink" x="0px" y="0px"
	 viewBox="0 0 367.3 181.8" style="enable-background:new 0 0 367.3 181.8;" xml:space="preserve">
<style type="text/css">
	.st0{fill:#FFF5DB;}
	.st1{fill:#546111;}
	.st2{fill:#F27F49;}
	.st3{fill:#D62448;}
</style>
<g>
	<path class="st0" d="M307,167.3c-18.5,16.2-46.6,15.3-64-2.1l-41-41.4c-18.2-18.4-18-48,0.2-66.3l41.4-41c0.8-0.7,1.4-1.4,2.1-2
		c18.5-16.2,46.6-15.3,64,2.1l41,41.4c18.2,18.4,18,48-0.2,66.3l-41.4,41C308.4,165.8,307.7,166.6,307,167.3z"/>
	<path d="M247.5,16.6c17.5-15.3,43.7-14.4,60.1,2.1l41,41.4c17,17.2,16.9,44.9-0.2,62.1l-41.4,41c-0.7,0.6-1.4,1.4-2,2
		c-17.6,15.2-43.7,14.4-60.1-2.1l-41-41.4c-17-17.2-16.9-44.9,0.2-62.1l41.4-41C246.1,17.9,246.7,17.3,247.5,16.6 M243.7,12.3
		L243.7,12.3c-0.8,0.7-1.7,1.4-2.3,2.2l-41.3,41c-19.5,19.3-19.5,50.8-0.2,70.3l41,41.4c18.6,18.6,48.2,19.6,68,2.3
		c0.8-0.7,1.7-1.4,2.3-2.2l41.4-41c19.5-19.4,19.5-50.9,0.2-70.3l-41-41.4C293.1-3.9,263.5-5,243.7,12.3L243.7,12.3z"/>
	<path class="st1" d="M225.1,81.3l41.7-41.7c5.3-5.2,13.6-5.3,18.8,0l41.7,41.7c5.2,5.3,5.3,13.6,0,18.8l-41.7,41.7
		c-5.3,5.2-13.6,5.3-18.8,0L225.1,100C219.8,94.9,219.8,86.4,225.1,81.3z"/>
	<path class="st2" d="M256.2,112L279,89.2c5.3-5.2,13.9-5.3,19.2,0.1l10.5,10.5c5.2,5.3,5.3,13.9-0.1,19.2l-22.8,22.8
		c-5.3,5.2-13.9,5.3-19.2-0.1l-10.5-10.5C250.8,125.8,250.8,117.2,256.2,112z"/>
	<path class="st3" d="M272.2,66.4L282.6,56c5.3-5.2,13.9-5.3,19.2,0.1l25.3,25.3c5.2,5.3,5.3,13.9-0.1,19.2L316.6,111
		c-5.3,5.2-13.9,5.3-19.2-0.1l-25.3-25.3C267,80.3,266.9,71.6,272.2,66.4z"/>
	<path class="st3" d="M263.7,42.9l5.7-5.7c3.7-3.6,9.8-3.7,13.4,0.1L304.5,59c3.6,3.7,3.7,9.8-0.1,13.4l-16.2,16.1
		c-3.7,3.6-9.8,3.7-13.4-0.1l-11.2-11.2C254.3,67.6,254.3,52.3,263.7,42.9L263.7,42.9z"/>
	<path class="st2" d="M259.4,108.8l17.4-17.4c8.7-8.5,22.4-8.5,31.1,0l0,0l14.3,14.3l0,0l-33,32.8l0,0L259.4,108.8L259.4,108.8z"/>
</g>
<g>
	<path class="st0" d="M121.7,167.3c-18.5,16.2-46.6,15.3-64-2.1l-41-41.4c-18.2-18.4-18-48,0.2-66.3l41.4-41c0.8-0.7,1.4-1.4,2.1-2
		c18.5-16.2,46.6-15.3,64,2.1l41,41.4c18.2,18.4,18,48-0.2,66.3l-41.4,41C123,165.8,122.4,166.6,121.7,167.3z"/>
	<path d="M62.2,16.6c17.5-15.3,43.7-14.4,60.1,2.1l41,41.4c17,17.2,16.9,44.9-0.2,62.1l-41.4,41c-0.7,0.6-1.4,1.4-2,2
		c-17.6,15.2-43.7,14.4-60.1-2.1l-41-41.4c-17-17.2-16.9-44.9,0.2-62.1l41.4-41C60.7,17.9,61.4,17.3,62.2,16.6 M58.4,12.3L58.4,12.3
		c-0.8,0.7-1.7,1.4-2.3,2.2l-41.4,41c-19.5,19.3-19.5,50.8-0.2,70.3l41,41.4c18.6,18.6,48.2,19.6,68,2.3c0.8-0.7,1.7-1.4,2.3-2.2
		l41.4-41c19.5-19.3,19.5-50.8,0.2-70.3l-41-41.4C107.8-3.9,78.1-5,58.4,12.3L58.4,12.3z"/>
	<path class="st1" d="M39.8,81.3l41.7-41.7c5.3-5.2,13.6-5.3,18.8,0L142,81.3c5.2,5.3,5.3,13.6,0,18.8l-41.7,41.7
		c-5.3,5.2-13.6,5.3-18.8,0L39.8,100C34.5,94.9,34.5,86.4,39.8,81.3z"/>
	<path class="st2" d="M70.8,112l22.8-22.8c5.3-5.2,13.9-5.3,19.2,0.1l10.5,10.5c5.2,5.3,5.3,13.9-0.1,19.2l-22.8,22.8
		c-5.3,5.2-13.9,5.3-19.2-0.1l-10.5-10.5C65.4,125.8,65.5,117.2,70.8,112z"/>
	<path class="st3" d="M86.9,66.4L97.3,56c5.3-5.2,13.9-5.3,19.2,0.1l25.3,25.4c5.2,5.3,5.3,13.9-0.1,19.2L131.3,111
		c-5.3,5.2-13.9,5.3-19.2-0.1L86.8,85.6C81.6,80.3,81.6,71.6,86.9,66.4z"/>
	<path class="st3" d="M78.4,42.9l5.7-5.7c3.7-3.6,9.8-3.7,13.4,0.1L119.2,59c3.6,3.7,3.7,9.8-0.1,13.4l-16.2,16.1
		c-3.7,3.6-9.8,3.7-13.4-0.1L78.3,77.2C68.9,67.6,69,52.3,78.4,42.9L78.4,42.9z"/>
	<path class="st2" d="M74,108.8l17.4-17.4c8.7-8.5,22.4-8.5,31.1,0l0,0l14.3,14.3l0,0l-33,32.8l0,0L74,108.8L74,108.8z"/>
</g>
</svg>
