<?xml version="1.0" encoding="utf-8"?>
<!-- Generator: Adobe Illustrator 25.2.1, SVG Export Plug-In . SVG Version: 6.00 Build 0)  -->
<svg version="1.1" id="Layer_1" xmlns="http://www.w3.org/2000/svg" xmlns:xlink="http://www.w3.org/1999/xlink" x="0px" y="0px"
	 viewBox="0 0 112 112" style="enable-background:new 0 0 112 112;" xml:space="preserve">
<style type="text/css">
	.st0{fill:#FFFFFF;}
	.st1{fill:#02854C;}
</style>
<g>
	<path class="st0" d="M56,110C26.2,110,2,85.8,2,56S26.2,2,56,2s54,24.2,54,54C110,85.8,85.8,110,56,110z"/>
	<path class="st0" d="M56,4c28.7,0,52,23.3,52,52s-23.3,52-52,52S4,84.7,4,56S27.3,4,56,4L56,4 M56,0C25.1,0,0,25.1,0,56
		s25.1,56,56,56s56-25.1,56-56C112,25.1,86.9,0,56,0z"/>
	<path class="st1" d="M44.4,24c1.4,0,2.5,1.1,2.5,2.5c0,1.4-1.1,2.5-2.5,2.5c0,0-0.1,0-0.1,0c-1.4,0-2.5-1.1-2.5-2.5
		C41.9,25.1,43,24,44.4,24z M44.4,71.8c-1.3,0-2.3-1-2.3-2.3V34.9c0-1.2,1.1-2.2,2.3-2.2c1.3,0,2.3,1,2.3,2.2c0,0,0,0,0,0v34.6
		C46.7,70.7,45.8,71.8,44.4,71.8C44.5,71.8,44.4,71.8,44.4,71.8L44.4,71.8z"/>
	<path class="st1" d="M58.8,22.9v46.6c0.1,1.3-0.9,2.4-2.2,2.5c-1.3,0.1-2.4-0.9-2.5-2.2c0-0.1,0-0.2,0-0.3V22.9
		c-0.1-1.3,0.9-2.4,2.2-2.5c1.3-0.1,2.4,0.9,2.5,2.2C58.8,22.7,58.8,22.8,58.8,22.9z"/>
	<path class="st1" d="M68.6,24c1.4,0,2.5,1.1,2.5,2.5c0,1.4-1.1,2.5-2.5,2.5c0,0-0.1,0-0.1,0c-1.4,0-2.5-1.1-2.5-2.5
		C66.2,25.1,67.3,24,68.6,24z M68.6,71.8c-1.3,0-2.3-1-2.3-2.3V34.9c0-1.2,1.1-2.2,2.3-2.2c1.3,0,2.3,1,2.3,2.2c0,0,0,0,0,0v34.6
		C71,70.7,70,71.8,68.6,71.8C68.7,71.8,68.7,71.8,68.6,71.8L68.6,71.8z"/>
	<path class="st1" d="M55.3,91.4c-11.5,0-19.4-9.3-19.4-20.8c0-0.8,0.7-1.5,1.5-1.4c0.8,0,1.4,0.7,1.4,1.4c0,9.8,6.7,17.9,16.5,17.9
		c9.9,0,17.9-8,17.9-17.9c0.1-0.8,0.8-1.4,1.6-1.3c0.7,0.1,1.3,0.6,1.3,1.3C76.1,82.1,66.8,91.4,55.3,91.4z"/>
	<path class="st1" d="M56,10c25.4,0,46,20.6,46,46s-20.6,46-46,46S10,81.4,10,56C10,30.6,30.6,10,56,10 M56,4C27.3,4,4,27.3,4,56
		s23.3,52,52,52s52-23.3,52-52S84.7,4,56,4L56,4z"/>
</g>
</svg>
