<svg xmlns="http://www.w3.org/2000/svg" viewBox="0 0 911.15 215.35"><path d="M13.23,194.71C4,188.28,0,178.64,0,166.73,0,136.49,29.87,91.5,48.58,71.27,85.64,31.19,133.46,3,175.24,3A77.21,77.21,0,0,1,186,3.78c17,3,28.92,10.59,36.48,21l9.64,9.65C242.73,45,247.46,60.12,247.46,76.56a106.29,106.29,0,0,1-4.73,30.25V107c-4.54,15.12-13.42,31.19-24.2,45.37l9.83,9.64a13.85,13.85,0,0,1,3.78,9.64,14.12,14.12,0,0,1-4.35,10.4c-1.7,1.32-4.91,4-6,5.1-7.57,5.1-22.5,11.91-33.65,12.1a75.4,75.4,0,0,1-18.91-2.08c-15.12,6.81-27.79,11-36.29,11a49,49,0,0,1-8.89-.75q-15.6-3.12-23.82-11.34l-5.29-5.3c-15.12,11.53-35,23.82-49.72,23.82a26.09,26.09,0,0,1-10.77-2.08,31.9,31.9,0,0,1-10-6.61Zm124.2-129.3c-18.14,10.77-36.86,25.9-53.31,43.48-14.36,16.26-27,36.1-34,52.36,10.77-7.37,22.11-17.39,27-22.68C93.58,121.55,116.83,93.2,137.43,65.41Zm2.46,79.21,6.62,3.59c21.93-16.64,45.18-44.05,53.12-64.28a76.74,76.74,0,0,0,3.21-20.6c0-1.51-.19-2.84-.19-4.35a17.75,17.75,0,0,1-1.89,4.35C184.32,88.47,161.25,118.91,139.89,144.62Z" style="fill:#b75137"/><path d="M314.75,44.24,327,56.33a14.85,14.85,0,0,1,4.16,10,15.31,15.31,0,0,1-4,10,43.09,43.09,0,0,0-4.91,5.3L320,84.31a16,16,0,0,1-10.59,5.11,11.19,11.19,0,0,1-1.51,11.72l-.38.38-1.7,2.26c-4.73,6.43-16.26,21.74-28.73,36.68a20.2,20.2,0,0,1,4.53,3.4,27,27,0,0,1,2.08,2.84l12.67,12.66a13.75,13.75,0,0,1,3.59,9.45,15.31,15.31,0,0,1-4.92,11.35c-13.23,11.34-31.19,25.33-47.26,25.33a26.31,26.31,0,0,1-9.45-1.7,24.48,24.48,0,0,1-8.5-5.49l-10.4-10.39a13.91,13.91,0,0,1-15.13-3.41l-11.9-11.91a15.54,15.54,0,0,1-4.35-3.59,14.3,14.3,0,0,1-3.78-9.83,14.75,14.75,0,0,1,5.48-11.72c9.64-8.13,24.38-21.17,39.13-34.21,7.94-11.72,25.9-33.09,40.27-46.89a14.39,14.39,0,0,1,9.07-3.21H279a8.81,8.81,0,0,1-.38-3.21,15.88,15.88,0,0,1,4-10.21,29.7,29.7,0,0,0,2.27-2.65L286,45.75l4.73-5.11a14.6,14.6,0,0,1,10.58-4.53,15.53,15.53,0,0,1,10.4,4.16A15.76,15.76,0,0,1,314.75,44.24Z" style="fill:#b75137"/><path d="M249,159.17a15,15,0,0,1,5.29-11.34c12.29-9.83,26.84-24.2,38.56-36.11l17.77-18c5.67-7.94,11.35-15.69,16.83-22.68,4.16-5.29,8.32-10.78,15.31-10.78a21.15,21.15,0,0,1,9.64,2.84,16.63,16.63,0,0,1,4.54,5.29L360.3,72a112.59,112.59,0,0,1,15.5-7A43.24,43.24,0,0,1,389,63c10.77,0,20.41,4.16,25.33,12.1L425.9,86.58c4,3.78,6.24,9.07,6.24,15.69a30,30,0,0,1-1.89,10h-.19a54.39,54.39,0,0,1-8.32,14.93c-4,5.11-8.32,10.4-12.86,15.51l1.52,1.32,1.89,2.65,12.85,12.85a15,15,0,0,1,3.59,9.83,14.66,14.66,0,0,1-5.1,11C414.56,188.1,404.92,195.47,397,200c-6.61,3.59-13.23,5.48-19.09,5.48a26.68,26.68,0,0,1-19.28-7.56l-11-11c-7.38-4.54-11.91-12.29-11.91-22.31a30.41,30.41,0,0,1,1.7-10.39c-13.24,14.36-24.77,29.68-32.33,43.29a13.88,13.88,0,0,1-12.48,7.37,15.14,15.14,0,0,1-10.77-4.54c-16.07-14.18-19.09-18-19.85-22.68l-4.92-5.11a16.55,16.55,0,0,1-4.53-3.78A15.26,15.26,0,0,1,249,159.17Z" style="fill:#b75137"/><path d="M386,172.59a15.64,15.64,0,0,1-4.34-3.59,14.3,14.3,0,0,1-3.78-9.83,15.81,15.81,0,0,1,5.29-11.72c6.8-5.29,14.93-13,24.38-22.12,10.59-26.65,35.54-52.17,59-61.81a46.2,46.2,0,0,1,17-3.4c10.78,0,19.85,4.53,25.14,12.28l11.53,11.53c5.11,5.11,7.94,12.29,7.94,21.18a40.15,40.15,0,0,1-1.13,9.45c-3,12.29-11,22.87-21.17,31.38a4.26,4.26,0,0,1,.75,1.13l12.48,12.29a13.75,13.75,0,0,1,3.59,9.45,15.14,15.14,0,0,1-5.1,11.35,108.65,108.65,0,0,1-11.72,9.64c-12.86,9.83-28.55,16.25-43.11,16.82-11.9.57-24.57-2.46-33.27-11.15l-10.77-10.78a.66.66,0,0,0-.38-.19l-.76.57.19.19a13.61,13.61,0,0,1-9.26,3.59,15.54,15.54,0,0,1-10.59-4.35Z" style="fill:#b75137"/><path d="M804,4.54a27.43,27.43,0,0,1,10-3.41,15.43,15.43,0,0,1,14.36,7.94l12.29,12.1A14.89,14.89,0,0,1,845,31.57a15.25,15.25,0,0,1-2.27,7.75c-3.21,4.92-10.58,8.89-16.82,11.15l-.38-.18c-18,18.71-47.26,57.27-69.19,86.58-11.53,15.31-22.87,30-28.17,36.29-20.22,22.88-45.56,43.1-76.94,42.16H651c-15.12-.38-28.54-7-38.56-17l-8.89-8.88c-14.93-11.15-24.76-29.3-25-48.58,2.65-32.33,30.82-56.72,57.09-56.72a46.31,46.31,0,0,1,17,3.41,73.61,73.61,0,0,1-.57-9.27c0-13.42,4.35-27.6,14-40.45C688.46,7.94,725.33,0,758.79,0,770.89,0,787,1.89,804,4.54ZM625.51,167.87a25.12,25.12,0,0,0,11.35,2.64c19.09,1,37.8-13.8,53.68-31.94l1.33-1.52a43.3,43.3,0,0,1-9.83-7.56l-3.41-3.4c-2.83,4.73-7.18,7.18-11.91,7.18a16.93,16.93,0,0,1-8.31-2.45,13.92,13.92,0,0,0-7.38-2.08c-12.09,0-26.08,12.47-27.6,28.54A28.67,28.67,0,0,0,625.51,167.87ZM725,95.65l11.91-15.5c.76-1.13,1.89-2.27,2.64-3.4,8.7-11.53,17.21-22.87,25.15-32.7-25.71,1.7-48.21,10-60.12,28.16-4.53,7.38-7,15.32-7,21.74v2.27a10.61,10.61,0,0,0,3.78-2.65,14.79,14.79,0,0,1,11-4.91,15.78,15.78,0,0,1,10.21,4A12.27,12.27,0,0,1,725,95.65Z" style="fill:#b75137"/><path d="M728,159.17a15,15,0,0,1,5.29-11.34c12.29-9.83,26.84-24.2,38.56-36.11l17.77-18c5.68-7.94,11.35-15.69,16.83-22.68,4.16-5.29,8.32-10.78,15.31-10.78a21.15,21.15,0,0,1,9.64,2.84,16.63,16.63,0,0,1,4.54,5.29l3.4,3.59a112.59,112.59,0,0,1,15.5-7A43.24,43.24,0,0,1,868.05,63c10.77,0,20.41,4.16,25.33,12.1l11.53,11.53c4,3.78,6.24,9.07,6.24,15.69a30,30,0,0,1-1.89,10h-.19a54.39,54.39,0,0,1-8.32,14.93c-4,5.11-8.32,10.4-12.85,15.51l1.51,1.32,1.89,2.65,12.85,12.85a15.06,15.06,0,0,1,3.6,9.83,14.67,14.67,0,0,1-5.11,11C893.57,188.1,883.93,195.47,876,200c-6.62,3.59-13.24,5.48-19.1,5.48a26.68,26.68,0,0,1-19.28-7.56l-11-11c-7.38-4.54-11.91-12.29-11.91-22.31a30.41,30.41,0,0,1,1.7-10.39c-13.23,14.36-24.77,29.68-32.33,43.29a13.88,13.88,0,0,1-12.48,7.37,15.15,15.15,0,0,1-10.77-4.54c-16.07-14.18-19.09-18-19.85-22.68l-4.91-5.11a16.44,16.44,0,0,1-4.54-3.78A15.26,15.26,0,0,1,728,159.17Z" style="fill:#b75137"/><path d="M9.45,166.73c0-27.6,28.36-69.75,46.13-89C91.12,39.51,136.3,12.48,175.24,12.48a78.42,78.42,0,0,1,9.45.56c27.79,4.73,38.76,24.77,38.76,48.4a96.87,96.87,0,0,1-4.35,27.79C210.59,117.77,186.58,149.34,165,162c-4.53-.76-11.72-2.84-13.42-3.78,20.61-10.78,48.21-43.67,57.09-71.46a80.88,80.88,0,0,0,3.59-23.44c0-18.91-7.75-36.68-29.11-39.13a64,64,0,0,0-8.51-.57c-33.83,0-76.18,23.82-112.29,64.27C39.32,113.8,21,148.21,21,166.73c0,6.05,1.89,10.21,6.24,12.1,12.86,5.3,46.7-23.25,56.71-33.84,24.2-25.14,61.06-71.45,84.69-107.75,1.71-2.83,5.11-3.4,7.94-1.7s3.41,5.1,1.71,7.94c-20.23,31.19-50.67,70.32-74.68,97C91.68,140.46,82,152,82.42,162.2c-12.66,11.15-35.92,28.35-52.36,28.35a17.34,17.34,0,0,1-7.19-1.32C13.23,185.07,9.45,176.94,9.45,166.73Zm87-21.74a23.06,23.06,0,0,1,9.45-2.08c13.43,0,29.12,9.46,38.38,14.56,9.26,5.48,17.2,7.56,24.2,7.56,9.83,0,18.14-4.16,26.84-10,1.32-.94,2.46-2.08,3.4-2.64a5.51,5.51,0,0,1,7.94.56,5.67,5.67,0,0,1-.57,7.94,54.58,54.58,0,0,0-4.53,3.78c-6.62,4.54-19.47,10.4-28.74,10.59-29.86.76-49.53-21.55-65.4-21.55a13.51,13.51,0,0,0-6,1.32c-3.41,1.7-4.92,5.11-4.16,7.75.56,2.65,2.64,7.75,14.36,10a25.85,25.85,0,0,0,5.49.38,49.78,49.78,0,0,0,19.47-4.35c4.16,2.27,8.88,4.73,13.8,5.86-11,5.68-21.93,9.46-32.52,9.46a44.06,44.06,0,0,1-7.18-.57c-13.8-2.65-22.31-9.26-24.39-18S88.85,148.77,96.41,145Z" style="fill:#fff"/><path d="M195.84,154.64c9.64-8.13,24-20.8,34.21-31-5.29,7.75-11.72,18.91-14.17,28.74-4.54,4.34-8.51,7.56-12.86,11.15a5.71,5.71,0,0,1-7.18-8.88Zm20.6,7.37c2.08-16.26,11.16-30.44,20.23-43.48,7.37-11,25-31.76,39.7-45.94,5.1-4.16,13.61,3,9.26,8.13-2.08,2.65-24.19,32.7-41.59,51.61,7.57-12.1,25.34-34,34.6-44.8a1.35,1.35,0,0,0-2.08-1.71c-16.83,20-47.26,56-48.77,76.94-.19,5.68,1.89,7.38,4.91,7.38,3.22,0,7.56-2.08,10.78-3.6a129.12,129.12,0,0,0,23.06-16.82,5.69,5.69,0,1,1,7.56,8.51c-12.1,10.39-28.35,23.25-41.4,23.25a17.51,17.51,0,0,1-6.24-1.13C218.33,177.13,215.88,169.57,216.44,162ZM305.67,55.2a94.91,94.91,0,0,0-7,7.75,7.21,7.21,0,0,1-4.92,2.46c-4.35,0-7.56-5.29-4-9.64,2.84-3,4.73-5.67,7.56-8.51a5.76,5.76,0,0,1,8.32,7.94Z" style="fill:#fff"/><path d="M260.49,154.82c13-10.58,26.84-24.19,39.51-37,2.08-2.27,8.13-9.64,15.5-18.15C303.4,117,291.68,135.35,281.09,152c-4.53,4-9.07,7.94-13.42,11.53a5.52,5.52,0,0,1-7.94-.76A5.68,5.68,0,0,1,260.49,154.82Zm107.37-28.73c8.32-9.64,16.64-18,22.5-26.09a42.61,42.61,0,0,0,5.86-9.83c1.7-5.29-1.89-6.61-6.05-6.61a27.47,27.47,0,0,0-7.94,1.32c-37.81,11.91-80.91,59.17-100,93.2a5.25,5.25,0,0,1-4.73,2.83c-3.78,0-7.37-3.59-5.29-8.13,20.6-35.35,42.34-70.32,62.57-95.84,3.59-4.54,6.81-8.89,12.1-6a5.52,5.52,0,0,1,2.46,5.48c-.95,3.4-3.78,6.62-6,9.64l-8.51,11.16a311.2,311.2,0,0,0-35.35,35.35,1.16,1.16,0,0,0,.19,1.89c.57.57,1.13.38,1.7-.19,20.42-24,48.39-51,77.51-60.12A32.2,32.2,0,0,1,389,72.4c10.2,0,19.09,5.11,19.09,14.75a20.41,20.41,0,0,1-1.33,7c-1.51,4.35-4.15,8.32-7.37,12.67-6.24,8.32-14.93,17.77-23.06,26.65-8.32,9.64-15.12,17.77-18.15,24.77a17.6,17.6,0,0,0-1.51,6.05c0,4,2.46,5.67,6.05,5.67,2.65,0,6.05-1.14,9.26-2.84,6.62-3.59,14.56-9.83,23.44-17.39a5.7,5.7,0,0,1,7.37,8.7c-8.88,7.75-17.58,14.36-25.33,18.71a29.56,29.56,0,0,1-14.74,4.35c-10.21,0-17.58-6.81-17.58-16.83a25.07,25.07,0,0,1,2.64-11C351.79,144.81,359.73,135.16,367.86,126.09Z" style="fill:#fff"/><path d="M389.41,154.64c7.37-5.87,14.55-12.48,22.12-19.85a60.21,60.21,0,0,0-2.84,18.14c-4.35,3.78-8.13,7.38-12.1,10.59-2.27,2.08-5.86,1.51-7.94-1C386.57,160.31,387.14,156.71,389.41,154.64Zm22.49-4.54c0-30.44,30.44-66.36,58.23-77.7a36.4,36.4,0,0,1,13.42-2.83c11.91,0,20.61,7.75,20.61,20.41a35.73,35.73,0,0,1-1,7.38C496.78,124,462.75,142,438.37,142a37.41,37.41,0,0,1-11.72-1.7,59.91,59.91,0,0,1,4.72-10.78,28.8,28.8,0,0,0,7.19.76c13.61,0,31-7.56,42-17.2,5.48-4.73,12.28-14.56,12.28-22.5a9.69,9.69,0,0,0-2.08-6.43c-1.13-1.51-3.59-2.27-7-2.27a37,37,0,0,0-14.37,3.6C452.17,93.76,431.56,117,425.51,135a40.32,40.32,0,0,0-2.26,13c0,13,7.37,24,23.44,23.25,10.39-.57,22.11-5.1,31.94-12.67,3.6-2.83,7-5.67,10.78-8.88a5.63,5.63,0,0,1,7.37,8.51,123,123,0,0,1-11.34,9.26c-11.34,8.88-25.33,14.56-38.19,15.12S420.6,178.83,415.12,166A37.9,37.9,0,0,1,411.9,150.1Z" style="fill:#fff"/><path d="M588.08,141.21c1.14-28.16,25.15-47.64,47.64-47.64a34.31,34.31,0,0,1,18.53,5.11c2.83,1.51,3.4,4.91,1.7,7.75s-5.11,3.4-7.94,1.7a22.47,22.47,0,0,0-12.1-3.4c-16.45,0-35.35,15.31-36.48,37.05-.95,20.42,15.12,37.62,37.24,38.19,22.49.94,43.1-14.75,61.06-35.16C724,114.56,764.65,57.28,787.52,31.38l3.22-3.59a146.83,146.83,0,0,1,13-11.91c0-.19,0-.19.19-.19,4-3,7.56-4.73,10.77-5.1,4.73-.19,7.94,4.72,5.49,8.69-2.08,3.22-6.43,5.48-10,6.81,2.08-1.7,5.1-3.59,7.18-5.67.76-.57.76-1.14,0-1.89a1.71,1.71,0,0,0-1.89,0c-23.06,15.69-90.74,112.1-109.08,133.65-18.71,21.17-42,40.07-70.13,39.13C608.5,190.74,586.57,168.25,588.08,141.21ZM791.3,22.5a214.64,214.64,0,0,0-32.7-2.65c-32.52,0-61.44,8.7-76.75,32.51-5.67,8.89-8.32,18.15-8.32,26.47,0,12.67,6.05,23.06,15.88,26.09a17.51,17.51,0,0,0,6.24,1.13c4.35,0,8.69-1.7,12.66-6a5.65,5.65,0,0,1,7.94-.38,5.72,5.72,0,0,1,.38,8.13c-6.62,6.81-14.37,9.83-21.93,9.83a30.26,30.26,0,0,1-10-1.89c-14.74-6-23.06-20.6-23.06-37.43,0-11.34,3.78-23.63,12.1-34.78,20-26.84,54.07-34,85.07-34a241.18,241.18,0,0,1,43.67,4.16Z" style="fill:#fff"/><path d="M739.5,154.82c13-10.58,26.84-24.19,39.51-37,2.08-2.27,8.13-9.64,15.5-18.15C782.41,117,770.69,135.35,760.1,152c-4.53,4-9.07,7.94-13.42,11.53a5.52,5.52,0,0,1-7.94-.76A5.68,5.68,0,0,1,739.5,154.82Zm107.37-28.73c8.32-9.64,16.64-18,22.5-26.09a42.61,42.61,0,0,0,5.86-9.83c1.7-5.29-1.89-6.61-6.05-6.61a27.53,27.53,0,0,0-7.94,1.32c-37.81,11.91-80.91,59.17-100,93.2a5.25,5.25,0,0,1-4.73,2.83c-3.78,0-7.37-3.59-5.29-8.13,20.6-35.35,42.34-70.32,62.57-95.84,3.59-4.54,6.81-8.89,12.1-6a5.5,5.5,0,0,1,2.46,5.48c-1,3.4-3.78,6.62-6.05,9.64l-8.51,11.16a311.2,311.2,0,0,0-35.35,35.35,1.16,1.16,0,0,0,.19,1.89c.57.57,1.13.38,1.7-.19,20.42-24,48.4-51,77.51-60.12a32.2,32.2,0,0,1,10.21-1.7c10.2,0,19.09,5.11,19.09,14.75a20.61,20.61,0,0,1-1.32,7c-1.52,4.35-4.16,8.32-7.38,12.67-6.23,8.32-14.93,17.77-23.06,26.65-8.32,9.64-15.12,17.77-18.15,24.77a17.6,17.6,0,0,0-1.51,6.05c0,4,2.46,5.67,6,5.67,2.65,0,6.05-1.14,9.26-2.84,6.62-3.59,14.56-9.83,23.44-17.39a5.7,5.7,0,0,1,7.38,8.7c-8.89,7.75-17.58,14.36-25.34,18.71a29.56,29.56,0,0,1-14.74,4.35c-10.21,0-17.58-6.81-17.58-16.83a25.07,25.07,0,0,1,2.64-11C830.8,144.81,838.75,135.16,846.87,126.09Z" style="fill:#fff"/></svg>