<svg xmlns="http://www.w3.org/2000/svg" viewBox="0 0 819.62 215.35"><path d="M44.83,161.7a24.93,24.93,0,0,0,.77,6.51,42.43,42.43,0,0,0,15.32,1.92c15.71-.77,33.15-10.15,46.37-19.93,3.83-2.87,7.28-5.55,11.68-9.19a15.54,15.54,0,0,1,9.78-3.64,15,15,0,0,1,11.49,5.17L155,157.87c0,.19.19.19.19.38a14.9,14.9,0,0,1-1.34,20.88c-4.4,3.65-9.19,7.09-13.22,10.16l.19.19C124,202.32,100.58,215,76.25,215.34h-.19c-18.58.2-35.25-5.36-46.37-16.47C7.47,179.9,0,166.11,0,147.72a63.84,63.84,0,0,1,6.7-28.17A84.48,84.48,0,0,1,20.5,99.24,85,85,0,0,1,46.17,79.13a77.75,77.75,0,0,1,12.26-5A58.69,58.69,0,0,1,56.52,59a50.14,50.14,0,0,1,9-29.12C79.32,10.92,105,.38,127.6.38c17.43,0,33.52,5.94,52.68,29.13a32.78,32.78,0,0,1,8.43,13.79,51.1,51.1,0,0,1,1.53,11.3c0,30.66-38.31,48.09-62.64,45.6a20.18,20.18,0,0,1,1,5.75c0,9-7.28,16.67-19.16,15.52-4.59-.58-9.77-2.49-15.7-5.75-6.52.76-13.42,3.26-19,5.55C60.35,128.36,44.83,144.27,44.83,161.7Z" style="fill:#dda126"/><path d="M264.77,139.86l2.69,2.3a27.51,27.51,0,0,1,2.1,2.87l12.84,12.84a13.94,13.94,0,0,1,3.64,9.58,15.49,15.49,0,0,1-5,11.49C267.84,190.05,249.45,205,233.36,205a24.74,24.74,0,0,1-10.16-2.3l-.38-.19a28.57,28.57,0,0,1-8-5.56l-6.32-6.32-1.15,1c-9.77,6.9-20.88,12.64-31.61,12.64a26.22,26.22,0,0,1-8.43-1.15h-.2a28.23,28.23,0,0,1-10.72-6.51l-10.92-10.92a13.09,13.09,0,0,1-7.28,2.3,14.7,14.7,0,0,1-10.16-4.6l-1.15-1.15.19.38-11.3-11.3a18.94,18.94,0,0,1-4.22-3.64h-.19a14.52,14.52,0,0,1-3.83-10A14.94,14.94,0,0,1,113,145.8c10-8.24,23.75-21.46,36.21-31.8a147.51,147.51,0,0,1,34.68-37.17c14-10.16,30.08-18.78,45.21-18.78a45,45,0,0,1,11.3,1.53,23.44,23.44,0,0,1,13.42,9.78L255,70.5a15,15,0,0,1,2.88-.38,20.16,20.16,0,0,1,16.67,9.39l12.26,12.26a13.82,13.82,0,0,1,4.21,9.58,15,15,0,0,1-3.83,9.58C285.66,113.23,276.65,125.68,264.77,139.86Z" style="fill:#dda126"/><path d="M296.2,55.56h23.56c16.48-19.16,32.57-35.44,42.92-42.72a15.61,15.61,0,0,1,8.43-2.69,17.48,17.48,0,0,1,14.56,8.44L398.12,31a14.64,14.64,0,0,1,4.41,10.34,15.17,15.17,0,0,1-1.73,6.71c-2.68,4.79-7.85,11.69-13.22,18.39l9.78,9.58a14,14,0,0,1,4.21,10.15A14.41,14.41,0,0,1,386.82,101H358.65L327,137a15.15,15.15,0,0,1,10.73,5.18,27.64,27.64,0,0,1,2.11,2.87l12.84,12.84a13.93,13.93,0,0,1,3.63,9.58,15.3,15.3,0,0,1-5.17,11.49,90.41,90.41,0,0,1-7.47,6.52l-1.92,1.34c-7.66,5.75-14.94,10.92-20.88,13.79l-.19-.19a35.93,35.93,0,0,1-16.48,4.41,31.28,31.28,0,0,1-9.38-1.53l-.2-.2a28.07,28.07,0,0,1-11.49-6.7l-10.54-10.54a12.51,12.51,0,0,1-6.9,1.92A15.4,15.4,0,0,1,255,183.35l-12.07-12.07a16,16,0,0,1-4.41-3.64,14.06,14.06,0,0,1-3.83-9.77A16,16,0,0,1,240.06,146c9.39-7.66,23.19-20.69,35.64-31.23,5-8.24,10.92-16.86,17.43-25.67l-4.4-4.79a14.8,14.8,0,0,1-7.86-13.41A15.63,15.63,0,0,1,296.2,55.56Z" style="fill:#dda126"/><path d="M428.78,184.31a40.8,40.8,0,0,1-4.41-3.64c-9.19-8.63-14-20.5-14-37a122.58,122.58,0,0,1,1.15-15.33C417.86,83.34,479.74,0,542,0c3.06,0,5.17.19,7.28.38C560,1.72,569.6,6.51,576.11,15.52l11.11,10.92a36.87,36.87,0,0,1,8,12.45l.38.2A13.32,13.32,0,0,1,597,45a14.89,14.89,0,0,1-8,13l.57,1.92a62.33,62.33,0,0,1,1,11.68c0,24.72-12.84,53.27-29.31,76.45l11.3,11.3.38.58a14.76,14.76,0,0,1,3.64,9.77,15.51,15.51,0,0,1-4.79,11.11l-3.25,2.49c-10.35,7.66-25.48,13-39.09,13a42.64,42.64,0,0,1-15.13-2.68l-1.34-.58c-12.27,6.9-28.17,14-43.49,14a41.67,41.67,0,0,1-29.32-11.5Zm27-22.23c5-.57,11.31-3.06,17.82-5.94-4.4-9-6.51-19.54-6.51-31v-4a124.06,124.06,0,0,0-10,26.06,77.55,77.55,0,0,0-1.34,12.26Zm59.59-41c11.88-14.75,22.41-31.8,27.2-47.13a92.26,92.26,0,0,0-14.17,17.63A108.46,108.46,0,0,0,515.38,121.08Z" style="fill:#dda126"/><path d="M678,137.75a19.34,19.34,0,0,1,6.7,4.41c.77,1,1.34,1.91,15,15.71a14.48,14.48,0,0,1-1.54,21.07h.2c-13.42,11.5-31.23,25.68-47.71,25.68a26.52,26.52,0,0,1-9.58-1.73,21.54,21.54,0,0,1-7.85-5.17l-8.63-8.62c-10.72,7.66-23.18,14.37-34.48,14.37a28.06,28.06,0,0,1-14.75-4l-.2-.19a28,28,0,0,1-4.4-3.64L562.12,187a15.87,15.87,0,0,1-14.36-3.83c-14-13-15.33-14.18-16.48-15.52a14.52,14.52,0,0,1-3.83-10A15.42,15.42,0,0,1,532.62,146c7.09-6.13,20.89-18.78,29.5-25.1,13-21.46,33.34-45.21,53.27-62.65A19.36,19.36,0,0,1,625,55.75c6.51,0,12.07,3.45,27,20.69l1.53,1.92a205.69,205.69,0,0,1,18.39-18,15,15,0,0,1,9.2-2.87c6.33,0,12.65,3.44,28,21.07a14.65,14.65,0,0,1,4.41,10.35,16,16,0,0,1-3.26,9.39H710C706,104.42,692.6,121.08,678,137.75Z" style="fill:#dda126"/><path d="M713.29,55.56h23.57c16.47-19.16,32.57-35.44,42.91-42.72a15.61,15.61,0,0,1,8.43-2.69,17.47,17.47,0,0,1,14.56,8.44L815.21,31a14.6,14.6,0,0,1,4.41,10.34,15.15,15.15,0,0,1-1.72,6.71c-2.69,4.79-7.86,11.69-13.22,18.39l9.77,9.58a14,14,0,0,1,4.21,10.15A14.41,14.41,0,0,1,803.91,101H775.75l-31.61,36a15.19,15.19,0,0,1,10.73,5.18A27.51,27.51,0,0,1,757,145l12.84,12.84a13.94,13.94,0,0,1,3.64,9.58,15.33,15.33,0,0,1-5.17,11.49,92,92,0,0,1-7.48,6.52l-1.91,1.34c-7.67,5.75-14.94,10.92-20.88,13.79l-.19-.19a36,36,0,0,1-16.48,4.41,31.34,31.34,0,0,1-9.39-1.53l-.19-.2a28.18,28.18,0,0,1-11.5-6.7l-10.53-10.54a12.54,12.54,0,0,1-6.9,1.92,15.42,15.42,0,0,1-10.73-4.41L660,171.28a16.12,16.12,0,0,1-4.41-3.64,14.06,14.06,0,0,1-3.83-9.77A16,16,0,0,1,657.16,146c9.38-7.66,23.18-20.69,35.63-31.23,5-8.24,10.92-16.86,17.44-25.67l-4.41-4.79A14.79,14.79,0,0,1,698,70.89,15.62,15.62,0,0,1,713.29,55.56Z" style="fill:#dda126"/><path d="M9.58,147.72A64.67,64.67,0,0,1,10.73,136c3.64-19.74,20.5-39.09,39.85-48.47,9-4.79,20.5-7.09,31-7.09a56.34,56.34,0,0,1,11.5,1C101,83,104.22,87,104.22,90.62c0,3.83-3.45,7.09-9,6.51a30.38,30.38,0,0,1-10.16-3.44,46.08,46.08,0,0,1,9,1.34c1,.19,1.53,0,1.72-.77.19-1,0-1.53-1-1.72A36.17,36.17,0,0,0,83.72,91c-9.58,0-19.73,3.07-28,6.71C40.81,104.42,25.86,120.89,22,136.79a41.72,41.72,0,0,0-1.34,10.54c0,20.31,15.9,33.34,40.62,32.38,18.39-.77,37.16-10.92,51.73-21.84,3.82-2.88,7.66-5.94,12.06-9.58a5.71,5.71,0,1,1,7.48,8.62c-4.41,3.64-8.62,7.09-12.65,10.15-15.52,11.88-37.16,23.76-59.2,23.95C32.76,191.39,9.58,176.64,9.58,147.72ZM66.09,59a40.58,40.58,0,0,1,7.29-23.57C85.06,18.78,107.67,10,127.6,10c17.24,0,32.56,6.52,37.16,20.5a37,37,0,0,1,1.15,8.82c0,23.95-28.35,36.59-48.08,37.55-3.45.19-6.14-1.34-6.71-4.41-.77-3.06,1.34-6.51,4.4-6.71,15-.95,42.92-10,38.32-31.8-2.87-8.43-14.56-13.6-30.46-12.26-15.71,1-32.57,8.24-40.61,20.31A29,29,0,0,0,77.4,59.2,31.06,31.06,0,0,0,83.53,78a60.05,60.05,0,0,0-13,.76A47.12,47.12,0,0,1,66.09,59Z" style="fill:#fff"/><path d="M119.17,153.08c10-8.24,20.5-18.2,31-28.74a80.1,80.1,0,0,0-9.77,25.48c-4.6,4.41-9.78,8.62-14.18,12.26-2.49,2.11-5.75,1.54-7.86-1A5.59,5.59,0,0,1,119.17,153.08Zm23.18,6.13c0-11.11,4.79-24,8.24-30.46,9-16.09,22.61-33.34,39.08-44.45,10.73-7.67,23.57-11.88,34.11-11.88a29.46,29.46,0,0,1,12.06,2.49C240.06,77,242,80.28,242,83.53c0,4.79-4.4,9.39-13.21,9.58-31.42.39-64.57,40.43-59.78,32.76,10.16-16.28,32.76-40.23,54.22-40.23a27.62,27.62,0,0,1,5.56.57c4.21.77,3.64-1.53,0-2.29a26.69,26.69,0,0,0-5.56-.39c-25.67,0-50.19,28-62.46,50.77-5.17,9.2-7.47,17.82-7.28,24.14,0,7.28,3.07,9.77,7.28,9.77,6.32,0,15.14-5.55,19.55-8.62a187.46,187.46,0,0,0,26.05-22c-3.25,6.32-6.9,14.75-7.66,22.22-4.41,3.64-7.86,6.33-11.88,9.2-8.43,5.94-17.82,10.92-26.44,10.92a19.67,19.67,0,0,1-5.75-.77C145.42,176.07,142.35,168.21,142.35,159.21Zm59,3.26c0-26.06,38.89-68.4,47.9-76.83L255,80.47c5.18-4.22,15.9,2.68,9.58,10-1.91,2.87-21.64,30.27-41.38,50.19,8.24-15.32,27-37.54,36.4-48.27a1.29,1.29,0,0,0-.19-1.92,1.27,1.27,0,0,0-1.91.19c-17.06,20.12-43.11,49.62-44.64,70.7-.19,3.83.19,5.94,3.06,7.28,1.73.57,5.36.38,12.84-3.45a130.88,130.88,0,0,0,23.37-17.05,5.77,5.77,0,1,1,7.66,8.62c-12.06,10.15-28.93,23.95-41.76,23.95a15.48,15.48,0,0,1-6.52-1.54C204.23,175.49,201.36,169.55,201.36,162.47Z" style="fill:#fff"/><path d="M246.38,153.08c9.39-7.67,21.85-19.35,31.62-29.12-4,7.47-9.77,17.62-11.88,27.39-4,3.64-8.05,7.09-12.45,10.73-2.31,2.11-5.94,1.54-8-1C243.51,158.83,244.09,155.19,246.38,153.08Zm22,5a39.17,39.17,0,0,1,1.15-9.39c11.3-36.21,73.57-111.31,98.47-128,5.18-3.45,12.65,2.11,9.58,7.67-4.6,8.23-19,24.9-26.44,34.29h-7.47l21.27-23a1.52,1.52,0,0,0,0-2.11c-.58-.57-1.54-.19-2.11.39-12.26,13.79-45.41,47.51-69.74,87-6.13,10-12.45,23.75-12.45,33.33,0,4.6,1.53,8.43,5.36,10.16,5.56,2.1,12.84-1.54,28.36-13.61,2.87-2.1,5.36-4.21,8.24-6.7a5.7,5.7,0,0,1,7.47,8.62,96.13,96.13,0,0,1-8.63,7.28c-7.08,5.36-13.6,10.15-19.73,13a28.69,28.69,0,0,1-12.83,3.44,20.51,20.51,0,0,1-6.52-1.14C272.06,176.26,268.42,167.26,268.42,158.06ZM296.2,65.14h24.52c-3.26,3.64-6.32,7.67-10,11.49H296.2a5.75,5.75,0,0,1-5.75-5.74A5.89,5.89,0,0,1,296.2,65.14ZM337,79.32c-10.53,11.68-30.08,35.25-41,46.17,6.71-11.49,23.76-34.68,33.53-46.17Zm34.49-14a5.65,5.65,0,1,1,0,11.3H331.83c3.26-4,6.71-7.66,9.58-11.3Z" style="fill:#fff"/><path d="M454.07,182.78a32.66,32.66,0,0,1-23.18-9C423.8,167.06,420,157.29,420,143.69a93.08,93.08,0,0,1,1.15-14C427.05,87.56,484.53,9.58,542,9.58c2.11,0,4.21.19,6.32.38,10.54,1.34,19,6.13,23.76,17.63A5.23,5.23,0,0,1,569,34.87,5.6,5.6,0,0,1,561.55,32c-2.87-6.32-7.47-9.38-13.41-10.72a40.26,40.26,0,0,0-8.43-.77c-45,0-97.9,66.29-106.71,109.59a77.57,77.57,0,0,0-1.54,14c0,9.2,2.3,16.1,6.52,20.89a20.73,20.73,0,0,0,15.9,6.7c10.73,0,22.8-5.94,31.42-10.54,2.87,2.88,5.55,5.94,9.19,8C483,175.68,468.06,182.78,454.07,182.78Zm22.61-57.67c0-18.78,6.32-40.24,18.2-59.2,11.11-17.82,30.84-38.13,52.88-36,9.77,1,15.51,8,17.62,16.67a54,54,0,0,1,.77,9.77c0,36.59-29.51,82-54.61,101.16-5.55-.39-9.38-2.11-11.87-5.18,22.61-19,55.37-61.5,55.37-94.45a42.81,42.81,0,0,0-.77-8.62c-1.53-5.36-4-7.67-7.67-7.86-14.94-1.53-31,13.61-41.19,30.08-11.68,19-17.05,37.94-17.05,53.46,0,10.72,2.49,19.73,7.09,26.24a19.33,19.33,0,0,0,9.58,7.67,29.19,29.19,0,0,0,9.2,1.53c10.15,0,21.46-4.6,28.35-10.35a5.84,5.84,0,0,1,7.67,8.82l-2.49,1.91A59.81,59.81,0,0,1,514,172a34.79,34.79,0,0,1-12.08-2.1C484.72,163.62,476.68,146.18,476.68,125.11Z" style="fill:#fff"/><path d="M539.14,153.08c7.08-6.13,18.2-16.29,25.86-23.37a114.23,114.23,0,0,0-9.39,23.56,55.88,55.88,0,0,1-9.19,8.81c-2.3,2.11-5.94,1.54-8-1C536.26,158.83,536.84,155.19,539.14,153.08Zm18.2,8.43a30,30,0,0,1,.76-7.09c2.3-9.77,6.9-19.54,12.07-28.16a274.08,274.08,0,0,1,51-60.35c5.75-3.26,12.84,1.72,9.2,7.66-8.62,13.79-25.1,32.19-41,49.05a350.11,350.11,0,0,1,33-41c.76-.77.76-1.34,0-1.92a1.29,1.29,0,0,0-1.92,0c-15.9,16.86-32.57,38.32-42.15,55.56-4.21,8.24-7.47,15.9-8.81,21.46-2.11,8.05.57,10.73,5,10.73,5.55,0,13.79-4.41,17.82-6.9,10.53-6.7,22-17.24,33.52-29.31a85.32,85.32,0,0,0-8.81,24.52c-10.16,9.2-27.4,23.37-42.15,23.37a18.52,18.52,0,0,1-10-2.68C559.25,172.81,557.34,167.45,557.34,161.51Zm63.22,9a24.39,24.39,0,0,1-1.53-9.19c0-17,13.22-37.74,19.35-47.13,10.54-16.67,24-33.34,38.51-45.6,5.75-4,15.52,1.91,10.54,9.2-4.6,7.08-23,29.31-39.85,48.27,8-14.37,24.52-35.63,36-48.66a1.36,1.36,0,0,0-2.11-1.72c-17.43,19.73-31.8,39.27-42.14,59.77-4.79,9.77-7.67,17.82-8.43,24.33-.58,6.71,1.53,9,4.78,9,2.88,0,6.71-1.73,10.35-3.64,6.71-3.64,14.56-9.39,23.57-17.05a5.7,5.7,0,0,1,7.47,8.62c-12.26,10.54-28.55,23.56-41.77,23.56a17.56,17.56,0,0,1-6.32-1.15A14.94,14.94,0,0,1,620.56,170.51Z" style="fill:#fff"/><path d="M663.48,153.08c9.39-7.67,21.84-19.35,31.61-29.12-4,7.47-9.77,17.62-11.88,27.39-4,3.64-8,7.09-12.45,10.73-2.3,2.11-5.94,1.54-8-1C660.6,158.83,661.18,155.19,663.48,153.08Zm22,5a39.17,39.17,0,0,1,1.15-9.39c11.31-36.21,73.57-111.31,98.48-128,5.17-3.45,12.64,2.11,9.58,7.67-4.6,8.23-19,24.9-26.44,34.29H760.8l21.27-23a1.5,1.5,0,0,0,0-2.11c-.57-.57-1.53-.19-2.11.39-12.26,13.79-45.4,47.51-69.73,87-6.13,10-12.46,23.75-12.46,33.33,0,4.6,1.54,8.43,5.37,10.16,5.55,2.1,12.83-1.54,28.35-13.61,2.88-2.1,5.37-4.21,8.24-6.7a5.7,5.7,0,1,1,7.47,8.62,97.47,97.47,0,0,1-8.62,7.28c-7.09,5.36-13.6,10.15-19.73,13A28.73,28.73,0,0,1,706,180.47a20.45,20.45,0,0,1-6.51-1.14C689.15,176.26,685.51,167.26,685.51,158.06Zm27.78-92.92h24.53c-3.26,3.64-6.33,7.67-10,11.49H713.29a5.75,5.75,0,0,1-5.74-5.74A5.89,5.89,0,0,1,713.29,65.14ZM754.1,79.32C743.56,91,724,114.57,713.1,125.49c6.71-11.49,23.76-34.68,33.53-46.17Zm34.49-14a5.65,5.65,0,1,1,0,11.3H748.93c3.25-4,6.7-7.66,9.58-11.3Z" style="fill:#fff"/></svg>