<svg xmlns="http://www.w3.org/2000/svg" viewBox="0 0 1329.72 232.15"><path d="M10.25,157.94C3.07,153,0,145.5,0,136.28,0,112.86,23.13,78,37.62,62.36c28.69-31,65.72-52.85,98.07-52.85a59.94,59.94,0,0,1,8.34.59c13.18,2.34,22.4,8.2,28.26,16.25l7.46,7.46c8.2,8.2,11.86,19.91,11.86,32.65A82.24,82.24,0,0,1,188,89.88V90c-3.52,11.71-10.39,24.15-18.74,35.13l7.61,7.47a10.73,10.73,0,0,1,2.93,7.46,10.91,10.91,0,0,1-3.37,8c-1.31,1-3.8,3.08-4.68,4-5.85,3.95-17.42,9.22-26.06,9.36A57.82,57.82,0,0,1,131,159.84c-11.71,5.27-21.52,8.49-28.11,8.49a37.45,37.45,0,0,1-6.88-.58Q83.95,165.33,77.58,159l-4.1-4.1C61.77,163.8,46.4,173.31,35,173.31a20.2,20.2,0,0,1-8.34-1.61,24.79,24.79,0,0,1-7.76-5.12ZM106.42,57.82A192.51,192.51,0,0,0,65.14,91.49C54,104.07,44.21,119.44,38.79,132a145.75,145.75,0,0,0,20.93-17.56C72.46,101.29,90.46,79.34,106.42,57.82Zm1.9,61.33,5.12,2.78c17-12.88,35-34.1,41.13-49.77a59.15,59.15,0,0,0,2.49-15.95c0-1.17-.14-2.2-.14-3.37a14.06,14.06,0,0,1-1.47,3.37C142.72,75.68,124.86,99.24,108.32,119.15Z" style="fill:#dda126"/><path d="M147.26,136.42a11.23,11.23,0,0,1-2.78-7.46,12.13,12.13,0,0,1,4.24-9.08c12.59-10.83,30.89-29.42,58.84-59.13,1.76-8,8.64-13.47,13.62-15.08v-.15a14.17,14.17,0,0,1,4.83-.87,12.19,12.19,0,0,1,10.54,6.29l9.22,9.22a11.81,11.81,0,0,1,3.07,11.27l.44.44-.14.15,9.95,10a9.88,9.88,0,0,1,1.61,1.91l-.29-.3A10.72,10.72,0,0,1,262.6,90a12.43,12.43,0,0,1-4.83,10h-.14a96.6,96.6,0,0,0-16.69,14.93,11.41,11.41,0,0,1,7,3.66,21.84,21.84,0,0,1,1.61,2.19l9.8,9.81a10.62,10.62,0,0,1,2.78,7.32,11.84,11.84,0,0,1-3.8,8.78c-10.25,8.78-24.15,19.61-36.6,19.61a24.94,24.94,0,0,1-7.32-1.31,20.89,20.89,0,0,1-6.73-4.54c-14.34-12.15-17.42-18.15-18.15-24.45-5.12,4.83-9.95,9.37-14.34,13.18a12.3,12.3,0,0,1-7.32,2.49,11.85,11.85,0,0,1-8.35-3.37l-9.22-9.22a10,10,0,0,1-3.07-2.49Z" style="fill:#dda126"/><path d="M222.79,130.42a12,12,0,0,1,4.24-8.93c5.27-4.53,12.88-11.27,18.59-16.68,5.27-9.37,11.71-16.69,22.4-22.4,8.05-13.76,21.52-26.64,36-28.1,10.39-.74,18.15,3.36,22.69,10L335.65,73a24.92,24.92,0,0,1,6.73,17.71c0,1.47-.15,2.93-.29,4.4l.14.14c-1.31,8.93-5.56,18.3-11.12,27.23l7.32,7.17a12.55,12.55,0,0,1,3.51,8.78,12.09,12.09,0,0,1-4.24,9.08c-8.49,7.46-19.47,12-30.6,12a39.22,39.22,0,0,1-10.24-1.32c-9.08,5.13-16.84,8.35-22.25,8.35A23.92,23.92,0,0,1,266,165a22.12,22.12,0,0,1-7.32-4.83l-7.76-7.76a10.56,10.56,0,0,1-4.68,1.17,11,11,0,0,1-7.76-3.37l-9.37-9.37a12.74,12.74,0,0,1-3.36-2.92A11.71,11.71,0,0,1,222.79,130.42Z" style="fill:#dda126"/><path d="M390.1,56.36h.15L394.78,61c1.91-.73,3.81-1.32,5.71-1.9a34.42,34.42,0,0,1,6.15-.88,19.89,19.89,0,0,1,13,4.68,21.8,21.8,0,0,1,4.53,5.27l8.2,8.05c4.25,4.25,6.15,9.66,6.15,15.81,0,9.22-5,20.64-11.27,31.18l7.61,7.47a11.64,11.64,0,0,1,2.78,7.61,10.68,10.68,0,0,1-3.8,8.34H434c-7.61,6.88-15.81,11.42-26.05,12.73a65.3,65.3,0,0,1-8,.44,48.63,48.63,0,0,1-6.59-.44c-10.83,5.57-19.47,8.35-25.47,7.47a19.63,19.63,0,0,1-11.12-5.56l-5.42-5.42c-2.93,3.66-5.71,7.32-8.34,10.83a362.64,362.64,0,0,0-29.87,47.43L313,214a10.45,10.45,0,0,1-9.81,6.3,12,12,0,0,1-8.34-3.52l-9.22-9.22a11.28,11.28,0,0,1-6-9.95,13.59,13.59,0,0,1,1.18-5.27v-.15c8.92-17.85,18.73-34.83,29-51.08l-.44-.44a11.94,11.94,0,0,1-3.37-2.78,11.76,11.76,0,0,1-2.93-7.47,11.51,11.51,0,0,1,4.4-8.93A339.82,339.82,0,0,0,336.52,94l.88-.87,16.69-18c7.17-9.8,13.47-17.42,17.86-21.52A11.6,11.6,0,0,1,380,49.92,11.72,11.72,0,0,1,390.1,56.36Z" style="fill:#dda126"/><path d="M522.72,52.4h18c12.59-14.63,24.89-27.08,32.79-32.64A11.94,11.94,0,0,1,580,17.71a13.38,13.38,0,0,1,11.13,6.44l9.51,9.52a11.18,11.18,0,0,1,3.37,7.9,11.53,11.53,0,0,1-1.32,5.12,122.57,122.57,0,0,1-10.1,14.06L600,68.07a10.7,10.7,0,0,1,3.22,7.75A11,11,0,0,1,592,87.09H570.44l-24.15,27.52a11.55,11.55,0,0,1,8.19,4,19.12,19.12,0,0,1,1.61,2.19l9.81,9.81a10.66,10.66,0,0,1,2.78,7.32,11.67,11.67,0,0,1-3.95,8.78,67.23,67.23,0,0,1-5.71,5l-1.46,1c-5.86,4.39-11.42,8.35-16,10.54l-.14-.15a27.46,27.46,0,0,1-12.59,3.37,23.77,23.77,0,0,1-7.17-1.17l-.15-.15a21.36,21.36,0,0,1-8.78-5.12l-8-8.05a9.6,9.6,0,0,1-5.27,1.46,11.78,11.78,0,0,1-8.2-3.36L482,140.81a12.09,12.09,0,0,1-3.37-2.78,10.73,10.73,0,0,1-2.93-7.46,12.27,12.27,0,0,1,4.1-9.08c7.17-5.85,17.71-15.81,27.23-23.86,3.8-6.29,8.34-12.88,13.32-19.61L517,74.36a11.3,11.3,0,0,1-6-10.25A11.94,11.94,0,0,1,522.72,52.4Z" style="fill:#dda126"/><path d="M529.31,130.28a11.66,11.66,0,0,1,4.1-8.93c10.39-8.2,21.66-20.2,44.35-40.4,19.61-27.67,39.37-52.7,53.13-62.8A10.91,10.91,0,0,1,637.63,16a12.48,12.48,0,0,1,11.12,6.73L658,31.76a10.79,10.79,0,0,1,3.37,7.62,11.21,11.21,0,0,1-1.46,5.41,102.86,102.86,0,0,1-8.49,12.15,14.89,14.89,0,0,1,6.29,5.42l9.66,9.51A16.4,16.4,0,0,1,672,81.24c1.75,9.07-4.54,17.27-9.23,24-2.63,3.36-5.85,7.31-9.07,11a15,15,0,0,1,2.93,2.35,21.84,21.84,0,0,1,1.61,2.19l9.8,9.81a10.62,10.62,0,0,1,2.78,7.32,11.84,11.84,0,0,1-3.8,8.78c-3.37,2.78-7,5.56-10.1,7.9-5.42,4.1-11.42,8.06-17.42,10a32.3,32.3,0,0,1-8.78,1.46c-6.3,0-11.42-2.05-15.08-5.71l-8.93-8.93c-5.71-3.66-8.93-9.95-8.93-17.71a26.4,26.4,0,0,1,.59-5.85c-10.54,11-19.62,22.39-25.62,32.2a10.74,10.74,0,0,1-9.66,5.71,11.41,11.41,0,0,1-8-3.37c-12.44-11.12-14.49-13.9-15.22-17.12l-4.54-4.69a14.06,14.06,0,0,1-3.22-2.78A10.81,10.81,0,0,1,529.31,130.28Z" style="fill:#dda126"/><path d="M637.63,140.81a12.24,12.24,0,0,1-3.37-2.78,11.06,11.06,0,0,1-2.93-7.61,12.25,12.25,0,0,1,4.1-9.07c5.27-4.1,11.57-10.1,18.89-17.13,8.19-20.64,27.52-40.4,45.67-47.86a35.75,35.75,0,0,1,13.17-2.64c8.34,0,15.37,3.51,19.47,9.52l8.93,8.92c4,4,6.15,9.52,6.15,16.4a31.57,31.57,0,0,1-.88,7.32c-2.35,9.51-8.49,17.71-16.4,24.3a3,3,0,0,1,.59.87l9.66,9.52a10.66,10.66,0,0,1,2.78,7.32,11.71,11.71,0,0,1-4,8.78,83.33,83.33,0,0,1-9.08,7.47c-9.95,7.61-22.1,12.58-33.37,13-9.22.44-19-1.9-25.76-8.63L663,150.18a.49.49,0,0,0-.29-.14l-.59.44.15.14a10.57,10.57,0,0,1-7.17,2.78,12,12,0,0,1-8.2-3.36Z" style="fill:#dda126"/><path d="M783.57,122.23c0-18.16,13.76-38.06,39.23-50.21,16-7.47,35.86-10.4,56.06-10.4a369.49,369.49,0,0,1,44.5,3.08c4.1.44,9.08,1,13,1.61l1.9.44,12.15-10.1c19.18-16,40.4-33.38,55.92-43.18C1018.22,6.15,1030.22,0,1040.9,0a23.78,23.78,0,0,1,14.79,5.27A16.76,16.76,0,0,1,1058,8.34l9.07,8.93a13.2,13.2,0,0,1,2.79,3.81l.58,1.46-.14-.14a16.89,16.89,0,0,1,.87,5.41c0,6.44-3.51,13-7,18.3-4.25,6.73-10.69,14.34-17.42,22.54-3.22,3.81-6.88,7.91-10.25,11.71l-6.44,7.17,3.37,3.37a11.12,11.12,0,0,1,3.07,7.17c.59,6.15-4.39,11.71-10.83,12.15-2.78,0-7-.14-13.47-.58l-.73,1-.14.15-1.18,1.61c-.73.88-1.61,2.19-2.19,3.07a12.54,12.54,0,0,1,3.37-.44,13.21,13.21,0,0,1,9.36,4l1,1.76.14.15,10.25,10.1a12.16,12.16,0,0,1,2.49,7.17,11.47,11.47,0,0,1-3.81,8.49c-3.22,2.78-6.73,5.56-9.66,7.9-8,6.15-17.12,10.54-26,10.54a24.72,24.72,0,0,1-10.69-2.34l-.14-.14a20.22,20.22,0,0,1-6.45-4.4l-8.92-8.92c-6.3-4.1-10.1-11.71-8.79-21.52.59-6.3,3.66-14.06,8.93-23.42l-7.76-1.32v.15l-3.36-.44-.15-.15c-.29,0-.44-.15-.73-.15l-10.25,8.64c-10.1,8.34-20.2,16.69-29.71,24.15-19.18,14.64-37.91,27.52-52.4,32.21a81.26,81.26,0,0,1-25.18,4.24c-14.2,0-25.76-4.54-33.38-12.15l-7.75-7.76a35.68,35.68,0,0,1-13-17.85A37.81,37.81,0,0,1,783.57,122.23Zm119.3-25.77c-4.25-.29-8.34-.44-12.15-.44C873,96,856.91,98.37,844,104.51c-18.74,8.79-25.91,20.35-25.91,29.43v2a30.37,30.37,0,0,0,9.51,1.32,60.25,60.25,0,0,0,18.3-3.36c11-3.37,28.4-15.52,45.52-28.4Z" style="fill:#dda126"/><path d="M1115.42,117.69l.87.88,1.61,2.34,9.81,9.66a11.07,11.07,0,0,1-1.17,16.1,164.42,164.42,0,0,1-20.79,15.22c-4.68,2.49-10.1,4.83-15.51,4.83a16.71,16.71,0,0,1-9.08-2.48,13.39,13.39,0,0,1-2.78-2.2l-6-6-.73.58c-7.61,4.83-15.66,9.52-24,9.52a22.67,22.67,0,0,1-6.44-1l-.14-.14a20.63,20.63,0,0,1-8-4.83l-8.49-8.49a11.51,11.51,0,0,1-5.71,1.46,11.06,11.06,0,0,1-7.76-3.07l-9.37-9.37a17.73,17.73,0,0,1-3.22-2.64,11.06,11.06,0,0,1-2.93-7.61,12.1,12.1,0,0,1,4.25-9.07c6.58-5.57,13.17-11.13,28.39-25.62,6.88-9.37,17-20.49,25.91-27.23,10.54-7.75,23-14.19,34.55-14.19a34.28,34.28,0,0,1,8.64,1.17,18.12,18.12,0,0,1,9.51,6.88c12.73-15.37,25.18-29.28,33.81-36.6,4-3.36,8.2-5.56,12.3-5.56,3.51,0,6.88,1.61,9.95,5.56l9.52,9.52a11.65,11.65,0,0,1,1.17,14.64C1163,65.29,1135.47,97.49,1115.42,117.69Z" style="fill:#dda126"/><path d="M1211.3,117.69l.87.88,1.61,2.34,9.81,9.66a11.07,11.07,0,0,1-1.17,16.1,164.42,164.42,0,0,1-20.79,15.22c-4.68,2.49-10.1,4.83-15.51,4.83a16.71,16.71,0,0,1-9.08-2.48,13.39,13.39,0,0,1-2.78-2.2l-6-6-.73.58c-7.61,4.83-15.66,9.52-24,9.52a22.67,22.67,0,0,1-6.44-1l-.14-.14a20.63,20.63,0,0,1-8-4.83l-8.5-8.49a11.45,11.45,0,0,1-5.7,1.46,11.06,11.06,0,0,1-7.76-3.07l-9.37-9.37a17.73,17.73,0,0,1-3.22-2.64,11.06,11.06,0,0,1-2.93-7.61,12.1,12.1,0,0,1,4.25-9.07c6.58-5.57,13.17-11.13,28.39-25.62,6.88-9.37,17-20.49,25.91-27.23,10.54-7.75,23-14.19,34.55-14.19a34.14,34.14,0,0,1,8.63,1.17,18.11,18.11,0,0,1,9.52,6.88c12.73-15.37,25.18-29.28,33.81-36.6,4-3.36,8.2-5.56,12.3-5.56,3.51,0,6.88,1.61,10,5.56l9.52,9.52a11.65,11.65,0,0,1,1.17,14.64C1258.87,65.29,1231.35,97.49,1211.3,117.69Z" style="fill:#dda126"/><path d="M1201.93,149.16c-9.81-9.37-11-10.25-12-11.42a11.7,11.7,0,0,1-2.93-7.46,11.49,11.49,0,0,1,4.39-8.93c5.86-4.69,14.35-12.45,21.37-17.71a38.69,38.69,0,0,1,2.49-4h-.15a208.89,208.89,0,0,1,38.5-44.79,11.34,11.34,0,0,1,7.17-2.93c4.25,0,8.35,2.79,10.54,6.74l9.22,9.07a14.84,14.84,0,0,1,2.93,4.54,115,115,0,0,1,12.3-15.52,14.17,14.17,0,0,1,9.51-3.95,12.83,12.83,0,0,1,11.27,6.88l9.23,9.08a13.34,13.34,0,0,1,4,9.37,12.14,12.14,0,0,1-1,5A243.31,243.31,0,0,1,1300,121.05l9.66,9.52a10.62,10.62,0,0,1,2.78,7.32,11.67,11.67,0,0,1-4,8.78c-2.49,2.2-5.71,5-8.19,6.88-8.06,5.71-20.35,13.32-28.84,18.15l-.29.15-9.37,5.85-.44-.44c-20.79,28.69-44.94,54.89-69.68,54.89-6.88-.14-12.88-2.48-17.12-6.73-14.64-12.73-18.3-19.17-18-27.23.59-10.68,8.35-21.95,24.15-31.47,8.2-4.68,18.3-8.63,28.84-12.29l2.49-1-.29-.29a11.56,11.56,0,0,1-9.22-3.37A2.13,2.13,0,0,1,1201.93,149.16Z" style="fill:#dda126"/><path d="M7.32,136.28c0-21.37,22-54,35.71-68.95,27.52-29.56,62.51-50.5,92.66-50.5a60.1,60.1,0,0,1,7.32.44c21.52,3.66,30,19.18,30,37.48a74.65,74.65,0,0,1-3.37,21.51c-6.59,22.11-25.18,46.55-41.86,56.36a52.24,52.24,0,0,1-10.4-2.93c16-8.34,37.33-33.81,44.21-55.33a62.55,62.55,0,0,0,2.78-18.15c0-14.64-6-28.4-22.54-30.3a50.31,50.31,0,0,0-6.59-.44c-26.2,0-59,18.44-86.95,49.77-17.85,20.05-32,46.69-32,61,0,4.68,1.46,7.9,4.83,9.37,10,4.09,36.15-18,43.91-26.21C83.73,100,112.27,64.11,130.57,36A4.44,4.44,0,1,1,138,40.84C122.37,65,98.8,95.29,80.21,115.93c-9.22,0-16.68,8.93-16.39,16.83-9.81,8.64-27.81,22-40.55,22a13.49,13.49,0,0,1-5.56-1C10.25,150.48,7.32,144.18,7.32,136.28Zm67.33-16.84A17.89,17.89,0,0,1,82,117.83c10.39,0,22.54,7.32,29.72,11.27,7.17,4.25,13.32,5.86,18.73,5.86,7.61,0,14.05-3.22,20.79-7.76,1-.73,1.9-1.61,2.63-2a4.27,4.27,0,0,1,6.15.44,4.39,4.39,0,0,1-.44,6.15,39.77,39.77,0,0,0-3.51,2.93c-5.13,3.51-15.08,8.05-22.25,8.19-23.13.59-38.35-16.68-50.65-16.68a10.4,10.4,0,0,0-4.68,1c-2.64,1.32-3.81,4-3.22,6s2.05,6,11.12,7.76a20.24,20.24,0,0,0,4.25.29,38.65,38.65,0,0,0,15.07-3.36,43.78,43.78,0,0,0,10.69,4.54c-8.49,4.39-17,7.31-25.18,7.31a34.61,34.61,0,0,1-5.56-.43c-10.69-2.05-17.27-7.18-18.88-13.91S68.8,122.37,74.65,119.44Z" style="fill:#fff"/><path d="M153.41,125.45C167.9,113.3,184,96.46,212.54,66A16.67,16.67,0,0,0,216.35,75l-4.1,4.39c-21.81,23-38.35,40.4-53.14,52.84a4.55,4.55,0,0,1-6.29-.44A4.43,4.43,0,0,1,153.41,125.45Zm89.87-49.33c1.61,1.9.73,5.12-1.17,6.44a100.2,100.2,0,0,0-25.62,25.76c-6.14,8.93-11.12,18.3-11.12,24.3,0,2.49.88,4.39,2.78,5.41s5.12.88,10.25-1.9a99.72,99.72,0,0,0,17.86-13,4.41,4.41,0,1,1,5.85,6.59c-9.37,8.05-22,18-32.06,18a13.59,13.59,0,0,1-4.83-.87c-6.29-2.49-8.63-8.35-8.63-14.35a31.37,31.37,0,0,1,1.75-9.66C201.27,114,208,105,215,96.61c4.68-5.42,12.74-14.64,22.69-21.52C239.91,74.07,242,74.21,243.28,76.12Zm-16.69,5.27c-6.29-3.37-10.83-9.23-11.85-14.64-1.61-8.2,5.12-13.18,9.22-14.35,4.24-1.61,8.2,1.91,6.59,5.57-1.17,2.92-4.54,5.56-5.86,7.17-1.61-1.9-1.61-3.08-1.46-5.42a1,1,0,0,0-.88-1.17c-.59-.14-1,.15-1.17.88-.44,7.76,6.59,14.49,13.46,15.66A57.07,57.07,0,0,0,226.59,81.39Z" style="fill:#fff"/><path d="M231.86,127.06c5.27-4.54,10.84-9.52,16.54-14.93-2.34,5.12-4,10.1-4.09,15.8l-6.88,5.86a4.37,4.37,0,0,1-5.57-6.73Zm14.5,2.19c-.44-16.25,13.76-36.15,23.12-38.5a77.65,77.65,0,0,0-4.24,14.5C257.48,115.2,255,123,255,128.67c0,5.56,2.49,9.07,4.83,10,3.37,1.32,7.91.29,14.35-3.22a29.08,29.08,0,0,0,8.34,5.27C275.92,145.06,269,148,262.9,148a17,17,0,0,1-6.15-1.17C250.89,144.47,246.65,138.18,246.36,129.25ZM267,108c2.79-18.74,18-44.36,37.77-46.41,13.17-1,20.64,9.23,18.88,21.08-2.34,17.42-16.83,36.6-28.69,47.72-3.95.15-6.88-1.17-9.95-2.93,12.15-10.24,22.39-23.56,27.52-37.32a30.69,30.69,0,0,0,2.19-10.39c0-5.27-2.19-9.81-9.07-9.37-14.93,1-28.11,24.44-29.86,37-.15,1.61-.3,3.22-.3,4.69,0,6.87,2.2,12.73,7.62,16.68a21.53,21.53,0,0,0,11.56,3.37c7.61,0,15.22-3.66,21.52-8.64,3.66-3.07,7.17-.14,7.17,3.22a5.39,5.39,0,0,1-1.9,4A40,40,0,0,1,295.39,141a34,34,0,0,1-10.83-1.76C271.09,134.52,265.82,120.91,267,108Z" style="fill:#fff"/><path d="M360.09,79.34c7-9.66,12.88-16.69,17-20.64s9.66,1.61,6.59,5.85C375.9,74.36,369,82.7,361.85,91.63c-11,10.54-23.28,24.89-33.81,38.94a1,1,0,0,0,.14,1.46c.44.44,1,.29,1.47-.29,17.71-23.13,47.57-58.7,72.6-65.58a22.79,22.79,0,0,1,4.39-.58A12.93,12.93,0,0,1,415,68.5c3.52,2.93,5,7,5,11.86,0,16-16.39,39.38-26.93,49.62a34.39,34.39,0,0,1-5.42.44,25.88,25.88,0,0,1-6.88-.88c13.18-11.41,24.3-25.9,29.13-41.57a28.52,28.52,0,0,0,1.32-7.46c0-4.1-1.91-5.71-4.69-5.71-3.8,0-9.07,2.63-13.61,5.41-25.62,16.4-49.62,47.43-67.19,70.71a379.84,379.84,0,0,0-30.44,48.3,4.17,4.17,0,0,1-3.81,2.49,4.39,4.39,0,0,1-4.1-6.3C308.13,153.7,334.62,116.66,360.09,79.34Zm-48,47.72A353.29,353.29,0,0,0,341.79,99l.59-.44c0-.14.15-.29.29-.44L350,90.31c-8.2,11.86-17.27,25.47-26.2,38.36-2.2,1.75-4,3.51-6.15,5.12a4.36,4.36,0,1,1-5.56-6.73ZM344,130.28c1.61-1.76,2.93-3.52,4.54-5.27a29.31,29.31,0,0,0,4.24,5.12c.3,6.29,3.37,9.51,8.2,9.51a15.55,15.55,0,0,0,4.83-.87,32,32,0,0,0,12.3,3.8c-7.18,4.54-14.06,6.88-20.94,5.86C348.09,147,344,138.33,344,130.28Zm11.56-13.18c6.15,8.2,17.57,14.35,29.43,15.22,8.34.59,17-1.17,26.93-9.22a4.42,4.42,0,0,1,5.71,6.74c-6.59,6-13.61,9.8-22.25,11a57.5,57.5,0,0,1-7.17.44c-15.08,0-30.3-5.85-38.21-17.85Z" style="fill:#fff"/><path d="M484.66,126.91c7.17-5.86,16.69-14.78,24.15-22.25-3.07,5.71-7.46,13.47-9.07,20.93-3.08,2.78-6.15,5.42-9.52,8.2a4.29,4.29,0,0,1-6.14-.73A4.42,4.42,0,0,1,484.66,126.91Zm16.84,3.81a30.33,30.33,0,0,1,.87-7.18c8.64-27.66,56.21-85,75.24-97.78,3.95-2.63,9.66,1.61,7.32,5.86-3.51,6.29-14.49,19-20.2,26.2H559l16.25-17.57a1.15,1.15,0,0,0,0-1.61c-.44-.43-1.17-.14-1.61.3-9.37,10.54-34.69,36.3-53.28,66.45-4.69,7.61-9.52,18.15-9.52,25.47,0,3.51,1.17,6.44,4.1,7.76,4.25,1.61,9.81-1.17,21.67-10.39,2.19-1.61,4.09-3.22,6.29-5.13a4.36,4.36,0,0,1,5.71,6.59,72.07,72.07,0,0,1-6.59,5.56c-5.41,4.1-10.39,7.76-15.07,10a21.9,21.9,0,0,1-9.81,2.63,15.45,15.45,0,0,1-5-.88C504.28,144.62,501.5,137.74,501.5,130.72Zm21.22-71h18.74c-2.49,2.78-4.83,5.86-7.61,8.78H522.72a4.4,4.4,0,0,1-4.39-4.39A4.5,4.5,0,0,1,522.72,59.72ZM553.9,70.55c-8,8.93-23,26.94-31.33,35.28,5.13-8.78,18.15-26.49,25.62-35.28Zm26.35-10.68a4.32,4.32,0,1,1,0,8.63H550c2.48-3.07,5.12-5.85,7.32-8.63Z" style="fill:#fff"/><path d="M538.24,126.91c15.07-11.86,26.78-25.32,39.67-38.2-8.35,12.14-16.55,24.59-23.72,35.86-3.66,3.36-7,6.29-10.39,9.07a4.27,4.27,0,0,1-6.15-.58A4.4,4.4,0,0,1,538.24,126.91ZM622,103.78c6-7,12.14-13.76,16.68-19.76,3.66-4.68,6.3-8.49,6.3-10.83s-2.35-2.93-7.91-1.61c-29.86,10.68-67,47.42-82,73.33a4.06,4.06,0,0,1-3.66,2.2,4.36,4.36,0,0,1-4.1-6.3c4.1-8.92,9.81-16.54,15.08-24.73C584.05,82.7,617.57,37,635.29,24c3.8-2.64,9.22,1.46,6.88,5.7-4.1,9.23-34.84,44.36-44.21,52,11-14.49,25.76-32.64,39.67-48.89.44-.44.29-.88-.15-1.46s-1-.3-1.32.14c-17.56,20.64-31.47,37-44.5,55.48,0,.14-.14.14-.14.29l-.15.15C583.91,93.68,576,101.88,568,110.66a.9.9,0,0,0,.15,1.47c.44.43.88.43,1.32-.15,18.29-20.2,40.25-40,65.13-48.74a24.48,24.48,0,0,1,7.32-1.18c5.56,0,10.54,2.35,11.71,8.79,1.17,6.15-4,13-7.9,18.59-4.83,6.29-11.27,13.17-17,20-5.86,6.88-10.83,13.32-13.32,18.74a12.76,12.76,0,0,0-1.61,5.56,4.78,4.78,0,0,0,1.75,4c3.08,2.49,10.4.29,20.35-7.17q4.39-3.3,9.22-7.47a4.27,4.27,0,0,1,6.15.44,4.39,4.39,0,0,1-.44,6.15c-3.37,2.78-6.59,5.42-9.66,7.76-4.83,3.66-10.1,7-15.37,8.78A24.19,24.19,0,0,1,619,147.4c-8.49,0-13.91-5.85-13.91-13.76a22.08,22.08,0,0,1,2.2-9.07C610.4,118,616.26,110.66,622,103.78Z" style="fill:#fff"/><path d="M640.26,126.91a227.09,227.09,0,0,0,17.13-15.37,47,47,0,0,0-2.2,14c-3.36,2.93-6.29,5.71-9.36,8.2a4.3,4.3,0,0,1-6.15-.73A4.42,4.42,0,0,1,640.26,126.91Zm17.42-3.51c0-23.57,23.57-51.38,45.09-60.16A28.09,28.09,0,0,1,713.16,61c9.22,0,16,6,16,15.81a27.71,27.71,0,0,1-.74,5.71c-5,20.64-31.32,34.54-50.2,34.54a28.83,28.83,0,0,1-9.08-1.32,47.18,47.18,0,0,1,3.66-8.34,22.32,22.32,0,0,0,5.56.59c10.54,0,24-5.86,32.5-13.32,4.24-3.66,9.51-11.27,9.51-17.42a7.53,7.53,0,0,0-1.61-5c-.88-1.17-2.78-1.76-5.41-1.76a28.57,28.57,0,0,0-11.13,2.79c-13.32,6.44-29.27,24.44-34,38.35a31.22,31.22,0,0,0-1.75,10.1c0,10.1,5.7,18.59,18.15,18,8-.44,17.12-3.95,24.73-9.81,2.79-2.19,5.42-4.39,8.35-6.88a4.36,4.36,0,1,1,5.71,6.59,93.84,93.84,0,0,1-8.79,7.17c-8.78,6.88-19.61,11.27-29.56,11.71s-20.64-2.92-24.89-12.88A29.26,29.26,0,0,1,657.68,123.4Z" style="fill:#fff"/><path d="M790.89,122.23c0-15.67,11.71-32.65,35-43.62,15.07-7.18,33.52-9.67,53-9.67A365.43,365.43,0,0,1,922.48,72c4.4.44,8.79,1,13,1.61l3.37.58h-.15c6,.88,13.47,2.05,18,2.64H957l3.51.58,29.13,4.1H991c-1.9,2.64-4,5.27-5.86,8l-1.61-.29c-11.41-1.32-23.71-3.22-36.3-5.12l-1.61-.29A114.74,114.74,0,0,0,931.56,82l-9.95-1.46c-14.64-1.76-29-3.08-42.6-3.08-18.74,0-35.86,2.49-49.62,9.08-21.67,10.1-29.86,24.3-29.86,35.72a20.32,20.32,0,0,0,1,6.73c2.78,8.49,11.86,15.66,27.08,15.66A68.09,68.09,0,0,0,848.12,141c12.15-3.8,28.84-15.08,47.87-29.71,9.37-7.32,19-15.23,29.28-23.57l4.53-3.8a112,112,0,0,1,11.57,1.31l-10.69,8.93c-10.1,8.34-20,16.54-29.57,24-18.59,14.34-36.74,26.64-50.35,31a72.91,72.91,0,0,1-23,4c-18.15,0-31-8.49-35.43-21.52A29.21,29.21,0,0,1,790.89,122.23Zm176.53,6.14c.73-7.9,5.71-18.29,15.81-32.93.15-.15.15-.15.15-.44,3.36-4.39,6.58-8.93,10-13h.15l3.36-4.39c8.35-10.25,18.15-20.93,26.5-30.59a222.05,222.05,0,0,0,16.1-20.93,37.45,37.45,0,0,0,3.37-5.86,6.1,6.1,0,0,0,1-1.9,7.19,7.19,0,0,0,.29-1.76,4,4,0,0,0-.44-1.9,4.39,4.39,0,0,0-3.07-2.2,16.29,16.29,0,0,0-5.56-.44c-.59,0-.88.44-.88,1a1,1,0,0,0,1,.88c4.4-.15,6.15.58,6.74,1.75a.48.48,0,0,0,.14.3,17.48,17.48,0,0,0-7.17,1c-5.41,1.46-12,5-19.91,9.81-15.66,10.1-34.54,25.32-54.45,42L954,74.36c-3.52-.44-7.47-1-11.28-1.76l12.45-10.39C975,45.67,994.21,30,1010.31,19.62c10.83-6.74,21.67-12.3,30.59-12.3a15.6,15.6,0,0,1,9.52,2.93c.44.44,1,.87,1.17,1.31l.59,1.47c1.9,5.27-1.91,12.29-5.57,17.71-4.1,6.59-10.24,13.91-16.83,21.81-6.44,7.61-13.76,15.52-20.2,23.13-4.39,4.83-8.49,10.1-12.3,15.22l-3.07,3.95c-1.32,1.76-2.64,3.66-4,5.27-10,14.49-13.62,23.57-14.35,29.28-.58,5,1.17,6.73,3.22,7.61a10.63,10.63,0,0,0,4.39.88c4.4,0,10-2.34,16.4-7.47,2.78-2,5.85-4.54,8.93-7.17a4.3,4.3,0,1,1,5.71,6.44c-3.22,2.78-6.44,5.42-9.37,7.76-6.88,5.27-14.64,9.07-21.81,9.07a18.18,18.18,0,0,1-7.76-1.75C970.06,142.43,966.25,137,967.42,128.37Zm38.65-45.52c2.63,0,5.27.15,7.75.15a4.32,4.32,0,0,1,0,8.63c-4.39,0-9.22-.14-14.34-.58Z" style="fill:#fff"/><path d="M1004.31,126.91c7.62-6.3,15.67-13.91,23.72-22a61.53,61.53,0,0,0-7.47,19.47c-3.51,3.37-7.46,6.59-10.83,9.37a4.12,4.12,0,0,1-6-.73A4.28,4.28,0,0,1,1004.31,126.91Zm17.72,4.68c0-8.49,3.66-18.29,6.29-23.27,6.88-12.3,17.27-25.47,29.86-34,8.2-5.86,18-9.07,26.06-9.07a22.55,22.55,0,0,1,9.22,1.9c3.22,1.61,4.68,4.1,4.68,6.58,0,3.66-3.36,7.18-10.1,7.32-24,.3-49.33,30.89-45.67,25,7.76-12.44,25-30.74,41.43-30.74a21.05,21.05,0,0,1,4.24.44c3.22.59,2.78-1.17,0-1.75a20.18,20.18,0,0,0-4.24-.3c-19.62,0-38.35,21.38-47.72,38.79-3.95,7-5.71,13.62-5.56,18.45,0,5.56,2.34,7.46,5.56,7.46,4.83,0,11.56-4.24,14.93-6.58,6.29-4.25,20.2-15.08,26.64-21.52-2.49,4.83-7.17,12.29-8.64,18.59-3.36,2.78-10,7.9-13,10.1-6.44,4.54-13.62,8.34-20.2,8.34a15.13,15.13,0,0,1-4.4-.58C1024.37,144.47,1022,138.47,1022,131.59Zm47.28,7c0-28.54,72.31-110.95,80.94-112,4.83-.58,8.64,3.81,5.86,7.76-10.83,16-44.06,55.62-63.68,74.8,15.37-24,46.84-60.9,58.41-72.17.44-.44.29-.87-.15-1.46a.82.82,0,0,0-1.31,0c-8.35,7.47-35.43,38.94-52,62.21-13.47,19-22.54,38.06-18.59,40.55.88.58,2,1.31,7.76-1.76,5.12-2.93,11.27-7.61,18.15-13.47a4.36,4.36,0,1,1,5.71,6.59c-6.88,6-13.61,11.12-19.62,14.49-3.8,2-8.19,3.95-12.29,3.95a10.1,10.1,0,0,1-5.42-1.46C1070.48,145.06,1069.31,142.28,1069.31,138.62Z" style="fill:#fff"/><path d="M1100.19,126.91c7.62-6.3,15.67-13.91,23.72-22a61.53,61.53,0,0,0-7.47,19.47c-3.51,3.37-7.46,6.59-10.83,9.37a4.12,4.12,0,0,1-6-.73A4.28,4.28,0,0,1,1100.19,126.91Zm17.72,4.68c0-8.49,3.66-18.29,6.29-23.27,6.88-12.3,17.27-25.47,29.86-34,8.2-5.86,18-9.07,26.06-9.07a22.55,22.55,0,0,1,9.22,1.9c3.22,1.61,4.68,4.1,4.68,6.58,0,3.66-3.36,7.18-10.1,7.32-24,.3-49.33,30.89-45.67,25,7.76-12.44,25-30.74,41.43-30.74a21.05,21.05,0,0,1,4.24.44c3.22.59,2.78-1.17,0-1.75a20.18,20.18,0,0,0-4.24-.3c-19.62,0-38.35,21.38-47.72,38.79-4,7-5.71,13.62-5.56,18.45,0,5.56,2.34,7.46,5.56,7.46,4.83,0,11.56-4.24,14.93-6.58,6.29-4.25,20.2-15.08,26.64-21.52-2.49,4.83-7.17,12.29-8.64,18.59-3.36,2.78-10,7.9-13,10.1-6.44,4.54-13.62,8.34-20.2,8.34a15.13,15.13,0,0,1-4.4-.58C1120.25,144.47,1117.91,138.47,1117.91,131.59Zm47.28,7c0-28.54,72.31-110.95,80.94-112,4.83-.58,8.64,3.81,5.86,7.76-10.83,16-44.06,55.62-63.68,74.8,15.37-24,46.84-60.9,58.41-72.17.44-.44.29-.87-.15-1.46a.82.82,0,0,0-1.31,0c-8.35,7.47-35.43,38.94-52,62.21-13.47,19-22.54,38.06-18.59,40.55.88.58,2,1.31,7.76-1.76,5.12-2.93,11.27-7.61,18.15-13.47a4.36,4.36,0,1,1,5.71,6.59c-6.88,6-13.61,11.12-19.62,14.49-3.8,2-8.19,3.95-12.29,3.95a10.1,10.1,0,0,1-5.42-1.46C1166.36,145.06,1165.19,142.28,1165.19,138.62Z" style="fill:#fff"/><path d="M1184.51,173c14.35-8.2,32.06-12.3,54-22.1-3.36,4.83-6.44,9.07-10.39,13.9-15.81,6-28.69,9.81-39.08,15.81-12.44,7.32-16.4,14.35-16.4,18.3-.14,3.66,2.78,5.85,7.47,5.85,19.76,0,41.13-27.37,51.23-40.69,26.06-37.47,4.1-3.66,50.5-76.41,6.15-9.07,13.47-20.2,18.88-25.62a6.89,6.89,0,0,1,4.54-1.9c4,0,7.17,4.39,5.42,8.2a230.23,230.23,0,0,1-25.18,33.52l18.88-29.42c.88-1.17-1-2.2-1.75-1.17-21.81,33.81-39.38,61.91-57.82,89.43-19.76,27.52-42.6,52.84-64.7,52.84-9.37-.14-16.69-6.14-16.25-15.07C1164.31,190.14,1171,181.07,1184.51,173Zm11.56-46.11c5.86-4.68,14.06-12.15,19.91-18a53.18,53.18,0,0,0-8.2,19.62c-1.75,1.61-4.39,3.8-6.14,5.12a4.37,4.37,0,0,1-5.57-6.73Zm13.32,7.17a26.84,26.84,0,0,1,.44-4.68c1.91-9.81,8.2-20.64,11.57-25.76a194.69,194.69,0,0,1,37-43.33c4-3.52,9.37,1.9,7,5.85-7,10.54-19.47,24.3-31.77,37.77,6.59-10.1,15.23-20.64,28.25-35.13a1,1,0,0,0,0-1.47c-.43-.44-.87-.44-1.46,0-17.42,19.33-26.93,31.91-34.84,46.11-3.51,6.3-5.85,11.71-6.88,16.25-1.46,7,.59,8.64,3.52,9.08,10.83,1.46,30.59-17.28,42.45-28l-14.35,22.39c-9.37,8.93-21.08,14.93-29.71,14.49C1213.35,147.26,1209.39,141.69,1209.39,134.08Zm39.53,24.45,10.24-15.81c4.25-2.78,16.69-10.83,19.91-13.32,2.49-1.91,4.83-4.1,7.61-6.3a4.36,4.36,0,0,1,5.71,6.59q-3.95,3.51-7.9,6.59c-7.91,5.85-20.2,13.17-28.4,17.86Zm36.59-56.65a.14.14,0,0,0-.15.14Z" style="fill:#fff"/></svg>